<?xml version="1.0" encoding="UTF-8"?>
<svg id="layer" xmlns="http://www.w3.org/2000/svg" version="1.1" viewBox="0 0 1000 1000">
  <!-- Generator: Adobe Illustrator 29.4.0, SVG Export Plug-In . SVG Version: 2.1.0 Build 152)  -->
  <defs>
    <style>
      .st0, .st1 {
        fill: #fff;
      }

      .st2 {
        fill: #00740c;
        stroke: #fff;
      }

      .st2, .st1 {
        stroke-miterlimit: 10;
        stroke-width: 4px;
      }

      .st1 {
        stroke: #b50000;
      }

      .st3 {
        fill: #b50000;
      }
    </style>
  </defs>
  <rect id="background" class="st3" width="1000" height="1000"/>
  <g id="skeleton">
    <path class="st0" d="M483.4,559.5c-1.5-.8-26.2-14.1-50.2-.7-18,10-23.1,27.9-24.1,31.4,11,11.8,15.4,21.5,13.1,29.4-6.1,20.3-57.7,27.1-155,20.4-15.7-15.7,5.1-34.6-2.4-47.4-6.5-11.2,17.4-5.9,21.8-13.8,7.9-17.3-13.5-35.1-17.2-50.1-39.7-16.8-12.6-30.6,3.8-53,13.4-27.1-7-43.3,9.8-67.9,21.8-39.9,32.2-93.3,71.5-125.5,86.9-64.7,228.7-95.2,320.2-25.2,94.6,61,126.9,223.7,64.7,305.6-33.7,34.6-80.9,31.7-120.2,53.7-19.7,7.1-30.9,34.3-46.9,14.7-3-9.3-8.5-21.7-18.5-33.8-25-30.1-60-36.3-70.6-37.8Z"/>
    <path class="st0" d="M519.3,624.6c8.9,73-12.8,95.1-80.9,117.4-47.2,15.2-112.6,57-162.8,34.4-37.4-28.3,10.2-60.2,5.4-83.6,9.4.4,19.3.2,29.7-.6,49.4-4,88.5-22.2,114.9-38.2-1.6-62.5,1.3-94.3,8.8-95.4,4.2-.6,9.8,8.2,16.7,26.4,35.5,49.1,63.8-52.9,75.3-18.9-1.3,4.8-6.7,41.2-7,58.5Z"/>
    <path class="st3" d="M507.5,568.7c-51.5,87.4-66.5-34.6-76.1-3.4,0,38.8,19,100-18.6,124,2.3-11.5,24-23.8,14.7-36.5-3.9-8.2-7.9-16.3-11.8-24.5,10.6-13.1-5.7-33-14.5-43.6-5,2.4-9.9,4.7-14.8,7.1-10.3.7-19,5.9-30.3,5-18.8-.7-13.7-24.3-28.3-31.2-4-5.1-27.9-17.8-18.3-22.6,8.1,11.5,23.6,18.6,32,31,.9,8.7,6,15.8,13,17.9,4.2,1.3,8,.4,10.1-.3,61.6-8.6,66.4-75.1,143-23Z"/>
    <path class="st3" d="M351,478.4c3.4,12.2,2.6,21.6,2.3,23.6-2.9,21.3-19.5,42.2-29.9,40.2-9.8-2-15.8-24.9-14.6-55.6-2.7-12.1-12.5-30.2-9.4-42.6,5.8-31.7,48.2,21.9,51.7,34.4Z"/>
    <path class="st3" d="M417.4,532.3c53.5-7.2,105,10.2,114.9,8.2.6,0,3.2-.7,4.1.4.5.7.4,1.8-.6,3.8-49.8,11.4-99.8-18.2-148.2-1.4-30.4.4-6.2-50.6-18.7-70.4-17-39.4-31-65.6,8.8-96.5,1.4-1,4.4-2.1,5.2-1.2,2.2,2.5-16.2,15.1-23.1,32.9-11.6,30,21,46.1,18.3,95.8-.7,12.3-3.3,22.3,3.1,28.6,6.9,6.7,17.4,2.2,36.2-.2Z"/>
    <path class="st2" d="M487,255.3c8.8,30.3-1.4,41.6,7.6,70.2,8.8,27.8,27.8,46.8,43.2,58.8-6.4-42.6-3.6-89.8,17-129,2.8-7,10.4-6.2,7.4,2.1,8.1,28.6,25.8,56.2,30.6,87.2,16.9,46.4-6.2,96.2,24.4,137.1.6,13.4,17.4,72.8,18.3,44.6-13.4-49.8-6.2-105,28.7-144.3,22.1-18.2,6.6,28.6,10.3,40.4,15.5,54.8,32.2,112.6,14.3,169.5-1.8,12.7,3.7,33.4,19.4,31.9-1.4-33.4-10.8-71.8,3.4-105.9,4.9-12.3,37.4-59.3,33.8-24.9-1.7,26.1,15.5,47.6,25.2,69.7,6.1,79.9-35.5,153.4-20.1,233,6.8,55.8-12.2,6.6-18.7-13.8-9.7-17.2-30-24.3-39-42.5-11.5-27.7-38.6-20.3-62.9-19.3-12.7-9-80.9-8.2-45.5-26.6,77.9-69.4,148.4-27.2,85.5-80.4-28-7.5-57.8,6.5-86.9,2.2-25.8-10.7-54.6-25.8-79.2-1.4-30.4,21.1,4.6-60.8,20.4-63,36.1-22.9,75.4-7.6,107.4,11.5-3.2-5.7-21.9-13.3-11.8-20.8,11.2-11.7-48-31-56.9-46.3-66.8,2.2-111.8-50-147-101.4-11.8-29,74.6,12.4,71.7-2.7-11-17.5,15.6-3.8,20.4-9.7-2.3-4.8-6.3-11.8-13.1-18.4-21.8-21-45.7-12.4-81.5-21.4-49-12.2-53.3-37-91.3-41-13.4-1.4-29.3,2.4-50.6,15.7-22.9,10.5-67,15.5-85.2-2.4,11.1-7,71.9-53.4,48.6-65.2-22.7-16.7-40.6-40.6-54.3-64.6,6.2-6.8,21.1,6.7,31,2.2,33.8,3.2,70.6-3.7,100.6,15.6,8,1.2,38,28.6,35.1,9.1-13.8-63.9,27.4-6.2,60.6.2,13,3,30.2,29.5,21.1-26,10.4-4.9,45.6,28.2,57.8,69.8Z"/>
    <g id="tooth">
      <path class="st1" d="M413.8,666.3c-11.4,10.6-27.3-4.4-18.2-16.6,17.4-3.7,45.9-4.6,18.2,16.6Z"/>
      <path class="st1" d="M392.9,676.3c-13.6,13.6-28.1-15.9-10.3-18.8,11.6-7.3,20.7,12.6,10.3,18.8Z"/>
      <path class="st1" d="M362.4,660.7c28.8-13.5,7.9,43.2-7.7,17.1-3.3-9.9-2.2-15,7.7-17.1Z"/>
      <path class="st1" d="M347.1,665.4c.9.2,1.5.6,2.1.9,4,2.6,3.8,8.4,3.8,9.2,0,7.4-4.6,14.1-12.7,13.3-18.3-26.6-2.9-15.3,6.8-23.4Z"/>
      <path class="st1" d="M324,690.2c-5.5-5.9-9.5-14.6-5-23,2.6,1.6,5.1,2.6,8.2.3,5.9-3.5,11,33-3.2,22.6Z"/>
      <path class="st1" d="M307.6,668.8c4.7,1.1,6.2-2.6,8.2-5.6,1.8,8.6,9,25.8-.6,31.6-11,4.2-14.5-21.9-7.5-26Z"/>
      <path class="st1" d="M297.3,695.6c-9.6.6-6.3-13.4-10.8-19.4-1.2-6.1,4.5-5.3,8.2-7.7,1.4-2.2,2.6-4,5.6-3,5.7,8.1,8,25.8-3,30.1Z"/>
      <path class="st1" d="M281.6,665.3c5.4,5.1,10.5,21,5,26.2-10.9,7.4-20.5-28.9-5-26.2Z"/>
      <path class="st1" d="M415.7,628.1c14.7,18.3-18.7,33.4-21.8,11.7-4.2-11,17.4-20.6,21.8-11.7Z"/>
      <path class="st1" d="M386.5,634.6c16.6,1.4,8.2,27-9.2,23.4-4.9-4.1-5-17.8-1.8-21.2,4,.6,7.7,0,11-2.2Z"/>
      <path class="st1" d="M371.1,635.7c8.2,10.9,5.1,25.3-10.8,26.2-23.4,5.7-18.2-32.6,10.8-26.2Z"/>
      <path class="st1" d="M345.7,647.2c3.8,8.5,4.2,25-9.4,20.5-14.2-7.4-1.2-41.9,9.4-20.5Z"/>
      <path class="st1" d="M324.5,641.3c10.7,2.6,7.8,36.3-4.7,25.6-2.7-6.3-6.2-28.4,4.7-25.6Z"/>
      <path class="st1" d="M301.5,666.6c-5.8-9.3-4-39.2,11.3-24.5,8.1,4.5,2.8,32.2-11.3,24.5Z"/>
      <path class="st1" d="M287.8,635.7c16.6,3.9,13.8,47.2-5.8,31.6-5.8-9.5-3.9-26.5,5.8-31.6Z"/>
      <path class="st1" d="M282.1,641.7c-4.3,5.6.7,19.5-4.5,22-21.2,18.9-11.3-53.8,4.5-22Z"/>
    </g>
  </g>
</svg>