<?xml version="1.0" encoding="utf-8"?>
<!-- Generator: Adobe Illustrator 27.0.1, SVG Export Plug-In . SVG Version: 6.00 Build 0)  -->
<svg version="1.1" id="レイヤー_1" xmlns="http://www.w3.org/2000/svg" xmlns:xlink="http://www.w3.org/1999/xlink" x="0px"
	 y="0px" viewBox="0 0 940 180" style="enable-background:new 0 0 940 180;" xml:space="preserve">
<style type="text/css">
	.st0{fill:#B50000;}
	.st1{fill:#FFFFFF;}
	.st2{fill:#00740C;stroke:#FFFFFF;stroke-width:0.8;stroke-miterlimit:1.6;}
	.st3{fill:#FFFFFF;stroke:#B50000;stroke-width:0.8;stroke-miterlimit:1.6;}
	.st4{fill:#FDFDFD;}
	.st5{fill:#FEFEFE;}
	.st6{fill:#B91212;}
	.st7{fill:#C33434;}
	.st8{fill:#FEFDFD;}
	.st9{fill:#FDF9F9;}
	.st10{fill:#FDFBFB;}
	.st11{fill:#FDFCFC;}
	.st12{fill:#FCF8F8;}
	.st13{fill:#B91111;}
	.st14{fill:#FCF6F6;}
	.st15{fill:#BB1717;}
	.st16{fill:#F9ECEC;}
	.st17{fill:#B80F0F;}
	.st18{fill:#FDFAFA;}
	.st19{fill:#FAF1F1;}
	.st20{fill:#FAF2F2;}
	.st21{fill:#BC1B1B;}
	.st22{fill:#C02929;}
	.st23{fill:#F4DDDD;}
	.st24{fill:#FBF4F4;}
	.st25{fill:#F6E2E2;}
	.st26{fill:#F9EEEE;}
	.st27{fill:#F6E5E5;}
	.st28{fill:#F7E5E5;}
	.st29{fill:#EDC5C5;}
	.st30{fill:#F2D6D6;}
	.st31{fill:#FAF0F0;}
	.st32{fill:#BC1E1E;}
	.st33{fill:#F6E4E4;}
	.st34{fill:#F6E3E3;}
	.st35{fill:#E3A2A2;}
	.st36{fill:#F8EAEA;}
	.st37{fill:#F8EBEB;}
	.st38{fill:#F2D5D5;}
	.st39{fill:#ECC1C1;}
	.st40{fill:#FCF7F7;}
	.st41{fill:#BE2525;}
	.st42{fill:#EBBFBF;}
	.st43{fill:#F9EDED;}
	.st44{fill:#F5E0E0;}
	.st45{fill:#EABCBC;}
	.st46{fill:#EDC7C7;}
	.st47{fill:#CB5050;}
	.st48{fill:#F3D9D9;}
	.st49{fill:#C12D2D;}
	.st50{fill:#FAF3F3;}
	.st51{fill:#BA1515;}
	.st52{fill:#BD1E1E;}
	.st53{fill:#C64040;}
	.st54{fill:#C43939;}
	.st55{fill:#C53D3D;}
	.st56{fill:#C12F2F;}
	.st57{fill:#BC1D1D;}
	.st58{fill:#BF2424;}
	.st59{fill:#BF2828;}
	.st60{fill:#CC5555;}
	.st61{fill:#BF2727;}
	.st62{fill:#E9B6B6;}
	.st63{fill:#EEC6C6;}
	.st64{fill:#CA4C4C;}
	.st65{fill:#BA1616;}
	.st66{fill:#F3DADA;}
	.st67{fill:#F0D1D1;}
	.st68{fill:#BF2525;}
	.st69{fill:#E8B3B3;}
	.st70{fill:#C22F2F;}
	.st71{fill:#BE2222;}
	.st72{fill:#C12E2E;}
	.st73{fill:#F7E6E6;}
	.st74{fill:#D36C6C;}
	.st75{fill:#C84747;}
	.st76{fill:#CB5151;}
	.st77{fill:#BF2626;}
	.st78{fill:#B60505;}
	.st79{fill:#B60808;}
	.st80{fill:#D16666;}
	.st81{fill:#F5E1E1;}
	.st82{fill:#BB1919;}
	.st83{fill:#BD2020;}
	.st84{fill:#E09999;}
	.st85{fill:#E4A6A6;}
	.st86{fill:#C43737;}
	.st87{fill:#BB1616;}
	.st88{fill:#BD2121;}
	.st89{fill:#DA8383;}
	.st90{fill:#D16363;}
</style>
<g id="layer">
	<g id="background">
		<rect y="0" class="st0" width="940" height="180"/>
	</g>
	<g id="skeleton">
		<path class="st1" d="M135.9,101.1c-0.3-0.1-4.9-2.6-9.3-0.1c-3.4,1.9-4.3,5.2-4.5,5.9c2.1,2.2,2.9,4,2.4,5.5
			c-1.1,3.8-10.7,5-28.9,3.8c-2.9-2.9,1-6.5-0.4-8.8c-1.2-2.1,3.2-1.1,4.1-2.6c1.5-3.2-2.5-6.5-3.2-9.3c-7.4-3.1-2.3-5.7,0.7-9.9
			c2.5-5-1.3-8.1,1.8-12.6c4.1-7.4,6-17.4,13.3-23.4c16.2-12.1,42.6-17.7,59.6-4.7c17.6,11.4,23.6,41.7,12.1,56.9
			c-6.3,6.4-15.1,5.9-22.4,10c-3.7,1.3-5.8,6.4-8.7,2.7c-0.6-1.7-1.6-4-3.4-6.3C144.4,102.5,137.8,101.4,135.9,101.1z"/>
		<path class="st1" d="M142.6,113.2c1.7,13.6-2.4,17.7-15.1,21.9c-8.8,2.8-21,10.6-30.3,6.4c-7-5.3,1.9-11.2,1-15.6
			c1.7,0.1,3.6,0,5.5-0.1c9.2-0.7,16.5-4.1,21.4-7.1c-0.3-11.6,0.2-17.6,1.6-17.8c0.8-0.1,1.8,1.5,3.1,4.9c6.6,9.1,11.9-9.8,14-3.5
			C143.6,103.2,142.6,110,142.6,113.2z"/>
		<path class="st0" d="M140.4,102.8c-9.6,16.3-12.4-6.5-14.2-0.6c0,7.2,3.5,18.6-3.5,23.1c0.4-2.1,4.5-4.4,2.7-6.8
			c-0.7-1.5-1.5-3-2.2-4.6c2-2.4-1.1-6.2-2.7-8.1c-0.9,0.4-1.8,0.9-2.8,1.3c-1.9,0.1-3.5,1.1-5.6,0.9c-3.5-0.1-2.5-4.5-5.3-5.8
			c-0.7-1-5.2-3.3-3.4-4.2c1.5,2.1,4.4,3.5,6,5.8c0.2,1.6,1.1,2.9,2.4,3.3c0.8,0.2,1.5,0.1,1.9-0.1
			C125.2,105.5,126.1,93.1,140.4,102.8z"/>
		<path class="st0" d="M111.2,86c0.6,2.3,0.5,4,0.4,4.4c-0.5,4-3.6,7.9-5.6,7.5c-1.8-0.4-2.9-4.6-2.7-10.4c-0.5-2.2-2.3-5.6-1.8-7.9
			C102.7,73.7,110.6,83.7,111.2,86z"/>
		<path class="st0" d="M123.6,96c10-1.3,19.5,1.9,21.4,1.5c0.1,0,0.6-0.1,0.8,0.1c0.1,0.1,0.1,0.3-0.1,0.7
			c-9.3,2.1-18.6-3.4-27.6-0.3c-5.7,0.1-1.1-9.4-3.5-13.1c-3.2-7.3-5.8-12.2,1.6-18c0.3-0.2,0.8-0.4,1-0.2c0.4,0.5-3,2.8-4.3,6.1
			c-2.2,5.6,3.9,8.6,3.4,17.8c-0.1,2.3-0.6,4.2,0.6,5.3C118.1,97.3,120.1,96.5,123.6,96z"/>
		<path class="st2" d="M136.5,44.5c1.6,5.6-0.3,7.7,1.4,13.1c1.6,5.2,5.2,8.7,8,10.9c-1.2-7.9-0.7-16.7,3.2-24
			c0.5-1.3,1.9-1.2,1.4,0.4c1.5,5.3,4.8,10.5,5.7,16.2c3.1,8.6-1.2,17.9,4.5,25.5c0.1,2.5,3.2,13.6,3.4,8.3
			c-2.5-9.3-1.2-19.6,5.3-26.9c4.1-3.4,1.2,5.3,1.9,7.5c2.9,10.2,6,21,2.7,31.6c-0.3,2.4,0.7,6.2,3.6,5.9c-0.3-6.2-2-13.4,0.6-19.7
			c0.9-2.3,7-11,6.3-4.6c-0.3,4.9,2.9,8.9,4.7,13c1.1,14.9-6.6,28.6-3.7,43.4c1.3,10.4-2.3,1.2-3.5-2.6c-1.8-3.2-5.6-4.5-7.3-7.9
			c-2.1-5.2-7.2-3.8-11.7-3.6c-2.4-1.7-15.1-1.5-8.5-4.9c14.5-12.9,27.6-5.1,15.9-15c-5.2-1.4-10.8,1.2-16.2,0.4
			c-4.8-2-10.2-4.8-14.7-0.3c-5.7,3.9,0.8-11.3,3.8-11.7c6.7-4.3,14-1.4,20,2.1c-0.6-1.1-4.1-2.5-2.2-3.9c2.1-2.2-8.9-5.8-10.6-8.6
			c-12.4,0.4-20.8-9.3-27.4-18.9c-2.2-5.4,13.9,2.3,13.3-0.5c-2-3.3,2.9-0.7,3.8-1.8c-0.4-0.9-1.2-2.2-2.4-3.4
			c-4.1-3.9-8.5-2.3-15.2-4c-9.1-2.3-9.9-6.9-17-7.6c-2.5-0.3-5.5,0.4-9.4,2.9c-4.3,2-12.5,2.9-15.9-0.4c2.1-1.3,13.4-10,9.1-12.1
			c-4.2-3.1-7.6-7.6-10.1-12c1.2-1.3,3.9,1.3,5.8,0.4c6.3,0.6,13.1-0.7,18.7,2.9c1.5,0.2,7.1,5.3,6.5,1.7c-2.6-11.9,5.1-1.2,11.3,0
			c2.4,0.6,5.6,5.5,3.9-4.8C127.7,30.6,134.3,36.7,136.5,44.5z"/>
		<g id="tooth">
			<path class="st3" d="M122.9,121c-2.1,2-5.1-0.8-3.4-3.1C122.8,117.2,128.1,117,122.9,121z"/>
			<path class="st3" d="M119,122.9c-2.5,2.5-5.2-3-1.9-3.5C119.3,118,121,121.7,119,122.9z"/>
			<path class="st3" d="M113.3,119.9c5.4-2.5,1.5,8-1.4,3.2C111.3,121.3,111.5,120.3,113.3,119.9z"/>
			<path class="st3" d="M110.5,120.8c0.2,0,0.3,0.1,0.4,0.2c0.7,0.5,0.7,1.6,0.7,1.7c0,1.4-0.9,2.6-2.4,2.5
				C105.8,120.2,108.7,122.3,110.5,120.8z"/>
			<path class="st3" d="M106.2,125.4c-1-1.1-1.8-2.7-0.9-4.3c0.5,0.3,1,0.5,1.5,0.1C107.9,120.6,108.8,127.4,106.2,125.4z"/>
			<path class="st3" d="M103.1,121.5c0.9,0.2,1.2-0.5,1.5-1c0.3,1.6,1.7,4.8-0.1,5.9C102.5,127.1,101.8,122.2,103.1,121.5z"/>
			<path class="st3" d="M101.2,126.4c-1.8,0.1-1.2-2.5-2-3.6c-0.2-1.1,0.8-1,1.5-1.4c0.3-0.4,0.5-0.7,1-0.6
				C102.8,122.3,103.3,125.7,101.2,126.4z"/>
			<path class="st3" d="M98.3,120.8c1,1,2,3.9,0.9,4.9C97.2,127.1,95.4,120.3,98.3,120.8z"/>
			<path class="st3" d="M123.3,113.9c2.7,3.4-3.5,6.2-4.1,2.2C118.4,114,122.4,112.2,123.3,113.9z"/>
			<path class="st3" d="M117.8,115.1c3.1,0.3,1.5,5-1.7,4.3c-0.9-0.8-0.9-3.3-0.3-3.9C116.5,115.6,117.2,115.5,117.8,115.1z"/>
			<path class="st3" d="M115,115.3c1.5,2,1,4.7-2,4.9C108.6,121.2,109.6,114.1,115,115.3z"/>
			<path class="st3" d="M110.2,117.4c0.7,1.6,0.8,4.7-1.7,3.8C105.8,119.9,108.3,113.4,110.2,117.4z"/>
			<path class="st3" d="M106.3,116.3c2,0.5,1.4,6.8-0.9,4.8C104.9,119.9,104.2,115.8,106.3,116.3z"/>
			<path class="st3" d="M102,121c-1.1-1.7-0.7-7.3,2.1-4.6C105.6,117.3,104.6,122.5,102,121z"/>
			<path class="st3" d="M99.5,115.3c3.1,0.7,2.6,8.8-1.1,5.9C97.3,119.4,97.6,116.2,99.5,115.3z"/>
			<path class="st3" d="M98.4,116.4c-0.8,1,0.1,3.6-0.8,4.1C93.6,124,95.4,110.5,98.4,116.4z"/>
		</g>
	</g>
	<g>
		<path class="st1" d="M257.3,46.8c0,1.6-0.3,3.1-0.9,4.3c-0.6,1.2-1.5,2.3-2.6,3.1c-1.1,0.8-2.3,1.4-3.6,1.8
			c-1.3,0.4-2.7,0.6-4.2,0.6h-3.5V66c0,0.5,0.1,1,0.3,1.3c0.2,0.4,0.5,0.7,1,0.9c0.3,0.1,0.7,0.2,1.4,0.3c0.7,0.1,1.3,0.1,1.8,0.2
			v1.6h-13.3v-1.6c0.4,0,0.9-0.1,1.5-0.2c0.7-0.1,1.1-0.2,1.4-0.3c0.4-0.2,0.8-0.5,0.9-0.8c0.2-0.4,0.3-0.8,0.3-1.4V43.5
			c0-0.5-0.1-1-0.2-1.4c-0.1-0.4-0.5-0.7-1-0.9c-0.6-0.2-1.1-0.3-1.6-0.4c-0.5-0.1-1-0.1-1.4-0.2v-1.6h14.2c2.9,0,5.2,0.7,7,2.1
			C256.4,42.6,257.3,44.5,257.3,46.8z M250.6,52.1c0.5-0.7,0.8-1.4,1-2.2c0.2-0.8,0.2-1.4,0.2-2c0-0.8-0.1-1.7-0.3-2.5
			c-0.2-0.9-0.5-1.6-1-2.3c-0.5-0.7-1.2-1.2-2-1.6c-0.8-0.4-1.9-0.6-3.1-0.6h-3.1v13.7h2.2c1.6,0,2.8-0.2,3.8-0.7
			C249.4,53.4,250.1,52.8,250.6,52.1z"/>
		<path class="st1" d="M289.8,70.2h-12.9v-1.6c1.1-0.1,2.1-0.2,2.8-0.4c0.8-0.2,1.1-0.5,1.1-0.8c0-0.1,0-0.3,0-0.5
			c0-0.2-0.1-0.4-0.1-0.5l-2.6-7h-10.9c-0.4,1-0.7,1.9-1,2.7c-0.3,0.8-0.5,1.5-0.7,2.1c-0.2,0.6-0.3,1.1-0.4,1.5
			c-0.1,0.4-0.1,0.7-0.1,1c0,0.6,0.5,1,1.4,1.4s2,0.5,3.1,0.6v1.6h-11.7v-1.6c0.4,0,0.8-0.1,1.4-0.3c0.6-0.1,1-0.3,1.4-0.6
			c0.6-0.4,1-0.8,1.4-1.2c0.3-0.4,0.6-1,0.9-1.8c1.6-3.9,3.3-8.3,5.2-13.1s3.6-9.2,5-13h1.7l10.4,26.8c0.2,0.6,0.5,1,0.7,1.4
			c0.3,0.4,0.7,0.7,1.2,1c0.3,0.2,0.8,0.4,1.3,0.5c0.5,0.1,1,0.2,1.4,0.2L289.8,70.2L289.8,70.2z M277.3,57.5l-4.7-12l-4.6,12H277.3
			z"/>
		<path class="st1" d="M320.6,70.2h-14.5v-1.6c1.2,0,2.2-0.1,2.9-0.3s1.1-0.5,1.1-0.9c0-0.2-0.2-0.7-0.5-1.4s-0.8-1.5-1.3-2.3
			c-0.6-0.9-1.3-2-2.1-3.3c-0.8-1.3-1.6-2.5-2.4-3.6c-1.3,1.7-2.7,3.7-4.4,6.1c-1.6,2.4-2.4,3.8-2.4,4.2c0,0.5,0.2,0.8,0.7,1.1
			s1.4,0.4,2.9,0.4v1.6H289v-1.6c0.4,0,0.9-0.1,1.5-0.2c0.6-0.1,1.1-0.2,1.5-0.4c0.8-0.4,1.4-0.8,1.8-1.3c0.5-0.5,0.9-1,1.4-1.7
			c0.9-1.3,2.1-2.9,3.6-4.8c1.5-1.9,2.8-3.7,3.9-5.2c-0.8-1.2-1.9-2.8-3.2-4.7c-1.3-1.9-2.7-3.9-4.2-6.1c-0.6-0.9-1.1-1.6-1.5-2
			s-0.8-0.7-1.4-1c-0.4-0.2-0.8-0.3-1.5-0.4c-0.6-0.1-1.1-0.2-1.5-0.2v-1.5h14.4v1.6c-0.8,0-1.7,0.1-2.6,0.3
			c-0.9,0.2-1.4,0.5-1.4,0.8c0,0.3,0.2,0.8,0.5,1.5c0.4,0.7,0.8,1.4,1.3,2.2c0.5,0.8,1.1,1.7,1.7,2.7c0.6,1,1.4,2.1,2.3,3.4
			c1.6-2.2,3.1-4.2,4.3-6c1.2-1.8,1.8-3,1.8-3.5c0-0.5-0.3-0.8-0.8-1c-0.5-0.2-1.5-0.4-2.8-0.4v-1.6h11.6v1.6
			c-0.4,0-0.8,0.1-1.4,0.2c-0.6,0.1-1.1,0.2-1.5,0.4c-0.8,0.4-1.3,0.8-1.7,1.2c-0.4,0.4-0.9,1-1.5,1.8c-1.2,1.5-2.2,2.9-3.2,4.2
			c-1,1.3-2.2,2.9-3.6,4.8c1.2,1.7,2.5,3.6,3.9,5.7s2.8,4.1,4.1,6c0.4,0.7,1,1.3,1.6,1.9s1.1,1,1.4,1.2c0.4,0.2,0.8,0.3,1.4,0.4
			c0.6,0,1.1,0.1,1.5,0.1V70.2z"/>
		<path class="st1" d="M352.8,55.9c0.7,0.7,1.1,1.5,1.5,2.4c0.3,0.9,0.5,1.9,0.5,3c0,2.7-1,5-3,6.8c-2,1.8-4.5,2.7-7.6,2.7
			c-1.4,0-2.8-0.2-4.2-0.6c-1.4-0.4-2.6-0.9-3.6-1.6l-0.9,1.6h-1.7l-0.3-10.6h1.8c0.4,1.3,0.8,2.5,1.3,3.6s1.1,2,1.9,3
			c0.8,0.9,1.6,1.6,2.7,2.1s2.2,0.8,3.5,0.8c1,0,1.9-0.1,2.6-0.4c0.8-0.3,1.4-0.6,1.8-1.1c0.5-0.5,0.8-1,1-1.7s0.3-1.4,0.3-2.2
			c0-1.2-0.4-2.4-1.1-3.5c-0.7-1.1-1.7-1.9-3.1-2.4c-0.9-0.4-2-0.8-3.3-1.2c-1.2-0.4-2.3-0.9-3.2-1.3c-1.7-0.8-3.1-1.8-4.1-3.1
			c-1-1.3-1.5-2.9-1.5-5c0-1.2,0.2-2.3,0.7-3.3c0.5-1,1.2-1.9,2.1-2.7c0.8-0.8,1.8-1.4,3-1.8c1.2-0.4,2.4-0.6,3.6-0.6
			c1.4,0,2.7,0.2,3.8,0.7c1.1,0.4,2.2,0.9,3.1,1.5l0.9-1.5h1.7l0.2,10.3h-1.7c-0.3-1.2-0.7-2.3-1.1-3.4c-0.4-1.1-0.9-2.1-1.6-2.9
			c-0.6-0.8-1.4-1.5-2.3-2c-0.9-0.5-2-0.8-3.3-0.8c-1.4,0-2.6,0.4-3.5,1.3c-1,0.9-1.5,2-1.5,3.3c0,1.3,0.3,2.4,0.9,3.3
			c0.6,0.9,1.5,1.6,2.7,2.2c1.1,0.5,2.1,0.9,3.1,1.3c1,0.4,2,0.8,3,1.2c0.9,0.4,1.7,0.8,2.5,1.3C351.5,54.8,352.2,55.3,352.8,55.9z"
			/>
		<path class="st1" d="M387.6,70.2h-12.9v-1.6c1.1-0.1,2.1-0.2,2.8-0.4c0.8-0.2,1.1-0.5,1.1-0.8c0-0.1,0-0.3,0-0.5
			c0-0.2-0.1-0.4-0.1-0.5l-2.6-7H365c-0.4,1-0.7,1.9-1,2.7c-0.3,0.8-0.5,1.5-0.7,2.1c-0.2,0.6-0.3,1.1-0.4,1.5
			c-0.1,0.4-0.1,0.7-0.1,1c0,0.6,0.5,1,1.4,1.4c0.9,0.3,2,0.5,3.1,0.6v1.6h-11.7v-1.6c0.4,0,0.8-0.1,1.4-0.3s1-0.3,1.4-0.6
			c0.6-0.4,1-0.8,1.4-1.2c0.3-0.4,0.6-1,0.9-1.8c1.6-3.9,3.3-8.3,5.2-13.1c1.9-4.8,3.6-9.2,5-13h1.7L383,65.5c0.2,0.6,0.5,1,0.7,1.4
			c0.3,0.4,0.7,0.7,1.2,1c0.3,0.2,0.8,0.4,1.3,0.5c0.5,0.1,1,0.2,1.4,0.2L387.6,70.2L387.6,70.2z M375.1,57.5l-4.7-12l-4.6,12H375.1
			z"/>
		<path class="st1" d="M412.5,46.8c0,1.6-0.3,3.1-0.9,4.3c-0.6,1.2-1.5,2.3-2.6,3.1c-1.1,0.8-2.3,1.4-3.6,1.8
			c-1.3,0.4-2.7,0.6-4.2,0.6h-3.5V66c0,0.5,0.1,1,0.3,1.3c0.2,0.4,0.5,0.7,1,0.9c0.3,0.1,0.7,0.2,1.4,0.3c0.7,0.1,1.3,0.1,1.8,0.2
			v1.6h-13.3v-1.6c0.4,0,0.9-0.1,1.5-0.2c0.7-0.1,1.1-0.2,1.4-0.3c0.4-0.2,0.8-0.5,0.9-0.8c0.2-0.4,0.3-0.8,0.3-1.4V43.5
			c0-0.5-0.1-1-0.2-1.4c-0.1-0.4-0.5-0.7-1-0.9c-0.6-0.2-1.1-0.3-1.6-0.4c-0.5-0.1-1-0.1-1.4-0.2v-1.6h14.2c2.9,0,5.2,0.7,7,2.1
			C411.6,42.6,412.5,44.5,412.5,46.8z M405.8,52.1c0.5-0.7,0.8-1.4,1-2.2c0.2-0.8,0.2-1.4,0.2-2c0-0.8-0.1-1.7-0.3-2.5
			c-0.2-0.9-0.5-1.6-1-2.3c-0.5-0.7-1.2-1.2-2-1.6c-0.8-0.4-1.9-0.6-3.1-0.6h-3.1v13.7h2.2c1.6,0,2.8-0.2,3.8-0.7
			C404.6,53.4,405.3,52.8,405.8,52.1z"/>
		<path class="st1" d="M429.6,70.2h-14v-1.6c0.4,0,1-0.1,1.7-0.1c0.7-0.1,1.3-0.1,1.6-0.3c0.5-0.2,0.8-0.4,1.1-0.8
			c0.2-0.3,0.3-0.8,0.3-1.4V43.6c0-0.5-0.1-0.9-0.2-1.3c-0.2-0.3-0.5-0.6-1.1-0.9c-0.4-0.2-1-0.3-1.6-0.5c-0.7-0.2-1.2-0.2-1.6-0.3
			v-1.6h14v1.6c-0.4,0-1,0.1-1.6,0.2c-0.6,0.1-1.2,0.2-1.6,0.4c-0.6,0.2-0.9,0.5-1.1,0.8c-0.2,0.4-0.3,0.8-0.3,1.3v22.5
			c0,0.5,0.1,0.9,0.3,1.3c0.2,0.4,0.6,0.7,1.1,0.9c0.3,0.1,0.8,0.2,1.5,0.4c0.7,0.1,1.3,0.2,1.8,0.2L429.6,70.2L429.6,70.2z"/>
		<path class="st1" d="M459.6,61l-0.6,9.1h-25.8v-1.6c0.4,0,1-0.1,1.7-0.2c0.7-0.1,1.2-0.2,1.4-0.3c0.5-0.2,0.8-0.5,1-0.8
			c0.2-0.4,0.3-0.8,0.3-1.3V43.6c0-0.5-0.1-0.9-0.2-1.3s-0.5-0.7-1-0.9c-0.4-0.2-0.9-0.4-1.6-0.5c-0.7-0.1-1.2-0.2-1.6-0.3v-1.6h24
			v7.5h-1.6c-0.3-1.1-0.9-2.3-1.9-3.5c-1-1.2-1.9-1.9-2.8-2c-0.4-0.1-1-0.1-1.6-0.1c-0.6,0-1.3,0-2.1,0h-4.9v12.4h3.5
			c1.1,0,1.9-0.1,2.5-0.3c0.5-0.2,1-0.6,1.4-1.1c0.3-0.4,0.6-1,0.8-1.7s0.4-1.4,0.4-2h1.6v12.2h-1.6c-0.1-0.7-0.2-1.4-0.5-2.2
			c-0.3-0.8-0.5-1.3-0.8-1.7c-0.4-0.6-1-0.9-1.5-1.1s-1.3-0.3-2.3-0.3h-3.5v9.3c0,0.9,0.1,1.7,0.2,2.2c0.1,0.5,0.4,0.9,0.8,1.2
			c0.4,0.3,0.9,0.4,1.6,0.5c0.7,0.1,1.6,0.1,2.8,0.1c0.5,0,1.1,0,1.9,0c0.8,0,1.5,0,2-0.1c0.6-0.1,1.1-0.2,1.7-0.3
			c0.6-0.2,1-0.4,1.3-0.6c0.7-0.7,1.4-1.8,2.1-3.2c0.7-1.4,1.2-2.5,1.4-3.1C458,61,459.6,61,459.6,61z"/>
		<path class="st1" d="M494.6,40.7c-0.4,0-1,0.1-1.9,0.4c-0.8,0.2-1.5,0.4-1.8,0.7c-0.5,0.4-0.9,1.1-1.1,2.1c-0.2,1-0.3,2.4-0.3,3.9
			v22.7h-1.9l-18.8-25.4v16c0,1.8,0.1,3.2,0.3,4.1c0.2,1,0.6,1.6,1,2.1c0.3,0.3,1,0.6,2.1,0.9c1.1,0.3,1.7,0.4,2.1,0.4v1.6h-12.7
			v-1.6c0.4,0,1.1-0.2,2-0.4c0.9-0.3,1.5-0.5,1.7-0.7c0.5-0.4,0.9-1,1.1-1.9c0.2-0.8,0.3-2.3,0.3-4.3V46c0-0.7-0.1-1.3-0.4-2
			c-0.2-0.7-0.5-1.2-0.9-1.6c-0.5-0.5-1.2-0.9-2.1-1.2c-0.9-0.3-1.6-0.5-2.2-0.6v-1.6h8.9l17.4,23.7V48c0-1.8-0.1-3.2-0.4-4.2
			c-0.2-1-0.6-1.6-1-1.9c-0.4-0.3-1.1-0.5-2-0.8c-0.9-0.3-1.6-0.4-2.1-0.4v-1.6h12.6L494.6,40.7L494.6,40.7z"/>
		<path class="st1" d="M522.4,47.6h-1.5c-0.1-0.5-0.4-1.2-0.7-1.9c-0.3-0.7-0.7-1.4-1.2-2c-0.4-0.7-0.9-1.3-1.4-1.8
			c-0.5-0.5-1-0.8-1.5-0.9c-0.4-0.1-1-0.1-1.7-0.1c-0.7,0-1.3,0-1.9,0h-1.3v24.8c0,0.5,0.1,0.9,0.3,1.3c0.2,0.4,0.6,0.7,1.1,0.9
			c0.3,0.1,0.8,0.2,1.6,0.4c0.8,0.2,1.5,0.3,2,0.3v1.6h-14.7v-1.6c0.4,0,1-0.1,1.9-0.2c0.8-0.1,1.4-0.2,1.7-0.3
			c0.5-0.2,0.8-0.5,1.1-0.8c0.2-0.4,0.3-0.8,0.3-1.4v-25h-1.3c-0.4,0-1,0-1.7,0c-0.7,0-1.3,0.1-1.9,0.1c-0.5,0.1-1,0.4-1.5,0.9
			c-0.5,0.5-1,1.1-1.4,1.8c-0.4,0.7-0.8,1.4-1.2,2.1c-0.3,0.7-0.6,1.3-0.7,1.8h-1.5v-8.4h27.1L522.4,47.6L522.4,47.6z"/>
		<path class="st1" d="M538.4,70.2h-14v-1.6c0.4,0,1-0.1,1.7-0.1c0.7-0.1,1.3-0.1,1.6-0.3c0.5-0.2,0.8-0.4,1.1-0.8
			c0.2-0.3,0.3-0.8,0.3-1.4V43.6c0-0.5-0.1-0.9-0.2-1.3c-0.2-0.3-0.5-0.6-1.1-0.9c-0.4-0.2-1-0.3-1.6-0.5c-0.7-0.2-1.2-0.2-1.6-0.3
			v-1.6h14v1.6c-0.4,0-1,0.1-1.6,0.2c-0.6,0.1-1.2,0.2-1.6,0.4c-0.6,0.2-0.9,0.5-1.1,0.8c-0.2,0.4-0.3,0.8-0.3,1.3v22.5
			c0,0.5,0.1,0.9,0.3,1.3c0.2,0.4,0.6,0.7,1.1,0.9c0.3,0.1,0.8,0.2,1.5,0.4c0.7,0.1,1.3,0.2,1.8,0.2L538.4,70.2L538.4,70.2z"/>
		<path class="st1" d="M556,70.9c-1.9,0-3.6-0.4-5.3-1.1c-1.7-0.7-3.2-1.8-4.5-3.2c-1.3-1.4-2.3-3-3.1-5c-0.8-2-1.2-4.2-1.2-6.7
			s0.4-4.7,1.1-6.8s1.8-3.8,3.2-5.2c1.3-1.4,2.9-2.6,4.7-3.3c1.8-0.8,3.7-1.2,5.8-1.2c1.5,0,2.9,0.2,4.2,0.6
			c1.2,0.4,2.4,0.9,3.5,1.6l0.9-1.5h1.7l0.2,11.1h-1.8c-0.2-1.1-0.6-2.3-1.1-3.5c-0.5-1.3-1-2.3-1.6-3.2c-0.7-1-1.5-1.8-2.5-2.3
			c-1-0.6-2.1-0.8-3.3-0.8c-1.4,0-2.7,0.3-4,0.9c-1.2,0.6-2.3,1.6-3.2,2.8c-0.8,1.2-1.5,2.7-2,4.5c-0.5,1.8-0.7,3.9-0.7,6.1
			c0,2,0.3,3.8,0.8,5.5c0.5,1.7,1.2,3.1,2.2,4.4c0.9,1.2,2,2.2,3.3,2.9c1.3,0.7,2.7,1.1,4.3,1.1c1.2,0,2.3-0.2,3.2-0.6
			c1-0.4,1.9-0.9,2.6-1.5c0.7-0.6,1.4-1.4,1.9-2.2c0.6-0.8,1-1.7,1.4-2.7l1.6,0.8c-1.2,3.1-2.9,5.3-5,6.6
			C561.3,70.3,558.8,70.9,556,70.9z"/>
		<path class="st1" d="M600,70.2h-12.9v-1.6c1.1-0.1,2.1-0.2,2.8-0.4s1.1-0.5,1.1-0.8c0-0.1,0-0.3,0-0.5c0-0.2-0.1-0.4-0.1-0.5
			l-2.6-7h-10.9c-0.4,1-0.7,1.9-1,2.7c-0.3,0.8-0.5,1.5-0.7,2.1c-0.2,0.6-0.3,1.1-0.4,1.5s-0.1,0.7-0.1,1c0,0.6,0.5,1,1.4,1.4
			c0.9,0.3,2,0.5,3.1,0.6v1.6H568v-1.6c0.4,0,0.8-0.1,1.4-0.3c0.6-0.1,1-0.3,1.4-0.6c0.6-0.4,1-0.8,1.4-1.2c0.3-0.4,0.6-1,0.9-1.8
			c1.6-3.9,3.3-8.3,5.2-13.1s3.6-9.2,5-13h1.7l10.4,26.8c0.2,0.6,0.5,1,0.7,1.4c0.3,0.4,0.7,0.7,1.2,1c0.3,0.2,0.8,0.4,1.3,0.5
			c0.5,0.1,1,0.2,1.4,0.2L600,70.2L600,70.2z M587.5,57.5l-4.7-12l-4.6,12H587.5z"/>
	</g>
	<g>
		<path class="st1" d="M247.1,106.8c-0.2,0-0.4,0-0.7,0.1s-0.5,0.1-0.7,0.2c-0.2,0.1-0.4,0.2-0.4,0.4c-0.1,0.2-0.1,0.4-0.1,0.7v1.1
			c0,0.8,0,1.4,0,1.6c0,0.3,0,0.5,0,0.7c-0.9,0.4-1.8,0.7-2.7,0.9s-1.8,0.3-2.6,0.3c-0.9,0-1.8-0.2-2.7-0.5
			c-0.8-0.4-1.6-0.8-2.2-1.5s-1.2-1.4-1.5-2.4c-0.4-0.9-0.6-2-0.6-3.1c0-1.1,0.2-2.1,0.5-3.1c0.4-0.9,0.9-1.8,1.5-2.4
			c0.6-0.7,1.4-1.2,2.3-1.6s1.8-0.6,2.9-0.6c0.8,0,1.5,0.1,2.1,0.3c0.6,0.2,1.1,0.4,1.6,0.7l0.4-0.7h0.8l0.1,5h-0.8
			c-0.1-0.6-0.3-1.1-0.5-1.6c-0.2-0.5-0.5-1-0.8-1.4c-0.3-0.4-0.7-0.8-1.2-1c-0.5-0.3-1.1-0.4-1.7-0.4c-0.7,0-1.4,0.1-1.9,0.4
			c-0.6,0.3-1.1,0.7-1.5,1.3c-0.4,0.6-0.7,1.3-1,2.1c-0.2,0.8-0.3,1.8-0.3,2.8c0,0.9,0.1,1.8,0.3,2.6c0.2,0.8,0.5,1.5,1,2.1
			c0.4,0.6,0.9,1.1,1.6,1.4c0.6,0.4,1.3,0.5,2.1,0.5c0.6,0,1.1-0.1,1.6-0.3c0.5-0.2,0.8-0.4,1-0.6c0-0.4,0.1-0.7,0.1-1.1
			c0-0.4,0-0.7,0-0.9v-0.8c0-0.3,0-0.5-0.1-0.8c-0.1-0.2-0.2-0.4-0.5-0.5c-0.2-0.1-0.5-0.2-0.9-0.2c-0.4,0-0.7-0.1-0.9-0.1V106h6.3
			L247.1,106.8L247.1,106.8z"/>
		<path class="st1" d="M254.5,112.5H248v-0.7c0.2,0,0.4,0,0.8-0.1c0.4,0,0.6-0.1,0.7-0.1c0.2-0.1,0.4-0.2,0.5-0.4
			c0.1-0.2,0.2-0.4,0.2-0.6v-10.4c0-0.2,0-0.4-0.1-0.6c-0.1-0.2-0.3-0.3-0.5-0.4c-0.2-0.1-0.5-0.2-0.8-0.2c-0.3-0.1-0.6-0.1-0.8-0.1
			v-0.7h6.5v0.7c-0.2,0-0.5,0-0.8,0.1c-0.3,0-0.5,0.1-0.8,0.2c-0.3,0.1-0.4,0.2-0.5,0.4c-0.1,0.2-0.1,0.4-0.1,0.6v10.4
			c0,0.2,0,0.4,0.1,0.6c0.1,0.2,0.3,0.3,0.5,0.4c0.1,0,0.4,0.1,0.7,0.2c0.3,0.1,0.6,0.1,0.8,0.1V112.5z"/>
		<path class="st1" d="M265.3,105.9c0.3,0.3,0.5,0.7,0.7,1.1c0.1,0.4,0.2,0.9,0.2,1.4c0,1.3-0.5,2.3-1.4,3.2
			c-0.9,0.8-2.1,1.2-3.5,1.2c-0.6,0-1.3-0.1-1.9-0.3c-0.6-0.2-1.2-0.4-1.7-0.7l-0.4,0.7h-0.8l-0.1-4.9h0.8c0.2,0.6,0.4,1.2,0.6,1.6
			c0.2,0.5,0.5,0.9,0.9,1.4c0.4,0.4,0.8,0.7,1.2,1c0.5,0.2,1,0.4,1.6,0.4c0.5,0,0.9-0.1,1.2-0.2c0.4-0.1,0.6-0.3,0.8-0.5
			c0.2-0.2,0.4-0.5,0.5-0.8c0.1-0.3,0.2-0.7,0.2-1c0-0.6-0.2-1.1-0.5-1.6s-0.8-0.9-1.5-1.1c-0.4-0.2-0.9-0.4-1.5-0.6
			c-0.6-0.2-1.1-0.4-1.5-0.6c-0.8-0.4-1.4-0.8-1.9-1.4c-0.4-0.6-0.7-1.4-0.7-2.3c0-0.5,0.1-1.1,0.3-1.5c0.2-0.5,0.5-0.9,1-1.3
			c0.4-0.4,0.9-0.6,1.4-0.8c0.5-0.2,1.1-0.3,1.7-0.3c0.7,0,1.3,0.1,1.8,0.3c0.5,0.2,1,0.4,1.4,0.7l0.4-0.7h0.8l0.1,4.8h-0.8
			c-0.1-0.5-0.3-1.1-0.5-1.6s-0.4-1-0.7-1.4c-0.3-0.4-0.6-0.7-1.1-0.9c-0.4-0.2-0.9-0.4-1.5-0.4c-0.6,0-1.2,0.2-1.6,0.6
			c-0.4,0.4-0.7,0.9-0.7,1.5c0,0.6,0.1,1.1,0.4,1.6c0.3,0.4,0.7,0.8,1.3,1c0.5,0.2,1,0.4,1.5,0.6c0.5,0.2,0.9,0.4,1.4,0.6
			c0.4,0.2,0.8,0.4,1.2,0.6C264.7,105.3,265,105.6,265.3,105.9z"/>
		<path class="st1" d="M286.8,104.1c-0.4,0-0.8,0.1-1.2,0.2s-0.7,0.3-0.9,0.6c-0.1,0.2-0.3,0.4-0.4,0.7s-0.3,0.7-0.5,1.1
			c-0.2,0.4-0.4,0.9-0.6,1.3c-0.2,0.4-0.5,0.8-0.8,1.3c0.3,0.3,0.6,0.7,1,1.1c0.4,0.4,0.7,0.7,1,0.8c0.3,0.2,0.7,0.3,1.2,0.4
			s0.9,0.2,1.2,0.2v0.7h-4.2l-1.5-1.7c-0.2,0.2-0.5,0.5-0.8,0.8c-0.3,0.3-0.6,0.5-0.9,0.7c-0.4,0.2-0.7,0.4-1.1,0.5
			c-0.4,0.1-0.8,0.2-1.2,0.2c-0.5,0-1-0.1-1.5-0.2s-0.9-0.4-1.3-0.7c-0.4-0.3-0.7-0.7-1-1.2c-0.3-0.5-0.4-1.1-0.4-1.7
			c0-0.8,0.2-1.6,0.7-2.3c0.4-0.7,1.3-1.4,2.5-2.2c-0.5-0.7-1-1.3-1.3-1.9c-0.3-0.5-0.5-1.1-0.5-1.8c0-0.5,0.1-0.9,0.3-1.3
			c0.2-0.4,0.4-0.7,0.8-1c0.3-0.3,0.7-0.5,1.1-0.6c0.4-0.2,0.9-0.2,1.4-0.2c0.5,0,1,0.1,1.4,0.3c0.4,0.2,0.7,0.4,1,0.7
			c0.2,0.3,0.4,0.6,0.5,0.9c0.1,0.3,0.2,0.7,0.2,1c0,0.8-0.3,1.5-0.8,2.1c-0.5,0.6-1.2,1.1-2.1,1.6c0.6,0.9,1.3,1.6,1.9,2.4
			s1.2,1.4,1.8,2.1c0.4-0.7,0.8-1.4,1.1-2c0.3-0.6,0.4-1.2,0.4-1.7c0-0.2-0.2-0.4-0.5-0.5c-0.3-0.1-0.8-0.2-1.3-0.4v-0.7h5.4
			L286.8,104.1L286.8,104.1z M280.4,110.2c-0.6-0.8-1.3-1.7-2.1-2.6s-1.4-1.8-1.9-2.4c-0.5,0.4-0.9,0.8-1.2,1.3
			c-0.2,0.5-0.3,1.1-0.3,1.7c0,0.9,0.3,1.7,0.8,2.3c0.5,0.6,1.2,0.9,2.1,0.9c0.5,0,1-0.1,1.5-0.3
			C279.7,110.9,280.1,110.6,280.4,110.2z M279.6,100.8c0-0.7-0.2-1.2-0.4-1.6c-0.3-0.4-0.7-0.6-1.3-0.6c-0.3,0-0.6,0.1-0.8,0.2
			s-0.4,0.3-0.5,0.5c-0.1,0.2-0.2,0.4-0.3,0.6c0,0.2-0.1,0.4-0.1,0.6c0,0.5,0.1,0.9,0.4,1.4c0.2,0.5,0.6,1.1,1.1,1.7
			c0.7-0.4,1.2-0.8,1.5-1.3C279.5,102,279.6,101.4,279.6,100.8z"/>
		<path class="st1" d="M306.3,112.5h-6v-0.7c0.5,0,1-0.1,1.3-0.2c0.4-0.1,0.5-0.2,0.5-0.4c0-0.1,0-0.1,0-0.2c0-0.1,0-0.2-0.1-0.2
			l-1.2-3.2h-5.1c-0.2,0.5-0.4,0.9-0.5,1.2c-0.1,0.4-0.2,0.7-0.3,1c-0.1,0.3-0.1,0.5-0.2,0.7c0,0.2,0,0.3,0,0.4
			c0,0.3,0.2,0.5,0.6,0.6c0.4,0.1,0.9,0.2,1.4,0.3v0.7h-5.4v-0.7c0.2,0,0.4,0,0.7-0.1c0.3-0.1,0.5-0.1,0.7-0.3
			c0.3-0.2,0.5-0.4,0.6-0.6c0.1-0.2,0.3-0.5,0.4-0.8c0.7-1.8,1.5-3.8,2.4-6.1s1.6-4.3,2.3-6h0.8l4.8,12.4c0.1,0.3,0.2,0.5,0.4,0.6
			c0.1,0.2,0.3,0.3,0.5,0.5c0.2,0.1,0.4,0.2,0.6,0.2c0.3,0.1,0.5,0.1,0.6,0.1L306.3,112.5L306.3,112.5z M300.5,106.6l-2.2-5.6
			l-2.1,5.6H300.5z"/>
		<path class="st1" d="M314.2,103.8c0,0.4-0.1,0.7-0.3,0.9c-0.2,0.3-0.4,0.4-0.8,0.4c-0.4,0-0.7-0.1-0.9-0.3
			c-0.2-0.2-0.3-0.4-0.3-0.7c0-0.1,0-0.3,0-0.4c0-0.1,0-0.2,0.1-0.4c-0.3,0-0.7,0.1-1.1,0.4c-0.4,0.3-0.8,0.6-1.1,1.1v5.8
			c0,0.2,0,0.4,0.1,0.6c0.1,0.1,0.2,0.3,0.4,0.3c0.2,0.1,0.4,0.1,0.7,0.2c0.3,0,0.5,0.1,0.7,0.1v0.7h-5.3v-0.7c0.2,0,0.3,0,0.5,0
			c0.2,0,0.3,0,0.4-0.1c0.2-0.1,0.3-0.2,0.4-0.3c0.1-0.2,0.1-0.4,0.1-0.6v-6.2c0-0.2,0-0.4-0.1-0.6c-0.1-0.2-0.2-0.4-0.4-0.5
			c-0.1-0.1-0.3-0.1-0.5-0.2c-0.2,0-0.4-0.1-0.6-0.1v-0.7l3.3-0.2l0.1,0.1v1.4h0c0.4-0.5,0.9-1,1.4-1.2c0.5-0.3,1-0.4,1.4-0.4
			s0.8,0.1,1,0.4C314,103,314.2,103.3,314.2,103.8z"/>
		<path class="st1" d="M319.7,112.8c-1.5,0-2.6-0.5-3.4-1.4c-0.8-1-1.2-2.3-1.2-3.9c0-0.7,0.1-1.4,0.3-2c0.2-0.6,0.5-1.2,1-1.7
			c0.4-0.5,0.9-0.9,1.5-1.2c0.6-0.3,1.3-0.4,2-0.4c1,0,1.8,0.2,2.4,0.7c0.6,0.5,0.9,1.1,0.9,1.9c0,0.3-0.1,0.6-0.2,0.9
			s-0.4,0.4-0.8,0.4c-0.4,0-0.7-0.1-0.9-0.3c-0.2-0.2-0.3-0.4-0.3-0.7c0-0.3,0-0.6,0.1-0.9c0.1-0.3,0.1-0.6,0.1-0.7
			c-0.1-0.2-0.3-0.4-0.5-0.4c-0.2-0.1-0.5-0.1-0.8-0.1c-0.3,0-0.6,0.1-0.9,0.2c-0.3,0.1-0.6,0.4-0.8,0.8c-0.3,0.3-0.4,0.8-0.6,1.4
			s-0.2,1.3-0.2,2.1c0,1.3,0.3,2.3,0.8,3.1s1.3,1.2,2.2,1.2c0.7,0,1.2-0.2,1.6-0.5c0.4-0.3,0.8-0.8,1.2-1.4l0.7,0.4
			c-0.4,0.8-1,1.4-1.8,1.9S320.4,112.8,319.7,112.8z"/>
		<path class="st1" d="M335.4,112.5h-4.9v-0.7c0.2,0,0.3,0,0.5,0c0.2,0,0.4,0,0.5-0.1c0.2-0.1,0.3-0.2,0.4-0.3
			c0.1-0.2,0.1-0.4,0.1-0.6v-5.2c0-0.7-0.2-1.3-0.5-1.6c-0.3-0.4-0.8-0.6-1.2-0.6c-0.4,0-0.7,0-1,0.2c-0.3,0.1-0.6,0.3-0.8,0.4
			c-0.2,0.2-0.4,0.3-0.5,0.5c-0.1,0.2-0.2,0.3-0.3,0.4v5.8c0,0.2,0,0.4,0.1,0.6c0.1,0.1,0.2,0.3,0.4,0.4c0.1,0.1,0.3,0.1,0.5,0.2
			c0.2,0,0.3,0.1,0.5,0.1v0.7h-4.9v-0.7c0.2,0,0.3,0,0.5,0s0.3,0,0.4-0.1c0.2-0.1,0.3-0.2,0.4-0.3c0.1-0.2,0.1-0.4,0.1-0.6V99.2
			c0-0.2,0-0.5-0.2-0.7c-0.1-0.2-0.2-0.4-0.4-0.5c-0.1-0.1-0.3-0.1-0.6-0.2c-0.3,0-0.6-0.1-0.8-0.1V97l3.7-0.2l0.1,0.2v7h0
			c0.2-0.2,0.4-0.4,0.6-0.6c0.2-0.2,0.4-0.4,0.7-0.5c0.3-0.2,0.6-0.3,0.9-0.4c0.4-0.1,0.7-0.2,1.2-0.2c0.9,0,1.6,0.3,2.1,0.8
			c0.5,0.6,0.7,1.4,0.7,2.4v5.2c0,0.2,0,0.4,0.1,0.6c0.1,0.1,0.2,0.3,0.4,0.3c0.2,0.1,0.3,0.1,0.4,0.1c0.1,0,0.3,0,0.5,0.1
			L335.4,112.5L335.4,112.5z"/>
		<path class="st1" d="M346.1,112.3c-0.3,0.1-0.6,0.2-0.8,0.3s-0.5,0.1-0.8,0.1c-0.5,0-0.9-0.1-1.3-0.4c-0.3-0.2-0.5-0.6-0.6-1.1
			h-0.1c-0.4,0.5-0.9,0.9-1.4,1.1c-0.5,0.3-1.1,0.4-1.8,0.4c-0.8,0-1.4-0.2-1.9-0.7c-0.5-0.5-0.7-1.1-0.7-1.8c0-0.4,0-0.7,0.2-1
			s0.3-0.6,0.5-0.8c0.2-0.2,0.4-0.4,0.7-0.5c0.3-0.2,0.5-0.3,0.8-0.4c0.3-0.1,0.9-0.3,1.9-0.6c0.9-0.3,1.6-0.6,1.9-0.7v-1
			c0-0.1,0-0.3,0-0.5c0-0.3-0.1-0.5-0.2-0.7c-0.1-0.3-0.3-0.5-0.6-0.7c-0.2-0.2-0.6-0.3-1.1-0.3c-0.3,0-0.6,0-0.9,0.2
			c-0.3,0.1-0.4,0.2-0.6,0.3c0,0.1,0,0.3,0.1,0.6c0.1,0.3,0.1,0.5,0.1,0.7c0,0.2-0.1,0.4-0.3,0.7c-0.2,0.2-0.5,0.3-0.9,0.3
			c-0.3,0-0.6-0.1-0.8-0.4c-0.2-0.2-0.2-0.5-0.2-0.8c0-0.3,0.1-0.6,0.3-0.9c0.2-0.3,0.5-0.5,0.9-0.8c0.3-0.2,0.7-0.4,1.1-0.5
			s0.9-0.2,1.3-0.2c0.6,0,1.1,0,1.5,0.1c0.4,0.1,0.8,0.2,1.2,0.5s0.6,0.6,0.8,1s0.3,1,0.3,1.7c0,1,0,1.8,0,2.6c0,0.8,0,1.6,0,2.4
			c0,0.3,0,0.5,0.1,0.6c0.1,0.2,0.2,0.3,0.4,0.4c0.1,0.1,0.3,0.1,0.5,0.1c0.2,0,0.4,0,0.7,0L346.1,112.3L346.1,112.3z M342.5,107
			c-0.6,0.2-1.1,0.3-1.5,0.5c-0.4,0.2-0.8,0.4-1.2,0.6c-0.3,0.2-0.6,0.5-0.8,0.8c-0.2,0.3-0.3,0.7-0.3,1.1c0,0.6,0.1,1,0.4,1.2
			c0.3,0.3,0.7,0.4,1.1,0.4c0.5,0,0.9-0.1,1.3-0.4s0.7-0.5,0.9-0.8L342.5,107z"/>
		<path class="st1" d="M356,110.2c-0.4,0.8-1,1.4-1.7,1.9c-0.7,0.5-1.5,0.7-2.4,0.7c-0.8,0-1.5-0.1-2.1-0.4
			c-0.6-0.3-1.1-0.7-1.5-1.2c-0.4-0.5-0.7-1.1-0.9-1.7c-0.2-0.7-0.3-1.3-0.3-2.1c0-0.7,0.1-1.3,0.3-1.9c0.2-0.6,0.5-1.2,0.9-1.7
			c0.4-0.5,0.9-0.9,1.4-1.2c0.6-0.3,1.2-0.4,1.9-0.4c0.7,0,1.4,0.1,1.9,0.4c0.5,0.2,0.9,0.5,1.3,0.9c0.3,0.4,0.5,0.8,0.7,1.3
			c0.2,0.5,0.2,1.1,0.2,1.7v0.7h-6.6c0,0.7,0.1,1.2,0.2,1.8c0.1,0.5,0.3,1,0.6,1.4c0.3,0.4,0.6,0.7,1,0.9c0.4,0.2,0.9,0.3,1.5,0.3
			c0.6,0,1.1-0.1,1.6-0.4c0.4-0.3,0.9-0.8,1.3-1.5L356,110.2z M353.7,106.3c0-0.4,0-0.8-0.1-1.2c-0.1-0.4-0.2-0.8-0.3-1.1
			c-0.2-0.3-0.4-0.6-0.6-0.8c-0.3-0.2-0.6-0.3-1-0.3c-0.7,0-1.3,0.3-1.8,0.9c-0.5,0.6-0.7,1.4-0.8,2.5
			C349.1,106.3,353.7,106.3,353.7,106.3z"/>
		<path class="st1" d="M366.9,107.4c0,0.7-0.1,1.4-0.3,2.1c-0.2,0.7-0.5,1.3-1,1.7c-0.5,0.5-1,0.9-1.6,1.2c-0.6,0.3-1.3,0.4-2.1,0.4
			c-0.6,0-1.2-0.1-1.8-0.4c-0.6-0.2-1.1-0.6-1.5-1.1c-0.4-0.4-0.8-1-1.1-1.7c-0.3-0.7-0.4-1.4-0.4-2.2c0-1.6,0.4-2.8,1.4-3.8
			c0.9-1,2.1-1.5,3.6-1.5c1.4,0,2.6,0.5,3.5,1.4C366.4,104.6,366.9,105.8,366.9,107.4z M364.8,107.4c0-0.5,0-1-0.2-1.6
			c-0.1-0.6-0.3-1-0.5-1.4c-0.2-0.4-0.5-0.8-0.8-1c-0.4-0.3-0.8-0.4-1.3-0.4c-0.5,0-1,0.1-1.3,0.4c-0.4,0.3-0.7,0.6-0.9,1.1
			c-0.2,0.4-0.4,0.9-0.5,1.4c-0.1,0.5-0.1,1-0.1,1.5c0,0.7,0,1.2,0.2,1.8c0.1,0.5,0.3,1,0.5,1.5c0.2,0.4,0.5,0.8,0.9,1
			c0.4,0.2,0.8,0.4,1.3,0.4c0.8,0,1.5-0.4,2-1.2C364.5,110,364.8,108.9,364.8,107.4z"/>
		<path class="st1" d="M373,112.5h-4.9v-0.7c0.2,0,0.3,0,0.5,0s0.3,0,0.4-0.1c0.2-0.1,0.3-0.2,0.4-0.3c0.1-0.2,0.1-0.4,0.1-0.6V99.2
			c0-0.2,0-0.5-0.2-0.7c-0.1-0.2-0.2-0.4-0.4-0.5c-0.1-0.1-0.4-0.2-0.7-0.2c-0.3-0.1-0.6-0.1-0.8-0.1V97l3.8-0.2l0.1,0.2v13.7
			c0,0.2,0,0.4,0.1,0.6c0.1,0.2,0.2,0.3,0.4,0.4c0.1,0.1,0.3,0.1,0.4,0.2c0.1,0,0.3,0.1,0.5,0.1V112.5z"/>
		<path class="st1" d="M384.1,107.4c0,0.7-0.1,1.4-0.3,2.1c-0.2,0.7-0.5,1.3-1,1.7c-0.5,0.5-1,0.9-1.6,1.2c-0.6,0.3-1.3,0.4-2.1,0.4
			c-0.6,0-1.2-0.1-1.8-0.4c-0.6-0.2-1.1-0.6-1.5-1.1c-0.4-0.4-0.8-1-1.1-1.7c-0.3-0.7-0.4-1.4-0.4-2.2c0-1.6,0.4-2.8,1.4-3.8
			c0.9-1,2.1-1.5,3.6-1.5c1.4,0,2.6,0.5,3.5,1.4C383.6,104.6,384.1,105.8,384.1,107.4z M382,107.4c0-0.5,0-1-0.2-1.6
			c-0.1-0.6-0.3-1-0.5-1.4c-0.2-0.4-0.5-0.8-0.8-1s-0.8-0.4-1.3-0.4c-0.5,0-1,0.1-1.3,0.4c-0.4,0.3-0.7,0.6-0.9,1.1
			c-0.2,0.4-0.4,0.9-0.5,1.4c-0.1,0.5-0.1,1-0.1,1.5c0,0.7,0,1.2,0.2,1.8c0.1,0.5,0.3,1,0.5,1.5c0.2,0.4,0.5,0.8,0.9,1
			c0.4,0.2,0.8,0.4,1.3,0.4c0.8,0,1.5-0.4,2-1.2C381.7,110,382,108.9,382,107.4z"/>
		<path class="st1" d="M394.1,111.5c0.3,0.3,0.5,0.5,0.6,0.9c0.2,0.3,0.2,0.7,0.2,1.2c0,0.5-0.1,0.9-0.3,1.4c-0.2,0.4-0.5,0.8-1,1.1
			c-0.4,0.3-1,0.6-1.6,0.7c-0.6,0.2-1.4,0.3-2.3,0.3c-1.5,0-2.7-0.2-3.4-0.7s-1.1-1.1-1.1-2c0-0.7,0.3-1.2,0.8-1.6
			c0.5-0.4,1.2-0.6,2.1-0.7V112c-0.2-0.1-0.4-0.1-0.6-0.2c-0.2-0.1-0.4-0.2-0.6-0.3c-0.2-0.1-0.3-0.3-0.4-0.5
			c-0.1-0.2-0.2-0.4-0.2-0.7c0-0.4,0.1-0.7,0.4-1c0.3-0.3,0.6-0.6,1.2-0.8v-0.2c-0.7-0.3-1.2-0.7-1.5-1.2c-0.4-0.5-0.5-1-0.5-1.7
			c0-0.9,0.4-1.7,1.1-2.3c0.7-0.6,1.6-0.9,2.7-0.9c0.3,0,0.6,0,0.9,0.1c0.3,0.1,0.6,0.1,0.9,0.2h3.5v1h-2.4v0.1
			c0.3,0.3,0.4,0.6,0.6,1c0.1,0.4,0.2,0.7,0.2,1c0,0.9-0.4,1.6-1.1,2.2c-0.7,0.6-1.6,0.9-2.5,0.9h-1.2c-0.2,0-0.3,0.2-0.5,0.3
			c-0.2,0.1-0.3,0.3-0.3,0.6c0,0.3,0.1,0.4,0.2,0.6c0.1,0.1,0.3,0.2,0.5,0.3s0.4,0.1,0.7,0.1c0.3,0,0.5,0,0.8,0c0.3,0,0.7,0,1.2,0.1
			c0.5,0,0.9,0,1.1,0.1c0.3,0,0.6,0.1,0.9,0.2C393.5,111.1,393.8,111.2,394.1,111.5z M393.3,113.9c0-0.4-0.1-0.7-0.3-0.9
			s-0.4-0.4-0.8-0.5c-0.2,0-0.6-0.1-1.2-0.1c-0.6,0-1.3,0-2,0c-0.7,0.1-1.2,0.4-1.6,0.7s-0.5,0.8-0.5,1.3c0,0.2,0,0.5,0.2,0.7
			s0.3,0.4,0.5,0.6c0.2,0.2,0.6,0.3,1,0.4c0.4,0.1,0.9,0.2,1.5,0.2c1,0,1.8-0.2,2.4-0.6C393,115.3,393.3,114.7,393.3,113.9z
			 M391.3,105.5c0-0.8-0.2-1.4-0.5-1.9c-0.3-0.5-0.8-0.7-1.4-0.7c-0.3,0-0.6,0.1-0.8,0.2s-0.4,0.3-0.6,0.6c-0.1,0.2-0.2,0.5-0.3,0.8
			c-0.1,0.3-0.1,0.6-0.1,1c0,0.8,0.2,1.4,0.5,1.8c0.3,0.5,0.8,0.7,1.3,0.7c0.6,0,1-0.2,1.3-0.7C391.2,106.8,391.3,106.3,391.3,105.5
			z"/>
		<path class="st1" d="M400.9,112.5h-4.8v-0.7c0.2,0,0.3,0,0.5,0c0.2,0,0.3,0,0.4-0.1c0.2-0.1,0.3-0.2,0.4-0.3
			c0.1-0.2,0.1-0.4,0.1-0.6v-6.2c0-0.2,0-0.4-0.1-0.6c-0.1-0.2-0.2-0.3-0.4-0.4c-0.1-0.1-0.3-0.1-0.6-0.2c-0.2-0.1-0.5-0.1-0.7-0.1
			v-0.7l3.5-0.2l0.1,0.1v8.2c0,0.2,0,0.4,0.1,0.6c0.1,0.2,0.2,0.3,0.4,0.4c0.1,0.1,0.3,0.1,0.4,0.1c0.1,0,0.3,0.1,0.5,0.1
			L400.9,112.5L400.9,112.5z M399.7,98.4c0,0.4-0.1,0.7-0.4,1c-0.3,0.3-0.6,0.4-0.9,0.4c-0.4,0-0.6-0.1-0.9-0.4
			c-0.3-0.3-0.4-0.6-0.4-0.9c0-0.4,0.1-0.7,0.4-1c0.3-0.3,0.6-0.4,0.9-0.4c0.4,0,0.7,0.1,0.9,0.4S399.7,98.1,399.7,98.4z"/>
		<path class="st1" d="M406.8,112.8c-1.5,0-2.6-0.5-3.4-1.4c-0.8-1-1.2-2.3-1.2-3.9c0-0.7,0.1-1.4,0.3-2c0.2-0.6,0.5-1.2,1-1.7
			c0.4-0.5,0.9-0.9,1.5-1.2c0.6-0.3,1.3-0.4,2-0.4c1,0,1.8,0.2,2.4,0.7c0.6,0.5,0.9,1.1,0.9,1.9c0,0.3-0.1,0.6-0.2,0.9
			s-0.4,0.4-0.8,0.4c-0.4,0-0.7-0.1-0.9-0.3c-0.2-0.2-0.3-0.4-0.3-0.7c0-0.3,0-0.6,0.1-0.9c0.1-0.3,0.1-0.6,0.1-0.7
			c-0.1-0.2-0.3-0.4-0.5-0.4c-0.2-0.1-0.5-0.1-0.8-0.1c-0.3,0-0.6,0.1-0.9,0.2c-0.3,0.1-0.6,0.4-0.8,0.8c-0.3,0.3-0.4,0.8-0.6,1.4
			c-0.2,0.6-0.2,1.3-0.2,2.1c0,1.3,0.3,2.3,0.8,3.1s1.3,1.2,2.2,1.2c0.7,0,1.2-0.2,1.6-0.5s0.8-0.8,1.2-1.4l0.7,0.4
			c-0.4,0.8-1,1.4-1.8,1.9C408.4,112.6,407.6,112.8,406.8,112.8z"/>
		<path class="st1" d="M421.1,112.3c-0.3,0.1-0.6,0.2-0.8,0.3c-0.2,0.1-0.5,0.1-0.8,0.1c-0.5,0-0.9-0.1-1.3-0.4
			c-0.3-0.2-0.5-0.6-0.6-1.1h-0.1c-0.4,0.5-0.9,0.9-1.4,1.1s-1.1,0.4-1.8,0.4c-0.8,0-1.4-0.2-1.9-0.7c-0.5-0.5-0.7-1.1-0.7-1.8
			c0-0.4,0-0.7,0.2-1s0.3-0.6,0.5-0.8c0.2-0.2,0.4-0.4,0.7-0.5c0.3-0.2,0.5-0.3,0.8-0.4c0.3-0.1,0.9-0.3,1.9-0.6
			c0.9-0.3,1.6-0.6,1.9-0.7v-1c0-0.1,0-0.3,0-0.5c0-0.3-0.1-0.5-0.2-0.7c-0.1-0.3-0.3-0.5-0.6-0.7c-0.2-0.2-0.6-0.3-1.1-0.3
			c-0.3,0-0.6,0-0.9,0.2c-0.3,0.1-0.4,0.2-0.6,0.3c0,0.1,0,0.3,0.1,0.6s0.1,0.5,0.1,0.7c0,0.2-0.1,0.4-0.3,0.7
			c-0.2,0.2-0.5,0.3-0.9,0.3c-0.3,0-0.6-0.1-0.8-0.4c-0.2-0.2-0.2-0.5-0.2-0.8c0-0.3,0.1-0.6,0.3-0.9c0.2-0.3,0.5-0.5,0.9-0.8
			c0.3-0.2,0.7-0.4,1.1-0.5c0.4-0.1,0.9-0.2,1.3-0.2c0.6,0,1.1,0,1.5,0.1c0.4,0.1,0.8,0.2,1.2,0.5s0.6,0.6,0.8,1s0.3,1,0.3,1.7
			c0,1,0,1.8,0,2.6c0,0.8,0,1.6,0,2.4c0,0.3,0,0.5,0.1,0.6c0.1,0.2,0.2,0.3,0.4,0.4c0.1,0.1,0.3,0.1,0.5,0.1c0.2,0,0.4,0,0.7,0
			L421.1,112.3L421.1,112.3z M417.6,107c-0.6,0.2-1.1,0.3-1.5,0.5c-0.4,0.2-0.8,0.4-1.2,0.6c-0.3,0.2-0.6,0.5-0.8,0.8
			c-0.2,0.3-0.3,0.7-0.3,1.1c0,0.6,0.1,1,0.4,1.2c0.3,0.3,0.7,0.4,1.1,0.4c0.5,0,0.9-0.1,1.3-0.4c0.4-0.2,0.7-0.5,0.9-0.8L417.6,107
			z"/>
		<path class="st1" d="M426.8,112.5h-4.9v-0.7c0.2,0,0.3,0,0.5,0s0.3,0,0.4-0.1c0.2-0.1,0.3-0.2,0.4-0.3c0.1-0.2,0.1-0.4,0.1-0.6
			V99.2c0-0.2,0-0.5-0.2-0.7c-0.1-0.2-0.2-0.4-0.4-0.5c-0.1-0.1-0.4-0.2-0.7-0.2c-0.3-0.1-0.6-0.1-0.8-0.1V97l3.8-0.2l0.1,0.2v13.7
			c0,0.2,0,0.4,0.1,0.6c0.1,0.2,0.2,0.3,0.4,0.4c0.1,0.1,0.3,0.1,0.4,0.2c0.1,0,0.3,0.1,0.5,0.1V112.5z"/>
		<path class="st1" d="M442.3,105.9c0.3,0.3,0.5,0.7,0.7,1.1c0.1,0.4,0.2,0.9,0.2,1.4c0,1.3-0.5,2.3-1.4,3.2
			c-0.9,0.8-2.1,1.2-3.5,1.2c-0.6,0-1.3-0.1-1.9-0.3c-0.6-0.2-1.2-0.4-1.7-0.7l-0.4,0.7h-0.8l-0.1-4.9h0.8c0.2,0.6,0.4,1.2,0.6,1.6
			c0.2,0.5,0.5,0.9,0.9,1.4c0.4,0.4,0.8,0.7,1.2,1c0.5,0.2,1,0.4,1.6,0.4c0.5,0,0.9-0.1,1.2-0.2c0.4-0.1,0.6-0.3,0.8-0.5
			c0.2-0.2,0.4-0.5,0.5-0.8c0.1-0.3,0.2-0.7,0.2-1c0-0.6-0.2-1.1-0.5-1.6c-0.3-0.5-0.8-0.9-1.5-1.1c-0.4-0.2-0.9-0.4-1.5-0.6
			c-0.6-0.2-1.1-0.4-1.5-0.6c-0.8-0.4-1.4-0.8-1.9-1.4c-0.4-0.6-0.7-1.4-0.7-2.3c0-0.5,0.1-1.1,0.3-1.5c0.2-0.5,0.5-0.9,1-1.3
			c0.4-0.4,0.9-0.6,1.4-0.8c0.5-0.2,1.1-0.3,1.7-0.3c0.7,0,1.3,0.1,1.8,0.3c0.5,0.2,1,0.4,1.4,0.7l0.4-0.7h0.8l0.1,4.8h-0.8
			c-0.1-0.5-0.3-1.1-0.5-1.6c-0.2-0.5-0.4-1-0.7-1.4c-0.3-0.4-0.6-0.7-1.1-0.9c-0.4-0.2-0.9-0.4-1.5-0.4c-0.6,0-1.2,0.2-1.6,0.6
			c-0.4,0.4-0.7,0.9-0.7,1.5c0,0.6,0.1,1.1,0.4,1.6c0.3,0.4,0.7,0.8,1.3,1c0.5,0.2,1,0.4,1.5,0.6c0.5,0.2,0.9,0.4,1.4,0.6
			c0.4,0.2,0.8,0.4,1.2,0.6C441.7,105.3,442,105.6,442.3,105.9z"/>
		<path class="st1" d="M449.6,112.5h-4.8v-0.7c0.2,0,0.3,0,0.5,0s0.3,0,0.4-0.1c0.2-0.1,0.3-0.2,0.4-0.3c0.1-0.2,0.1-0.4,0.1-0.6
			v-6.2c0-0.2,0-0.4-0.1-0.6c-0.1-0.2-0.2-0.3-0.4-0.4c-0.1-0.1-0.3-0.1-0.6-0.2c-0.2-0.1-0.5-0.1-0.7-0.1v-0.7l3.5-0.2l0.1,0.1v8.2
			c0,0.2,0,0.4,0.1,0.6c0.1,0.2,0.2,0.3,0.4,0.4c0.1,0.1,0.3,0.1,0.4,0.1c0.1,0,0.3,0.1,0.5,0.1L449.6,112.5L449.6,112.5z
			 M448.3,98.4c0,0.4-0.1,0.7-0.4,1c-0.3,0.3-0.6,0.4-0.9,0.4c-0.4,0-0.6-0.1-0.9-0.4c-0.3-0.3-0.4-0.6-0.4-0.9c0-0.4,0.1-0.7,0.4-1
			c0.3-0.3,0.6-0.4,0.9-0.4c0.4,0,0.7,0.1,0.9,0.4C448.2,97.8,448.3,98.1,448.3,98.4z"/>
		<path class="st1" d="M468,112.5h-4.9v-0.7c0.2,0,0.3,0,0.5,0s0.3,0,0.4-0.1c0.2-0.1,0.3-0.2,0.4-0.3c0.1-0.2,0.1-0.4,0.1-0.6v-5.2
			c0-0.7-0.2-1.2-0.5-1.6c-0.3-0.4-0.7-0.6-1.2-0.6c-0.3,0-0.6,0-0.9,0.2c-0.3,0.1-0.6,0.2-0.8,0.4c-0.2,0.1-0.4,0.3-0.5,0.5
			c-0.1,0.2-0.2,0.3-0.3,0.4v5.8c0,0.2,0,0.4,0.1,0.6c0.1,0.2,0.2,0.3,0.4,0.4c0.2,0.1,0.3,0.1,0.4,0.1c0.1,0,0.3,0,0.5,0.1v0.7H457
			v-0.7c0.2,0,0.3,0,0.4,0c0.1,0,0.3,0,0.4-0.1c0.2-0.1,0.3-0.2,0.4-0.3c0.1-0.2,0.1-0.4,0.1-0.6v-5.2c0-0.7-0.2-1.2-0.5-1.6
			s-0.7-0.6-1.2-0.6c-0.3,0-0.6,0-0.9,0.2c-0.3,0.1-0.6,0.3-0.8,0.4c-0.2,0.1-0.4,0.3-0.5,0.5c-0.1,0.2-0.2,0.3-0.3,0.4v5.7
			c0,0.2,0,0.4,0.1,0.6c0.1,0.2,0.2,0.3,0.4,0.4c0.1,0.1,0.3,0.1,0.4,0.2c0.1,0,0.3,0.1,0.5,0.1v0.7h-4.9v-0.7c0.2,0,0.3,0,0.5,0
			c0.2,0,0.3,0,0.4-0.1c0.2-0.1,0.3-0.2,0.4-0.3c0.1-0.2,0.1-0.4,0.1-0.6v-6.2c0-0.2,0-0.4-0.1-0.6c-0.1-0.2-0.2-0.3-0.4-0.4
			c-0.1-0.1-0.3-0.1-0.5-0.2s-0.4-0.1-0.6-0.1v-0.7l3.3-0.2l0.1,0.1v1.4h0.1c0.2-0.2,0.4-0.4,0.6-0.6c0.2-0.2,0.5-0.4,0.7-0.6
			c0.2-0.2,0.5-0.3,0.9-0.4c0.4-0.1,0.7-0.2,1.2-0.2c0.7,0,1.2,0.2,1.7,0.5c0.5,0.4,0.8,0.8,1,1.3c0.2-0.2,0.5-0.4,0.6-0.6
			c0.2-0.2,0.4-0.4,0.7-0.6c0.3-0.2,0.6-0.3,0.9-0.4s0.7-0.2,1.2-0.2c0.8,0,1.5,0.3,2,0.8c0.5,0.6,0.7,1.4,0.7,2.6v5.1
			c0,0.2,0,0.4,0.1,0.6c0.1,0.2,0.2,0.3,0.4,0.4c0.2,0.1,0.3,0.1,0.5,0.1c0.2,0,0.3,0,0.5,0.1L468,112.5L468,112.5z"/>
		<path class="st1" d="M479.9,112.3l-3.3,0.2l-0.2-0.1v-1.3h-0.1c-0.2,0.2-0.4,0.4-0.5,0.5c-0.2,0.2-0.4,0.4-0.7,0.5
			c-0.3,0.2-0.6,0.3-0.9,0.4c-0.3,0.1-0.7,0.1-1.2,0.1c-0.9,0-1.6-0.3-2-0.9c-0.5-0.6-0.7-1.4-0.7-2.5v-4.8c0-0.2,0-0.4-0.1-0.6
			c-0.1-0.2-0.2-0.3-0.4-0.4c-0.1-0.1-0.3-0.1-0.5-0.2c-0.2,0-0.4-0.1-0.6-0.1v-0.7l3.3-0.2l0.2,0.1v7c0,0.7,0.2,1.3,0.5,1.6
			s0.7,0.5,1.2,0.5c0.4,0,0.7-0.1,1-0.2c0.3-0.1,0.5-0.3,0.7-0.4c0.2-0.1,0.3-0.3,0.5-0.4c0.1-0.2,0.2-0.3,0.3-0.4v-5.7
			c0-0.2,0-0.4-0.1-0.6c-0.1-0.2-0.2-0.3-0.4-0.4c-0.1-0.1-0.3-0.1-0.5-0.1c-0.2,0-0.5,0-0.8,0v-0.7l3.6-0.2l0.2,0.1v7.9
			c0,0.2,0,0.4,0.1,0.6c0.1,0.2,0.2,0.3,0.4,0.4c0.1,0.1,0.3,0.1,0.4,0.1c0.2,0,0.4,0,0.6,0L479.9,112.3L479.9,112.3z"/>
		<path class="st1" d="M485.8,112.5h-4.9v-0.7c0.2,0,0.3,0,0.5,0s0.3,0,0.4-0.1c0.2-0.1,0.3-0.2,0.4-0.3c0.1-0.2,0.1-0.4,0.1-0.6
			V99.2c0-0.2,0-0.5-0.2-0.7s-0.2-0.4-0.4-0.5c-0.1-0.1-0.4-0.2-0.7-0.2c-0.3-0.1-0.6-0.1-0.8-0.1V97l3.8-0.2l0.1,0.2v13.7
			c0,0.2,0,0.4,0.1,0.6c0.1,0.2,0.2,0.3,0.4,0.4c0.1,0.1,0.3,0.1,0.4,0.2c0.1,0,0.3,0.1,0.5,0.1V112.5z"/>
		<path class="st1" d="M496.6,112.3c-0.3,0.1-0.6,0.2-0.8,0.3c-0.2,0.1-0.5,0.1-0.8,0.1c-0.5,0-0.9-0.1-1.3-0.4
			c-0.3-0.2-0.5-0.6-0.6-1.1H493c-0.4,0.5-0.9,0.9-1.4,1.1s-1.1,0.4-1.8,0.4c-0.8,0-1.4-0.2-1.9-0.7c-0.5-0.5-0.7-1.1-0.7-1.8
			c0-0.4,0-0.7,0.2-1c0.1-0.3,0.3-0.6,0.5-0.8c0.2-0.2,0.4-0.4,0.7-0.5c0.3-0.2,0.5-0.3,0.8-0.4c0.3-0.1,0.9-0.3,1.9-0.6
			c0.9-0.3,1.6-0.6,1.9-0.7v-1c0-0.1,0-0.3,0-0.5c0-0.3-0.1-0.5-0.2-0.7c-0.1-0.3-0.3-0.5-0.6-0.7c-0.2-0.2-0.6-0.3-1.1-0.3
			c-0.3,0-0.6,0-0.9,0.2c-0.3,0.1-0.4,0.2-0.6,0.3c0,0.1,0,0.3,0.1,0.6s0.1,0.5,0.1,0.7c0,0.2-0.1,0.4-0.3,0.7
			c-0.2,0.2-0.5,0.3-0.9,0.3c-0.3,0-0.6-0.1-0.8-0.4c-0.2-0.2-0.2-0.5-0.2-0.8c0-0.3,0.1-0.6,0.3-0.9c0.2-0.3,0.5-0.5,0.9-0.8
			c0.3-0.2,0.7-0.4,1.1-0.5c0.4-0.1,0.9-0.2,1.3-0.2c0.6,0,1.1,0,1.5,0.1c0.4,0.1,0.8,0.2,1.2,0.5s0.6,0.6,0.8,1
			c0.2,0.4,0.3,1,0.3,1.7c0,1,0,1.8,0,2.6c0,0.8,0,1.6,0,2.4c0,0.3,0,0.5,0.1,0.6c0.1,0.2,0.2,0.3,0.4,0.4c0.1,0.1,0.3,0.1,0.5,0.1
			c0.2,0,0.4,0,0.7,0L496.6,112.3L496.6,112.3z M493,107c-0.6,0.2-1.1,0.3-1.5,0.5c-0.4,0.2-0.8,0.4-1.2,0.6
			c-0.3,0.2-0.6,0.5-0.8,0.8c-0.2,0.3-0.3,0.7-0.3,1.1c0,0.6,0.1,1,0.4,1.2c0.3,0.3,0.7,0.4,1.1,0.4c0.5,0,0.9-0.1,1.3-0.4
			c0.4-0.2,0.7-0.5,0.9-0.8L493,107z"/>
		<path class="st1" d="M503.7,112.1c-0.4,0.2-0.9,0.3-1.2,0.5c-0.4,0.1-0.9,0.2-1.4,0.2c-0.8,0-1.4-0.2-1.8-0.6
			c-0.3-0.4-0.5-1-0.5-1.8v-6.8H497v-1h1.9v-3.1h1.9v3.1h2.9v1h-2.8v5.6c0,0.4,0,0.8,0,1.1c0,0.3,0.1,0.5,0.2,0.7
			c0.1,0.2,0.3,0.4,0.5,0.4c0.2,0.1,0.5,0.2,0.9,0.2c0.2,0,0.4,0,0.8,0c0.3,0,0.6-0.1,0.7-0.1L503.7,112.1L503.7,112.1z"/>
		<path class="st1" d="M514.5,107.4c0,0.7-0.1,1.4-0.3,2.1c-0.2,0.7-0.5,1.3-1,1.7c-0.5,0.5-1,0.9-1.6,1.2c-0.6,0.3-1.3,0.4-2.1,0.4
			c-0.6,0-1.2-0.1-1.8-0.4c-0.6-0.2-1.1-0.6-1.5-1.1c-0.4-0.4-0.8-1-1.1-1.7c-0.3-0.7-0.4-1.4-0.4-2.2c0-1.6,0.4-2.8,1.4-3.8
			s2.1-1.5,3.6-1.5c1.4,0,2.6,0.5,3.5,1.4C514.1,104.6,514.5,105.8,514.5,107.4z M512.4,107.4c0-0.5,0-1-0.2-1.6
			c-0.1-0.6-0.3-1-0.5-1.4c-0.2-0.4-0.5-0.8-0.8-1s-0.8-0.4-1.3-0.4c-0.5,0-1,0.1-1.3,0.4c-0.4,0.3-0.7,0.6-0.9,1.1
			c-0.2,0.4-0.4,0.9-0.5,1.4c-0.1,0.5-0.1,1-0.1,1.5c0,0.7,0,1.2,0.2,1.8c0.1,0.5,0.3,1,0.5,1.5c0.2,0.4,0.5,0.8,0.9,1
			c0.4,0.2,0.8,0.4,1.3,0.4c0.8,0,1.5-0.4,2-1.2C512.1,110,512.4,108.9,512.4,107.4z"/>
		<path class="st1" d="M523.6,103.8c0,0.4-0.1,0.7-0.3,0.9c-0.2,0.3-0.4,0.4-0.8,0.4c-0.4,0-0.7-0.1-0.9-0.3
			c-0.2-0.2-0.3-0.4-0.3-0.7c0-0.1,0-0.3,0-0.4c0-0.1,0-0.2,0.1-0.4c-0.3,0-0.7,0.1-1.1,0.4c-0.4,0.3-0.8,0.6-1.1,1.1v5.8
			c0,0.2,0,0.4,0.1,0.6c0.1,0.1,0.2,0.3,0.4,0.3c0.2,0.1,0.4,0.1,0.7,0.2c0.3,0,0.5,0.1,0.7,0.1v0.7H516v-0.7c0.2,0,0.3,0,0.5,0
			c0.2,0,0.3,0,0.4-0.1c0.2-0.1,0.3-0.2,0.4-0.3c0.1-0.2,0.1-0.4,0.1-0.6v-6.2c0-0.2,0-0.4-0.1-0.6c-0.1-0.2-0.2-0.4-0.4-0.5
			c-0.1-0.1-0.3-0.1-0.5-0.2c-0.2,0-0.4-0.1-0.6-0.1v-0.7l3.3-0.2l0.1,0.1v1.4h0c0.4-0.5,0.9-1,1.4-1.2c0.5-0.3,1-0.4,1.4-0.4
			s0.8,0.1,1,0.4C523.5,103,523.6,103.3,523.6,103.8z"/>
		<path class="st1" d="M247.9,130.8c-0.2,0-0.5,0.1-0.9,0.2c-0.4,0.1-0.7,0.2-0.8,0.3c-0.2,0.2-0.4,0.5-0.5,1
			c-0.1,0.5-0.1,1.1-0.1,1.8v10.6h-0.9l-8.7-11.8v7.4c0,0.8,0,1.5,0.2,1.9c0.1,0.4,0.3,0.8,0.5,1c0.2,0.1,0.5,0.3,1,0.4
			c0.5,0.1,0.8,0.2,1,0.2v0.7h-5.9v-0.7c0.2,0,0.5-0.1,0.9-0.2s0.7-0.2,0.8-0.3c0.2-0.2,0.4-0.5,0.5-0.9s0.1-1.1,0.1-2v-7.1
			c0-0.3,0-0.6-0.2-0.9c-0.1-0.3-0.3-0.5-0.4-0.7c-0.2-0.2-0.6-0.4-1-0.6c-0.4-0.2-0.8-0.2-1-0.3v-0.7h4.1l8.1,11v-6.8
			c0-0.8,0-1.5-0.2-1.9c-0.1-0.4-0.3-0.8-0.5-0.9c-0.2-0.1-0.5-0.3-0.9-0.4c-0.4-0.1-0.8-0.2-1-0.2v-0.7h5.9V130.8z"/>
		<path class="st1" d="M257.7,142.2c-0.4,0.8-1,1.4-1.7,1.9c-0.7,0.5-1.5,0.7-2.4,0.7c-0.8,0-1.5-0.1-2.1-0.4
			c-0.6-0.3-1.1-0.7-1.5-1.2c-0.4-0.5-0.7-1.1-0.9-1.7c-0.2-0.7-0.3-1.3-0.3-2.1c0-0.7,0.1-1.3,0.3-1.9c0.2-0.6,0.5-1.2,0.9-1.7
			c0.4-0.5,0.9-0.9,1.4-1.2c0.6-0.3,1.2-0.4,1.9-0.4c0.7,0,1.4,0.1,1.9,0.4c0.5,0.2,0.9,0.5,1.3,0.9c0.3,0.4,0.5,0.8,0.7,1.3
			c0.2,0.5,0.2,1.1,0.2,1.7v0.7h-6.6c0,0.7,0.1,1.2,0.2,1.8c0.1,0.5,0.3,1,0.6,1.4c0.3,0.4,0.6,0.7,1,0.9c0.4,0.2,0.9,0.3,1.5,0.3
			c0.6,0,1.1-0.1,1.6-0.4c0.4-0.3,0.9-0.8,1.3-1.5L257.7,142.2z M255.5,138.3c0-0.4,0-0.8-0.1-1.2c-0.1-0.4-0.2-0.8-0.3-1.1
			c-0.2-0.3-0.4-0.6-0.6-0.8c-0.3-0.2-0.6-0.3-1-0.3c-0.7,0-1.3,0.3-1.8,0.9c-0.5,0.6-0.7,1.4-0.8,2.5
			C250.9,138.3,255.5,138.3,255.5,138.3z"/>
		<path class="st1" d="M273.8,135.2c-0.3,0-0.6,0.1-0.9,0.4c-0.3,0.2-0.6,0.5-0.7,0.9c-0.3,1-0.7,1.9-1,2.8c-0.3,0.9-0.6,1.9-1,3
			c-0.1,0.4-0.2,0.7-0.4,1.1c-0.1,0.4-0.2,0.8-0.3,1.2h-0.9l-2.7-7.4l-2.7,7.4h-0.8c-0.5-1.5-1-3-1.5-4.5c-0.5-1.5-0.9-2.8-1.3-3.9
			c-0.1-0.3-0.3-0.6-0.6-0.8c-0.3-0.2-0.6-0.3-0.9-0.3v-0.7h4.5v0.7c-0.2,0-0.5,0-0.7,0.1c-0.3,0.1-0.4,0.2-0.4,0.3c0,0,0,0.1,0,0.2
			s0,0.2,0.1,0.3c0.2,0.7,0.5,1.5,0.7,2.4c0.3,0.9,0.6,2,1.1,3.4l2.6-7.2h1l2.6,7.1c0.3-0.9,0.6-1.8,0.9-2.6
			c0.3-0.8,0.5-1.6,0.8-2.4c0-0.2,0.1-0.3,0.1-0.5c0-0.1,0.1-0.3,0.1-0.4c0-0.1,0-0.2-0.2-0.3c-0.1-0.1-0.2-0.2-0.4-0.2
			c-0.1,0-0.3-0.1-0.4-0.1c-0.2,0-0.3,0-0.4,0v-0.7h3.8L273.8,135.2L273.8,135.2z"/>
		<path class="st1" d="M286.9,135.8c0,0.4-0.1,0.7-0.3,0.9c-0.2,0.3-0.4,0.4-0.8,0.4c-0.4,0-0.7-0.1-0.9-0.3
			c-0.2-0.2-0.3-0.4-0.3-0.7c0-0.1,0-0.3,0-0.4c0-0.1,0-0.2,0.1-0.4c-0.3,0-0.7,0.1-1.1,0.4c-0.4,0.3-0.8,0.6-1.1,1.1v5.8
			c0,0.2,0,0.4,0.1,0.6c0.1,0.1,0.2,0.3,0.4,0.3c0.2,0.1,0.4,0.1,0.7,0.2c0.3,0,0.5,0.1,0.7,0.1v0.7h-5.3v-0.7c0.2,0,0.3,0,0.5,0
			c0.2,0,0.3,0,0.4-0.1c0.2-0.1,0.3-0.2,0.4-0.3c0.1-0.2,0.1-0.4,0.1-0.6v-6.2c0-0.2,0-0.4-0.1-0.6c-0.1-0.2-0.2-0.4-0.4-0.5
			c-0.1-0.1-0.3-0.1-0.5-0.2c-0.2,0-0.4-0.1-0.6-0.1v-0.7l3.3-0.2l0.1,0.1v1.4h0c0.4-0.5,0.9-1,1.4-1.2c0.5-0.3,1-0.4,1.4-0.4
			s0.8,0.1,1,0.4C286.8,135,286.9,135.3,286.9,135.8z"/>
		<path class="st1" d="M296.7,142.2c-0.4,0.8-1,1.4-1.7,1.9c-0.7,0.5-1.5,0.7-2.4,0.7c-0.8,0-1.5-0.1-2.1-0.4
			c-0.6-0.3-1.1-0.7-1.5-1.2c-0.4-0.5-0.7-1.1-0.9-1.7c-0.2-0.7-0.3-1.3-0.3-2.1c0-0.7,0.1-1.3,0.3-1.9c0.2-0.6,0.5-1.2,0.9-1.7
			c0.4-0.5,0.9-0.9,1.4-1.2c0.6-0.3,1.2-0.4,1.9-0.4c0.7,0,1.4,0.1,1.9,0.4c0.5,0.2,0.9,0.5,1.3,0.9c0.3,0.4,0.5,0.8,0.7,1.3
			c0.2,0.5,0.2,1.1,0.2,1.7v0.7h-6.6c0,0.7,0.1,1.2,0.2,1.8c0.1,0.5,0.3,1,0.6,1.4c0.3,0.4,0.6,0.7,1,0.9c0.4,0.2,0.9,0.3,1.5,0.3
			c0.6,0,1.1-0.1,1.6-0.4c0.4-0.3,0.9-0.8,1.3-1.5L296.7,142.2z M294.4,138.3c0-0.4,0-0.8-0.1-1.2c-0.1-0.4-0.2-0.8-0.3-1.1
			c-0.2-0.3-0.4-0.6-0.6-0.8s-0.6-0.3-1-0.3c-0.7,0-1.3,0.3-1.8,0.9c-0.5,0.6-0.7,1.4-0.8,2.5C289.8,138.3,294.4,138.3,294.4,138.3z
			"/>
		<path class="st1" d="M302.5,144.5h-4.9v-0.7c0.2,0,0.3,0,0.5,0c0.2,0,0.3,0,0.4-0.1c0.2-0.1,0.3-0.2,0.4-0.3s0.1-0.4,0.1-0.6
			v-11.6c0-0.2,0-0.5-0.2-0.7c-0.1-0.2-0.2-0.4-0.4-0.5c-0.1-0.1-0.4-0.2-0.7-0.2c-0.3-0.1-0.6-0.1-0.8-0.1V129l3.8-0.2l0.1,0.2
			v13.7c0,0.2,0,0.4,0.1,0.6c0.1,0.2,0.2,0.3,0.4,0.4c0.1,0.1,0.3,0.1,0.4,0.2c0.1,0,0.3,0.1,0.5,0.1V144.5z"/>
		<path class="st1" d="M312.7,142.2c-0.4,0.8-1,1.4-1.7,1.9c-0.7,0.5-1.5,0.7-2.4,0.7c-0.8,0-1.5-0.1-2.1-0.4
			c-0.6-0.3-1.1-0.7-1.5-1.2c-0.4-0.5-0.7-1.1-0.9-1.7c-0.2-0.7-0.3-1.3-0.3-2.1c0-0.7,0.1-1.3,0.3-1.9c0.2-0.6,0.5-1.2,0.9-1.7
			c0.4-0.5,0.9-0.9,1.4-1.2c0.6-0.3,1.2-0.4,1.9-0.4c0.7,0,1.4,0.1,1.9,0.4c0.5,0.2,0.9,0.5,1.3,0.9c0.3,0.4,0.5,0.8,0.7,1.3
			c0.2,0.5,0.2,1.1,0.2,1.7v0.7h-6.6c0,0.7,0.1,1.2,0.2,1.8c0.1,0.5,0.3,1,0.6,1.4c0.3,0.4,0.6,0.7,1,0.9c0.4,0.2,0.9,0.3,1.5,0.3
			c0.6,0,1.1-0.1,1.6-0.4c0.4-0.3,0.9-0.8,1.3-1.5L312.7,142.2z M310.4,138.3c0-0.4,0-0.8-0.1-1.2c-0.1-0.4-0.2-0.8-0.3-1.1
			c-0.2-0.3-0.4-0.6-0.6-0.8s-0.6-0.3-1-0.3c-0.7,0-1.3,0.3-1.8,0.9c-0.5,0.6-0.7,1.4-0.8,2.5C305.8,138.3,310.4,138.3,310.4,138.3z
			"/>
		<path class="st1" d="M323.3,144.3c-0.3,0.1-0.6,0.2-0.8,0.3c-0.2,0.1-0.5,0.1-0.8,0.1c-0.5,0-0.9-0.1-1.3-0.4
			c-0.3-0.2-0.5-0.6-0.6-1.1h-0.1c-0.4,0.5-0.9,0.9-1.4,1.1c-0.5,0.3-1.1,0.4-1.8,0.4c-0.8,0-1.4-0.2-1.9-0.7
			c-0.5-0.5-0.7-1.1-0.7-1.8c0-0.4,0-0.7,0.2-1c0.1-0.3,0.3-0.6,0.5-0.8c0.2-0.2,0.4-0.4,0.7-0.5s0.5-0.3,0.8-0.4
			c0.3-0.1,0.9-0.3,1.9-0.6s1.6-0.6,1.9-0.7v-1c0-0.1,0-0.3,0-0.5s-0.1-0.5-0.2-0.7c-0.1-0.3-0.3-0.5-0.6-0.7
			c-0.2-0.2-0.6-0.3-1.1-0.3c-0.3,0-0.6,0-0.9,0.2c-0.3,0.1-0.4,0.2-0.6,0.3c0,0.1,0,0.3,0.1,0.6s0.1,0.5,0.1,0.7
			c0,0.2-0.1,0.4-0.3,0.7c-0.2,0.2-0.5,0.3-0.9,0.3c-0.3,0-0.6-0.1-0.8-0.4c-0.2-0.2-0.2-0.5-0.2-0.8c0-0.3,0.1-0.6,0.3-0.9
			s0.5-0.5,0.9-0.8c0.3-0.2,0.7-0.4,1.1-0.5c0.4-0.1,0.9-0.2,1.3-0.2c0.6,0,1.1,0,1.5,0.1c0.4,0.1,0.8,0.2,1.2,0.5s0.6,0.6,0.8,1
			s0.3,1,0.3,1.7c0,1,0,1.8,0,2.6s0,1.6,0,2.4c0,0.3,0,0.5,0.1,0.6c0.1,0.2,0.2,0.3,0.4,0.4c0.1,0.1,0.3,0.1,0.5,0.1
			c0.2,0,0.4,0,0.7,0L323.3,144.3L323.3,144.3z M319.8,139c-0.6,0.2-1.1,0.3-1.5,0.5c-0.4,0.2-0.8,0.4-1.2,0.6
			c-0.3,0.2-0.6,0.5-0.8,0.8c-0.2,0.3-0.3,0.7-0.3,1.1c0,0.6,0.1,1,0.4,1.2c0.3,0.3,0.7,0.4,1.1,0.4c0.5,0,0.9-0.1,1.3-0.4
			c0.4-0.2,0.7-0.5,0.9-0.8L319.8,139z"/>
		<path class="st1" d="M330.9,139.6c0.3,0.2,0.5,0.5,0.6,0.8c0.1,0.3,0.2,0.7,0.2,1.2c0,0.9-0.4,1.7-1,2.3s-1.6,0.9-2.7,0.9
			c-0.6,0-1.1-0.1-1.6-0.3c-0.5-0.2-0.8-0.4-1.1-0.6l-0.2,0.7h-0.8l-0.1-3.5h0.7c0,0.3,0.2,0.6,0.4,0.9s0.4,0.7,0.6,1
			c0.3,0.3,0.6,0.5,0.9,0.8c0.4,0.2,0.8,0.3,1.2,0.3c0.7,0,1.2-0.1,1.5-0.4c0.4-0.3,0.5-0.7,0.5-1.3c0-0.3,0-0.5-0.2-0.7
			c-0.1-0.2-0.3-0.4-0.5-0.5s-0.5-0.3-0.8-0.4c-0.3-0.1-0.7-0.3-1.1-0.4c-0.3-0.1-0.7-0.2-1.1-0.4s-0.7-0.4-1-0.6
			c-0.3-0.2-0.5-0.5-0.7-0.9c-0.2-0.4-0.3-0.8-0.3-1.2c0-0.8,0.3-1.5,0.9-2.1c0.6-0.6,1.4-0.8,2.4-0.8c0.4,0,0.8,0,1.2,0.2
			s0.7,0.2,1,0.4l0.2-0.5h0.7l0.2,3.2h-0.7c-0.1-0.7-0.4-1.3-0.9-1.8c-0.5-0.4-1-0.7-1.7-0.7c-0.6,0-1,0.1-1.3,0.4s-0.5,0.6-0.5,1
			c0,0.3,0,0.6,0.2,0.8c0.1,0.2,0.3,0.4,0.5,0.5c0.2,0.1,0.5,0.3,0.8,0.4c0.3,0.1,0.7,0.3,1.1,0.4c0.4,0.1,0.9,0.3,1.3,0.5
			C330.4,139.2,330.7,139.4,330.9,139.6z"/>
		<path class="st1" d="M342.2,142.2c-0.4,0.8-1,1.4-1.7,1.9c-0.7,0.5-1.5,0.7-2.4,0.7c-0.8,0-1.5-0.1-2.1-0.4
			c-0.6-0.3-1.1-0.7-1.5-1.2c-0.4-0.5-0.7-1.1-0.9-1.7c-0.2-0.7-0.3-1.3-0.3-2.1c0-0.7,0.1-1.3,0.3-1.9c0.2-0.6,0.5-1.2,0.9-1.7
			c0.4-0.5,0.9-0.9,1.4-1.2c0.6-0.3,1.2-0.4,1.9-0.4c0.7,0,1.4,0.1,1.9,0.4c0.5,0.2,0.9,0.5,1.3,0.9c0.3,0.4,0.5,0.8,0.7,1.3
			c0.2,0.5,0.2,1.1,0.2,1.7v0.7h-6.6c0,0.7,0.1,1.2,0.2,1.8c0.1,0.5,0.3,1,0.6,1.4c0.3,0.4,0.6,0.7,1,0.9c0.4,0.2,0.9,0.3,1.5,0.3
			c0.6,0,1.1-0.1,1.6-0.4c0.4-0.3,0.9-0.8,1.3-1.5L342.2,142.2z M340,138.3c0-0.4,0-0.8-0.1-1.2c-0.1-0.4-0.2-0.8-0.3-1.1
			c-0.2-0.3-0.4-0.6-0.6-0.8c-0.3-0.2-0.6-0.3-1-0.3c-0.7,0-1.3,0.3-1.8,0.9c-0.5,0.6-0.7,1.4-0.8,2.5
			C335.3,138.3,340,138.3,340,138.3z"/>
		<path class="st1" d="M353.2,144.5h-4.8v-0.7c0.2,0,0.3,0,0.5,0c0.2,0,0.3,0,0.4-0.1c0.2-0.1,0.3-0.2,0.4-0.3
			c0.1-0.2,0.1-0.4,0.1-0.6v-6.2c0-0.2,0-0.4-0.1-0.6c-0.1-0.2-0.2-0.3-0.4-0.4c-0.1-0.1-0.3-0.1-0.6-0.2c-0.2-0.1-0.5-0.1-0.7-0.1
			v-0.7l3.5-0.2l0.1,0.1v8.2c0,0.2,0,0.4,0.1,0.6c0.1,0.2,0.2,0.3,0.4,0.4c0.1,0.1,0.3,0.1,0.4,0.1s0.3,0.1,0.5,0.1L353.2,144.5
			L353.2,144.5z M352,130.4c0,0.4-0.1,0.7-0.4,1c-0.3,0.3-0.6,0.4-0.9,0.4c-0.4,0-0.6-0.1-0.9-0.4c-0.3-0.3-0.4-0.6-0.4-0.9
			c0-0.4,0.1-0.7,0.4-1c0.3-0.3,0.6-0.4,0.9-0.4c0.4,0,0.7,0.1,0.9,0.4C351.8,129.8,352,130.1,352,130.4z"/>
		<path class="st1" d="M365.5,144.5h-4.9v-0.7c0.2,0,0.3,0,0.5,0c0.2,0,0.3,0,0.5-0.1c0.2-0.1,0.3-0.2,0.4-0.3
			c0.1-0.2,0.1-0.4,0.1-0.6v-5.2c0-0.7-0.2-1.3-0.5-1.6c-0.3-0.4-0.8-0.6-1.2-0.6c-0.4,0-0.7,0-1,0.2c-0.3,0.1-0.6,0.3-0.8,0.4
			c-0.2,0.2-0.4,0.3-0.5,0.5c-0.1,0.2-0.2,0.3-0.3,0.4v5.8c0,0.2,0,0.4,0.1,0.6c0.1,0.1,0.2,0.3,0.4,0.4c0.1,0.1,0.3,0.1,0.5,0.2
			c0.2,0,0.3,0.1,0.5,0.1v0.7h-4.9v-0.7c0.2,0,0.3,0,0.5,0c0.2,0,0.3,0,0.4-0.1c0.2-0.1,0.3-0.2,0.4-0.3c0.1-0.2,0.1-0.4,0.1-0.6
			v-6.2c0-0.2,0-0.4-0.1-0.6c-0.1-0.2-0.2-0.4-0.4-0.5c-0.1-0.1-0.3-0.1-0.5-0.2s-0.4-0.1-0.6-0.1v-0.7l3.3-0.2l0.1,0.1v1.4h0
			c0.2-0.2,0.4-0.4,0.6-0.6c0.2-0.2,0.5-0.4,0.7-0.6c0.3-0.2,0.5-0.3,0.9-0.4s0.7-0.2,1.2-0.2c1,0,1.7,0.3,2.1,0.9
			c0.5,0.6,0.7,1.4,0.7,2.4v5.2c0,0.2,0,0.4,0.1,0.6c0.1,0.1,0.2,0.3,0.4,0.3c0.2,0.1,0.3,0.1,0.4,0.1c0.1,0,0.3,0,0.5,0.1
			L365.5,144.5L365.5,144.5z"/>
		<path class="st1" d="M381.7,144.5h-9.5v-1.4c0.2-0.2,0.4-0.4,0.8-0.7c0.3-0.3,0.7-0.5,1.2-0.8c0.3-0.2,0.6-0.4,1-0.6
			c0.4-0.2,0.8-0.4,1.3-0.7c0.5-0.3,0.9-0.5,1.2-0.8c0.3-0.2,0.5-0.5,0.8-0.8c0.2-0.2,0.3-0.5,0.4-0.8c0.1-0.3,0.1-0.8,0.1-1.3
			c0-0.8-0.2-1.5-0.7-1.9c-0.4-0.4-1-0.6-1.7-0.6c-0.4,0-0.9,0.1-1.2,0.3c-0.4,0.2-0.7,0.4-0.9,0.7c0,0.2,0.1,0.5,0.2,0.8
			c0.1,0.3,0.1,0.6,0.1,0.9c0,0.3-0.1,0.5-0.3,0.7c-0.2,0.2-0.5,0.3-0.9,0.3c-0.3,0-0.6-0.1-0.8-0.4c-0.2-0.2-0.3-0.5-0.3-0.9
			c0-0.4,0.1-0.7,0.3-1.1c0.2-0.4,0.5-0.7,0.9-1c0.4-0.3,0.8-0.5,1.4-0.7c0.5-0.2,1.1-0.3,1.8-0.3c1.4,0,2.5,0.3,3.3,0.9
			c0.8,0.6,1.2,1.4,1.2,2.5c0,0.5-0.1,0.9-0.2,1.3c-0.1,0.4-0.4,0.8-0.7,1.1c-0.4,0.4-0.8,0.6-1.3,0.9c-0.5,0.2-1.2,0.6-2.2,1
			c-0.6,0.3-1.1,0.5-1.6,0.8s-0.9,0.6-1.2,0.8h7.8L381.7,144.5L381.7,144.5z"/>
		<path class="st1" d="M393.1,135c0.4,0.5,0.8,1.1,1,1.8c0.2,0.7,0.3,1.4,0.3,2.2c0,0.9-0.1,1.7-0.4,2.5c-0.3,0.7-0.6,1.3-1.1,1.8
			c-0.5,0.5-1,0.9-1.7,1.1c-0.7,0.3-1.4,0.4-2.2,0.4c-0.9,0-1.6-0.1-2.3-0.4c-0.7-0.3-1.2-0.7-1.7-1.2c-0.4-0.5-0.8-1.2-1-1.9
			c-0.2-0.7-0.3-1.5-0.3-2.3c0-0.8,0.1-1.6,0.3-2.2c0.2-0.7,0.5-1.3,1-1.8c0.4-0.5,1-0.9,1.7-1.2c0.7-0.3,1.5-0.5,2.4-0.5
			c0.9,0,1.7,0.2,2.4,0.5C392.1,134.1,392.7,134.5,393.1,135z M392.1,139.1c0-1.6-0.3-2.9-0.8-3.7c-0.6-0.9-1.3-1.3-2.3-1.3
			c-1,0-1.7,0.4-2.3,1.3c-0.6,0.9-0.8,2.1-0.8,3.7c0,1.5,0.3,2.8,0.8,3.7c0.5,0.9,1.3,1.4,2.3,1.4c1,0,1.8-0.5,2.3-1.4
			C391.9,141.8,392.1,140.6,392.1,139.1z"/>
		<path class="st1" d="M406.1,144.5h-9.5v-1.4c0.2-0.2,0.4-0.4,0.8-0.7c0.3-0.3,0.7-0.5,1.2-0.8c0.3-0.2,0.6-0.4,1-0.6
			c0.4-0.2,0.8-0.4,1.3-0.7c0.5-0.3,0.9-0.5,1.2-0.8c0.3-0.2,0.5-0.5,0.8-0.8c0.2-0.2,0.3-0.5,0.4-0.8c0.1-0.3,0.1-0.8,0.1-1.3
			c0-0.8-0.2-1.5-0.7-1.9c-0.4-0.4-1-0.6-1.7-0.6c-0.4,0-0.9,0.1-1.2,0.3c-0.4,0.2-0.7,0.4-0.9,0.7c0,0.2,0.1,0.5,0.2,0.8
			c0.1,0.3,0.1,0.6,0.1,0.9c0,0.3-0.1,0.5-0.3,0.7c-0.2,0.2-0.5,0.3-0.9,0.3c-0.3,0-0.6-0.1-0.8-0.4c-0.2-0.2-0.3-0.5-0.3-0.9
			c0-0.4,0.1-0.7,0.3-1.1c0.2-0.4,0.5-0.7,0.9-1c0.4-0.3,0.8-0.5,1.4-0.7c0.5-0.2,1.1-0.3,1.8-0.3c1.4,0,2.5,0.3,3.3,0.9
			c0.8,0.6,1.2,1.4,1.2,2.5c0,0.5-0.1,0.9-0.2,1.3c-0.1,0.4-0.4,0.8-0.7,1.1c-0.4,0.4-0.8,0.6-1.3,0.9c-0.5,0.2-1.2,0.6-2.2,1
			c-0.6,0.3-1.1,0.5-1.6,0.8s-0.9,0.6-1.2,0.8h7.8L406.1,144.5L406.1,144.5z"/>
		<path class="st1" d="M412,148.2c-0.6,0-1.2-0.1-1.7-0.2c-0.5-0.2-1-0.4-1.4-0.6c-0.4-0.3-0.7-0.6-0.9-0.9s-0.3-0.7-0.3-1.1
			c0-0.3,0.1-0.6,0.2-0.9c0.2-0.3,0.4-0.4,0.8-0.4c0.4,0,0.7,0.1,0.9,0.3c0.2,0.2,0.3,0.4,0.3,0.7c0,0.2,0,0.5-0.1,0.8
			c-0.1,0.3-0.1,0.6-0.2,0.7c0,0.1,0.1,0.1,0.3,0.2c0.1,0.1,0.3,0.2,0.5,0.3c0.2,0.1,0.4,0.2,0.7,0.2c0.2,0.1,0.6,0.1,1,0.1
			c0.4,0,0.8-0.1,1.2-0.2c0.4-0.1,0.7-0.4,1-0.7c0.3-0.3,0.5-0.7,0.7-1.1c0.2-0.4,0.3-1,0.3-1.6c0-0.4,0-0.7-0.1-1.1
			c-0.1-0.4-0.2-0.7-0.4-0.9s-0.5-0.5-0.9-0.6c-0.4-0.1-0.8-0.2-1.4-0.2h-1.3v-1.2h0.9c0.9,0,1.6-0.3,2-0.8c0.4-0.5,0.6-1.3,0.6-2.3
			c0-0.8-0.2-1.5-0.6-1.9c-0.4-0.4-1-0.6-1.7-0.6c-0.4,0-0.6,0-0.9,0.1c-0.2,0.1-0.4,0.2-0.6,0.3c-0.2,0.1-0.3,0.2-0.4,0.3
			c-0.1,0.1-0.2,0.2-0.2,0.3c0,0.2,0.1,0.5,0.2,0.8c0.1,0.3,0.1,0.6,0.1,0.9c0,0.3-0.1,0.5-0.3,0.7s-0.5,0.3-0.9,0.3
			c-0.4,0-0.6-0.1-0.8-0.4c-0.2-0.3-0.3-0.6-0.3-0.9c0-0.4,0.1-0.7,0.3-1.1s0.5-0.7,0.9-1c0.4-0.3,0.9-0.6,1.4-0.8
			c0.6-0.2,1.2-0.3,1.9-0.3c0.8,0,1.5,0.1,2.1,0.4c0.5,0.2,1,0.5,1.3,0.9c0.3,0.4,0.5,0.7,0.6,1.1c0.1,0.4,0.2,0.7,0.2,1
			c0,0.3,0,0.7-0.1,1c-0.1,0.3-0.3,0.7-0.5,0.9c-0.2,0.3-0.5,0.6-0.9,0.9c-0.4,0.3-0.9,0.5-1.5,0.6v0.2c0.4,0,0.8,0.1,1.2,0.3
			c0.4,0.1,0.8,0.3,1.2,0.6c0.4,0.3,0.7,0.6,0.9,1.1c0.2,0.4,0.4,1,0.4,1.7c0,1.3-0.5,2.4-1.6,3.2
			C414.9,147.8,413.6,148.2,412,148.2z"/>
	</g>
</g>
<g id="layer2">
	<path class="st4" d="M941.2,5.6c20.3,6.3,40.6,12.6,60.8,18.9c0.5,0.6,0.3,1.3,0.3,1.9c0,1,0.4,2,0.4,3c-0.2,0.3-0.1,0.8-0.3,0.9
		c0.1-0.1,0.1-0.5,0.3-0.9c0.3-0.6,0.7-0.3,1,0c0.1,0.1,0.2,0.2,0.2,0.3c0.6,0.7,0.6,1.5,0.8,2.3c0.2,0.6-0.2,1.1-0.7,1.4
		c-0.4,0.3-1.3,0.6-0.1,1.1c0.3,0.1,0.3,0.6,0.2,0.9c0,0.3-0.1,0.6,0.2,0.8c0.2,0.2,0.4,0.2,0.7,0.1c0.3-0.1,0.7-0.1,0.9,0.2
		c0.1,0.1,0.2,0.3,0.3,0.4c0.1,0.4,0.3,0.7,0.6,1c1,2.6,2,5.3,2.4,8.1c0.1,0.6,0.1,1.2-0.1,1.7c-0.7,1.5-0.2,3.1-0.4,4.6
		c0,0.3,0.2,0.5,0.3,0.7c0.2,0.2,0.1,0.6,0.6,0.3c0.3-0.3,0.7-0.6,1.2-0.5c0.3,0.1,0.5,0.2,0.7,0.5c-0.1-0.4-0.4-0.6-0.4-0.9
		c-0.1-1.5,0.7-2,2.1-1.5c0.4,0.2,0.7-0.1,1-0.2c0.2-0.1,0.3-0.2,0.4-0.3c1.1-0.4,2.2-0.1,3.1,0.5c0.6,0.3,1.1,0.5,1.7,0.4
		c0.3,0,0.6,0.1,0.8,0.3c1.3-0.1,2.5,0.1,3.8,0.1c0.3,0.1,0.6,0.2,0.8,0.4c0.1,0.1,0.2,0.3,0.2,0.3c0.7-0.6,1.3,0.1,1.9,0.3
		c0.2,0.1,0.5,0.1,0.7,0.2c0.6,0.2,1,0.5,0.7,1.3c-0.1,0.1-0.2,0.2-0.3,0.3c0.2,0,0.2-0.2,0.3-0.2c1.3-0.9,2.8-0.4,4.2-0.6
		c1.8-0.2,2.3-0.6,2.2-2.4c-0.1-1,0.3-1.5,1-2c1.1-0.9,2.2-1.8,3.5-2.4c0.5-0.2,1-0.4,1.6-0.4c3.6,0.2,6.9-0.7,9.7-3.2
		c0.8-0.8,1.9-1.3,2.9-1.9c0.9-0.6,1.8-0.2,2.6-0.2c11.8,3.7,23.6,7.3,35.4,11c0.7,0.2,0.8,0.4,0.6,1.1
		c-27.3,87.7-54.5,175.4-81.7,263.1c-0.4,1.1-0.9,0.7-1.4,0.5c-106.2-33-212.5-66-318.8-99c-0.2-0.4-0.1-0.9,0.3-0.9
		c1.3,0,2-1.5,3.4-1.4c0.1,0,0.1,0,0.1,0c1.5-0.8,2.9-1.7,4.3-2.6c0.3-0.3,0.9-0.2,1.2-0.7c0.3-0.4,0.8-0.5,1.1-0.7
		c0.4-0.3,0.8-0.6,0.8-1.1c0-0.4,0.2-0.6,0.6-0.9c2.9-1.7,5.8-3.1,8.8-4.5c1.5-0.7,3-1.1,4.3-2.3c0.9-0.8,2.1-1.1,3.3-1.2
		c0.8-0.1,1.4-0.6,2.1-0.9c0.8-0.4,0.7-0.9,0.2-1.4c-0.6-0.5-1.2-1-1.6-1.7c-0.4-0.6-1.3-0.3-1.8-0.5c-0.6-0.2-1.3-0.5-1.9-0.4
		c-0.7,0-1.5,0-1.7-0.8c-0.3-1.1,0.5-1.7,1.1-2.3c0.1-0.2,0.2-0.4,0.3-0.6c0.2-0.4,0.1-0.8,0-1.1c0-0.6,0.6-0.9,0.9-1.4
		c0.1-0.3,0.4-0.6,0.2-0.8c-0.4-0.3-1-0.2-1.6-0.2c-0.3,0-0.5,0.3-0.4,0.6c0.2,0.7,0.5,1.4-0.4,1.8c-0.9,0.5-1.8,0.8-2.8,0.3
		c-0.8-0.4-0.9-0.7-0.2-1.3c0.2-0.2,0.4-0.3,0.6-0.5c0.6-0.4,0.8-0.8,0-1.3c-0.9-0.6-0.8-1,0.1-1.5c0.8-0.5,1.3-1.4,2.3-1.5
		c-1.8-0.5-3.6-0.9-5,1c-0.7,1-1.6,1-2.3,0.4c-0.3,0.3,0,0.6-0.1,0.9c0,0.2,0,0.3-0.1,0.5c-0.4,1.7-1.1,1.9-2.3,0.7
		c-0.8-0.8-1.7-1.1-2.8-0.8c-0.9,0.3-1.5,0-1.7-1c-0.1-0.5-0.4-0.9-0.7-1.3c-0.5-0.4-0.7-0.9-0.6-1.6c0-0.3,0.1-0.5,0.1-0.7
		c-0.2-1.2-0.9-2.2-1.5-3.2c-0.4-0.5-0.8-1.1-1.1-1.7c-0.2-0.7-0.6-1.1-1.3-1.3c-0.6-0.9-0.3-1.8,0.4-2.3c1.1-0.8,1.3-1.8,1.5-2.9
		c0.1-0.5,0.2-1.1,0.5-1.5c0.9-0.8,0.7-1.6,0.1-2.4c-0.2-0.5-0.9-1,0-1.5c0.1-0.1,0,0.1,0.1-0.1c0.6-1.9,2.5-2.3,3.7-3.5
		c0.9-0.9,1.7-1.9,2.2-3c0.3-0.7,0.7-1.3,1.3-1.8c1.1-1,1.7-2.1,1.8-3.8c0.1-1.3-0.2-3,1.3-3.9c0.3-0.2,0.3-0.6,0.3-0.9
		c-0.1-1.3,0.4-2.4,1.2-3.4c0.4-0.5,0.8-0.9,1-1.6c0.3-1.1,0.6-2.2,1.6-2.8c0.2-0.1,0.3-0.3,0.3-0.5c0.3-1.6,1.4-2.4,2.8-3.1
		c2.4-1.2,4.8-2.5,6.2-4.9c0.2-0.4,0.6-0.6,1-0.7c1.9-0.8,3.1-2.4,4.4-3.9c1.1-1.3,2.1-2.6,3.5-3.6c2.2-1.7,4.5-3.1,7-4.3
		c1-0.5,1.8-1.3,2.7-1.9c1.1-0.8,2.1-1.8,3.5-2.3c1.6-0.6,2.7-1.7,3.6-2.9c1-1.2,2.3-1.8,3.5-2.5c0.9-0.6,2.1-1,3.3-1.1
		c1-0.2,2-0.4,2.9-0.9c0.4-0.2,0.8-0.3,1.3-0.3c0.9,0.1,1.8,0.1,2.7,0c0.9-0.1,1.8,0.1,2.4,0.8c0.6,0.6,1.3,1.1,2.1,1.4
		c0.7,0.2,0.8,0.7,0.7,1.4c-0.1,0.4-0.4,0.8-0.1,1.2c1,0.3,1.4-1.3,2.4-0.7c0.2,0.3,0.2,0.6,0,0.9c0,0.1-0.1,0.2-0.2,0.3
		c-0.3,0.3-0.6,0.4-0.8,0.8c0.1,0.1,0.1-0.1,0.2-0.1c0.2-0.3,0.4-0.5,0.7-0.7c1.1-0.7,2.3-1.4,3.1-2.4c0.3-0.4,0.7-0.6,1.2-0.4
		c0.2,0.1,0.6,0.3,0.7,0.1c1.5-1.6,3.8-1,5.6-2.1c1-0.7,1.8-1.7,2.7-2.5c0.2-0.2,0.3-0.5,0.2-0.8c-0.1-0.6,0.1-1,0.3-1.6
		c0.5-1.9,1.5-2.8,3.5-3.4c1.4-0.4,2.8-1.2,4.2-1.8c1.2-0.5,2.4-1,3.8-0.7c1.1,0.3,2.7-1,3.3-1.9c0.8-1.2,1-2.1-0.2-3.2
		c-0.8-0.8-1.2-1.9-1.9-2.8c-0.6-0.7-0.5-1.8-0.5-2.7c-0.1-1.6-0.6-3.1-1.1-4.7c-1-3.2-1.3-6.4,0.3-9.5c0.4-0.8,0.8-1.6,0.3-2.6
		c-0.2-0.4,0-0.7,0.2-1.1c0.8-1.4,1.6-2.8,2.9-3.8c0.5-0.4,1-0.6,1.6-0.7c0.8,0,1.5-0.3,2-1c0.3-0.4,0.8-0.7,1.3-0.1
		c0,0.6,0.5,0.5,0.8,0.8c0.2,0.1,0.4,0.2,0.5,0.3c1,0.1,1.8-0.4,2.7-0.8c0.5-0.2,0.7,0.9,1.2,0.3c0.4-0.9,1-0.7,1.7-0.4
		c0.3,0.1,0.5,0.3,0.7,0.5c0.2,0.2,0.3,0.6,0.5,0.1c0.2-0.2,0.3-0.4,0.5-0.6c0.1-0.1,0.2-0.1,0.3-0.1c0.3,0,0.6,0,1,0.1
		c0.2,0,0.3,0.1,0.5,0.1c0.3,0.2,0.6,0.3,0.8,0.6c0.3,0.6,0.9,0.6,1.4,0.8c0.1,0.1,0.3,0.2,0.4,0.4c0.1,0.3,0,0.6-0.1,0.9
		c-0.2,0.4-0.7,0.4-1,0.5c-0.2,0.1-0.4,0.4-0.6,0.5c-0.3,0.2-0.2,0.4-0.1,0.7c-0.1,0.6,0.5,0.7,0.7,1.1c0.2,0.4,0.1,0.8-0.4,0.9
		c-1.2,0.4-1.9,1.3-2.4,2.3c-0.3,0.7-1.2,0.8-1.3,1.5c0,0.2-0.1,0.4-0.2,0.6c-0.2,0.3-0.3,0.7-0.3,1.1c-0.1,0.4-0.1,0.8,0.2,1.1
		c0.9,1,0.4,2.3,0.9,3.4c0.2,0.4-0.2,0.8-0.6,1c-0.8,0.5-1.5,0.8-2.4,0.6c-0.2,0-0.2-0.3-0.4-0.2c0,0.1,0,0.1,0.1,0.2
		c0.1,0.3,0.1,0.5,0,0.8c0,0.1,0,0.2-0.1,0.3c0.4,1.6,0.9,3.2,2.3,4.4c0.4,0.4,0.7,0.2,1.1,0.1c1.7-0.5,3.1,0.3,3.2,2
		c0.1,0.5,0.1,0.8,0.6,1.1c0.7,0.4,0.7,0.8,0.1,1.3c-1,1-1.9,2.1-3,2.8c-0.1,0.3-0.2,0.5-0.3,0.8c-0.2,0.7-0.6,1.2-1.2,1.7
		c-1,0.8-1,1.7,0,2.6c0.2,0.2,0.4,0.4,0.7,0.5c1,0.3,1.6,1,2.3,1.8c0.6,0.7,1.6,0.2,2.3,0.8c0.4,0.6,1,0.5,1.6,0.4
		c1.2,0.3,2.4-0.4,3.6-0.1c0.1,0,0.2,0,0.3,0c0.9,0,1.6-0.4,2.4-0.7c1.1,0.1,1.9-0.7,2.8-1.2c0.8-0.4,1.5-0.6,2.4-0.6
		c0.4,0,0.6-0.1,1-0.3c0.4-0.1,0.8-0.1,1.2-0.1c0.5,0.1,1,0.1,1.1,0.8c0,0.7-0.3,1.1-0.9,1.3c-0.5,0.1-0.9,0.1-1.3,0.3
		c-0.8,0.3-0.9,0.7-0.2,1.3c1.3,1.1,1.2,1.9-0.4,2.5c-0.3,0.1-0.5,0.3-0.6,0.5c-0.3,0.6-0.8,0.8-1.4,1c-1.5,0.3-2.5,1.4-3.5,2.4
		c-0.3,0.3-0.3,0.6-0.1,1c0.9,2.2,3.8,3.4,5.6,2c0.2-0.2,0.4-0.3,0.6-0.4c0.2-0.1,0.3-0.2,0.5-0.3c1.4-1.8,3.5-2,5.6-2.3
		c1.7-0.2,3.1-0.9,3.9-2.6c0.4-0.8,1.4-1.1,2.3-1.3c0.6,0,1.1,0.1,1.7,0.2c0,0,0-0.1,0-0.1c0,0,0-0.1,0-0.1c0.4-0.9,1.2-1.1,1.8-0.4
		c0.4,0.5,0.8,0.9,1.1,1.5c0.4,0.7,0.8,0.8,1.1,0c0.3-0.7,0.8-1.1,1.2-1.5c0.9-0.9,0.8-1.3,0-2.2c-0.1-0.1-0.3-0.2-0.3-0.4
		c0.1-1.7-1.3-2-2.4-2.4c-0.3-0.1-0.6-0.2-0.8-0.2c-0.9-0.2-1.5-0.6-1.6-1.6c0-0.2,0,0.1,0-0.1c-0.1-0.6-0.9-1.1-0.6-2
		c0.3-0.8,1.2-0.5,1.6-1c0.1-0.1,0.2-0.2,0.2-0.3c0.2-0.3,0.6-0.5,0.3-1c-0.7-0.5-1.2-1.4-2.1-1.6c-0.4,0-0.9-0.2-1.1,0.2
		c-0.6,0.9-1.5,1-2.3,1.2c-0.4,0.1-0.5,0.3-0.8,0.6c-0.9,0.6-1.9,0.7-2.8,0.6c-0.7,0-1.3-0.3-1.7-1.1c-0.2-0.5-0.5-1.1-0.9-1.6
		c-0.3-0.2-0.5-0.3-0.8-0.5c-0.5-0.7-1.2-1-2-0.8c-0.8,0.1-1.4-0.1-1.9-0.8c-0.3-0.5-0.9-0.7-1.4-0.9c-0.6-0.2-0.8-0.6-0.3-1.2
		c0.4-0.4,0.6-1,1-1.6c1-1.6,1.4-1.6,3-0.6c0.3,0.4,0.6,0.7,1.2,0.4c1-0.4,1.9-0.7,3-0.3c0.3,0.1,0.8,0.1,1-0.1
		c0.9-0.8,2.5-0.8,3.2-2c0.1-0.2,0.3-0.3,0.5-0.3c2.2-0.1,3.6-1.8,5.6-2.4c1.2-0.3,2-1.7,3.1-2.4c0.3-0.3,0.1-0.6,0-0.9
		c-0.9-1.2-1.5-2.7-2.9-3.4c-0.5-0.3-0.8-0.9-0.9-1.4c-0.3-3.5-1.3-7-0.7-10.5c0.1-0.5-0.1-0.9-0.5-1.2c-0.2-0.2-0.5-0.2-0.6-0.5
		c-0.5-1.8-1.7-3.3-1.9-5.2c0-0.4,0.5-0.8,0.3-1.2c-0.5-1.1,0.5-1.2,1.1-1.5c0.3-0.1,0.4-0.3,0.2-0.6c-0.1-0.4-0.2-0.8-0.3-1.1
		c-0.3-1.4,0.1-1.7,1.5-1.5c1.8,0.4,3.4-0.2,5.1-1.3c-1.9,0.3-2.5-0.1-3.2-1.7c-0.2-0.4-0.2-1-0.8-1.2c-0.4-0.1-0.4-0.5-0.6-0.7
		c-0.2-0.1-0.3-0.3-0.4-0.5c-0.1-0.2,0-0.5,0.1-0.7c0.1-0.1,0.3-0.2,0.4-0.3c0.5-0.2,0.2-0.5,0.2-0.8c0-0.8,0.4-1.6,0.6-2.4
		c0.2-0.7,0.6-1.3,1.5-1c0.2,0.1,0.4,0.1,0.5-0.1c0.3-0.9,1.3-1.6,1.2-2.8c-0.1-0.6,0.3-1.2,1-1.2c0.8,0,1.4-0.4,2.1-0.6
		c0.4,0,0.8,0.4,1.1-0.1c0.2-0.1,0.4-0.2,0.6-0.3c0.9-0.7,1.9-1.4,2.3-2.5c0.2-0.5,0.6-0.8,1-1c1.1-0.6,2.5-1,2.9-2.4
		c0.1-0.3,0.5-0.4,0.9-0.4c0.4,0,0.6-0.2,0.7-0.6c0.1-0.8,0.7-0.8,1.3-0.8c0.6-0.1,0.3-0.5,0.3-0.9c0-0.8,0.7-1.1,0.9-1.6
		c0.3-0.4,0.2-1,0.4-1.5c0.1-0.1,0.1-0.2,0.3-0.3c0.2-0.1,0.4-0.1,0.5,0c0.4,0.1,0.7,0.3,1.2,0.4c-0.4-0.5-0.5-1,0.2-1.4
		c1.6-0.3,2.9-0.9,4-2.2c0.3-0.3,0.7-0.8,1.1-0.2c0.3,0.3,0.1,0,0.2-0.1c0.5-0.8,1-0.8,1.6-0.1c0.9-1.3,2.1-2,3.7-2.3
		c0.2,0,0.5,0,0.6-0.2c0.8-1.6,2.1-0.9,3.3-0.7c0.4,0.1,0.5-0.2,0.8-0.5c0.8-0.8,1.8-1.8,2.8-2c1.3-0.3,2.8-0.5,4.1,0
		c0.4,0.2,0.8,0.3,1.3,0.1c0.4-0.3,0.9-0.1,1.2,0.3c0.4,0.7,0.9,0.6,1.6,0.3c1-0.5,1.6-0.1,1.8,1c0.3-0.6,0-1.6,1.2-1.2
		c0.1,0.1,0.2,0.2,0.3,0.4c0.1-0.1-0.1-0.2,0-0.4c0.1-0.2,0.3-0.4,0.5-0.6c0.4-0.3,0.8-0.7,1.4-0.3c0.3,0.3,0.6,0.4,1,0.3
		c0.7,0.1,1,0.4,0.6,1.1c-0.3,0.4-0.3,0.8,0.1,1.2c0.4-0.3,0.5-0.9,0.8-1.4c0.8-1.3,1.7-1.5,3.2-1.3c1.3,0.2,2.6,0.6,3.8,0.1
		c0.2-0.1,0.4-0.2,0.6-0.1c1.2,1.1,2.5-0.1,3.8,0.1c1.3,0.2,2.7,0.5,4,0.4c0.7-0.1,1.2-0.1,1.6-0.8c0.4-0.6,0.9-0.9,1.6-0.7
		c0-0.4-0.1-0.8-0.1-1.2c0-0.7-0.5-1.5,0.5-2.1c1-0.6,1.9-0.6,2.9,0.1c0.2,0.3,0.5,0.5,0.6,0.9c0.5,2,0.4,4-0.9,5.7
		c-0.4,0.4-0.2,0.7,0.3,0.7c0.5,0.1,1,0.1,1.6,0.1c0.9-0.1,1.4,0.3,1.4,1.2c0,0.4,0.2,0.6,0.5,0.6c1.4,0.6,2.9,0.1,4.4,0.5
		c0.6,0,1.2,0.6,1.8-0.1c0.1-0.1,0.2-0.1,0.3-0.1c0.8-0.1,0.6-0.9,0.9-1.4c0.1-0.1,0.1-0.2,0.3-0.2c0.5-0.2,0.9,0.3,1.4,0.3
		c0.2,0,0.5,0.1,0.7,0.1c0.3,0.1,0.5,0.2,0.8,0.3c0.4,0.2,0.7-0.1,0.9-0.4c0.8-0.7,1.8-1.2,2-2.4c0.1-0.3,0.4-0.5,0.7-0.5
		c0.8,0,1.5-0.5,2.2-0.8c1.3-0.4,2.3-1.1,2.7-2.6c0.1-0.2,0.2-0.3,0.2-0.4c0.3-0.6,1.2-0.9,1-1.9c-0.2-1.5-0.4-3-1.7-4.1
		C941.3,6.4,940.7,6.1,941.2,5.6z"/>
	<path class="st5" d="M620,154.7c-0.5,1.5-1,3.1-0.9,4.7c0,2.1-0.6,4.1-0.6,6.2c0,1.9-0.8,3.9-1.3,5.8c0.1,0.6-0.1,1.2-0.5,1.7
		c-0.6,1.8-1.3,3.5-1.9,5.3c-0.3,0.9-1.4,1.3-1.6,2.4c-0.3,1.4-1.4,2.3-2.1,3.5c-0.6,1.1-1.8,1.1-2.7,1.6c-0.2,0.1-0.5-0.1-0.6,0.2
		c-0.3,0.7-0.8,1.2-1.6,1.1c-0.2,0-0.5,0.1-0.5,0.2c-0.6,1.2-2.1,1.9-2.2,3.5c-10.4-3.2-20.8-6.5-31.2-9.7c0-1,1-1,1.4-1.1
		c1.1-0.2,1.4-1,1.4-1.7c0.1-1.3,0.4-2.4,1-3.5c0.4-0.8,0.2-1.1-0.7-1.2c-1.3-0.1-1.6-0.4-1.1-1.7c0.4-1.1,0.3-2.4,0.7-3.5
		c0.4-1,1.5-1,2.3-1.3c0.5-0.2,1.1,0.3,1.2,1.1c0.1,0.3,0.1,1.4,0.8,1.2c1-0.3,2.1,0.2,2.9-1.1c0.6-0.9,1.1-2,2.1-2.8
		c0.6-0.5,0.8-1.5,1.1-2.3c0.4-1.4,0.5-2.8-0.3-4.2c-0.7-1.2,0.2-2.2,1.8-3.1c1.1-0.6,2.1-0.3,3.2-0.2c0.3,0,0.7,0.2,0.7,0.6
		c-0.2,1,0.8,0.9,1.1,0.9c1.2-0.3,2.4-0.3,3.4-1.1c0.3-0.3,0.7-0.4,1-0.5c1.7-0.7,2.5-2.1,3.2-3.7c0.3-0.6-0.4-1.1-0.1-1.5
		c0.8-1.1,0.7-2.4,0.7-3.7c0-0.6,0.5-0.6,0.9-0.3c0.3,0.2,0.6,0.6,0.8,0.9c0.2,0.5,0.7,0.6,0.8,0.5c1.2-0.7,2.8-0.1,3.9-1.1
		c0.5-0.4,1.3-0.3,1.9-0.9c0.5-0.5,0-1.4,0.8-1.7c0.3-0.2,0.3-0.4,0.2-0.8c0.1-1.6,1.4-2.3,2.3-3.3c1-1.3,2.3-2.1,3.4-3.1
		c0.3-0.3,0.6-0.4,1-0.4c0.3-0.1,0.6,0.2,0.9-0.2c1.2-1.4,2.9-1.9,4.5-2.7c0.4-0.2,0.7-1,1.2-0.6c0.4,0.4-0.1,1-0.2,1.4
		c-0.1,0.6-0.1,1,0.2,1.5c0.5,0.8-0.1,1.7-0.2,2.6c-0.1,0.7-0.4,1.4-0.7,2.1c-1,2.2-1.1,4.6-0.9,6.8c0.1,2.1-0.4,3.9-0.8,5.8
		C619.9,154,619.9,154.4,620,154.7z"/>
	<path class="st6" d="M807.8,65.8c0.3-0.1,0.5-0.1,0.8,0c-0.2,0.3,0,0.9-0.6,0.9C807.6,66.6,807.8,66.1,807.8,65.8z"/>
	<path class="st7" d="M809,65.2c0.1-0.2,0.1-0.3,0.2-0.5c0.3-0.1,0.5,0,0.7,0.2c0.1,0.2,0.1,0.3,0.2,0.4
		C809.6,65.6,809.3,65.2,809,65.2z"/>
	<path class="st5" d="M753.7,50.3c0.7,0.4,1.4,0.6,2.2,0.4c0.4-0.1,1.6-0.4,1.3,0.9c-0.1,0.2,0,0.4,0.2,0.4c1.3-0.2,0.3,0.6,0.4,1
		c0.3,0.2-0.3,0.9,0.4,0.9c0-0.1,0.1-0.3,0.1-0.3c1.5-1.2,1.5-1.2,0.1-2.4c-0.4-0.4-0.3-0.8-0.2-1.1c0.2-0.5,0.5-0.7,1-0.5
		c0.9,0.3,1.8,0.5,2.5-0.4c0.2-0.2,0.4-0.5,0.7-0.6c1.1-0.3,1.4-1.6,2.4-2c0.4-0.1,0.8-0.8,1.1-0.4c0.4,0.7,1.5,0.9,1.6,1.6
		c0.1,0.8,0.4,1.5,0.8,2.2c0.2,0.2-0.1,0.5-0.1,0.7c-0.3,0.2-0.4,0.6-0.4,0.9c0,1-0.4,1.7-1.4,2c-0.2,0.1-0.4,0.3-0.3,0.5
		c0.1,0.3,0.4,0.1,0.7,0.2c0.3,0.1,0.5,0.3,0.8,0.4c0.5,0.4,1,0.8,1.6,1c0.4,0.1,0.7,0.3,1.1,0.3c0.4,0,0.7-0.2,0.9-0.4
		c0.2-0.1,0.4-0.2,0.6-0.2c0.5,0.1,0.9-0.2,1.3-0.3c0.4-0.1,0.8,0.1,1.1,0.2c0.6,0.2,1.1,0.3,1.7,0.3c0.3,0,0.5,0.1,0.7,0.1
		c0.7,0.3,1.3,0.1,1.9,0c0.2-0.2,0.2-0.5,0.5-0.6c0.9,0.2,1.9-0.1,2.6,0.8c0.7-0.4-0.6-1.6,0.8-1.8l0,0c0.6-0.2,1,0.2,1.4,0.4
		c0.3,1.4,1.5,1.6,2.6,1.8c0.7,0.1,1.4,0.2,1.9,0.6c0.8-1,0.3-1.8-0.3-2.6c-0.2-0.2-0.4-0.4-0.7-0.1c-0.5,0.5-0.9,0.4-1.4,0.1
		c-0.5-0.3-0.4-0.7-0.3-1.2c0.1-0.8,0.7-0.5,1.1-0.6c0.1,0,0.3-0.1,0.8-0.2c-1.7-0.4-1.8-1.6-1.9-2.8c0-0.6,0.2-0.9,0.6-1.2
		c1.3-0.8,2.2-1.9,3-3.2c0.9-1.2,1.2-2.6,2-3.8c0.5-0.6,0.7-0.8,1.1-0.1c0.2,0.4,0.7,0.6,0.7,0.1c0.1-1.6,1.4-1.3,2.3-1.5
		c0.4,0.1,0.4,0.5,0.2,0.6c-0.7,0.6-0.4,1.3-0.5,2c0.1,0.2-0.1,0.6,0.3,0.3c0.1-0.2,0-0.5-0.1-0.7c-0.1-0.4-0.4-0.8-0.1-1.1
		c0.4-0.4,0.9-0.3,1.3,0.1c0.1,0.5,0.7,0.3,0.9,0.7c0.3,0.6,1.5,1.2-0.3,1.6c-0.8,0.1-0.5,1-0.3,1.5c0.2,0.4,0.3,0.6,0.1,0.9
		c-0.2,0.8-0.5,1.4,0.1,2.3c0.3,0.4,0,1.2-0.4,1.6c-0.6,0.6-1.2,0-1.8,0c-0.4,0.2-0.7,0.6-1.1,0.8c-0.3,0.2-0.2,0.4-0.1,0.6
		c0.2,0.4,0.2,1,0.3,1.4c0.1,0.1,0.1,0.4,0.3,0c0-0.1,0-0.2,0-0.3c0.2-0.3-0.1-0.4-0.2-0.6c-0.4-0.8-0.3-1.4,0.7-1.6
		c0.4,0.2,1.1-0.1,0.8,0.9c-0.2,0.6,0.2,0.7,0.7,0.3c0.2-0.2,0.4-0.5,0.7-0.4c0.2,0.1,0.9-0.1,0.3,0.5c0,0-0.1,0.1,0,0.1
		c0.7,1.1,0.6,2.1,0.1,3.2c0,0.1,0.3,0.3,0.4,0.5c0.1,0.2,0.8,0,0.4,0.6c-0.2,0.4-0.5,0.4-0.8,0.3c-0.6-0.4-1.1-0.4-1.5,0.4
		c0,0.1-0.2,0.2-0.2,0.1c-0.9-0.8-1.7,0.2-2.6,0c-0.4-0.1-0.8-0.1-1.1,0.4c-0.4,0.7-1.2,0.8-1.8,0.6c-0.8-0.2-1.1-0.1-1.1,0.7
		c0,0.3-0.3,0.7-0.4,1c-0.2,0.7-0.7,0.9-1.2,0.6c-0.9-0.4-1.6-0.2-2.4,0.2c-1.4,0.7-2.9,0.9-4.3,1.7c-1,0.6-2.3,0.9-3.1,1.8
		c-0.9,0.8-3,0.4-3.6-0.7c-0.1-0.1-0.1-0.3-0.2-0.2c-0.9,0.7-1.6-0.3-2.5-0.3c-2.3-0.2-4.6-0.5-6.9-0.7c-0.3,0-0.6,0-0.8-0.4
		c-0.1-0.3,0.6-0.8,0-1c-0.8-0.3-1.4-1-2.4-0.6c-0.2,0.2-0.6,0.1-0.8,0.3c-0.2,0.3-0.6,0.3-0.6,0.7c0.3,1.7-1,2.3-2.1,2.8
		c-1.1,0.5-2.1,1.2-2.9,2c-0.6,0.5-0.8,1.4-0.8,2.3c-0.1,1.3-0.5,1.7-1.8,1.6c-0.7-0.1-1.3,0.7-2.1,0.1c-0.2-0.1-0.5-0.2-0.4-0.5
		c0-0.3,0.2-0.3,0.4-0.3c1.3-0.5,2.2-1.4,2.6-2.8c0.1-0.4,0.1-0.6-0.3-0.7c-0.4-0.1-1-0.6-1.3-0.1c-0.4,0.6-0.8,0.5-1.3,0.4
		c-1.1-0.2-2,0.6-3.1,0.3c-0.3,0.1-0.6,0-0.8,0.2c-1.5,0.5-2.8,1.3-3.8,2.6c-0.4,0.6-1.2,0.7-1.9,0.8c-0.9,0.1-1.6,0.4-2.1,1.3
		c-0.5,0.9-1.1,1.8-2.1,2.5c-0.7,0.5-1.6,1.2-2,2.3c-0.2,0.6-0.5,1-1.1,1.5c-0.6,0.5-0.8,1.4-1,2.2c-0.1,0.6-0.2,1.2,0.7,1.2
		c0.5,0,0.6,0.4,0.6,0.8c0,0.5-0.4,0.3-0.8,0.3c-0.9,0.1-1.8,1.4-1.5,2.3c0.3,1.1-0.5,2.6-1.5,2.4c-1.2-0.2-1.2,0.6-1.4,1.2
		c-0.6,1.6-0.9,1.7-2.3,0.6c-0.1-0.6-0.2-1.3-0.1-1.9c-0.4,0.4-0.8,0.6-1.3,0.3c-0.3-0.2-0.7-0.4-1,0c-0.1,0.1-0.2,0.3-0.1,0.4
		c0.2,0.4,0.7,0.3,1,0.3c1.3,0,1.3,0.1,0.9,1c-0.1,0.1-0.2,0.1-0.2,0.2c-1.1,1.9-1.1,1.7-2.7,0.3c-1.2-1-0.6-1.7-0.4-2.6
		c0.1-0.5,0.2-1,0.4-1.4c0.7-1.3,0-2.3-0.6-3.3c-0.1-0.2-0.3-0.4-0.2-0.7c0.4-1.6-0.4-3.3,0.4-4.9c0.1-0.1-0.1-0.4-0.1-0.6
		c-0.1-0.3,0-0.5,0.2-0.7c1-1.9,2.9-3,4.4-4.5c0.4-0.4,0.8-1.2,0.4-1.9c-0.1-0.3-0.3-0.5,0.1-0.6c0.2-0.1,0.4,0,0.5,0.2
		c0.9,1.2,2.2,1.1,2.8-0.3c0.3-0.8,0.6-1.6,0.4-2.5c-0.2-1.1,0.4-2.3,0.9-3.3c0.3-0.1,0.4-0.5,0.7-0.6c0.2-0.6,0.5-1.1,1.2-1.4
		c1.5-0.7,2.7-3.6,2.4-5.2c-0.1-0.7-0.1-1.4-0.2-2.1c1.6,0.4,2.4-0.1,2.9-1.7c0.2-0.8,0.6-1.1,1.4-0.9c0.5,0.2,0.7,0,1-0.3
		c0.4-0.3,0.7-0.9,1.4-0.5c0.1,0.2,0.3,0.4,0.2,0.6c-0.7,0.8-0.6,1.8-1.1,2.5c-0.1,0.1-0.1,0.1-0.1,0.2c-0.2,0.3-0.6,0.5-0.8,0.8
		c0.4-0.1,0.6-0.4,1-0.4c0.9,0.1,0.6-0.7,0.8-1.1c0.1-0.2,0-0.6,0.4-0.6c0.4,0,0.4,0.3,0.4,0.6c0,0.6,0.4,0.8,0.9,0.8
		c0.6,0,1.2,0,1.3-0.8c0.2-0.9,0.6-1.8,1.4-2.3c0.3-0.2,0.5-0.7,1-0.5c0.6,0.2,0.2,0.8,0.4,1.1c-0.1,0.3-0.2,0.7-0.5,0.9
		c0.1,0.5-0.9,0.9-0.5,1.3c0.6,0.6,1.2-0.1,1.7-0.4c0.6-0.3,1.1-0.7,1.5-1.3c0.5-0.9,1-0.8,1.5,0c0.1,0.1,0.3,0.1,0.4,0.2
		C753.1,49.9,753.4,49.9,753.7,50.3z"/>
	<path class="st5" d="M695.8,167.3c-0.2,0.7-0.5,1.4-0.7,2.1c-0.8,0-1.1,0.6-1.3,1.2c-0.8,2.2-1.8,4.3-1.8,6.8
		c0,0.5-0.3,0.5-0.6,0.5c-0.8-0.2-1.4,0.2-2.1,0.4c-0.5-0.2-0.7-0.7-0.7-1.2c-0.7,0.2-0.6,0.8-0.8,1.1c-0.4,0.5-0.6,1-1.3,1.3
		c-0.5,0.2-0.8,1.1-0.5,1.8c0.4,0.8,0.8,1.6,0.7,2.6c0,0.3-0.1,0.7-0.6,0.5c-0.5-0.2-1-0.3-1.4,0.3c-0.5,0.5-0.7-0.3-0.7-0.4
		c-0.1-0.7,0-1.5-0.4-2.2c-0.1-0.3,0-1,0.6-1.1c0.9-0.3,1-1.2,0.8-1.7c-0.5-1.5,0.3-2.9-0.1-4.3l0,0c-0.1-0.5-0.3-1,0-1.6
		c0.5-0.2,0.9-0.3,0.6-1.1c-0.1-0.4-0.3-0.7-0.4-1.1c0.4-1.2,0.4-2.6,1.2-3.4c0.7-0.8,1.2-1.7,1.7-2.5c0.4-0.1,0.4-0.4,0.3-0.7
		c0.5-1.2,0-2.4,0-3.6c0.3-0.2,0.4-0.4-0.1-0.6c0.4-1.9,0.4-3.8,0.5-5.6c0.1-1.4,0.4-2.8,0.6-4.2c0.2-1.1-0.1-2.1-0.1-3.2
		c-0.1-2.3,0.1-4.6,0.3-6.8c0-0.5,0.2-0.9-0.1-1.4c-0.1-0.2-0.2-0.7,0.3-0.8c0.4-0.1,0.5,0.3,0.6,0.5c0.5,2.5,2.5,2.9,4.5,3
		c0.7,0.1,1.8-0.2,1.8-1.2c0.1-1.6,1.6-2.1,2.3-3.2c0.3-0.6,0.8-1.1,1.1-1.7c0.4-0.9,1.2-1.7,1.6-2.6c0.7-1.8,0.6-3.5-0.4-5.1
		c-0.5-0.8-0.3-1.4-0.2-2.2c0.4-1.7,0.3-1.9-1.3-2.6c-0.3-0.1-0.5-0.2-0.4-0.5c0.6-1.4,0.3-3.2,1.5-4.4c0.7-0.1,0.5,0.4,0.6,0.7
		c-0.4,1.8,0,3,1.8,3.4c0.2,0.1,0.4,0.1,0.6,0.2c0.3,0.3-0.3,1.2,0.6,0.9c0.6-0.2,1.3-0.6,1.6-1.3c0.6-1.4,1.6-2.6,2.8-3.9
		c0.5,1.1,0.6,2.2,0.4,3.2c-0.3,1.6-0.3,3.2-1.9,4.3c-0.7,0.5-1,1.7-1.1,2.6c-0.1,1.6-0.6,3-1.4,4.3c-0.4,0.7-1.1,1.1-1.4,2
		c-0.4,1.6-0.2,3,0.3,4.4c0.2,0.6,0,1.4-0.4,1.6c-1.1,0.4-1.3,1.4-1.5,2.2c-0.3,1.3-1.3,2.1-1.7,3.2c-0.7,1.9-1.2,3.9-1.9,5.8
		c-0.3,0.7,0.4,1.2,0.2,1.9c-0.3,1-0.7,2-1.4,2.7c-1.1,1.1-1.3,2.4-1,4c0.2,1,0.3,1.9,0.8,2.8c0.1,0.3,0.1,0.5-0.2,0.7
		c-0.1,0.2-0.2,0.4-0.1,0.4C696.9,165.3,696,166.3,695.8,167.3z"/>
	<path class="st5" d="M712.4,114.6c-0.3,1.1-1.4,0.9-2.2,1.2c-0.6,0.3-0.7-1-1.1-1.6c-1.3-2.1-1.4-4.7-2.6-6.8
		c-1.2-2-2.4-3.8-4.5-4.8c-0.3-0.1-0.7-0.2-0.7-0.6c0.1-1-0.7-1-1.3-1.4c-0.2-0.4-0.6-0.5-0.9-0.3c-1.3,0.4-2.4,1.2-3.8,1.8
		c0.1-1,0.6-1.6,1.3-2.1c0.9-0.7,1.4-2,0.9-3c0-0.1-0.2-0.1-0.2-0.1c0.7-2.1-0.8-2.1-2.1-2.2c0,0-0.1-0.1-0.2-0.3
		c0.7-0.1,1.4-0.4,1.9-0.8c0.4-0.2,0.8,0,1.1-0.1c0.3,0.1,0.7,0.3,0.8,0.1c1.4-1.1,2.9-0.6,4,0.1c1.4,0.9,2.6,0.3,3.6-0.3
		c1.6-0.8,3.2-1.8,3.7-3.8c0.2-0.8,0.9-0.8,1.5-0.2c1,1.1,2.1,2.1,3.1,3.2c0.6,0.7,1.2,1.3,1.6,2.2c0.3,0.7,2.4,1.4,2.9,0.9
		c0.5-0.5,1.3-0.3,1.8-0.9c0.4-0.4,1,0,0.9,0.5c-0.1,0.6,0.4,0.9,0.5,1.3c0.2,0.7,1.3,0.7,1.7,0.2c1.4-1.5,1.4-1.6-0.6-2.4
		c-0.6-0.3-0.5-0.8-0.7-1.2c-0.4-0.7-1.1-1.2-1.2-1.9c-0.1-0.3-0.1-0.5,0.3-0.7c0.6-0.2,1.1,0,1.6,0.4c1,0.7,1.8,0.5,2.4-0.6
		c0.4-0.7,1.2-0.4,1.8-0.7c0.4-0.2,0.5,0.7,0.7,1.1c0.1,0.4,0,0.7-0.3,0.9c-0.1,0.1-0.1,0.2-0.2,0.3c-1.4,1.8-1.4,2.2-0.1,3.9
		c0.3,0.4,0.3,0.8,0,0.9c-0.9,0.2-0.9,1-1.1,1.6c-0.4,1.1-1.5,0.7-2.3,1c-1.4,0.5-1.9,0.8-1.6,2.2c0.1,0.7-0.3,1-0.7,1.2
		c-0.6,0.3-0.8-0.2-0.9-0.7c-0.6-1.2-2.9-2-3.7-1.2c-0.3,0.3-0.5,0.6-0.4,1.1c0.4,1.5-0.1,2.4-1.6,2.7c-0.8,0.1-0.9,0.8-1.1,1.3
		c-0.3,0.9-0.6,1.8-1.4,2.6c-0.6,0.5-1,1.7-0.6,2.8c0.2,0.6,0.1,1.4,0.1,2.1C712.9,114,712.8,114.4,712.4,114.6z"/>
	<path class="st5" d="M863.9,11.4c-0.4,0.8-0.9,1.6-1.1,2.5c-0.2,1.1-1.3,1.5-2,2.2c-1.3,1.3-2.9,2.3-4.2,3.6
		c-1.1,1.2-2.5,1-3.6,1.5c-0.4,0.2-1,0.2-1-0.3c0-0.7-0.6-0.8-0.9-1.1c-0.4-0.5-0.9-0.9,0.2-1.2c0.4-0.1,0.7-0.6,0.7-1
		c0-0.7,0.2-1.2,0.6-1.7c1.6-1.7,2.6-3.9,3.8-5.8c0.8-1.1,1.8-2.2,3.1-2.8c0.9-0.4,1.2-1.4,1.4-2.3c0.1-0.4,0.2-0.9,0.8-1
		c0.8-0.2,1.1,0.1,0.8,0.8c-0.3,0.8-0.3,1.4,0.3,2c0.9,1,0.7,2.3,0.9,3.4c0.1,0.2,0.2,0.4,0.3,0.7C864.2,11,864.1,11.2,863.9,11.4z"
		/>
	<path class="st5" d="M928.7,7.4c-0.2,2-2.1,1.7-3.3,2.3c-0.1,0-0.1,0-0.1,0c-0.8,0.7-1.9,0.8-2.9,1c-0.4,0.1-0.7,0.2-1-0.1
		c-0.8-0.6-1.8-0.6-2.7-0.6c-0.4,0-0.8,0.2-1.1-0.3c-0.1-0.1-0.4-0.2-0.6-0.2c-1.6,1.4-1-1.3-2-1.1c0.1-0.9,0.2-1.7,0.8-2.3
		c0.3-0.3,0.8-0.3,1.3-0.6c0.9-0.5,1.3-1.2,1.6-2.1c0.3-0.9,0.8-1.4,1.7-1.3c0.5,0.1,1-0.3,1.1-0.4c0.7-1.2,2.3,0.1,3-1.1
		c0,0,0.4,0,0.5,0.1c1.3,0.9,2.7,1.5,3.8,2.6c0.9,0.8,0.3,1.8,0.3,2.7C929,6.7,928.8,7,928.7,7.4z"/>
	<path class="st5" d="M779.2,55.6c-0.8,0.2-1.6,0.5-2.4,0.1c-0.1-0.2-0.1-0.4,0-0.5c0.1-0.2,0.3-0.3,0.4-0.4c0.2-0.3,1-0.5,0.5-0.9
		c-0.4-0.4-1.2-0.6-1.7,0.1c-0.4,0.6-0.8,1.1-1.5,1c-0.9-0.2-2,0.1-2.8-0.6c-1.1-1.3-1.3-1.3-2.6-0.2c-0.4,0.3-0.8,0.5-1.3,0.5
		c-0.3-0.2-0.5-0.3-0.8-0.5c0.8-0.5,1-1.5,1.8-2c0.3,0.3,0.9-0.5,1.2,0.3c0.6-0.3,0.8-0.9,0.6-1.2c-0.9-1.4,0.6-1.6,1.1-1.7
		c1.1-0.3,1.9-0.8,2.3-1.8c0.2-0.5,0.6-0.4,0.7-0.1c0.4,2.3,2,2.3,3.7,1.8c0.3-0.1,0.4-0.4,0.6-0.5c0.2-0.5,0.4-0.9,1-1
		c0.5-0.1,0.7-0.4,0.8-0.8c0.2-0.4,0.4-0.8,0.9-0.5c0.4,0.3,1.4-0.2,1,0.9c1.5,1,0,2.7,0.7,3.8c0.1,0.2,0.6,0.1,0.4,0.5
		c-0.9-0.1-1.5,0.6-2.4,0.7c-0.7,0.1-0.6,1.1-0.9,1.6c-0.4,0.2-0.7,0.4-1.1,0.5C778.6,55,778.8,55.3,779.2,55.6z"/>
	<path class="st8" d="M679.7,105.4c-0.1-0.3,0.4-0.8-0.1-1c-0.4-0.2-0.8-0.5-1.5-0.1c-0.7,0.4-1.3,1-2.1,1.2c-0.3,0-0.6,0.3-0.8,0.1
		c-0.3-0.4-0.2-0.8,0-1.2c0.1-0.3,0.2-0.6,0.6-0.6c1.6,0.1,3.1-0.2,4.5-1c0.1,0,0.2-0.1,0.2-0.1c1.4,0.4,2.4-0.6,3.5-1
		c1.1-0.5,2.1-1.3,3.5-1.5c0.2,0.1,0.1,0.4-0.1,0.5c-1.2,0.7-1.5,2.4-3.2,2.3c-0.2,0-0.4,0-0.5,0.3c-0.4,1-1.4,1.1-2.1,1.3
		c-0.7,0.3-0.7,0.7-1,1.2C680.2,105.9,679.9,105.8,679.7,105.4z"/>
	<path class="st8" d="M632.1,129.1c0.1,0.5-0.4,0.9-0.2,1.4c0.1,0.3-0.2,0.6-0.4,0.5c-0.9-0.4-1.5,0.5-2.3,0.3
		c-0.7-0.2-0.8,0.6-1.1,1c-0.6,0.9-1.2,1.4-2.4,1c-0.3-0.1-0.6-0.1-0.8,0.1c-0.4,0.4-0.8,0.3-1,0c-0.3-0.3,0-0.7,0.2-1
		c0.2-0.4,0.4-0.9,1-0.6c0.6,0.4,0.7,0,1.2-0.4c1.1-0.8,1.5-2.6,3.4-2.2c0.8,0.2,1.1-0.7,1.8-0.9C631.7,128.7,632,128.8,632.1,129.1
		z"/>
	<path class="st9" d="M696.6,97.8c0.1,1.2-1,1.1-1.6,1.5c-1.1,0.7-2.3,1.3-3.1,2.3c-0.5,0.6-0.8,0.8-1.4,0.2
		c-0.1-0.1-0.1-0.1-0.2-0.2c-0.3-0.4-1.3-0.1-1.1-0.9c0.2-0.6,1.1-0.6,1.5-0.6c1.2,0,2.2-0.3,2.9-1.4c0.4-0.6,1-0.2,1.3-0.7
		C695.4,97.4,695.9,97.1,696.6,97.8z"/>
	<path class="st10" d="M672.1,104.8c-1.6,1.5-3.7,2.2-5.7,3.1c-0.4,0.2-0.9,0.2-1-0.3c-0.1-0.5,0.3-0.6,0.6-0.8
		c1.3-0.9,2.7-1.5,4.1-2C671.1,104.4,671.1,104.3,672.1,104.8z"/>
	<path class="st11" d="M813.5,59.3c0.5,0.2,0.8,0.2,1.1,0.4c0.4,0.3,1,0.6-0.1,1.1c-1.1,0.6-1.9,0.3-2.9,0.2
		c-0.5-0.1-1.2-0.1-1.1-0.9c0.1-0.8,0.7-1.1,1.4-1.1C812.5,59.1,813.1,59.1,813.5,59.3z"/>
	<path class="st12" d="M815.8,19.4c-0.4-0.4-0.2-1,0.1-1c0.5-0.1,0.8-0.7,1.2-0.7c1,0,1.7-0.6,2.1-1.5c0.2-0.5,0.5-0.5,0.8-0.3
		c0.6,0.3,0.2,0.6,0,0.9c-0.3,1-1.8,1.1-1.8,2.3c0,0-0.2,0.1-0.3,0.1c-0.7-0.4-1.4-0.5-1.9,0.2C816,19.4,815.9,19.4,815.8,19.4z"/>
	<path class="st13" d="M725.4,87.7c0.1-0.6,0.2-1.2-0.8-0.8c-0.5,0.2-1.3,0.2-1.7-0.1c-0.3-0.2,0.1-0.9,0.3-1.2
		c0.3-0.3,0.9-0.6,1.2-0.2c0.8,1.1,1.1,0.3,1.6-0.3c-0.4,0.8,0.3,1.7-0.2,2.5C725.8,87.7,725.6,87.7,725.4,87.7z"/>
	<path class="st14" d="M744.4,71.1c-0.3,0.8-1,0.8-1.7,1.2c-0.1-0.7,0.8-1.4-0.1-2.1c0.4-0.3,0.8-0.8,1.3-1c0.2-0.1,0.8-0.1,0.9,0.1
		c0.3,0.3-0.3,0.7-0.2,1.1C744.7,70.6,744.6,70.9,744.4,71.1z"/>
	<path class="st15" d="M779.3,54.6c0.3-0.3,0.6-0.8,1.2-0.4c0.8,0.4,1.3-1,2.2-0.4c-0.1,0.2-0.7,0.2-0.5,0.4c0.7,0.8,0,1.3-0.3,2
		c-0.2-0.8-0.6-1.1-1.4-1c-0.4,0.1-0.9,0-1.3-0.4c-0.1-0.1,0-0.1,0-0.2C779.2,54.7,779.3,54.6,779.3,54.6z"/>
	<path class="st16" d="M808.9,25.8c-0.3,0.3-0.6,0.7-1.1,0.6c-0.5,0-1,0-1.5,0.2c-0.2,0.1-0.4,0.3-0.6-0.1c-0.1-0.3-0.1-0.5,0.2-0.6
		c0.8-0.2,1.4-0.6,2-1.1c0.3-0.2,0.6-0.2,0.9-0.1C809.2,25,808.5,25.4,808.9,25.8z"/>
	<path class="st17" d="M768.7,52.1c-0.4,0.8-0.6,1.9-1.8,2c-0.4,0.1-0.9,0.4-1.1,0c-0.3-0.5,0.3-1.1,0.6-1.1
		c1.4-0.1,1.4-1.2,1.7-2.1c0.1-0.2,0.2-0.3,0.4-0.4C768.5,51,767.5,51.8,768.7,52.1z"/>
	<path class="st18" d="M636.8,123.8c0.6,0.1,0.6,0.6,0.2,0.9c-0.5,0.5-1,1-1.4,1.6c-0.2,0.3-0.4,0.2-0.7,0.1
		c-0.3-0.2-0.3-0.5-0.1-0.6c0.4-0.5,0.6-1.1,0.8-1.7C635.9,123.5,636.3,123.7,636.8,123.8z"/>
	<path class="st19" d="M797.8,61.2c-0.6,0.5-0.7,1.3-1,1.9c-0.3,0.6-0.7,0.8-1.3,0.5c-0.1-0.3-0.1-0.5,0.1-0.7
		c0.6-0.8,0.9-1.8,1.8-2.3c0.2-0.1,0.3-0.1,0.5-0.1C798.1,60.8,798.1,61,797.8,61.2z"/>
	<path class="st20" d="M657.9,109.8c-0.2,0.7-1,0.6-1.5,0.8c-0.7,0.2-1.2,0.4-1.6,1c-0.2,0.4-0.6,0.4-0.8,0.1
		c-0.3-0.3,0-0.5,0.3-0.7c0.9-0.5,1.6-1.4,2.8-1.4C657.4,109.5,657.6,109.6,657.9,109.8z"/>
	<path class="st21" d="M794,49.9c0.4-0.2,0.7-0.8,1.3-0.6c-0.1,0.2-0.1,0.3-0.1,0.4c-0.6,0.4-0.7,1-0.5,1.7c0.1,0.1,0.1,0.2,0.1,0.3
		c0.1,0.3,0.6,0.6,0.2,1.1c-0.1,0.1-0.3,0.2-0.4,0.1c-0.3-0.2-0.6-0.4-0.6-0.9c0-0.4-0.1-0.9-0.1-1.3
		C793.8,50.3,793.9,50.1,794,49.9z"/>
	<path class="st22" d="M796.9,40.7c-0.4-0.2-1-0.3-1.2,0.1c-0.3,0.3,0.3,0.6,0.4,0.9c0.1,0.4,0.5,0.7,0,1.1
		c-0.4,0.1-0.8,0.2-0.9-0.4c-0.1-0.7,0-1.4,0.5-2c0.3-0.3,0.4-0.5,0.1-0.8C796.8,39.2,796.2,40.5,796.9,40.7z"/>
	<path class="st19" d="M797.2,35.6c0.2-0.6,0.7-0.5,1.1-0.4c0.6,0.1,1.1,0.5,0.9,1.1c-0.1,0.4-0.7,0.5-1.1,0.3
		C797.7,36.4,797.1,36.2,797.2,35.6z"/>
	<path class="st23" d="M794.6,36.9c0-0.7,0.8-0.9,1.2-1.4c0.1-0.2,0.3-0.2,0.4,0c0.1,0.1,0.1,0.3,0,0.4c-0.4,0.6-0.8,1.1-1.1,1.8
		c-0.1,0.3-0.4,0.2-0.6,0.1C794.2,37.6,794.5,37.3,794.6,36.9z"/>
	<path class="st24" d="M688.8,95.9c0.3-0.4,0.9-0.3,1.4-0.3c0.3,0,0.5,0.3,0.4,0.6c-0.3,0.8-1,0.3-1.5,0.4
		C688.7,96.7,688.7,96.3,688.8,95.9z"/>
	<path class="st25" d="M811.2,23.8c-0.2,0.2,0,0.8-0.6,0.5c-0.4-0.2-0.4-0.7-0.3-1.1c0.1-0.3,0.2-0.7,0.7-0.5
		C811.5,23,811.4,23.4,811.2,23.8z"/>
	<path class="st26" d="M628,134.7c0.1-0.4,0.3-0.5,0.7-0.4c0.6,0.1,0.4,0.6,0.4,0.9c0,0.3-0.3,0.7-0.6,0.6
		C628.1,135.5,628,135.1,628,134.7z"/>
	<path class="st27" d="M800.2,53.4c0.6,0.3,0.6-0.5,0.9-0.5c0.3-0.1,0.6-0.1,0.9,0c0,0.1,0.1,0.1,0.1,0.1c-0.3,0.8-1.3,0.9-1.7,1.5
		C800.3,54.1,800,53.8,800.2,53.4z"/>
	<path class="st28" d="M772.5,67.2c0.2-0.5,0.4-0.7,0.8-0.6c0.4,0.1,0.4,0.4,0.4,0.7c-0.1,0.5-0.4,0.6-0.8,0.5
		C772.5,67.7,772.5,67.3,772.5,67.2z"/>
	<path class="st16" d="M713.8,114.4c0.2-0.3,0.3-0.5,0.7-0.4c0.4,0.1,0.6,0.4,0.4,0.8c-0.1,0.3-0.3,0.5-0.6,0.4
		C713.9,115.1,713.9,114.7,713.8,114.4z"/>
	<path class="st29" d="M834.1,12.7c0-0.4-0.6-0.9,0.1-1.1c0.8-0.2,0.6,0.6,0.8,1C834.8,12.9,834.5,13.2,834.1,12.7z"/>
	<path class="st30" d="M840,12.3c0-0.6,0.3-0.8,0.9-0.7c0.3,0.1,0.4,0.3,0.4,0.5c-0.2,0.6-0.6,0.6-1.1,0.4
		C840,12.5,840,12.4,840,12.3z"/>
	<path class="st31" d="M843.6,12.4c-0.5,0-0.9,0.9-1.4,0.2c-0.2-0.2-0.2-0.7,0.1-0.8C842.9,11.5,843.1,12.1,843.6,12.4z"/>
	<path class="st32" d="M741.6,51.5c0.3-1,0.6-2.1,1-3.1c0.3,0.1,0.8,0.4,0.5,0.6C742.2,49.7,742.4,50.9,741.6,51.5z"/>
	<path class="st32" d="M741.7,52.1c-0.3,0.5-0.8,0.7-1.2,1c-0.3-1-0.2-1.1,1-1.4C741.6,51.8,741.7,52,741.7,52.1z"/>
	<path class="st33" d="M729.3,96.1c0.2-0.4,0.5-0.7,0.9-0.6c0.4,0.1,0.2,0.5,0.1,0.7c-0.1,0.5-0.4,0.4-0.7,0.3
		C729.4,96.5,729.2,96.4,729.3,96.1z"/>
	<path class="st5" d="M803.1,53.2c-0.3-0.1-0.7,0-1-0.3l0,0c-0.1-0.4,0-0.7,0.3-1c0.3,0.1,0.7,0,1,0.3
		C803.5,52.7,803.5,53,803.1,53.2z"/>
	<path class="st34" d="M795.9,58.1c-0.3-0.1-0.5-0.3-0.4-0.7c0.1-0.4,0.4-0.4,0.7-0.3c0.3,0.1,0.4,0.3,0.3,0.6
		C796.5,58,796.3,58.2,795.9,58.1z"/>
	<path class="st35" d="M783.2,78.4c0.3,0.1,0.4,0.3,0.3,0.6c-0.1,0.3-0.4,0.3-0.7,0.2c-0.2-0.1-0.3-0.3-0.2-0.5
		C782.6,78.4,782.9,78.4,783.2,78.4z"/>
	<path class="st36" d="M637.7,122.8c0.1-0.2,0.1-0.5,0.5-0.2c0.2,0.1,0.5,0.1,0.4,0.5c-0.1,0.4-0.4,0.4-0.7,0.3
		C637.6,123.3,637.6,123.1,637.7,122.8z"/>
	<path class="st37" d="M641,121.5c-0.1,0.3-0.1,0.7-0.6,0.5c-0.2-0.1-0.3-0.2-0.3-0.5c0.1-0.6,0.5-0.5,0.9-0.4
		C641.2,121.3,641.2,121.4,641,121.5z"/>
	<path class="st30" d="M646.5,116.9c0.1-0.3,0.3-0.3,0.6-0.3c0.3,0.1,0.4,0.3,0.3,0.5c-0.1,0.3-0.3,0.3-0.5,0.2
		C646.7,117.3,646.5,117.2,646.5,116.9z"/>
	<path class="st38" d="M648.8,114.3c0.6,0.2,0.5,0.4,0.4,0.6c-0.1,0.3-0.3,0.3-0.6,0.3s-0.3-0.2-0.3-0.4
		C648.6,114.4,648.8,114.3,648.8,114.3z"/>
	<path class="st39" d="M774.7,67c-0.4-0.1-0.8-0.2-0.7-0.6c0.2-0.5,0.6-0.3,1-0.1C775,66.6,775,66.8,774.7,67z"/>
	<path class="st40" d="M715.2,115.5c0.1,0.6,0.2,1.1-0.3,1.4c-0.1,0-0.3-0.1-0.3-0.1C714.5,116.2,714.8,115.9,715.2,115.5z"/>
	<path class="st41" d="M784.1,54.3c-0.5-0.1-0.9-0.3-1.4-0.4C783.1,53.2,783.1,53.2,784.1,54.3z"/>
	<path class="st42" d="M636.5,128.7c-0.3-0.1-0.3-0.4-0.2-0.6c0.1-0.3,0.3-0.4,0.6-0.2c0.2,0.1,0.2,0.3,0.1,0.6
		C637,128.6,636.8,128.8,636.5,128.7z"/>
	<path class="st21" d="M696.6,97.8c-0.6-0.6-1.1,0-1.6,0.3C695.5,96.9,695.7,96.9,696.6,97.8z"/>
	<path class="st43" d="M652.4,113.1c-0.3-0.1-0.4-0.3-0.3-0.6c0.1-0.3,0.3-0.2,0.4-0.2c0.4,0,0.3,0.3,0.2,0.5
		C652.8,113,652.6,113.2,652.4,113.1z"/>
	<path class="st44" d="M903.3,14.6c0.3,0.2,0.7,0.1,0.9,0.4c-0.3,0.6-0.7,0.1-1,0.1c-0.3-0.1-0.4-0.2-0.5-0.5
		C903,14.3,903.1,14.3,903.3,14.6z"/>
	<path class="st22" d="M802.4,52c-0.1,0.3-0.2,0.6-0.3,1c-0.4,0.1-0.7,0.1-1-0.1C801.6,52.6,802,52.3,802.4,52z"/>
	<path class="st43" d="M902.8,14.6c0.2,0.1,0.4,0.2,0.4,0.5c0,0.4-0.3,0.4-0.6,0.3c-0.5-0.2-0.1-0.5-0.1-0.8
		C902.6,14.5,902.7,14.5,902.8,14.6z"/>
	<path class="st45" d="M799.6,45c0.1-0.2,0.3-0.3,0.5-0.3c0.2,0.1,0.3,0.3,0.3,0.5c-0.1,0.2-0.3,0.3-0.5,0.3
		C799.7,45.4,799.6,45.2,799.6,45z"/>
	<path class="st46" d="M744.7,48c0.1-0.2,0.3-0.1,0.5-0.1c0.3,0.1,0.3,0.3,0.3,0.6c-0.1,0.2-0.3,0.3-0.5,0.2
		C744.6,48.6,744.7,48.3,744.7,48z"/>
	<path class="st47" d="M758.2,53.8c-0.7,0.1-0.7,0.1-0.4-0.9C758.3,53,758.1,53.5,758.2,53.8z"/>
	<path class="st48" d="M812.8,21.8c0.1-0.3,0.4-0.2,0.6-0.3c0.3,0,0.2,0.2,0.2,0.4c-0.1,0.3-0.3,0.4-0.5,0.4
		C812.8,22.2,812.8,22,812.8,21.8z"/>
	<path class="st38" d="M798.5,45.6c0.1-0.3,0.3-0.3,0.5-0.3c0.2,0.1,0.3,0.1,0.3,0.3c-0.1,0.2-0.2,0.4-0.4,0.3
		C798.6,46,798.5,45.9,798.5,45.6z"/>
	<path class="st7" d="M811.3,64.6c-0.2,0.2-0.5,0.4-0.7,0.6c-0.2-0.2-0.4-0.4-0.2-0.6C810.6,64.2,811,64.5,811.3,64.6z"/>
	<path class="st49" d="M712.4,114.6c0.1-0.3,0.2-0.6,0.3-0.9C713.3,114.2,713.2,114.5,712.4,114.6z"/>
	<path class="st50" d="M693,95c0.1-0.2,0.1-0.4,0.4-0.3s0.3,0.3,0.2,0.4c-0.1,0.2-0.2,0.5-0.5,0.4C692.9,95.5,693,95.2,693,95z"/>
	<path class="st21" d="M834.1,12.7c0.3,0.2,0.7,0.1,0.9,0c-0.2,0.3-0.3,0.7-0.8,0.6C834,13.3,834,13,834.1,12.7z"/>
	<path class="st51" d="M821.2,17.3c0.3-0.2,0.4-0.5,0.8-0.3c0,0,0.1,0.2,0,0.3C821.8,17.6,821.5,17.5,821.2,17.3z"/>
	<path class="st52" d="M800.2,53.4c0.1,0.4,0.4,0.6,0.3,1.1C800.1,54.2,799.5,54,800.2,53.4z"/>
	<path class="st53" d="M748.1,50.1c0.1-0.3,0-0.8,0.5-0.9C748.8,49.8,748.7,50.1,748.1,50.1z"/>
	<path class="st54" d="M728.4,91.8c0.1-0.3,0.2-0.6,0.3-0.9C729.3,91.4,728.9,91.6,728.4,91.8z"/>
	<path class="st55" d="M753.7,50.3c-0.3-0.1-0.6-0.2-1-0.3C753.1,49.8,753.6,49.3,753.7,50.3z"/>
	<path class="st56" d="M857.7,2.9c0.1-0.2,0.2-0.3,0.4-0.2c0.1,0.1,0.2,0.3,0.2,0.4c0,0.2-0.2,0.2-0.4,0.1
		C857.7,3.2,857.7,3.1,857.7,2.9z"/>
	<path class="st57" d="M738.2,71.7c0.1,0,0.3-0.1,0.3-0.1c0.2,0.1,0.3,0.2,0.2,0.3c0,0.1-0.2,0.1-0.3,0
		C738.4,72,738.3,71.9,738.2,71.7z"/>
	<path class="st47" d="M744.4,71.1c0.1-0.2,0.1-0.5,0.2-0.7c0.2,0.1,0.4,0.2,0.4,0.4C744.9,71.1,744.6,71.1,744.4,71.1z"/>
	<path class="st58" d="M779,48.8c-0.1,0.4,0,0.8-0.6,0.5C778.4,49.1,778.5,48.8,779,48.8z"/>
	<path class="st59" d="M795.7,62.8c0,0.3-0.1,0.5-0.1,0.7c-0.2-0.1-0.4-0.2-0.3-0.5C795.2,62.8,795.4,62.8,795.7,62.8z"/>
	<path class="st60" d="M762.6,48.4c-0.2,0.3-0.1,0.8-0.7,0.6C761.9,48.7,762,48.3,762.6,48.4z"/>
	<path class="st61" d="M818.5,66.5c0.1-0.1,0.2-0.2,0.3-0.2c0.2,0,0.2,0.2,0.1,0.4c0,0.1-0.2,0.2-0.3,0.1
		C818.6,66.7,818.5,66.6,818.5,66.5z"/>
	<path class="st62" d="M804.2,25.1c0.1-0.3,0.3-0.2,0.4-0.2c0.1,0,0.2,0.1,0.2,0.2c0,0.1-0.1,0.3-0.3,0.2
		C804.4,25.3,804.3,25.2,804.2,25.1z"/>
	<path class="st63" d="M745.5,43.9c0.1-0.2,0.2-0.4,0.4-0.2c0.1,0.1,0.1,0.2,0.1,0.3c-0.1,0.2-0.2,0.3-0.3,0.3
		C745.5,44.2,745.5,44,745.5,43.9z"/>
	<path class="st24" d="M809.8,64.9c-0.2-0.1-0.4-0.1-0.7-0.2c0.1-0.3,0.2-0.4,0.5-0.3C810,64.5,809.9,64.7,809.8,64.9z"/>
	<path class="st64" d="M760.7,59.5c0.1-0.6,0.5-0.4,0.8-0.3C761.4,59.7,761.1,59.6,760.7,59.5z"/>
	<path class="st65" d="M863.9,11.4c0.1-0.2,0.1-0.5,0.2-0.7c0.2,0.1,0.4,0.2,0.3,0.5C864.3,11.5,864.1,11.4,863.9,11.4z"/>
	<path class="st66" d="M641,121.5c0-0.1,0-0.3,0.1-0.4c0.1-0.2,0.2-0.3,0.3-0.5c0.1,0.1,0.2,0.1,0.2,0.2
		C641.6,121.3,641.3,121.4,641,121.5z"/>
	<path class="st67" d="M662.7,108.8c0.2,0.1,0.3,0.2,0.2,0.4c0,0.2-0.1,0.3-0.3,0.3c-0.2,0-0.3-0.1-0.3-0.3
		C662.5,109,662.6,108.9,662.7,108.8z"/>
	<path class="st68" d="M712.2,122c0,0.1,0.1,0.3,0.1,0.4c-0.1,0.2-0.1,0.3-0.3,0.2c-0.1,0-0.1-0.2,0-0.3
		C711.9,122.2,712,122.2,712.2,122z"/>
	<path class="st69" d="M732.5,60.6c-0.1,0.4-0.1,0.7-0.7,0.6C731.9,60.8,732,60.5,732.5,60.6z"/>
	<path class="st70" d="M746.1,65.6c0.1-0.6,0.5-0.4,0.8-0.2C746.7,65.8,746.4,65.8,746.1,65.6z"/>
	<path class="st71" d="M722.2,90.6c-0.1,0.2-0.2,0.5-0.3,0.7c-0.2-0.1-0.4-0.2-0.3-0.4C721.7,90.6,722,90.6,722.2,90.6z"/>
	<path class="st47" d="M722.4,74.1c-0.1,0.2-0.1,0.5-0.2,0.7c-0.2-0.1-0.4-0.2-0.3-0.4C721.9,74.1,722.1,74,722.4,74.1z"/>
	<path class="st72" d="M803.7,32.9c0.1,0.1,0.2,0.2,0.3,0.3c-0.1,0.1-0.2,0.2-0.3,0.2c-0.1,0-0.1-0.1-0.2-0.2
		C803.5,33,803.6,33,803.7,32.9z"/>
	<path class="st73" d="M746.2,37.9c-0.2-0.1-0.3-0.1-0.3-0.3c0.1-0.2,0.2-0.2,0.4-0.1c0.1,0.1,0.2,0.3,0.2,0.4
		C746.5,38,746.3,37.9,746.2,37.9z"/>
	<path class="st74" d="M783.8,51.8c-0.1-0.2-0.2-0.4-0.4-0.5c0.2,0.1,0.6-0.2,0.7,0.2C784.2,51.8,784,51.9,783.8,51.8z"/>
	<path class="st75" d="M774.7,67c0.1-0.2,0.2-0.5,0.3-0.7c0.2,0.1,0.4,0.2,0.3,0.4C775.2,66.9,774.9,66.9,774.7,67z"/>
	<path class="st76" d="M840,12.3c0.1,0.1,0.1,0.2,0.1,0.3c-0.1,0.1-0.2,0.6-0.5,0.3C839.4,12.6,839.9,12.4,840,12.3z"/>
	<path class="st77" d="M608,148c-0.3-0.1-0.3-0.3-0.3-0.6c0.1-0.2,0.2-0.5,0.5-0.3c0.3,0.1,0.4,0.3,0.3,0.6
		C608.4,148,608.2,148.1,608,148z"/>
	<path class="st78" d="M767.7,54.6c0.5-0.6,1.4-0.9,1.9-1.6c0.5-0.6,1.8,0,2.1,1c0.1,0.1,0,0.2-0.1,0.3c-0.5,0.3-0.3,0.6-0.1,1
		c-0.1,0.5-0.4,0.8-0.9,0.5c-0.4,0.2-0.8-0.7-1.3-0.2C768.7,55.6,768.2,55.1,767.7,54.6z"/>
	<path class="st79" d="M774.6,54.8c0.6-0.1,1-0.4,1.1-1.1c0.1-0.5,0.5-0.8,1-0.5c0.6,0.4,1.6-0.3,1.8,0.6c0.2,0.9-1,1-1.5,1.5
		c-0.2,0.2-0.6,0.1-0.8,0.2c-0.6,0.2-1.2,0-1.8-0.2C774.4,55,774.4,54.9,774.6,54.8z"/>
	<path class="st80" d="M774.6,54.8c-0.1,0.2-0.1,0.3-0.1,0.5c-0.4-0.1-0.8-0.3-1.2-0.4c-0.3,0.3-0.7,0.3-1.1,0.2
		c-0.4-0.1-0.6-0.3-0.6-0.7c0-0.1,0.1-0.1,0.1-0.2C772.6,54.7,773.6,54.5,774.6,54.8z"/>
	<path class="st81" d="M771.6,54.3c0.2,0.2,0.4,0.3,0.6,0.5c0.1,0.2,0.1,0.3-0.1,0.4c-0.2,0-0.4,0.1-0.6,0.1
		c-0.3-0.2-0.9-0.1-0.8-0.7C770.8,54.2,771.2,54.3,771.6,54.3z"/>
	<path class="st82" d="M769.4,55.7c0.7-1.4,0.9-0.1,1.3,0.2C770.2,56.1,769.8,55.8,769.4,55.7z"/>
	<path class="st83" d="M796,47.9c-0.4,0.4-0.9,0.1-0.9-0.1c0-0.7,0.6-0.5,1.1-0.6C796.3,47.5,796.2,47.8,796,47.9z"/>
	<path class="st84" d="M779.3,54.6c0,0.1-0.1,0.2-0.1,0.2c0,0.2,0,0.5,0,0.7c-0.4,0-0.8-0.1-0.7-0.6C778.6,54.6,779,54.6,779.3,54.6
		z"/>
	<path class="st85" d="M772.1,55.3c0.1-0.2,0.1-0.3,0.1-0.4c0.3,0,0.7,0,1,0C773.1,55.6,772.6,55.5,772.1,55.3z"/>
	<path class="st86" d="M797,51.8c0.2,0.6,0.2,0.9-0.2,1.3c-0.1,0-0.2,0-0.2,0C796.4,52.6,796.6,52.2,797,51.8z"/>
	<path class="st87" d="M794,49.9c0.3,0.3,0.2,0.6-0.2,0.7c-0.2-0.1-0.5-0.1-0.4-0.5C793.5,49.8,793.7,49.8,794,49.9z"/>
	<path class="st37" d="M795.1,42.3c0.3,0.1,0.6,0.2,0.9,0.4C795.4,43.2,795.1,43.1,795.1,42.3z"/>
	<path class="st88" d="M776.2,55.5c0.2-0.4,0.5-0.4,0.8-0.2c-0.1,0.2-0.1,0.3-0.1,0.5C776.6,55.6,776.4,55.5,776.2,55.5z"/>
	<path class="st89" d="M796,47.9c0.1-0.2,0.1-0.5,0.2-0.8c0.3,0,0.5,0.1,0.4,0.5C796.4,47.9,796.2,48,796,47.9z"/>
	<path class="st60" d="M795.2,43.7c-0.4,0-0.7,0-0.6-0.4c0-0.1,0.1-0.2,0.2-0.3C794.9,43.2,795,43.4,795.2,43.7z"/>
	<path class="st90" d="M794.7,51.7c-0.1-0.1-0.2-0.2-0.1-0.3c0.2,0.1,0.6-0.3,0.6,0.1C795.3,51.8,794.9,51.6,794.7,51.7z"/>
</g>
</svg>
