<?xml version="1.0" encoding="utf-8"?>
<!-- Generator: Adobe Illustrator 27.0.1, SVG Export Plug-In . SVG Version: 6.00 Build 0)  -->
<svg version="1.1" id="レイヤー_1" xmlns="http://www.w3.org/2000/svg" xmlns:xlink="http://www.w3.org/1999/xlink" x="0px"
	 y="0px" width="600px" height="300px" viewBox="0 0 1000 500" style="enable-background:new 0 0 1000 500;" xml:space="preserve">
<style type="text/css">
	.st0{fill:#FDFDFD;}
	.st1{fill:#FEFEFE;}
	.st2{fill:#B91212;}
	.st3{fill:#C33434;}
	.st4{fill:#FEFDFD;}
	.st5{fill:#FDF9F9;}
	.st6{fill:#FDFBFB;}
	.st7{fill:#FDFCFC;}
	.st8{fill:#FCF8F8;}
	.st9{fill:#B91111;}
	.st10{fill:#FCF6F6;}
	.st11{fill:#BB1717;}
	.st12{fill:#F9ECEC;}
	.st13{fill:#B80F0F;}
	.st14{fill:#FDFAFA;}
	.st15{fill:#FAF1F1;}
	.st16{fill:#FAF2F2;}
	.st17{fill:#BC1B1B;}
	.st18{fill:#C02929;}
	.st19{fill:#F4DDDD;}
	.st20{fill:#FBF4F4;}
	.st21{fill:#F6E2E2;}
	.st22{fill:#F9EEEE;}
	.st23{fill:#F6E5E5;}
	.st24{fill:#F7E5E5;}
	.st25{fill:#EDC5C5;}
	.st26{fill:#F2D6D6;}
	.st27{fill:#FAF0F0;}
	.st28{fill:#BC1E1E;}
	.st29{fill:#F6E4E4;}
	.st30{fill:#F6E3E3;}
	.st31{fill:#E3A2A2;}
	.st32{fill:#F8EAEA;}
	.st33{fill:#F8EBEB;}
	.st34{fill:#F2D5D5;}
	.st35{fill:#ECC1C1;}
	.st36{fill:#FCF7F7;}
	.st37{fill:#BE2525;}
	.st38{fill:#EBBFBF;}
	.st39{fill:#F9EDED;}
	.st40{fill:#F5E0E0;}
	.st41{fill:#EABCBC;}
	.st42{fill:#EDC7C7;}
	.st43{fill:#CB5050;}
	.st44{fill:#F3D9D9;}
	.st45{fill:#C12D2D;}
	.st46{fill:#FAF3F3;}
	.st47{fill:#BA1515;}
	.st48{fill:#BD1E1E;}
	.st49{fill:#C64040;}
	.st50{fill:#C43939;}
	.st51{fill:#C53D3D;}
	.st52{fill:#C12F2F;}
	.st53{fill:#BC1D1D;}
	.st54{fill:#BF2424;}
	.st55{fill:#BF2828;}
	.st56{fill:#CC5555;}
	.st57{fill:#BF2727;}
	.st58{fill:#E9B6B6;}
	.st59{fill:#EEC6C6;}
	.st60{fill:#CA4C4C;}
	.st61{fill:#BA1616;}
	.st62{fill:#F3DADA;}
	.st63{fill:#F0D1D1;}
	.st64{fill:#BF2525;}
	.st65{fill:#E8B3B3;}
	.st66{fill:#C22F2F;}
	.st67{fill:#BE2222;}
	.st68{fill:#C12E2E;}
	.st69{fill:#F7E6E6;}
	.st70{fill:#D36C6C;}
	.st71{fill:#C84747;}
	.st72{fill:#CB5151;}
	.st73{fill:#BF2626;}
	.st74{fill:#B60505;}
	.st75{fill:#B60808;}
	.st76{fill:#D16666;}
	.st77{fill:#F5E1E1;}
	.st78{fill:#BB1919;}
	.st79{fill:#BD2020;}
	.st80{fill:#E09999;}
	.st81{fill:#E4A6A6;}
	.st82{fill:#C43737;}
	.st83{fill:#BB1616;}
	.st84{fill:#BD2121;}
	.st85{fill:#DA8383;}
	.st86{fill:#D16363;}
</style>
<g id="layer2">
	<path class="st0" d="M1021,14.6c56.1,17.4,112.1,34.8,168.3,52.2c1.4,1.7,0.7,3.4,0.8,5.2c0.1,2.8,1.2,5.5,1,8.3
		c-0.5,0.9-0.3,2.2-0.8,2.5c0.2-0.4,0.3-1.4,0.8-2.4c0.8-1.7,1.9-0.8,2.9-0.1c0.3,0.2,0.4,0.5,0.6,0.8c1.6,1.8,1.6,4.2,2.2,6.3
		c0.6,1.7-0.4,2.9-1.9,3.9c-1.2,0.7-3.6,1.7-0.2,2.9c0.8,0.2,0.7,1.6,0.7,2.5c0,0.8-0.2,1.7,0.5,2.3c0.6,0.6,1.2,0.5,1.8,0.3
		c0.9-0.2,1.8-0.2,2.6,0.4c0.3,0.3,0.6,0.8,0.7,1.2c0.2,1.1,0.9,1.9,1.6,2.8c2.8,7.3,5.6,14.7,6.6,22.5c0.2,1.6,0.3,3.3-0.3,4.7
		c-2,4.1-0.6,8.6-1.1,12.7c-0.1,0.7,0.4,1.4,0.8,1.9c0.4,0.5,0.4,1.8,1.7,0.9c0.9-0.9,1.9-1.6,3.4-1.4c0.8,0.1,1.4,0.6,1.8,1.3
		c-0.2-1.1-1.1-1.6-1.2-2.4c-0.2-4.1,1.8-5.6,5.7-4.1c1.2,0.5,1.9-0.4,2.8-0.4c0.4-0.2,0.8-0.5,1.2-0.8c3.1-1.1,6.2-0.2,8.7,1.2
		c1.7,0.9,2.9,1.3,4.7,1.2c0.8,0,1.6,0.2,2.3,0.7c3.6-0.2,7,0.1,10.6,0.2c0.8,0.2,1.6,0.4,2.1,1c0.3,0.2,0.7,0.6,0.7,0.6
		c2.1-1.5,3.5,0.2,5.2,0.8c0.7,0.2,1.3,0.4,1.9,0.6c1.6,0.6,2.9,1.5,2,3.6c-0.2,0.3-0.6,0.6-0.8,0.9c0.4,0.1,0.5-0.4,0.9-0.6
		c3.7-2.4,7.8-1.1,11.6-1.6c4.8-0.6,6.4-1.7,5.9-6.5c-0.2-2.7,0.8-4.1,2.8-5.6c3.2-2.4,6-5.1,9.8-6.6c1.3-0.6,2.7-1.2,4.3-1.1
		c10,0.5,19.2-1.9,26.8-8.8c2.3-2.2,5.3-3.5,8.1-5.2c2.4-1.6,4.8-0.6,7.2-0.6c32.6,10.2,65.2,20.2,97.8,30.4
		c1.8,0.6,2.3,1.1,1.7,3.1c-75.4,242.5-150.8,485.1-226.1,727.8c-1,3.2-2.4,1.9-3.9,1.4c-294-91.3-587.9-182.7-881.8-274
		c-0.5-1.1-0.1-2.5,0.8-2.5c3.7,0,5.6-4.2,9.5-3.8c0.2,0,0.2,0,0.4,0c4.1-2,8-4.5,11.8-7.2c1-0.8,2.5-0.5,3.2-1.8c0.8-1,2.1-1.4,3-2
		c1.1-0.8,2.3-1.5,2-3.2c-0.1-1.2,0.5-1.8,1.6-2.4c7.9-4.6,16-8.7,24.2-12.5c4-1.8,8.3-3.2,11.9-6.2c2.5-2.1,5.9-3.1,9.2-3.3
		c2.2-0.2,4-1.5,5.9-2.5c2.2-1.1,2-2.6,0.5-4c-1.6-1.5-3.2-2.7-4.5-4.6c-1-1.7-3.5-0.8-5-1.5c-1.8-0.5-3.5-1.5-5.4-1.1
		c-1.9-0.1-4.1-0.1-4.8-2.2c-0.9-2.9,1.3-4.6,3-6.4c0.4-0.5,0.6-1.2,0.8-1.8c0.5-1,0.1-2.1,0-3.1c0-1.8,1.8-2.5,2.5-4
		c0.4-0.8,1.1-1.8,0.5-2.1c-1.1-0.8-2.8-0.7-4.2-0.5c-0.9,0.1-1.4,0.9-1.1,1.8c0.5,2,1.2,4-1.1,5c-2.5,1.3-5,2.2-7.8,0.9
		c-2.3-1-2.5-2-0.5-3.7c0.5-0.5,1-0.9,1.6-1.3c1.6-1.2,2.1-2.1,0-3.5c-2.5-1.6-2.2-2.8,0.2-4.2c2.2-1.3,3.5-4,6.4-4.1
		c-5.1-1.3-9.9-2.4-13.8,2.8c-2,2.7-4.5,2.8-6.3,1c-0.7,0.8,0,1.5-0.1,2.3c0,0.5,0,1-0.2,1.4c-1.2,4.7-3,5.2-6.5,1.8
		c-2.3-2.2-4.6-3.1-7.7-2.2c-2.5,0.8-4.1-0.1-4.8-2.8c-0.3-1.4-1-2.6-2-3.5c-1.3-1.2-1.8-2.6-1.6-4.4c0.1-0.7,0.2-1.4,0.4-2
		c-0.5-3.4-2.5-6.1-4.2-8.9c-1-1.5-2.1-3-3.1-4.6c-0.6-2-1.8-3-3.6-3.6c-1.6-2.4-0.8-4.9,1.1-6.4c2.9-2.1,3.7-5,4.2-8.1
		c0.2-1.5,0.5-3.1,1.5-4.1c2.5-2.4,1.9-4.5,0.2-6.8c-0.6-1.4-2.6-2.9,0.1-4.1c0.4-0.4,0.1,0.1,0.3-0.1c1.8-5.2,6.9-6.5,10.3-9.7
		c2.4-2.4,4.6-5.1,6-8.3c1-1.9,1.9-3.5,3.5-4.9c3-2.8,4.7-6,4.9-10.5c0.2-3.6-0.5-8.2,3.5-10.9c0.8-0.6,0.9-1.5,0.8-2.5
		c-0.2-3.6,1-6.8,3.4-9.4c1.1-1.3,2.2-2.5,2.8-4.3c0.9-3,1.6-6,4.4-7.9c0.5-0.4,0.8-1,0.8-1.5c0.8-4.4,4-6.5,7.6-8.5
		c6.5-3.4,13.1-6.9,17.2-13.5c0.6-1,1.6-1.6,2.6-2c5.2-2.2,8.5-6.5,12.1-10.9c2.9-3.5,5.9-7.1,9.6-10c6-4.7,12.5-8.4,19.2-12
		c2.7-1.5,5-3.5,7.5-5.3c3.1-2.2,6-4.9,9.6-6.2c4.3-1.5,7.4-4.8,10-8c2.7-3.2,6.3-4.9,9.6-6.8c2.6-1.5,5.8-2.6,9-3.2
		c2.8-0.5,5.6-1.1,8.1-2.6c1.1-0.6,2.4-1,3.6-0.8c2.6,0.3,4.9,0.2,7.5,0c2.5-0.1,4.8,0.2,6.7,2.3c1.5,1.6,3.5,3.1,5.9,3.8
		c1.9,0.5,2.3,1.9,1.8,3.8c-0.2,1-1,2.1-0.4,3.2c2.7,0.7,3.8-3.5,6.8-1.9c0.6,0.8,0.5,1.6,0.1,2.4c-0.1,0.4-0.3,0.6-0.5,0.8
		c-0.7,0.8-1.7,1.1-2.2,2c0.2,0.3,0.3-0.1,0.5-0.2c0.5-0.8,1.2-1.3,1.9-1.8c3.1-1.9,6.2-3.8,8.5-6.7c0.9-1,1.9-1.5,3.3-1.1
		c0.7,0.2,1.5,0.8,2,0.2c4.2-4.5,10.5-2.8,15.3-5.9c2.8-1.9,4.8-4.7,7.5-6.9c0.7-0.5,0.7-1.5,0.5-2.2c-0.3-1.5,0.4-2.9,0.8-4.3
		c1.2-5.2,4.2-7.8,9.7-9.3c3.8-1.1,7.7-3.4,11.5-5c3.3-1.5,6.6-2.8,10.5-1.9c3,0.7,7.5-2.7,9.2-5.3c2.2-3.4,2.8-5.9-0.6-8.9
		c-2.2-2.1-3.2-5.3-5.3-7.9c-1.5-1.9-1.3-5.1-1.5-7.5c-0.2-4.5-1.5-8.6-3-12.9c-2.8-8.8-3.7-17.6,0.8-26.2c1.2-2.2,2.2-4.4,0.9-7.1
		c-0.5-1,0-2,0.5-2.9c2.2-3.9,4.5-7.7,8-10.6c1.3-1.1,2.8-1.8,4.4-1.9c2.3-0.1,4.1-0.9,5.5-2.9c0.8-1.1,2.2-1.9,3.5-0.4
		c-0.1,1.5,1.3,1.5,2.1,2.1c0.5,0.4,1,0.6,1.5,0.9c2.7,0.1,5.1-1.1,7.6-2.1c1.4-0.6,1.8,2.6,3.3,0.8c1.1-2.4,2.9-1.9,4.8-1.2
		c0.8,0.4,1.3,0.8,1.8,1.4c0.5,0.5,0.8,1.6,1.5,0.2c0.4-0.6,0.8-1.1,1.5-1.6c0.3-0.1,0.5-0.3,0.8-0.4c0.8-0.1,1.8,0.1,2.7,0.1
		c0.5,0.1,0.9,0.1,1.3,0.4c0.8,0.5,1.7,0.9,2.2,1.6c0.8,1.7,2.5,1.6,3.8,2.2c0.4,0.2,0.8,0.5,1.1,1.1c0.2,0.8,0.1,1.6-0.3,2.4
		c-0.5,1.1-1.8,1-2.7,1.4c-0.6,0.4-1,1-1.5,1.4c-0.8,0.5-0.6,1.2-0.4,2.1c-0.3,1.7,1.4,2,2,3.1c0.5,1.2,0.2,2.2-1.2,2.6
		c-3.3,1-5.4,3.4-6.5,6.4c-0.8,1.9-3.4,2.1-3.6,4.2c0,0.6-0.2,1.2-0.5,1.8c-0.5,0.9-0.8,1.9-0.8,3c-0.2,1-0.2,2.1,0.5,2.9
		c2.4,2.6,1.2,6.4,2.5,9.2c0.5,1.1-0.7,2.1-1.7,2.7c-2,1.2-4.2,2.3-6.7,1.8c-0.5-0.1-0.5-0.8-1.2-0.6c0.1,0.1,0.1,0.4,0.2,0.6
		c0.1,0.8,0.2,1.5,0,2.1c0,0.4,0,0.6-0.2,0.9c1.2,4.4,2.5,8.9,6.3,12.1c1.2,1,2,0.5,3,0.2c4.7-1.4,8.5,0.9,8.9,5.6
		c0.2,1.4,0.2,2.4,1.6,3c2,0.9,1.8,2.1,0.4,3.7c-2.7,2.8-5.2,5.6-8.4,7.8c-0.3,0.8-0.6,1.5-0.8,2.2c-0.6,2-1.8,3.4-3.3,4.7
		c-2.8,2.2-2.7,4.8,0,7.1c0.5,0.5,1.2,1.2,2,1.5c2.7,1,4.5,2.9,6.4,4.9c1.6,1.8,4.5,0.5,6.2,2.3c1,1.8,2.7,1.3,4.3,1.2
		c3.3,0.8,6.6-1.2,9.9-0.3c0.3,0,0.6,0,1,0c2.4,0,4.5-1,6.7-1.9c3.2,0.1,5.4-1.9,7.8-3.3c2.1-1,4.2-1.8,6.6-1.6c1,0,1.8-0.4,2.7-0.9
		c1.1-0.4,2.2-0.4,3.4-0.1c1.4,0.2,2.8,0.4,2.9,2.2s-0.8,3.1-2.7,3.5c-1.2,0.2-2.5,0.3-3.7,0.8c-2.2,0.9-2.4,2-0.5,3.6
		c3.5,3.1,3.3,5.2-1.1,7c-0.8,0.4-1.5,0.8-1.8,1.5c-0.8,1.5-2.2,2.3-3.8,2.6c-4.2,0.9-6.8,4-9.8,6.6c-0.8,0.8-0.8,1.8-0.4,2.9
		c2.5,6.1,10.7,9.3,15.5,5.6c0.5-0.5,1.2-0.7,1.8-1c0.5-0.2,0.8-0.5,1.3-0.7c4-5.1,9.7-5.5,15.5-6.3c4.6-0.6,8.5-2.5,10.8-7.1
		c1-2.3,3.9-3,6.3-3.6c1.6-0.1,3,0.2,4.6,0.6c0,0,0-0.2,0.1-0.4c0-0.1,0-0.2,0-0.4c1.2-2.6,3.2-3,5.1-1c1.2,1.3,2.2,2.6,3,4
		c1,1.9,2.2,2.2,3,0c0.7-1.8,2.1-3,3.3-4.2c2.5-2.5,2.3-3.7,0-6.1c-0.3-0.4-0.8-0.6-0.8-1c0.2-4.8-3.5-5.5-6.8-6.6
		c-0.8-0.2-1.5-0.5-2.3-0.6c-2.5-0.5-4.2-1.8-4.5-4.5c-0.1-0.5,0.1,0.1,0-0.4c-0.4-1.8-2.4-3.1-1.7-5.4c0.8-2.1,3.2-1.4,4.5-2.6
		c0.2-0.3,0.4-0.6,0.6-0.8c0.5-0.8,1.8-1.5,0.7-2.6c-2-1.5-3.2-4-6-4.4c-1.2-0.1-2.5-0.6-3.2,0.5c-1.6,2.4-4,2.7-6.5,3.4
		c-1,0.1-1.5,0.9-2,1.6c-2.3,1.8-5.2,1.9-7.8,1.8c-1.9,0-3.7-0.8-4.6-3c-0.6-1.5-1.5-3.1-2.6-4.4c-0.7-0.5-1.5-0.7-2.1-1.4
		c-1.4-2-3.2-2.7-5.6-2.4c-2.2,0.3-4-0.1-5.3-2.1c-0.8-1.4-2.5-1.9-4-2.6c-1.7-0.6-2.2-1.5-0.7-3.2c1.1-1.2,1.7-2.8,2.7-4.3
		c2.8-4.3,3.9-4.6,8.2-1.8c0.9,1,1.8,2,3.4,1.1c2.7-1.1,5.3-1.8,8.3-0.9c0.8,0.2,2,0.3,2.7-0.2c2.7-2.3,6.8-2.1,8.8-5.6
		c0.3-0.5,0.8-0.9,1.3-0.9c6-0.3,10-5,15.6-6.6c3.2-0.9,5.5-4.6,8.5-6.7c1-0.6,0.4-1.6-0.1-2.4c-2.5-3.3-4.2-7.4-8-9.6
		c-1.5-0.8-2.2-2.4-2.3-3.9c-0.8-9.7-3.5-19.2-1.8-29.1c0.2-1.4-0.2-2.4-1.3-3.3c-0.6-0.4-1.3-0.6-1.5-1.3
		c-1.3-4.9-4.8-9.1-5.2-14.4c0.1-1.1,1.5-2.1,0.7-3.4c-1.3-3.1,1.4-3.3,3.2-4.1c0.8-0.4,1.1-0.9,0.7-1.7c-0.4-0.9-0.5-2.1-0.7-3.1
		c-0.8-3.8,0.3-4.8,4-4.1c5.1,1,9.5-0.5,14.2-3.6c-5.3,0.7-6.8-0.2-8.8-4.6c-0.5-1.2-0.5-2.8-2.2-3.2c-1-0.3-1-1.4-1.7-1.9
		c-0.5-0.4-1-0.8-1.2-1.4c-0.2-0.6,0-1.3,0.3-1.8c0.2-0.4,0.7-0.7,1.1-0.8c1.3-0.4,0.7-1.3,0.5-2.1c0-2.3,1-4.3,1.7-6.6
		c0.6-1.9,1.5-3.7,4-2.7c0.5,0.2,1.2,0.2,1.5-0.4c0.8-2.6,3.7-4.3,3.2-7.6c-0.2-1.8,0.8-3.2,2.7-3.2c2.2-0.1,3.8-1.2,5.9-1.7
		c1.1,0,2.2,1.2,3.2-0.2c0.5-0.3,1-0.7,1.6-0.9c2.5-1.9,5.2-3.8,6.3-6.9c0.5-1.3,1.6-2.2,2.8-2.8c3.2-1.7,6.8-2.7,8.2-6.6
		c0.2-0.8,1.4-1,2.3-1.1c1-0.1,1.7-0.4,1.9-1.6c0.2-2.2,1.9-2.3,3.5-2.2c1.7-0.3,0.9-1.4,0.8-2.3c-0.1-2.1,1.8-2.9,2.6-4.4
		c1-1.2,0.7-2.8,1.2-4.1c0.2-0.3,0.4-0.5,0.7-0.8c0.5-0.2,1-0.2,1.5-0.1c1.1,0.3,2,0.8,3.2,1.2c-1-1.5-1.3-2.8,0.5-3.9
		c4.3-0.8,8.1-2.6,11.2-6c0.9-0.9,1.8-2,3-0.5c0.7,1,0.3,0,0.5-0.2c1.4-2.2,2.8-2.2,4.5-0.2c2.5-3.5,5.9-5.6,10.2-6.3
		c0.5-0.1,1.3,0,1.6-0.5c2.3-4.4,5.8-2.6,9.2-2c1.1,0.2,1.5-0.6,2-1.2c2.2-2.3,4.8-4.8,7.7-5.5c3.6-0.8,7.7-1.5,11.3,0
		c1.2,0.5,2.2,0.8,3.5,0.2c1.2-0.7,2.6-0.2,3.3,0.8c1.2,2,2.5,1.6,4.3,0.8c2.8-1.3,4.4-0.3,4.9,2.7c0.8-1.5,0.1-4.5,3.3-3.4
		c0.4,0.2,0.5,0.7,0.8,1c0.2-0.3-0.2-0.7,0-1.1c0.2-0.7,0.7-1.1,1.3-1.5c1.2-0.7,2.2-2,3.9-1c0.7,1,1.6,1,2.7,0.7
		c1.8,0.3,2.8,1,1.7,3c-0.7,1.1-0.7,2.2,0.2,3.5c1.2-1,1.4-2.5,2.2-3.8c2.2-3.6,4.7-4,9-3.5c3.5,0.5,7,1.6,10.5,0.3
		c0.5-0.2,1.2-0.5,1.6-0.2c3.4,3,7-0.2,10.5,0.4c3.7,0.7,7.3,1.3,11.2,1c1.8-0.2,3.3-0.4,4.3-2.1c1-1.6,2.4-2.3,4.3-2
		c0-1.2-0.3-2.2-0.3-3.2c0-2-1.5-4.2,1.3-5.8c2.8-1.6,5.3-1.7,8,0.2c0.6,0.8,1.3,1.5,1.8,2.3c1.4,5.5,1.2,11-2.4,15.8
		c-1,1.2-0.6,1.8,0.8,2c1.5,0.2,2.8,0.4,4.4,0.2c2.6-0.2,3.8,0.7,4,3.4c-0.1,1,0.5,1.6,1.5,1.8c3.8,1.8,8.2,0.2,12.2,1.4
		c1.7,0,3.3,1.5,5-0.2c0.3-0.2,0.5-0.2,0.8-0.3c2.2-0.2,1.5-2.7,2.6-3.8c0.2-0.3,0.4-0.5,0.7-0.7c1.3-0.4,2.4,0.8,3.8,0.7
		c0.6,0,1.2,0.2,1.9,0.3c0.8,0.2,1.4,0.5,2.2,0.7c1.2,0.5,1.8-0.2,2.4-1.2c2.2-2,4.9-3.4,5.5-6.5c0.2-0.8,1-1.3,1.8-1.3
		c2.3,0,4-1.5,6-2.1c3.7-1.1,6.5-3.2,7.5-7.2c0.2-0.5,0.5-0.8,0.7-1.2c0.9-1.8,3.2-2.6,2.8-5.1c-0.6-4.2-1.2-8.3-4.5-11.4
		C1021.2,16.9,1019.7,16.1,1021,14.6z"/>
	<path class="st1" d="M132.6,426.9c-1.3,4.2-2.7,8.6-2.6,13c0.1,5.8-1.7,11.3-1.6,17.2c0,5.4-2.2,10.8-3.4,16.1
		c0.3,1.8-0.2,3.3-1.4,4.6c-1.8,5-3.7,9.8-5.4,14.7c-0.9,2.6-3.8,3.8-4.6,6.6c-0.9,3.8-4,6.4-5.8,9.6c-1.7,3-4.9,3.1-7.5,4.5
		c-0.6,0.3-1.2-0.2-1.8,0.7c-0.9,1.8-2.2,3.4-4.6,3c-0.4,0-1.2,0.2-1.4,0.7c-1.8,3.4-5.8,5.4-6.1,9.7c-28.8-9-57.6-17.9-86.4-26.9
		c0-2.8,2.7-2.8,4-3c3.1-0.5,3.8-2.6,3.9-4.8c0.2-3.5,1.2-6.7,2.8-9.8c1.2-2.2,0.5-3.1-2-3.2c-3.8-0.3-4.3-1.1-3.1-4.6
		c1.1-3.1,0.8-6.6,2-9.7c1.1-2.8,4.2-2.8,6.3-3.5c1.5-0.6,3,0.8,3.3,3.2c0.1,0.8,0.4,4,2.1,3.4c2.6-0.9,5.9,0.6,8.1-3
		c1.6-2.6,3-5.6,5.9-7.6c1.7-1.2,2.3-4,3-6.2c1.1-4,1.5-7.8-0.7-11.7c-1.8-3.3,0.6-6.1,4.8-8.6c3-1.8,5.8-0.8,8.8-0.5
		c1,0,2,0.6,1.9,1.6c-0.5,2.9,2.2,2.6,3,2.5c3.2-0.8,6.8-0.9,9.5-3c1-0.8,1.9-1,2.9-1.4c4.7-1.9,6.9-5.9,8.9-10.2
		c0.8-1.5-0.9-3-0.2-4.1c2.3-3.1,1.9-6.6,1.9-10.1c0.1-1.6,1.3-1.8,2.4-0.9c0.9,0.6,1.8,1.6,2.1,2.5c0.4,1.4,1.9,1.6,2.3,1.5
		c3.2-2,7.6-0.1,10.7-2.9c1.4-1.2,3.7-0.9,5.2-2.5c1.4-1.5,0-3.9,2.2-4.7c0.8-0.5,0.8-1.2,0.7-2c0.4-4.3,4-6.3,6.4-9.2
		c2.8-3.5,6.2-5.8,9.4-8.5c0.9-0.8,1.7-1,2.8-1.2c0.8-0.1,1.7,0.5,2.6-0.5c3.2-3.9,8.1-5.4,12.4-7.5c1.1-0.5,2.1-2.7,3.2-1.6
		c1.1,1-0.4,2.6-0.6,4c-0.4,1.5-0.4,2.6,0.6,4.2c1.2,2-0.1,4.8-0.6,7.2c-0.4,2-1,4-1.9,5.9c-2.9,6-2.9,12.6-2.5,18.9
		c0.4,5.8-1.2,10.8-2.4,16C132.6,425.2,132.4,426.1,132.6,426.9z"/>
	<path class="st2" d="M652,181.2c0.7-0.2,1.5-0.4,2.2-0.1c-0.6,0.8,0,2.6-1.7,2.4C651.5,183.4,652.1,182.1,652,181.2z"/>
	<path class="st3" d="M655.5,179.4c0.2-0.4,0.4-0.9,0.5-1.4c0.8-0.2,1.3-0.1,1.8,0.6c0.2,0.4,0.4,0.7,0.6,1.1
		C657.2,180.7,656.3,179.6,655.5,179.4z"/>
	<path class="st1" d="M502.4,138.2c2,1.1,3.8,1.6,6.1,1.1c1.1-0.2,4.5-1.1,3.5,2.6c-0.1,0.6,0,1.1,0.5,1c3.7-0.6,0.8,1.8,1.2,2.6
		c0.8,0.6-0.9,2.5,1.2,2.6c0.1-0.4,0.2-0.8,0.4-0.9c4.2-3.4,4.2-3.4,0.2-6.8c-1.2-1-0.9-2.1-0.5-3.1c0.5-1.3,1.3-1.9,2.8-1.3
		c2.5,0.9,5,1.3,7-1.1c0.7-0.5,1-1.4,1.8-1.7c3.2-0.8,3.9-4.6,6.7-5.6c1.1-0.4,2.2-2.3,3.1-1.1c1.2,1.8,4.2,2.4,4.4,4.4
		c0.2,2.4,1,4.1,2.3,6c0.5,0.6-0.2,1.2-0.3,1.9c-0.7,0.6-1,1.6-1,2.4c0,2.8-1.1,4.7-3.8,5.6c-0.5,0.2-1,0.8-0.8,1.3
		c0.4,0.7,1.2,0.4,1.8,0.6c0.8,0.1,1.5,0.7,2.2,1.1c1.3,1.1,2.8,2.2,4.5,2.7c1,0.3,2,0.7,3,0.7c1,0.1,2-0.4,2.6-1.1
		c0.5-0.3,1.1-0.5,1.7-0.6c1.3,0.3,2.4-0.4,3.5-0.9c1.1-0.1,2.1,0.1,3.1,0.5c1.5,0.4,3,0.8,4.6,0.9c0.7,0.1,1.3,0.3,1.9,0.4
		c1.8,0.7,3.6,0.4,5.3-0.1c0.5-0.4,0.7-1.4,1.5-1.6c2.5,0.6,5.3-0.2,7,2.3c1.9-1.1-1.6-4.6,2.1-4.9l0,0c1.6-0.6,2.7,0.5,4,1.2
		c0.8,3.9,4.1,4.5,7.1,4.9c2,0.2,3.8,0.6,5.2,1.6c2.3-2.8,0.8-5-0.8-7.3c-0.5-0.6-1.2-1.2-1.9-0.4c-1.2,1.4-2.5,1.1-3.9,0.2
		c-1.4-0.9-1-2-0.9-3.2c0.3-2.1,2-1.4,3-1.8c0.4-0.1,0.9-0.2,2.2-0.5c-4.8-1.2-5.1-4.4-5.4-7.6c-0.1-1.6,0.5-2.4,1.8-3.3
		c3.5-2.3,6-5.3,8.4-8.9c2.3-3.3,3.3-7.2,5.7-10.4c1.2-1.8,1.8-2.1,2.9-0.2c0.5,1,1.8,1.8,2,0.2c0.4-4.4,4-3.4,6.5-4.2
		c1.1,0.2,1.2,1.3,0.7,1.8c-1.8,1.6-1.2,3.6-1.3,5.4c0.2,0.4-0.2,1.6,1,0.8c0.2-0.7,0-1.3-0.3-1.9c-0.4-0.9-1.2-2.2-0.2-3.1
		c1.2-1.1,2.4-0.8,3.5,0.3c0.3,1.4,2,0.8,2.5,1.9c0.8,1.7,4.1,3.3-0.7,4.4c-2.2,0.4-1.5,2.9-0.7,4.2c0.7,1.1,0.8,1.7,0.4,2.7
		c-0.7,2.1-1.5,4,0.2,6.3c1,1.2,0,3.2-1.2,4.3c-1.6,1.6-3.3-0.1-5-0.1c-1.2,0.6-2,1.6-3.2,2.1c-0.8,0.4-0.5,1-0.2,1.6
		c0.5,1.2,0.5,2.6,1,3.9c0.2,0.3,0.4,0.9,0.7,0.1c0-0.2,0-0.4,0.1-0.7c0.7-0.9-0.4-1.1-0.6-1.6c-1.1-2.2-1-3.9,2-4.3
		c1,0.6,2.9-0.1,2.2,2.4c-0.5,1.6,0.6,1.9,1.9,0.9c0.7-0.5,1.2-1.3,2-1.1c0.5,0.1,2.5-0.3,0.9,1.4c0,0.1-0.2,0.2-0.1,0.4
		c1.8,2.9,1.7,5.9,0.2,8.9c0,0.2,0.7,0.8,1,1.3c0.3,0.6,2.2,0.1,1,1.8c-0.7,1-1.5,1.2-2.2,0.8c-1.7-1-3.2-1.1-4.2,1
		c0,0.2-0.5,0.4-0.5,0.4c-2.4-2.3-4.7,0.6-7.1,0.1c-1.1-0.2-2.2-0.2-3,1c-1.2,2-3.2,2.4-5.1,1.8c-2-0.6-3-0.2-3.2,2
		c0,0.9-0.7,1.8-1,2.8c-0.5,1.9-1.8,2.4-3.3,1.6c-2.5-1.2-4.3-0.6-6.8,0.6c-3.8,1.8-8,2.4-11.8,4.7c-2.8,1.8-6.2,2.4-8.7,4.9
		c-2.3,2.2-8.3,1-10.1-1.8c-0.2-0.3-0.2-0.8-0.5-0.6c-2.7,1.9-4.5-0.7-6.9-0.9c-6.3-0.6-12.7-1.3-19-1.9c-1-0.1-1.8-0.1-2.2-1.1
		c-0.3-0.9,1.5-2.1,0-2.9c-2.1-0.9-3.9-2.8-6.5-1.6c-0.7,0.5-1.6,0.2-2.3,0.9c-0.5,0.7-1.8,0.8-1.6,2c1,4.7-2.7,6.4-5.9,7.8
		c-3.1,1.3-5.7,3.4-8.1,5.5c-1.8,1.5-2,3.9-2.3,6.2c-0.3,3.6-1.5,4.8-5.1,4.4c-2-0.1-3.7,1.9-5.8,0.4c-0.5-0.4-1.4-0.4-1.2-1.4
		c0.1-0.7,0.6-0.8,1.1-0.9c3.6-1.4,6-3.9,7-7.8c0.3-1,0.1-1.6-0.9-1.9c-1.2-0.2-2.7-1.7-3.6-0.2c-1,1.6-2.2,1.4-3.5,1.1
		c-2.9-0.6-5.5,1.6-8.5,0.9c-0.7,0.4-1.7,0.1-2.4,0.6c-4.2,1.3-7.8,3.4-10.4,7.3c-1.1,1.6-3.4,1.9-5.4,2.1c-2.6,0.2-4.3,1.1-5.8,3.7
		c-1.5,2.4-3.1,5-5.7,6.9c-2,1.4-4.5,3.4-5.5,6.4c-0.5,1.6-1.5,2.9-3,4.1c-1.7,1.2-2.1,3.9-2.8,6.1c-0.4,1.6-0.5,3.3,2,3.2
		c1.5-0.1,1.7,1.1,1.8,2.1c0,1.4-1.2,0.8-2.1,0.9c-2.6,0.2-4.9,3.9-4.1,6.5c0.9,3-1.4,7.2-4.1,6.8c-3.3-0.6-3.4,1.6-4,3.3
		c-1.5,4.3-2.6,4.6-6.4,1.6c-0.4-1.8-0.6-3.6-0.1-5.3c-1,1.2-2.1,1.8-3.6,0.8c-0.9-0.6-1.9-1.1-2.8,0c-0.4,0.4-0.6,0.8-0.4,1.2
		c0.6,1.1,1.8,0.7,2.8,0.8c3.5,0,3.6,0.2,2.6,2.9c-0.2,0.2-0.5,0.2-0.5,0.4c-3,5.3-3,4.7-7.5,0.9c-3.2-2.8-1.6-4.7-1-7.2
		c0.3-1.4,0.6-2.7,1.2-3.9c1.9-3.4-0.1-6.2-1.6-9.1c-0.3-0.6-0.7-1.2-0.6-1.9c1-4.4-1-9.1,1-13.4c0.2-0.4-0.1-1.1-0.2-1.6
		c-0.2-0.8,0-1.4,0.6-1.9c2.8-5.4,8-8.2,12.1-12.4c1.2-1.2,2.1-3.3,1.1-5.2c-0.2-0.7-0.7-1.3,0.2-1.6c0.5-0.2,1,0.1,1.5,0.6
		c2.5,3.4,6,3.1,7.6-0.8c1-2.2,1.5-4.3,1.1-6.9c-0.5-3.1,1.2-6.2,2.5-9.1c0.7-0.4,1.1-1.3,1.9-1.7c0.5-1.8,1.4-3.1,3.4-3.9
		c4-1.9,7.4-10,6.5-14.4c-0.4-1.9-0.4-3.9-0.5-5.9c4.4,1,6.7-0.3,8-4.8c0.6-2.1,1.7-3.2,4-2.4c1.3,0.5,2-0.1,2.8-0.9
		c1-0.9,2-2.4,3.8-1.4c0.4,0.4,0.9,1.1,0.5,1.6c-1.9,2.1-1.8,4.9-3.1,7.1c-0.2,0.2-0.2,0.3-0.3,0.5c-0.5,0.9-1.6,1.3-2.2,2.2
		c1-0.1,1.8-1.1,2.9-1.1c2.5,0.3,1.6-1.9,2.2-3c0.3-0.6,0-1.8,1.2-1.6c1,0.1,1.1,0.7,1.2,1.6c0,1.6,1,2.1,2.5,2.1
		c1.6,0.1,3.2-0.1,3.6-2.1c0.5-2.6,1.5-5,4-6.4c0.9-0.6,1.4-1.9,2.9-1.5c1.8,0.6,0.5,2.2,1.2,3.1c-0.2,0.9-0.5,1.9-1.4,2.4
		c0.1,1.5-2.5,2.4-1.4,3.6c1.6,1.7,3.3-0.2,4.8-1.1c1.7-0.9,3.1-2,4.1-3.6c1.5-2.5,2.7-2.1,4.1-0.1c0.2,0.3,0.9,0.4,1.2,0.6
		C500.8,137.2,501.8,137.3,502.4,138.2z"/>
	<path class="st1" d="M342.5,461.8c-0.6,2-1.4,3.9-2,5.9c-2.1,0-3,1.7-3.5,3.4c-2.2,6-5,12-4.9,18.7c0,1.5-1,1.5-1.8,1.4
		c-2.1-0.5-4,0.5-5.9,1c-1.4-0.6-1.8-1.9-1.8-3.5c-2,0.5-1.5,2.1-2.2,3c-1,1.4-1.6,2.9-3.6,3.6c-1.5,0.5-2.2,2.9-1.2,4.9
		c1,2.2,2.2,4.5,2,7.1c0,1-0.1,2-1.8,1.5c-1.3-0.5-2.6-0.7-4,0.8c-1.2,1.4-2-0.9-2-1.2c-0.2-2,0-4-1.1-6c-0.4-0.7,0-2.8,1.7-3.2
		c2.4-0.8,2.8-3.2,2.3-4.6c-1.5-4,0.6-8-0.1-11.8l0.1,0c-0.4-1.5-0.6-2.9-0.1-4.4c1.4-0.4,2.5-0.9,1.8-3c-0.4-1.1-0.8-2-1.2-3
		c1-3.2,1.1-7.2,3.2-9.5c1.9-2.3,3.4-4.6,4.7-7c1-0.4,1-1.1,0.8-2c1.5-3.2,0-6.6,0.1-9.9c0.6-0.6,1-1.2-0.2-1.6
		c1.2-5.1,1.2-10.5,1.4-15.6c0.1-4,1-7.7,1.7-11.5c0.5-3-0.4-5.9-0.4-8.8c-0.3-6.3,0.3-12.6,0.8-18.9c0-1.3,0.5-2.5-0.4-3.8
		c-0.4-0.5-0.6-1.9,0.7-2.3c1-0.2,1.5,0.7,1.6,1.4c1.5,6.8,6.9,7.9,12.4,8.2c2,0.1,4.9-0.5,5-3.2c0.4-4.3,4.4-5.7,6.2-9
		c0.9-1.5,2.3-3.1,3-4.7c1.1-2.6,3.4-4.6,4.4-7.2c2-5,1.5-9.7-1.1-14c-1.4-2.1-0.9-4-0.5-6c1-4.6,0.7-5.4-3.5-7.2
		c-0.8-0.4-1.4-0.6-1-1.4c1.7-4,0.7-8.9,4.2-12.2c1.9-0.2,1.5,1,1.5,2c-1.2,5,0,8.2,5,9.5c0.5,0.1,1.2,0.2,1.6,0.6
		c0.8,0.7-0.9,3.2,1.6,2.4c1.7-0.5,3.5-1.5,4.4-3.5c1.7-4,4.5-7.3,7.8-10.9c1.5,3,1.5,6.1,1.1,8.9c-0.8,4.3-1,8.8-5.2,11.9
		c-2,1.4-2.9,4.6-3.1,7.3c-0.2,4.4-1.7,8.2-4,11.8c-1.2,1.9-3.1,3-3.8,5.5c-1.2,4.3-0.6,8.2,0.8,12.2c0.6,1.6,0,3.9-1.2,4.3
		c-3,1.1-3.7,3.8-4.1,6.1c-0.9,3.5-3.5,5.7-4.6,8.8c-1.9,5.3-3.2,10.8-5.2,16c-0.8,2,1,3.4,0.5,5.1c-0.9,2.8-1.8,5.4-3.9,7.5
		c-3,3.1-3.6,6.6-2.9,11.1c0.5,2.6,0.9,5.4,2.1,7.9c0.4,0.8,0.1,1.5-0.5,2c-0.1,0.5-0.5,1-0.4,1.2
		C345.4,456.4,343,459.1,342.5,461.8z"/>
	<path class="st1" d="M388.4,316.1c-0.8,3-4,2.5-6,3.4c-1.5,0.7-2-2.9-2.9-4.5c-3.6-5.8-3.8-12.9-7.2-18.9
		c-3.2-5.5-6.7-10.5-12.5-13.4c-0.9-0.4-2-0.6-1.9-1.6c0.2-2.7-2-2.9-3.5-3.9c-0.6-1-1.5-1.3-2.6-0.8c-3.6,1-6.7,3.5-10.4,5
		c0.1-2.8,1.6-4.5,3.5-5.9c2.5-1.9,3.8-5.5,2.5-8.2c-0.1-0.1-0.5-0.4-0.5-0.4c2-5.7-2-5.6-5.8-6c-0.1,0-0.2-0.3-0.6-0.8
		c2-0.4,3.8-1,5.3-2c1-0.6,2-0.1,3.1-0.4c0.8,0.1,1.8,0.7,2.3,0.4c3.8-3,7.9-1.6,11,0.3c4,2.5,7.2,0.7,10-0.7
		c4.5-2.2,9-4.9,10.1-10.6c0.5-2.2,2.6-2.3,4.1-0.6c2.8,3,5.9,5.8,8.6,8.8c1.7,1.8,3.4,3.7,4.5,6.2c0.9,2,6.6,3.9,8.1,2.4
		c1.5-1.4,3.5-1,5-2.4c1.1-1.2,2.8-0.1,2.6,1.3c-0.1,1.6,1,2.4,1.4,3.6c0.5,1.9,3.5,2,4.8,0.5c3.8-4.2,3.9-4.3-1.6-6.7
		c-1.7-0.8-1.3-2.3-1.9-3.3c-1-1.9-3-3.2-3.2-5.3c-0.2-0.8-0.1-1.5,0.7-1.9c1.7-0.4,3,0.1,4.4,1c2.8,1.9,4.9,1.2,6.5-1.7
		c1.2-1.9,3.4-1.2,4.9-1.9c1.1-0.5,1.4,1.9,2,3c0.4,1.1-0.1,1.9-0.8,2.6c-0.2,0.3-0.3,0.6-0.5,0.9c-3.8,4.9-4,6.2-0.3,10.9
		c0.9,1.1,1,2.4,0.1,2.4c-2.5,0.6-2.5,2.7-3,4.5c-1,3.1-4.2,2-6.2,2.8c-3.9,1.4-5.2,2.2-4.5,6.1c0.4,2-0.7,2.6-2,3.4
		c-1.7,0.8-2-0.6-2.6-1.9c-1.6-3.4-7.9-5.5-10.2-3.3c-1,0.8-1.5,1.6-1,2.9c1,4.1-0.4,6.6-4.4,7.4c-2.1,0.4-2.5,2.1-2.9,3.6
		c-0.9,2.6-1.6,5-4,7.1c-1.6,1.4-2.9,4.6-1.8,7.7c0.5,1.7,0.1,3.8,0.1,5.6C389.6,314.6,389.4,315.5,388.4,316.1z"/>
	<path class="st1" d="M807.3,30.8c-1.2,2.1-2.5,4.4-3.1,6.8c-0.7,2.9-3.6,4.2-5.5,6c-3.6,3.5-8,6.3-11.6,9.9
		c-3.2,3.3-6.8,2.7-10,4.2c-1.1,0.5-2.8,0.5-2.8-0.9c-0.1-2-1.6-2.2-2.5-3.2c-1.2-1.3-2.3-2.4,0.5-3.3c1.2-0.3,1.9-1.5,2-2.8
		c0-1.8,0.5-3.3,1.8-4.6c4.3-4.8,7-10.8,10.4-16.1c2-3.2,4.9-6.1,8.7-7.9c2.3-1,3.2-3.9,4-6.4c0.3-1.2,0.5-2.4,2.3-2.9
		c2-0.4,3,0.2,2.2,2.1c-0.8,2.1-0.8,3.9,0.9,5.6c2.6,2.8,1.9,6.2,2.5,9.5c0.2,0.6,0.5,1.2,0.8,1.9C808.2,29.5,808,30.1,807.3,30.8z"
		/>
	<path class="st1" d="M986.3,19.6c-0.5,5.6-5.8,4.6-9.2,6.5c-0.2,0.1-0.2,0-0.3,0c-2.3,2-5.1,2.2-7.9,2.7c-1,0.1-1.8,0.5-2.8-0.1
		c-2.2-1.5-4.9-1.6-7.5-1.8c-1.1,0-2.2,0.6-3-0.9c-0.2-0.3-1.2-0.6-1.5-0.5c-4.5,4-2.8-3.6-5.5-2.9c0.2-2.4,0.6-4.6,2.3-6.2
		c0.8-0.8,2.3-0.9,3.5-1.6c2.3-1.4,3.7-3.3,4.4-5.7s2.2-3.8,4.7-3.4c1.4,0.2,2.8-0.8,3-1.1c2-3.3,6.3,0.4,8.3-2.9c0-0.1,1,0,1.2,0.1
		c3.5,2.4,7.5,4.2,10.5,7.2c2.4,2.3,0.8,5.1,0.8,7.6C987.2,17.6,986.7,18.5,986.3,19.6z"/>
	<path class="st1" d="M573.1,152.9c-2.2,0.5-4.3,1.3-6.5,0.2c-0.2-0.6-0.2-1,0.1-1.4c0.3-0.5,0.8-0.9,1.1-1.2
		c0.6-0.8,2.8-1.4,1.3-2.6c-1.2-1-3.4-1.8-4.8,0.3c-1,1.6-2.1,2.9-4.2,2.8c-2.6-0.6-5.5,0.2-7.8-1.7c-3-3.6-3.5-3.6-7.2-0.4
		c-1.1,0.9-2.3,1.3-3.7,1.5c-0.7-0.4-1.5-0.9-2.2-1.4c2.2-1.4,2.8-4.2,5-5.5c1,0.8,2.6-1.4,3.2,0.9c1.7-0.7,2.2-2.6,1.7-3.4
		c-2.3-3.9,1.7-4.4,3.1-4.6c3-0.9,5.1-2.2,6.5-4.9c0.7-1.4,1.8-1.1,1.8-0.2c1.2,6.5,5.5,6.2,10.3,4.9c0.8-0.2,1.2-1.1,1.8-1.5
		c0.5-1.3,1.2-2.5,2.7-2.8c1.3-0.1,2-1.2,2.3-2.1c0.5-1.1,1-2.3,2.3-1.4c1.1,0.7,3.8-0.5,2.8,2.6c4.2,2.9,0,7.4,2,10.6
		c0.2,0.6,1.7,0.3,1,1.5c-2.5-0.1-4.2,1.7-6.7,2c-1.8,0.2-1.5,3-2.5,4.5c-1,0.6-2,1.1-3.1,1.4C571.4,151.1,572,152.1,573.1,152.9z"
		/>
	<path class="st4" d="M298,290.8c-0.2-0.9,1.2-2.1-0.1-2.6c-1.1-0.5-2.3-1.5-4.1-0.3c-1.8,1.2-3.5,2.8-5.9,3.2
		c-0.9,0.1-1.7,0.9-2.4,0.2c-0.9-1-0.6-2.2,0-3.4c0.4-0.9,0.5-1.8,1.7-1.6c4.4,0.2,8.5-0.5,12.5-2.7c0.1-0.1,0.5-0.2,0.6-0.1
		c3.8,1.2,6.6-1.5,9.6-2.9c3.1-1.3,5.8-3.7,9.5-4.2c0.5,0.3,0.1,1.1-0.1,1.2c-3.2,1.9-4.2,6.6-8.9,6.5c-0.6,0-1.1,0-1.3,0.7
		c-1,2.6-3.9,3-5.9,3.6c-2,0.7-2,2-2.7,3.2C299.4,292,298.5,291.8,298,290.8z"/>
	<path class="st4" d="M166.2,356.2c0.1,1.4-1.1,2.5-0.6,4c0.1,0.8-0.5,1.6-1,1.4c-2.4-1.1-4.1,1.5-6.4,0.9c-1.9-0.6-2.3,1.5-3,2.6
		c-1.6,2.5-3.3,4-6.5,2.9c-0.8-0.2-1.6-0.4-2.2,0.2c-1,1.2-2.2,0.8-2.9,0c-0.7-0.8,0-1.9,0.6-2.8c0.6-1,1.1-2.6,2.8-1.6
		c1.7,1,2,0,3.3-1c2.9-2.2,4.2-7.3,9.6-6c2.1,0.5,3.1-2,4.9-2.5C165.1,355,165.9,355.4,166.2,356.2z"/>
	<path class="st5" d="M344.6,269.6c0.3,3.2-2.8,3.1-4.3,4.1c-3,2-6.3,3.6-8.6,6.5c-1.5,1.7-2.4,2.1-4,0.5c-0.2-0.2-0.4-0.2-0.5-0.5
		c-0.7-1.2-3.6-0.2-3-2.4c0.5-1.6,2.9-1.6,4.2-1.5c3.4,0,6.1-1,8-3.8c1-1.6,2.8-0.5,3.6-2C341.4,268.5,342.8,267.8,344.6,269.6z"/>
	<path class="st6" d="M277,289c-4.5,4.2-10.3,6.1-15.7,8.5c-1,0.5-2.4,0.5-2.9-0.9c-0.4-1.4,0.9-1.5,1.6-2.1c3.6-2.4,7.4-4,11.4-5.5
		C274,287.9,274,287.5,277,289z"/>
	<path class="st7" d="M667.9,163.2c1.3,0.5,2.3,0.6,3,1.1c1,0.9,2.8,1.6-0.2,3.2c-2.9,1.6-5.3,0.9-8,0.5c-1.2-0.1-3.2-0.3-3-2.5
		c0.3-2.1,2-2.9,3.9-2.9C665.2,162.8,666.9,162.6,667.9,163.2z"/>
	<path class="st8" d="M674.2,52.8c-1.1-1-0.5-2.7,0.2-2.8c1.5-0.4,2.2-1.8,3.5-1.8c2.9,0,4.8-1.8,5.8-4c0.7-1.3,1.4-1.3,2.3-1
		c1.5,0.8,0.5,1.7,0.1,2.4c-1,2.7-4.8,2.9-5,6.2c0,0.1-0.6,0.4-0.8,0.3c-2-1.1-3.8-1.3-5.3,0.6C674.8,52.9,674.4,52.9,674.2,52.8z"
		/>
	<path class="st9" d="M424.3,241.9c0.3-1.7,0.6-3.2-2.1-2.1c-1.5,0.6-3.5,0.4-4.6-0.4c-0.8-0.5,0.1-2.4,0.9-3.3
		c0.9-0.8,2.5-1.8,3.3-0.6c2.1,3.1,3.1,0.8,4.5-0.8c-1,2.4,0.7,4.6-0.5,6.8C425.3,241.7,424.8,241.8,424.3,241.9z"/>
	<path class="st10" d="M476.8,195.7c-0.7,2.3-2.9,2.4-4.6,3.4c-0.4-1.9,2.3-3.9-0.2-5.7c1.1-0.9,2.2-2.1,3.5-2.9
		c0.6-0.4,2.1-0.3,2.5,0.1c0.8,0.9-0.7,1.9-0.5,2.9C477.6,194.6,477.5,195.2,476.8,195.7z"/>
	<path class="st11" d="M573.3,150.4c1-0.8,1.7-2.2,3.2-1.1c2.3,1.1,3.7-2.7,6-1c-0.4,0.5-1.8,0.6-1.3,1.2c2,2.1-0.1,3.4-0.8,5.4
		c-0.7-2.1-1.7-3.1-3.8-2.9c-1.2,0.2-2.5-0.1-3.5-1c-0.2-0.2-0.1-0.4-0.1-0.5C573.2,150.4,573.2,150.3,573.3,150.4z"/>
	<path class="st12" d="M655,70.6c-1,0.8-1.5,1.9-3.2,1.8c-1.4-0.1-2.9,0.1-4.2,0.5c-0.7,0.2-1.2,0.7-1.7-0.2
		c-0.2-0.7-0.2-1.5,0.5-1.8c2.1-0.6,3.8-1.7,5.5-3.1c0.7-0.7,1.8-0.7,2.5-0.2C656,68.4,654.2,69.6,655,70.6z"/>
	<path class="st13" d="M543.9,143.4c-1,2.3-1.5,5.2-5,5.5c-1,0.2-2.5,1.1-3-0.1c-0.7-1.3,0.8-3,1.5-3c3.9-0.2,3.8-3.4,4.7-5.9
		c0.2-0.6,0.7-0.9,1-1.2C543.3,140.2,540.7,142.4,543.9,143.4z"/>
	<path class="st14" d="M179.3,341.5c1.8,0.2,1.5,1.6,0.6,2.6c-1.2,1.4-2.8,2.8-3.9,4.3c-0.4,0.7-1.1,0.6-1.9,0.1
		c-0.7-0.5-0.7-1.3-0.3-1.8c1.1-1.3,1.6-3,2.1-4.6C176.7,340.7,177.9,341.2,179.3,341.5z"/>
	<path class="st15" d="M624.5,168.5c-1.7,1.2-1.9,3.4-2.8,5.2c-0.9,1.8-2,2.2-3.6,1.2c-0.3-0.8-0.2-1.5,0.4-2.1
		c1.6-2.1,2.6-4.8,5-6.4c0.6-0.4,1-0.3,1.5-0.1C625.4,167.2,625.2,167.9,624.5,168.5z"/>
	<path class="st16" d="M237.4,303c-0.5,2-2.8,1.8-4.1,2.2c-1.9,0.5-3.2,1.1-4.3,2.8c-0.6,1-1.6,1-2.2,0.1c-0.7-0.8,0.1-1.4,0.9-1.9
		c2.5-1.5,4.4-3.9,7.8-3.8C236.2,302,236.9,302.2,237.4,303z"/>
	<path class="st17" d="M613.9,137.1c1.2-0.6,1.8-2.1,3.5-1.6c-0.2,0.4-0.2,0.8-0.3,1.2c-1.8,1.1-2,2.7-1.4,4.6
		c0.3,0.2,0.3,0.6,0.3,0.8c0.3,0.9,1.5,1.6,0.7,2.9c-0.3,0.4-0.8,0.6-1.2,0.4c-0.9-0.5-1.8-1.1-1.7-2.6c0-1.2-0.2-2.4-0.3-3.6
		C613.4,138.4,613.6,137.8,613.9,137.1z"/>
	<path class="st18" d="M622,111.7c-1.2-0.6-2.7-0.7-3.4,0.2c-0.9,0.9,0.8,1.6,1,2.4c0.2,1,1.3,1.9-0.1,2.9c-1,0.2-2,0.4-2.5-1
		c-0.3-2-0.1-3.9,1.3-5.6c0.7-0.8,1.2-1.4,0.2-2.3C621.7,107.6,620.2,111.3,622,111.7z"/>
	<path class="st15" d="M622.7,97.6c0.5-1.8,2-1.4,3.1-1.2c1.6,0.2,2.9,1.4,2.5,2.9c-0.2,1.1-2,1.4-3.2,0.9
		C624.1,99.7,622.5,99.3,622.7,97.6z"/>
	<path class="st19" d="M615.5,101.3c0-1.9,2.2-2.4,3.3-3.8c0.4-0.5,0.8-0.4,1.1,0c0.2,0.3,0.2,0.9,0,1.2c-1.1,1.6-2.2,3.2-3,4.9
		c-0.4,0.9-1.2,0.6-1.8,0.2C614.4,103.2,615.2,102.4,615.5,101.3z"/>
	<path class="st20" d="M323,264.5c1-1.1,2.5-0.9,3.8-0.8c1,0,1.5,0.8,1,1.8c-0.8,2.2-2.8,0.8-4.1,1
		C322.7,266.6,322.6,265.5,323,264.5z"/>
	<path class="st21" d="M661.5,65.2c-0.5,0.4,0,2.2-1.6,1.3c-1.2-0.6-1.2-1.8-0.8-3c0.2-0.8,0.6-2,1.8-1.3
		C662.3,62.8,662,64,661.5,65.2z"/>
	<path class="st22" d="M155,371.6c0.2-1.1,0.8-1.5,1.9-1.1c1.6,0.4,1.1,1.5,1.1,2.5c0,0.9-0.9,1.9-1.6,1.5
		C155.2,373.9,154.7,372.9,155,371.6z"/>
	<path class="st23" d="M631.2,146.8c1.5,0.8,1.5-1.4,2.6-1.4c0.8-0.2,1.6-0.2,2.5-0.1c0.1,0.1,0.2,0.2,0.2,0.3
		c-0.7,2.3-3.5,2.4-4.7,4.2C631.5,148.8,630.5,148,631.2,146.8z"/>
	<path class="st24" d="M554.5,184.9c0.5-1.4,1-1.9,2.1-1.8c1.1,0.2,1.2,1,1.2,2.1c-0.2,1.4-1.1,1.7-2.1,1.4
		C554.6,186.4,554.5,185.4,554.5,184.9z"/>
	<path class="st12" d="M392.2,315.5c0.5-0.8,1-1.5,2-1.2c1.2,0.4,1.6,1.1,1.2,2.3c-0.2,0.9-0.7,1.5-1.6,1.1
		C392.5,317.5,392.4,316.4,392.2,315.5z"/>
	<path class="st25" d="M724.9,34.3c0-1-1.8-2.5,0.3-2.9c2-0.5,1.8,1.7,2.3,2.9C726.8,35,726,35.8,724.9,34.3z"/>
	<path class="st26" d="M741.2,33.1c0-1.6,0.9-2.1,2.5-1.9c0.9,0.1,1.2,0.9,1,1.4c-0.5,1.5-1.7,1.5-3,1.1
		C741.3,33.7,741.2,33.4,741.2,33.1z"/>
	<path class="st27" d="M751,33.5c-1.5,0-2.5,2.5-4,0.5c-0.5-0.7-0.5-1.8,0.2-2.2C749.1,30.9,749.8,32.7,751,33.5z"/>
	<path class="st28" d="M469.2,141.6c0.9-2.9,1.8-5.6,2.6-8.5c0.9,0.2,2.2,1.1,1.2,1.7C470.6,136.6,471.1,139.9,469.2,141.6z"/>
	<path class="st28" d="M469.4,143.3c-0.8,1.3-2.2,1.8-3.4,2.8c-0.6-2.9-0.6-3.1,2.9-3.8C469,142.6,469.2,142.9,469.4,143.3z"/>
	<path class="st29" d="M435.1,265c0.5-1,1.3-1.9,2.4-1.5c1.1,0.4,0.4,1.4,0.4,2c-0.1,1.2-1,1.2-2,1C435.2,266,434.7,265.8,435.1,265
		z"/>
	<path class="st1" d="M639.1,146.2c-0.9-0.1-2,0.1-2.7-0.7l0.1,0.1c-0.4-1.1,0.1-1.9,0.7-2.6c0.8,0.2,1.9,0.1,2.8,0.9
		C640.3,144.9,640.2,145.8,639.1,146.2z"/>
	<path class="st30" d="M619.2,159.9c-0.8-0.4-1.3-0.9-1.1-1.9c0.3-1.1,1-1.1,1.8-0.9c0.8,0.2,1.1,0.7,0.8,1.6
		C620.8,159.7,620.2,160.2,619.2,159.9z"/>
	<path class="st31" d="M584,216.1c0.8,0.4,1,0.9,0.7,1.6c-0.4,0.9-1.2,0.9-2,0.6c-0.6-0.3-0.7-0.8-0.5-1.4
		C582.5,216,583.2,215.9,584,216.1z"/>
	<path class="st32" d="M181.6,338.9c0.2-0.6,0.4-1.3,1.4-0.6c0.5,0.4,1.4,0.4,1.2,1.4s-1.1,1-1.9,0.9
		C181.5,340.2,181.3,339.6,181.6,338.9z"/>
	<path class="st33" d="M190.8,335.2c-0.4,0.9-0.4,1.9-1.8,1.4c-0.6-0.2-0.9-0.6-0.7-1.3c0.4-1.5,1.4-1.5,2.6-1.1
		C191.2,334.7,191.2,335,190.8,335.2z"/>
	<path class="st26" d="M206.2,322.4c0.2-0.9,0.9-0.9,1.6-0.7c0.8,0.2,1.1,0.8,0.9,1.5s-0.8,0.7-1.4,0.5
		C206.6,323.5,206.1,323.2,206.2,322.4z"/>
	<path class="st34" d="M212.4,315.3c1.6,0.5,1.4,1,1.2,1.5c-0.2,0.9-0.9,0.9-1.6,0.9c-0.7-0.1-0.9-0.6-0.7-1.2
		C211.8,315.5,212.4,315.2,212.4,315.3z"/>
	<path class="st35" d="M560.5,184.4c-1-0.3-2.2-0.6-1.8-1.8c0.5-1.4,1.7-0.8,2.7-0.1C561.5,183.3,561.3,183.9,560.5,184.4z"/>
	<path class="st36" d="M396.1,318.6c0.4,1.5,0.5,2.9-0.9,3.9c-0.1,0.1-0.8-0.2-0.8-0.4C394.2,320.7,395,319.6,396.1,318.6z"/>
	<path class="st37" d="M586.5,149.4c-1.3-0.4-2.6-0.8-4-1.2C583.8,146.4,583.8,146.4,586.5,149.4z"/>
	<path class="st38" d="M178.4,355c-0.9-0.4-0.8-1-0.4-1.7c0.4-0.8,0.9-1,1.6-0.6c0.6,0.3,0.6,0.9,0.2,1.5
		C179.7,354.8,179.3,355.4,178.4,355z"/>
	<path class="st17" d="M344.6,269.6c-1.8-1.5-3-0.1-4.5,0.9C341.6,267.1,342.1,267,344.6,269.6z"/>
	<path class="st39" d="M222.4,311.9c-0.8-0.4-1.1-0.8-0.9-1.5c0.2-0.8,0.8-0.6,1.2-0.5c1.1,0.1,0.7,0.8,0.6,1.5
		C223.4,311.8,223,312.1,222.4,311.9z"/>
	<path class="st40" d="M916.3,39.5c0.8,0.5,2,0.2,2.7,1.2c-0.8,1.5-1.8,0.2-2.8,0.3c-0.8-0.2-1.2-0.6-1.3-1.5
		C915.3,38.8,915.8,38.7,916.3,39.5z"/>
	<path class="st18" d="M637.3,142.9c-0.2,0.9-0.5,1.8-0.7,2.6c-1,0.4-2,0.2-2.8-0.2C635,144.6,636.2,143.8,637.3,142.9z"/>
	<path class="st39" d="M914.8,39.7c0.6,0.3,1.2,0.6,1.2,1.3c-0.1,1-0.8,1.2-1.5,0.8c-1.3-0.7-0.3-1.4-0.2-2.1
		C914.5,39.3,914.7,39.3,914.8,39.7z"/>
	<path class="st41" d="M629.6,123.7c0.3-0.5,0.8-0.8,1.3-0.7s0.8,0.8,0.7,1.3s-0.8,0.8-1.3,0.7C629.6,124.8,629.4,124.2,629.6,123.7
		z"/>
	<path class="st42" d="M477.7,132c0.2-0.6,0.8-0.4,1.2-0.2c0.8,0.2,0.9,0.9,0.7,1.6s-0.7,0.8-1.4,0.4
		C477.5,133.5,477.5,132.8,477.7,132z"/>
	<path class="st43" d="M515,148.1c-1.9,0.4-1.9,0.4-1.2-2.6C515.2,145.8,514.6,147.1,515,148.1z"/>
	<path class="st44" d="M666,59.5c0.2-0.8,1-0.7,1.7-0.7c0.7,0.1,0.5,0.5,0.5,1c-0.2,0.8-0.7,1.1-1.5,1
		C665.9,60.7,665.8,60.2,666,59.5z"/>
	<path class="st34" d="M626.4,125.4c0.2-0.8,0.7-0.8,1.3-0.7c0.5,0.2,0.8,0.4,0.7,0.9c-0.2,0.6-0.5,1.1-1.2,0.9
		C626.7,126.5,626.3,126,626.4,125.4z"/>
	<path class="st3" d="M661.7,177.8c-0.7,0.5-1.3,1.1-1.9,1.6c-0.5-0.5-1.1-1.1-0.5-1.7C660,176.8,660.9,177.6,661.7,177.8z"/>
	<path class="st45" d="M388.4,316.1c0.2-0.9,0.5-1.8,0.8-2.6C390.7,315,390.5,315.8,388.4,316.1z"/>
	<path class="st46" d="M334.8,262c0.2-0.6,0.4-1.2,1.1-1c0.8,0.2,0.8,0.7,0.5,1.2c-0.3,0.5-0.5,1.4-1.3,1
		C334.4,263.2,334.8,262.5,334.8,262z"/>
	<path class="st17" d="M724.9,34.3c0.9,0.7,1.8,0.2,2.7,0c-0.5,0.8-1,1.8-2.2,1.6C724.7,35.8,724.7,35,724.9,34.3z"/>
	<path class="st47" d="M689.3,47c0.7-0.7,1.2-1.3,2.1-0.9c0.1,0,0.2,0.7,0,0.8C690.7,47.8,690.1,47.5,689.3,47z"/>
	<path class="st48" d="M631.2,146.8c0.2,1.1,1.1,1.8,0.8,3C631,148.9,629.1,148.4,631.2,146.8z"/>
	<path class="st49" d="M486.9,137.9c0.4-0.9,0-2.1,1.4-2.4C488.9,136.8,488.8,137.9,486.9,137.9z"/>
	<path class="st50" d="M432.5,253c0.2-0.9,0.5-1.8,0.8-2.6C435.1,251.9,433.9,252.5,432.5,253z"/>
	<path class="st51" d="M502.4,138.2c-0.9-0.2-1.8-0.6-2.8-0.8C501,136.9,502.2,135.7,502.4,138.2z"/>
	<path class="st52" d="M790.1,7.1c0.2-0.4,0.5-0.8,1-0.6c0.3,0.2,0.5,0.8,0.5,1.1c0,0.6-0.4,0.6-1,0.4C790.2,8,790,7.7,790.1,7.1z"
		/>
	<path class="st53" d="M459.7,197.6c0.4-0.1,0.7-0.4,1-0.3c0.5,0.1,0.8,0.5,0.5,0.9c0,0.2-0.5,0.2-0.9,0.1
		C460.1,198.3,460,197.9,459.7,197.6z"/>
	<path class="st43" d="M476.8,195.7c0.2-0.6,0.3-1.4,0.5-2c0.5,0.3,1,0.4,1,1.1C478.2,195.8,477.5,195.8,476.8,195.7z"/>
	<path class="st54" d="M572.5,134.2c-0.2,1-0.1,2.2-1.8,1.5C571,134.9,571.2,134,572.5,134.2z"/>
	<path class="st55" d="M618.5,173c-0.1,0.7-0.3,1.4-0.4,2.1c-0.7-0.2-1.2-0.6-0.8-1.4C617.4,172.9,618,172.9,618.5,173z"/>
	<path class="st56" d="M527,133.1c-0.5,0.7-0.3,2.1-1.8,1.7C525.3,133.9,525.5,132.7,527,133.1z"/>
	<path class="st57" d="M681.6,183c0.3-0.2,0.5-0.6,0.8-0.6c0.6,0.1,0.7,0.6,0.4,0.9c0,0.2-0.5,0.4-0.7,0.4
		C681.9,183.7,681.8,183.3,681.6,183z"/>
	<path class="st58" d="M642.2,68.6c0.2-0.8,0.8-0.6,1.1-0.5c0.2,0.1,0.6,0.3,0.5,0.6c0,0.3-0.2,0.9-0.8,0.6
		C642.7,69.1,642.5,68.8,642.2,68.6z"/>
	<path class="st59" d="M479.9,120.7c0.4-0.5,0.5-1.1,1-0.7c0.2,0.2,0.2,0.6,0.2,0.9c-0.1,0.4-0.5,0.8-1,0.7
		C479.9,121.4,480,120.8,479.9,120.7z"/>
	<path class="st20" d="M657.8,178.6c-0.7-0.2-1.2-0.4-1.8-0.6c0.2-0.8,0.6-1.1,1.5-0.8C658.2,177.6,657.9,178.1,657.8,178.6z"/>
	<path class="st60" d="M521.9,163.8c0.2-1.8,1.4-1,2.3-0.9C523.8,164.2,522.8,164.1,521.9,163.8z"/>
	<path class="st61" d="M807.3,30.8c0.2-0.6,0.3-1.4,0.5-2c0.6,0.3,1.2,0.6,0.8,1.5C808.3,30.9,807.8,30.8,807.3,30.8z"/>
	<path class="st62" d="M190.8,335.2c0.1-0.4,0.1-0.7,0.2-1c0.3-0.5,0.5-0.9,0.8-1.5c0.2,0.2,0.6,0.3,0.6,0.5
		C192.6,334.6,191.6,334.9,190.8,335.2z"/>
	<path class="st63" d="M251,300.2c0.6,0.1,0.7,0.5,0.6,1c-0.1,0.5-0.2,0.9-0.9,0.8c-0.4,0-0.9-0.4-0.6-1S250.5,300.3,251,300.2z"/>
	<path class="st64" d="M387.6,336.7c0.1,0.4,0.4,0.7,0.2,1c-0.1,0.5-0.4,0.9-0.9,0.5c-0.2,0-0.1-0.6-0.1-0.9
		C387,337.2,387.3,337.1,387.6,336.7z"/>
	<path class="st65" d="M444,166.8c-0.2,1-0.4,2.1-1.9,1.7C442.3,167.4,442.5,166.4,444,166.8z"/>
	<path class="st66" d="M481.4,180.6c0.4-1.6,1.4-1,2.4-0.6C483.2,181.2,482.3,181.1,481.4,180.6z"/>
	<path class="st67" d="M415.5,249.9c-0.2,0.6-0.5,1.3-0.7,1.9c-0.5-0.3-1-0.6-1-1.2C414.1,249.7,414.8,249.8,415.5,249.9z"/>
	<path class="st43" d="M416,204.1c-0.2,0.6-0.4,1.3-0.6,1.9c-0.5-0.3-1-0.6-0.8-1.2C414.6,204.1,415.1,203.9,416,204.1z"/>
	<path class="st68" d="M640.8,90.2c0.2,0.3,0.5,0.5,0.8,0.7c-0.3,0.2-0.5,0.4-0.8,0.5s-0.3-0.3-0.7-0.6
		C640.3,90.6,640.7,90.4,640.8,90.2z"/>
	<path class="st69" d="M481.8,104.1c-0.5-0.3-1-0.4-0.8-0.9c0.1-0.6,0.5-0.7,1-0.4c0.3,0.2,0.6,0.7,0.6,1.1
		C482.7,104.3,482,103.9,481.8,104.1z"/>
	<path class="st70" d="M585.7,142.6c-0.3-0.4-0.7-1.1-1-1.5c0.7,0.2,1.7-0.4,2,0.6C586.8,142.4,586.3,142.8,585.7,142.6z"/>
	<path class="st71" d="M560.5,184.4c0.3-0.6,0.5-1.3,0.8-1.9c0.5,0.3,1,0.6,0.7,1.2C561.8,184.2,561.1,184.4,560.5,184.4z"/>
	<path class="st72" d="M741.2,33.1c0.2,0.3,0.2,0.5,0.4,0.7c-0.3,0.3-0.5,1.7-1.3,0.8C739.7,33.9,740.8,33.5,741.2,33.1z"/>
	<path class="st73" d="M99.5,408.6c-0.8-0.2-0.9-0.8-0.7-1.5c0.2-0.6,0.5-1.3,1.3-0.9c0.8,0.4,1.1,0.8,0.8,1.5
		C100.7,408.6,100.2,408.8,99.5,408.6z"/>
	<path class="st74" d="M541.2,150.3c1.5-1.7,3.8-2.6,5.4-4.3c1.5-1.7,5,0.1,5.8,2.8c0.2,0.3,0,0.6-0.2,0.8c-1.3,0.8-0.9,1.8-0.3,2.6
		c-0.3,1.4-1,2.2-2.5,1.4c-1.2,0.4-2.2-1.9-3.5-0.5C543.9,153.1,542.7,151.4,541.2,150.3z"/>
	<path class="st75" d="M560.3,150.6c1.7-0.3,2.8-1.2,3.1-3c0.2-1.5,1.3-2.4,2.7-1.4c1.6,1.1,4.5-0.9,5,1.6c0.5,2.6-2.8,2.8-4,4.1
		c-0.7,0.5-1.5,0.2-2.2,0.6c-1.8,0.6-3.2-0.1-4.8-0.6C559.7,151.4,559.8,150.9,560.3,150.6z"/>
	<path class="st76" d="M560.3,150.6c-0.2,0.4-0.2,0.9-0.3,1.4c-1.1-0.4-2.2-0.7-3.2-1c-0.9,0.9-2,0.9-3,0.5c-1-0.3-1.7-0.9-1.5-2.1
		c0-0.2,0.2-0.4,0.3-0.6C554.7,150.6,557.7,149.9,560.3,150.6z"/>
	<path class="st77" d="M552.1,149.4c0.6,0.4,1.2,0.9,1.8,1.4c0.3,0.6,0.2,0.9-0.2,1.2c-0.5,0.1-1,0.1-1.5,0.2
		c-0.8-0.6-2.5-0.1-2.3-1.9C549.8,149,551,149.4,552.1,149.4z"/>
	<path class="st78" d="M545.9,153.2c1.8-4,2.5-0.2,3.5,0.5C548.2,154.2,547,153.6,545.9,153.2z"/>
	<path class="st79" d="M619.4,131.8c-1,1-2.4,0.4-2.4-0.4c-0.1-1.9,1.8-1.4,3-1.7C620.3,130.4,620,131.2,619.4,131.8z"/>
	<path class="st80" d="M573.3,150.4c0,0.2-0.2,0.4-0.2,0.6c0,0.6,0,1.3,0,1.9c-1-0.1-2.2-0.2-1.9-1.6
		C571.3,150.1,572.4,150.2,573.3,150.4z"/>
	<path class="st81" d="M553.4,152.1c0.2-0.4,0.2-0.9,0.2-1.2c1,0.1,1.9,0,2.8,0.1C556.2,153.1,554.8,152.6,553.4,152.1z"/>
	<path class="st82" d="M622.2,142.6c0.5,1.6,0.7,2.6-0.5,3.4c-0.2,0.1-0.6-0.1-0.6-0.1C620.7,144.6,621.1,143.6,622.2,142.6z"/>
	<path class="st83" d="M613.9,137.1c0.7,0.9,0.5,1.6-0.6,1.9c-0.7-0.2-1.3-0.4-1-1.4C612.7,136.9,613.2,136.9,613.9,137.1z"/>
	<path class="st33" d="M617,116.3c0.8,0.4,1.6,0.6,2.5,1C618,118.8,617.1,118.4,617,116.3z"/>
	<path class="st84" d="M564.8,152.6c0.5-1.1,1.3-1.1,2.2-0.6c-0.2,0.4-0.2,0.9-0.4,1.3C565.9,153.1,565.3,152.8,564.8,152.6z"/>
	<path class="st85" d="M619.4,131.8c0.2-0.6,0.3-1.4,0.5-2.1c0.7,0.1,1.3,0.4,1,1.3C620.8,131.7,620.2,132,619.4,131.8z"/>
	<path class="st56" d="M617.2,119.9c-1-0.1-2,0.1-1.8-1.2c0-0.2,0.3-0.5,0.5-0.8C616.3,118.6,616.8,119.2,617.2,119.9z"/>
	<path class="st86" d="M616,142.1c-0.4-0.2-0.5-0.5-0.3-0.8c0.5,0.3,1.5-0.7,1.8,0.2C617.7,142.4,616.5,141.9,616,142.1z"/>
</g>
</svg>
