<?xml version="1.0" encoding="utf-8"?>
<!-- Generator: Adobe Illustrator 27.0.1, SVG Export Plug-In . SVG Version: 6.00 Build 0)  -->
<svg version="1.1" xmlns="http://www.w3.org/2000/svg" xmlns:xlink="http://www.w3.org/1999/xlink" x="0px" y="0px"
	 viewBox="0 0 680 316" style="enable-background:new 0 0 680 316;" xml:space="preserve">
<style type="text/css">
	.st0{fill:#B50000;}
	.st1{fill:#FFFFFF;}
	.st2{fill:#00740C;stroke:#FFFFFF;stroke-miterlimit:2;}
	.st3{fill:#FFFFFF;stroke:#B50000;stroke-miterlimit:2;}
	.st4{display:none;}
	.st5{display:inline;}
	.st6{fill:#FDFDFD;}
	.st7{fill:#FEFEFE;}
	.st8{fill:#B91212;}
	.st9{fill:#C33434;}
	.st10{fill:#FEFDFD;}
	.st11{fill:#FDF9F9;}
	.st12{fill:#FDFBFB;}
	.st13{fill:#FDFCFC;}
	.st14{fill:#FCF8F8;}
	.st15{fill:#B91111;}
	.st16{fill:#FCF6F6;}
	.st17{fill:#BB1717;}
	.st18{fill:#F9ECEC;}
	.st19{fill:#B80F0F;}
	.st20{fill:#FDFAFA;}
	.st21{fill:#FAF1F1;}
	.st22{fill:#FAF2F2;}
	.st23{fill:#BC1B1B;}
	.st24{fill:#C02929;}
	.st25{fill:#F4DDDD;}
	.st26{fill:#FBF4F4;}
	.st27{fill:#F6E2E2;}
	.st28{fill:#F9EEEE;}
	.st29{fill:#F6E5E5;}
	.st30{fill:#F7E5E5;}
	.st31{fill:#EDC5C5;}
	.st32{fill:#F2D6D6;}
	.st33{fill:#FAF0F0;}
	.st34{fill:#BC1E1E;}
	.st35{fill:#F6E4E4;}
	.st36{fill:#F6E3E3;}
	.st37{fill:#E3A2A2;}
	.st38{fill:#F8EAEA;}
	.st39{fill:#F8EBEB;}
	.st40{fill:#F2D5D5;}
	.st41{fill:#ECC1C1;}
	.st42{fill:#FCF7F7;}
	.st43{fill:#BE2525;}
	.st44{fill:#EBBFBF;}
	.st45{fill:#F9EDED;}
	.st46{fill:#F5E0E0;}
	.st47{fill:#EABCBC;}
	.st48{fill:#EDC7C7;}
	.st49{fill:#CB5050;}
	.st50{fill:#F3D9D9;}
	.st51{fill:#C12D2D;}
	.st52{fill:#FAF3F3;}
	.st53{fill:#BA1515;}
	.st54{fill:#BD1E1E;}
	.st55{fill:#C64040;}
	.st56{fill:#C43939;}
	.st57{fill:#C53D3D;}
	.st58{fill:#C12F2F;}
	.st59{fill:#BC1D1D;}
	.st60{fill:#BF2424;}
	.st61{fill:#BF2828;}
	.st62{fill:#CC5555;}
	.st63{fill:#BF2727;}
	.st64{fill:#E9B6B6;}
	.st65{fill:#EEC6C6;}
	.st66{fill:#CA4C4C;}
	.st67{fill:#BA1616;}
	.st68{fill:#F3DADA;}
	.st69{fill:#F0D1D1;}
	.st70{fill:#BF2525;}
	.st71{fill:#E8B3B3;}
	.st72{fill:#C22F2F;}
	.st73{fill:#BE2222;}
	.st74{fill:#C12E2E;}
	.st75{fill:#F7E6E6;}
	.st76{fill:#D36C6C;}
	.st77{fill:#C84747;}
	.st78{fill:#CB5151;}
	.st79{fill:#BF2626;}
	.st80{fill:#B60505;}
	.st81{fill:#B60808;}
	.st82{fill:#D16666;}
	.st83{fill:#F5E1E1;}
	.st84{fill:#BB1919;}
	.st85{fill:#BD2020;}
	.st86{fill:#E09999;}
	.st87{fill:#E4A6A6;}
	.st88{fill:#C43737;}
	.st89{fill:#BB1616;}
	.st90{fill:#BD2121;}
	.st91{fill:#DA8383;}
	.st92{fill:#D16363;}
</style>
<g id="background_00000038380955647615797990000011762886567443479941_">
	<rect x="-10" y="-2" class="st0" width="700" height="320"/>
</g>
<g id="layer">
	<g id="skeleton_00000083047230118401234350000008329479637415903148_">
		<path class="st1" d="M155,170.4c-0.3-0.1-4.8-2.6-9.1-0.1c-3.3,1.8-4.2,5.1-4.4,5.7c2,2.1,2.8,3.9,2.4,5.3
			c-1.1,3.7-10.5,4.9-28.1,3.7c-2.8-2.8,0.9-6.3-0.4-8.6c-1.2-2,3.2-1.1,4-2.5c1.4-3.1-2.5-6.4-3.1-9.1c-7.2-3.1-2.3-5.6,0.7-9.6
			c2.4-4.9-1.3-7.9,1.8-12.3c4-7.2,5.8-16.9,13-22.8c15.8-11.8,41.5-17.3,58.2-4.6c17.2,11.1,23,40.6,11.8,55.5
			c-6.1,6.3-14.7,5.8-21.8,9.7c-3.6,1.3-5.6,6.2-8.5,2.7c-0.6-1.7-1.5-3.9-3.4-6.1C163.2,171.8,156.9,170.7,155,170.4z"/>
		<path class="st1" d="M161.5,182.2c1.6,13.3-2.3,17.3-14.7,21.3c-8.6,2.8-20.5,10.4-29.6,6.2c-6.8-5.1,1.9-10.9,1-15.2
			c1.7,0.1,3.5,0,5.4-0.1c9-0.7,16.1-4,20.9-6.9c-0.3-11.3,0.2-17.1,1.6-17.3c0.8-0.1,1.8,1.5,3,4.8c6.5,8.9,11.6-9.6,13.7-3.4
			C162.5,172.5,161.5,179.1,161.5,182.2z"/>
		<path class="st0" d="M159.3,172.1c-9.4,15.9-12.1-6.3-13.8-0.6c0,7,3.5,18.2-3.4,22.5c0.4-2.1,4.4-4.3,2.7-6.6
			c-0.7-1.5-1.4-3-2.2-4.4c1.9-2.4-1-6-2.6-7.9c-0.9,0.4-1.8,0.9-2.7,1.3c-1.9,0.1-3.4,1.1-5.5,0.9c-3.4-0.1-2.5-4.4-5.1-5.7
			c-0.7-0.9-5.1-3.2-3.3-4.1c1.5,2.1,4.3,3.4,5.8,5.6c0.2,1.6,1.1,2.9,2.4,3.3c0.8,0.2,1.5,0.1,1.8-0.1
			C144.6,174.7,145.4,162.6,159.3,172.1z"/>
		<path class="st0" d="M130.9,155.7c0.6,2.2,0.5,3.9,0.4,4.3c-0.5,3.9-3.5,7.7-5.4,7.3c-1.8-0.4-2.9-4.5-2.7-10.1
			c-0.5-2.2-2.3-5.5-1.7-7.7C122.6,143.7,130.3,153.4,130.9,155.7z"/>
		<path class="st0" d="M143,165.5c9.7-1.3,19.1,1.9,20.9,1.5c0.1,0,0.6-0.1,0.7,0.1c0.1,0.1,0.1,0.3-0.1,0.7
			c-9,2.1-18.1-3.3-26.9-0.2c-5.5,0.1-1.1-9.2-3.4-12.8c-3.1-7.1-5.6-11.9,1.6-17.5c0.2-0.2,0.8-0.4,0.9-0.2c0.4,0.5-2.9,2.7-4.2,6
			c-2.1,5.4,3.8,8.4,3.3,17.4c-0.1,2.2-0.6,4.1,0.6,5.2C137.7,166.7,139.6,165.9,143,165.5z"/>
		<path class="st2" d="M155.6,115.2c1.6,5.5-0.3,7.6,1.4,12.8c1.6,5,5.1,8.5,7.8,10.7c-1.2-7.7-0.7-16.3,3.1-23.4
			c0.5-1.3,1.9-1.1,1.4,0.4c1.5,5.2,4.7,10.2,5.6,15.8c3.1,8.4-1.1,17.5,4.4,24.9c0.1,2.4,3.2,13.2,3.3,8.1
			c-2.4-9.1-1.1-19.1,5.2-26.2c4-3.3,1.2,5.2,1.9,7.3c2.8,10,5.8,20.5,2.6,30.8c-0.3,2.3,0.7,6.1,3.5,5.8c-0.3-6.1-2-13,0.6-19.2
			c0.9-2.2,6.8-10.8,6.1-4.5c-0.3,4.7,2.8,8.6,4.6,12.7c1.1,14.5-6.5,27.9-3.6,42.3c1.2,10.1-2.2,1.2-3.4-2.5
			c-1.8-3.1-5.4-4.4-7.1-7.7c-2.1-5-7-3.7-11.4-3.5c-2.3-1.6-14.7-1.5-8.3-4.8c14.2-12.6,26.9-4.9,15.5-14.6
			c-5.1-1.4-10.5,1.2-15.8,0.4c-4.7-1.9-9.9-4.7-14.4-0.3c-5.5,3.8,0.8-11,3.7-11.4c6.6-4.2,13.7-1.4,19.5,2.1c-0.6-1-4-2.4-2.2-3.8
			c2-2.1-8.7-5.6-10.3-8.4c-12.1,0.4-20.3-9.1-26.7-18.4c-2.2-5.3,13.5,2.3,13-0.5c-2-3.2,2.8-0.7,3.7-1.8c-0.4-0.9-1.1-2.1-2.4-3.3
			c-4-3.8-8.3-2.3-14.8-3.9c-8.9-2.2-9.7-6.7-16.6-7.4c-2.4-0.2-5.3,0.4-9.2,2.8c-4.2,1.9-12.2,2.8-15.5-0.4
			c2-1.3,13.1-9.7,8.8-11.8c-4.1-3-7.4-7.4-9.9-11.7c1.1-1.2,3.8,1.2,5.6,0.4c6.1,0.6,12.8-0.7,18.3,2.8c1.5,0.2,6.9,5.2,6.4,1.7
			c-2.5-11.6,5-1.1,11,0c2.4,0.5,5.5,5.4,3.8-4.7C147,101.6,153.4,107.6,155.6,115.2z"/>
		<g id="tooth_00000001644916485164852050000016456032093180517283_">
			<path class="st3" d="M142.3,189.8c-2.1,1.9-5-0.8-3.3-3C142.2,186.1,147.4,186,142.3,189.8z"/>
			<path class="st3" d="M138.5,191.6c-2.5,2.5-5.1-2.9-1.9-3.4C138.8,186.9,140.4,190.5,138.5,191.6z"/>
			<path class="st3" d="M133,188.8c5.2-2.5,1.4,7.8-1.4,3.1C131,190.1,131.2,189.2,133,188.8z"/>
			<path class="st3" d="M130.2,189.7c0.2,0,0.3,0.1,0.4,0.2c0.7,0.5,0.7,1.5,0.7,1.7c0,1.4-0.8,2.6-2.3,2.4
				C125.7,189.1,128.5,191.1,130.2,189.7z"/>
			<path class="st3" d="M126,194.1c-1-1.1-1.7-2.7-0.9-4.2c0.5,0.3,0.9,0.5,1.5,0.1C127.7,189.4,128.6,196,126,194.1z"/>
			<path class="st3" d="M123,190.3c0.9,0.2,1.1-0.5,1.5-1c0.3,1.6,1.6,4.7-0.1,5.7C122.4,195.7,121.8,191,123,190.3z"/>
			<path class="st3" d="M121.2,195.1c-1.7,0.1-1.1-2.4-2-3.5c-0.2-1.1,0.8-1,1.5-1.4c0.3-0.4,0.5-0.7,1-0.6
				C122.8,191.1,123.2,194.4,121.2,195.1z"/>
			<path class="st3" d="M118.3,189.6c1,0.9,1.9,3.8,0.9,4.8C117.3,195.7,115.5,189.1,118.3,189.6z"/>
			<path class="st3" d="M142.7,182.9c2.7,3.3-3.4,6.1-4,2.1C137.9,183,141.9,181.2,142.7,182.9z"/>
			<path class="st3" d="M137.4,184.1c3,0.2,1.5,4.9-1.7,4.2c-0.9-0.7-0.9-3.2-0.3-3.8C136.1,184.6,136.8,184.4,137.4,184.1z"/>
			<path class="st3" d="M134.6,184.3c1.5,2,0.9,4.6-2,4.8C128.4,190,129.3,183.1,134.6,184.3z"/>
			<path class="st3" d="M130,186.3c0.7,1.5,0.8,4.5-1.7,3.7C125.7,188.7,128,182.5,130,186.3z"/>
			<path class="st3" d="M126.1,185.3c1.9,0.5,1.4,6.6-0.9,4.6C124.8,188.8,124.1,184.8,126.1,185.3z"/>
			<path class="st3" d="M121.9,189.9c-1-1.7-0.7-7.1,2-4.4C125.5,186.2,124.5,191.3,121.9,189.9z"/>
			<path class="st3" d="M119.5,184.3c3,0.7,2.5,8.6-1.1,5.7C117.3,188.3,117.7,185.2,119.5,184.3z"/>
			<path class="st3" d="M118.4,185.3c-0.8,1,0.1,3.5-0.8,4C113.7,192.8,115.5,179.6,118.4,185.3z"/>
		</g>
	</g>
	<g>
		<path class="st1" d="M268.8,120.4c0,1.5-0.3,2.8-0.9,3.9s-1.4,2.1-2.4,2.8c-1,0.7-2.1,1.3-3.3,1.6c-1.2,0.3-2.5,0.5-3.8,0.5h-3.2
			v8.5c0,0.5,0.1,0.9,0.2,1.2c0.1,0.3,0.5,0.6,0.9,0.8c0.2,0.1,0.7,0.2,1.3,0.3c0.6,0.1,1.2,0.1,1.7,0.1v1.4h-12.1v-1.4
			c0.3,0,0.8-0.1,1.4-0.1c0.6-0.1,1-0.1,1.3-0.3c0.4-0.2,0.7-0.4,0.9-0.8c0.2-0.3,0.3-0.8,0.3-1.3v-20.3c0-0.5-0.1-0.9-0.2-1.2
			c-0.1-0.4-0.5-0.7-0.9-0.8c-0.5-0.2-1-0.3-1.5-0.4c-0.5-0.1-0.9-0.1-1.3-0.1v-1.4H260c2.6,0,4.8,0.6,6.4,1.9
			C268,116.6,268.8,118.3,268.8,120.4z M262.8,125.2c0.5-0.6,0.7-1.3,0.9-2c0.1-0.7,0.2-1.3,0.2-1.8c0-0.8-0.1-1.5-0.3-2.3
			c-0.2-0.8-0.5-1.5-0.9-2c-0.5-0.6-1.1-1.1-1.8-1.5c-0.8-0.3-1.7-0.5-2.8-0.5h-2.8v12.5h2c1.4,0,2.6-0.2,3.5-0.7
			C261.6,126.4,262.3,125.8,262.8,125.2z"/>
		<path class="st1" d="M298.3,141.6h-11.7v-1.4c1-0.1,1.9-0.2,2.6-0.4c0.7-0.2,1-0.5,1-0.7c0-0.1,0-0.3,0-0.4c0-0.2-0.1-0.3-0.1-0.5
			l-2.3-6.3h-9.9c-0.4,0.9-0.7,1.7-0.9,2.4c-0.2,0.7-0.4,1.3-0.6,1.9c-0.2,0.6-0.3,1-0.4,1.4c-0.1,0.4-0.1,0.7-0.1,0.9
			c0,0.5,0.4,0.9,1.2,1.2c0.8,0.3,1.8,0.5,2.8,0.5v1.4h-10.6v-1.4c0.3,0,0.8-0.1,1.3-0.2c0.5-0.1,0.9-0.3,1.3-0.5
			c0.5-0.4,0.9-0.7,1.2-1.1c0.3-0.4,0.6-0.9,0.9-1.6c1.4-3.5,3-7.5,4.7-11.9s3.2-8.3,4.6-11.8h1.6l9.4,24.3c0.2,0.5,0.4,0.9,0.7,1.2
			c0.2,0.3,0.6,0.6,1,0.9c0.3,0.2,0.7,0.3,1.2,0.5c0.5,0.1,0.9,0.2,1.2,0.2L298.3,141.6L298.3,141.6z M287,130.1l-4.3-10.9
			l-4.2,10.9H287z"/>
		<path class="st1" d="M326.3,141.6h-13.2v-1.4c1.1,0,2-0.1,2.6-0.3s1-0.5,1-0.8c0-0.2-0.1-0.6-0.5-1.2s-0.7-1.3-1.2-2.1
			c-0.5-0.8-1.2-1.8-1.9-3c-0.7-1.1-1.5-2.2-2.2-3.3c-1.2,1.5-2.5,3.4-4,5.5c-1.5,2.2-2.2,3.4-2.2,3.8c0,0.4,0.2,0.8,0.6,1
			c0.4,0.2,1.3,0.3,2.7,0.4v1.4h-10.5v-1.4c0.3,0,0.8-0.1,1.3-0.1c0.5-0.1,1-0.2,1.3-0.4c0.7-0.4,1.2-0.8,1.7-1.2
			c0.4-0.4,0.8-0.9,1.3-1.5c0.8-1.2,1.9-2.6,3.3-4.4c1.3-1.7,2.5-3.3,3.5-4.8c-0.8-1.1-1.7-2.6-2.9-4.3c-1.2-1.7-2.5-3.6-3.8-5.5
			c-0.6-0.8-1-1.4-1.3-1.8c-0.3-0.3-0.8-0.6-1.3-0.9c-0.3-0.1-0.8-0.3-1.3-0.3s-1-0.1-1.3-0.2v-1.4h13v1.4c-0.8,0-1.6,0.1-2.4,0.3
			c-0.8,0.2-1.2,0.4-1.2,0.8c0,0.2,0.2,0.7,0.5,1.3s0.7,1.3,1.2,2c0.5,0.7,1,1.6,1.6,2.5c0.6,0.9,1.3,1.9,2.1,3.1
			c1.5-2,2.8-3.8,3.9-5.5c1.1-1.6,1.6-2.7,1.6-3.2c0-0.4-0.2-0.7-0.7-0.9c-0.5-0.2-1.3-0.3-2.5-0.4v-1.4h10.5v1.4
			c-0.3,0-0.8,0.1-1.3,0.1c-0.5,0.1-1,0.2-1.3,0.4c-0.7,0.3-1.2,0.7-1.5,1.1c-0.3,0.4-0.8,0.9-1.4,1.7c-1.1,1.4-2,2.6-2.9,3.8
			c-0.9,1.2-2,2.7-3.2,4.4c1.1,1.5,2.2,3.2,3.5,5.1c1.3,1.9,2.6,3.7,3.7,5.5c0.4,0.6,0.9,1.2,1.4,1.7c0.5,0.5,1,0.9,1.3,1.1
			c0.3,0.2,0.7,0.3,1.3,0.3c0.5,0,1,0.1,1.4,0.1V141.6z"/>
		<path class="st1" d="M355.6,128.7c0.6,0.7,1,1.4,1.3,2.2c0.3,0.8,0.4,1.7,0.4,2.7c0,2.5-0.9,4.5-2.8,6.2s-4.1,2.4-6.9,2.4
			c-1.3,0-2.5-0.2-3.8-0.6c-1.3-0.4-2.3-0.9-3.3-1.4l-0.9,1.5h-1.6L338,132h1.6c0.3,1.2,0.7,2.3,1.2,3.2c0.5,1,1,1.9,1.8,2.7
			c0.7,0.8,1.5,1.4,2.4,1.9c0.9,0.5,2,0.7,3.2,0.7c0.9,0,1.7-0.1,2.4-0.4c0.7-0.2,1.2-0.6,1.7-1c0.4-0.4,0.7-0.9,0.9-1.5
			s0.3-1.3,0.3-2c0-1.1-0.3-2.2-1-3.2c-0.6-1-1.6-1.7-2.8-2.2c-0.9-0.3-1.8-0.7-3-1.1c-1.1-0.4-2.1-0.8-2.9-1.2
			c-1.6-0.7-2.8-1.7-3.7-2.8c-0.9-1.2-1.3-2.7-1.3-4.5c0-1.1,0.2-2.1,0.7-3c0.4-0.9,1.1-1.8,1.9-2.5c0.8-0.7,1.7-1.2,2.7-1.6
			c1-0.4,2.1-0.6,3.3-0.6c1.3,0,2.5,0.2,3.5,0.6c1,0.4,2,0.9,2.8,1.4l0.8-1.4h1.6l0.2,9.4h-1.6c-0.3-1.1-0.6-2.1-1-3.1
			c-0.4-1-0.8-1.9-1.4-2.7c-0.6-0.8-1.3-1.4-2.1-1.8s-1.8-0.7-3-0.7c-1.3,0-2.3,0.4-3.2,1.2c-0.9,0.8-1.3,1.8-1.3,3
			c0,1.2,0.3,2.2,0.9,3c0.6,0.8,1.4,1.5,2.5,2c1,0.5,1.9,0.9,2.8,1.2c0.9,0.3,1.8,0.7,2.7,1.1c0.8,0.3,1.6,0.7,2.3,1.2
			C354.4,127.6,355,128.1,355.6,128.7z"/>
		<path class="st1" d="M387.1,141.6h-11.7v-1.4c1-0.1,1.9-0.2,2.6-0.4c0.7-0.2,1-0.5,1-0.7c0-0.1,0-0.3,0-0.4c0-0.2-0.1-0.3-0.1-0.5
			l-2.3-6.3h-9.9c-0.4,0.9-0.7,1.7-0.9,2.4c-0.2,0.7-0.4,1.3-0.6,1.9c-0.2,0.6-0.3,1-0.4,1.4c-0.1,0.4-0.1,0.7-0.1,0.9
			c0,0.5,0.4,0.9,1.2,1.2c0.8,0.3,1.8,0.5,2.8,0.5v1.4h-10.6v-1.4c0.3,0,0.8-0.1,1.3-0.2c0.5-0.1,0.9-0.3,1.3-0.5
			c0.5-0.4,0.9-0.7,1.2-1.1c0.3-0.4,0.6-0.9,0.9-1.6c1.4-3.5,3-7.5,4.7-11.9s3.2-8.3,4.6-11.8h1.6l9.4,24.3c0.2,0.5,0.4,0.9,0.7,1.2
			c0.2,0.3,0.6,0.6,1,0.9c0.3,0.2,0.7,0.3,1.2,0.5s0.9,0.2,1.2,0.2L387.1,141.6L387.1,141.6z M375.8,130.1l-4.3-10.9l-4.2,10.9
			H375.8z"/>
		<path class="st1" d="M409.7,120.4c0,1.5-0.3,2.8-0.9,3.9c-0.6,1.1-1.4,2.1-2.4,2.8c-1,0.7-2.1,1.3-3.3,1.6
			c-1.2,0.3-2.5,0.5-3.8,0.5h-3.2v8.5c0,0.5,0.1,0.9,0.2,1.2c0.1,0.3,0.5,0.6,0.9,0.8c0.2,0.1,0.7,0.2,1.3,0.3
			c0.6,0.1,1.2,0.1,1.7,0.1v1.4h-12.1v-1.4c0.3,0,0.8-0.1,1.4-0.1c0.6-0.1,1-0.1,1.3-0.3c0.4-0.2,0.7-0.4,0.9-0.8
			c0.2-0.3,0.3-0.8,0.3-1.3v-20.3c0-0.5-0.1-0.9-0.2-1.2c-0.1-0.4-0.5-0.7-0.9-0.8c-0.5-0.2-1-0.3-1.5-0.4c-0.5-0.1-0.9-0.1-1.3-0.1
			v-1.4h12.9c2.6,0,4.8,0.6,6.4,1.9C408.9,116.6,409.7,118.3,409.7,120.4z M403.7,125.2c0.5-0.6,0.7-1.3,0.9-2
			c0.1-0.7,0.2-1.3,0.2-1.8c0-0.8-0.1-1.5-0.3-2.3c-0.2-0.8-0.5-1.5-0.9-2c-0.5-0.6-1.1-1.1-1.8-1.5c-0.8-0.3-1.7-0.5-2.8-0.5h-2.8
			v12.5h2c1.4,0,2.6-0.2,3.5-0.7C402.6,126.4,403.2,125.8,403.7,125.2z"/>
		<path class="st1" d="M425.3,141.6h-12.7v-1.4c0.4,0,0.9-0.1,1.6-0.1c0.7-0.1,1.1-0.1,1.4-0.2c0.4-0.2,0.8-0.4,1-0.7
			c0.2-0.3,0.3-0.7,0.3-1.2v-20.4c0-0.5-0.1-0.9-0.2-1.2c-0.1-0.3-0.5-0.6-1-0.8c-0.4-0.2-0.9-0.3-1.5-0.5c-0.6-0.1-1.1-0.2-1.5-0.2
			v-1.4h12.7v1.4c-0.4,0-0.9,0.1-1.5,0.1s-1.1,0.2-1.5,0.3c-0.5,0.2-0.8,0.4-1,0.8c-0.2,0.4-0.3,0.8-0.3,1.2v20.4
			c0,0.4,0.1,0.8,0.3,1.2s0.5,0.6,1,0.8c0.3,0.1,0.7,0.2,1.4,0.3c0.6,0.1,1.2,0.2,1.6,0.2L425.3,141.6L425.3,141.6z"/>
		<path class="st1" d="M452.5,133.3l-0.5,8.3h-23.4v-1.4c0.4,0,0.9-0.1,1.6-0.2c0.7-0.1,1.1-0.2,1.3-0.3c0.4-0.2,0.7-0.5,0.9-0.8
			c0.2-0.3,0.2-0.7,0.2-1.2v-20.3c0-0.4-0.1-0.8-0.2-1.2c-0.1-0.3-0.5-0.6-0.9-0.8c-0.4-0.2-0.8-0.3-1.4-0.5
			c-0.6-0.1-1.1-0.2-1.4-0.2v-1.4h21.8v6.8h-1.5c-0.3-1-0.8-2.1-1.7-3.2c-0.9-1.1-1.7-1.8-2.5-1.9c-0.4-0.1-0.9-0.1-1.5-0.1
			c-0.6,0-1.2,0-1.9,0h-4.4v11.2h3.2c1,0,1.8-0.1,2.2-0.3c0.5-0.2,0.9-0.5,1.2-1c0.3-0.4,0.5-0.9,0.7-1.5c0.2-0.6,0.3-1.2,0.4-1.8
			h1.5v11h-1.5c-0.1-0.6-0.2-1.3-0.4-2c-0.2-0.7-0.5-1.2-0.7-1.5c-0.4-0.5-0.9-0.9-1.4-1s-1.2-0.2-2.1-0.2h-3.2v8.4
			c0,0.8,0.1,1.5,0.2,2s0.3,0.9,0.7,1.1c0.3,0.2,0.8,0.4,1.4,0.5c0.6,0.1,1.4,0.1,2.5,0.1c0.4,0,1,0,1.7,0s1.3,0,1.8-0.1
			c0.5-0.1,1-0.1,1.6-0.3c0.5-0.1,0.9-0.3,1.1-0.6c0.6-0.6,1.2-1.6,1.9-2.9c0.7-1.3,1.1-2.2,1.3-2.8
			C451.1,133.3,452.5,133.3,452.5,133.3z"/>
		<path class="st1" d="M484.3,114.8c-0.4,0-0.9,0.1-1.7,0.3c-0.8,0.2-1.3,0.4-1.6,0.6c-0.5,0.3-0.8,1-1,1.9
			c-0.2,0.9-0.2,2.1-0.2,3.6v20.6H478l-17.1-23.1v14.5c0,1.6,0.1,2.9,0.3,3.7c0.2,0.9,0.5,1.5,0.9,1.9c0.3,0.3,0.9,0.6,1.9,0.8
			c1,0.2,1.6,0.4,1.9,0.4v1.4h-11.6v-1.4c0.4,0,1-0.2,1.8-0.4c0.8-0.2,1.4-0.4,1.6-0.6c0.5-0.4,0.8-0.9,1-1.7
			c0.2-0.8,0.3-2.1,0.3-3.9v-13.9c0-0.6-0.1-1.2-0.3-1.8s-0.5-1.1-0.9-1.4c-0.5-0.4-1.1-0.8-1.9-1.1c-0.8-0.3-1.5-0.5-2-0.5v-1.4h8
			l15.8,21.5v-13.4c0-1.6-0.1-2.9-0.3-3.8c-0.2-0.9-0.5-1.5-0.9-1.8c-0.4-0.2-1-0.5-1.8-0.7c-0.8-0.2-1.5-0.4-1.9-0.4v-1.4h11.5
			L484.3,114.8L484.3,114.8z"/>
		<path class="st1" d="M509.5,121.1h-1.4c-0.1-0.5-0.3-1-0.7-1.7c-0.3-0.7-0.7-1.3-1-1.9c-0.4-0.6-0.8-1.1-1.3-1.6
			c-0.5-0.5-0.9-0.7-1.4-0.8c-0.4-0.1-0.9-0.1-1.6-0.1c-0.6,0-1.2,0-1.7,0h-1.1v22.5c0,0.4,0.1,0.8,0.3,1.2c0.2,0.4,0.5,0.6,1,0.8
			c0.2,0.1,0.7,0.2,1.5,0.4c0.8,0.2,1.4,0.2,1.8,0.3v1.4h-13.3v-1.4c0.4,0,0.9-0.1,1.7-0.2c0.8-0.1,1.3-0.2,1.6-0.3
			c0.4-0.2,0.8-0.4,1-0.7c0.2-0.3,0.3-0.8,0.3-1.3V115H494c-0.4,0-0.9,0-1.5,0c-0.6,0-1.2,0.1-1.7,0.1c-0.4,0.1-0.9,0.3-1.4,0.8
			c-0.5,0.5-0.9,1-1.3,1.6c-0.4,0.6-0.8,1.2-1,1.9c-0.3,0.7-0.5,1.2-0.6,1.7h-1.4v-7.7h24.6L509.5,121.1L509.5,121.1z"/>
		<path class="st1" d="M524.1,141.6h-12.7v-1.4c0.4,0,0.9-0.1,1.6-0.1c0.7-0.1,1.1-0.1,1.4-0.2c0.4-0.2,0.8-0.4,1-0.7
			c0.2-0.3,0.3-0.7,0.3-1.2v-20.4c0-0.5-0.1-0.9-0.2-1.2s-0.5-0.6-1-0.8c-0.4-0.2-0.9-0.3-1.5-0.5c-0.6-0.1-1.1-0.2-1.5-0.2v-1.4
			h12.7v1.4c-0.4,0-0.9,0.1-1.5,0.1c-0.6,0.1-1.1,0.2-1.5,0.3c-0.5,0.2-0.8,0.4-1,0.8c-0.2,0.4-0.3,0.8-0.3,1.2v20.4
			c0,0.4,0.1,0.8,0.3,1.2s0.5,0.6,1,0.8c0.3,0.1,0.7,0.2,1.4,0.3c0.6,0.1,1.2,0.2,1.6,0.2L524.1,141.6L524.1,141.6z"/>
		<path class="st1" d="M540,142.3c-1.7,0-3.3-0.3-4.8-1c-1.5-0.7-2.9-1.6-4.1-2.9c-1.2-1.2-2.1-2.8-2.8-4.6s-1-3.8-1-6.1
			s0.3-4.3,1-6.1c0.7-1.8,1.6-3.4,2.9-4.7c1.2-1.3,2.6-2.3,4.3-3c1.6-0.7,3.4-1.1,5.3-1.1c1.4,0,2.6,0.2,3.8,0.5
			c1.1,0.3,2.2,0.8,3.2,1.5l0.8-1.4h1.6l0.2,10.1h-1.6c-0.2-1-0.5-2-1-3.2c-0.4-1.1-0.9-2.1-1.5-2.9c-0.6-0.9-1.4-1.6-2.3-2.1
			c-0.9-0.5-1.9-0.8-3-0.8c-1.3,0-2.5,0.3-3.6,0.9c-1.1,0.6-2.1,1.4-2.9,2.5c-0.8,1.1-1.4,2.4-1.8,4.1c-0.4,1.7-0.7,3.5-0.7,5.5
			c0,1.8,0.2,3.5,0.7,5c0.5,1.5,1.1,2.8,2,4c0.8,1.1,1.8,2,3,2.6c1.2,0.6,2.5,1,3.9,1c1.1,0,2.1-0.2,2.9-0.5
			c0.9-0.3,1.7-0.8,2.3-1.3c0.7-0.6,1.2-1.2,1.7-2c0.5-0.7,0.9-1.6,1.2-2.4l1.5,0.7c-1.1,2.8-2.6,4.8-4.5,6
			C544.9,141.7,542.6,142.3,540,142.3z"/>
		<path class="st1" d="M580,141.6h-11.7v-1.4c1-0.1,1.9-0.2,2.6-0.4c0.7-0.2,1-0.5,1-0.7c0-0.1,0-0.3,0-0.4c0-0.2-0.1-0.3-0.1-0.5
			l-2.3-6.3h-9.9c-0.4,0.9-0.7,1.7-0.9,2.4c-0.2,0.7-0.4,1.3-0.6,1.9c-0.2,0.6-0.3,1-0.4,1.4c-0.1,0.4-0.1,0.7-0.1,0.9
			c0,0.5,0.4,0.9,1.2,1.2c0.8,0.3,1.8,0.5,2.8,0.5v1.4h-10.6v-1.4c0.3,0,0.8-0.1,1.3-0.2c0.5-0.1,0.9-0.3,1.3-0.5
			c0.5-0.4,0.9-0.7,1.2-1.1c0.3-0.4,0.6-0.9,0.9-1.6c1.4-3.5,3-7.5,4.7-11.9s3.2-8.3,4.6-11.8h1.6l9.4,24.3c0.2,0.5,0.4,0.9,0.7,1.2
			c0.2,0.3,0.6,0.6,1,0.9c0.3,0.2,0.7,0.3,1.2,0.5s0.9,0.2,1.2,0.2L580,141.6L580,141.6z M568.7,130.1l-4.3-10.9l-4.2,10.9H568.7z"
			/>
	</g>
	<g>
		<path class="st1" d="M259.6,174.8c-0.1,0-0.3,0-0.6,0.1c-0.2,0-0.5,0.1-0.6,0.2c-0.2,0.1-0.3,0.2-0.4,0.4
			c-0.1,0.2-0.1,0.4-0.1,0.6v1c0,0.7,0,1.2,0,1.5c0,0.3,0,0.5,0,0.6c-0.8,0.4-1.6,0.7-2.4,0.8s-1.6,0.3-2.4,0.3
			c-0.8,0-1.6-0.2-2.4-0.5c-0.8-0.3-1.5-0.8-2-1.3c-0.6-0.6-1-1.3-1.4-2.1c-0.3-0.8-0.5-1.8-0.5-2.8c0-1,0.2-1.9,0.5-2.8
			c0.3-0.9,0.8-1.6,1.4-2.2c0.6-0.6,1.3-1.1,2.1-1.4c0.8-0.3,1.7-0.5,2.6-0.5c0.7,0,1.4,0.1,1.9,0.3s1,0.4,1.5,0.6l0.4-0.6h0.7
			l0.1,4.6h-0.8c-0.1-0.5-0.3-1-0.5-1.5s-0.4-0.9-0.7-1.3c-0.3-0.4-0.7-0.7-1.1-0.9c-0.4-0.2-1-0.3-1.6-0.3c-0.7,0-1.2,0.1-1.8,0.4
			c-0.5,0.3-1,0.7-1.4,1.2c-0.4,0.5-0.7,1.1-0.9,1.9c-0.2,0.8-0.3,1.6-0.3,2.6c0,0.8,0.1,1.6,0.3,2.4c0.2,0.7,0.5,1.4,0.9,1.9
			c0.4,0.6,0.9,1,1.4,1.3s1.2,0.5,1.9,0.5c0.5,0,1-0.1,1.5-0.2c0.5-0.2,0.8-0.3,0.9-0.5c0-0.3,0.1-0.6,0.1-1c0-0.3,0-0.6,0-0.8v-0.7
			c0-0.3,0-0.5-0.1-0.7s-0.2-0.3-0.4-0.4c-0.2-0.1-0.5-0.2-0.8-0.2c-0.3,0-0.6-0.1-0.8-0.1v-0.7h5.7L259.6,174.8L259.6,174.8z"/>
		<path class="st1" d="M266.3,180.1h-5.9v-0.7c0.2,0,0.4,0,0.7-0.1c0.3,0,0.5-0.1,0.7-0.1c0.2-0.1,0.3-0.2,0.4-0.3s0.1-0.3,0.1-0.6
			v-9.5c0-0.2,0-0.4-0.1-0.5c-0.1-0.1-0.2-0.3-0.5-0.4c-0.2-0.1-0.4-0.1-0.7-0.2c-0.3-0.1-0.5-0.1-0.7-0.1V167h5.9v0.7
			c-0.2,0-0.4,0-0.7,0.1c-0.3,0-0.5,0.1-0.7,0.1c-0.2,0.1-0.4,0.2-0.5,0.4c-0.1,0.2-0.1,0.3-0.1,0.6v9.5c0,0.2,0,0.4,0.1,0.5
			c0.1,0.2,0.2,0.3,0.5,0.4c0.1,0,0.3,0.1,0.6,0.2c0.3,0.1,0.5,0.1,0.7,0.1V180.1z"/>
		<path class="st1" d="M276.1,174.1c0.3,0.3,0.5,0.6,0.6,1c0.1,0.4,0.2,0.8,0.2,1.3c0,1.2-0.4,2.1-1.3,2.9s-1.9,1.1-3.2,1.1
			c-0.6,0-1.2-0.1-1.8-0.3c-0.6-0.2-1.1-0.4-1.5-0.7l-0.4,0.7h-0.7l-0.1-4.5h0.7c0.2,0.6,0.3,1,0.5,1.5c0.2,0.5,0.5,0.9,0.8,1.2
			c0.3,0.4,0.7,0.7,1.1,0.9c0.4,0.2,0.9,0.3,1.5,0.3c0.4,0,0.8-0.1,1.1-0.2c0.3-0.1,0.6-0.3,0.8-0.5c0.2-0.2,0.3-0.4,0.4-0.7
			c0.1-0.3,0.1-0.6,0.1-0.9c0-0.5-0.1-1-0.4-1.5c-0.3-0.5-0.7-0.8-1.3-1c-0.4-0.2-0.9-0.3-1.4-0.5c-0.5-0.2-1-0.4-1.3-0.6
			c-0.7-0.3-1.3-0.8-1.7-1.3c-0.4-0.5-0.6-1.2-0.6-2.1c0-0.5,0.1-1,0.3-1.4c0.2-0.4,0.5-0.8,0.9-1.1c0.4-0.3,0.8-0.6,1.3-0.8
			c0.5-0.2,1-0.3,1.5-0.3c0.6,0,1.1,0.1,1.6,0.3c0.5,0.2,0.9,0.4,1.3,0.6l0.4-0.6h0.7l0.1,4.3h-0.7c-0.1-0.5-0.3-1-0.5-1.4
			c-0.2-0.5-0.4-0.9-0.7-1.2c-0.3-0.4-0.6-0.6-1-0.9c-0.4-0.2-0.8-0.3-1.4-0.3c-0.6,0-1.1,0.2-1.5,0.6c-0.4,0.4-0.6,0.8-0.6,1.4
			c0,0.6,0.1,1,0.4,1.4c0.3,0.4,0.7,0.7,1.1,0.9c0.5,0.2,0.9,0.4,1.3,0.6c0.4,0.2,0.9,0.3,1.3,0.5c0.4,0.2,0.7,0.3,1.1,0.5
			S275.9,173.8,276.1,174.1z"/>
		<path class="st1" d="M295.6,172.4c-0.4,0-0.7,0.1-1.1,0.2c-0.4,0.1-0.7,0.3-0.8,0.5c-0.1,0.1-0.3,0.4-0.4,0.7s-0.3,0.6-0.5,1
			c-0.2,0.4-0.4,0.8-0.6,1.2c-0.2,0.4-0.4,0.8-0.7,1.1c0.2,0.3,0.6,0.6,0.9,1c0.4,0.3,0.7,0.6,0.9,0.8c0.2,0.1,0.6,0.3,1,0.4
			c0.5,0.1,0.8,0.2,1.1,0.2v0.7h-3.8l-1.4-1.6c-0.2,0.2-0.4,0.5-0.7,0.7s-0.5,0.4-0.8,0.6c-0.3,0.2-0.6,0.3-1,0.4
			c-0.3,0.1-0.7,0.2-1.1,0.2c-0.5,0-0.9-0.1-1.4-0.2c-0.5-0.1-0.9-0.3-1.2-0.6c-0.4-0.3-0.6-0.6-0.9-1.1c-0.2-0.5-0.3-1-0.3-1.6
			c0-0.8,0.2-1.5,0.6-2.1c0.4-0.6,1.1-1.3,2.3-2c-0.5-0.7-0.9-1.2-1.2-1.7c-0.3-0.5-0.4-1-0.4-1.6c0-0.4,0.1-0.8,0.2-1.2
			c0.2-0.3,0.4-0.7,0.7-0.9c0.3-0.2,0.6-0.4,1-0.6s0.8-0.2,1.2-0.2c0.5,0,0.9,0.1,1.3,0.2c0.4,0.2,0.7,0.4,0.9,0.6
			c0.2,0.2,0.4,0.5,0.5,0.8c0.1,0.3,0.2,0.6,0.2,0.9c0,0.7-0.2,1.4-0.7,1.9c-0.5,0.5-1.1,1-1.9,1.4c0.6,0.8,1.1,1.5,1.7,2.1
			c0.6,0.6,1.1,1.3,1.6,1.9c0.4-0.7,0.7-1.3,1-1.9c0.2-0.6,0.3-1.1,0.3-1.5c0-0.2-0.1-0.3-0.4-0.5c-0.3-0.1-0.7-0.2-1.2-0.3v-0.7
			h4.9L295.6,172.4L295.6,172.4z M289.8,178c-0.6-0.7-1.2-1.5-1.9-2.4c-0.7-0.9-1.3-1.6-1.7-2.2c-0.5,0.3-0.9,0.8-1.1,1.2
			c-0.2,0.5-0.3,1-0.3,1.6c0,0.8,0.2,1.5,0.7,2.1c0.5,0.6,1.1,0.8,1.9,0.8c0.5,0,0.9-0.1,1.3-0.3C289.2,178.6,289.5,178.3,289.8,178
			z M289.1,169.4c0-0.6-0.1-1.1-0.4-1.4c-0.3-0.3-0.7-0.5-1.2-0.5c-0.3,0-0.5,0.1-0.7,0.2s-0.3,0.3-0.5,0.4
			c-0.1,0.2-0.2,0.4-0.3,0.6c0,0.2-0.1,0.4-0.1,0.5c0,0.4,0.1,0.9,0.3,1.3c0.2,0.4,0.6,1,1,1.6c0.6-0.4,1.1-0.7,1.4-1.2
			C289,170.5,289.1,170,289.1,169.4z"/>
		<path class="st1" d="M313.3,180.1h-5.4v-0.7c0.5,0,0.9-0.1,1.2-0.2c0.3-0.1,0.5-0.2,0.5-0.3c0-0.1,0-0.1,0-0.2
			c0-0.1,0-0.1-0.1-0.2l-1.1-2.9h-4.6c-0.2,0.4-0.3,0.8-0.4,1.1c-0.1,0.3-0.2,0.6-0.3,0.9c-0.1,0.3-0.1,0.5-0.2,0.6s0,0.3,0,0.4
			c0,0.2,0.2,0.4,0.6,0.6s0.8,0.2,1.3,0.2v0.7h-4.9v-0.7c0.2,0,0.4,0,0.6-0.1c0.2-0.1,0.4-0.1,0.6-0.2c0.2-0.2,0.4-0.3,0.6-0.5
			c0.1-0.2,0.3-0.4,0.4-0.8c0.7-1.6,1.4-3.5,2.2-5.5c0.8-2,1.5-3.9,2.1-5.5h0.7l4.4,11.3c0.1,0.2,0.2,0.4,0.3,0.6
			c0.1,0.1,0.3,0.3,0.5,0.4c0.1,0.1,0.3,0.2,0.6,0.2s0.4,0.1,0.6,0.1L313.3,180.1L313.3,180.1z M308,174.7l-2-5.1l-1.9,5.1H308z"/>
		<path class="st1" d="M320.5,172.1c0,0.3-0.1,0.6-0.2,0.8c-0.2,0.2-0.4,0.4-0.7,0.4c-0.3,0-0.6-0.1-0.8-0.3
			c-0.2-0.2-0.3-0.4-0.3-0.6c0-0.1,0-0.3,0-0.4c0-0.1,0-0.2,0.1-0.3c-0.3,0-0.6,0.1-1,0.3c-0.4,0.2-0.7,0.6-1,1v5.3
			c0,0.2,0,0.4,0.1,0.5c0.1,0.1,0.2,0.2,0.4,0.3c0.2,0.1,0.3,0.1,0.6,0.1c0.2,0,0.5,0.1,0.6,0.1v0.6h-4.8v-0.6c0.1,0,0.3,0,0.4,0
			c0.1,0,0.3,0,0.4-0.1c0.2-0.1,0.3-0.1,0.4-0.3c0.1-0.1,0.1-0.3,0.1-0.5v-5.6c0-0.2,0-0.4-0.1-0.6c-0.1-0.2-0.2-0.3-0.4-0.4
			c-0.1-0.1-0.3-0.1-0.4-0.2c-0.2,0-0.3-0.1-0.5-0.1V171l3-0.2l0.1,0.1v1.3h0c0.4-0.5,0.8-0.9,1.3-1.1c0.5-0.3,0.9-0.4,1.3-0.4
			c0.4,0,0.7,0.1,0.9,0.4C320.4,171.4,320.5,171.7,320.5,172.1z"/>
		<path class="st1" d="M325.5,180.3c-1.3,0-2.3-0.4-3.1-1.3c-0.7-0.9-1.1-2-1.1-3.5c0-0.6,0.1-1.2,0.3-1.8c0.2-0.6,0.5-1.1,0.9-1.5
			c0.4-0.4,0.8-0.8,1.4-1.1c0.6-0.3,1.1-0.4,1.8-0.4c0.9,0,1.6,0.2,2.2,0.6s0.8,1,0.8,1.7c0,0.3-0.1,0.6-0.2,0.8
			c-0.1,0.2-0.4,0.3-0.7,0.3c-0.4,0-0.6-0.1-0.8-0.3c-0.2-0.2-0.3-0.4-0.3-0.6c0-0.3,0-0.6,0.1-0.9c0.1-0.3,0.1-0.5,0.1-0.6
			c-0.1-0.2-0.3-0.3-0.5-0.4c-0.2-0.1-0.5-0.1-0.7-0.1c-0.3,0-0.6,0.1-0.8,0.2c-0.3,0.1-0.5,0.4-0.8,0.7c-0.2,0.3-0.4,0.7-0.6,1.2
			c-0.1,0.5-0.2,1.1-0.2,1.9c0,1.1,0.2,2.1,0.8,2.8s1.2,1.1,2,1.1c0.6,0,1.1-0.1,1.5-0.4c0.4-0.3,0.8-0.7,1.1-1.3l0.6,0.4
			c-0.4,0.7-0.9,1.3-1.6,1.7C326.9,180.1,326.2,180.3,325.5,180.3z"/>
		<path class="st1" d="M339.7,180.1h-4.5v-0.6c0.1,0,0.3,0,0.5,0c0.2,0,0.3,0,0.4-0.1c0.2-0.1,0.3-0.1,0.4-0.3
			c0.1-0.1,0.1-0.3,0.1-0.5v-4.7c0-0.6-0.2-1.1-0.5-1.5s-0.7-0.5-1.1-0.5c-0.3,0-0.6,0-0.9,0.1c-0.3,0.1-0.5,0.2-0.7,0.4
			c-0.2,0.2-0.4,0.3-0.5,0.5c-0.1,0.2-0.2,0.3-0.3,0.4v5.2c0,0.2,0,0.4,0.1,0.5c0.1,0.1,0.2,0.2,0.4,0.3c0.1,0.1,0.3,0.1,0.4,0.1
			c0.1,0,0.3,0.1,0.5,0.1v0.6h-4.5v-0.6c0.1,0,0.3,0,0.4,0c0.1,0,0.3,0,0.4-0.1c0.2-0.1,0.3-0.1,0.4-0.3c0.1-0.1,0.1-0.3,0.1-0.5
			v-10.6c0-0.2,0-0.4-0.1-0.6c-0.1-0.2-0.2-0.4-0.4-0.5c-0.1-0.1-0.3-0.1-0.6-0.2c-0.3,0-0.5-0.1-0.7-0.1V166l3.4-0.2l0.1,0.1v6.3h0
			c0.2-0.2,0.4-0.4,0.6-0.5s0.4-0.3,0.7-0.5c0.2-0.1,0.5-0.3,0.8-0.4c0.3-0.1,0.7-0.1,1.1-0.1c0.8,0,1.4,0.3,1.9,0.8
			c0.4,0.5,0.7,1.2,0.7,2.2v4.7c0,0.2,0,0.4,0.1,0.5s0.2,0.2,0.4,0.3c0.1,0.1,0.3,0.1,0.4,0.1c0.1,0,0.3,0,0.5,0.1L339.7,180.1
			L339.7,180.1z"/>
		<path class="st1" d="M349.4,179.9c-0.3,0.1-0.5,0.2-0.8,0.2c-0.2,0.1-0.5,0.1-0.7,0.1c-0.5,0-0.9-0.1-1.1-0.3
			c-0.3-0.2-0.5-0.6-0.6-1h-0.1c-0.4,0.4-0.8,0.8-1.3,1c-0.5,0.2-1,0.3-1.7,0.3c-0.7,0-1.2-0.2-1.7-0.6c-0.4-0.4-0.7-1-0.7-1.6
			c0-0.3,0-0.7,0.1-0.9s0.2-0.5,0.4-0.7c0.2-0.2,0.4-0.3,0.6-0.5c0.2-0.1,0.5-0.3,0.7-0.3c0.3-0.1,0.8-0.3,1.7-0.6
			c0.8-0.3,1.4-0.5,1.7-0.7v-0.9c0-0.1,0-0.2,0-0.5s-0.1-0.4-0.2-0.6c-0.1-0.2-0.3-0.4-0.5-0.6c-0.2-0.2-0.5-0.2-1-0.2
			c-0.3,0-0.6,0-0.8,0.1c-0.2,0.1-0.4,0.2-0.5,0.3c0,0.1,0,0.3,0.1,0.5c0.1,0.2,0.1,0.5,0.1,0.7c0,0.2-0.1,0.4-0.3,0.6
			c-0.2,0.2-0.5,0.3-0.8,0.3c-0.3,0-0.5-0.1-0.7-0.3c-0.1-0.2-0.2-0.5-0.2-0.7c0-0.3,0.1-0.6,0.3-0.8c0.2-0.3,0.5-0.5,0.8-0.7
			c0.3-0.2,0.6-0.3,1-0.4c0.4-0.1,0.8-0.2,1.1-0.2c0.5,0,1,0,1.4,0.1c0.4,0.1,0.7,0.2,1,0.5c0.3,0.2,0.6,0.5,0.7,0.9
			c0.2,0.4,0.2,0.9,0.2,1.5c0,0.9,0,1.7,0,2.3c0,0.7,0,1.4,0,2.2c0,0.2,0,0.4,0.1,0.6c0.1,0.1,0.2,0.3,0.4,0.4
			c0.1,0.1,0.2,0.1,0.4,0.1c0.2,0,0.4,0,0.6,0L349.4,179.9L349.4,179.9z M346.2,175c-0.5,0.2-1,0.3-1.4,0.5s-0.8,0.3-1.1,0.6
			c-0.3,0.2-0.6,0.5-0.7,0.7c-0.2,0.3-0.3,0.6-0.3,1c0,0.5,0.1,0.9,0.4,1.1c0.3,0.2,0.6,0.4,1,0.4c0.4,0,0.8-0.1,1.1-0.3
			c0.3-0.2,0.6-0.5,0.8-0.8L346.2,175z"/>
		<path class="st1" d="M358.4,177.9c-0.4,0.7-0.9,1.3-1.5,1.7c-0.6,0.4-1.4,0.6-2.2,0.6c-0.7,0-1.4-0.1-1.9-0.4
			c-0.6-0.3-1-0.6-1.4-1c-0.4-0.4-0.6-1-0.8-1.6s-0.3-1.2-0.3-1.9c0-0.6,0.1-1.2,0.3-1.7s0.5-1.1,0.8-1.5c0.3-0.4,0.8-0.8,1.3-1.1
			c0.5-0.3,1.1-0.4,1.7-0.4c0.7,0,1.2,0.1,1.7,0.3c0.5,0.2,0.9,0.5,1.1,0.9c0.3,0.3,0.5,0.8,0.6,1.2c0.1,0.5,0.2,1,0.2,1.5v0.6h-6
			c0,0.6,0.1,1.1,0.2,1.6c0.1,0.5,0.3,0.9,0.5,1.3c0.2,0.4,0.6,0.6,0.9,0.8s0.8,0.3,1.4,0.3c0.6,0,1-0.1,1.4-0.4
			c0.4-0.3,0.8-0.7,1.1-1.4L358.4,177.9z M356.4,174.4c0-0.3,0-0.7-0.1-1.1c-0.1-0.4-0.1-0.7-0.3-1c-0.1-0.3-0.3-0.5-0.6-0.7
			c-0.2-0.2-0.6-0.3-0.9-0.3c-0.6,0-1.2,0.3-1.6,0.8c-0.4,0.5-0.7,1.3-0.7,2.2L356.4,174.4L356.4,174.4z"/>
		<path class="st1" d="M368.3,175.4c0,0.6-0.1,1.3-0.3,1.9c-0.2,0.6-0.5,1.1-0.9,1.6c-0.4,0.5-0.9,0.9-1.5,1.1
			c-0.6,0.2-1.2,0.4-1.9,0.4c-0.6,0-1.1-0.1-1.7-0.3c-0.5-0.2-1-0.5-1.4-1c-0.4-0.4-0.7-0.9-1-1.5c-0.2-0.6-0.3-1.3-0.3-2
			c0-1.4,0.4-2.6,1.2-3.5c0.8-0.9,1.9-1.4,3.3-1.4c1.3,0,2.3,0.4,3.2,1.3C367.9,172.8,368.3,174,368.3,175.4z M366.4,175.4
			c0-0.5,0-0.9-0.1-1.5c-0.1-0.5-0.2-0.9-0.4-1.3c-0.2-0.4-0.5-0.7-0.8-0.9c-0.3-0.2-0.7-0.3-1.2-0.3c-0.5,0-0.9,0.1-1.2,0.3
			c-0.3,0.2-0.6,0.6-0.8,1c-0.2,0.4-0.3,0.8-0.4,1.3s-0.1,0.9-0.1,1.4c0,0.6,0,1.1,0.1,1.6c0.1,0.5,0.2,0.9,0.5,1.3
			c0.2,0.4,0.5,0.7,0.8,0.9c0.3,0.2,0.7,0.3,1.2,0.3c0.8,0,1.4-0.4,1.8-1.1C366.2,177.8,366.4,176.8,366.4,175.4z"/>
		<path class="st1" d="M373.9,180.1h-4.4v-0.6c0.1,0,0.3,0,0.5,0c0.2,0,0.3,0,0.4-0.1c0.2-0.1,0.3-0.1,0.4-0.3s0.1-0.3,0.1-0.5V168
			c0-0.2,0-0.4-0.1-0.6s-0.2-0.3-0.4-0.5c-0.1-0.1-0.3-0.1-0.6-0.2s-0.5-0.1-0.7-0.1V166l3.4-0.2l0.1,0.1v12.5c0,0.2,0,0.4,0.1,0.5
			s0.2,0.2,0.4,0.3c0.1,0.1,0.3,0.1,0.4,0.1c0.1,0,0.3,0.1,0.5,0.1V180.1z"/>
		<path class="st1" d="M383.9,175.4c0,0.6-0.1,1.3-0.3,1.9c-0.2,0.6-0.5,1.1-0.9,1.6c-0.4,0.5-0.9,0.9-1.5,1.1
			c-0.6,0.2-1.2,0.4-1.9,0.4c-0.6,0-1.1-0.1-1.7-0.3c-0.5-0.2-1-0.5-1.4-1c-0.4-0.4-0.7-0.9-1-1.5c-0.2-0.6-0.3-1.3-0.3-2
			c0-1.4,0.4-2.6,1.2-3.5c0.8-0.9,1.9-1.4,3.3-1.4c1.3,0,2.3,0.4,3.2,1.3C383.5,172.8,383.9,174,383.9,175.4z M382,175.4
			c0-0.5,0-0.9-0.1-1.5c-0.1-0.5-0.2-0.9-0.4-1.3c-0.2-0.4-0.5-0.7-0.8-0.9c-0.3-0.2-0.7-0.3-1.2-0.3c-0.5,0-0.9,0.1-1.2,0.3
			c-0.3,0.2-0.6,0.6-0.8,1c-0.2,0.4-0.3,0.8-0.4,1.3c-0.1,0.5-0.1,0.9-0.1,1.4c0,0.6,0,1.1,0.1,1.6c0.1,0.5,0.2,0.9,0.5,1.3
			c0.2,0.4,0.5,0.7,0.8,0.9c0.3,0.2,0.7,0.3,1.2,0.3c0.8,0,1.4-0.4,1.8-1.1C381.8,177.8,382,176.8,382,175.4z"/>
		<path class="st1" d="M393,179.1c0.2,0.2,0.4,0.5,0.6,0.8c0.1,0.3,0.2,0.7,0.2,1.1c0,0.4-0.1,0.8-0.3,1.2c-0.2,0.4-0.5,0.7-0.9,1
			c-0.4,0.3-0.9,0.5-1.5,0.7c-0.6,0.2-1.3,0.2-2.1,0.2c-1.4,0-2.4-0.2-3.1-0.6s-1-1-1-1.8c0-0.6,0.2-1.1,0.7-1.5
			c0.5-0.4,1.1-0.6,1.9-0.6v-0.1c-0.2-0.1-0.4-0.1-0.6-0.2c-0.2-0.1-0.4-0.2-0.5-0.3c-0.2-0.1-0.3-0.3-0.4-0.5s-0.1-0.4-0.1-0.7
			c0-0.3,0.1-0.6,0.3-0.9c0.2-0.3,0.6-0.5,1-0.7v-0.1c-0.6-0.3-1-0.6-1.4-1.1c-0.3-0.4-0.5-0.9-0.5-1.5c0-0.9,0.3-1.6,1-2.1
			c0.6-0.6,1.5-0.8,2.5-0.8c0.3,0,0.6,0,0.8,0.1c0.3,0.1,0.6,0.1,0.8,0.2h3.2v0.9h-2.1v0.1c0.2,0.3,0.4,0.6,0.5,0.9
			c0.1,0.3,0.2,0.6,0.2,0.9c0,0.8-0.3,1.5-1,2c-0.7,0.6-1.4,0.8-2.3,0.8h-1.1c-0.1,0-0.3,0.1-0.4,0.3c-0.2,0.1-0.2,0.3-0.2,0.5
			c0,0.2,0.1,0.4,0.2,0.5c0.1,0.1,0.3,0.2,0.5,0.2s0.4,0.1,0.6,0.1c0.2,0,0.5,0,0.7,0c0.3,0,0.6,0,1.1,0.1c0.5,0,0.8,0,1,0.1
			c0.3,0,0.6,0.1,0.9,0.2C392.5,178.7,392.8,178.9,393,179.1z M392.3,181.3c0-0.3-0.1-0.6-0.2-0.8c-0.2-0.2-0.4-0.4-0.7-0.5
			c-0.2,0-0.5-0.1-1.1-0.1c-0.5,0-1.2,0-1.9,0c-0.7,0.1-1.1,0.3-1.4,0.7c-0.3,0.3-0.4,0.7-0.4,1.2c0,0.2,0,0.4,0.1,0.6
			s0.2,0.4,0.5,0.5c0.2,0.2,0.5,0.3,0.9,0.4c0.4,0.1,0.8,0.1,1.3,0.1c0.9,0,1.6-0.2,2.1-0.5S392.3,182.1,392.3,181.3z M390.5,173.7
			c0-0.7-0.1-1.3-0.4-1.7c-0.3-0.4-0.7-0.6-1.2-0.6c-0.3,0-0.5,0.1-0.7,0.2c-0.2,0.1-0.4,0.3-0.5,0.5c-0.1,0.2-0.2,0.5-0.3,0.7
			c-0.1,0.3-0.1,0.6-0.1,0.9c0,0.7,0.1,1.2,0.5,1.7c0.3,0.4,0.7,0.6,1.2,0.6c0.5,0,0.9-0.2,1.2-0.6
			C390.4,174.9,390.5,174.4,390.5,173.7z"/>
		<path class="st1" d="M399.3,180.1h-4.4v-0.6c0.1,0,0.3,0,0.4,0c0.1,0,0.3,0,0.4-0.1c0.2-0.1,0.3-0.1,0.4-0.3
			c0.1-0.1,0.1-0.3,0.1-0.5v-5.6c0-0.2,0-0.4-0.1-0.5c-0.1-0.2-0.2-0.3-0.4-0.4c-0.1-0.1-0.3-0.1-0.5-0.2c-0.2-0.1-0.4-0.1-0.6-0.1
			V171l3.2-0.2l0.1,0.1v7.4c0,0.2,0,0.4,0.1,0.5c0.1,0.1,0.2,0.2,0.4,0.3c0.1,0.1,0.3,0.1,0.4,0.1s0.3,0.1,0.4,0.1L399.3,180.1
			L399.3,180.1z M398.1,167.3c0,0.3-0.1,0.7-0.3,0.9c-0.2,0.3-0.5,0.4-0.9,0.4c-0.3,0-0.6-0.1-0.8-0.4c-0.2-0.2-0.3-0.5-0.3-0.9
			c0-0.3,0.1-0.6,0.3-0.9c0.2-0.2,0.5-0.4,0.8-0.4c0.3,0,0.6,0.1,0.9,0.3S398.1,167,398.1,167.3z"/>
		<path class="st1" d="M404.6,180.3c-1.3,0-2.3-0.4-3.1-1.3c-0.7-0.9-1.1-2-1.1-3.5c0-0.6,0.1-1.2,0.3-1.8c0.2-0.6,0.5-1.1,0.9-1.5
			c0.4-0.4,0.8-0.8,1.4-1.1c0.6-0.3,1.1-0.4,1.8-0.4c0.9,0,1.6,0.2,2.2,0.6c0.6,0.4,0.8,1,0.8,1.7c0,0.3-0.1,0.6-0.2,0.8
			c-0.1,0.2-0.4,0.3-0.7,0.3c-0.4,0-0.6-0.1-0.8-0.3c-0.2-0.2-0.3-0.4-0.3-0.6c0-0.3,0-0.6,0.1-0.9c0.1-0.3,0.1-0.5,0.1-0.6
			c-0.1-0.2-0.3-0.3-0.5-0.4c-0.2-0.1-0.5-0.1-0.7-0.1c-0.3,0-0.6,0.1-0.8,0.2c-0.3,0.1-0.5,0.4-0.8,0.7c-0.2,0.3-0.4,0.7-0.6,1.2
			c-0.1,0.5-0.2,1.1-0.2,1.9c0,1.1,0.2,2.1,0.8,2.8c0.5,0.7,1.2,1.1,2,1.1c0.6,0,1.1-0.1,1.5-0.4c0.4-0.3,0.8-0.7,1.1-1.3l0.6,0.4
			c-0.4,0.7-0.9,1.3-1.6,1.7S405.3,180.3,404.6,180.3z"/>
		<path class="st1" d="M417.6,179.9c-0.3,0.1-0.5,0.2-0.8,0.2c-0.2,0.1-0.5,0.1-0.7,0.1c-0.5,0-0.9-0.1-1.1-0.3
			c-0.3-0.2-0.5-0.6-0.6-1h-0.1c-0.4,0.4-0.8,0.8-1.3,1c-0.5,0.2-1,0.3-1.7,0.3c-0.7,0-1.2-0.2-1.7-0.6c-0.4-0.4-0.7-1-0.7-1.6
			c0-0.3,0-0.7,0.1-0.9c0.1-0.3,0.2-0.5,0.4-0.7c0.2-0.2,0.4-0.3,0.6-0.5c0.2-0.1,0.5-0.3,0.7-0.3c0.3-0.1,0.8-0.3,1.7-0.6
			s1.4-0.5,1.7-0.7v-0.9c0-0.1,0-0.2,0-0.5s-0.1-0.4-0.2-0.6c-0.1-0.2-0.3-0.4-0.5-0.6c-0.2-0.2-0.5-0.2-1-0.2c-0.3,0-0.6,0-0.8,0.1
			c-0.2,0.1-0.4,0.2-0.5,0.3c0,0.1,0,0.3,0.1,0.5s0.1,0.5,0.1,0.7c0,0.2-0.1,0.4-0.3,0.6c-0.2,0.2-0.5,0.3-0.8,0.3
			c-0.3,0-0.5-0.1-0.7-0.3c-0.1-0.2-0.2-0.5-0.2-0.7c0-0.3,0.1-0.6,0.3-0.8c0.2-0.3,0.5-0.5,0.8-0.7c0.3-0.2,0.6-0.3,1-0.4
			c0.4-0.1,0.8-0.2,1.1-0.2c0.5,0,1,0,1.4,0.1c0.4,0.1,0.7,0.2,1,0.5c0.3,0.2,0.6,0.5,0.7,0.9s0.2,0.9,0.2,1.5c0,0.9,0,1.7,0,2.3
			c0,0.7,0,1.4,0,2.2c0,0.2,0,0.4,0.1,0.6c0.1,0.1,0.2,0.3,0.4,0.4c0.1,0.1,0.2,0.1,0.4,0.1s0.4,0,0.6,0L417.6,179.9L417.6,179.9z
			 M414.4,175c-0.5,0.2-1,0.3-1.4,0.5c-0.4,0.1-0.8,0.3-1.1,0.6c-0.3,0.2-0.6,0.5-0.7,0.7c-0.2,0.3-0.3,0.6-0.3,1
			c0,0.5,0.1,0.9,0.4,1.1c0.3,0.2,0.6,0.4,1,0.4c0.4,0,0.8-0.1,1.1-0.3c0.3-0.2,0.6-0.5,0.8-0.8L414.4,175z"/>
		<path class="st1" d="M422.7,180.1h-4.4v-0.6c0.1,0,0.3,0,0.5,0s0.3,0,0.4-0.1c0.2-0.1,0.3-0.1,0.4-0.3c0.1-0.1,0.1-0.3,0.1-0.5
			V168c0-0.2,0-0.4-0.1-0.6c-0.1-0.2-0.2-0.3-0.4-0.5c-0.1-0.1-0.3-0.1-0.6-0.2s-0.5-0.1-0.7-0.1V166l3.4-0.2l0.1,0.1v12.5
			c0,0.2,0,0.4,0.1,0.5s0.2,0.2,0.4,0.3c0.1,0.1,0.3,0.1,0.4,0.1c0.1,0,0.3,0.1,0.5,0.1V180.1z"/>
		<path class="st1" d="M436.8,174.1c0.3,0.3,0.5,0.6,0.6,1c0.1,0.4,0.2,0.8,0.2,1.3c0,1.2-0.4,2.1-1.3,2.9c-0.9,0.8-1.9,1.1-3.2,1.1
			c-0.6,0-1.2-0.1-1.8-0.3c-0.6-0.2-1.1-0.4-1.5-0.7l-0.4,0.7h-0.7l-0.1-4.5h0.7c0.2,0.6,0.3,1,0.5,1.5c0.2,0.5,0.5,0.9,0.8,1.2
			c0.3,0.4,0.7,0.7,1.1,0.9c0.4,0.2,0.9,0.3,1.5,0.3c0.4,0,0.8-0.1,1.1-0.2c0.3-0.1,0.6-0.3,0.8-0.5c0.2-0.2,0.3-0.4,0.4-0.7
			c0.1-0.3,0.1-0.6,0.1-0.9c0-0.5-0.1-1-0.4-1.5c-0.3-0.5-0.7-0.8-1.3-1c-0.4-0.2-0.9-0.3-1.4-0.5c-0.5-0.2-1-0.4-1.3-0.6
			c-0.7-0.3-1.3-0.8-1.7-1.3c-0.4-0.5-0.6-1.2-0.6-2.1c0-0.5,0.1-1,0.3-1.4c0.2-0.4,0.5-0.8,0.9-1.1c0.4-0.3,0.8-0.6,1.3-0.8
			c0.5-0.2,1-0.3,1.5-0.3c0.6,0,1.1,0.1,1.6,0.3c0.5,0.2,0.9,0.4,1.3,0.6l0.4-0.6h0.7l0.1,4.3h-0.7c-0.1-0.5-0.3-1-0.5-1.4
			c-0.2-0.5-0.4-0.9-0.7-1.2c-0.3-0.4-0.6-0.6-1-0.9c-0.4-0.2-0.8-0.3-1.4-0.3c-0.6,0-1.1,0.2-1.5,0.6c-0.4,0.4-0.6,0.8-0.6,1.4
			c0,0.6,0.1,1,0.4,1.4c0.3,0.4,0.7,0.7,1.1,0.9c0.5,0.2,0.9,0.4,1.3,0.6c0.4,0.2,0.9,0.3,1.3,0.5c0.4,0.2,0.7,0.3,1.1,0.5
			S436.6,173.8,436.8,174.1z"/>
		<path class="st1" d="M443.4,180.1h-4.4v-0.6c0.1,0,0.3,0,0.4,0c0.1,0,0.3,0,0.4-0.1c0.2-0.1,0.3-0.1,0.4-0.3
			c0.1-0.1,0.1-0.3,0.1-0.5v-5.6c0-0.2,0-0.4-0.1-0.5c-0.1-0.2-0.2-0.3-0.4-0.4c-0.1-0.1-0.3-0.1-0.5-0.2c-0.2-0.1-0.4-0.1-0.6-0.1
			V171l3.2-0.2l0.1,0.1v7.4c0,0.2,0,0.4,0.1,0.5s0.2,0.2,0.4,0.3c0.1,0.1,0.3,0.1,0.4,0.1s0.3,0.1,0.4,0.1L443.4,180.1L443.4,180.1z
			 M442.3,167.3c0,0.3-0.1,0.7-0.3,0.9c-0.2,0.3-0.5,0.4-0.9,0.4c-0.3,0-0.6-0.1-0.8-0.4c-0.2-0.2-0.3-0.5-0.3-0.9
			c0-0.3,0.1-0.6,0.3-0.9c0.2-0.2,0.5-0.4,0.8-0.4c0.3,0,0.6,0.1,0.9,0.3C442.2,166.7,442.3,167,442.3,167.3z"/>
		<path class="st1" d="M460.1,180.1h-4.4v-0.6c0.1,0,0.3,0,0.4,0c0.1,0,0.3,0,0.4-0.1c0.2-0.1,0.3-0.1,0.4-0.3
			c0.1-0.1,0.1-0.3,0.1-0.5v-4.7c0-0.6-0.1-1.1-0.4-1.5c-0.3-0.3-0.7-0.5-1.1-0.5c-0.3,0-0.6,0-0.8,0.1c-0.3,0.1-0.5,0.2-0.7,0.4
			c-0.2,0.1-0.3,0.3-0.5,0.4c-0.1,0.2-0.2,0.3-0.3,0.4v5.2c0,0.2,0,0.4,0.1,0.5c0.1,0.1,0.2,0.2,0.4,0.3c0.1,0.1,0.3,0.1,0.4,0.1
			c0.1,0,0.3,0,0.5,0.1v0.6h-4.3v-0.6c0.1,0,0.3,0,0.4,0c0.1,0,0.2,0,0.4-0.1c0.2-0.1,0.3-0.1,0.4-0.3c0.1-0.1,0.1-0.3,0.1-0.5v-4.7
			c0-0.6-0.1-1.1-0.4-1.5c-0.3-0.3-0.7-0.5-1.1-0.5c-0.3,0-0.6,0-0.9,0.1c-0.3,0.1-0.5,0.2-0.7,0.4c-0.2,0.1-0.3,0.3-0.5,0.5
			c-0.1,0.2-0.2,0.3-0.3,0.4v5.2c0,0.2,0,0.4,0.1,0.5s0.2,0.2,0.4,0.3c0.1,0.1,0.3,0.1,0.4,0.1c0.1,0,0.3,0.1,0.5,0.1v0.6h-4.4v-0.6
			c0.1,0,0.3,0,0.4,0c0.1,0,0.3,0,0.4-0.1c0.2-0.1,0.3-0.1,0.4-0.3c0.1-0.1,0.1-0.3,0.1-0.5v-5.7c0-0.2,0-0.4-0.1-0.5
			c-0.1-0.2-0.2-0.3-0.4-0.4c-0.1-0.1-0.3-0.1-0.4-0.2c-0.2,0-0.3-0.1-0.5-0.1V171l3-0.2l0.1,0.1v1.3h0.1c0.2-0.2,0.3-0.3,0.6-0.5
			c0.2-0.2,0.4-0.4,0.6-0.5c0.2-0.1,0.5-0.3,0.8-0.4c0.3-0.1,0.7-0.1,1-0.1c0.6,0,1.1,0.2,1.5,0.5s0.7,0.7,0.9,1.1
			c0.2-0.2,0.4-0.4,0.6-0.6c0.2-0.2,0.4-0.3,0.7-0.5c0.2-0.2,0.5-0.3,0.8-0.4s0.7-0.1,1.1-0.1c0.8,0,1.4,0.2,1.8,0.8
			c0.5,0.5,0.7,1.3,0.7,2.3v4.6c0,0.2,0,0.4,0.1,0.5s0.2,0.2,0.4,0.3c0.1,0.1,0.3,0.1,0.4,0.1c0.1,0,0.3,0,0.5,0.1L460.1,180.1
			L460.1,180.1z"/>
		<path class="st1" d="M471,179.9l-3,0.2l-0.1-0.1v-1.1h-0.1c-0.1,0.2-0.3,0.3-0.5,0.5c-0.2,0.2-0.4,0.3-0.6,0.5
			c-0.3,0.2-0.5,0.3-0.8,0.4s-0.6,0.1-1.1,0.1c-0.8,0-1.4-0.3-1.8-0.8c-0.4-0.5-0.6-1.3-0.6-2.3v-4.3c0-0.2,0-0.4-0.1-0.6
			c-0.1-0.1-0.2-0.3-0.4-0.4c-0.1-0.1-0.2-0.1-0.4-0.2c-0.2,0-0.3-0.1-0.5-0.1v-0.6l3-0.2l0.1,0.1v6.3c0,0.7,0.1,1.1,0.4,1.5
			c0.3,0.3,0.7,0.5,1.1,0.5c0.3,0,0.6-0.1,0.9-0.2c0.3-0.1,0.5-0.2,0.7-0.4c0.2-0.1,0.3-0.3,0.4-0.4s0.2-0.3,0.3-0.4v-5.1
			c0-0.2,0-0.4-0.1-0.5c-0.1-0.2-0.2-0.3-0.4-0.4c-0.1-0.1-0.3-0.1-0.5-0.1s-0.5,0-0.7,0v-0.6l3.3-0.2l0.1,0.1v7.2
			c0,0.2,0,0.4,0.1,0.5c0.1,0.1,0.2,0.3,0.4,0.4c0.1,0.1,0.2,0.1,0.4,0.1c0.2,0,0.3,0,0.5,0L471,179.9L471,179.9z"/>
		<path class="st1" d="M476.3,180.1h-4.4v-0.6c0.1,0,0.3,0,0.5,0s0.3,0,0.4-0.1c0.2-0.1,0.3-0.1,0.4-0.3c0.1-0.1,0.1-0.3,0.1-0.5
			V168c0-0.2,0-0.4-0.1-0.6s-0.2-0.3-0.4-0.5c-0.1-0.1-0.3-0.1-0.6-0.2s-0.5-0.1-0.7-0.1V166l3.4-0.2l0.1,0.1v12.5
			c0,0.2,0,0.4,0.1,0.5c0.1,0.1,0.2,0.2,0.4,0.3c0.1,0.1,0.3,0.1,0.4,0.1c0.1,0,0.3,0.1,0.5,0.1V180.1z"/>
		<path class="st1" d="M486.1,179.9c-0.3,0.1-0.5,0.2-0.8,0.2c-0.2,0.1-0.5,0.1-0.7,0.1c-0.5,0-0.9-0.1-1.1-0.3
			c-0.3-0.2-0.5-0.6-0.6-1h-0.1c-0.4,0.4-0.8,0.8-1.3,1c-0.5,0.2-1,0.3-1.7,0.3c-0.7,0-1.2-0.2-1.7-0.6c-0.4-0.4-0.7-1-0.7-1.6
			c0-0.3,0-0.7,0.1-0.9s0.2-0.5,0.4-0.7c0.2-0.2,0.4-0.3,0.6-0.5s0.5-0.3,0.7-0.3c0.3-0.1,0.8-0.3,1.7-0.6s1.4-0.5,1.7-0.7v-0.9
			c0-0.1,0-0.2,0-0.5s-0.1-0.4-0.2-0.6c-0.1-0.2-0.3-0.4-0.5-0.6c-0.2-0.2-0.5-0.2-1-0.2c-0.3,0-0.6,0-0.8,0.1
			c-0.2,0.1-0.4,0.2-0.5,0.3c0,0.1,0,0.3,0.1,0.5s0.1,0.5,0.1,0.7c0,0.2-0.1,0.4-0.3,0.6c-0.2,0.2-0.5,0.3-0.8,0.3
			c-0.3,0-0.5-0.1-0.7-0.3c-0.1-0.2-0.2-0.5-0.2-0.7c0-0.3,0.1-0.6,0.3-0.8c0.2-0.3,0.5-0.5,0.8-0.7c0.3-0.2,0.6-0.3,1-0.4
			c0.4-0.1,0.8-0.2,1.1-0.2c0.5,0,1,0,1.4,0.1c0.4,0.1,0.7,0.2,1,0.5c0.3,0.2,0.6,0.5,0.7,0.9c0.2,0.4,0.2,0.9,0.2,1.5
			c0,0.9,0,1.7,0,2.3c0,0.7,0,1.4,0,2.2c0,0.2,0,0.4,0.1,0.6c0.1,0.1,0.2,0.3,0.4,0.4c0.1,0.1,0.2,0.1,0.4,0.1c0.2,0,0.4,0,0.6,0
			L486.1,179.9L486.1,179.9z M482.9,175c-0.5,0.2-1,0.3-1.4,0.5s-0.8,0.3-1.1,0.6c-0.3,0.2-0.6,0.5-0.7,0.7c-0.2,0.3-0.3,0.6-0.3,1
			c0,0.5,0.1,0.9,0.4,1.1c0.3,0.2,0.6,0.4,1,0.4c0.4,0,0.8-0.1,1.1-0.3c0.3-0.2,0.6-0.5,0.8-0.8L482.9,175z"/>
		<path class="st1" d="M492.6,179.7c-0.4,0.2-0.8,0.3-1.1,0.4c-0.4,0.1-0.8,0.2-1.3,0.2c-0.8,0-1.3-0.2-1.6-0.6
			c-0.3-0.4-0.5-0.9-0.5-1.6v-6.2h-1.6V171h1.7v-2.8h1.7v2.8h2.6v0.9h-2.6v5.1c0,0.4,0,0.7,0,1c0,0.3,0.1,0.5,0.2,0.7
			c0.1,0.2,0.2,0.3,0.4,0.4c0.2,0.1,0.5,0.1,0.8,0.1c0.2,0,0.4,0,0.7,0c0.3,0,0.5-0.1,0.6-0.1L492.6,179.7L492.6,179.7z"/>
		<path class="st1" d="M502.4,175.4c0,0.6-0.1,1.3-0.3,1.9c-0.2,0.6-0.5,1.1-0.9,1.6c-0.4,0.5-0.9,0.9-1.5,1.1
			c-0.6,0.2-1.2,0.4-1.9,0.4c-0.6,0-1.1-0.1-1.7-0.3c-0.5-0.2-1-0.5-1.4-1c-0.4-0.4-0.7-0.9-1-1.5c-0.2-0.6-0.3-1.3-0.3-2
			c0-1.4,0.4-2.6,1.2-3.5c0.8-0.9,1.9-1.4,3.3-1.4c1.3,0,2.3,0.4,3.2,1.3C502,172.8,502.4,174,502.4,175.4z M500.5,175.4
			c0-0.5,0-0.9-0.1-1.5c-0.1-0.5-0.2-0.9-0.4-1.3c-0.2-0.4-0.5-0.7-0.8-0.9s-0.7-0.3-1.2-0.3c-0.5,0-0.9,0.1-1.2,0.3
			c-0.3,0.2-0.6,0.6-0.8,1c-0.2,0.4-0.3,0.8-0.4,1.3s-0.1,0.9-0.1,1.4c0,0.6,0,1.1,0.1,1.6c0.1,0.5,0.2,0.9,0.5,1.3
			c0.2,0.4,0.5,0.7,0.8,0.9c0.3,0.2,0.7,0.3,1.2,0.3c0.8,0,1.4-0.4,1.8-1.1C500.2,177.8,500.5,176.8,500.5,175.4z"/>
		<path class="st1" d="M510.7,172.1c0,0.3-0.1,0.6-0.2,0.8c-0.2,0.2-0.4,0.4-0.7,0.4c-0.3,0-0.6-0.1-0.8-0.3
			c-0.2-0.2-0.3-0.4-0.3-0.6c0-0.1,0-0.3,0-0.4c0-0.1,0-0.2,0.1-0.3c-0.3,0-0.6,0.1-1,0.3c-0.4,0.2-0.7,0.6-1,1v5.3
			c0,0.2,0,0.4,0.1,0.5s0.2,0.2,0.4,0.3c0.2,0.1,0.3,0.1,0.6,0.1c0.2,0,0.5,0.1,0.6,0.1v0.6h-4.8v-0.6c0.1,0,0.3,0,0.4,0
			c0.1,0,0.3,0,0.4-0.1c0.2-0.1,0.3-0.1,0.4-0.3c0.1-0.1,0.1-0.3,0.1-0.5v-5.6c0-0.2,0-0.4-0.1-0.6c-0.1-0.2-0.2-0.3-0.4-0.4
			c-0.1-0.1-0.3-0.1-0.4-0.2c-0.2,0-0.3-0.1-0.5-0.1V171l3-0.2l0.1,0.1v1.3h0c0.4-0.5,0.8-0.9,1.3-1.1c0.5-0.3,0.9-0.4,1.3-0.4
			c0.4,0,0.7,0.1,0.9,0.4C510.5,171.4,510.7,171.7,510.7,172.1z"/>
		<path class="st1" d="M260.3,196.7c-0.2,0-0.4,0.1-0.8,0.1c-0.4,0.1-0.6,0.2-0.8,0.3c-0.2,0.2-0.4,0.5-0.5,0.9
			c-0.1,0.4-0.1,1-0.1,1.7v9.6h-0.8l-7.9-10.7v6.8c0,0.8,0,1.3,0.1,1.7c0.1,0.4,0.2,0.7,0.4,0.9c0.1,0.1,0.4,0.3,0.9,0.4
			s0.7,0.2,0.9,0.2v0.7h-5.3v-0.7c0.2,0,0.5-0.1,0.8-0.2c0.4-0.1,0.6-0.2,0.7-0.3c0.2-0.2,0.4-0.4,0.4-0.8c0.1-0.3,0.1-1,0.1-1.8
			V199c0-0.3,0-0.6-0.1-0.8c-0.1-0.3-0.2-0.5-0.4-0.7c-0.2-0.2-0.5-0.4-0.9-0.5c-0.4-0.1-0.7-0.2-0.9-0.2v-0.7h3.7l7.4,10v-6.2
			c0-0.8,0-1.4-0.1-1.8c-0.1-0.4-0.2-0.7-0.4-0.8c-0.2-0.1-0.5-0.2-0.8-0.3c-0.4-0.1-0.7-0.2-0.9-0.2v-0.7h5.3V196.7z"/>
		<path class="st1" d="M269.2,207c-0.4,0.7-0.9,1.3-1.5,1.7c-0.6,0.4-1.4,0.6-2.2,0.6c-0.7,0-1.4-0.1-1.9-0.4c-0.6-0.3-1-0.6-1.4-1
			s-0.6-1-0.8-1.6c-0.2-0.6-0.3-1.2-0.3-1.9c0-0.6,0.1-1.2,0.3-1.7c0.2-0.6,0.5-1.1,0.8-1.5c0.3-0.4,0.8-0.8,1.3-1.1
			c0.5-0.3,1.1-0.4,1.7-0.4c0.7,0,1.2,0.1,1.7,0.3c0.5,0.2,0.9,0.5,1.1,0.9c0.3,0.3,0.5,0.8,0.6,1.2c0.1,0.5,0.2,1,0.2,1.5v0.6h-6
			c0,0.6,0.1,1.1,0.2,1.6c0.1,0.5,0.3,0.9,0.5,1.3c0.2,0.4,0.6,0.6,0.9,0.8c0.4,0.2,0.8,0.3,1.4,0.3c0.6,0,1-0.1,1.4-0.4
			c0.4-0.3,0.8-0.7,1.1-1.4L269.2,207z M267.2,203.5c0-0.3,0-0.7-0.1-1.1c-0.1-0.4-0.1-0.7-0.3-1c-0.1-0.3-0.3-0.5-0.6-0.7
			c-0.2-0.2-0.6-0.3-0.9-0.3c-0.6,0-1.2,0.3-1.6,0.8c-0.4,0.5-0.7,1.3-0.7,2.2L267.2,203.5L267.2,203.5z"/>
		<path class="st1" d="M283.8,200.6c-0.3,0-0.5,0.1-0.8,0.3c-0.3,0.2-0.5,0.5-0.7,0.9c-0.3,0.9-0.6,1.8-0.9,2.6
			c-0.3,0.8-0.6,1.7-0.9,2.7c-0.1,0.3-0.2,0.7-0.3,1c-0.1,0.4-0.2,0.7-0.3,1.1h-0.8l-2.5-6.7l-2.5,6.7h-0.8
			c-0.5-1.4-0.9-2.7-1.4-4.1c-0.4-1.3-0.8-2.5-1.2-3.5c-0.1-0.3-0.3-0.5-0.6-0.7s-0.5-0.3-0.8-0.3V200h4.1v0.6c-0.2,0-0.4,0-0.7,0.1
			c-0.2,0.1-0.3,0.2-0.3,0.3c0,0,0,0.1,0,0.2c0,0.1,0,0.2,0.1,0.3c0.2,0.6,0.4,1.4,0.7,2.2c0.2,0.8,0.6,1.8,1,3.1l2.3-6.5h0.9
			l2.4,6.5c0.3-0.8,0.5-1.6,0.8-2.4s0.5-1.5,0.7-2.2c0-0.2,0.1-0.3,0.1-0.4c0-0.1,0.1-0.3,0.1-0.4c0-0.1,0-0.2-0.1-0.3
			c-0.1-0.1-0.2-0.2-0.4-0.2c-0.1,0-0.3-0.1-0.4-0.1c-0.1,0-0.2,0-0.3,0V200h3.5L283.8,200.6L283.8,200.6z"/>
		<path class="st1" d="M295.7,201.2c0,0.3-0.1,0.6-0.2,0.8c-0.2,0.2-0.4,0.4-0.7,0.4c-0.3,0-0.6-0.1-0.8-0.3
			c-0.2-0.2-0.3-0.4-0.3-0.6c0-0.1,0-0.3,0-0.4c0-0.1,0-0.2,0.1-0.3c-0.3,0-0.6,0.1-1,0.3c-0.4,0.2-0.7,0.6-1,1v5.3
			c0,0.2,0,0.4,0.1,0.5c0.1,0.1,0.2,0.2,0.4,0.3c0.2,0.1,0.3,0.1,0.6,0.1c0.2,0,0.5,0.1,0.6,0.1v0.6h-4.8v-0.6c0.1,0,0.3,0,0.4,0
			c0.1,0,0.3,0,0.4-0.1c0.2-0.1,0.3-0.1,0.4-0.3c0.1-0.1,0.1-0.3,0.1-0.5v-5.6c0-0.2,0-0.4-0.1-0.6c-0.1-0.2-0.2-0.3-0.4-0.4
			c-0.1-0.1-0.3-0.1-0.4-0.2c-0.2,0-0.3-0.1-0.5-0.1v-0.6l3-0.2l0.1,0.1v1.3h0c0.4-0.5,0.8-0.9,1.3-1.1c0.5-0.3,0.9-0.4,1.3-0.4
			c0.4,0,0.7,0.1,0.9,0.4C295.6,200.4,295.7,200.8,295.7,201.2z"/>
		<path class="st1" d="M304.6,207c-0.4,0.7-0.9,1.3-1.5,1.7c-0.6,0.4-1.4,0.6-2.2,0.6c-0.7,0-1.4-0.1-1.9-0.4c-0.6-0.3-1-0.6-1.4-1
			c-0.4-0.4-0.6-1-0.8-1.6c-0.2-0.6-0.3-1.2-0.3-1.9c0-0.6,0.1-1.2,0.3-1.7s0.5-1.1,0.8-1.5c0.3-0.4,0.8-0.8,1.3-1.1
			c0.5-0.3,1.1-0.4,1.7-0.4c0.7,0,1.2,0.1,1.7,0.3c0.5,0.2,0.9,0.5,1.1,0.9c0.3,0.3,0.5,0.8,0.6,1.2c0.1,0.5,0.2,1,0.2,1.5v0.6h-6
			c0,0.6,0.1,1.1,0.2,1.6c0.1,0.5,0.3,0.9,0.5,1.3c0.2,0.4,0.6,0.6,0.9,0.8c0.4,0.2,0.8,0.3,1.4,0.3c0.6,0,1-0.1,1.4-0.4
			c0.4-0.3,0.8-0.7,1.1-1.4L304.6,207z M302.5,203.5c0-0.3,0-0.7-0.1-1.1c-0.1-0.4-0.1-0.7-0.3-1c-0.1-0.3-0.3-0.5-0.6-0.7
			c-0.2-0.2-0.6-0.3-0.9-0.3c-0.6,0-1.2,0.3-1.6,0.8c-0.4,0.5-0.7,1.3-0.7,2.2L302.5,203.5L302.5,203.5z"/>
		<path class="st1" d="M309.9,209.1h-4.4v-0.6c0.1,0,0.3,0,0.5,0c0.2,0,0.3,0,0.4-0.1c0.2-0.1,0.3-0.1,0.4-0.3
			c0.1-0.1,0.1-0.3,0.1-0.5V197c0-0.2,0-0.4-0.1-0.6s-0.2-0.3-0.4-0.5c-0.1-0.1-0.3-0.1-0.6-0.2c-0.3-0.1-0.5-0.1-0.7-0.1V195
			l3.4-0.2l0.1,0.1v12.5c0,0.2,0,0.4,0.1,0.5s0.2,0.2,0.4,0.3c0.1,0.1,0.3,0.1,0.4,0.1c0.1,0,0.3,0.1,0.5,0.1V209.1z"/>
		<path class="st1" d="M319.1,207c-0.4,0.7-0.9,1.3-1.5,1.7c-0.6,0.4-1.4,0.6-2.2,0.6c-0.7,0-1.4-0.1-1.9-0.4c-0.6-0.3-1-0.6-1.4-1
			s-0.6-1-0.8-1.6c-0.2-0.6-0.3-1.2-0.3-1.9c0-0.6,0.1-1.2,0.3-1.7s0.5-1.1,0.8-1.5c0.3-0.4,0.8-0.8,1.3-1.1
			c0.5-0.3,1.1-0.4,1.7-0.4c0.7,0,1.2,0.1,1.7,0.3c0.5,0.2,0.9,0.5,1.1,0.9c0.3,0.3,0.5,0.8,0.6,1.2c0.1,0.5,0.2,1,0.2,1.5v0.6h-6
			c0,0.6,0.1,1.1,0.2,1.6c0.1,0.5,0.3,0.9,0.5,1.3c0.2,0.4,0.6,0.6,0.9,0.8c0.4,0.2,0.8,0.3,1.4,0.3c0.6,0,1-0.1,1.4-0.4
			c0.4-0.3,0.8-0.7,1.1-1.4L319.1,207z M317.1,203.5c0-0.3,0-0.7-0.1-1.1c-0.1-0.4-0.1-0.7-0.3-1c-0.1-0.3-0.3-0.5-0.6-0.7
			c-0.2-0.2-0.6-0.3-0.9-0.3c-0.6,0-1.2,0.3-1.6,0.8c-0.4,0.5-0.7,1.3-0.7,2.2L317.1,203.5L317.1,203.5z"/>
		<path class="st1" d="M328.8,209c-0.3,0.1-0.5,0.2-0.8,0.2c-0.2,0.1-0.5,0.1-0.7,0.1c-0.5,0-0.9-0.1-1.1-0.3
			c-0.3-0.2-0.5-0.6-0.6-1h-0.1c-0.4,0.4-0.8,0.8-1.3,1c-0.5,0.2-1,0.3-1.7,0.3c-0.7,0-1.2-0.2-1.7-0.6c-0.4-0.4-0.7-1-0.7-1.6
			c0-0.3,0-0.7,0.1-0.9c0.1-0.3,0.2-0.5,0.4-0.7c0.2-0.2,0.4-0.3,0.6-0.5c0.2-0.1,0.5-0.3,0.7-0.3c0.3-0.1,0.8-0.3,1.7-0.6
			s1.4-0.5,1.7-0.7v-0.9c0-0.1,0-0.2,0-0.5c0-0.2-0.1-0.4-0.2-0.6c-0.1-0.2-0.3-0.4-0.5-0.6c-0.2-0.2-0.5-0.2-1-0.2
			c-0.3,0-0.6,0-0.8,0.1c-0.2,0.1-0.4,0.2-0.5,0.3c0,0.1,0,0.3,0.1,0.5c0.1,0.2,0.1,0.5,0.1,0.7c0,0.2-0.1,0.4-0.3,0.6
			c-0.2,0.2-0.5,0.3-0.8,0.3c-0.3,0-0.5-0.1-0.7-0.3c-0.1-0.2-0.2-0.5-0.2-0.7c0-0.3,0.1-0.6,0.3-0.8c0.2-0.3,0.5-0.5,0.8-0.7
			c0.3-0.2,0.6-0.3,1-0.4c0.4-0.1,0.8-0.2,1.1-0.2c0.5,0,1,0,1.4,0.1c0.4,0.1,0.7,0.2,1,0.5c0.3,0.2,0.6,0.5,0.7,0.9
			c0.2,0.4,0.2,0.9,0.2,1.5c0,0.9,0,1.7,0,2.3c0,0.7,0,1.4,0,2.2c0,0.2,0,0.4,0.1,0.6c0.1,0.1,0.2,0.3,0.4,0.4
			c0.1,0.1,0.2,0.1,0.4,0.1s0.4,0,0.6,0L328.8,209L328.8,209z M325.6,204.1c-0.5,0.2-1,0.3-1.4,0.5s-0.8,0.3-1.1,0.6
			c-0.3,0.2-0.6,0.5-0.7,0.7c-0.2,0.3-0.3,0.6-0.3,1c0,0.5,0.1,0.9,0.4,1.1c0.3,0.2,0.6,0.4,1,0.4c0.4,0,0.8-0.1,1.1-0.3
			c0.3-0.2,0.6-0.5,0.8-0.8L325.6,204.1z"/>
		<path class="st1" d="M335.7,204.7c0.2,0.2,0.5,0.5,0.6,0.8c0.1,0.3,0.2,0.6,0.2,1.1c0,0.8-0.3,1.5-0.9,2.1
			c-0.6,0.5-1.5,0.8-2.5,0.8c-0.5,0-1-0.1-1.5-0.3c-0.5-0.2-0.8-0.4-1-0.5l-0.2,0.6h-0.7l-0.1-3.2h0.6c0,0.2,0.2,0.5,0.3,0.8
			c0.2,0.3,0.3,0.6,0.6,0.9c0.2,0.3,0.5,0.5,0.9,0.7c0.3,0.2,0.7,0.3,1.1,0.3c0.6,0,1-0.1,1.4-0.4c0.3-0.3,0.5-0.7,0.5-1.1
			c0-0.3,0-0.5-0.1-0.7s-0.2-0.3-0.5-0.5s-0.5-0.3-0.7-0.4s-0.6-0.2-1-0.3c-0.3-0.1-0.6-0.2-1-0.3c-0.3-0.1-0.7-0.3-0.9-0.5
			c-0.3-0.2-0.5-0.5-0.7-0.8s-0.3-0.7-0.3-1.1c0-0.7,0.3-1.4,0.8-1.9c0.6-0.5,1.3-0.8,2.2-0.8c0.4,0,0.7,0,1.1,0.1
			c0.4,0.1,0.7,0.2,0.9,0.3l0.2-0.5h0.7l0.1,2.9h-0.6c-0.1-0.7-0.4-1.2-0.8-1.6c-0.4-0.4-0.9-0.6-1.6-0.6c-0.5,0-0.9,0.1-1.2,0.4
			c-0.3,0.2-0.4,0.6-0.4,0.9c0,0.3,0,0.5,0.1,0.7s0.2,0.3,0.4,0.5c0.2,0.1,0.4,0.2,0.7,0.3c0.3,0.1,0.6,0.2,1,0.4
			c0.4,0.1,0.8,0.3,1.1,0.5C335.2,204.3,335.5,204.4,335.7,204.7z"/>
		<path class="st1" d="M345.9,207c-0.4,0.7-0.9,1.3-1.5,1.7c-0.6,0.4-1.4,0.6-2.2,0.6c-0.7,0-1.4-0.1-1.9-0.4c-0.6-0.3-1-0.6-1.4-1
			s-0.6-1-0.8-1.6c-0.2-0.6-0.3-1.2-0.3-1.9c0-0.6,0.1-1.2,0.3-1.7s0.5-1.1,0.8-1.5c0.3-0.4,0.8-0.8,1.3-1.1
			c0.5-0.3,1.1-0.4,1.7-0.4c0.7,0,1.2,0.1,1.7,0.3c0.5,0.2,0.9,0.5,1.1,0.9c0.3,0.3,0.5,0.8,0.6,1.2c0.1,0.5,0.2,1,0.2,1.5v0.6h-6
			c0,0.6,0.1,1.1,0.2,1.6c0.1,0.5,0.3,0.9,0.5,1.3c0.2,0.4,0.6,0.6,0.9,0.8c0.4,0.2,0.8,0.3,1.4,0.3c0.6,0,1-0.1,1.4-0.4
			c0.4-0.3,0.8-0.7,1.1-1.4L345.9,207z M343.9,203.5c0-0.3,0-0.7-0.1-1.1c-0.1-0.4-0.1-0.7-0.3-1c-0.1-0.3-0.3-0.5-0.6-0.7
			c-0.2-0.2-0.6-0.3-0.9-0.3c-0.6,0-1.2,0.3-1.6,0.8c-0.4,0.5-0.7,1.3-0.7,2.2L343.9,203.5L343.9,203.5z"/>
		<path class="st1" d="M355.9,209.1h-4.4v-0.6c0.1,0,0.3,0,0.4,0c0.1,0,0.3,0,0.4-0.1c0.2-0.1,0.3-0.1,0.4-0.3
			c0.1-0.1,0.1-0.3,0.1-0.5v-5.6c0-0.2,0-0.4-0.1-0.5c-0.1-0.2-0.2-0.3-0.4-0.4c-0.1-0.1-0.3-0.1-0.5-0.2c-0.2-0.1-0.4-0.1-0.6-0.1
			v-0.6l3.2-0.2l0.1,0.1v7.4c0,0.2,0,0.4,0.1,0.5s0.2,0.2,0.4,0.3c0.1,0.1,0.3,0.1,0.4,0.1c0.1,0,0.3,0.1,0.4,0.1L355.9,209.1
			L355.9,209.1z M354.8,196.3c0,0.3-0.1,0.7-0.3,0.9c-0.2,0.3-0.5,0.4-0.9,0.4c-0.3,0-0.6-0.1-0.8-0.4c-0.2-0.2-0.3-0.5-0.3-0.9
			c0-0.3,0.1-0.6,0.3-0.9c0.2-0.2,0.5-0.4,0.8-0.4c0.3,0,0.6,0.1,0.9,0.3S354.8,196,354.8,196.3z"/>
		<path class="st1" d="M367.1,209.1h-4.4v-0.6c0.1,0,0.3,0,0.5,0c0.2,0,0.3,0,0.4-0.1c0.2-0.1,0.3-0.1,0.4-0.3
			c0.1-0.1,0.1-0.3,0.1-0.5v-4.7c0-0.6-0.2-1.1-0.5-1.5s-0.7-0.5-1.1-0.5c-0.3,0-0.6,0-0.9,0.1s-0.5,0.2-0.7,0.4
			c-0.2,0.1-0.4,0.3-0.5,0.5c-0.1,0.2-0.2,0.3-0.3,0.4v5.2c0,0.2,0,0.4,0.1,0.5c0.1,0.1,0.2,0.2,0.4,0.3c0.1,0.1,0.3,0.1,0.4,0.1
			c0.1,0,0.3,0.1,0.5,0.1v0.6h-4.5v-0.6c0.1,0,0.3,0,0.4,0c0.1,0,0.3,0,0.4-0.1c0.2-0.1,0.3-0.1,0.4-0.3c0.1-0.1,0.1-0.3,0.1-0.5
			v-5.6c0-0.2,0-0.4-0.1-0.6c-0.1-0.2-0.2-0.3-0.4-0.4c-0.1-0.1-0.3-0.1-0.4-0.2c-0.2,0-0.3-0.1-0.5-0.1v-0.6l3-0.2l0.1,0.1v1.3h0
			c0.1-0.1,0.3-0.3,0.6-0.5c0.2-0.2,0.4-0.4,0.6-0.5c0.2-0.1,0.5-0.3,0.8-0.4c0.3-0.1,0.7-0.1,1.1-0.1c0.9,0,1.5,0.3,1.9,0.8
			c0.4,0.5,0.6,1.3,0.6,2.2v4.7c0,0.2,0,0.4,0.1,0.5s0.2,0.2,0.4,0.3c0.1,0.1,0.3,0.1,0.4,0.1c0.1,0,0.3,0,0.5,0.1L367.1,209.1
			L367.1,209.1z"/>
		<path class="st1" d="M381.8,209.1h-8.6v-1.3c0.2-0.2,0.4-0.4,0.7-0.6c0.3-0.2,0.6-0.5,1-0.8c0.2-0.2,0.5-0.3,0.9-0.5
			c0.3-0.2,0.7-0.4,1.2-0.6c0.5-0.3,0.9-0.5,1.1-0.7c0.3-0.2,0.5-0.4,0.7-0.7c0.1-0.2,0.3-0.4,0.3-0.7c0.1-0.3,0.1-0.7,0.1-1.2
			c0-0.8-0.2-1.3-0.6-1.7c-0.4-0.4-0.9-0.5-1.6-0.5c-0.4,0-0.8,0.1-1.1,0.2c-0.4,0.2-0.6,0.4-0.8,0.7c0,0.2,0.1,0.4,0.2,0.7
			c0.1,0.3,0.1,0.5,0.1,0.8c0,0.2-0.1,0.4-0.3,0.6c-0.2,0.2-0.5,0.3-0.9,0.3c-0.3,0-0.5-0.1-0.7-0.3c-0.2-0.2-0.2-0.5-0.2-0.9
			c0-0.3,0.1-0.7,0.3-1c0.2-0.3,0.5-0.6,0.8-0.9c0.3-0.3,0.8-0.5,1.2-0.7s1-0.3,1.6-0.3c1.3,0,2.3,0.3,3,0.8
			c0.7,0.6,1.1,1.3,1.1,2.3c0,0.5-0.1,0.9-0.2,1.2c-0.1,0.4-0.3,0.7-0.6,1c-0.3,0.3-0.7,0.6-1.1,0.8c-0.4,0.2-1.1,0.5-2,0.9
			c-0.5,0.2-1,0.5-1.5,0.8c-0.5,0.3-0.8,0.5-1.1,0.8h7.1L381.8,209.1L381.8,209.1z"/>
		<path class="st1" d="M392.1,200.5c0.4,0.5,0.7,1,0.9,1.7c0.2,0.6,0.3,1.3,0.3,2c0,0.8-0.1,1.6-0.4,2.3c-0.2,0.7-0.6,1.2-1,1.6
			c-0.4,0.5-0.9,0.8-1.5,1c-0.6,0.2-1.2,0.3-2,0.3c-0.8,0-1.5-0.1-2.1-0.4c-0.6-0.3-1.1-0.6-1.5-1.1c-0.4-0.5-0.7-1-0.9-1.7
			c-0.2-0.6-0.3-1.3-0.3-2.1c0-0.7,0.1-1.4,0.3-2c0.2-0.6,0.5-1.2,0.9-1.7c0.4-0.5,0.9-0.9,1.5-1.1c0.6-0.3,1.3-0.4,2.1-0.4
			c0.8,0,1.6,0.1,2.2,0.4C391.2,199.6,391.7,200,392.1,200.5z M391.3,204.2c0-1.5-0.2-2.6-0.8-3.4s-1.2-1.2-2-1.2s-1.6,0.4-2.1,1.2
			s-0.8,1.9-0.8,3.4c0,1.4,0.2,2.5,0.7,3.4s1.2,1.3,2.1,1.3c0.9,0,1.6-0.4,2.1-1.3C391,206.7,391.3,205.6,391.3,204.2z"/>
		<path class="st1" d="M403.9,209.1h-8.6v-1.3c0.2-0.2,0.4-0.4,0.7-0.6c0.3-0.2,0.6-0.5,1-0.8c0.2-0.2,0.5-0.3,0.9-0.5
			c0.3-0.2,0.7-0.4,1.2-0.6c0.5-0.3,0.9-0.5,1.1-0.7c0.3-0.2,0.5-0.4,0.7-0.7c0.1-0.2,0.3-0.4,0.3-0.7c0.1-0.3,0.1-0.7,0.1-1.2
			c0-0.8-0.2-1.3-0.6-1.7c-0.4-0.4-0.9-0.5-1.6-0.5c-0.4,0-0.8,0.1-1.1,0.2c-0.4,0.2-0.6,0.4-0.8,0.7c0,0.2,0.1,0.4,0.2,0.7
			c0.1,0.3,0.1,0.5,0.1,0.8c0,0.2-0.1,0.4-0.3,0.6c-0.2,0.2-0.5,0.3-0.9,0.3c-0.3,0-0.5-0.1-0.7-0.3c-0.2-0.2-0.2-0.5-0.2-0.9
			c0-0.3,0.1-0.7,0.3-1c0.2-0.3,0.5-0.6,0.8-0.9c0.3-0.3,0.8-0.5,1.2-0.7c0.5-0.2,1-0.3,1.6-0.3c1.3,0,2.3,0.3,3,0.8
			c0.7,0.6,1.1,1.3,1.1,2.3c0,0.5-0.1,0.9-0.2,1.2c-0.1,0.4-0.3,0.7-0.6,1c-0.3,0.3-0.7,0.6-1.1,0.8c-0.4,0.2-1.1,0.5-2,0.9
			c-0.5,0.2-1,0.5-1.5,0.8c-0.5,0.3-0.8,0.5-1.1,0.8h7.1L403.9,209.1L403.9,209.1z"/>
		<path class="st1" d="M409.3,212.5c-0.6,0-1.1-0.1-1.6-0.2s-0.9-0.3-1.2-0.6s-0.6-0.5-0.8-0.8c-0.2-0.3-0.3-0.7-0.3-1
			c0-0.3,0.1-0.6,0.2-0.8c0.1-0.2,0.4-0.4,0.7-0.4c0.4,0,0.7,0.1,0.8,0.3c0.2,0.2,0.3,0.4,0.3,0.6c0,0.2,0,0.5-0.1,0.7
			c-0.1,0.3-0.1,0.5-0.1,0.6c0,0.1,0.1,0.1,0.2,0.2c0.1,0.1,0.2,0.2,0.4,0.2c0.2,0.1,0.4,0.2,0.6,0.2c0.2,0.1,0.5,0.1,0.9,0.1
			c0.4,0,0.7-0.1,1.1-0.2c0.3-0.1,0.6-0.3,0.9-0.6c0.3-0.3,0.5-0.6,0.6-1c0.1-0.4,0.2-0.9,0.2-1.5c0-0.3,0-0.7-0.1-1
			c-0.1-0.3-0.2-0.6-0.4-0.8c-0.2-0.2-0.5-0.4-0.8-0.6c-0.3-0.1-0.7-0.2-1.2-0.2h-1.2v-1.1h0.8c0.9,0,1.5-0.2,1.8-0.7
			s0.6-1.2,0.6-2.1c0-0.8-0.2-1.4-0.6-1.7c-0.4-0.4-0.9-0.6-1.5-0.6c-0.3,0-0.6,0-0.8,0.1c-0.2,0.1-0.4,0.1-0.5,0.2
			c-0.2,0.1-0.3,0.2-0.4,0.3c-0.1,0.1-0.2,0.2-0.2,0.2c0,0.2,0.1,0.4,0.2,0.7c0.1,0.3,0.1,0.6,0.1,0.8c0,0.2-0.1,0.4-0.3,0.6
			s-0.5,0.3-0.9,0.3c-0.3,0-0.6-0.1-0.7-0.3c-0.1-0.2-0.2-0.5-0.2-0.8c0-0.3,0.1-0.6,0.3-1c0.2-0.3,0.4-0.6,0.8-0.9
			c0.3-0.3,0.8-0.5,1.3-0.7c0.5-0.2,1.1-0.3,1.7-0.3c0.8,0,1.4,0.1,1.9,0.3c0.5,0.2,0.9,0.5,1.2,0.8c0.3,0.3,0.5,0.6,0.6,1
			s0.2,0.6,0.2,0.9c0,0.3,0,0.6-0.1,0.9c-0.1,0.3-0.2,0.6-0.4,0.9c-0.2,0.3-0.5,0.6-0.9,0.8c-0.3,0.2-0.8,0.4-1.3,0.6v0.1
			c0.3,0,0.7,0.1,1.1,0.2c0.4,0.1,0.7,0.3,1.1,0.5c0.3,0.2,0.6,0.6,0.8,1c0.2,0.4,0.3,0.9,0.3,1.5c0,1.2-0.5,2.1-1.4,2.9
			C411.9,212.1,410.7,212.5,409.3,212.5z"/>
	</g>
</g>
<g id="map" class="st4">
	<g id="layer2" class="st5">
		<path class="st6" d="M680.9,170.1c20.4,8.3,40.8,16.7,61.2,25c0.5,0.7,0.2,1.3,0.1,2c-0.1,1.1,0.3,2.1,0.1,3.1
			c-0.2,0.3-0.2,0.8-0.4,0.9c0.1-0.1,0.2-0.5,0.4-0.9c0.4-0.6,0.7-0.2,1.1,0.1c0.1,0.1,0.1,0.2,0.2,0.3c0.5,0.7,0.5,1.6,0.6,2.4
			c0.2,0.7-0.2,1.1-0.8,1.4c-0.5,0.2-1.4,0.5-0.2,1.1c0.3,0.1,0.2,0.6,0.2,1c0,0.3-0.1,0.6,0.1,0.9c0.2,0.2,0.4,0.2,0.7,0.2
			c0.3,0,0.7,0,1,0.2c0.1,0.1,0.2,0.3,0.2,0.5c0,0.4,0.3,0.7,0.5,1.1c0.8,2.8,1.6,5.7,1.7,8.6c0,0.6,0,1.2-0.3,1.7
			c-0.9,1.5-0.5,3.2-0.8,4.7c-0.1,0.3,0.1,0.5,0.2,0.7c0.1,0.2,0.1,0.7,0.6,0.4c0.4-0.3,0.8-0.5,1.3-0.4c0.3,0.1,0.5,0.3,0.6,0.5
			c0-0.4-0.4-0.6-0.4-0.9c0.1-1.5,0.9-2,2.3-1.3c0.4,0.2,0.7-0.1,1.1-0.1c0.2-0.1,0.3-0.2,0.5-0.3c1.2-0.3,2.3,0.1,3.2,0.7
			c0.6,0.4,1,0.6,1.7,0.6c0.3,0,0.6,0.1,0.8,0.3c1.4,0,2.6,0.3,4,0.4c0.3,0.1,0.6,0.2,0.8,0.4c0.1,0.1,0.2,0.2,0.2,0.2
			c0.8-0.5,1.3,0.2,1.9,0.5c0.3,0.1,0.5,0.2,0.7,0.3c0.6,0.3,1,0.7,0.6,1.4c-0.1,0.1-0.2,0.2-0.3,0.3c0.1,0.1,0.2-0.1,0.4-0.2
			c1.5-0.8,3-0.2,4.4-0.2c1.8-0.1,2.4-0.4,2.4-2.2c0-1,0.4-1.5,1.2-2c1.3-0.8,2.4-1.7,3.9-2.1c0.5-0.2,1-0.4,1.6-0.3
			c3.7,0.5,7.2-0.1,10.3-2.4c0.9-0.7,2.1-1.1,3.2-1.7c0.9-0.5,1.8-0.1,2.7,0c11.9,4.9,23.7,9.7,35.6,14.6c0.7,0.3,0.8,0.5,0.5,1.2
			c-36.1,88.2-72.3,176.5-108.4,264.8c-0.5,1.2-1,0.6-1.5,0.4c-107-43.8-213.9-87.6-320.8-131.3c-0.2-0.4,0-0.9,0.4-0.9
			c1.4,0.1,2.2-1.4,3.7-1.1c0.1,0,0.1,0,0.1,0c1.6-0.6,3.1-1.4,4.6-2.3c0.4-0.3,1-0.1,1.3-0.6c0.3-0.3,0.8-0.5,1.2-0.6
			c0.4-0.3,0.9-0.5,0.9-1.1c0-0.5,0.2-0.7,0.7-0.8c3.1-1.5,6.3-2.7,9.5-3.9c1.6-0.5,3.2-0.9,4.7-1.9c1-0.7,2.3-1,3.5-0.9
			c0.8,0,1.5-0.4,2.3-0.7c0.9-0.3,0.8-0.9,0.3-1.5c-0.5-0.6-1.1-1.1-1.5-1.9c-0.3-0.7-1.3-0.4-1.8-0.7c-0.7-0.2-1.3-0.7-2-0.6
			c-0.7-0.1-1.5-0.2-1.7-1c-0.2-1.1,0.6-1.7,1.3-2.3c0.2-0.2,0.3-0.4,0.4-0.6c0.2-0.4,0.1-0.8,0.1-1.2c0.1-0.7,0.8-0.9,1.1-1.4
			c0.2-0.3,0.5-0.6,0.3-0.8c-0.4-0.3-1-0.4-1.6-0.3c-0.3,0-0.6,0.3-0.5,0.6c0.1,0.8,0.3,1.5-0.6,1.8c-1,0.4-1.9,0.7-2.9,0.1
			c-0.8-0.4-0.9-0.8-0.1-1.4c0.2-0.2,0.4-0.3,0.6-0.4c0.6-0.4,0.9-0.7,0.1-1.3c-0.9-0.7-0.7-1.1,0.2-1.6c0.9-0.4,1.4-1.4,2.5-1.3
			c-1.9-0.7-3.6-1.2-5.3,0.6c-0.8,0.9-1.8,0.9-2.4,0.2c-0.3,0.3,0,0.6-0.1,0.9c0,0.2,0,0.4-0.1,0.5c-0.6,1.7-1.3,1.8-2.5,0.5
			c-0.8-0.9-1.6-1.3-2.8-1.1c-1,0.2-1.5-0.2-1.7-1.2c-0.1-0.5-0.3-1-0.6-1.4c-0.4-0.5-0.6-1-0.5-1.7c0.1-0.3,0.1-0.5,0.2-0.7
			c-0.1-1.3-0.7-2.4-1.3-3.5c-0.3-0.6-0.7-1.2-1-1.8c-0.2-0.8-0.6-1.2-1.2-1.5c-0.5-0.9-0.1-1.9,0.6-2.4c1.2-0.7,1.5-1.7,1.8-2.9
			c0.1-0.6,0.3-1.1,0.7-1.5c1-0.8,0.9-1.6,0.3-2.5c-0.2-0.5-0.9-1.2,0.2-1.5c0.2-0.1,0,0,0.1,0c0.8-1.9,2.8-2.2,4.2-3.3
			c1-0.8,1.9-1.8,2.5-2.9c0.4-0.7,0.8-1.2,1.5-1.7c1.2-0.9,2-2.1,2.2-3.8c0.2-1.3,0.1-3.1,1.7-4c0.3-0.2,0.4-0.5,0.4-0.9
			c0-1.4,0.6-2.5,1.6-3.4c0.5-0.5,0.9-0.9,1.2-1.5c0.4-1.1,0.8-2.2,1.9-2.8c0.2-0.1,0.3-0.3,0.3-0.5c0.4-1.6,1.7-2.3,3.1-2.9
			c2.5-1.1,5.1-2.2,6.9-4.5c0.3-0.4,0.7-0.5,1-0.7c2-0.7,3.4-2.2,4.9-3.7c1.2-1.2,2.4-2.5,3.9-3.4c2.4-1.6,4.9-2.7,7.6-3.9
			c1.1-0.5,2-1.1,3-1.7c1.2-0.7,2.4-1.6,3.8-2c1.7-0.4,2.9-1.6,4-2.7c1.1-1.1,2.5-1.6,3.8-2.2c1-0.5,2.3-0.8,3.5-0.9
			c1.1-0.1,2.1-0.2,3.1-0.7c0.4-0.2,0.9-0.3,1.4-0.2c1,0.2,1.8,0.2,2.8,0.2c0.9,0,1.8,0.2,2.4,1.1c0.5,0.6,1.2,1.3,2.1,1.6
			c0.7,0.2,0.8,0.8,0.5,1.5c-0.1,0.4-0.4,0.8-0.3,1.2c1,0.4,1.5-1.2,2.6-0.5c0.2,0.3,0.1,0.6,0,0.9c-0.1,0.1-0.1,0.2-0.2,0.3
			c-0.3,0.3-0.7,0.4-0.9,0.7c0.1,0.1,0.1,0,0.2-0.1c0.2-0.3,0.5-0.4,0.8-0.6c1.2-0.6,2.4-1.2,3.4-2.2c0.4-0.3,0.8-0.5,1.3-0.3
			c0.3,0.1,0.5,0.3,0.7,0.1c1.7-1.5,4-0.7,5.9-1.7c1.1-0.6,1.9-1.6,3-2.3c0.3-0.2,0.3-0.5,0.3-0.8c-0.1-0.6,0.2-1.1,0.4-1.6
			c0.6-1.9,1.8-2.8,3.9-3.2c1.5-0.3,3-1,4.5-1.5c1.3-0.5,2.6-0.8,4-0.4c1.1,0.4,2.9-0.8,3.6-1.7c0.9-1.2,1.2-2.1,0.1-3.3
			c-0.8-0.9-1-2.1-1.7-3.1c-0.5-0.8-0.3-1.9-0.3-2.9c0.1-1.7-0.3-3.3-0.7-4.9c-0.8-3.4-0.8-6.7,1.2-9.8c0.5-0.8,1-1.6,0.6-2.6
			c-0.2-0.4,0.1-0.7,0.3-1.1c1-1.4,1.9-2.7,3.3-3.7c0.5-0.4,1.1-0.6,1.7-0.6c0.9,0,1.6-0.2,2.2-0.9c0.3-0.4,0.9-0.6,1.3,0
			c-0.1,0.6,0.4,0.6,0.7,0.9c0.2,0.2,0.4,0.3,0.5,0.4c1,0.1,1.9-0.2,2.9-0.5c0.5-0.2,0.6,1,1.2,0.4c0.5-0.9,1.1-0.6,1.8-0.3
			c0.3,0.2,0.5,0.3,0.6,0.6c0.2,0.2,0.2,0.6,0.6,0.1c0.2-0.2,0.3-0.4,0.6-0.5c0.1,0,0.2-0.1,0.3-0.1c0.3,0,0.7,0.1,1,0.1
			c0.2,0.1,0.3,0.1,0.5,0.2c0.3,0.2,0.6,0.4,0.8,0.7c0.2,0.7,0.9,0.7,1.3,0.9c0.1,0.1,0.3,0.2,0.4,0.4c0,0.3,0,0.6-0.2,0.9
			c-0.2,0.4-0.7,0.3-1.1,0.4c-0.2,0.1-0.4,0.3-0.6,0.5c-0.3,0.2-0.3,0.4-0.2,0.8c-0.2,0.6,0.5,0.8,0.6,1.2c0.1,0.5,0,0.8-0.5,0.9
			c-1.3,0.3-2.1,1.1-2.6,2.2c-0.4,0.7-1.3,0.7-1.5,1.5c0,0.2-0.1,0.4-0.2,0.7c-0.2,0.3-0.4,0.7-0.4,1.1c-0.1,0.4-0.1,0.8,0.1,1.1
			c0.8,1.1,0.2,2.4,0.6,3.5c0.2,0.4-0.3,0.8-0.7,1c-0.8,0.4-1.6,0.7-2.6,0.5c-0.2-0.1-0.2-0.3-0.4-0.3c0,0,0,0.2,0.1,0.2
			c0,0.3,0,0.6-0.1,0.8c0,0.1,0,0.2-0.1,0.3c0.3,1.7,0.6,3.4,2,4.7c0.4,0.4,0.7,0.3,1.1,0.2c1.8-0.4,3.1,0.6,3.1,2.4
			c0,0.5,0,0.9,0.5,1.2c0.7,0.4,0.6,0.8,0,1.4c-1.1,1-2.1,1.9-3.4,2.6c-0.1,0.3-0.3,0.5-0.4,0.8c-0.3,0.7-0.8,1.2-1.4,1.6
			c-1.1,0.7-1.2,1.7-0.2,2.7c0.2,0.2,0.4,0.5,0.7,0.6c1,0.5,1.6,1.2,2.2,2c0.5,0.7,1.7,0.3,2.2,1.1c0.3,0.7,1,0.6,1.6,0.6
			c1.2,0.4,2.5-0.2,3.7,0.2c0.1,0,0.2,0,0.4,0c0.9,0.1,1.7-0.2,2.6-0.5c1.2,0.1,2.1-0.5,3-1c0.8-0.3,1.6-0.5,2.5-0.4
			c0.4,0,0.7-0.1,1-0.2c0.4-0.1,0.8-0.1,1.3,0.1c0.5,0.1,1,0.2,1,0.9s-0.4,1.1-1.1,1.2c-0.5,0-0.9,0-1.4,0.2c-0.9,0.3-1,0.7-0.3,1.3
			c1.2,1.3,1.1,2.1-0.6,2.6c-0.3,0.1-0.6,0.3-0.7,0.5c-0.3,0.5-0.9,0.8-1.5,0.8c-1.6,0.2-2.7,1.3-3.9,2.1c-0.3,0.3-0.4,0.6-0.2,1.1
			c0.7,2.4,3.7,3.8,5.6,2.6c0.2-0.2,0.5-0.2,0.7-0.3c0.2-0.1,0.3-0.2,0.5-0.2c1.7-1.8,3.8-1.7,6-1.8c1.7-0.1,3.3-0.7,4.3-2.3
			c0.4-0.8,1.6-1,2.5-1.1c0.6,0,1.1,0.2,1.7,0.4c0,0,0-0.1,0.1-0.1c0,0,0-0.1,0-0.1c0.5-0.9,1.3-1,1.9-0.2c0.4,0.5,0.7,1,1,1.6
			c0.3,0.7,0.8,0.9,1.1,0.1c0.3-0.7,0.9-1.1,1.4-1.5c1-0.9,1-1.3,0.2-2.3c-0.1-0.2-0.3-0.3-0.3-0.4c0.2-1.8-1.1-2.2-2.3-2.7
			c-0.3-0.1-0.5-0.2-0.8-0.3c-0.9-0.3-1.5-0.8-1.5-1.8c0-0.2,0,0,0-0.1c-0.1-0.7-0.8-1.2-0.5-2.1c0.4-0.8,1.2-0.4,1.8-0.8
			c0.1-0.1,0.2-0.2,0.3-0.3c0.2-0.3,0.7-0.5,0.3-0.9c-0.7-0.6-1.1-1.6-2.1-1.8c-0.4-0.1-0.9-0.3-1.2,0.1c-0.7,0.8-1.6,0.9-2.5,1.1
			c-0.4,0-0.6,0.3-0.8,0.5c-0.9,0.6-2,0.5-3,0.4c-0.7-0.1-1.4-0.4-1.6-1.3c-0.2-0.6-0.5-1.2-0.8-1.7c-0.2-0.2-0.5-0.3-0.7-0.6
			c-0.5-0.8-1.1-1.1-2-1.1c-0.8,0-1.5-0.2-1.9-1c-0.3-0.5-0.9-0.8-1.4-1.1c-0.6-0.3-0.8-0.6-0.2-1.2c0.5-0.4,0.7-1,1.2-1.5
			c1.2-1.5,1.6-1.6,3.1-0.4c0.3,0.4,0.6,0.8,1.2,0.5c1-0.3,2-0.5,3.1-0.1c0.3,0.1,0.7,0.2,1,0c1.1-0.8,2.6-0.6,3.5-1.8
			c0.1-0.2,0.3-0.3,0.5-0.3c2.3,0.1,3.9-1.5,6-2c1.2-0.2,2.2-1.5,3.4-2.2c0.4-0.2,0.2-0.6,0-0.9c-0.8-1.3-1.3-2.9-2.7-3.9
			c-0.5-0.3-0.7-1-0.7-1.5c0-3.7-0.7-7.3,0.3-10.9c0.1-0.5,0-0.9-0.4-1.3c-0.2-0.2-0.5-0.3-0.5-0.5c-0.3-1.9-1.5-3.6-1.5-5.6
			c0.1-0.4,0.6-0.7,0.4-1.2c-0.4-1.2,0.6-1.2,1.3-1.4c0.3-0.1,0.4-0.3,0.3-0.6c-0.1-0.3-0.1-0.8-0.2-1.2c-0.2-1.4,0.3-1.8,1.6-1.4
			c1.9,0.5,3.6,0.1,5.4-0.9c-2,0.1-2.5-0.3-3.1-2c-0.1-0.5-0.1-1.1-0.7-1.3c-0.4-0.1-0.3-0.6-0.6-0.8c-0.2-0.2-0.3-0.3-0.4-0.6
			c-0.1-0.2,0-0.5,0.2-0.7c0.1-0.1,0.3-0.2,0.4-0.3c0.5-0.1,0.3-0.5,0.3-0.8c0.1-0.9,0.5-1.6,0.9-2.4c0.3-0.7,0.7-1.3,1.6-0.9
			c0.2,0.1,0.4,0.1,0.6-0.1c0.4-0.9,1.5-1.5,1.4-2.7c0-0.7,0.4-1.2,1.1-1.1c0.8,0,1.5-0.3,2.3-0.4c0.4,0,0.8,0.5,1.2,0
			c0.2-0.1,0.4-0.2,0.6-0.3c1-0.6,2.1-1.3,2.6-2.4c0.2-0.5,0.7-0.8,1.1-1c1.3-0.5,2.6-0.8,3.3-2.2c0.1-0.3,0.6-0.3,0.9-0.3
			c0.4,0,0.6-0.1,0.8-0.5c0.1-0.8,0.8-0.8,1.4-0.7c0.6-0.1,0.4-0.5,0.4-0.8c0-0.8,0.8-1,1.1-1.6c0.4-0.4,0.4-1,0.6-1.5
			c0.1-0.1,0.2-0.2,0.3-0.3c0.2-0.1,0.4,0,0.6,0c0.4,0.1,0.7,0.4,1.2,0.6c-0.3-0.6-0.4-1.1,0.3-1.4c1.6-0.2,3.1-0.7,4.4-1.9
			c0.4-0.3,0.7-0.7,1.1-0.1c0.2,0.4,0.1,0,0.2-0.1c0.6-0.8,1.1-0.7,1.7,0.1c1-1.2,2.4-1.9,4-2c0.2,0,0.5,0,0.6-0.1
			c1-1.6,2.3-0.8,3.5-0.4c0.4,0.1,0.6-0.2,0.8-0.4c0.9-0.8,2-1.6,3.1-1.8c1.4-0.2,2.9-0.3,4.2,0.4c0.4,0.2,0.8,0.4,1.3,0.2
			c0.5-0.2,1,0,1.2,0.4c0.4,0.8,0.9,0.7,1.6,0.4c1.1-0.4,1.7,0,1.7,1.2c0.3-0.5,0.2-1.7,1.3-1.2c0.1,0.1,0.2,0.3,0.3,0.4
			c0.1-0.1-0.1-0.3,0-0.4c0.1-0.3,0.3-0.4,0.5-0.5c0.5-0.2,0.9-0.7,1.5-0.2c0.2,0.4,0.6,0.4,1,0.4c0.7,0.2,1,0.5,0.5,1.2
			c-0.3,0.4-0.3,0.8,0,1.3c0.5-0.3,0.6-0.9,0.9-1.3c0.9-1.3,1.9-1.3,3.5-1c1.3,0.3,2.6,0.8,3.9,0.5c0.2-0.1,0.5-0.1,0.6,0
			c1.2,1.2,2.6,0.2,3.9,0.5c1.4,0.4,2.7,0.7,4.2,0.7c0.7,0,1.2,0,1.7-0.6c0.4-0.6,1-0.8,1.7-0.6c0-0.4,0-0.8,0-1.2
			c0.1-0.7-0.4-1.6,0.7-2.1c1.1-0.5,2-0.5,3,0.3c0.2,0.3,0.4,0.6,0.6,0.9c0.3,2.1,0.1,4.2-1.4,5.8c-0.4,0.4-0.3,0.7,0.2,0.8
			c0.6,0.1,1,0.2,1.6,0.2c1,0,1.4,0.4,1.4,1.4c-0.1,0.4,0.1,0.6,0.5,0.7c1.4,0.8,3.1,0.3,4.5,0.9c0.6,0.1,1.2,0.7,1.9,0.1
			c0.1-0.1,0.2-0.1,0.3-0.1c0.8,0,0.6-1,1.1-1.3c0.1-0.1,0.2-0.2,0.3-0.2c0.5-0.1,0.9,0.4,1.4,0.4c0.2,0,0.4,0.1,0.7,0.2
			c0.3,0.1,0.5,0.2,0.8,0.3c0.4,0.2,0.7,0,0.9-0.4c0.9-0.7,1.9-1.1,2.3-2.3c0.1-0.3,0.4-0.5,0.7-0.4c0.9,0.1,1.5-0.4,2.3-0.6
			c1.4-0.3,2.5-1,3-2.4c0.1-0.2,0.2-0.3,0.3-0.4c0.4-0.6,1.3-0.9,1.2-1.8c-0.1-1.6-0.2-3.1-1.3-4.4
			C680.9,170.9,680.4,170.6,680.9,170.1z"/>
		<path class="st7" d="M335.2,295.2c-0.6,1.5-1.3,3.1-1.4,4.8c-0.2,2.2-1,4.2-1.2,6.4c-0.2,2-1.2,4-1.8,5.9c0.1,0.7-0.2,1.2-0.7,1.7
			c-0.8,1.8-1.7,3.5-2.5,5.3c-0.4,0.9-1.5,1.3-1.9,2.3c-0.5,1.4-1.7,2.3-2.5,3.4c-0.7,1.1-1.9,1-3,1.4c-0.2,0.1-0.4-0.1-0.7,0.2
			c-0.4,0.6-0.9,1.2-1.8,1c-0.1,0-0.5,0-0.5,0.2c-0.8,1.2-2.3,1.8-2.6,3.4c-10.5-4.3-21-8.6-31.4-12.9c0.1-1,1.1-1,1.6-1
			c1.2-0.1,1.5-0.8,1.6-1.7c0.2-1.3,0.7-2.5,1.4-3.6c0.5-0.8,0.3-1.1-0.6-1.3c-1.4-0.2-1.6-0.6-1-1.8c0.5-1.1,0.5-2.4,1.1-3.6
			c0.5-1,1.7-0.9,2.5-1.1c0.6-0.2,1.1,0.4,1.1,1.3c0,0.3,0,1.5,0.7,1.3c1-0.3,2.2,0.4,3.1-0.9c0.7-0.9,1.3-2,2.5-2.6
			c0.7-0.4,1-1.4,1.3-2.2c0.5-1.5,0.8-2.9,0.1-4.4c-0.6-1.3,0.4-2.3,2.1-3.1c1.2-0.6,2.2-0.1,3.3,0.1c0.4,0,0.7,0.3,0.7,0.7
			c-0.3,1.1,0.7,1,1,1c1.2-0.2,2.6-0.1,3.7-0.8c0.4-0.3,0.7-0.3,1.1-0.4c1.8-0.6,2.8-2,3.7-3.5c0.3-0.5-0.2-1.2,0.1-1.5
			c1-1.1,0.9-2.4,1-3.7c0.1-0.6,0.5-0.6,0.9-0.3c0.3,0.3,0.6,0.7,0.7,1c0.1,0.5,0.7,0.7,0.8,0.6c1.3-0.6,2.8,0.2,4.1-0.7
			c0.6-0.4,1.4-0.2,2-0.8c0.6-0.5,0.1-1.5,1-1.7c0.3-0.2,0.3-0.4,0.3-0.7c0.3-1.6,1.7-2.2,2.7-3.2c1.2-1.2,2.5-2,3.8-2.9
			c0.4-0.3,0.7-0.3,1.1-0.4c0.3,0,0.6,0.2,1-0.1c1.3-1.4,3.2-1.8,4.9-2.4c0.4-0.2,0.9-0.9,1.2-0.5c0.4,0.4-0.2,1-0.4,1.5
			c-0.2,0.5-0.2,1,0.1,1.6c0.4,0.8-0.2,1.8-0.5,2.7c-0.2,0.7-0.5,1.5-0.9,2.1c-1.3,2.1-1.5,4.6-1.6,7c0,2.2-0.8,4-1.4,5.9
			C335.3,294.5,335.2,294.9,335.2,295.2z"/>
		<path class="st8" d="M537.5,220.3c0.3-0.1,0.6-0.1,0.8,0c-0.3,0.3-0.1,1-0.7,0.8C537.2,221.1,537.5,220.6,537.5,220.3z"/>
		<path class="st9" d="M538.8,219.7c0.1-0.1,0.2-0.3,0.2-0.5c0.3,0,0.5,0,0.7,0.3c0.1,0.2,0.1,0.3,0.2,0.4
			C539.4,220.3,539.1,219.8,538.8,219.7z"/>
		<path class="st7" d="M482.9,199.3c0.7,0.5,1.4,0.7,2.2,0.6c0.4,0,1.7-0.3,1.2,1.1c-0.1,0.2,0,0.4,0.2,0.4c1.4-0.1,0.2,0.7,0.4,1
			c0.3,0.3-0.4,0.9,0.4,1c0.1-0.1,0.1-0.3,0.2-0.3c1.7-1.1,1.7-1.1,0.3-2.5c-0.4-0.4-0.3-0.8-0.1-1.2c0.2-0.5,0.5-0.7,1.1-0.4
			c0.9,0.4,1.8,0.6,2.7-0.2c0.3-0.2,0.4-0.5,0.7-0.6c1.2-0.2,1.6-1.6,2.7-1.9c0.4-0.1,0.9-0.8,1.2-0.3c0.4,0.7,1.5,1,1.5,1.8
			c0,0.9,0.2,1.6,0.7,2.3c0.2,0.2-0.1,0.4-0.2,0.7c-0.3,0.2-0.4,0.6-0.5,0.9c-0.1,1-0.6,1.7-1.6,2c-0.2,0.1-0.4,0.3-0.3,0.5
			c0.1,0.3,0.4,0.2,0.7,0.3c0.3,0.1,0.5,0.3,0.8,0.5c0.5,0.5,1,0.9,1.6,1.2c0.4,0.1,0.7,0.3,1.1,0.4c0.4,0.1,0.8-0.1,1-0.3
			c0.2-0.1,0.4-0.2,0.7-0.2c0.5,0.2,0.9-0.1,1.3-0.2c0.4,0,0.8,0.1,1.1,0.3c0.5,0.2,1.1,0.4,1.7,0.5c0.3,0.1,0.5,0.2,0.7,0.2
			c0.7,0.3,1.3,0.3,2,0.1c0.2-0.1,0.3-0.5,0.6-0.5c0.9,0.3,2,0.1,2.5,1.1c0.7-0.3-0.4-1.8,0.9-1.8l0,0c0.6-0.2,1,0.3,1.5,0.6
			c0.2,1.5,1.4,1.8,2.5,2.1c0.7,0.1,1.4,0.3,1.9,0.8c1-1,0.5-1.8-0.1-2.8c-0.2-0.2-0.4-0.5-0.7-0.2c-0.5,0.5-1,0.3-1.5-0.1
			c-0.5-0.4-0.3-0.8-0.2-1.2c0.2-0.8,0.8-0.5,1.2-0.6c0.2,0,0.3,0,0.8-0.1c-1.8-0.6-1.8-1.8-1.8-3c0-0.6,0.3-0.9,0.8-1.2
			c1.4-0.7,2.4-1.8,3.4-3.1c1-1.2,1.5-2.6,2.5-3.7c0.5-0.6,0.7-0.7,1.1,0c0.2,0.4,0.6,0.7,0.7,0.1c0.3-1.6,1.6-1.1,2.6-1.4
			c0.4,0.1,0.4,0.5,0.2,0.7c-0.7,0.5-0.6,1.3-0.7,2c0.1,0.2-0.1,0.6,0.3,0.3c0.1-0.3,0-0.5-0.1-0.7c-0.1-0.3-0.4-0.9,0-1.2
			c0.5-0.4,0.9-0.2,1.3,0.2c0.1,0.5,0.7,0.4,0.9,0.8c0.2,0.7,1.4,1.4-0.4,1.6c-0.8,0.1-0.7,1-0.4,1.5c0.2,0.4,0.2,0.7,0.1,1
			c-0.3,0.8-0.7,1.4-0.1,2.4c0.3,0.5-0.1,1.2-0.6,1.6c-0.7,0.5-1.2-0.1-1.9-0.2c-0.5,0.2-0.8,0.5-1.3,0.7c-0.3,0.1-0.2,0.4-0.1,0.6
			c0.1,0.5,0.1,1,0.2,1.5c0.1,0.1,0.1,0.3,0.3,0.1c0-0.1,0-0.1,0.1-0.3c0.3-0.3-0.1-0.4-0.2-0.6c-0.3-0.9-0.2-1.5,0.9-1.5
			c0.4,0.3,1.1,0.1,0.7,1c-0.2,0.6,0.2,0.7,0.7,0.4c0.3-0.2,0.5-0.4,0.8-0.3c0.2,0.1,0.9,0,0.3,0.6c0,0-0.1,0.1-0.1,0.1
			c0.6,1.1,0.4,2.3-0.2,3.3c0,0.1,0.2,0.3,0.3,0.5c0.1,0.2,0.8,0.1,0.3,0.7c-0.3,0.4-0.6,0.4-0.8,0.2c-0.6-0.4-1.2-0.5-1.6,0.2
			c0,0.1-0.2,0.1-0.2,0.1c-0.8-0.9-1.8,0.1-2.7-0.2c-0.4-0.1-0.8-0.1-1.2,0.3c-0.5,0.7-1.3,0.8-2,0.5c-0.7-0.3-1.1-0.2-1.3,0.6
			c0,0.3-0.3,0.7-0.5,1c-0.2,0.7-0.8,0.8-1.3,0.5c-0.9-0.5-1.6-0.4-2.6,0c-1.5,0.5-3.1,0.6-4.6,1.4c-1.1,0.6-2.4,0.7-3.4,1.5
			c-0.9,0.7-3.1,0.1-3.7-1c-0.1-0.1,0-0.3-0.2-0.2c-1.1,0.6-1.7-0.4-2.6-0.6c-2.3-0.4-4.7-0.9-7-1.3c-0.4-0.1-0.7-0.1-0.8-0.5
			c-0.1-0.3,0.6-0.7,0.1-1.1c-0.8-0.4-1.4-1.2-2.4-0.8c-0.3,0.2-0.6,0-0.9,0.3c-0.2,0.2-0.7,0.2-0.7,0.7c0.2,1.8-1.2,2.3-2.5,2.7
			c-1.2,0.4-2.2,1.1-3.2,1.8c-0.7,0.5-0.9,1.4-1.1,2.2c-0.2,1.3-0.7,1.7-2.1,1.5c-0.7-0.1-1.4,0.6-2.2,0c-0.2-0.2-0.5-0.2-0.4-0.6
			c0.1-0.3,0.3-0.3,0.4-0.3c1.4-0.4,2.4-1.3,2.9-2.7c0.1-0.4,0.1-0.6-0.3-0.7c-0.4-0.1-1-0.7-1.3-0.2c-0.4,0.6-0.9,0.5-1.3,0.3
			c-1.1-0.3-2.1,0.4-3.2,0.1c-0.3,0.1-0.6,0-0.9,0.1c-1.6,0.3-3,1-4.1,2.4c-0.5,0.6-1.3,0.6-2.1,0.6c-1,0-1.6,0.3-2.3,1.2
			c-0.6,0.8-1.3,1.8-2.4,2.4c-0.8,0.5-1.8,1.1-2.3,2.2c-0.2,0.6-0.7,1-1.3,1.4c-0.7,0.4-0.9,1.4-1.2,2.2c-0.2,0.6-0.3,1.2,0.6,1.3
			c0.6,0,0.6,0.5,0.6,0.8c0,0.5-0.5,0.3-0.8,0.3c-1,0-2,1.3-1.7,2.3c0.2,1.2-0.8,2.6-1.8,2.4c-1.2-0.3-1.3,0.5-1.6,1.1
			c-0.7,1.6-1.1,1.6-2.4,0.4c-0.1-0.7-0.1-1.4,0.1-2c-0.4,0.4-0.8,0.6-1.4,0.2c-0.3-0.3-0.7-0.5-1-0.1c-0.2,0.1-0.3,0.3-0.2,0.4
			c0.2,0.4,0.7,0.3,1,0.4c1.3,0.1,1.3,0.2,0.9,1.2c-0.1,0.1-0.2,0.1-0.2,0.1c-1.3,1.9-1.3,1.7-2.8,0.1c-1.1-1.2-0.4-1.8-0.1-2.7
			c0.2-0.5,0.3-1,0.6-1.4c0.8-1.2,0.2-2.3-0.3-3.5c-0.1-0.2-0.2-0.5-0.2-0.7c0.5-1.6-0.1-3.4,0.8-5c0.1-0.1,0-0.4,0-0.6
			c0-0.3,0-0.5,0.3-0.7c1.2-1.9,3.3-2.8,4.9-4.2c0.5-0.4,0.9-1.2,0.6-1.9c-0.1-0.3-0.2-0.5,0.1-0.6c0.2-0.1,0.4,0.1,0.5,0.3
			c0.8,1.4,2.1,1.4,2.9-0.1c0.4-0.8,0.7-1.6,0.6-2.5c-0.1-1.2,0.7-2.3,1.2-3.3c0.3-0.1,0.5-0.5,0.8-0.6c0.2-0.7,0.6-1.1,1.4-1.3
			c1.6-0.6,3.1-3.5,2.9-5.2c-0.1-0.7,0-1.5,0-2.2c1.6,0.5,2.5,0.1,3.1-1.5c0.3-0.8,0.7-1.1,1.6-0.8c0.5,0.2,0.8,0,1.1-0.2
			c0.4-0.3,0.8-0.8,1.5-0.4c0.1,0.2,0.3,0.4,0.1,0.6c-0.8,0.7-0.8,1.8-1.4,2.6c-0.1,0.1-0.1,0.1-0.1,0.2c-0.2,0.3-0.6,0.4-0.9,0.8
			c0.4,0,0.7-0.4,1.1-0.3c0.9,0.2,0.7-0.7,0.9-1c0.1-0.2,0.1-0.7,0.5-0.6c0.4,0.1,0.4,0.3,0.4,0.6c-0.1,0.6,0.3,0.8,0.9,0.9
			c0.6,0.1,1.2,0.1,1.4-0.7c0.3-1,0.7-1.8,1.7-2.3c0.4-0.2,0.6-0.7,1.1-0.5c0.7,0.3,0.1,0.8,0.3,1.2c-0.1,0.3-0.2,0.7-0.6,0.9
			c0,0.6-1,0.8-0.6,1.3c0.5,0.7,1.2,0,1.8-0.3c0.7-0.3,1.2-0.6,1.7-1.2c0.6-0.9,1.1-0.7,1.5,0.1c0.1,0.1,0.3,0.2,0.4,0.3
			C482.4,198.9,482.7,199,482.9,199.3z"/>
		<path class="st7" d="M412.6,315.1c-0.3,0.7-0.7,1.4-0.9,2.1c-0.8-0.1-1.2,0.5-1.4,1.2c-1,2.2-2.3,4.3-2.4,6.8
			c0,0.6-0.4,0.5-0.7,0.5c-0.8-0.3-1.5,0.1-2.2,0.2c-0.5-0.3-0.6-0.8-0.6-1.4c-0.8,0.1-0.6,0.7-0.9,1c-0.4,0.5-0.7,1-1.5,1.2
			c-0.6,0.1-0.9,1-0.6,1.8c0.3,0.9,0.7,1.8,0.5,2.7c0,0.4-0.1,0.7-0.7,0.5c-0.5-0.2-0.9-0.3-1.5,0.2c-0.5,0.5-0.7-0.4-0.7-0.5
			c0-0.8,0.1-1.5-0.2-2.3c-0.1-0.3,0.1-1,0.7-1.1c0.9-0.2,1.2-1.1,1-1.6c-0.4-1.5,0.5-3,0.3-4.4l0,0c-0.1-0.6-0.1-1.1,0.1-1.6
			c0.5-0.1,1-0.3,0.8-1.1c-0.1-0.4-0.2-0.8-0.4-1.2c0.5-1.2,0.6-2.7,1.5-3.4c0.8-0.8,1.4-1.6,2-2.5c0.4-0.1,0.4-0.4,0.4-0.7
			c0.7-1.1,0.2-2.5,0.4-3.7c0.2-0.2,0.4-0.4,0-0.6c0.6-1.9,0.8-3.9,1-5.8c0.2-1.5,0.6-2.8,1-4.2c0.3-1.1,0-2.2,0.1-3.3
			c0.1-2.4,0.5-4.7,0.9-7c0-0.5,0.3-0.9,0-1.4c-0.1-0.2-0.2-0.7,0.3-0.8c0.4,0,0.5,0.3,0.6,0.6c0.3,2.6,2.3,3.2,4.4,3.5
			c0.7,0.1,1.8,0,2-1c0.3-1.6,1.8-2,2.6-3.2c0.4-0.5,1-1.1,1.3-1.7c0.5-0.9,1.4-1.6,1.9-2.5c0.9-1.8,0.9-3.6,0-5.3
			c-0.5-0.8-0.2-1.5,0-2.3c0.5-1.7,0.4-2-1.1-2.8c-0.3-0.2-0.5-0.3-0.3-0.6c0.8-1.4,0.6-3.3,2-4.4c0.7,0,0.5,0.4,0.5,0.8
			c-0.6,1.8-0.3,3.1,1.6,3.7c0.2,0.1,0.4,0.1,0.6,0.3c0.3,0.3-0.4,1.2,0.5,0.9c0.7-0.1,1.4-0.4,1.8-1.2c0.8-1.4,1.9-2.6,3.3-3.8
			c0.5,1.2,0.4,2.3,0.1,3.4c-0.4,1.6-0.7,3.3-2.3,4.3c-0.8,0.5-1.2,1.6-1.4,2.6c-0.2,1.6-0.9,3-1.9,4.3c-0.5,0.7-1.3,1-1.6,1.9
			c-0.6,1.6-0.5,3-0.1,4.6c0.2,0.6-0.1,1.5-0.6,1.6c-1.2,0.3-1.5,1.3-1.7,2.1c-0.5,1.3-1.5,2-2,3.1c-0.9,1.9-1.5,3.9-2.5,5.8
			c-0.4,0.7,0.3,1.3,0,1.9c-0.4,1-0.8,2-1.7,2.7c-1.2,1.1-1.6,2.4-1.4,4.1c0.1,1,0.2,2,0.5,3c0.1,0.3,0,0.6-0.3,0.7
			c-0.1,0.2-0.2,0.4-0.2,0.4C413.8,313.2,412.8,314.1,412.6,315.1z"/>
		<path class="st7" d="M434.5,262.1c-0.4,1.1-1.6,0.8-2.4,1.1c-0.6,0.2-0.7-1.1-0.9-1.8c-1.2-2.3-1-4.9-2.1-7.3
			c-1-2.2-2.2-4.1-4.2-5.4c-0.3-0.2-0.7-0.3-0.7-0.7c0.2-1-0.7-1.1-1.2-1.6c-0.2-0.4-0.5-0.5-0.9-0.4c-1.4,0.3-2.6,1.1-4.1,1.5
			c0.1-1,0.7-1.6,1.5-2.1c1-0.6,1.6-1.9,1.2-3c0,0-0.2-0.2-0.2-0.2c0.9-2.1-0.6-2.2-2-2.4c0,0-0.1-0.1-0.2-0.3
			c0.8-0.1,1.5-0.2,2-0.6c0.4-0.2,0.8,0,1.2,0c0.3,0.1,0.7,0.3,0.8,0.2c1.5-1,3-0.3,4.1,0.5c1.4,1.1,2.7,0.5,3.8,0.1
			c1.8-0.7,3.5-1.5,4.1-3.6c0.3-0.8,1-0.8,1.6-0.1c0.9,1.2,2,2.4,2.9,3.6c0.6,0.7,1.2,1.5,1.5,2.5c0.3,0.8,2.3,1.7,3,1.2
			c0.6-0.5,1.3-0.3,1.9-0.7c0.5-0.4,1.1,0.1,0.9,0.6c-0.1,0.6,0.3,0.9,0.4,1.4c0.1,0.7,1.2,0.9,1.8,0.3c1.6-1.4,1.6-1.5-0.4-2.6
			c-0.6-0.4-0.4-0.9-0.6-1.3c-0.3-0.7-1-1.3-1-2.1c0-0.3,0-0.6,0.3-0.7c0.6-0.1,1.1,0.1,1.6,0.5c1,0.8,1.8,0.6,2.5-0.4
			c0.5-0.7,1.3-0.3,1.9-0.6c0.4-0.2,0.5,0.8,0.6,1.2c0.1,0.4-0.1,0.7-0.4,0.9c-0.1,0.1-0.1,0.2-0.2,0.3c-1.6,1.7-1.7,2.2-0.5,4.1
			c0.3,0.4,0.3,0.9,0,0.9c-1,0.1-1,0.9-1.3,1.6c-0.5,1.1-1.6,0.6-2.4,0.8c-1.5,0.4-2,0.7-1.9,2.1c0.1,0.8-0.3,0.9-0.9,1.2
			c-0.7,0.2-0.7-0.3-0.9-0.8c-0.5-1.3-2.8-2.3-3.7-1.6c-0.4,0.3-0.6,0.5-0.5,1.1c0.2,1.6-0.4,2.5-1.9,2.6c-0.8,0.1-1,0.7-1.2,1.3
			c-0.4,0.9-0.8,1.8-1.7,2.5c-0.6,0.5-1.2,1.6-0.9,2.8c0.1,0.7-0.1,1.4-0.1,2.1C435,261.6,434.9,261.9,434.5,262.1z"/>
		<path class="st7" d="M600.5,169.1c-0.5,0.7-1.1,1.6-1.4,2.4c-0.4,1.1-1.5,1.5-2.3,2.1c-1.5,1.2-3.2,2.1-4.7,3.3
			c-1.3,1.1-2.6,0.8-3.9,1.2c-0.4,0.2-1.1,0.1-1-0.4c0-0.8-0.5-0.9-0.8-1.3c-0.4-0.5-0.8-1,0.3-1.2c0.5-0.1,0.8-0.5,0.8-1
			c0.1-0.7,0.3-1.2,0.8-1.7c1.8-1.7,3-3.8,4.4-5.7c0.9-1.1,2-2.1,3.5-2.7c0.9-0.3,1.3-1.4,1.7-2.3c0.2-0.4,0.3-0.9,1-1
			c0.8-0.1,1.1,0.2,0.8,0.9c-0.4,0.8-0.4,1.4,0.2,2.1c0.9,1.1,0.5,2.4,0.6,3.6c0.1,0.2,0.1,0.5,0.2,0.7
			C600.8,168.7,600.8,168.9,600.5,169.1z"/>
		<path class="st7" d="M667.8,170.8c-0.4,2.1-2.3,1.5-3.7,2.1c-0.1,0-0.1,0-0.1,0c-0.9,0.7-2,0.7-3,0.8c-0.4,0-0.7,0.1-1-0.1
			c-0.8-0.6-1.8-0.8-2.7-0.9c-0.4,0-0.8,0.2-1.1-0.4c-0.1-0.1-0.4-0.3-0.5-0.2c-1.8,1.3-0.9-1.4-2-1.3c0.2-0.9,0.4-1.7,1.1-2.2
			c0.3-0.3,0.9-0.3,1.4-0.5c0.9-0.4,1.5-1.1,1.8-2c0.3-0.9,0.9-1.3,1.9-1.1c0.5,0.1,1.1-0.2,1.2-0.3c0.9-1.2,2.3,0.4,3.2-0.8
			c0,0,0.4,0,0.4,0.1c1.2,1,2.7,1.8,3.7,3c0.8,0.9,0.1,1.9,0.1,2.9C668.2,170.1,668,170.4,667.8,170.8z"/>
		<path class="st7" d="M508.9,207.1c-0.8,0.1-1.7,0.3-2.4-0.1c-0.1-0.2,0-0.4,0.1-0.5c0.1-0.2,0.3-0.3,0.5-0.4
			c0.3-0.3,1.1-0.4,0.6-0.9c-0.4-0.4-1.2-0.8-1.8,0c-0.4,0.6-0.9,1-1.7,0.9c-1-0.3-2.1-0.1-2.9-0.9c-1-1.4-1.2-1.5-2.7-0.4
			c-0.4,0.3-0.9,0.4-1.4,0.4c-0.2-0.2-0.5-0.4-0.8-0.6c0.9-0.5,1.2-1.5,2-1.9c0.3,0.3,1-0.4,1.2,0.4c0.7-0.2,0.9-0.9,0.7-1.2
			c-0.7-1.5,0.8-1.6,1.3-1.6c1.2-0.2,2-0.7,2.6-1.6c0.3-0.5,0.7-0.4,0.7,0c0.2,2.5,1.9,2.5,3.7,2.2c0.3,0,0.5-0.4,0.7-0.5
			c0.2-0.5,0.5-0.9,1.1-1c0.5,0,0.8-0.4,0.9-0.7c0.2-0.4,0.4-0.8,0.9-0.4c0.4,0.3,1.4-0.1,1,1.1c1.5,1.2-0.2,2.8,0.4,4
			c0.1,0.2,0.6,0.2,0.3,0.6c-0.9-0.1-1.6,0.5-2.6,0.5c-0.7,0-0.7,1.1-1.1,1.6c-0.4,0.2-0.8,0.3-1.2,0.4
			C508.3,206.4,508.5,206.8,508.9,207.1z"/>
		<path class="st10" d="M401.5,249.7c0-0.3,0.5-0.7,0-1c-0.4-0.2-0.8-0.6-1.5-0.2c-0.7,0.4-1.4,0.9-2.3,1c-0.3,0-0.7,0.3-0.9,0
			c-0.3-0.4-0.2-0.8,0.1-1.3c0.2-0.3,0.2-0.7,0.7-0.5c1.6,0.2,3.2,0.1,4.8-0.6c0,0,0.2-0.1,0.2,0c1.4,0.6,2.5-0.3,3.7-0.8
			c1.2-0.4,2.3-1.2,3.7-1.3c0.2,0.1,0,0.4-0.1,0.4c-1.3,0.6-1.8,2.3-3.5,2.1c-0.2,0-0.4,0-0.5,0.2c-0.5,0.9-1.6,1-2.3,1.2
			c-0.8,0.2-0.8,0.7-1.1,1.1C402,250.2,401.7,250.1,401.5,249.7z"/>
		<path class="st10" d="M350.1,269.8c0,0.5-0.5,0.9-0.4,1.5c0,0.3-0.2,0.6-0.4,0.5c-0.9-0.5-1.6,0.4-2.4,0.1
			c-0.7-0.3-0.9,0.5-1.2,0.9c-0.7,0.9-1.4,1.4-2.5,0.9c-0.3-0.1-0.6-0.2-0.8,0c-0.4,0.4-0.8,0.2-1.1-0.1c-0.2-0.3,0.1-0.7,0.3-1
			c0.3-0.4,0.5-0.9,1.1-0.5s0.7,0.1,1.3-0.3c1.2-0.7,1.8-2.6,3.8-1.9c0.8,0.3,1.2-0.6,1.9-0.8C349.7,269.4,350,269.5,350.1,269.8z"
			/>
		<path class="st11" d="M419.6,243.3c0,1.2-1.1,1.1-1.7,1.4c-1.2,0.6-2.5,1.1-3.4,2.1c-0.6,0.6-1,0.7-1.5,0.1
			c-0.1-0.1-0.1-0.1-0.2-0.2c-0.2-0.5-1.3-0.2-1-1c0.2-0.6,1.1-0.5,1.6-0.4c1.3,0.1,2.3-0.2,3.1-1.2c0.4-0.6,1.1-0.1,1.4-0.6
			C418.5,242.8,419,242.6,419.6,243.3z"/>
		<path class="st12" d="M393.7,248.3c-1.8,1.4-4.1,1.9-6.1,2.7c-0.4,0.2-0.9,0.1-1.1-0.4c-0.1-0.5,0.4-0.5,0.7-0.7
			c1.4-0.8,2.9-1.3,4.4-1.7C392.6,247.8,392.6,247.7,393.7,248.3z"/>
		<path class="st13" d="M544,214.1c0.5,0.2,0.8,0.3,1.1,0.5c0.3,0.4,1,0.7-0.2,1.2c-1.1,0.5-2,0.2-3-0.1c-0.4-0.1-1.2-0.2-1-1
			c0.2-0.8,0.8-1,1.6-1C543,213.8,543.7,213.8,544,214.1z"/>
		<path class="st14" d="M550,173c-0.4-0.4-0.1-1,0.2-1c0.6-0.1,0.9-0.6,1.4-0.6c1.1,0.1,1.9-0.5,2.3-1.3c0.3-0.5,0.6-0.4,0.9-0.3
			c0.5,0.3,0.1,0.7,0,0.9c-0.5,1-1.9,0.9-2.1,2.2c0,0-0.2,0.1-0.3,0.1c-0.7-0.5-1.4-0.6-2,0.1C550.2,173.1,550,173.1,550,173z"/>
		<path class="st15" d="M450.3,235.5c0.2-0.6,0.3-1.2-0.7-0.9c-0.6,0.2-1.3,0-1.7-0.3c-0.3-0.2,0.1-0.9,0.4-1.2
			c0.4-0.3,1-0.6,1.3-0.1c0.7,1.2,1.1,0.4,1.7-0.2c-0.5,0.9,0.1,1.7-0.4,2.5C450.7,235.5,450.5,235.5,450.3,235.5z"/>
		<path class="st16" d="M471.5,220c-0.3,0.8-1.2,0.8-1.8,1.1c-0.1-0.7,1-1.4,0.1-2.1c0.4-0.3,0.9-0.7,1.4-1c0.2-0.1,0.8,0,0.9,0.1
			c0.3,0.4-0.3,0.7-0.3,1.1C471.8,219.6,471.8,219.8,471.5,220z"/>
		<path class="st17" d="M509,206.2c0.4-0.3,0.7-0.8,1.2-0.3c0.8,0.5,1.5-0.9,2.3-0.2c-0.2,0.2-0.7,0.2-0.5,0.4
			c0.7,0.9-0.1,1.3-0.5,2c-0.2-0.8-0.5-1.2-1.3-1.2c-0.5,0-0.9-0.1-1.3-0.5c-0.1-0.1,0-0.2,0-0.2C509,206.2,509,206.2,509,206.2z"/>
		<path class="st18" d="M542.2,179c-0.4,0.3-0.6,0.7-1.3,0.6c-0.5-0.1-1.1-0.1-1.6,0c-0.3,0.1-0.5,0.2-0.6-0.1
			c-0.1-0.3,0-0.6,0.2-0.7c0.8-0.2,1.5-0.5,2.2-1c0.3-0.2,0.7-0.2,0.9,0C542.7,178.2,541.9,178.6,542.2,179z"/>
		<path class="st19" d="M498.3,202.6c-0.4,0.8-0.7,1.9-2,1.9c-0.4,0-1,0.3-1.1-0.1c-0.2-0.5,0.4-1.1,0.7-1.1c1.5,0.1,1.5-1.1,2-2.1
			c0.1-0.2,0.3-0.3,0.4-0.4C498.2,201.4,497.1,202.1,498.3,202.6z"/>
		<path class="st20" d="M355.5,264.8c0.7,0.1,0.5,0.6,0.1,1c-0.5,0.5-1.1,1-1.6,1.5c-0.2,0.2-0.4,0.2-0.7,0
			c-0.2-0.2-0.2-0.5-0.1-0.7c0.5-0.5,0.7-1.1,0.9-1.7C354.5,264.4,354.9,264.6,355.5,264.8z"/>
		<path class="st21" d="M527.6,214.6c-0.7,0.4-0.8,1.2-1.2,1.9c-0.4,0.6-0.8,0.8-1.4,0.3c-0.1-0.3,0-0.6,0.2-0.8
			c0.7-0.7,1.1-1.7,2.1-2.2c0.2-0.1,0.4-0.1,0.6,0C528,214.2,527.9,214.4,527.6,214.6z"/>
		<path class="st22" d="M378.4,252.3c-0.3,0.7-1.1,0.6-1.6,0.7c-0.7,0.1-1.2,0.3-1.7,0.9c-0.3,0.4-0.6,0.3-0.8,0
			c-0.2-0.3,0.1-0.5,0.4-0.7c1-0.5,1.8-1.3,3-1.2C378,251.9,378.3,252,378.4,252.3z"/>
		<path class="st23" d="M524.7,202.6c0.5-0.2,0.7-0.7,1.4-0.5c-0.1,0.1-0.1,0.3-0.2,0.4c-0.7,0.4-0.8,0.9-0.7,1.7
			c0.1,0.1,0.1,0.2,0.1,0.3c0.1,0.3,0.5,0.6,0.2,1.1c-0.1,0.1-0.3,0.2-0.5,0.1c-0.3-0.2-0.6-0.5-0.6-1c0-0.4,0-0.9,0-1.4
			C524.4,203,524.5,202.8,524.7,202.6z"/>
		<path class="st24" d="M528.5,193.3c-0.4-0.3-1-0.4-1.3,0c-0.4,0.3,0.2,0.6,0.3,0.9c0,0.4,0.4,0.8-0.1,1.1c-0.4,0-0.8,0.1-0.9-0.5
			c0-0.8,0.1-1.5,0.7-2.1c0.3-0.3,0.5-0.5,0.2-0.9C528.5,191.8,527.9,193.1,528.5,193.3z"/>
		<path class="st21" d="M529.3,188.1c0.2-0.7,0.8-0.5,1.2-0.3c0.6,0.1,1,0.6,0.8,1.2c-0.1,0.4-0.8,0.5-1.2,0.2
			C529.7,188.9,529.1,188.7,529.3,188.1z"/>
		<path class="st25" d="M526.4,189.2c0.1-0.7,0.9-0.8,1.4-1.3c0.2-0.2,0.3-0.1,0.4,0c0.1,0.1,0,0.3,0,0.4c-0.5,0.6-0.9,1.1-1.3,1.7
			c-0.2,0.3-0.5,0.2-0.7,0C526,189.9,526.3,189.6,526.4,189.2z"/>
		<path class="st26" d="M411.7,240.7c0.4-0.4,1-0.3,1.4-0.2c0.4,0,0.5,0.3,0.3,0.7c-0.4,0.8-1.1,0.2-1.6,0.2
			C411.5,241.5,411.5,241,411.7,240.7z"/>
		<path class="st27" d="M544.8,177.2c-0.2,0.1-0.1,0.8-0.6,0.4c-0.4-0.3-0.4-0.7-0.2-1.1c0.1-0.3,0.3-0.7,0.7-0.4
			C545.2,176.4,545,176.8,544.8,177.2z"/>
		<path class="st28" d="M345.4,275.2c0.1-0.4,0.3-0.5,0.7-0.3c0.6,0.2,0.4,0.6,0.3,1c0,0.3-0.4,0.7-0.6,0.5
			C345.4,276.1,345.2,275.7,345.4,275.2z"/>
		<path class="st29" d="M530.8,206.8c0.5,0.3,0.6-0.5,1-0.4c0.3,0,0.6,0,0.9,0c0,0,0.1,0.1,0.1,0.1c-0.3,0.8-1.4,0.8-1.9,1.4
			C530.9,207.5,530.5,207.2,530.8,206.8z"/>
		<path class="st30" d="M500.9,218.5c0.2-0.5,0.4-0.7,0.8-0.6c0.4,0.1,0.4,0.4,0.4,0.8c-0.1,0.5-0.5,0.6-0.8,0.5
			C500.9,219.1,500.9,218.7,500.9,218.5z"/>
		<path class="st18" d="M435.9,262c0.2-0.3,0.4-0.5,0.8-0.4c0.4,0.2,0.6,0.5,0.4,0.9c-0.1,0.3-0.3,0.5-0.6,0.4
			C436,262.8,436,262.4,435.9,262z"/>
		<path class="st31" d="M569.5,167.7c0-0.4-0.6-1,0.2-1.1c0.8-0.1,0.6,0.7,0.8,1.2C570.2,168.1,569.9,168.3,569.5,167.7z"/>
		<path class="st32" d="M575.7,167.8c0.1-0.6,0.4-0.8,1-0.6c0.3,0.1,0.4,0.4,0.3,0.6c-0.2,0.5-0.7,0.5-1.2,0.3
			C575.7,168.1,575.7,167.9,575.7,167.8z"/>
		<path class="st33" d="M579.3,168.3c-0.6,0-1,0.9-1.5,0.1c-0.2-0.3-0.1-0.7,0.1-0.8C578.7,167.3,578.9,168,579.3,168.3z"/>
		<path class="st34" d="M470.4,199.5c0.4-1.1,0.9-2,1.3-3.1c0.3,0.1,0.8,0.5,0.4,0.7C471.1,197.7,471.2,198.9,470.4,199.5z"/>
		<path class="st34" d="M470.4,200.1c-0.3,0.5-0.9,0.6-1.4,0.9c-0.1-1.1-0.1-1.2,1.2-1.3C470.3,199.9,470.4,200,470.4,200.1z"/>
		<path class="st35" d="M453.6,244.5c0.2-0.4,0.5-0.7,0.9-0.5c0.4,0.2,0.1,0.5,0.1,0.8c-0.1,0.4-0.4,0.4-0.8,0.3
			C453.6,244.9,453.4,244.8,453.6,244.5z"/>
		<path class="st7" d="M533.8,206.8c-0.3-0.1-0.8,0-1-0.4l0,0c-0.1-0.4,0.1-0.7,0.3-0.9c0.3,0.1,0.7,0.1,1,0.4
			C534.3,206.3,534.2,206.7,533.8,206.8z"/>
		<path class="st36" d="M525.9,211.3c-0.3-0.2-0.5-0.4-0.3-0.7c0.1-0.4,0.4-0.4,0.7-0.3c0.3,0.1,0.4,0.3,0.2,0.6
			C526.5,211.2,526.3,211.4,525.9,211.3z"/>
		<path class="st37" d="M510.9,231.1c0.3,0.2,0.3,0.4,0.2,0.6c-0.2,0.3-0.5,0.3-0.8,0.2c-0.2-0.1-0.2-0.3-0.1-0.5
			C510.3,231,510.6,231,510.9,231.1z"/>
		<path class="st38" d="M356.4,263.9c0.1-0.2,0.2-0.5,0.5-0.2c0.2,0.2,0.5,0.2,0.4,0.6c-0.1,0.4-0.4,0.3-0.7,0.3
			C356.3,264.4,356.3,264.1,356.4,263.9z"/>
		<path class="st39" d="M360,262.8c-0.2,0.3-0.2,0.7-0.7,0.5c-0.2-0.1-0.3-0.3-0.2-0.5c0.2-0.5,0.6-0.5,1-0.3
			C360.1,262.6,360.1,262.7,360,262.8z"/>
		<path class="st32" d="M366.1,258.5c0.1-0.3,0.4-0.3,0.6-0.2c0.3,0.1,0.4,0.3,0.3,0.6c-0.1,0.3-0.3,0.2-0.5,0.1
			C366.3,258.9,366.1,258.8,366.1,258.5z"/>
		<path class="st40" d="M368.7,256.1c0.6,0.2,0.5,0.4,0.4,0.6c-0.1,0.3-0.4,0.3-0.6,0.3c-0.3-0.1-0.3-0.3-0.2-0.5
			C368.5,256.1,368.7,256,368.7,256.1z"/>
		<path class="st41" d="M503.2,218.5c-0.4-0.1-0.8-0.3-0.6-0.7c0.2-0.5,0.7-0.2,1,0.1C503.6,218.1,503.5,218.3,503.2,218.5z"/>
		<path class="st42" d="M437.3,263.3c0.1,0.6,0.1,1.1-0.5,1.4c0,0-0.3-0.1-0.3-0.2C436.5,264,436.8,263.6,437.3,263.3z"/>
		<path class="st43" d="M514,206.3c-0.5-0.2-0.9-0.4-1.5-0.6C513.1,205.1,513.1,205.1,514,206.3z"/>
		<path class="st44" d="M354.7,269.8c-0.3-0.2-0.3-0.4-0.1-0.6c0.2-0.3,0.4-0.3,0.6-0.2c0.2,0.1,0.2,0.4,0,0.6
			C355.2,269.8,355,270,354.7,269.8z"/>
		<path class="st23" d="M419.6,243.3c-0.6-0.6-1.1-0.1-1.7,0.2C418.6,242.3,418.8,242.2,419.6,243.3z"/>
		<path class="st45" d="M372.5,255.1c-0.3-0.2-0.4-0.3-0.3-0.6c0.1-0.3,0.3-0.2,0.5-0.1c0.4,0.1,0.2,0.3,0.2,0.6
			C372.9,255.1,372.8,255.2,372.5,255.1z"/>
		<path class="st46" d="M640.9,176c0.3,0.2,0.7,0.1,1,0.5c-0.3,0.5-0.7,0-1.1,0c-0.3-0.1-0.4-0.3-0.4-0.6
			C640.6,175.7,640.8,175.6,640.9,176z"/>
		<path class="st24" d="M533.2,205.5c-0.1,0.3-0.2,0.7-0.3,0.9c-0.4,0.1-0.8,0-1-0.2C532.3,206.1,532.8,205.8,533.2,205.5z"/>
		<path class="st45" d="M640.4,176c0.2,0.1,0.4,0.3,0.4,0.5c-0.1,0.4-0.3,0.4-0.6,0.3c-0.5-0.3-0.1-0.5,0-0.8
			C640.3,175.8,640.4,175.8,640.4,176z"/>
		<path class="st47" d="M531,198.1c0.1-0.2,0.3-0.3,0.5-0.2c0.2,0.1,0.3,0.3,0.2,0.5c-0.1,0.2-0.3,0.3-0.5,0.2
			C530.9,198.5,530.9,198.2,531,198.1z"/>
		<path class="st48" d="M473.9,196.2c0.1-0.2,0.3-0.1,0.5,0c0.3,0.1,0.3,0.4,0.2,0.6c-0.1,0.3-0.3,0.3-0.5,0.1
			C473.8,196.7,473.8,196.5,473.9,196.2z"/>
		<path class="st49" d="M487.3,203.4c-0.7,0.1-0.7,0.1-0.4-1C487.5,202.6,487.2,203,487.3,203.4z"/>
		<path class="st50" d="M546.7,175.2c0.1-0.3,0.4-0.2,0.7-0.2c0.3,0.1,0.2,0.2,0.2,0.4c-0.1,0.3-0.3,0.4-0.6,0.3
			S546.6,175.5,546.7,175.2z"/>
		<path class="st40" d="M529.7,198.6c0.1-0.3,0.3-0.3,0.5-0.2c0.2,0.1,0.3,0.2,0.2,0.4c-0.1,0.2-0.2,0.4-0.5,0.3
			C529.8,199,529.7,198.8,529.7,198.6z"/>
		<path class="st9" d="M541.2,219.3c-0.3,0.2-0.5,0.4-0.8,0.5c-0.2-0.2-0.4-0.4-0.1-0.7C540.6,218.9,540.9,219.2,541.2,219.3z"/>
		<path class="st51" d="M434.5,262.1c0.1-0.3,0.2-0.7,0.4-0.9C435.4,261.8,435.3,262.1,434.5,262.1z"/>
		<path class="st52" d="M416.2,240.1c0.1-0.2,0.2-0.4,0.4-0.3c0.3,0.1,0.3,0.3,0.1,0.5c-0.1,0.2-0.2,0.5-0.5,0.3
			C416,240.6,416.2,240.3,416.2,240.1z"/>
		<path class="st23" d="M569.5,167.7c0.3,0.3,0.7,0.1,1,0.1c-0.2,0.3-0.4,0.6-0.9,0.5C569.4,168.3,569.4,168,569.5,167.7z"/>
		<path class="st53" d="M555.8,171.3c0.3-0.2,0.5-0.4,0.8-0.3c0,0,0.1,0.3,0,0.3C556.3,171.7,556.1,171.5,555.8,171.3z"/>
		<path class="st54" d="M530.8,206.8c0,0.4,0.4,0.7,0.2,1.1C530.7,207.5,530,207.3,530.8,206.8z"/>
		<path class="st55" d="M477.1,198.7c0.2-0.3,0.1-0.8,0.6-0.9C477.9,198.4,477.9,198.8,477.1,198.7z"/>
		<path class="st56" d="M453,240c0.1-0.3,0.2-0.7,0.4-0.9C454,239.6,453.6,239.8,453,240z"/>
		<path class="st57" d="M482.9,199.3c-0.3-0.1-0.7-0.3-1-0.4C482.5,198.8,482.9,198.4,482.9,199.3z"/>
		<path class="st58" d="M594.8,159.7c0.1-0.1,0.2-0.3,0.4-0.2c0.1,0.1,0.2,0.3,0.2,0.4c0,0.2-0.2,0.2-0.4,0.1
			C594.8,160,594.8,159.9,594.8,159.7z"/>
		<path class="st59" d="M465,220.1c0.2,0,0.3-0.1,0.4-0.1c0.2,0.1,0.3,0.2,0.2,0.4c0,0.1-0.2,0.1-0.3,0
			C465.2,220.4,465.1,220.3,465,220.1z"/>
		<path class="st49" d="M471.5,220c0.1-0.2,0.2-0.5,0.3-0.7c0.2,0.1,0.4,0.2,0.3,0.4C472,220.1,471.7,220,471.5,220z"/>
		<path class="st60" d="M509.3,200.1c-0.1,0.4-0.1,0.8-0.7,0.5C508.7,200.3,508.8,200,509.3,200.1z"/>
		<path class="st61" d="M525.2,216.1c-0.1,0.3-0.2,0.5-0.2,0.8c-0.3-0.1-0.4-0.3-0.3-0.5C524.8,216.1,525,216.1,525.2,216.1z"/>
		<path class="st62" d="M492.3,198.2c-0.2,0.2-0.2,0.8-0.7,0.6C491.6,198.5,491.8,198,492.3,198.2z"/>
		<path class="st63" d="M548.5,221.9c0.1-0.1,0.2-0.2,0.3-0.2c0.2,0.1,0.2,0.2,0.1,0.3c0,0.1-0.2,0.1-0.3,0.1
			C548.6,222.2,548.5,222.1,548.5,221.9z"/>
		<path class="st64" d="M537.5,177.9c0.1-0.3,0.3-0.2,0.4-0.2c0.1,0,0.2,0.1,0.2,0.2c0,0.1-0.1,0.3-0.3,0.2
			C537.7,178.1,537.6,178,537.5,177.9z"/>
		<path class="st65" d="M475.1,192c0.2-0.2,0.2-0.4,0.4-0.2c0.1,0.1,0.1,0.2,0,0.3c-0.1,0.1-0.2,0.3-0.4,0.2
			C475.1,192.3,475.1,192.1,475.1,192z"/>
		<path class="st26" d="M539.7,219.5c-0.3-0.1-0.4-0.2-0.7-0.3c0.1-0.3,0.3-0.4,0.6-0.3C539.9,219.2,539.8,219.3,539.7,219.5z"/>
		<path class="st66" d="M489.4,209.5c0.1-0.7,0.6-0.3,0.9-0.3C490.1,209.7,489.7,209.7,489.4,209.5z"/>
		<path class="st67" d="M600.5,169.1c0.1-0.2,0.2-0.5,0.3-0.7c0.2,0.1,0.4,0.3,0.3,0.6C600.8,169.2,600.7,169.2,600.5,169.1z"/>
		<path class="st68" d="M360,262.8c0.1-0.1,0.1-0.3,0.1-0.4c0.1-0.2,0.2-0.3,0.3-0.5c0.1,0.1,0.2,0.1,0.2,0.2
			C360.7,262.6,360.3,262.7,360,262.8z"/>
		<path class="st69" d="M383.6,251.7c0.2,0.1,0.2,0.2,0.2,0.4c-0.1,0.2-0.1,0.3-0.4,0.3c-0.1,0-0.3-0.2-0.2-0.4
			C383.4,251.7,383.4,251.7,383.6,251.7z"/>
		<path class="st70" d="M433.5,269.8c0,0.2,0.1,0.3,0,0.4c-0.1,0.2-0.2,0.3-0.4,0.2c-0.1,0,0-0.2,0-0.3
			C433.3,270,433.4,269.9,433.5,269.8z"/>
		<path class="st71" d="M460.2,208.1c-0.1,0.4-0.2,0.8-0.8,0.6C459.5,208.3,459.6,207.9,460.2,208.1z"/>
		<path class="st72" d="M473.7,214.5c0.2-0.6,0.6-0.3,0.9-0.1C474.3,214.8,474,214.7,473.7,214.5z"/>
		<path class="st73" d="M446.8,238.2c-0.1,0.2-0.2,0.5-0.3,0.7c-0.2-0.1-0.4-0.3-0.3-0.5C446.3,238.1,446.5,238.2,446.8,238.2z"/>
		<path class="st49" d="M448.5,221.1c-0.1,0.2-0.2,0.5-0.3,0.7c-0.2-0.1-0.4-0.3-0.3-0.5C447.9,221.1,448.1,221,448.5,221.1z"/>
		<path class="st74" d="M536.3,185.9c0.1,0.1,0.2,0.2,0.3,0.3c-0.1,0.1-0.2,0.1-0.3,0.2c-0.1,0-0.1-0.1-0.2-0.2
			C536.1,186,536.2,186,536.3,185.9z"/>
		<path class="st75" d="M476.3,185.9c-0.2-0.1-0.4-0.2-0.3-0.4c0.1-0.2,0.2-0.2,0.4-0.1c0.1,0.1,0.2,0.3,0.2,0.4
			C476.7,186,476.4,185.8,476.3,185.9z"/>
		<path class="st76" d="M513.9,203.7c-0.1-0.2-0.2-0.4-0.3-0.6c0.3,0.1,0.6-0.1,0.7,0.3C514.4,203.7,514.2,203.8,513.9,203.7z"/>
		<path class="st77" d="M503.2,218.5c0.1-0.2,0.2-0.5,0.4-0.7c0.2,0.1,0.4,0.3,0.2,0.5C503.6,218.5,503.4,218.5,503.2,218.5z"/>
		<path class="st78" d="M575.7,167.8c0.1,0.1,0.1,0.2,0.1,0.3c-0.1,0.1-0.2,0.6-0.5,0.3C575.1,168.1,575.5,168,575.7,167.8z"/>
		<path class="st79" d="M323.4,287.3c-0.3-0.1-0.3-0.3-0.2-0.6c0.1-0.2,0.2-0.5,0.5-0.3c0.3,0.2,0.4,0.3,0.3,0.6
			C323.9,287.3,323.7,287.4,323.4,287.3z"/>
		<path class="st80" d="M497,205.1c0.6-0.6,1.5-0.8,2.2-1.4c0.6-0.6,1.9,0.2,2.1,1.2c0.1,0.1,0,0.2-0.1,0.3c-0.5,0.3-0.4,0.6-0.2,1
			c-0.2,0.5-0.4,0.8-1,0.4c-0.5,0.1-0.8-0.8-1.3-0.3C498,206.3,497.6,205.6,497,205.1z"/>
		<path class="st81" d="M504.2,205.9c0.6-0.1,1.1-0.4,1.3-1c0.1-0.6,0.6-0.9,1.1-0.4c0.6,0.5,1.7-0.2,1.8,0.8c0.1,1-1.1,1-1.6,1.4
			c-0.3,0.2-0.6,0-0.8,0.2c-0.7,0.2-1.2-0.1-1.8-0.4C503.9,206.1,504,205.9,504.2,205.9z"/>
		<path class="st82" d="M504.2,205.9c-0.1,0.1-0.1,0.3-0.2,0.5c-0.4-0.2-0.8-0.3-1.2-0.5c-0.4,0.3-0.8,0.3-1.1,0.1
			c-0.4-0.1-0.6-0.4-0.5-0.8c0-0.1,0.1-0.1,0.1-0.2C502.1,205.7,503.2,205.5,504.2,205.9z"/>
		<path class="st83" d="M501.2,205.1c0.2,0.2,0.4,0.4,0.6,0.6c0.1,0.2,0,0.3-0.1,0.4c-0.2,0-0.4,0-0.6,0c-0.3-0.3-0.9-0.1-0.8-0.8
			C500.3,204.9,500.7,205.1,501.2,205.1z"/>
		<path class="st84" d="M498.7,206.4c0.8-1.4,0.9,0,1.3,0.3C499.5,206.8,499.1,206.5,498.7,206.4z"/>
		<path class="st85" d="M526.9,200.8c-0.4,0.3-0.9,0.1-0.9-0.2c0-0.7,0.7-0.5,1.2-0.5C527.3,200.3,527.1,200.6,526.9,200.8z"/>
		<path class="st86" d="M509,206.2c0,0.1-0.1,0.1-0.1,0.2c0,0.2,0,0.5-0.1,0.7c-0.4-0.1-0.8-0.1-0.7-0.7
			C508.3,206,508.7,206.1,509,206.2z"/>
		<path class="st87" d="M501.6,206.2c0.1-0.1,0.1-0.3,0.1-0.4c0.4,0.1,0.7,0.1,1,0.1C502.6,206.7,502.1,206.4,501.6,206.2z"/>
		<path class="st88" d="M527.6,204.9c0.1,0.6,0.2,1-0.3,1.3c-0.1,0-0.2-0.1-0.2-0.1C527,205.6,527.1,205.2,527.6,204.9z"/>
		<path class="st89" d="M524.7,202.6c0.2,0.4,0.1,0.6-0.3,0.7c-0.3-0.1-0.5-0.2-0.3-0.6C524.2,202.4,524.4,202.5,524.7,202.6z"/>
		<path class="st39" d="M526.5,194.9c0.3,0.2,0.6,0.3,0.9,0.5C526.8,195.8,526.5,195.7,526.5,194.9z"/>
		<path class="st90" d="M505.8,206.7c0.2-0.4,0.5-0.4,0.8-0.2c-0.1,0.1-0.1,0.3-0.2,0.5C506.2,207,506,206.8,505.8,206.7z"/>
		<path class="st91" d="M526.9,200.8c0.1-0.2,0.2-0.5,0.3-0.8c0.3,0.1,0.5,0.2,0.3,0.5C527.4,200.8,527.2,200.9,526.9,200.8z"/>
		<path class="st62" d="M526.5,196.2c-0.4-0.1-0.8,0-0.6-0.5c0-0.1,0.1-0.2,0.2-0.3C526.2,195.7,526.3,196,526.5,196.2z"/>
		<path class="st92" d="M525.3,204.5c-0.1-0.1-0.2-0.2-0.1-0.3c0.2,0.1,0.6-0.2,0.7,0.1C525.9,204.7,525.5,204.4,525.3,204.5z"/>
	</g>
</g>
</svg>
