<?xml version="1.0" encoding="utf-8"?>
<!-- Generator: Adobe Illustrator 27.0.1, SVG Export Plug-In . SVG Version: 6.00 Build 0)  -->
<svg version="1.1" id="icon" xmlns="http://www.w3.org/2000/svg" xmlns:xlink="http://www.w3.org/1999/xlink" x="0px" y="0px"
	 viewBox="0 0 256 256" style="enable-background:new 0 0 256 256;" xml:space="preserve">
<style type="text/css">
	.st0{fill:#FFFFFF;}
	.st1{fill:#808080;}
</style>
<g id="group">
	<g>
		<polygon class="st0" points="228,33 208,33 198,33 178,33 168,33 88,33 78,33 58,33 48,33 28,33 18,33 18,43 18,63 18,73 28,73 
			48,73 48,213 48,223 58,223 78,223 88,223 88,213 88,113 168,113 168,213 168,223 178,223 198,223 208,223 208,213 208,73 228,73 
			238,73 238,63 238,43 238,33 		"/>
	</g>
</g>
<g id="group_00000047757886149258555680000011223742757318020229_">
	<g id="line_00000084526098862946805180000001350142098198002323_">
		<rect x="28" y="43" class="st1" width="200" height="20"/>
	</g>
	<g id="line_00000039816369092052767420000012825693896274241695_">
		<rect x="68" y="83" class="st1" width="120" height="20"/>
	</g>
	<g id="line_00000183937617198661290970000017489664708386518924_">
		<rect x="58" y="43" class="st1" width="20" height="170"/>
	</g>
	<g id="line_00000170274670829658203160000001299421483568852129_">
		<rect x="178" y="43" class="st1" width="20" height="170"/>
	</g>
</g>
</svg>
