<?xml version="1.0" encoding="utf-8"?>
<!-- Generator: Adobe Illustrator 27.0.1, SVG Export Plug-In . SVG Version: 6.00 Build 0)  -->
<svg version="1.1" id="icon" xmlns="http://www.w3.org/2000/svg" xmlns:xlink="http://www.w3.org/1999/xlink" x="0px" y="0px"
	 viewBox="0 0 256 256" style="enable-background:new 0 0 256 256;" xml:space="preserve">
<style type="text/css">
	.st0{fill:#B50000;}
</style>
<g id="group_00000047757886149258555680000011223742757318020229_">
	<g>
		<g id="line_00000098913838405115660880000008858741060326878143_">
			<path class="st0" d="M228,53c0,5.5-4.5,10-10,10H38c-5.5,0-10-4.5-10-10l0,0c0-5.5,4.5-10,10-10h180C223.5,43,228,47.5,228,53
				L228,53z"/>
		</g>
		<g id="line_00000156552034290628505860000015026896208900415367_">
			<path class="st0" d="M188,93c0,5.5-4.5,10-10,10H78c-5.5,0-10-4.5-10-10l0,0c0-5.5,4.5-10,10-10h100C183.5,83,188,87.5,188,93
				L188,93z"/>
		</g>
		<g id="line_00000024003850890332208670000009391607413736028554_">
			<path class="st0" d="M78,203c0,5.5-4.5,10-10,10l0,0c-5.5,0-10-4.5-10-10V53c0-5.5,4.5-10,10-10l0,0c5.5,0,10,4.5,10,10V203z"/>
		</g>
		<g id="line_00000073697563628591262640000002739881584064448675_">
			<path class="st0" d="M198,203c0,5.5-4.5,10-10,10l0,0c-5.5,0-10-4.5-10-10V53c0-5.5,4.5-10,10-10l0,0c5.5,0,10,4.5,10,10V203z"/>
		</g>
	</g>
</g>
</svg>
