<?xml version="1.0" encoding="utf-8"?>
<!-- Generator: Adobe Illustrator 27.0.1, SVG Export Plug-In . SVG Version: 6.00 Build 0)  -->
<svg version="1.1" id="icon" xmlns="http://www.w3.org/2000/svg" xmlns:xlink="http://www.w3.org/1999/xlink" x="0px" y="0px"
	 viewBox="0 0 256 256" style="enable-background:new 0 0 256 256;" xml:space="preserve">
<style type="text/css">
	.st0{fill:#FFFFFF;}
	.st1{fill:#808080;}
</style>
<g id="group_00000047757886149258555680000011223742757318020229_">
	<g>
		<g id="line_00000098913838405115660880000008858741060326878143_">
			<g>
				<path class="st0" d="M38,68c-8.3,0-15-6.7-15-15s6.7-15,15-15h180c8.3,0,15,6.7,15,15s-6.7,15-15,15H38z"/>
				<path class="st0" d="M218,43c5.5,0,10,4.5,10,10s-4.5,10-10,10H38c-5.5,0-10-4.5-10-10s4.5-10,10-10H218 M218,33H38
					c-11,0-20,9-20,20s9,20,20,20h180c11,0,20-9,20-20S229,33,218,33L218,33z"/>
			</g>
		</g>
		<g id="line_00000156552034290628505860000015026896208900415367_">
			<g>
				<path class="st0" d="M78,108c-8.3,0-15-6.7-15-15s6.7-15,15-15h100c8.3,0,15,6.7,15,15s-6.7,15-15,15H78z"/>
				<path class="st0" d="M178,83c5.5,0,10,4.5,10,10s-4.5,10-10,10H78c-5.5,0-10-4.5-10-10s4.5-10,10-10H178 M178,73H78
					c-11,0-20,9-20,20s9,20,20,20h100c11,0,20-9,20-20S189,73,178,73L178,73z"/>
			</g>
		</g>
		<g id="line_00000024003850890332208670000009391607413736028554_">
			<g>
				<path class="st0" d="M68,218c-8.3,0-15-6.7-15-15V53c0-8.3,6.7-15,15-15s15,6.7,15,15v150C83,211.3,76.3,218,68,218z"/>
				<path class="st0" d="M68,43c5.5,0,10,4.5,10,10v150c0,5.5-4.5,10-10,10s-10-4.5-10-10V53C58,47.5,62.5,43,68,43 M68,33
					c-11,0-20,9-20,20v150c0,11,9,20,20,20s20-9,20-20V53C88,42,79,33,68,33L68,33z"/>
			</g>
		</g>
		<g id="line_00000073697563628591262640000002739881584064448675_">
			<g>
				<path class="st0" d="M188,218c-8.3,0-15-6.7-15-15V53c0-8.3,6.7-15,15-15s15,6.7,15,15v150C203,211.3,196.3,218,188,218z"/>
				<path class="st0" d="M188,43c5.5,0,10,4.5,10,10v150c0,5.5-4.5,10-10,10s-10-4.5-10-10V53C178,47.5,182.5,43,188,43 M188,33
					c-11,0-20,9-20,20v150c0,11,9,20,20,20s20-9,20-20V53C208,42,199,33,188,33L188,33z"/>
			</g>
		</g>
	</g>
</g>
<g id="group">
	<g id="group_00000177461037615815331590000008047392492513806989_">
		<g>
			<g id="line_00000116946710587099459800000012396456092434329273_">
				<path class="st1" d="M228,53c0,5.5-4.5,10-10,10H38c-5.5,0-10-4.5-10-10l0,0c0-5.5,4.5-10,10-10h180C223.5,43,228,47.5,228,53
					L228,53z"/>
			</g>
			<g id="line_00000091719856125806983940000000646766034038018965_">
				<path class="st1" d="M188,93c0,5.5-4.5,10-10,10H78c-5.5,0-10-4.5-10-10l0,0c0-5.5,4.5-10,10-10h100C183.5,83,188,87.5,188,93
					L188,93z"/>
			</g>
			<g id="line_00000152265496003572584850000010929209523428728490_">
				<path class="st1" d="M78,203c0,5.5-4.5,10-10,10l0,0c-5.5,0-10-4.5-10-10V53c0-5.5,4.5-10,10-10l0,0c5.5,0,10,4.5,10,10V203z"/>
			</g>
			<g id="line_00000038376080866399342970000013322273822093236875_">
				<path class="st1" d="M198,203c0,5.5-4.5,10-10,10l0,0c-5.5,0-10-4.5-10-10V53c0-5.5,4.5-10,10-10l0,0c5.5,0,10,4.5,10,10V203z"
					/>
			</g>
		</g>
	</g>
</g>
</svg>
