<?xml version="1.0" encoding="utf-8"?>
<!-- Generator: Adobe Illustrator 27.0.1, SVG Export Plug-In . SVG Version: 6.00 Build 0)  -->
<svg version="1.1" id="icon" xmlns="http://www.w3.org/2000/svg" xmlns:xlink="http://www.w3.org/1999/xlink" x="0px" y="0px"
	 viewBox="0 0 256 256" style="enable-background:new 0 0 256 256;" xml:space="preserve">
<style type="text/css">
	.st0{fill:#FFFFFF;}
	.st1{fill:#808080;}
</style>
<g>
	<g>
		<path class="st0" d="M78,233c-30.3,0-55-24.7-55-55V78c0-30.3,24.7-55,55-55h100c30.3,0,55,24.7,55,55v100c0,30.3-24.7,55-55,55
			H78z"/>
		<path class="st0" d="M178,28c27.5,0,50,22.5,50,50v100c0,27.5-22.5,50-50,50H78c-27.5,0-50-22.5-50-50V78c0-27.5,22.5-50,50-50
			H178 M178,18H78c-33.1,0-60,26.9-60,60v100c0,33.1,26.9,60,60,60h100c33.1,0,60-26.9,60-60V78C238,44.9,211.1,18,178,18L178,18z"
			/>
	</g>
</g>
<g>
	<path class="st1" d="M228,178c0,27.5-22.5,50-50,50H78c-27.5,0-50-22.5-50-50V78c0-27.5,22.5-50,50-50h100c27.5,0,50,22.5,50,50
		V178z"/>
</g>
</svg>
