<?xml version="1.0" encoding="utf-8"?>
<!-- Generator: Adobe Illustrator 28.0.0, SVG Export Plug-In . SVG Version: 6.00 Build 0)  -->
<svg version="1.1" id="funkei" xmlns="http://www.w3.org/2000/svg" xmlns:xlink="http://www.w3.org/1999/xlink" x="0px" y="0px"
	 viewBox="0 0 450 450" style="enable-background:new 0 0 450 450;" xml:space="preserve">
<style type="text/css">
	.st0{fill:#E6E6F0;stroke:#E6E6F0;stroke-width:20;stroke-miterlimit:10;}
	.st1{fill:#6E92A1;}
	.st2{fill:#B49A64;}
	.st3{fill:#C9C4BE;}
	.st4{fill:#CBC6C0;}
</style>
<path class="st0" d="M220.3,26c-56.6,1.4-106.2,39.6-119.3,92.9c-9,102-17.9,204-26.9,306c100.3,0.4,200.6,0.7,300.9,1.1
	c-9.2-101.2-18.4-202.4-27.7-303.5C335,65.1,280.6,24.4,220.3,26z"/>
<path class="st1" d="M220.3,26c-56.6,1.4-106.2,39.6-119.3,92.9c-9,102-17.9,204-26.9,306c100.3,0.4,200.6,0.7,300.9,1.1
	c-9.2-101.2-18.4-202.4-27.7-303.5C335,65.1,280.6,24.4,220.3,26z"/>
<path class="st2" d="M220.6,39.1c-51.6,1.3-96.9,37-108.9,86.7c-8.2,95.3-16.4,190.6-24.5,285.9c91.5,0.3,183.1,0.7,274.6,1
	c-8.4-94.5-16.8-189-25.2-283.6C325.3,75.7,275.7,37.7,220.6,39.1z"/>
<path class="st1" d="M221.2,57.5c-44.7,1.2-83.9,33.4-94.3,78.2c-7.1,85.9-14.2,171.8-21.2,257.7c79.2,0.3,158.5,0.6,237.7,0.9
	c-7.3-85.2-14.6-170.4-21.9-255.6C311.8,90.5,268.8,56.3,221.2,57.5z"/>
<circle class="st3" cx="224.2" cy="165.5" r="73.8"/>
<path class="st4" d="M150,356.4c-2,0-3.7-1.6-3.7-3.5l39-142.9c0-1,0.8-1.8,1.9-1.8h74.2c1,0,1.9,0.8,1.9,1.8l39,142.9
	c0,2-1.7,3.5-3.7,3.5H150z"/>
<path class="st2" d="M156.5,349.3c-1.9,0-3.4-1.6-3.4-3.5l35.5-142.1c0-1,0.8-1.8,1.7-1.8h67.7c0.9,0,1.7,0.8,1.7,1.8l35.5,142.1
	c0,1.9-1.5,3.5-3.4,3.5H156.5z"/>
<polygon class="st3" points="199.3,228.5 168.7,228.5 163.4,250.2 191.6,272.2 "/>
<polygon class="st3" points="249.8,228.5 280.4,228.5 285.7,250.2 257.5,272.2 "/>
<circle class="st2" cx="224.2" cy="165.5" r="65.8"/>
<path class="st4" d="M160.9,345.7c-1.7,0-3.2-1.5-3.2-3.4L191,206.5c0-0.9,0.7-1.7,1.6-1.7h63.3c0.9,0,1.6,0.8,1.6,1.7l33.2,135.8
	c0,1.9-1.4,3.4-3.2,3.4H160.9z"/>
<circle class="st3" cx="224.2" cy="165.5" r="58.7"/>
<path class="st2" d="M175.6,334.3c-1.3,0-2.4-1.4-2.4-3.2l25.5-127.7c0-0.9,0.5-1.6,1.2-1.6h48.6c0.7,0,1.2,0.7,1.2,1.6l25.5,127.7
	c0,1.8-1.1,3.2-2.4,3.2H175.6z"/>
<circle class="st2" cx="224.2" cy="165.5" r="49.5"/>
<path class="st4" d="M183.6,327.3c-1.1,0-2-1.3-2-3l21.3-120.9c0-0.8,0.5-1.5,1-1.5h40.6c0.6,0,1,0.7,1,1.5l21.3,120.9
	c0,1.7-0.9,3-2,3H183.6z"/>
<circle class="st3" cx="224.2" cy="165.5" r="45"/>
<path class="st2" d="M208.4,304.2c-0.4,0-0.8-1.3-0.8-3l8.3-120c0-0.8,0.2-1.5,0.4-1.5h15.8c0.2,0,0.4,0.7,0.4,1.5l8.3,120
	c0,1.6-0.4,3-0.8,3H208.4z"/>
<circle class="st2" cx="224.2" cy="165.5" r="17"/>
<path class="st2" d="M177.7,235.5c-1,3.9-2,7.8-3.1,11.7c5.5,6.1,11,12.2,16.5,18.3c2-11.3,4-22.5,6-33.8
	C190.7,233,184.2,234.3,177.7,235.5z"/>
<path class="st2" d="M271.3,235.5c1.1,3.9,2.1,7.8,3.2,11.7c-5.7,6.1-11.4,12.2-17.1,18.3c-2.1-11.3-4.1-22.5-6.2-33.8
	C257.9,233,264.6,234.3,271.3,235.5z"/>
</svg>
