<?xml version="1.0" encoding="utf-8"?>
<!-- Generator: Adobe Illustrator 28.0.0, SVG Export Plug-In . SVG Version: 6.00 Build 0)  -->
<svg version="1.1" id="funkei" xmlns="http://www.w3.org/2000/svg" xmlns:xlink="http://www.w3.org/1999/xlink" x="0px" y="0px"
	 viewBox="0 0 900 900" style="enable-background:new 0 0 900 900;" xml:space="preserve">
<style type="text/css">
	.st0{fill:#B69C64;stroke:#555555;stroke-width:100;stroke-miterlimit:10;}
	.st1{fill:#B69C64;}
	.st2{fill:#6E92A1;}
	.st3{fill:#CBC6C0;}
	.st4{fill:#AAA5A0;}
</style>
<path class="st0" d="M92,408.4c-0.7-29.4,0.1-139.5,81.9-235.8C277.9,50,428.3,49.6,454.7,50c35.6,0.6,155.8,7.8,252.2,105.6
	c103.2,104.7,101.7,234.9,101.1,258c-25.7,111-51.5,222-77.2,333c-2.9,16.2-16.4,81.2-64.2,99.5c-4,1.5-8.3,2.8-13,3.6
	c-71.3,0.1-142.6,0.2-214,0.3c-70.5-0.1-140.9-0.2-211.4-0.3c-2.6-0.8-7-2.2-11.9-4.6c-41.7-20.9-50.8-79.8-54.9-104
	C150.4,675.6,124.9,560.9,92,408.4z"/>
<path class="st1" d="M92,408.4c-0.7-29.4,0.1-139.5,81.9-235.8C277.9,50,428.3,49.6,454.7,50c35.6,0.6,155.8,7.8,252.2,105.6
	c103.2,104.7,101.7,234.9,101.1,258c-25.7,111-51.5,222-77.2,333c-2.9,16.2-16.4,81.2-64.2,99.5c-4,1.5-8.3,2.8-13,3.6
	c-71.3,0.1-142.6,0.2-214,0.3c-70.5-0.1-140.9-0.2-211.4-0.3c-2.6-0.8-7-2.2-11.9-4.6c-41.7-20.9-50.8-79.8-54.9-104
	C150.4,675.6,124.9,560.9,92,408.4z"/>
<path class="st2" d="M116.4,411c-0.7-27.6,0.1-131,76.3-221.4C289.6,74.4,429.8,74.1,454.3,74.5c33.2,0.5,145.2,7.3,235,99.1
	c96.2,98.3,94.8,220.6,94.2,242.2c-24,104.2-47.9,208.4-71.9,312.7c-2.7,15.2-15.3,76.2-59.9,93.5c-3.7,1.4-7.7,2.6-12.1,3.4
	c-66.5,0.1-132.9,0.2-199.4,0.2c-65.6-0.1-131.3-0.2-196.9-0.2c-2.4-0.7-6.5-2-11.1-4.4c-38.9-19.6-47.4-75-51.2-97.7
	C170.8,661.8,147.1,554.1,116.4,411z"/>
<path class="st1" d="M285.1,761.5c-29.6-118.9-59.2-237.8-88.8-356.8c0.4-138.8,114.3-252.3,251.2-252.6
	c139.3-0.4,254.9,116.4,252.5,257.6c-33,119.1-66.1,238.3-99.1,357.4c-19-33.7-39.6-78.7-53.4-134c-7-28.2-11-54.4-13.3-77.8
	c5-3.2,90.3-60.2,87.6-156.6C619.3,311.5,546,228,448.5,227.3c-100.7-0.7-175.6,86.9-175.9,175.2c-0.3,91.2,79.1,145.5,85.8,149.9
	c-2.7,24.1-7.5,51.8-16.2,81.8C326.8,687.9,304.6,730.5,285.1,761.5z"/>
<path class="st3" d="M306.5,774.4c40.1,6.9,88.2,12.2,142.5,12.2c48.5,0,91.8-4.1,128.8-9.8c-49-141-60.3-206.3-57.8-237.2
	c0.1-1.7,0.8-9.7-3.3-18c-19.7-38.8-125.8-39.8-143.9-3.9c-4.2,8.4-2.7,16.9-2.4,18.9C375.5,567.4,364.4,632.6,306.5,774.4z"/>
<circle class="st3" cx="447.9" cy="401.1" r="156.1"/>
<path class="st1" d="M446.8,767.6c-40.1,0-80.6-2-120.6-5.9c16.9-42.4,33.1-92.6,44.6-149.9c5.1-25.7,8.8-50.3,11.4-73.5
	c-1.9-5.9-5.1-13.7-11-21.5c-12.9-17-28.4-20.8-27.5-24.1c1.4-5.6,46.8,7,99.7,7.7c57.4,0.7,107.3-12.8,108.6-7.4
	c0.8,3.3-17.9,7-30.7,26c-4.2,6.2-6.5,12.1-7.9,16.7c2.1,22.5,5.1,46,9.2,70.5c9.8,58.5,24.1,110.7,39.6,155.9
	c-17.7,1.7-36.1,3-55.3,3.9C486,767.2,466,767.6,446.8,767.6z"/>
<circle class="st1" cx="447.9" cy="401.1" r="138.8"/>
<circle class="st3" cx="447.9" cy="401.1" r="130.1"/>
<polygon class="st3" points="350.7,754.4 423.9,317.2 471.8,317.2 545,754.4 "/>
<polygon class="st1" points="354.2,740.5 432.1,331.1 463.6,331.1 541.5,740.5 "/>
<circle class="st1" cx="447.9" cy="401.1" r="112.8"/>
<polygon class="st3" points="359.4,717.9 437.5,367.5 458.2,367.5 536.3,717.9 "/>
<circle class="st3" cx="447.9" cy="401.1" r="104.1"/>
<polygon class="st1" points="362.9,716.2 441.8,355.4 453.9,355.4 532.9,716.2 "/>
<circle class="st1" cx="447.9" cy="401.1" r="86.7"/>
<polygon class="st3" points="447.9,338.8 366.3,713.5 529.4,713.5 "/>
<circle class="st3" cx="447.9" cy="401.1" r="69.4"/>
<circle class="st1" cx="447.9" cy="401.1" r="52"/>
<polygon class="st1" points="447.9,349.1 368.1,712.2 527.7,712.2 "/>
<polygon class="st3" points="447.9,358.6 395.8,687.3 499.9,687.3 "/>
<circle class="st3" cx="447.9" cy="401.1" r="43.4"/>
<circle class="st4" cx="447.9" cy="401.1" r="26"/>
</svg>
