<?xml version="1.0" encoding="utf-8"?>
<!-- Generator: Adobe Illustrator 28.0.0, SVG Export Plug-In . SVG Version: 6.00 Build 0)  -->
<svg version="1.1" id="funkei" xmlns="http://www.w3.org/2000/svg" xmlns:xlink="http://www.w3.org/1999/xlink" x="0px" y="0px"
	 viewBox="0 0 450 450" style="enable-background:new 0 0 450 450;" xml:space="preserve">
<style type="text/css">
	.st0{fill:#E6E6F0;stroke:#E6E6F0;stroke-width:20;stroke-miterlimit:10;}
	.st1{fill:#6E92A1;}
	.st2{fill:#B49A64;}
	.st3{fill:#C9C4BE;}
</style>
<path class="st0" d="M210.5,25.5C146.2,30.8,91.4,78.2,77.7,142.1C57.9,236.4,38,330.7,18.2,425c137.8,0,275.7,0,413.5-0.1
	c-21.2-95.7-42.4-191.3-63.6-287C350.2,67,282,19.6,210.5,25.5z"/>
<path class="st1" d="M210.5,25.5C146.2,30.8,91.4,78.2,77.7,142.1C57.9,236.4,38,330.7,18.2,425c137.8,0,275.7,0,413.5-0.1
	c-21.2-95.7-42.4-191.3-63.6-287C350.2,67,282,19.6,210.5,25.5z"/>
<path class="st2" d="M211.7,38.1c-59.1,4.9-109.4,49.4-122,109.2c-18.2,88.3-36.4,176.7-54.6,265c126.6,0,253.2,0,379.8-0.1
	c-19.5-89.6-38.9-179.2-58.4-268.8C340,77,277.3,32.6,211.7,38.1z"/>
<path class="st1" d="M214.1,67.6c-48.6,4.2-90,41.6-100.3,92c-15,74.4-29.9,148.8-44.9,223.2c104.1,0,208.2,0,312.3-0.1
	c-16-75.5-32-150.9-48-226.4C319.5,100.3,268,63,214.1,67.6z"/>
<path class="st3" d="M134.5,337.8c-2.5,0-4.5-2.3-4.5-5.1l78-207.1c0-0.5,0.4-0.9,0.8-0.9h31.5c0.4,0,0.8,0.4,0.8,0.9l78,207.1
	c0,2.8-2,5.1-4.5,5.1H134.5z"/>
<polygon class="st3" points="173.9,255.2 149.5,237.4 157.5,220.4 183.3,226.6 "/>
<polygon class="st2" points="172.3,251.4 153.2,237.4 159.4,224.1 179.6,229 "/>
<polygon class="st3" points="275.2,255.2 299.6,237.4 291.6,220.4 265.8,226.6 "/>
<polygon class="st2" points="276.8,251.4 295.9,237.4 289.7,224.1 269.5,229 "/>
<circle class="st3" cx="224.5" cy="165.5" r="67.5"/>
<path class="st2" d="M142.5,333.6c-2.3,0-4.1-2.2-4.1-4.9l71-198.9c0-0.5,0.3-0.9,0.7-0.9h28.7c0.4,0,0.7,0.4,0.7,0.9l71,198.9
	c0,2.7-1.8,4.9-4.1,4.9H142.5z"/>
<circle class="st2" cx="224.5" cy="165.5" r="60.8"/>
<path class="st3" d="M151.3,327.1c-2,0-3.7-1.9-3.7-4.3L211,149.2c0-0.4,0.3-0.8,0.6-0.8h25.6c0.4,0,0.6,0.3,0.6,0.8l63.4,173.7
	c0,2.4-1.6,4.3-3.7,4.3H151.3z"/>
<circle class="st3" cx="224.5" cy="165.5" r="53.2"/>
<path class="st2" d="M163.4,318.1c-1.7,0-3.1-1.6-3.1-3.5l52.9-143.1c0-0.3,0.2-0.6,0.5-0.6h21.4c0.3,0,0.5,0.3,0.5,0.6l52.9,143.1
	c0,2-1.4,3.5-3.1,3.5H163.4z"/>
<circle class="st2" cx="224.5" cy="165.5" r="46.4"/>
<path class="st3" d="M173,308l42.5-126.2c0-0.3,0.2-0.5,0.4-0.5h17.2c0.2,0,0.4,0.2,0.4,0.5L276,308"/>
<circle class="st3" cx="224.5" cy="165.5" r="38"/>
<path class="st2" d="M211.2,280.7c-0.4,0-0.7-1.1-0.7-2.4l9.1-98.5c0-0.5,0.1-0.9,0.2-0.9h9.3c0.1,0,0.2,0.4,0.2,0.9l9.1,98.5
	c0,1.3-0.3,2.4-0.7,2.4H211.2z"/>
<circle class="st2" cx="224.5" cy="165.5" r="15.6"/>
</svg>
