<?xml version="1.0" encoding="utf-8"?>
<!-- Generator: Adobe Illustrator 28.0.0, SVG Export Plug-In . SVG Version: 6.00 Build 0)  -->
<svg version="1.1" id="funkei" xmlns="http://www.w3.org/2000/svg" xmlns:xlink="http://www.w3.org/1999/xlink" x="0px" y="0px"
	 viewBox="0 0 450 450" style="enable-background:new 0 0 450 450;" xml:space="preserve">
<style type="text/css">
	.st0{fill:#555555;stroke:#555555;stroke-width:50;stroke-miterlimit:10;}
	.st1{fill:#CBC6C0;}
	.st2{fill:#B69C64;}
	.st3{fill:#AAA5A0;}
</style>
<path class="st0" d="M105.2,416.2c34,5,74.7,8.8,120.7,8.8c41.1,0,77.8-3,109.1-7.1c-41.5-101.8-51.1-148.9-49-171.2
	c0.1-1.2,0.7-7-2.8-13c-16.7-28-106.6-28.7-121.9-2.8c-3.6,6.1-2.3,12.2-2,13.6C163.7,266.8,154.3,313.8,105.2,416.2z"/>
<circle class="st0" cx="225" cy="157.2" r="132.2"/>
<path class="st1" d="M105.2,416.2c34,5,74.7,8.8,120.7,8.8c41.1,0,77.8-3,109.1-7.1c-41.5-101.8-51.1-148.9-49-171.2
	c0.1-1.2,0.7-7-2.8-13c-16.7-28-106.6-28.7-121.9-2.8c-3.6,6.1-2.3,12.2-2,13.6C163.7,266.8,154.3,313.8,105.2,416.2z"/>
<circle class="st1" cx="225" cy="157.2" r="132.2"/>
<path class="st2" d="M224.1,411.3c-34,0-68.3-1.4-102.2-4.3c14.3-30.6,28-66.8,37.8-108.2c4.3-18.6,7.5-36.3,9.7-53.1
	c-1.6-4.3-4.3-9.9-9.3-15.5c-10.9-12.3-24.1-15-23.3-17.4c1.2-4,39.6,5.1,84.5,5.6c48.6,0.5,90.9-9.2,92-5.3
	c0.7,2.4-15.2,5.1-26,18.8c-3.6,4.5-5.5,8.7-6.7,12.1c1.8,16.2,4.3,33.2,7.8,50.9c8.3,42.2,20.4,79.9,33.5,112.5
	c-15,1.2-30.6,2.2-46.8,2.8C257.3,411,240.3,411.3,224.1,411.3z"/>
<circle class="st2" cx="225" cy="157.2" r="117.6"/>
<circle class="st1" cx="225" cy="157.2" r="110.2"/>
<polygon class="st1" points="142.7,401.8 204.7,86.2 245.2,86.2 307.3,401.8 "/>
<polygon class="st2" points="145.6,391.7 211.6,96.2 238.3,96.2 304.3,391.7 "/>
<circle class="st2" cx="225" cy="157.2" r="95.6"/>
<polygon class="st1" points="150,375.4 216.2,122.5 233.7,122.5 299.9,375.4 "/>
<circle class="st1" cx="225" cy="157.2" r="88.2"/>
<polygon class="st2" points="153,374.2 219.8,113.7 230.1,113.7 297,374.2 "/>
<circle class="st2" cx="225" cy="157.2" r="73.4"/>
<polygon class="st1" points="225,101.8 155.9,372.2 294,372.2 "/>
<circle class="st1" cx="225" cy="157.2" r="58.8"/>
<circle class="st2" cx="225" cy="157.2" r="44"/>
<polygon class="st2" points="225,121.3 157.4,371.3 292.6,371.3 "/>
<polygon class="st1" points="225,127.8 180.9,354.1 269,354.1 "/>
<ellipse transform="matrix(0.1602 -0.9871 0.9871 0.1602 33.7888 354.114)" class="st1" cx="225" cy="157.2" rx="36.8" ry="36.8"/>
<circle class="st3" cx="225" cy="157.2" r="22"/>
</svg>
