<?xml version="1.0" encoding="utf-8"?>
<!-- Generator: Adobe Illustrator 28.0.0, SVG Export Plug-In . SVG Version: 6.00 Build 0)  -->
<svg version="1.1" id="funkei" xmlns="http://www.w3.org/2000/svg" xmlns:xlink="http://www.w3.org/1999/xlink" x="0px" y="0px"
	 viewBox="0 0 450 450" style="enable-background:new 0 0 450 450;" xml:space="preserve">
<style type="text/css">
	.st0{fill:#555555;stroke:#555555;stroke-width:50;stroke-miterlimit:10;}
	.st1{fill:#6E92A1;}
	.st2{fill:#A57C52;}
	.st3{fill:#B49A64;}
</style>
<path class="st0" d="M220.9,25c-63.4,1.4-115.7,52.4-118.6,116.1C90.2,231.9,78.1,322.7,66,413.5c52.8,3.8,105.5,7.7,158.3,11.5
	c53.2-3.7,106.5-7.4,159.7-11.1c-13.3-93.1-26.6-186.1-39.9-279.2C338,71.8,283.8,23.7,220.9,25z"/>
<path class="st1" d="M220.9,25c-63.4,1.4-115.7,52.4-118.6,116.1C90.2,231.9,78.1,322.7,66,413.5c52.8,3.8,105.5,7.7,158.3,11.5
	c53.2-3.7,106.5-7.4,159.7-11.1c-13.3-93.1-26.6-186.1-39.9-279.2C338,71.8,283.8,23.7,220.9,25z"/>
<path class="st2" d="M122.8,372.7c-2.8,0-5-2.8-5-6.4l68.9-256.5c0-1.2,0.8-2.2,1.8-2.2h70.7c1,0,1.8,1,1.8,2.2l68.9,256.5
	c0,3.5-2.3,6.4-5,6.4c-34.2,2.7-68.3,5.5-102.5,8.2C189.1,378.2,155.9,375.4,122.8,372.7z"/>
<circle class="st2" cx="223.7" cy="140" r="74.7"/>
<path class="st3" d="M131.9,363.3c-2.5,0-4.6-2.6-4.6-5.9L190,119.1c0-1.1,0.7-2.1,1.6-2.1h64.3c0.9,0,1.6,0.9,1.6,2.1l62.6,238.3
	c0,3.3-2.1,5.9-4.6,5.9c-31.2,2.3-62.5,4.7-93.7,7C191.9,368,161.9,365.6,131.9,363.3z"/>
<circle class="st3" cx="223.7" cy="140" r="66.4"/>
<path class="st2" d="M141.1,354c-2.3,0-4.1-2.4-4.1-5.5l56.4-220.2c0-1.1,0.6-1.9,1.4-1.9h57.8c0.8,0,1.4,0.9,1.4,1.9l56.4,220.2
	c0,3-1.9,5.5-4.1,5.5c-28.2,2.2-56.3,4.4-84.5,6.6C194.9,358.3,168,356.1,141.1,354z"/>
<circle class="st2" cx="223.7" cy="140" r="58.1"/>
<path class="st3" d="M150.3,344.6c-2,0-3.7-2.2-3.7-5l50.1-202.1c0-1,0.6-1.8,1.3-1.8h51.4c0.7,0,1.3,0.8,1.3,1.8l50.1,202.1
	c0,2.8-1.6,5-3.7,5c-25.1,1.8-50.2,3.5-75.3,5.3C198,348.1,174.1,346.4,150.3,344.6z"/>
<circle class="st3" cx="223.7" cy="140" r="49.8"/>
<path class="st2" d="M159.5,335.2c-1.8,0-3.2-2-3.2-4.6l43.9-184c0-0.9,0.5-1.6,1.1-1.6h45c0.6,0,1.1,0.7,1.1,1.6l43.9,184
	c0,2.5-1.4,4.6-3.2,4.6c-21.8,1.5-43.6,2.9-65.4,4.4C201.6,338.1,180.5,336.7,159.5,335.2z"/>
<ellipse transform="matrix(0.1602 -0.9871 0.9871 0.1602 49.675 338.386)" class="st2" cx="223.7" cy="140" rx="41.5" ry="41.5"/>
<path class="st3" d="M173.2,326.1c-1.4,0-2.5-1.7-2.5-3.9l34.5-157.1c0-0.8,0.4-1.4,0.9-1.4h35.3c0.5,0,0.9,0.6,0.9,1.4l34.5,157.1
	c0,2.1-1.1,3.9-2.5,3.9c-17.7,1.3-35.5,2.5-53.2,3.8C205.1,328.6,189.2,327.4,173.2,326.1z"/>
<circle class="st3" cx="223.7" cy="140" r="33.2"/>
<circle class="st2" cx="223.7" cy="140" r="24.9"/>
<circle class="st3" cx="223.7" cy="140" r="16.6"/>
</svg>
