<?xml version="1.0" encoding="utf-8"?>
<!-- Generator: Adobe Illustrator 28.0.0, SVG Export Plug-In . SVG Version: 6.00 Build 0)  -->
<svg version="1.1" id="funkei" xmlns="http://www.w3.org/2000/svg" xmlns:xlink="http://www.w3.org/1999/xlink" x="0px" y="0px"
	 viewBox="0 0 450 450" style="enable-background:new 0 0 450 450;" xml:space="preserve">
<style type="text/css">
	.st0{fill:#E6E6F0;stroke:#E6E6F0;stroke-width:20;stroke-miterlimit:10;}
	.st1{fill:#6E92A1;}
	.st2{fill:#B49A64;}
	.st3{fill:#CBC6C0;}
	.st4{fill:#C9C4BE;}
</style>
<path class="st0" d="M217.1,25.1C153.8,27.6,99.4,74.1,88.7,136.4C77.3,232.6,65.9,328.8,54.5,425c113.7-0.1,227.3-0.2,341-0.3
	c-12.9-96-25.9-191.9-38.8-287.9C345.3,70.3,284.4,22.5,217.1,25.1z"/>
<path class="st1" d="M217.1,25.1C153.8,27.6,99.4,74.1,88.7,136.4C77.3,232.6,65.9,328.8,54.5,425c113.7-0.1,227.3-0.2,341-0.3
	c-12.9-96-25.9-191.9-38.8-287.9C345.3,70.3,284.4,22.5,217.1,25.1z"/>
<path class="st2" d="M217.5,35.1c-59.6,2.4-110.9,46.5-121,105.7C85.8,232.2,75.1,323.6,64.3,415c107.1-0.1,214.2-0.2,321.3-0.3
	c-12.2-91.2-24.4-182.3-36.6-273.5C338.4,78,281,32.6,217.5,35.1z"/>
<path class="st1" d="M218.6,58c-51.1,2.1-95,40.9-103.7,93c-9.2,80.4-18.4,160.7-27.6,241.1c91.8-0.1,183.6-0.2,275.4-0.3
	c-10.4-80.1-20.9-160.3-31.3-240.4C322.2,95.8,273,55.8,218.6,58z"/>
<path class="st3" d="M147.3,344.6c-2.1,0-3.8-2-3.8-4.4L183.8,162c0-1.2,0.9-2.2,1.9-2.2h76.8c1.1,0,1.9,1,1.9,2.2l40.3,178.1
	c0,2.4-1.7,4.4-3.8,4.4H147.3z"/>
<circle class="st4" cx="224.2" cy="171.2" r="69.8"/>
<path class="st2" d="M157.3,335.5c-1.8,0-3.3-1.7-3.3-3.8l35.1-151.9c0-1,0.7-1.9,1.7-1.9h66.8c0.9,0,1.7,0.8,1.7,1.9l35.1,151.9
	c0,2.1-1.5,3.8-3.3,3.8H157.3z"/>
<circle class="st2" cx="224.2" cy="171.2" r="64.3"/>
<path class="st3" d="M164.2,330.3c-1.7,0-3-1.7-3-3.7l31.5-149.9c0-1,0.7-1.9,1.5-1.9h60c0.8,0,1.5,0.8,1.5,1.9l31.5,149.9
	c0,2.1-1.3,3.7-3,3.7H164.2z"/>
<circle class="st4" cx="224.2" cy="171.2" r="58.7"/>
<path class="st2" d="M179.8,315.5c-1.2,0-2.2-1.6-2.2-3.7l23.3-147.1c0-1,0.5-1.8,1.1-1.8h44.3c0.6,0,1.1,0.8,1.1,1.8l23.3,147.1
	c0,2-1,3.7-2.2,3.7H179.8z"/>
<circle class="st2" cx="224.2" cy="171.2" r="48.2"/>
<path class="st3" d="M186.7,309.7c-1,0-1.9-1.4-1.9-3.2l19.7-129.9c0-0.9,0.4-1.6,0.9-1.6h37.5c0.5,0,0.9,0.7,0.9,1.6l19.7,129.9
	c0,1.8-0.8,3.2-1.9,3.2H186.7z"/>
<circle class="st4" cx="224.2" cy="171.2" r="42.6"/>
<path class="st2" d="M209.2,289.6c-0.4,0-0.7-1.1-0.7-2.5l7.9-101.9c0-0.7,0.2-1.3,0.4-1.3h15c0.2,0,0.4,0.6,0.4,1.3l7.9,101.9
	c0,1.4-0.3,2.5-0.7,2.5H209.2z"/>
<circle class="st2" cx="224.2" cy="171.2" r="16.1"/>
<polygon class="st4" points="175.1,222.4 161.2,222.4 158.8,233.7 171.6,245.1 "/>
<polygon class="st2" points="164.4,225.5 162.5,231.1 172.3,241.8 175.3,224 "/>
</svg>
