<?xml version="1.0" encoding="utf-8"?>
<!-- Generator: Adobe Illustrator 28.0.0, SVG Export Plug-In . SVG Version: 6.00 Build 0)  -->
<svg version="1.1" id="funkei" xmlns="http://www.w3.org/2000/svg" xmlns:xlink="http://www.w3.org/1999/xlink" x="0px" y="0px"
	 viewBox="0 0 450 450" style="enable-background:new 0 0 450 450;" xml:space="preserve">
<style type="text/css">
	.st0{fill:#E6E6F0;stroke:#E6E6F0;stroke-width:20;stroke-miterlimit:10;}
	.st1{fill:#B69C64;}
	.st2{fill:#6E92A1;}
	.st3{fill:#CBC6C0;}
	.st4{fill:#C9C4BE;}
	.st5{fill:#B49A64;}
</style>
<path class="st0" d="M218.9,25.4C159.9,30.1,109.8,73.2,103,138c-5.9,95.7-11.8,191.4-17.8,287c93.2-0.9,186.3-1.9,279.5-2.8
	c-5.4-97.3-10.8-194.6-16.3-291.9C339,61.5,281.8,20.4,218.9,25.4z"/>
<path class="st1" d="M218.9,25.4C159.9,30.1,109.8,73.2,103,138c-5.9,95.7-11.8,191.4-17.8,287c93.2-0.9,186.3-1.9,279.5-2.8
	c-5.4-97.3-10.8-194.6-16.3-291.9C339,61.5,281.8,20.4,218.9,25.4z"/>
<path class="st2" d="M219.5,37.4c-53.8,4.4-99.6,44.6-105.8,105.5C108.3,232.9,102.8,323,97.4,413c85.1-0.9,170.1-1.8,255.2-2.7
	c-4.9-91.6-9.9-183.2-14.8-274.7C329.1,70.9,277,32.6,219.5,37.4z"/>
<polygon class="st3" points="318.5,238.4 293.8,286.2 272.1,206.6 311.6,198.7 "/>
<polygon class="st3" points="130.6,238.4 155.3,286.2 177,206.6 137.5,198.7 "/>
<path class="st3" d="M115.2,390.5c-3,0-5.5-2.6-5.5-5.8l57.6-233.4c0-1.6,1.2-2.9,2.7-2.9h109.8c1.5,0,2.7,1.3,2.7,2.9l57.6,233.4
	c0,3.2-2.5,5.8-5.5,5.8H115.2z"/>
<circle class="st4" cx="225" cy="152.9" r="100.1"/>
<path class="st5" d="M145.2,367.3c-2.2,0-4-2-4-4.4l41.9-176.2c0-1.2,0.9-2.2,2-2.2h79.8c1.1,0,2,1,2,2.2L308.8,363
	c0,2.4-1.8,4.4-4,4.4H145.2z"/>
<circle class="st5" cx="225" cy="152.9" r="80.3"/>
<path class="st3" d="M152.9,361.2c-2,0-3.6-1.8-3.6-4.1l37.8-164.5c0-1.1,0.8-2,1.8-2H261c1,0,1.8,0.9,1.8,2l37.8,164.5
	c0,2.3-1.6,4.1-3.6,4.1H152.9z"/>
<circle class="st4" cx="225" cy="152.9" r="73.4"/>
<path class="st5" d="M174,343.4c-1.4,0-2.6-1.8-2.6-3.9l26.8-158.3c0-1.1,0.6-2,1.3-2h51c0.7,0,1.3,0.9,1.3,2l26.8,158.3
	c0,2.2-1.1,3.9-2.6,3.9H174z"/>
<circle class="st5" cx="225" cy="152.9" r="60"/>
<path class="st3" d="M181.8,337.8c-1.2,0-2.2-1.5-2.2-3.3l22.7-133.1c0-0.9,0.5-1.7,1.1-1.7h43.2c0.6,0,1.1,0.7,1.1,1.7l22.7,133.1
	c0,1.8-1,3.3-2.2,3.3H181.8z"/>
<circle class="st4" cx="225" cy="152.9" r="53"/>
<path class="st5" d="M211.1,314.2c-0.4,0-0.7-1.6-0.7-3.6l7.3-145.5c0-1,0.2-1.8,0.3-1.8h13.9c0.2,0,0.3,0.8,0.3,1.8l7.3,145.5
	c0,2-0.3,3.6-0.7,3.6H211.1z"/>
<circle class="st5" cx="225" cy="152.9" r="20.1"/>
<polygon class="st1" points="295.6,208.6 303.8,240.4 286,250.5 279.1,218.9 "/>
<polygon class="st1" points="152.7,208.6 144.5,240.4 162.3,250.5 169.2,218.9 "/>
</svg>
