<?xml version="1.0" encoding="utf-8"?>
<!-- Generator: Adobe Illustrator 28.0.0, SVG Export Plug-In . SVG Version: 6.00 Build 0)  -->
<svg version="1.1" id="funkei" xmlns="http://www.w3.org/2000/svg" xmlns:xlink="http://www.w3.org/1999/xlink" x="0px" y="0px"
	 viewBox="0 0 450 450" style="enable-background:new 0 0 450 450;" xml:space="preserve">
<style type="text/css">
	.st0{fill:#E6E6F0;stroke:#555555;stroke-width:45;stroke-miterlimit:10;}
	.st1{fill:#E6E6F0;stroke:#555555;stroke-width:45;stroke-miterlimit:9.9998;}
	.st2{fill:#E6E6F0;stroke:#555555;stroke-width:45;stroke-miterlimit:10.0001;}
	.st3{fill:#CAC5BF;}
	.st4{fill:#B59B64;}
</style>
<ellipse class="st0" cx="225" cy="206.7" rx="106.2" ry="109.7"/>
<rect x="196.3" y="291.3" transform="matrix(0.9848 -0.1736 0.1736 0.9848 -58.3651 44.7134)" class="st1" width="60.3" height="129.4"/>
<rect x="197.6" y="49.1" transform="matrix(8.715498e-02 -0.9962 0.9962 8.715498e-02 149.9648 306.3601)" class="st2" width="89.1" height="44.5"/>
<ellipse class="st3" cx="225" cy="206.7" rx="106.2" ry="109.7"/>
<rect x="196.3" y="291.3" transform="matrix(0.9848 -0.1736 0.1736 0.9848 -58.3651 44.7134)" class="st3" width="60.3" height="129.4"/>
<rect x="197.6" y="49.1" transform="matrix(8.715498e-02 -0.9962 0.9962 8.715498e-02 149.9648 306.3601)" class="st3" width="89.1" height="44.5"/>
<ellipse transform="matrix(0.1646 -0.9864 0.9864 0.1646 -16.5362 395.2124)" class="st4" cx="225" cy="207.4" rx="90.7" ry="86.6"/>
<rect x="209.8" y="284.5" transform="matrix(0.9848 -0.1736 0.1736 0.9848 -56.175 43.9465)" class="st4" width="26.7" height="117.2"/>
<rect x="194.4" y="72.2" transform="matrix(8.715498e-02 -0.9962 0.9962 8.715498e-02 138.7729 314.1401)" class="st4" width="92.7" height="18.2"/>
</svg>
