<?xml version="1.0" encoding="utf-8"?>
<!-- Generator: Adobe Illustrator 28.0.0, SVG Export Plug-In . SVG Version: 6.00 Build 0)  -->
<svg version="1.1" id="funkei" xmlns="http://www.w3.org/2000/svg" xmlns:xlink="http://www.w3.org/1999/xlink" x="0px" y="0px"
	 viewBox="0 0 450 450" style="enable-background:new 0 0 450 450;" xml:space="preserve">
<style type="text/css">
	.st0{fill:#555555;stroke:#555555;stroke-width:50;stroke-linecap:round;stroke-linejoin:round;stroke-miterlimit:10;}
	.st1{fill:#555555;}
	.st2{fill:none;stroke:#555555;stroke-width:50;stroke-miterlimit:10;}
	.st3{fill:#A57C52;}
	.st4{fill:#B59B64;}
	.st5{fill:#B69C64;}
</style>
<path class="st0" d="M99.1,289.4c-3.5,0-6.3-2.8-6.3-6.3V31.3c0-3.5,2.8-6.3,6.3-6.3H351c3.5,0,6.3,2.8,6.3,6.3v251.9
	c0,3.5-2.8,6.3-6.3,6.3L99.1,289.4L99.1,289.4z"/>
<g>
	<path class="st1" d="M175,235c0-5.5,4.5-10,10-10h80c5.5,0,10,4.5,10,10v180c0,5.5-4.5,10-10,10h-80c-5.5,0-10-4.5-10-10V235z"/>
	<path class="st2" d="M175,235c0-5.5,4.5-10,10-10h80c5.5,0,10,4.5,10,10v180c0,5.5-4.5,10-10,10h-80c-5.5,0-10-4.5-10-10V235z"/>
</g>
<path class="st3" d="M99.1,289.4c-3.5,0-6.3-2.8-6.3-6.3V31.3c0-3.5,2.8-6.3,6.3-6.3H351c3.5,0,6.3,2.8,6.3,6.3v251.9
	c0,3.5-2.8,6.3-6.3,6.3L99.1,289.4L99.1,289.4z"/>
<g>
	<path class="st3" d="M175,235c0-5.5,4.5-10,10-10h80c5.5,0,10,4.5,10,10v180c0,5.5-4.5,10-10,10h-80c-5.5,0-10-4.5-10-10V235z"/>
</g>
<g>
	<path class="st4" d="M200,230c0-2.8,2.2-5,5-5h40c2.8,0,5,2.2,5,5v160c0,2.8-2.2,5-5,5h-40c-2.8,0-5-2.2-5-5V230z"/>
</g>
<path class="st5" d="M153.8,232c-1.9,0-3.6-1.5-3.6-3.6V86c0-1.9,1.5-3.6,3.6-3.6h142.4c1.9,0,3.6,1.5,3.6,3.6v142.4
	c0,1.9-1.5,3.6-3.6,3.6H153.8z"/>
</svg>
