<?xml version="1.0" encoding="utf-8"?>
<!-- Generator: Adobe Illustrator 28.0.0, SVG Export Plug-In . SVG Version: 6.00 Build 0)  -->
<svg version="1.1" id="funkei" xmlns="http://www.w3.org/2000/svg" xmlns:xlink="http://www.w3.org/1999/xlink" x="0px" y="0px"
	 viewBox="0 0 450 450" style="enable-background:new 0 0 450 450;" xml:space="preserve">
<style type="text/css">
	.st0{fill:#555555;stroke:#555555;stroke-width:50;stroke-miterlimit:10;}
	.st1{fill:#B69C64;}
	.st2{fill:#6E92A1;}
	.st3{fill:#CBC6C0;}
	.st4{fill:#C9C4BE;}
	.st5{fill:#B49A64;}
</style>
<path class="st0" d="M217.3,25.3c-63.4,4.6-116.6,54.3-123.9,117.8c-6.2,94-12.5,188-18.8,281.9c100.2-0.8,200.5-1.6,300.7-2.4
	c-5.9-95.5-11.9-191.1-17.8-286.6C347.2,68.4,285,20.5,217.3,25.3z"/>
<path class="st1" d="M217.3,25.3c-63.4,4.6-116.6,54.3-123.9,117.8c-6.2,94-12.5,188-18.8,281.9c100.2-0.8,200.5-1.6,300.7-2.4
	c-5.9-95.5-11.9-191.1-17.8-286.6C347.2,68.4,285,20.5,217.3,25.3z"/>
<path class="st2" d="M217.7,34.4c-59.6,4.3-109.6,51.8-116.4,112.5C95.4,236.6,89.5,326.3,83.6,416c94.2-0.8,188.4-1.6,282.6-2.3
	c-5.6-91.2-11.2-182.4-16.8-273.7C339.9,75.5,281.4,29.7,217.7,34.4z"/>
<path class="st1" d="M218.9,57c-50.1,3.8-92.1,45.7-97.7,99.1c-4.9,79.1-9.9,158.1-14.8,237.2c79.1-0.7,158.2-1.4,237.3-2.1
	c-4.7-80.4-9.4-160.8-14.1-241.2C321.5,93.2,272.4,52.9,218.9,57z"/>
<path class="st2" d="M219.4,66c-46.2,3.6-85,43.2-90.3,93.8c-4.6,74.8-9.1,149.6-13.7,224.4c73.1-0.6,146.1-1.3,219.2-1.9
	c-4.3-76.1-8.7-152.1-13-228.2C314.1,100.3,268.8,62.2,219.4,66z"/>
<path class="st3" d="M187.2,218.6c-8.6,0.2-17.1,0.4-25.7,0.6c-1.3,8.6-2.6,17.2-3.8,25.8c9.9,4.3,19.7,8.6,29.6,13
	C187.2,244.9,187.2,231.7,187.2,218.6z"/>
<path class="st3" d="M158.6,339.7c-1.8,0-3.3-2.4-3.3-5.3l34.9-212c0-1.5,0.7-2.6,1.7-2.6h66.4c0.9,0,1.7,1.2,1.7,2.6l34.9,212
	c0,2.9-1.5,5.3-3.3,5.3H158.6z"/>
<circle class="st4" cx="225" cy="162.5" r="69.3"/>
<path class="st5" d="M167.2,331.4c-1.6,0-2.9-2-2.9-4.6l30.3-184c0-1.3,0.6-2.3,1.4-2.3h57.8c0.8,0,1.4,1,1.4,2.3l30.3,184
	c0,2.5-1.3,4.6-2.9,4.6H167.2z"/>
<circle class="st5" cx="225" cy="162.5" r="59.8"/>
<path class="st3" d="M175.4,322.9c-1.4,0-2.5-1.9-2.5-4.3l26-174.8c0-1.2,0.6-2.2,1.2-2.2h49.6c0.7,0,1.2,1,1.2,2.2l26,174.8
	c0,2.4-1.1,4.3-2.5,4.3H175.4z"/>
<circle class="st4" cx="225" cy="162.5" r="53"/>
<path class="st5" d="M185.7,311.6c-1.1,0-2-1.8-2-4l20.6-161.4c0-1.1,0.4-2,1-2h39.3c0.5,0,1,0.9,1,2l20.6,161.4c0,2.2-0.9,4-2,4
	H185.7z"/>
<circle class="st5" cx="225" cy="162.5" r="43"/>
<path class="st3" d="M190.5,305.9c-1,0-1.7-1.5-1.7-3.3l18.1-132.8c0-0.9,0.4-1.6,0.9-1.6h34.5c0.5,0,0.9,0.7,0.9,1.6l18.1,132.8
	c0,1.8-0.8,3.3-1.7,3.3H190.5z"/>
<circle class="st4" cx="225" cy="162.5" r="38.5"/>
<path class="st5" d="M212.1,282.9c-0.4,0-0.6-1.2-0.6-2.6l6.8-105.1c0-0.7,0.1-1.3,0.3-1.3h12.9c0.2,0,0.3,0.6,0.3,1.3l6.8,105.1
	c0,1.4-0.3,2.6-0.6,2.6H212.1z"/>
<circle class="st5" cx="225" cy="162.5" r="13.6"/>
<path class="st1" d="M184.7,222.2c-6.7,0.2-13.3,0.3-20,0.5c-1.1,7-2.2,14.1-3.4,21.1c6.5,2.6,12.9,5.3,19.4,7.9
	C182,241.9,183.3,232.1,184.7,222.2z"/>
</svg>
