<?xml version="1.0" encoding="utf-8"?>
<!-- Generator: Adobe Illustrator 27.0.1, SVG Export Plug-In . SVG Version: 6.00 Build 0)  -->
<svg version="1.1" id="layer" xmlns="http://www.w3.org/2000/svg" xmlns:xlink="http://www.w3.org/1999/xlink" x="0px" y="0px"
	 viewBox="0 0 360 360" style="enable-background:new 0 0 360 360;" xml:space="preserve">
<style type="text/css">
	.st0{fill:#BC002D;}
	.st1{fill:#FFFFFF;}
</style>
<g>
	<circle class="st0" cx="180" cy="180" r="170"/>
	<path class="st1" d="M180,15c91.1,0,165,73.9,165,165s-73.9,165-165,165S15,271.1,15,180S88.9,15,180,15 M180,5
		c-23.6,0-46.5,4.6-68.1,13.8C91,27.6,72.3,40.2,56.3,56.3S27.6,91,18.8,111.9C9.6,133.5,5,156.4,5,180s4.6,46.5,13.8,68.1
		c8.8,20.8,21.4,39.6,37.5,55.6c16.1,16.1,34.8,28.7,55.6,37.5c21.6,9.1,44.5,13.8,68.1,13.8s46.5-4.6,68.1-13.8
		c20.8-8.8,39.6-21.4,55.6-37.5c16.1-16.1,28.7-34.8,37.5-55.6c9.1-21.6,13.8-44.5,13.8-68.1s-4.6-46.5-13.8-68.1
		c-8.8-20.8-21.4-39.6-37.5-55.6c-16.1-16.1-34.8-28.7-55.6-37.5C226.5,9.6,203.6,5,180,5L180,5z"/>
</g>
<g>
	<path class="st1" d="M64.8,190.7c5.2,0,19.5-4.5,43-13.7v-50.8H82.3l-11.7,2l-7.8-7.8h44.9c0-20.2-0.3-38.4-1-54.7l23.4,10.7
		l-8.8,6.8v37.1h13.7l9.8-9.8l15.6,15.6h-39.1v46.9l34.2-13.7l2,3.9l-36.1,19.5v86.9c-1.3,10.4-8.5,18.2-21.5,23.4
		c0-7.2-8.8-14.6-26.4-22.5v-3.9c15.6,2.6,25.2,3.7,28.8,3.4c3.6-0.3,5.4-3.4,5.4-9.3v-71.3c-18.2,9.1-28.3,15.6-30.3,19.5
		L64.8,190.7z M205.4,120.4c0-22.8-0.3-40.7-1-53.7l24.4,10.7l-9.8,6.8v36.1h34.2l11.7-11.7l17.6,17.6h-63.5c0,13.7-1,30.3-2.9,49.8
		h50.8l11.7-11.7l17.6,17.6h-72.3c3.9,15,8.6,28.2,14.2,39.6c5.5,11.4,12.7,21.8,21.5,31.2c8.8,9.4,20.3,16.4,34.7,21v3.9
		c-10.4,0.6-16.9,4.2-19.5,10.7c-29.3-20.8-47.9-56.3-55.7-106.4h-3.9c-7.8,50.8-37.4,88.2-88.9,112.3l-2-2.9
		c42.3-24.7,68-61.2,77.1-109.4h-37.1l-10.7,2l-7.8-7.8h56.6c2-19.5,2.9-36.1,2.9-49.8H180l-12.7,2l-7.8-7.8H205.4z"/>
</g>
<g>
</g>
<g>
</g>
<g>
</g>
<g>
</g>
<g>
</g>
<g>
</g>
<g>
</g>
<g>
</g>
<g>
</g>
<g>
</g>
<g>
</g>
<g>
</g>
<g>
</g>
<g>
</g>
<g>
</g>
</svg>
