<?xml version="1.0" encoding="utf-8"?>
<!-- Generator: Adobe Illustrator 27.0.1, SVG Export Plug-In . SVG Version: 6.00 Build 0)  -->
<svg version="1.1" id="layer" xmlns="http://www.w3.org/2000/svg" xmlns:xlink="http://www.w3.org/1999/xlink" x="0px" y="0px"
	 viewBox="0 0 360 360" style="enable-background:new 0 0 360 360;" xml:space="preserve">
<style type="text/css">
	.st0{fill:#BC002D;}
	.st1{fill:#FFFFFF;}
	.st2{fill:#FFFFFF;stroke:#FFFFFF;stroke-width:10;stroke-miterlimit:10;}
</style>
<g>
	<circle class="st0" cx="180" cy="180" r="170"/>
	<path class="st1" d="M180,15c91.1,0,165,73.9,165,165s-73.9,165-165,165S15,271.1,15,180S88.9,15,180,15 M180,5
		c-23.6,0-46.5,4.6-68.1,13.8C91,27.6,72.3,40.2,56.3,56.3S27.6,91,18.8,111.9C9.6,133.5,5,156.4,5,180s4.6,46.5,13.8,68.1
		c8.8,20.8,21.4,39.6,37.5,55.6c16.1,16.1,34.8,28.7,55.6,37.5c21.6,9.1,44.5,13.8,68.1,13.8s46.5-4.6,68.1-13.8
		c20.8-8.8,39.6-21.4,55.6-37.5c16.1-16.1,28.7-34.8,37.5-55.6c9.1-21.6,13.8-44.5,13.8-68.1s-4.6-46.5-13.8-68.1
		c-8.8-20.8-21.4-39.6-37.5-55.6c-16.1-16.1-34.8-28.7-55.6-37.5C226.5,9.6,203.6,5,180,5L180,5z"/>
</g>
<g>
	<path class="st2" d="M98.9,71.6l2-2.9c15,5.9,23.3,11.1,24.9,15.6c1.6,4.6,2.4,7.5,2.4,8.8c0,3.9-2,7.8-5.9,11.7h23.4l10.7-10.7
		l16.6,16.6H92.1c-5.2,0-11.4,1-18.6,2.9l-8.8-8.8h48.8c0-7.2-1-13-2.9-17.6C108.7,82.7,104.8,77.5,98.9,71.6z M75.5,140H139
		l9.8-8.8l13.7,14.6h-59.6c-5.2,0-11.4,1-18.6,2.9L75.5,140z M75.5,176.1h57.6l10.7-9.8l15.6,15.6h-56.6c-5.2,0-11.4,1-18.6,2.9
		L75.5,176.1z M79.4,202.5l15.6,7.8h45l8.8-9.8l14.6,13.7l-7.8,5.9c0,30.6,0.3,51.4,1,62.5l-13.7,6.8v-22.5H93.1v18.6l-13.7,5.9
		c0.6-15.6,1-30.6,1-44.9C80.4,232.1,80.1,217.4,79.4,202.5z M93.1,216.1V261h49.8v-44.9H93.1z M195.6,256.2
		c0,10.4,4.5,15.6,13.7,15.6h48.8c7.8,0.6,12.7-1.3,14.6-5.9s2.9-18.2,2.9-41h4.9c1.3,19.5,2.8,31.6,4.4,36.1
		c1.6,4.6,5,7.5,10.3,8.8c-5.2,9.8-14,14.6-26.4,14.6h-61.5c-16.9,0-25.4-9.1-25.4-27.3V176c0-7.2-0.3-16.6-1-28.3l14.6,7.8H260
		V93.1h-63.5c-5.2,0-11.4,1-18.6,2.9l-8.8-8.8H257l7.8-11.7l16.6,14.6l-7.8,5.9c0,33.2,0.3,57,1,71.3l-14.6,7.8v-13.7h-64.5v94.8
		H195.6z"/>
</g>
</svg>
