<?xml version="1.0" encoding="utf-8"?>
<!-- Generator: Adobe Illustrator 27.0.1, SVG Export Plug-In . SVG Version: 6.00 Build 0)  -->
<svg version="1.1" id="layer" xmlns="http://www.w3.org/2000/svg" xmlns:xlink="http://www.w3.org/1999/xlink" x="0px" y="0px"
	 viewBox="0 0 360 360" style="enable-background:new 0 0 360 360;" xml:space="preserve">
<style type="text/css">
	.st0{fill:#BC002D;}
	.st1{fill:#FFFFFF;}
</style>
<g>
	<circle class="st0" cx="180" cy="180" r="170"/>
	<path class="st1" d="M180,15c91.1,0,165,73.9,165,165s-73.9,165-165,165S15,271.1,15,180S88.9,15,180,15 M180,5
		c-23.6,0-46.5,4.6-68.1,13.8C91,27.6,72.3,40.2,56.3,56.3S27.6,91,18.8,111.9C9.6,133.5,5,156.4,5,180s4.6,46.5,13.8,68.1
		c8.8,20.8,21.4,39.6,37.5,55.6c16.1,16.1,34.8,28.7,55.6,37.5c21.6,9.1,44.5,13.8,68.1,13.8s46.5-4.6,68.1-13.8
		c20.8-8.8,39.6-21.4,55.6-37.5c16.1-16.1,28.7-34.8,37.5-55.6c9.1-21.6,13.8-44.5,13.8-68.1s-4.6-46.5-13.8-68.1
		c-8.8-20.8-21.4-39.6-37.5-55.6c-16.1-16.1-34.8-28.7-55.6-37.5C226.5,9.6,203.6,5,180,5L180,5z"/>
</g>
<g>
	<path class="st1" d="M84.3,229.8h3.9c0.6,17.6,1.3,29.3,2,35.2c0,6.5-2,10.9-5.9,13.2c-3.9,2.3-7.2,3.4-9.8,3.4c-2,0-3.8-0.7-5.4-2
		c-1.6-1.3-2.4-2.6-2.4-3.9c0-2,1.6-4.9,4.9-8.8C76.1,261.7,80.4,249.3,84.3,229.8z M138,81.4c-5.2,2-12.1,9.1-20.5,21.5
		c-9.1,12.4-18.9,24.4-29.3,36.1h42c5.2-7.8,9.8-16.6,13.7-26.4l16.6,12.7c-3.3,0.7-12.4,9.8-27.3,27.3c-15.6,18.2-30,32.9-43,43.9
		l59.6-7.8c-2-7.2-5.5-15.6-10.7-25.4l2.9-2c17.6,15.6,26.4,27,26.4,34.2c0,7.2-1.5,11.9-4.4,14.2c-2.9,2.3-5.1,3.4-6.3,3.4
		c-1.3,0-2.3-1.3-2.9-3.9c-0.7-3.9-1.6-8.8-2.9-14.6c-20.8,3.3-35.6,6.3-44.4,9.3s-16.8,7-23.9,12.2l-10.7-20.5
		c2.6,0,9.6-4.9,21-14.6c11.4-9.8,22.3-21.8,32.7-36.1c-9.8,1.3-18.1,2.6-24.9,3.9c-6.8,1.3-13.5,3.9-20,7.8L71.6,139
		c5.9-1.3,13.8-8.6,23.9-22c10.1-13.3,18.4-29.4,24.9-48.3L138,81.4z M107.7,225.9l2.9-2c14.3,16.3,21.6,28.3,22,36.1
		c0.3,7.8-1.1,12.4-4.4,13.7c-3.3,1.3-5.5,2-6.8,2c-3.3,0-4.9-3.6-4.9-10.7C115.9,255.9,112.9,242.8,107.7,225.9z M140.9,217.1
		l3.9-1c13,11.7,20.7,20.2,22.9,25.4c2.3,5.2,3.4,8.8,3.4,10.7c0,4.6-1.5,8.1-4.4,10.7c-2.9,2.6-5.1,3.9-6.3,3.9
		c-3.3,0-5.2-3.6-5.9-10.7C152.7,245.8,148.1,232.7,140.9,217.1z M197.6,258.1c0,10.4,5.9,15.6,17.6,15.6h43
		c8.5,0.6,13.3-3.3,14.6-11.7c1.3-8.5,2.6-20.2,3.9-35.2h4.9c0.6,15,1.3,25.7,2,32.2c0.6,6.5,4.2,10.4,10.7,11.7
		c-2.6,5.2-5.4,9.1-8.3,11.7c-2.9,2.6-7.7,3.9-14.2,3.9h-63.5c-16.3,0-24.4-6.2-24.4-18.6V179c0-11.7-0.3-21.5-1-29.3l14.6,7.8h62.5
		V95h-58.6c-8.5,0-16.3,1-23.4,2.9l-8.8-8.8h88.9l7.8-10.7l15.6,12.7l-7.8,5.9v46.9c0,10.4,0.3,18.6,1,24.4l-14.6,8.8v-13.7h-62.5
		V258.1z"/>
</g>
<g>
</g>
<g>
</g>
<g>
</g>
<g>
</g>
<g>
</g>
<g>
</g>
<g>
</g>
<g>
</g>
<g>
</g>
<g>
</g>
<g>
</g>
<g>
</g>
<g>
</g>
<g>
</g>
<g>
</g>
</svg>
