<?xml version="1.0" encoding="utf-8"?>
<!-- Generator: Adobe Illustrator 27.0.1, SVG Export Plug-In . SVG Version: 6.00 Build 0)  -->
<svg version="1.1" id="layer" xmlns="http://www.w3.org/2000/svg" xmlns:xlink="http://www.w3.org/1999/xlink" x="0px" y="0px"
	 viewBox="0 0 865.2 1000" style="enable-background:new 0 0 865.2 1000;" xml:space="preserve">
<style type="text/css">
	.st0{fill:#D4E5C2;}
</style>
<path class="st0" d="M666.9,861.8c-20.9,4.2-25.1-35.6-4.2-41.9C685.8,813.6,689.9,857.6,666.9,861.8z"/>
<path class="st0" d="M692,799c10.5,6.3,4.2,2.1,16.8,0c16.8-2.1,37.7,0,54.5-2.1c14.7-2.1,27.2-8.4,44-8.4
	c-2.1-18.9,4.2-25.1,8.4-41.9c2.1-14.7-2.1-29.3,2.1-41.9c18.9-4.2,31.4,14.7,37.7-2.1c2.1-6.3-6.3-8.4-4.2-18.9
	c2.1-8.4,12.6-8.4,14.7-16.8c-12.6-8.4-46.1-6.3-54.5-14.7c-8.4-6.3,0-16.8-4.2-23c-4.2-6.3-14.7-8.4-20.9-10.5
	c-8.4-4.2-35.6-16.8-44-10.5c-8.4,6.3,2.1,20.9-4.2,27.2c-2.1,2.1-33.5,2.1-35.6,0c-4.2-2.1-25.1-37.7-27.2-44
	c-4.2-10.5-4.2-12.6,0-23c2.1-4.2,10.5-23,12.6-25.1c16.8-18.9,71.2-12.6,96.4-12.6c18.9,0,27.2,2.1,41.9,12.6
	c8.4,6.3,18.9,20.9,27.2,25.1c10.5-14.7,10.5-48.2,8.4-67c-14.7,2.1-52.4,16.8-67,4.2c-6.3-8.4,0-23-6.3-31.4
	c-6.3-8.4-18.9-4.2-29.3-4.2c0-2.1,0-4.2,0-6.3c-14.7-2.1-41.9-8.4-52.4-18.9c-8.4-8.4-6.3-25.1-16.8-35.6
	c-18.9-20.9-60.8-16.8-88-16.8c8.4-16.8,58.7,6.3,56.6-25.1c8.4,0,16.8,4.2,25.1,6.3c0-10.5-2.1-20.9,8.4-25.1
	c-4.2-2.1-6.3-4.2-8.4-6.3c23-23,20.9-56.6,18.9-85.9c-44-18.9,54.5-60.8,33.5-88c-12.6,0-20.9-6.3-33.5-6.3
	c-16.8-2.1-31.4,2.1-48.2,2.1c-27.2-2.1-58.7-10.5-81.7-20.9c-25.1-10.5-64.9-8.4-83.8-23c-12.6-10.5-6.3-16.8-29.3-18.9
	c-14.7-2.1-31.4,0-46.1,0c-4.2-10.5-12.6-16.8-10.5-29.3c8.4,0,14.7-2.1,14.7-10.5c-20.9-2.1-35.6,2.1-56.6,8.4
	c-2.1,6.3-8.4,27.2-12.6,31.4c-10.5,8.4-25.1-2.1-37.7,0c-10.5,12.6-10.5,33.5-20.9,46.1c-6.3,8.4-12.6,8.4-18.9,16.8
	c-6.3,6.3-8.4,14.7-12.6,20.9c-8.4,12.6-14.7,25.1-18.9,41.9c-4.2,16.8-2.1,37.7-12.6,50.3c4.2,0,10.5,2.1,14.7,0
	c0,16.8,0,29.3-6.3,41.9c12.6-23,29.3,39.8,27.2,37.7c8.4,18.9,48.2,29.3,39.8,52.4c-16.8,2.1-33.5-6.3-48.2,0
	c-14.7,6.3-16.8,27.2-35.6,23c-6.3-12.6-4.2-27.2-23-23c-2.1-25.1,0-48.2-27.2-58.7c0-14.7,2.1-31.4-2.1-44
	c-2.1,16.8-4.2,37.7-25.1,37.7c0,12.6-10.5,16.8-20.9,16.8c0,6.3-4.2,23-2.1,27.2c4.2,14.7,12.6,12.6,29.3,16.8
	c16.8,6.3,29.3,12.6,50.3,12.6c4.2,0-2.1,18.9-2.1,20.9c-4.2,6.3-12.6,4.2-18.9,6.3c-18.9,4.2-41.9,2.1-60.8-4.2
	c10.5,14.7,27.2,8.4,39.8,14.7c14.7,8.4,20.9,29.3,20.9,44c0,12.6,2.1,16.8-8.4,20.9c-10.5,4.2-20.9-4.2-20.9-14.7
	c0,14.7-4.2,54.5,4.2,64.9c10.5,14.7,58.7,6.3,75.4,10.5c31.4,8.4,16.8,25.1,27.2,48.2c4.2,8.4,14.7,12.6,18.9,20.9
	c2.1,6.3,6.3,27.2,6.3,35.6c-10.5,0-10.5-16.8-16.8-25.1c-4.2-8.4-14.7-14.7-23-20.9c-20.9-14.7-39.8-10.5-60.8-18.9
	c-23-8.4-37.7-25.1-64.9-25.1c-20.9-2.1-41.9,8.4-37.7,33.5c23,6.3,25.1,27.2,46.1,35.6c-4.2,10.5-2.1,27.2-6.3,35.6
	c-6.3,12.6-20.9,12.6-25.1,20.9c16.8,0,37.7,16.8,41.9,31.4c4.2,14.7-10.5,54.5,12.6,56.6c0-12.6-2.1-29.3,4.2-41.9
	c8.4-18.9,23-10.5,33.5-20.9c14.7-12.6,12.6-64.9,39.8-56.6c2.1,27.2,2.1,27.2,23,44c16.8,14.7,20.9,27.2,33.5,44
	c10.5,0,18.9,0,29.3,0c-2.1,14.7-16.8,12.6-25.1,20.9c-10.5,10.5-10.5,27.2-27.2,31.4c0,8.4-2.1,23,0,31.4
	c4.2,16.8,10.5,12.6,23,25.1c4.2,4.2,37.7,48.2,35.6,12.6c10.5-4.2,23-6.3,35.6-4.2c6.3,33.5-39.8,23-31.4,50.3
	c16.8,2.1,23,20.9,33.5,29.3c14.7,12.6,23,10.5,41.9,10.5c10.5,0,23,0,33.5,4.2c4.2,2.1,10.5,10.5,14.7,10.5
	c29.3,4.2,20.9-23,20.9-44c2.1-27.2,4.2-14.7,23-27.2c10.5-8.4,12.6-23,18.9-33.5c2.1-4.2,8.4-6.3,10.5-12.6
	c4.2-6.3,4.2-14.7,6.3-23c2.1-16.8,2.1-31.4,2.1-48.2c33.5-4.2,60.8-10.5,92.2-23c12.6-6.3,27.2-12.6,41.9-10.5
	c6.3,0,16.8,4.2,18.9,8.4C689.9,788.5,692,799,692,799z"/>
<path class="st0" d="M759.1,551.8c6.3-6.3,23,0,23,8.4C782.1,574.8,748.6,566.4,759.1,551.8z"/>
<path class="st0" d="M826.1,568.5c6.3,10.5-8.4,12.6-16.8,12.6C782.1,576.9,815.6,551.8,826.1,568.5z"/>
<path class="st0" d="M63.6,826.2c-14.7,8.4-39.8,6.3-31.4,27.2c8.4,0,18.9,2.1,23,10.5c6.3,14.7-6.3,16.8-14.7,23
	c-6.3,4.2-14.7,18.9-25.1,12.6c-6.3-4.2-4.2-20.9-6.3-27.2c-2.1-8.4-6.3-4.2-8.4-12.6c35.6,0-8.4-85.9,23-88
	c6.3,0,10.5,8.4,18.9,6.3c6.3-2.1,6.3-8.4,10.5-10.5c18.9-6.3,27.2,2.1,31.4,18.9C92.9,813.6,84.5,815.7,63.6,826.2z"/>
<path class="st0" d="M92.9,889c-2.1,10.5,6.3,12.6,6.3,16.8c2.1,8.4,0,16.8-2.1,23c16.8,12.6,16.8-8.4,20.9-16.8
	c4.2-10.5,16.8-16.8,14.7-29.3c-2.1-10.5-14.7-18.9-23-12.6C103.4,876.5,111.8,893.2,92.9,889z"/>
<path class="st0" d="M162,222.9c2.1,2.1,6.3,4.2,12.6,4.2c2.1,10.5-4.2,16.8,0,27.2c4.2,8.4,14.7,6.3,10.5,18.9
	c0-16.8,6.3-41.9-2.1-54.5c-2.1,8.4-10.5,12.6-18.9,10.5"/>
<path class="st0" d="M359,11.3c-35.6,14.7,18.9,54.5,41.9,25.1C417.6,17.6,373.6,5,359,11.3z"/>
<path class="st0" d="M321.2,67.8c-20.9,4.2-33.5-10.5-33.5-29.3c-4.2,0-10.5,0-14.7,0c-6.3,12.6-10.5,20.9-20.9,10.5
	c-2.1-2.1-6.3-12.6-8.4-14.7c-2.1-6.3-6.3-10.5-4.2-18.9c0,0,46.1-14.7,50.3-14.7C335.9-3.4,323.3,38.5,321.2,67.8z"/>
<path class="st0" d="M139,518.2C139,516.1,139,516.1,139,518.2c0-10.5-12.6-10.5-12.6-2.1v2.1C126.4,526.6,139,526.6,139,518.2z"/>
<path class="st0" d="M76.1,727.7c-4.2,0-6.3,0-10.5,2.1c-8.4,4.2,0,16.8,6.3,12.6c2.1,0,2.1,0,4.2,0
	C84.5,740.3,84.5,727.7,76.1,727.7z"/>
</svg>
