<?xml version="1.0" encoding="utf-8"?>
<!-- Generator: Adobe Illustrator 27.0.1, SVG Export Plug-In . SVG Version: 6.00 Build 0)  -->
<svg version="1.1" id="layer" xmlns="http://www.w3.org/2000/svg" xmlns:xlink="http://www.w3.org/1999/xlink" x="0px" y="0px"
	 viewBox="0 0 707.9 582.6" style="enable-background:new 0 0 707.9 582.6;" xml:space="preserve">
<style type="text/css">
	.st0{fill:#D4E5C2;}
</style>
<path class="st0" d="M79.3,498.3c-4.1,1.3-7.6,2-11.7-0.1c-3.1-1.6-5.3-3.2-3.9-6.6c0.9-2.1-0.8-1.6-1.4-2.2
	c-2.8-3.1-7-5.5-4.1-10.8c0.8-1.5-0.7-2.2-2-2.6c-4.2-1.3-8-3.3-9.6-7.8c-0.7-2-1.6-1.5-3.2-1.3c-3.9,0.4-8,0.1-9.7-4.5
	c-0.6-1.6-1.6-1.7-2.6-1.3c-5.3,1.9-8.9-0.9-11.4-4.8c-1.3-2-1.9-1.9-3.6-1.3c-5.4,2.1-9.5-0.6-9.5-6.5c0-3-0.7-5.1-3.6-5.9
	c-4.1-1.2-3.2-4.8-1.9-6.6c2.4-3.3,2.3-6.7,2.4-10.3c0.2-5.9,2.7-10,8.8-9.3c2.2,0.2,1.8-1.5,2.1-2.2c1.6-3.8,3-7.3,8.2-6.2
	c1.6,0.3,2.1-0.6,1.9-2c0-0.3,0-0.7,0-1c-0.3-4.1,4.3-5,5.1-7.9c0.7-2.6-3.4-5-2-8.2c0.4-1,1.5-1.7,2.2-2.6c0.9-1.3,2.8-3.1,2.5-4
	c-2.6-6.2,2.6-5.2,5.5-6.2c2.3-0.8,3.8-1.3,1.5-3.9c-1.5-1.7-2.9-3.6-3.7-5.6c-1.4-3.5,1.6-5.8,3.3-8.2c1.2-1.7,1.4-2.2-0.1-3.8
	c-4.6-4.8-4.2-6.7,0.8-11.3c3-2.7,3.6-6.7,3.9-10.6c0.3-4.1-0.4-8.2,1.7-12c1-1.8,0.1-3.5-1.9-3.6c-2.8-0.1-4.7-1.9-7.1-2.8
	c-3.2-1.2-4.5-3.4-3.3-6.6c0.9-2.3-0.1-3.8-1.7-4.5c-3-1.3-2.7-3.1-2-5.6c2.3-8.2,8.5-11.6,17-9.7c7,1.6,13.9-1.1,20.8-1.9
	c1.7-0.2,3.3-1.3,5.2-1c2.9,0.4,5.1-0.2,6.9-3c2.3-3.4,7.9-1.4,10-3.7c2.4-2.7,4.1-5.5,8.1-5.2c1.8,0.1,2-1.1,2.8-2
	c3.5-3.7,5.8-7.8,6.7-13.1c0.5-2.6,3.2-5.5,7.3-3.1c1.7,1,3.9,1.2,4.5-1.7c0.1-0.4,0.5-1,0.8-1c7.5-0.7,11-7.3,15.5-11.7
	c3.4-3.3,8.3-7.6,7.7-13.9c-0.1-1.4-0.8-2-2-2.5s-2.3-1.1-3.3-1.9c-2.8-2.2-4.3-5.1-3.5-8.6c0.7-3.2,3.7-4.5,6.4-5.3
	c3.2-0.9,6,1.2,8.2,3.3c1.2,1.1,1.9,3,3,4.8c1.5-4.4,4.1-7.3,8.7-8.4c1.7-0.4,1.6-2.2,1.6-3.7c0.3-7.2,1.2-8.5,8.3-10
	c1.7-0.4,1.4-1.3,1.8-2.3c0.9-2.1,1.2-4.6,4-5.6c2.4-0.8,1.4-2.8,0.3-4.2c-2.2-2.7-4.3-5.4-6.8-7.7c-1.9-1.8-2.5-4.3-1.3-5.7
	c1.7-2,3-5.8,6.5-4.9c2.4,0.6,2.1-0.2,2.2-1.7c0.2-2.7,2.2-4.6,3-7.1c0.3-0.9,1.2-2.1,2.1-1.7c5.1,2.3,3.8-1.6,3.8-3.9
	c0-1.5,0.5-2.9,1.3-3.6c2.9-2.5,2.9-5,1-8c-0.3-0.6-0.1-2.2,0-2.2c5.8-0.8,2-7.3,5.5-9.3c1.4-0.8,4.6,1.4,4.1-2.3
	c-0.4-2.3-0.6-4.7-4.3-5.1c-2.2-0.2-4.2-2.9-6.1-4.6c-1.8-1.7-3.4-3.2-6.3-3.1c-3.8,0.2-4.2-3.1-4.1-5.9c0.1-3-0.6-5.3-2.9-7.4
	c-2.4-2.3-3.5-5-0.4-8c3.3-3.2,5.7-0.8,7.3,1.4c2.2,3,5.1,4.6,7.8,5.6c4.5-3.9,6.6-9.1,9.1-14.2c2.1-4.4,6.6-3.6,10.3-3.2
	c2.3,0.2,4.1,0.3,5.5-1.6c1.2-1.5,2.7-1.6,4.4-1.5c1.6,0.1,3.3,0.3,4.5-1.4c1.6-2.4,4.4-2.1,6.3-1.4c2,0.7,3.9,0.8,5.8,0.7
	c2.5-0.1,4.4,0.3,6.4,2.1c2.7,2.3,5.7,4.4,9.6,4c1.1-0.1,1.5,0.4,2.2,1.3c1.5,1.8,3.2,3.7,6.2,2c2.2-1.3,3.7,1.5,6.3,1.6
	c0.1-3.7,1.9-7.5-3-9.9c-2.1-1-3.3-3.8-3.3-5.7c-0.1-3.8-1.7-6-4.2-8.6c-2.6-2.6-4.2-6.1-2.4-10.2c1-2.2,0-2.9-2.4-2.4
	c-4.3,0.9-6.7-1.9-5-5.7c1.1-2.4,1.7-4.1,0.2-6.5c-1.1-1.8,0.3-3.8,1.4-5.2c1.2-1.4,3.9-1.6,5.2-0.9c2.9,1.5,4.3,0.3,6.2-1.5
	c2-2,4.3-3.4,7.4-1.4c3.7,2.4,8,3.2,12.2,4c2.1,0.4,4.2,0.6,4.3,3.5c0,0.3,0.3,0.7,0.6,0.8c5.4,1.2,10.7,2.5,12.9,8.6
	c0.2,0.5,1.1-0.3,1.7-0.5c1.5-0.6,3-1.6,4.5-1.6c5,0.2,9.2,0.3,13.2-4.3c2.3-2.7,9.7,6,9,11.4c-0.1,1-2.8,2.7,0.3,3.3
	c2.5,0.5,4.2,4.8,7.6,1.5c0.9-0.9,2.2-1.4,3.1-2.2c3.6-3.2,7.1-3.6,9.5,0.2c2,3.1,3.2,2.1,5.3,1c2.3-1.2,6-1.5,7.1-0.3
	c3.9,4.2,7.3,2.1,11.4,0.9c4.3-1.3,7.2,2.1,8,8.5c4.1-0.5,8.7-4.2,11.8,1.8c2.2-1.4,4.7-1.8,7.2-1.4c4.5,0.8,3.5-2.3,3.7-4.8
	c0.3-3.7,2.5-4.8,6-3.2c2.3,1.1,4.1,2.7,7.2,1.2c2.1-1.1,3.6,1,4.8,3c1.9,3,3.3,6.4,6.2,8.9c2.5,2.2,4.5,2.3,7,0.8
	c2.1-1.2,4.1-2.6,6.2-3.8c0.8-0.5,2.2-1.3,2.6-1c4.1,3.2,6.2,1.1,8.9-2.3c2.5-3.2,6.3-2.3,7.8,1.8c1.1,2.9,2.6,3.3,4.7,2.1
	c1.5-0.8,2.8-0.8,4.3-0.7c3.1,0.1,5.2,0,5.4-4.3c0.2-4.2,3.6-3.1,5.8-1.6c2.6,1.7,3.5,1.5,4.1-1.6c1.1-5.5,5.4-7.3,10.3-4.5
	c1.2,0.7,2.1,1.5,3.5,0.6c4.5-2.8,9-2,14.6,1.2c-3.1-4.9-3.3-8.6,0.3-12c2.5-2.3,4.8-2.6,7.3-0.2c1.4,1.4,2.1,2.7,4.6,0.8
	c2.3-1.8,8.7,1.4,9.2,4.5c0.4,2.5,1.3,3.1,3.3,3.8c4.2,1.3,6.6,4,5.9,8.7c-0.3,1.8,0.5,3.9,1.5,4.4c2.1,1,2.1-1.8,3.2-2.8
	c2.1-2.1,3.7-4.3,4.6-7.3c1-3.3,4.6-3.3,7.2-2.2c2.2,0.9,3.2,0.3,4.7-1c3.2-2.8,7.1-2.2,9.8,1.3c3.5,4.7,5.2,5,9.4,1.4
	c0.1-0.1,0.2-0.3,0.4-0.3c6.8-0.5,10.3-6.8,16.2-8.8c2.4-0.8,3.9-3.1,6-4.1c2.3-1.2,4.7-3.1,7.5-2.8c5.2,0.5,9.6,0.1,11.2-6.1
	c0.2-0.9,1.3-2.1,2.7-1.9c3.5,0.4,4.7-1.3,4.7-4.5c0-0.5,0.3-1.3,0.4-1.3c5.6,0.3,7.2-6.1,11.8-7.1c1.1-0.3,1.8-0.4,1.8-1.7
	c-0.3-4.9,3.4-7.9,5.7-11.4c2.2-3.3,7-2.3,9.1,1.9s4.7,8.6,2.3,13.7c-0.8,1.7,0.7,2.7,2.2,3.7c2.8,1.9,6,4.3,2.7,8.5
	c-0.9,1.2-1.2,2.5,0.8,3.3c2.8,1.2,3.7,3.7,4.2,6.6c0.4,2.3,0.1,5.1,3.2,6.5c2.3,1.1,2.5,4.7,2.4,6.5c-0.6,7.8,2.6,13,9.1,16.6
	c3.8,2.2,3.9,5.1,1.9,8.5c-2.8,4.7-2.7,5,2.8,5.3c3.1,0.1,5.1,2,7,4.1c1.8,2.1,3.8,3.2,6.8,3.1c4.9-0.2,7,3.4,4.9,8.2
	c-0.8,2-1.5,3.6-0.3,5.9c2.7,5,1.7,8.2-3.4,11.6c-1.6,1.1-2.5,1.3-1.8,3.9c0.9,3.7-3.2,5.2-5.6,7.3c-1.5,1.2-3.2,2.3-4.9,3
	c-2.4,0.9-2.7,2.8-2,4.4c2.3,4.9-1.1,7.6-3.8,10.5c-0.6,0.7-1.6,0.6-1.1,2c2.2,6.1,1.2,12.1-3.4,15.6c-2.8,2.1-2.5,2.8-0.1,5.3
	c4.2,4.3,4.9,7.5-0.1,11.3c-1.2,1-0.8,2.1-0.8,3.1c0,3.5-0.9,6.4-4.4,8c-1.7,0.8-2.3,2.2-1.1,4.1c0.9,1.5,1.9,3.1,2.3,4.8
	c0.4,1.4,0.7,3.6,2,3.3c1.7-0.3,3.6-0.9,4.3-3.6c1.6-5.8,3.7-6.8,7.1-4.5c1.4,0.9,2.7,3,2,3.7c-2.5,2.3,0.3,8.1-5.3,8.2
	c-3.6,0.1-8.3,4.1-9,7.4c-0.9,4.1-3.4,6.6-7.5,7.7c-3.5,0.9-6.3,2.3-6.7,7c-0.2,3.7-3.8,5.7-6.9,6.8c-2.2,0.7-1.9,1.4-1.5,3
	c1.4,5.5-3.4,10-8.9,8.2c-2.9-0.9-4-0.1-6,2.4c-3.4,4.2-6.8,10.2-14.2,7.6c-0.3-0.1-0.8,0-0.9,0.2c-2.7,4.7-7.4,7.5-11.1,11.2
	c-2,2-3.1,4.8-6.3,4.9c-1.6,0-1.7,1-2,2.1c-1.1,4.6-3,8.5-8.6,8.5c-0.4,0-1.2,0.4-1.2,0.5c0.2,5.2-6.3,7-6.3,12.4
	c0,1.9-1.3,5.5-3.2,5.6c-6.1,0.4-7.8,4.6-9.7,9.2c-1.2,2.9-4.2,2.9-6.7,1.9c-2.1-0.9-2.4-0.3-2.2,1.4c0.6,7.3-0.4,9.6-6.6,11.7
	c-2.4,0.8-3.6,1.6-3.6,4.3c0,1.5-0.7,3.5-1.8,4.3c-4.8,3.3-4.7,9-7.2,13.4c-3.5,6.3-9.8,10.7-12.6,17.7c-6.9,0.9-7.7,9.8-14.5,10.9
	c-0.9,0.1-1.7,2.1-1.7,3.7c0,3.5-3.4,5.5-5.3,5.8c-5.8,0.8-6.5,4.9-7.6,9.1c-0.7,2.5-1.2,5-2,7.4c-1.1,3.2-3.4,5.1-7,4.8
	c-1.7-0.1-3.2,0-4,2.1c-1.4,4-4.8,5.6-7.9,3.2c-2.6-2-3.8-0.6-4.6,1c-1.3,2.6-3.3,3.8-5.8,4.8c-1.6,0.7-3.4,1.5-2.7,3.9
	c0,0.2,0,0.3,0,0.5c0.1,5-6.6,6.7-6.4,9.8c0.3,4.7-0.1,7.6-4.2,10c-2.1,1.2-2,4.7-4.8,5.7c-1.2,0.4-2.4,2-3.3,1.8
	c-6.1-1.5-6.2,3-7.1,6.7c-1.2,4.8-3.9,6.8-8.2,5.3c-2.9-1-5.3-2.3-6.8,1.6c-0.1,0.3-0.5,0.5-0.8,0.5c-4.9,0.9-6.4,4.8-7.2,8.9
	c-1,4.7-3.4,7.7-8.4,8.3c-0.8,0.1-3,0.2-0.9,2.7c2.3,2.7,2.4,6.5-1.2,9.3c-2,1.6-3.3,3.6-3.8,6.6c-0.7,4.3-2.8,8.7-8.6,8.1
	c-2.2-0.2-2.6,1.5-3,2.5c-1.5,3.8-3.8,6.7-6.6,9.5c-3.2,3.2-2.3,8-3.2,11.9c-1.2,5.7-4.4,6.4-8.5,6c-2.4-0.3-3.5,0.3-5.3,1.7
	c-3.5,2.6-7.8,2.3-11.5,0c-7-4.4-14.7-4.5-21-0.2c-3.6,2.5-7.1,6.3-8.9,11.5c-1.8,5.2-3.8,10.7-7,15.4c-1.7,2.5-4.2,3.6-7.6,3.7
	c-14.3,0.4-28.5,0.2-42.7-0.8c-4.8-0.3-9.1-1.4-11.9-5.9c-2.5-3.9-7.2-3.2-11-4.3c-1.1-0.3-2.1-0.3-3.2-0.9
	c-7.2-3.6-11.6-1.9-15.8,5.5c-2.5,4.4-4.2,9.2-8.4,12.6c-2.8,2.4-4.8,2.3-7-0.4c-2.8-3.5-5.2-4.3-7.6,0.6c-1.1,2.4-3.7,3.8-6.4,2.6
	c-6-2.7-11.4,0.8-17.1,1.4c-6.2,0.7-10.1-1.6-10.3-7.9c-0.1-3.2,0.4-6.7-5.3-4.9c-3,1-4.6-2.7-5.8-5.3c-1.2-2.7-2.4-4.2-5.8-2.2
	c-3.5,2.1-8.4-0.6-11.1-5.3c-2.9-5-5.3-5.6-10.6-3.8c-4.2,1.4-7.4-0.8-9.4-4.4c-1.2-2-2.1-2.9-4.6-1.7c-4.8,2.2-9-0.9-12.7-3.1
	c-3.2-1.8-2.6-5.7-1.7-9.1c1-3.9,0.1-7.5-3.5-9.5c-2-1.1-2.8-2.2-2.4-4.2c0.7-3.8-1.2-4.4-4.4-4.2c-4.8,0.3-9.1-0.7-10.7-6.3
	c-0.3-1-1.5-2.3-2.4-2.4C80.5,506.7,79.6,502.7,79.3,498.3z"/>
<path class="st0" d="M156.7,144.2c2.5-0.4,4.5,0.5,6.3,2.1c0.8,0.7,1.4,1.9,2.8,1.9c4.5-0.2,4.8,2.5,4.6,6c-0.3,3.9-3.2,5.5-6,6.8
	c-0.9,0.4-4.1-0.8-3.9-2.8c0.7-5.1-3.5-3.9-5.8-4.9c-2.1-0.9-5.8,1.5-6.2-2.7c-0.5-4.1,4.2-3.9,5.9-6.3
	C154.7,143.9,156,144.2,156.7,144.2z"/>
<path class="st0" d="M130.4,162.7c0-3.5,3.9-6.4,8.3-4.1c2.7,1.4,6.1,0.8,8.7,4.1c2.4,3,1,3.5-0.2,5.2c-1,1.4-2.7,1-3.9,1.8
	c-1.8,1.2-2.9,5.1-5.8,2.9C134.1,170.3,130.4,167.6,130.4,162.7z"/>
<path class="st0" d="M239.5,74.7c-1.7-4.6-2.9-7.5-7-7.6c-1.8-0.1-3.2-1.9-3.8-3.5c-0.6-1.5-1.1-4.1,0.9-4.8
	c1.9-0.7,4.4,0.1,6.1,1.4c2.2,1.6,4,3.5,6.9,4.3c2.7,0.7,2.4,3.1,0.9,5.1C242.4,71,241.3,72.4,239.5,74.7z"/>
<path class="st0" d="M248.9,10.2c-0.9-2.2-4.2,1.6-4.7-1.6c-0.4-2.4,1-4.4,3.5-5.4c0.6-0.2,1.1-0.7,1.7-1c1.6-0.7,2.7-3.5,5-1.5
	c2,1.6,2.6,4.3,2.7,6.5c0.2,2.7-3.1,1.3-4.6,2.4C251.5,10.4,250.4,10.1,248.9,10.2z"/>
<path class="st0" d="M694.6,178.1c-2,0.2-3.5,0.2-3.3-2.7c0.1-2.7,0.7-5.2,3.7-5.2c2.8,0,4.1,2.9,4.2,5.1
	C699.3,178.2,696.5,178,694.6,178.1z"/>
<path class="st0" d="M471.7,447c-1.9,0.2-2.7-0.4-2.2-1.5c1.1-2.6,2.8-4.7,5.7-5.3c1.1-0.2,2.6-0.3,2.2,1.6
	C476.5,444.8,473.6,445.8,471.7,447z"/>
<path class="st0" d="M440.2,477.5c-0.8,1.4-2.5,3.1-4.6,4.3c-0.2,0.1-1.5-1.1-1.3-2.3c0.5-2.7,2.9-3.2,4.8-4.3
	C440,474.7,440.5,475.7,440.2,477.5z"/>
<path class="st0" d="M130.4,206.3c0.2,1.3-0.6,2.6-1.5,2.6c-1,0-1.6-1.4-1.5-2.7c0.1-0.9-0.2-1.9,1.3-2
	C130.5,204,130.5,205.1,130.4,206.3z"/>
</svg>
