<?xml version="1.0" encoding="utf-8"?>
<!-- Generator: Adobe Illustrator 27.0.1, SVG Export Plug-In . SVG Version: 6.00 Build 0)  -->
<svg version="1.1" id="layer" xmlns="http://www.w3.org/2000/svg" xmlns:xlink="http://www.w3.org/1999/xlink" x="0px" y="0px"
	 viewBox="0 0 1000 723.8" style="enable-background:new 0 0 1000 723.8;" xml:space="preserve">
<style type="text/css">
	.st0{fill:#D4E5C2;}
</style>
<path class="st0" d="M506.7,50.3c5.3-1.6,12.3,3.7,16-4.6c0.2-0.7,5.5-0.2,6.2,0.9c4.1,8.7,13.3,3.4,19,7.1c1.8,1.1,3.4,1.6,4.3-1.1
	c2.3-6.9,2.5-6.9,5.3,0.2c1.8,4.6,8.2-0.2,11.7-1.1c7.5-2.3,13-5,20.8,2.1c7.3,6.6,17.8,0.7,24.5-7.1c6.4-7.3,16.9-11,26.5-12.1
	c7.8-0.9,15.6,2.3,18.1,13c1.4,5.7,7.8,11.2,12.1,16.2c5.9,7.1,6.4,14,6.9,21.7c0.2,2.5-2.1,6.4,2.3,7.5c4.3,1.1,11.9,11.4,11-4.3
	c-0.5-5.7,8.2-7.8,12.1-6.4c6.2,1.8,12.3-1.1,18.5,3c4.6,3.2,6.4-4.1,9.6-6.2c8.2-5.3,11.9-5.5,18.1,3.4c1.8,2.5,3.7,1.8,5.3,0.7
	c1.8-1.1,3.9-2.7,4.8-4.8c4.3-9.6,3.2,5.7,7.5,1.6c3.2-3.2-3.4-8,2.5-9.6c0.9-0.2,2.1,0.2,3.2,0.5c-3.2,8,13.5,13.5,2.7,22.4
	c-0.7,0.7-1.4,1.1-0.2,1.4c15.1,3,5.9,22.6,18.8,27.2c0.9,0.5,2.1,2.5,2.1,3.7c-4.1,21.7,17.4,27.4,26.3,41.2
	c4.8,7.3,16.5,8,25.4,10.7c5.9,1.6,11.4,4.3,10.3,10.3c-0.9,5.3,4.8,17.8-9.4,12.8c5.9,9.8,20.4,11.4,21.5,25.4
	c0,1.4,0.9,3.9,1.4,3.9c11.2-0.7,18.3,8.9,28.1,11.7c6.2,1.8,8.7,9.8,16.2,8.7c-1.4,1.4,5.3,4.8-1.1,5c-0.9,0-3.4-0.5-1.8,2.1
	c4.8,7.3,4.6,12.1-1.1,17.8c-0.9,0.9-1.1,3.7-2.7,2.7c-11.7-5.7-17.6,7.1-27.9,8c-8.5,0.9-8.2,4.1-18.1,1.1c11.4,8.2,6.9,19,9.8,27
	c5,13-1.8,26.8,4.8,39.6c2.7,5.3-4.8,10.1-6.6,15.6c-0.2,0.9-4.6-0.2-0.9,2.7c5.5,4.6,5.3,4.8-2.3,8.5c3.2,0.5,5.7,0.9,11.2,1.8
	c-5.5,0.9-7.8,1.4-12.1,2.1c5.7,1.6,11.7,5.7,5.9,7.3c-9.1,2.5-4.6,7.8-5,11.9c-1.6,13,9.4,25.4,1.8,39.6c-1.6,3,5.5,11,11.7,11.9
	c3.7,0.5,6.6,3,9.4,3.2c11.9,1.1,11.9,10.7,13.3,18.3c1.8,9.6,7.1,12.6,15.8,12.1c2.3-0.2,4.1,1.1,4.3,3c0.5,2.7-2.1,3.2-4.1,3.9
	c-4.3,1.4-7.3-4.1-12.1-1.6c2.5,2.1,5.5,4.3,3.2,7.3c-1.8,2.5-3.2,6.6-7.8,5c-8.9-3-12.1,3.7-14.4,9.4c-3.4,9.8-5.9,19.9-8,30.2
	c-0.7,3.2-2.3,1.6-3.4,2.3c-3.2,1.6-2.3,6.4-1.8,6.6c4.6,3.2,4.8,7.3,3.9,12.1c-1.4,7.3-5,16.5-12.3,14.4c-7.8-2.1,1.4,11-5.5,4.8
	c-2.5-2.1-1.8-7.1-6.2-7.8c-9.8-1.6-19.7-3.9-27.7-10.1c-2.3-1.6-3.4-0.9-4.3,0.7c-2.1,3.9-3,9.1-9.4,4.6c-0.7-0.5-2.1-0.5-2.3,2.1
	c-0.5,5-3.4,9.8-3,14.6c1.1,8.7-4.8,13.3-10.3,14.4c-18.5,3.9-36.6,14.2-56.3,6.4c-2.1-0.9-2.7,0.5-3.7,0.9
	c-7.3,4.6-16,7.1-21.7,14.2c-6.6,8.2-17.6,1.8-25.8,6.4c-8,4.6-15.8-1.1-21.5-3.9c-13.3-6.2-23.1,2.3-34.5,3.9
	c-4.3,0.7-8.7,6.9-12.8-1.4c-1.4-2.7-3.2,0.2-1.8,2.7c-3.7,0.5-6.6,2.7-11,1.1c-8-2.7-15.6-1.4-23.1,3.7c-2.7,1.8-8.7,0.7-13,0.9
	c-13.3,0.7-25.4,7.5-38.9,6.4c-3.9-0.2-6.6,1.4-7.3,5.3c-1.4,9.4-10.3,10.3-16.5,14.4c-2.7,1.8-3.9,0.2-4.1-2.7
	c0-0.9-1.1-3.7-1.8-1.4c-2.5,9.8-10.3,3.2-14.6,4.1c-16.5,3.4-33.6,3.7-50.3,5.3c-3.7,0.5-6.9,1.4-8.9,5.3c-0.9,1.6-3.4,2.3-5.3,3.4
	c-5.3-12.1-13.3,7.1-18.8-1.6c-2.7,6.2-5.5,0.2-8.2,0c-6.2-0.5-6.6,4.1-6.9,8.2c-0.5,10.3-8.5,11-15.8,12.1c-3.7,0.5-8.5,0.7-11-1.4
	c-8-6.4-11.7,0.5-15.6,4.8c-2.7,3-2.3,8.7-9.1,5.9c-2.7-1.1-1.4,1.6-1.1,3.2c0.5,3.7,0.2,7.5,0.2,11.9c-2.3-0.9-5.3-1.4-5.7-2.7
	c-5.7-13-10.7-17.4-24.9-21.3c-8.5-2.3-14.9-19.2-10.7-28.6c0.7-1.4,5-3.4-0.2-4.1c-12.8-2.1-12.3-13.7-12.1-21.3
	c0.2-12.8-4.3-21.3-14.4-27.7c-3.7-2.5-7.1-5-10.7-7.5c-1.8,5.3-3.9,10.3-5.3,15.8c-0.7,2.5,0,5.3,0,8.5c-3-1.1-5.7-2.3-8.2-3.4
	c-0.9,5.3,2.3,15.3-9.6,8.5c-0.7-0.2-1.6-0.5-2.3,0c-14.4,7.5-14-6.9-19-12.8c-2.5-3.2-4.6-7.8-7.8-9.4c-6.4-3-6.4-7.3-6.2-13
	c0.7-12.1-0.9-24.5,3.9-36.1c1.1-2.7-1.6-1.4-2.5-2.1c-7.1-6.6-15.3-11-23.8-15.3c-10.3-5.3-13.7-16.7-18.8-26.5
	c-5.5-10.3-10.1-21-15.8-31.1c-0.9-1.6-1.6-3-2.1-4.6c-3.7-16.5-8.9-32.7-7.3-49.9c0.7-5.9,0.2-12.3-2.3-16.5
	c-8.5-14.6-0.9-28.8,0.2-43c0.2-2.3-1.1-3.2-1.4-4.3c-3.9-14.9-8-29.7-2.5-45.7c-8.2,1.6-13.3-0.5-20.4-4.6
	c-19-11.4-4.3-29.7-11.9-42.8c-1.6-2.7-1.4-7.1-2.1-10.7c-1.6-6.9,3.2-8.7,8.9-7.8c8.7,1.4,17.4,3.2,25.8,5.3c3,0.7,3.9-1.8,5.7-2.7
	c3.4-1.8,5.3-2.7,8.9,2.3c5.3,7.1,9.6-0.9,14.4-5c-3.7-0.9-6.2-1.4-8.7-2.1c2.1-3,1.8-7.3,6.6-8.2c1.6-0.2,5.3-3,2.5-4.1
	c-3.4-1.8,0.9-7.8-5.3-7.1c-2.3,0.2-6.2,2.5-5.9-3.9c0.2-3.4,0.5-3.9,3.4-4.1c3.9-0.2,8.2-1.8,7.3,4.8c0,0.2,1.1,0.7,1.1,0.7
	c13.5-5.9,15.1-20.6,22-30.9c4.8-7.3,6.2-18.8,11.4-27.7c5.7-9.8,15.6-14.6,24.9-19.7c8.2-4.3,12.6-11.9,18.8-17.8
	c12.1-11.4,17.6-28.6,34.1-36.8c8.7-4.3,16.5-12.8,21.5-22.4c0.9-1.6,3.4-5,4.6-3.4c5,5.9,8.7,0.2,12.6-1.1c5.5-2.1,8,2.1,12.1,3.7
	c12.3,4.8,25.6,6.6,38.7,9.6c1.1,0.2,6.4-3.2,7.8-4.1c5-3.7,11.7-0.7,13.5,1.8c4.1,5.3,8,2.7,11.9,2.1c17.8-3.4,34.8-11,54.4-10.5
	c-3-4.8-3.7-6.9,3.2-9.8c12.6-5.3,24-13,38.2-13c5,0,0.9-6.6,5.3-7.1c3.2,3,3.2,6.6,2.7,8.7C497.3,56,509.2,58.3,506.7,50.3z"/>
<path class="st0" d="M971.4,149.6c-11-1.4-16.7-2.1-13.7,10.7c1.6,7.1-12.8,11.9-20.8,11.4c-14.9-0.5-12.3-10.5-15.3-19.4
	c-2.3-7.3-4.1-14.4-5.7-21.7c-1.6-7.3,0.2-14.2,7.1-17.4c6.6-3.2,14.6-5.7,21.7-0.7c5,3.7,13.3,3.4,12.1,15.1
	C956.1,133.3,957.7,147.1,971.4,149.6z"/>
<path class="st0" d="M185.8,687.5c-0.7,8.2-6.6,18.1,7.3,21.3c3.2,0.7,3.2,2.3,0.7,4.6c-5.3,4.6-9.4,13.3-18.3,4.8
	c-0.9-0.7-2.7,1.6-3.7,2.7c-6.6,6.9-11.7,0-15.6-4.8c-5.5-7.1,1.8-38,9.8-42.3c2.7-1.6,5.9-7.3,9.1-1.8c2.7,4.6,13.5,3.7,9.1,13
	c-0.5,1.1-0.2,3,2.1,3.2L185.8,687.5z"/>
<path class="st0" d="M954.7,23.8c5.9,3.2,14,3.2,19.2,8.2c2.3,2.3,9.6,2.1,5.3,9.1c-0.9,1.4,5.3,0.9,7.8,3c0.9,0.7,2.1-5.3,4.3-0.5
	c1.6,3.4,10.3-4.8,8.5,3.9c-1.4,7.1-6.2-2.3-10.1,0.2c-1.6,1.1-4.3,0.2-6.2,0.2c-3.7,2.1,8,1.6,0,5.7c-15.8,8.2-19.9,6.6-24.9-9.8
	c-2.3-7.1-2.7-18.3-15.1-17.8c-4.1,0.2-10.3-4.1-12.8-8.2c-3.9-5.9-3.9-11.2,1.1-16.2c0.7-0.7,1.6-1.6,2.5-1.6
	c1.4,0,3.9,0.5,4.1,1.1c3.2,10.5,20.4,3.2,21.5,17.8C960.6,27.7,955.2,19,954.7,23.8z"/>
<path class="st0" d="M31.4,501.8c2.7,1.8,7.1,0.7,8.2,4.6c-0.7,5.3-6.4,2.3-9.4,6.4c-8.7,12.1-19.2,10.7-28.1-2.5
	c-6.2-9.1,1.8-26.8,12.6-27.7c3.4-0.2-0.5,6.6,3.9,3.9c2.1-1.4,2.3-5.3,3.9-7.8c3.9-5.3,7.5,0.2,11.4,0.7c7.3,1.1,1.4,6.6,3,9.6
	c0.7,1.1-4.1,1.4-1.6,4.8C39,498.8,38.7,499,31.4,501.8z"/>
<path class="st0" d="M927.5,370c3-1.4-3.4-6.6,2.7-6.9c4.3,0,3.9,2.5,3.7,5.3c0,2.1,0.9,3.4,2.1,5c8.5,10.3,5.5,8.7-0.9,21
	c-7.8,15.1-10.7,3.4-17.6,1.1c-9.1-3-10.5-11-15.6-16.2c-2.5-2.7-2.3-4.3,2.5-5c4.8-0.5,7.1-11.2,14.6-4.3c0.5,0.5,3.7-0.5,1.4-1.8
	c-5-3.2-2.3-4.1,1.1-5.3c5.5-2.1,2.5,2.5,3.2,4.1C925.2,368.4,925.2,370,927.5,370z"/>
<path class="st0" d="M889.3,17.8c-3.7,3.9-3,11.9-11.7,11.7c-8.2-0.2-16.9-8.7-16.9-16.2c0-5.5,5-5.9,7.8-8.7
	c4.3,6.9,14.6-2.5,18.5,6.4C887.7,13,891.6,14.2,889.3,17.8z"/>
<path class="st0" d="M815.2,52.1c7.5,0.5,11.9,6.9,12.3,12.8c0.5,4.1-4.3,11.9-9.8,11.4c-6.6-0.5-16.2-2.5-15.1-12.3
	C803.5,58.1,805.1,50.1,815.2,52.1z"/>
<path class="st0" d="M106.2,364.8c-0.9,7.5,3,14.9-5.3,19c-4.1,2.1,5.7,2.5,0.9,5.7c-3,2.1-5.3,5.9-9.6,3.4
	c-6.2-3.7-3-12.8-1.8-13.5C96.6,376,97.8,368,106.2,364.8z"/>
<path class="st0" d="M511,674c-0.7,1.4,0.9,4.3-1.8,3.7c-1.6-0.5-4.8-0.2-5-3.2c-0.2-3.2,3-2.7,4.6-3.4
	C512.2,669.6,510.3,673.1,511,674z"/>
<path class="st0" d="M186,687.7c2.3-10.5,7.5,2.3,9.1,0c-1.8,0.5-5.5,3-9.4-0.2L186,687.7z"/>
<path class="st0" d="M639.3,31.8c0-3.9,0-7.1,0-10.3C643.2,25.2,643.2,25.2,639.3,31.8z"/>
<path class="st0" d="M961.6,134.5c0.2-2.1,1.8-1.8,3.2-1.8c2.3-0.2,3.9,0.7,3.4,3.2c-0.2,0.9,0.9,3.7-1.6,2.5
	C964.8,137.4,961.6,137.9,961.6,134.5z"/>
<path class="st0" d="M924,258.2c2.5,0,3.4,1.1,3,3.4c-0.2,1.1,0.2,3.4-2.1,2.1c-1.6-1.1-5-0.2-4.6-3.9
	C920.8,258,922.7,258.4,924,258.2z"/>
<path class="st0" d="M897.1,286.6c-2.5,4.8-6.2,4.1-10.5,3.2C889.7,287,892.3,284.5,897.1,286.6z"/>
<path class="st0" d="M503.9,50.3c-2.3,3.7-5.3,4.3-9.1,2.3C496.4,46,500.7,50.5,503.9,50.3z"/>
<path class="st0" d="M289.2,84.6c-0.9,2.3-4.8-0.2-5.5,3.4c-0.2,1.1-1.1-1.1-1.1-1.8c-0.5-2.7,0.5-4.3,3.7-3.9
	C287.6,82.3,288.9,82.6,289.2,84.6z"/>
<path class="st0" d="M771.3,68.4c-2.5,0-4.3,0-3.9-2.5c0-0.7,1.4-1.6,2.1-1.8c2.1,0,3.2,1.6,3.9,3.2
	C773.1,67.5,771.7,68.2,771.3,68.4z"/>
<path class="st0" d="M841.9,64c1.6,0.2,3,0.5,2.7,2.3c-0.2,1.8-1.4,2.5-3,1.8c-1.1-0.5-2.7-1.8-3-3C838.7,63.4,840.8,64.3,841.9,64z
	"/>
<path class="st0" d="M234.3,648.8c-0.2,0.5-1.1,1.8-1.1,1.8c-1.6-0.7-3.2-1.8-3.2-3.9c0-0.7,1.1-2.1,1.8-2.1
	C234.3,644.5,234.3,646.5,234.3,648.8z"/>
</svg>
