<?xml version="1.0" encoding="utf-8"?>
<!-- Generator: Adobe Illustrator 27.0.1, SVG Export Plug-In . SVG Version: 6.00 Build 0)  -->
<svg version="1.1" xmlns="http://www.w3.org/2000/svg" xmlns:xlink="http://www.w3.org/1999/xlink" x="0px" y="0px"
	 viewBox="0 0 6967.1 3137.5" style="enable-background:new 0 0 6967.1 3137.5;" xml:space="preserve">
<style type="text/css">
	.st0{fill:#D4E5C2;}
</style>
<g id="land">
	<path class="st0" d="M1721.1,40.8c0.7,0-0.3-1-0.4-1c-0.7-0.2-1.7,0.6-1.8,1.2C1719.6,41.1,1720.3,40.9,1721.1,40.8z"/>
	<path class="st0" d="M1714.3,42.4c0.4-0.3,0.9-0.3,1.3,0c-0.2,0.6-0.7,0.8-1.2,0.7c0-0.1,0-0.3,0-0.4"/>
	<path class="st0" d="M1710.7,46.8c-0.3,0.6-0.2,1.2-0.3,1.8c-0.1,0.3-0.2,0.6-0.2,0.9c0,0.2,0,0.9-0.1,1.1c-0.6,0.9-1,0.1-0.9-0.6
		c0.1-0.8,0.3-1.3,0.7-2c0.2-0.6,0.1-1.2,0.3-1.9c0.4-1,2.7-1.7,3.6-1.5c-0.4,0.4-1,0.3-1.6,0.7
		C1711.4,45.6,1710.9,46.2,1710.7,46.8z"/>
	<path class="st0" d="M1842.5,47.4c0.6-0.7,0.3-1.5,1.3-1.7c0.8-0.2,1.8-0.2,2.6-0.3c1.3-0.1,0.7,0.1,1.5,1.1c0.4,0.6,1.8,1,2.5,1.3
		c0.8,0.3,0.9,0.6,1.6,1.1c0.6,0.6,0.9,1,2,0.9c0.1,2.4-0.8,3.5-2.5,4.8c-1.1,0.9-2.6,1.1-3.7,2c-0.6,0.4-0.8,0.9-1.5,1
		c-0.9,0.1-1.5-0.6-2.2-0.8c-0.7-0.2-1.1-0.3-1.7-0.7c-0.6-0.3-0.7-0.8-1.5-0.8c0-0.6-0.2-1.1-0.9-1.2c0.9-0.6,0-0.7,0-1
		c-0.1-0.3,0.1-1.2-0.1-1.5c-0.3-0.7-1.2-0.3-1.7-0.8c-0.6-0.7-0.2-1.7-0.1-2.5C1839.7,48.4,1841.2,48.8,1842.5,47.4z"/>
	<path class="st0" d="M1940.8,61.7c1.1-0.7,3.1-2.5,4.6-2.1c0.2,1.2,1.7,0.8,2.5,1.1c0.7,0.3,1.6,1.3,1.8,1.9c0.3,1,0.6,4.8-0.2,5.5
		c-1.1,0.9-4.6,0-6,0.1c-1,0-2,0.3-3,0.3c-0.9,0-2-0.9-2.2,0.2c0,0.1,0.3,1,0.3,1.5c-0.8-0.3-0.1-1.2-0.6-1.7c-0.3-0.3-1.6,0-2.1,0
		s-1.6-0.1-1.8-0.7c-0.4-0.9,0.6-1.3,1.2-1.2c-0.1,0-0.2-1.6-0.2-1.7c0.1-0.9,0.3-1.2,1.2-1.3c0.9-0.1,1.3,0.2,2.2-0.2
		C1939.3,63,1940,62.2,1940.8,61.7z"/>
	<path class="st0" d="M1977,60c2,1,4.2,1.2,6.2,1.9c0.2-0.8,0.4-2.9,0.3-3.8c-0.6,0-1.1,0-1.7,0c-0.6-0.8-1.7-1.8-2.7-1.7
		c0-0.4,0-0.9-0.1-1.3c-0.9-0.1-0.9,0.9-1.3,1.3c-0.7,0.6-1.6,0.6-2.4,0.2c-0.9-0.3-0.7-1-1.5-0.1c-0.6,0.6-0.2,1.6-0.8,2
		c-0.7,0.6-2.1,0.2-2.9,0.2c-0.1,1.8,1.6,1.2,2.5,0.9C1974.3,59,1975.3,59.3,1977,60z"/>
	<path class="st0" d="M1916.6,162.5c1-0.2,1.7-0.9,2.7-1.1c-0.3,0.9-1.3,1.1-1.2,2.2c0.8,0.1,1.3-0.7,2-0.8c0.7-0.1,1.7,0,2.1,0.4
		s0.4,1.2,0.9,1.8c0.3,0.4,0.9,0.9,1.5,1.2c2.1,1.5,1.3-0.9,2.5-2c1-0.9,1.5-0.1,2.2,0.6c0.6,0.4,1.3,0.8,1.6,1.5
		c1.1,0.3,2.2,0.1,3.4,0.6c1.2,0.6,1.6,1,3,1c0.8,1.8,2,2.1,3.5,3.4c0.7,0.7,1.2,1.3,1.9,1.9c0.6,0.4,1.3,0.9,1.8,1.5
		c0.6,0.8,1,4.6-0.8,4.5c-0.8,0-0.3-0.6-0.8-1.1c-0.4-0.6-0.4-0.3-1.1-0.3c-1,0-2.2,0.3-3.1,0.7c-0.3,0.1-1.1,0.3-1.3,0.6
		c-0.6,0.6-0.3,1-0.8,1.5c-0.3,0.3-1,0.1-1.3,0.7c-0.2,0.3-0.1,1.3-0.1,1.8c-1.2,0.3-2.2-0.8-3.5-0.3c-1.2,0.3-2.2,1-2.1-1
		c-1.2-0.3-1.6-0.1-2.1-1.2c-0.4-1-0.9-1.5-1.6-2.2c-0.7-0.8-0.7-1.5-0.9-2.4c-0.2-0.6-1-1.9-0.7-2.6c0.2-0.4,0.7-0.2,0.9-0.6
		c0.4-0.4,0.3-0.6,0.6-1.1c0.3-1.2,0.2-1.8-1.2-1.5c-0.9,0.2-1.5,0.8-2.1,1.3c-0.6,0.3-2.6,0.9-3.1,0.2c0,0,0,0-0.1,0
		c0-0.4,0.2-1.1,0.1-1.5c-0.2-0.6-1.1-0.4-1-1.1c1.5-0.6-2.1-2.7-2.7-3.1c-0.3-0.2-0.7-0.6-1-0.9c-0.1-0.1-0.8-0.7-0.9-0.8
		c-0.2-0.3,0.2-1,0-1.3c-0.7-1-1.2-0.2-1.2-1.9C1913.9,160.6,1914.7,163,1916.6,162.5z"/>
	<path class="st0" d="M1989.2,188.5c0.9-0.7,1.8-0.9,2.1-2c0.2-0.9-0.2-1.9,0.2-2.7c0.3-0.7,1.2-1.5,1.6-2c0.7-1,0.9-1.7,2.1-1.8
		c0.9-0.1,2,0.6,2.7-0.2c0.8-0.9,0.7-4,0.6-5.2c-0.1-0.4-0.7-1.9-0.3-2.4c0.7-0.8,1.6,0.6,1.7-1.1c0.9-0.1,1.3,0.3,2.1,0.6
		c0.6,0.1,1.2,0.1,1.9,0.2c0.1,0,0.9,0.1,0.9,0.1c0.3,0.2,0,0.6,0.2,0.8c0.4,0.4,0.9,0.8,1.6,0.7c0.3-0.8,0.7-1.5,0.6-2.2
		s-1-1.1-1-1.8c0-1,1.2-1.1,1.6-0.4c0.3,0.6,0.1,2,0.1,2.7c0.1,0,0.3,0,0.4,0c0.1,0.9-0.4,1.6-0.3,2.4c0.8,0,1.6-0.1,1.8-0.9
		c0.9,0,1.9,0,2.8,0c0.6,0.7-0.1,1.8,0.7,2.4c0.3,0.2,0.8,0.1,1.1,0.2c0.4,0.1,0.8,0.4,1.1,0.7c0-0.2,0.1-0.6,0-0.9
		c1.1-0.1,3.1-0.3,4,0.3c0.6,0.3,0.6,0.9,1.3,1.2c0.9,0.3,1.5-0.1,2.2,0.7c0.4,0.4,0.6,0.8,1.1,1.1c0.7,0.3,1.5,0.4,2.1,0.8
		c1.8,0.9,1.3,1.8,1.5,3.6c0.8,0,1.8-0.1,2.6,0c0.7,0.1,1.2,0.8,1.8,1c0.9,0.4,1.6,0.2,1.9,1.1c0.2,0.6,0.1,1.6,0.1,2.2
		c1.1,0.6,2.4,0.9,3.5,1.2c1.2,0.3,2.1,0.9,3.4,1.3s2.5,0.1,3.8,0c1.2-0.1,1.7,1.3,2.6,2.1c1,0.8,2.4,1.3,3.3,2.4
		c1,1.2,2.5,2.8,2.7,4.5c0.1,1-0.2,1.9-0.3,2.8c-0.1,1-0.1,2-0.3,2.9c-0.3,1.8,0,3.6-0.7,5.3c-0.7,1.7-0.4,3.9-0.8,5.7
		c-0.1,0.4,0,1-0.1,1.5c-0.1,0.6-0.4,0.8-0.6,1.1c-0.3,0.8,0,1.6-0.2,2.4s-0.7,0.8-1.2,1.3c-0.3,0.4-0.2,0.7-0.3,1.1
		c-0.4,1-1,0.8-1.9,1.3c-0.8,0.4-1.1,1.3-1.8,2c-0.8,0.7-1.3,1.2-2,2.1c-0.2,0.3-0.4,0.6-0.7,0.9c-0.3,0.3-0.8,0.4-1,0.8
		c-0.7,0.7-0.9,1.8-1.5,2.4c-0.7,0.7-1.3,1.2-1.9,1.9c-0.6,0.8-1.9,1.8-2.1,2.6c-0.3,0.9,0.2,1.6-0.6,2.4c-0.7,0.7-1.8,0.8-2.6,0.9
		c-1.5,0.2-2.4,1.7-3.6,2.4c-1.5,0.8-3.1,0.7-4.7,1.2c-0.4,0.1-1,0.2-1.3,0.3c-0.3,0.1-0.8,0.7-1,0.7c-0.9,0.2-1.8-0.4-2.8,0
		c-0.7,0.2-1.5,0.7-2.1,1.1c-0.2-0.4-0.2-1.3-0.8-1.5c-0.7-0.1-0.4,0.6-0.8,0.9c-0.8,0.9-1.1,0.9-2.2,1c-1.1-1.7-3.6-1.2-5.5-1.1
		c-0.2,0.9-1.8,1.5-2.4,1.1c-0.4-0.2-0.6-1-1-1.2c-0.3-0.2-1-0.2-1.5-0.2c-1.2-0.1-2.2-0.2-3.4-0.3c-1.3-0.2-2.6-0.8-3.9-0.9
		c-1-0.1-2-0.1-3-0.2c-1.3-0.2-1.7-0.7-2.4-1.8c-0.6-0.9-0.3-1.9-0.8-2.9c-0.4-1.2-1.7-1.5-1.9-2.8c-0.2-1.1,0.1-1.8-0.9-2.6
		c-1-0.9-1.5-0.7-2.4,0.1c-0.1-2,0-4.2,0-6.2c0-0.9,0.1-2-0.1-2.8c-0.2-0.9-0.8-1.7-1-2.6c-0.3-0.9-0.6-2-0.9-2.8
		c-0.6-1.2-1.1-1.1-2.2-1.5c-1.1-0.3-1.5-0.6-1.6-1.8c-0.1-1.2,0.2-2.7-0.2-3.8c-0.3-0.9-0.8-2-1.1-2.9c-0.3-0.8-0.9-1.2-1-2
		c-0.3-1.7,0.7-3.5,0-5.2c-0.2-0.7-0.9-1.1-1-1.9c-0.1-0.9,0-1.9,0-2.8c0-1,0.2-1.3,0.4-2.1c0.1-0.6,0.3-1.7-0.2-2
		c0.6-0.1,1.2,0.2,1.8,0.1c0.4-0.1,0.8-1,1.1-1.2c2.2-1.3,4.4,0.4,6.5,0.1C1986.9,191.9,1987.8,189.6,1989.2,188.5z"/>
	<path class="st0" d="M2102.1,77c0.4,1.5,1,3.1,0.7,5.1c-0.7,4.6-4.3,2.9-7.9,3.1c-0.2-0.6-0.3-1.3-0.2-1.9c2.1-0.4,0.8-4.3,1.3-6
		c0.3-1.1,1.7-2.1,2.4-3.1c0.9-1.3,1.1-2.6,3.3-2C2101.6,72.2,2101.9,76.7,2102.1,77z"/>
	<path class="st0" d="M2140.1,66.2c0,0.1,0.9,0.7,1,1c0.2,0.6,0,1.5,0,2c0,1.2,0.2,2.7,0,3.9c-0.2,1.2-1,1.7-1.6,2.7s-0.3,2.1-1.1,3
		s-2.4,0.6-3.1,1.3c1.3,1,1.5,1.9,1.3,3.7c0,0.6,0.2,1.5-0.3,1.8c-0.8,0.4-1.6-0.2-1.7-1c-1.9-0.1-2.5,3.9-2.9,5.2
		c-1,2.8-3.3,4.5-4.7,7c-1,1.8-5.1,4.7-4.9,6.7c0.7,0,1.3,0,2,0.1c0.2,1.3-0.4,2-0.8,3.1c-0.3,1-0.2,2.1-0.2,3.3
		c0,2.2,1.5,3.7,1.7,6c0.2,2.2-0.1,4.6,0.1,7c0.2,2,1.5,4.2,1.1,6.2c-0.2,1.7-1.2,4.2-2,5.6c-2.4,4.2-4.5,8.5-6.6,12.7
		c-1.3,2.5-2.6,5.1-3.8,7.5c-1.3,2.7-1.2,4.7-4.3,6.2c-0.8,0.3-2,0.7-2.6,1.3c-0.7,0.8-0.3,1.9-0.7,2.7c-0.4,0.8-1.1,1-1.6,1.9
		c-0.2,0.7-0.1,2.4-0.4,2.7c-1.1,1.1-3.8-1.6-5.5-1.2c-0.4,0.6-0.6,1.5-0.3,2.1c0.2,1.2,0.7,2.1,0.7,3.5c0.1,1.7,0.2,3.3,0.8,4.8
		c0.7,1.8,2.1,3.4,2.5,5.3c0.4,2.6,0,5.8-0.3,8.3s-1.7,4.8-1.6,7.5c0.1,1.9,1,2,1.8,3.5c0.7,1.2,0.2,2.6,1.1,3.6
		c0.7,0.8,2.2,1.6,3.3,1.3c1.2-0.3,1.5-1.7,2-2.7c1.9-2.9,18-13,19.2-5.2c0.6-0.9,1.7-1.5,2.6-1.1c-1.2-1.2-0.8-3.7-0.8-5.5
		c0-2.9,1.2-2.5,3.6-3.4c-1.5-2-2.8-2.5-2.8-5.3c0-2.5,0-4.4,2.6-5.2c0.2-0.7,0.3-1.5,0.2-2.1c-0.8-0.2-1.1-0.9-0.9-1.7
		c0.4-0.1,0.7-0.4,1-0.6c-1.3-0.4-3.6-1.2-4.7-2c0,1-1,1.2-1.9,1c-0.2-1.2,0.9-1,1.1-1.8c0.3-1-0.4-0.8-0.6-1.6
		c-0.1-2.4,1.8-1.7,3.6-1.7c0.6-2.1-1.9-4.3-1.5-6.6c0.2-1.2,1.1-1.3,2-2c0.6-0.4,0.4,0.2,0.9-0.7c0.3-0.6,0.1-1.6,0.3-2.1
		c0.3-1.2,1.2-1.5,1.6-2.7c0.7-2.5-0.1-4,2.2-6c1.2-1,1.7-1,1.9-2.7c0.1-1.1-0.1-2.1,0.3-3.1c1.1-2.7,2.6-1,4.5-1.8
		c0.9-0.3,0.8-1,1.6-1.7c0.8-0.6,1.9-0.6,2.8-0.8c0-0.4-0.7-1.2-0.6-1.3c0.1-1,0.4-0.7,1-1.3c0.3-0.4,0.6-0.2,0.9-0.9
		c0.2-0.4,0-1.2,0-1.7c0-1.5-0.3-1.7-0.8-2.7c-0.3-0.7-0.9-1.7-0.3-2.6c0.3-0.6,1.8-1,2.4-1.5c0.8-0.7,1.7-1.2,2.4-1.9
		c1.1-1,0.9-1.1,1-2.5c0-1-0.2-2,1-2.2c0.3-1.9,1.6-10.8-1.7-10c-0.3-2.4,1.2-8.2,3.5-9.3c0.3-1.3,0.2-2.7,0.7-3.9
		c0.8-1.9,2.7-1.9,3.1-3.8c0.4-1.9-0.6-3.9-0.6-5.8c0-3,0-6,0-9c0-1.6,0.1-3.3,0-4.8c0-1.2-0.6-3,0-4.3c0.4-1.1,1.3-1.5,1.7-2.7
		c0.2-0.9,0.6-3.4,0.2-4.3c-0.1-0.1,0-0.6,0-0.7c-3.5,0.1-2.4-3.3-2.5-5.8c-0.8,0-1.6,0-2.4-0.1c-0.1-2.7,0-5.5-0.2-8.1
		c0-0.6-2.6-0.1-2.9,0.1c-0.8,0.6-0.8,1.5-1.1,2.2c-0.3,0.8-1.1,1.2-1.7,1.9c-0.3,0.3-0.2,0.7-1,0.6c-0.1-0.3,0.1-1.2-0.2-1.5
		c-0.4-0.3-0.9,0.2-1.1,0.6c-0.3,0.7-0.2,1.8-0.2,2.6c0,1.2-0.4,1.5-1.2,2.2c-0.9,0.8-0.7,1.7-0.9,2.7c-0.3,1.1-1.5,2.1-2.4,2.9
		C2142.4,63.9,2139.9,64.9,2140.1,66.2z"/>
	<path class="st0" d="M2132.5,174.4c-0.7,1-2-1.1-1.9-1.8C2130.8,170.6,2133.1,173.4,2132.5,174.4z"/>
	<path class="st0" d="M1857.6,329.3c0.7,0.9,1.2,0.7,2.2,1.2c1.1,0.8,0.7,1.2,0.8,2.2c0,0.9,0.6,1.7,0.2,2.7
		c-0.6,1.8-3.5,1.8-5.1,1.3c-0.8-0.2-0.8-0.8-1.5-1.1c-0.4-0.3-1-0.1-1.6-0.3c-0.8-0.2-0.8-0.6-1.3-1.1c-0.3-0.4-1-0.6-1.3-0.9
		c-1-1,0.1-2.2-0.4-3.4c-0.2-0.4-0.8-0.2-1.1-0.7c-0.2-0.3-0.2-1.1-0.2-1.6c1.2-0.1,0.8-1.3,1-2.1c1.5-0.7,2.9-1.7,2.6-3.6
		c-0.2-1.1-1.7-4.2,1-3.6c-0.6-0.1,0.8,2.5,0.8,2.6c0.3,0.9,0.3,1.8,0.8,2.7C1855.3,325.6,1856.5,327.6,1857.6,329.3z"/>
	<path class="st0" d="M1842.5,361.9c1.3,0.3,2.4,0.9,3.6,1.5c0.1,0.8-0.3,1.3-0.2,2c0.2,0,0.4,0.1,0.7,0.1c0.7,2.7-1.6,5.6,1.2,7.8
		c2.2,1.7,5.2,3.6,4.9,6.6c-0.4-0.1-0.9-0.2-1.3-0.2c-0.2,0.9-0.9,1.1-1.7,1.1c-1.2-0.1-0.8-0.8-1.6-1.2c-1.2-0.7-4.2,0-5.2,0.4
		c-1.7,0.7-2.7,1.1-4.2-0.1c-1.1-1-1.8-2.4-2.6-3.6c-0.4-0.7-0.6-0.7-0.7-1.5c-0.1-0.7,0.2-1.5-0.3-2c-0.7-0.7-1.1,0.2-1.6,0.1
		c-0.8,0-1-0.6-1.6-1.2c-1-1.1-0.8-1.8-0.9-3.4c-0.4,0-0.6-0.2-0.8-0.6c0.2-0.1,0.2-0.2,0.6-0.2c0-0.1,0-0.3,0-0.4
		c-1.1-0.4-0.4-2.2,0-2.9c0.3-0.4,0.7-0.6,0.9-1.2c0.2-0.6-0.1-1.1,0.2-1.7c0.9-1.6,2.5-1.7,4.2-1.7c1,0,2.7-0.3,3.5,0.3
		c0.4,0.4,0.3,1,0.8,1.5C1840.8,361.9,1841.8,361.8,1842.5,361.9z"/>
	<path class="st0" d="M1803.9,433.4c-0.1,1.1,0,2.4,0,3.5c0,1.2-0.1,5.3-1.2,5.7c0.2,1-1.2,1.1-1.8,1.5c-1,0.4-1.7,0.8-2.5,1.7
		c-0.6,0.7-1.3,1.1-1.6,2c-0.3,1,0.1,1.9-0.8,2.7c-0.6,0.6-1.9,1-2.7,0.7c-1.3-0.4-0.6-1.5-0.8-2.6c-0.2-0.9-1-1.2-1.3-2.2
		c-0.3-0.9-0.7-1.9-0.8-2.8c0-0.2,0.1-0.6,0-0.9c0-0.1-0.4-0.6-0.4-0.6c-0.1-1,0.2-0.6,0.4-1.3c0.4-1.8-0.8-1.9-1.1-3
		c-0.1-0.7,0.3-1,0.2-1.7c-0.1-0.6-0.7-0.7-0.7-1.2c0-0.9,1.7-1.8,2.4-2.2c0-0.1,0-0.2,0-0.3c2.6-0.1,3.1-0.9,4.9-2.6
		c1.5-1.3,3.3-1.2,5.1-0.3c-0.3-0.1,2.2-1.7,3-1.3C1806.2,428.7,1804,432.1,1803.9,433.4z"/>
	<path class="st0" d="M1748.6,426.4c-0.1-0.4-0.3-0.9-0.6-1.3c-1.5-0.2-2-1.7-1.8-2.9c0.2-1.8,1.5-2.6,3.1-2.4
		C1749.6,421,1750.5,426.3,1748.6,426.4z"/>
	<path class="st0" d="M1753.1,355c0.9-0.1,0.7-0.8,0.7-1.7c0-0.7,0.1-1.6,0-2.2c-0.2-1.2-2-1.9-3.1-2.4c-0.6-0.2-1.6-0.6-2.1-0.3
		c-0.8,0.2-0.8,0.8-0.8,1.7c0,1.2-0.2,3.6,0.8,4.5C1749.4,355.4,1752.1,355.3,1753.1,355z"/>
	<path class="st0" d="M1772.6,358c-0.9-0.1-1.3,0.4-1.5,1.2c0,0.2,0.4,2.1,0.9,1.6c0.6-0.8,0.4-1.7,0.7-2.6"/>
	<path class="st0" d="M1770.2,497.9c0.6,1.2,1,2.2,0.9,3.6c-0.9,0.7-1.8,0.9-3,0.8c-1.3-0.2-2.4,0-3.7,0c-0.3-1.1-0.1-2.5-0.1-3.6
		c-1.6-0.1-2.9-1.3-2.4-2.8c0.2-0.4,0.6-1.7,1-2c0.6-0.7,1.2-0.4,1.2-1.6c0-0.6,3.7,1,4,1.2C1769.9,494.1,1769.4,496.3,1770.2,497.9
		z"/>
	<path class="st0" d="M1697.1,574c-0.2,0.1-0.9,0.4-1,0.3c-0.7-0.3-0.2-1.6,0.2-1.9C1697.3,571.8,1697.8,573.5,1697.1,574z"/>
	<path class="st0" d="M1699.5,573.6c-0.1-0.1,0.9-0.7,0.7-1.1C1700,572.7,1699.4,573.4,1699.5,573.6z"/>
	<path class="st0" d="M1690,575.6c-0.4-0.3-0.8-1.1-0.3-1.6c0.4-0.6,2.7-1,3.1-0.3c0.3,0.4-0.3,1.5-0.7,1.9
		C1691.6,576.5,1690.8,576.3,1690,575.6z"/>
	<path class="st0" d="M1659.6,595.6c0.4-0.2,1.3,0,1.8,0c1,0.1,1.6,1.2,1.5,2.2c-0.1,0.7-0.4,1-0.7,1.6c-0.2,0.4-0.2,0.9-0.2,1.5
		s0,1.1,0,1.7c0,0.7,0.3,1,0.4,1.7c0.1,0.3,0.3,1,0.2,1.3c-0.2,0.4-0.7,0.7-1,0.3c-0.3-0.3-0.3-0.9-0.8-1.2
		c-0.3-0.3-0.9-0.6-1.3-0.8c-0.9-0.6-1.9-0.7-2.8-1.3c-0.4-0.4-0.7-0.8-0.9-1.5c-0.3-0.8-1-1.2-1.3-1.9c-0.3-0.4-1.1-1.6-0.9-2.1
		c0.2-0.4,1-0.7,1.5-0.8c0.6-0.1,1-0.4,1.6-0.6c0.7-0.1,1.1,0.4,1.7,0.4C1659,596.4,1659.1,595.8,1659.6,595.6z"/>
	<path class="st0" d="M1609.2,704.1c0,0.2-1.3-0.1-1.5-0.2c-0.3-0.3-0.6-1.1-0.7-1.6c0-0.6,0.8-1.7,1.5-1.1c0.3,0.2,0,0.7,0.1,1.1
		C1608.7,702.9,1609.2,703.5,1609.2,704.1z"/>
	<path class="st0" d="M1606.9,711.1c1.2,0.3,1.5,1.6,1.5,2.7c0,1.5,0,2.4-1.7,1.8c-1-0.3-2-1.1-3-1.3c0,0.2-0.2,0.4-0.2,0.7
		c-1.7,0.6-2.9-1.1-2.8-2.7c0.7,0.2,1.6,0.7,2.4,0.9c0.9,0.1,1.2-0.3,1.9-0.9C1605.6,711.9,1605.9,710.9,1606.9,711.1z"/>
	<path class="st0" d="M1873.3,850.8c1.8-2.6,3.8-3.6,6.2-5.4c0.9-0.7,1.7-2.6,2.6-2.9c1.1-0.6,3.4,0.4,4.2,1.1
		c2.2,1.6,2.1,5.4,0.6,7.2c-0.9,1-2.2,1.9-3.1,3.3c-0.6,0.9-0.3,1.2-1.2,1.9c-0.8,0.4-1.7,0.3-2.5,0c-0.2,0.9-0.6,1.1-0.6,1.9
		c1.5,0.3-0.9,2.2-1.2,3.4c-0.6,1.6-0.7,2.7-1.6,4c-1.8,2.5-3.8,5.3-5.4,8c-1.2,0.2-2.6,1.3-3.8,1.8c-1.3,0.4-2.7,0.8-4.2,0.8
		c-1.9,0-2.2-0.4-2.9-2c-0.4-1.1-1.2-2.1-1.7-3.3c-5.6,1.6-3.4-5.6-3.1-9c0-0.6,3.5-1.7,4-1.8c1.3-0.3,2.7,0,4-0.3
		c1.7-0.4,2-1.6,3.3-2.6C1868.9,854.8,1871.5,853.3,1873.3,850.8z"/>
	<path class="st0" d="M1717.2,846.4c0.1-0.1,0.3-0.1,0.7,0c0.1-0.7-0.6-1.2-0.9-1.8c-0.4-0.8-0.2-1.3-0.4-2.2
		c-0.1-0.7-0.9-1-1.3-1.5c-0.6-0.6-0.4-1.3-1.2-1.8c0-0.1,0-0.1,0-0.2c0.7-0.2,1.8,0,2.2,0.4c0.4,0.4,0.4,0.6,1.1,0.3
		c0.4-0.1,0.6-0.3,0.9-0.6c0.7-0.6,1.5-0.1,2.4-0.4c0.8-0.3,1.6-0.8,2.4-0.2c0.8,0.4,1.2,1.2,1.8,2c0.6,0,0.7-0.1,1.1-0.2
		c0.7-0.2,0.3,0.2,0.9,0.4c0.4,0.2,0.8-0.3,1.2,0.1c0.3,0.3,0.3,1,0.3,1.5c0-1,1.2-1.2,0.9-2.6c-0.1-0.4-0.4-0.7-0.4-1.1
		s0.4-0.9,0.6-1.2c0.2-0.4,0.4-0.8,0.6-1.3c0.1-0.4,0.1-1,0.2-1.6s0.4-1,0.4-1.6c0-0.4-0.1-1.3,0.1-1.7c0.6-0.9,2.2-0.8,3-0.4
		c0.6,0.2,1,0.4,1,1c0.1,0.8-0.7,1.1-0.9,1.8c-0.1,0.2-0.1,0.4,0,0.7c0.1,0.1,0.7,0.2,0.7,0.2c0,0.2-0.6,1.6-0.6,1.6
		c0.9,0,0.9-1,1.3-1.3c0.6-0.4,1.1,0.3,1.8,0.2c0.2-0.7,0.9-1,1.2-1.7c0.2-0.3,0.3-0.7,0.4-1s0.1-0.8,0.3-1.1
		c0.9-1.2,1.2-0.2,1.8,0.4c0.2,0.3,0.4,0.4,0.6,0.9c0.1,0.6-0.1,1.5,0.1,1.9c0.1,0.2,1.1,0.4,1.1,0.3c0.1,0.2,0,0.6-0.2,0.8
		c-0.7,0.1-0.8,0.1-1,0.8c-0.1,0.9-0.1,1.9-0.1,2.8c0,0.4-0.1,2,0.3,2.2c0.4,0.3,0.6-0.4,0.7-0.8c0.2-0.9,0.8-1.8,1.1-2.7
		c0.3-0.8,1.8-2.7-0.1-2.6c0-0.1,0-0.3,0-0.6c0.8-0.1,1.6,0.1,2.4,0.3c0.8,0.2,1.2-0.2,2-0.3c1.1-0.1,1.3,0.6,1.2,1.7
		c0-1.1-0.2-1.8-1.1-2.5c-0.4-0.3-1.1-0.4-1.6-0.8c-0.6-0.4-0.6-0.9-0.6-1.7c0-1,0.3-2,0.3-3c0-0.7,0-1,0.3-1.5s0.9-0.6,0.9-1.2
		c0.1-0.4-0.1-0.9-0.1-1.3c0-0.8-0.1-1.5,0.2-2.1s0.6-1.3,1-1.9c0.1-0.2,0.3-0.7,0.7-0.7c0.2,0,0.3,0.4,0.8,0.3
		c0.6-0.1,0.9-0.7,1.5-0.9c0.4-0.2,1-0.2,0.8-0.9c-0.1-0.3-0.7-0.8-0.1-1.2c0.2-0.1,0.4,0,0.7-0.1c0.2-0.2,0.1-0.3,0.2-0.6
		c0.1-0.3,0.2-0.3,0.3-0.6c0,0,0.2-0.1,0.3-0.2s0.1-0.4,0.3-0.7c0.4-0.3,1.2,0.3,1.7,0.7c0.4,0.3,0.8,0.8,1.1,1.2
		c0.6,0.6,0.8,1,1.1,1.7c0.2,0.6,0.6,1.1,1.2,0.6c0.4-0.3,0.1-1,0.1-1.6s0.1-1.2,0.4-1.7c0.7,0.3,0.6,0.9,1.2,0.4
		c0.4-0.2,0.6-0.2,0.8-0.7c0.3-0.9,0.4-1.9,1.1-2.6c0.4-0.4,0.9-0.7,1.5-0.7c0.4,0,0.8,0,1.1,0.2c0.2,0.2,0.3,0.6,0.7,0.7
		c0.6,0.1,0.4-0.9,0.7-1.2c0.2-0.6,0.7-0.8,1.1-1.1c1.2-0.8,3.1,0.2,4.3-0.7c0.4-0.3,0.6-0.9,1.3-0.7c0.7,0.2,1.1,0.3,1.9,0.3
		c0.1,0.6-0.6,0.7-0.7,1.2c-0.1,0.4,0,1.2,0.6,1.3c0.2,1.1-1.2,0.9-1.7,1.6c0.3,0.2,0.2,1-0.1,1.3c-1-1-1.3,0.4-1.7,1.3
		c-0.3,1-0.4,1.7-0.3,2.7s0.4,2.5-0.2,3.3c-0.3,0.3-0.7,0.6-1.2,0.7c-0.6,0.1-1.2-0.1-1.1,0.7c0,0.4,0.6,0.9,0.3,1.5
		c-0.2,0.6-1.1,0.2-1.3,0.8c-0.1,0.3,0.1,1,0,1.3c-0.2,0.6-0.4,0.7-0.4,1.3c0.4,0.1,0.9,0,1.3,0c0,0.6-0.2,0.9,0.4,1
		s0.7-0.1,0.8-0.6s0-0.9,0.1-1.3c0-0.3,0.2-0.8,0.2-1.1c0-0.4-0.1-1.1,0-1.5c0.2-0.6,0.6-0.4,0.9-0.8c0.8-0.6,0.7-1.6,2-1.3
		c-0.1,0.4-0.3,1.3,0.6,1c0.3-0.1,0.7-1,0.8-1.3c0.3-1.3-1-2.4-0.8-3.6c0.2,0,0.6,0.1,0.8,0c0.2-0.1,0.1-0.3,0.3-0.4
		c0.3-0.2,0.7-0.4,1.1-0.4c0.1,0.3,0.2,0.7,0.4,1c0.2,0.2,0.6,0.4,0.8,0.8c0.2,0.4,0.1,2,0.1,2.6c0,0.4-0.2,0.7-0.4,1.1
		c-0.2,0.2-0.2,0.7-0.4,0.9c-0.3,0.3-1,0.3-1.3,0.7c-0.2,0.2-0.2,0.6-0.2,1c0,0.6-0.1,1.2,0,1.8c0.1,0.4,0.6,0.9,1,1.2
		c0.8,0.7,2.5,0.6,3.5,0.3c1.3-0.2,1.5-1.2,1.5-2.5c0-0.8,0.1-1.5,0.1-2.2c0-0.8,0.2-1.1,1.2-1c0.3,0.6-0.1,1.3,0.2,1.8
		c0.2,0.2,0.8,0.1,0.9,0.3c0.1,0.2,0,0.9,0.1,1.2c0.6-0.2,0.8-0.3,1.1-0.9c0.4-0.8,1.1-2.4,0.3-3.3c-0.6-0.6-0.8-0.6-0.9-1.5
		c0-0.6,0-1.1-0.3-1.7c-0.4-0.7-0.8-0.9-0.7-1.7c0.1-0.6,0.6-0.9,0.4-1.6c-0.1-0.6-0.4-0.8-0.6-1.3c0-0.6,0.1-1.1,0.1-1.7
		s-0.4-0.9-0.3-1.3c0.3,0,1.1-0.1,1.5,0.2c0.3,0.2,0.2,0.9,0.3,1.3c0,0.7,0.2,0.8,0.8,1.1c0.6,0.4,0.4,0.6,0.4,1.2s0,1.1,0.2,1.6
		c0.2,0.6,0.4,0.7,0.4,1.3c0,0.6-0.1,1,0.3,1.3c0.4,0.4,0.7,0.3,0.7,1.1c0.3,0.1,1,0.7,1.5,0.3c0.3-0.2,0.1-0.8,0.6-1
		c0-0.4-0.6-1-0.8-1.5s-0.3-0.8-0.3-1.2c0-0.3-0.1-0.9,0-1.2c0.1-0.3,0.6-0.2,0.8-0.4c0.3-0.2,0.7-0.9,0.4-1.3
		c-0.1-0.3-0.4-0.3-0.6-0.7c-0.1-0.2,0-0.6,0-0.7c0.1-1.3,0.2-2.2-0.8-3.3c-0.4-0.4-0.9-0.9-1.5-1.3c-0.4-0.3-1.1-0.7-1.6-1.1
		c-0.6-0.8-0.2-2-0.8-2.9c-0.6-0.9-1.6-1.3-2-2.4c-0.3-0.7-0.4-1.2-0.3-2c0.6,0,1-0.1,1.5,0.2c0.6,0.3,1,0.9,1.7,1.1
		c0.8,0.2,0.6-0.2,0.6-1c0-0.6,0-0.9,0.6-1.1c0.8-0.3,0.4-0.1,0.8-1c0.1-0.4,0.4-0.4,0.8-0.8c0.3-0.4,0.3-1.3,0.6-1.9
		c0.1-0.4,0.4-1,0.7-1.5c0.4-1.1,1-1.9,2.4-2c0.6,0,1.2,0.1,1.8-0.2c0.7-0.3,0.9-1.2,1.2-0.2c0.6,1.1,0.4,2.5,0.6,3.8
		c0,0.6,0,1.2-0.1,1.8c-0.1,0.4-0.4,1-0.4,1.5c-0.1,0.6,0,1.2,0.2,1.7c0.2,0.8,0.9,0.9,1.2,1.6c0.2,0.6,0,1.1,0.1,1.7
		s0.4,0.9,0.6,1.3c0.2,0.6-0.1,1.3,0.3,1.8c0.4,0.3,1,0,1.3,0.8c0.1,0.4,0,0.9,0.3,1.1c0.3,0.3,0.9,0.3,1.3,0.4
		c0.9,0.1,1.6,0.3,1.8,1.3c0.3,1.2-0.6,3.1,1.2,3.5c0.4,2.2-2.8,3-2.4,4.8c1.8,1.3-0.3,9.2-2.4,8.5c-0.3-1.1-0.1-2.1,0.2-3.1
		c-0.9,2.7-1.7,3.4-4,4.5c-2.1,1-4.3,2.1-6.7,2.4c-0.1,1.2,0.3,2.8-0.8,3.6c-1.1,0.8-2.6-0.1-3-1.2c-3,0.1-5.1-1.9-8-1.1
		c-1,0.2-2.7,0.6-3.3,1.5c-0.7,1-0.4,2.5-1.5,3.7c-1,1.2-2.4,1.5-2.8,3c-0.3,1.3,0,2.8-0.7,4c-0.8,1.3-2,1-3,1.9
		c-1,1-1.7,3.3-2.4,4.6c-0.9,1.8-1.6,3.9-3.5,5.1c-1.5,0.9-7.5-0.1-8,2c-0.4,1.8,5.5,2.5,3.1,6c-1.2,1.8-6.2,1.7-8.2,2.4
		c-1.6,0.6-3.1,1.3-4.6,1.8c-1.6,0.4-2.8,1.8-4.4,2.1c-0.2-0.6-1.3-1.9-1.9-2.1c-0.7-0.2-1,0.4-1.7,0.4c-0.1-0.4,0.1-0.9-0.3-1.1
		c-0.3-0.1-1.1,0-1.5,0c-0.9,0.2-1.5,0.9-2.4,0.9c-0.3,0-0.9-0.1-1.1,0.2c-0.2,0.2-0.4,1-0.3,1.3s0.8,0.6,1.2,0.4
		c0.6-0.1,0.6-0.6,0.8-1c0.9-0.1,0.8,0.8,0.7,1.5c-0.1,0.8-0.3,1.5-0.3,2.2c0,0.6,0,0.8,0.2,1.2c0.3,0.6,1,0.7,1.2,1.3
		c0.1,0.6,0.2,1.5,0.2,2c0.1,1.3-1.5,0.9-2.4,1.5c-0.4,0.2-0.9,0.8-1.3,1.2c-1,1-1.6,2-1.5,3.7c-0.9,0.6-1.8-0.3-2.7-0.6
		c-1.1-0.2-2.5,0-3.6,0c-2.5,0-1.9-0.4-2.1-2.2c-0.6-3.1-1.6,0.4-0.9,1.8c1.1,2.5,4,2.2,5.7,3.1c0.7,0.3,1.5,0.8,2,1.1
		c1.2,0.7,2.1,3.3,3.4,2.1c0-0.4,0.2-0.8,0.2-1.2c1.7-0.7,3.5,1.3,4.6,2.5c1.3,1.3,2.7,3.5,1.8,5.6c-1.2,0.2-1.8-1.2-2.8-1.5
		c-0.8-0.1-2.7,3.6-3,4.3c-0.6,1.5-1,2.9-2.6,1.1c-0.6,0.2-1,0.4-1.2,1c-1.2-1.6-0.7-2.2-3-1c-0.1,0.6-0.2,1.8-0.7,2.2
		c-0.7,0.7-1.7-0.4-2.1,1c-1.2-0.3-1.3-1.6-2.9-1.7c-2.5-0.1-1,1-0.3,1.8c0.9,1.2,1.5,5.6-0.6,5.8c1.3,0.9,0.3,4.2-0.6,5.1
		c-1-1.1-1.1-1.8-2.9-2.2c-1.1-0.2-2.6,0.1-2.6-1.5c-0.4-0.1-0.4-0.4-0.9-0.6c-0.8-0.3-0.7,0-1.5,0c-0.6,0-2,0.1-2.7,0.3
		c0.2-2.2-0.8-2.9-2.9-3.1c-1.7-0.2-0.7,0-1.9,0.9c-0.8,0.7-1.5,0.9-2.5,0.9c1.5,0.2,3.7,1.8,4.5,3.1c0.6,0.8,0.2,1.9,0.9,2.6
		c0.9,0.9,1.9,0.3,2.5-0.3c-0.2,2.2,1,4.8,1.1,7.3c3.5,1.5,2.2,4.4,3.1,7.2c-1.1-1.7-1.7-0.9-3.5-1.1c0.1-0.3-0.2-1-0.1-1.5
		c-2.7,0.6-0.6-3.4-1.9-4c0.7,0,1.5,0,2.1,0c0.7-2.4-2.7-1-3.1-3.3c0,0.7-0.1,1.2-0.2,1.8c-2.2,0.4-3,0.6-2.8-2.1
		c-0.3,0.9-1.2,1.1-2.1,1.2c0.1,0.7,0,1.3-0.7,1.6c-1,0.4-1-0.4-1.6-0.7c-0.1-0.1-0.2-0.6-0.6-0.7c-0.4-0.2-1,0.1-1.5,0
		c-1.3-0.6-0.4-0.2-1.1-1.2c-0.8-1.5-1-1.8-2.8-2.6c-1.2-0.6-2.5-0.7-3.8-0.9c-0.3-0.8-0.1-1.6-0.3-2.4c0.3,0,0.7-0.3,1-0.3
		c0.4-2.2-4.8-3,0-3.1c0.1-0.8-0.1-1.6-0.9-1.7c-0.1-2.1-0.1-2.7-2.6-2.6c-0.4-1.7,1-1.5,1.2-2.5c0.1-0.7-0.7-2.5-1.1-2.9
		c-0.6,0.9-0.3,2.1-0.8,3.1c-0.4,0.9-1.6,1.5-1.5,2.5c-2.5,0-3.5-1.8-3-3.8c0.3-1.5,0.9-1.9,1.6-2.7c0.2-0.3,0.6-0.3,0.9-0.9
		c0.2-0.3,0-1.2,0-1.6c1.2-0.4,7.3-2.9,4.9-4.7c-1.3-1-3.5,0.7-4.4,1.5c-1.1,0.9-1.8,1.5-3.5,0.4c0.8-1.1,2.4-1.5,3.3-2.7
		c1.3-1.9,0-2.6-1.9-2c0-0.1,0-0.2-0.1-0.3c-0.7,0.1-1.6,0.8-1.8,1.1c0-0.4,0-0.9,0-1.3c-0.2,0.3-0.4,0.7-0.6,1.2
		c-0.1,0.1-0.6,0.4-0.7,0.6c0-0.3-0.2-0.7-0.2-1.1c-0.9,0.9-0.6,3.1-0.9,4.2c-0.2,0.7-1.2,0.6-0.6,1.7c0.4,0.7,1.7,0.2,1.9,1
		c0.4,1.2-2.2,2-3.1,1.6c-1.6-0.8-1-3.3-1-4.6c-1.5-0.3-2.7-0.9-4.2-1.1c-1.8-0.3-1.6-0.7-2.7-1.9c-1,0.4-0.9,1.7-1.5,2
		c-0.7,0.3-2-0.2-2.5-0.6c-1-0.6-3.4-2.9-4.3-0.6c-0.1,0.3-1.6-0.4-1.7-0.6c-0.4-0.4-0.7-1.1-0.9-1.8c-0.3-1.5,0.1-3.1-1.6-3.9
		c-0.4-0.2-1.5-0.4-1.9-0.1c-0.3,0.2-0.3,1.3-0.1,1.6c-0.6,0.6-1.5-0.1-1.9-0.2c-0.3-0.1-0.7,0.2-0.9,0c-0.3-0.2-0.2-0.6-0.3-0.9
		c-0.1-0.4,0.1-1.6-0.4-1.8c-0.4-0.2-1.3,0.2-1.9,0c0-1,0.1-1-0.9-1.3c-0.8-0.2-1.3-0.7-1-1.6c2.1-0.1,4.5,0,6.6,0.1
		c0.7,0,1.5,0.1,1.7-0.6c0.2-0.6,0.1-1.2,0.4-1.7c0.6-0.7,1.3-0.4,2-0.7c0.3-0.1,1-0.9,0.3-1c0-0.2,0-0.4,0-0.7
		c0.6,0,1.5,0.2,1.9-0.2c0.1,1.3-0.4,2.4,1.3,2.5c0.9,0,2.4,0.1,2.9,0.8c0.3,0.3,0.3,0.9,0.6,1.2c0.2,0.4,0.6,0.7,1,0.9
		c0.9,0.4,2,0.4,2.7-0.4c0.7-0.9,0.1-2.9,0.1-4c0.8,0,1.5-0.2,2-0.8c0.7-0.6,0.7-0.9,1.7-0.8c0.7,0.1,1.7,0.2,2,1
		c0.2,0.6,0,1.3,0,1.9c0.9,0.1,0.7-0.6,1.3-0.7c0.6-0.1,1.1,0.3,1.3,0.8c0.3,0.6-0.1,0.9-0.2,1.3c-0.1,0.8,0.2,1.6,0.9,1.9
		c0.4,0.2,1.1,0.3,1-0.4c-0.1-0.2-0.4-0.2-0.3-0.7c0.1-0.3,0.4-0.2,0.6-0.7c0.1-0.6,0-1.2,0.7-1.6s1.6,0.2,1.9,0.8
		c0.3-0.3,0.3-0.4,0.6-0.9c0.1-0.3-0.1-0.3,0.2-0.6c0.4-0.2,1,0.2,1.2,0.6c0.1,0.3,0.1,1,0.8,0.8c0.4-0.2,0.6-0.9,0.6-1.3
		c0-0.7-0.1-1.2,0.2-1.8c0.2-0.4,0.4-0.9,0.8-1.2c0.7-0.9,2-0.6,3-0.3c0.6,0.1,1.1,0.3,1.7,0.6c0.1-0.4,0-0.9-0.1-1.3
		c-0.1-0.2-0.1-0.3-0.2-0.6c0-0.2,0.1-0.6,0-0.8c-0.6-0.7-2.7-0.3-3.4-0.3c-0.6,0-1.1,0-1.8,0c-0.8,0-1-0.3-1.6-0.7
		c-0.3-0.2-0.9-0.6-1.2-0.3c-0.4,0.2-0.2,0.9-0.2,1.5c0.1,0.8,0.7,1.5,0.3,2.4c-0.2,0.7-0.4,0.4-1,0.3s-0.9,0-1.3,0.1
		s-1.3,0.1-1.7-0.3c-0.4-0.4,0.2-0.9-0.6-1.1c-0.8-0.2-1,0.1-1.2-0.7c-0.1-0.4,0-0.9-0.1-1.3c-0.4,0-1,0.3-1.5,0.4
		c-0.7,0.1-1.7-0.1-2-0.7c-0.1-0.2-0.2-0.8-0.3-1c-0.2-0.3-0.2-0.7-0.2-1.1s0.1-0.8-0.4-0.9c-0.3,0-0.6,0.1-0.8,0.1
		c-0.4,0-0.7-0.3-1.1-0.6c-0.7-0.3-0.9-0.9-1-1.7c-0.1-0.4,0-0.4-0.3-0.8c-0.2-0.2-0.7-0.2-0.7-0.6c-0.1-0.7,1-0.3,1.3-0.2
		c0.7,0.2,0.6,0.3,1-0.3c0.2-0.2,0.6-0.6,1-0.4c0.4-0.6,0.6-0.7,1.1-0.7c0.8,0,0.6,0.4,1.2,0.8c0.8,0.4,1.6-0.7,1.9-1.2
		c0.2-0.2,0.3-0.7,0.6-0.8c0.3-0.3,0.3-0.1,0.9-0.1c0.7,0,1.5-0.2,2-0.6c0.2-0.2,0.3-0.6,0.6-0.7c0.3-0.2,0.7-0.2,1-0.3
		c0.4-0.3,0.7-0.9,0.6-1.5c0.7-0.2,1.6-0.1,1.6-1.1c1.1-0.2,2.2,0,3.4-0.1c1.2-0.1,2-0.6,3-1.1c-0.2,1.2,2.5,0.7,3.1,0.4
		c0.4-0.1,1.1-0.2,1.6-0.6c0.1-0.1,0.3-0.4,0.4-0.6c0.2-0.1,0.6-0.1,0.7-0.2c1.1-0.7,0.6-1.1,0.4-2.2c-0.1-1,0.8-1.6,0.6-2.6
		c-0.3-0.1-0.3-0.1-0.4-0.4c1.2-0.1,2.9,0.2,3.9-0.6c0.6-0.4,0.3-0.9,0.8-1.5c0.3-0.4,1-0.8,1.3-1.1c0.6-0.7,0.7-1,0.9-1.8
		c0.2-0.7,0.4-1.1,1.2-1.2c0.6-0.1,2-0.1,2.5,0.2c0.8,0.4,0.2,1.3,0.3,2.1c1.1,0.6,2.2,2.1,3.7,2.1c1.2,0,2.7-1.5,2.9-2.6
		c0.1-0.2,0-0.7,0.1-0.9c0.3-0.4,0.3-0.1,0.8-0.3c1-0.3,0.9-0.8,1.3-1.5c2.1-2.4,4.7,4.2,3,4.8c0.8-0.1,1.9,0.7,2.4-0.2
		C1717.2,847.9,1716.7,846.7,1717.2,846.4z"/>
	<path class="st0" d="M1653.5,947.1c-0.2,0.8,1,1.8,0.7,2.4c-0.4,0.7-2.1-0.1-2.7-0.1c-1,1.2,0.7,2.6,0.1,4.2
		c-0.3,0.9-0.7,1.2-0.8,2.4c0,1,0,1.9,0,2.9c-0.7,0-1.3,0-1.9,0.2c0,0.2-0.1,0.4-0.1,0.7c-1.1,0.3-1.9,1.5-3,1.2
		c-1-3.1,1.9-6.7,0.8-9.4c1.7-0.1,0.9-1.7,0.6-2.5c2.9,0.7,0.8-4.6,3.8-3.1c-0.1-1.6,0.4-2.8,2.2-2.5
		C1653.9,943.4,1651.2,946.7,1653.5,947.1z"/>
	<path class="st0" d="M1667.8,951.8c0.7,1,1.1,2.9,2.1,3.4c0.2,0.1,2-0.1,2.2-0.3c0.6-0.4,0.4-1.3,0.9-1.7c2.1-1.5,2.1,1.3,2.1,2.6
		c1.3,0,2.4-2.1,3.3-2.1c1.6,0.1,1,3.1,0.8,4s-0.3,3.3-0.8,3.9c-0.6,0.9-2.4,1-3.3,1.6c-0.1-1.3,0.1-2.7-1-3.5
		c-1-0.7-2.5-0.8-3.6-1.3c-1.5-0.8-5.6-2.6-6.9-0.6c-0.7-1.3-0.4-2.7-1.3-3.9c-0.9-1.3-1-1.2-0.6-2.6c0.2-0.7,1.1-2.5,1.6-3
		C1665.7,945.7,1667.1,950.6,1667.8,951.8z"/>
	<path class="st0" d="M1680.7,957.2c0.7,0,2.4,0.6,1.5,1.5c-0.8,0.8-1.7-0.2-1.7-1.1"/>
	<path class="st0" d="M1656.6,950.7c-0.1,0,1-0.9,1.2-1c0.3-0.1,1.6-0.2,1.8,0.2C1658.6,950.3,1657.5,950.9,1656.6,950.7z"/>
	<path class="st0" d="M1673.8,950.4c0,0.3,0.6-0.3,0.8-0.6c0-0.1,0.1-0.1,0.1-0.1c0.2-0.3,0.6-0.8,0.4-1.2
		C1674.4,948.6,1673.8,949.7,1673.8,950.4z"/>
	<path class="st0" d="M1653.6,929.3c-0.4-0.4-0.2-1.1-0.7-1.5c-0.4-0.3-1.1-0.1-1.6-0.2c-1.3-0.2-1.2-1.8-1-2.9c1-0.2,3,1.2,3.6,2.1
		C1654.2,927.3,1654.8,930.4,1653.6,929.3z"/>
	<path class="st0" d="M1646.9,923.9c-0.3,0-0.3-1.9-0.3-2.1C1648,921.5,1648,923.6,1646.9,923.9z"/>
	<path class="st0" d="M1651.3,901.5c0.6-0.2,0.7-0.9,0.7-1.5c0.9-0.2,1.9,1,1.6,1.9c-0.2,0.6-0.8,0.6-1.2,0.4
		C1652.2,902.4,1650.9,901.7,1651.3,901.5z"/>
	<path class="st0" d="M1700,929.3c0.4,0.6,1.5,0.4,2.1,0.4c0.7,1.3-0.1,2.1-0.8,3.1c-0.8,1-0.7,2.6-1,3.7c-0.2,0.6-0.6,1-0.8,1.6
		c-0.2,0.6-0.1,1.2-0.1,1.8c-0.2,2.1-4,1.3-5.2,3.1c-0.4,0.7-0.2,2.2-1.6,1.9c0-0.6,0-1.1,0.1-1.7c0.7,0,0.8-0.7,0.7-1.2
		c-1.8,0.1-1.1-2.4-0.7-3.5c0.6-1.2,2-2,1.7-3.5c-0.1-0.8-0.9-1.2-1.6-1.3c-0.3-0.1-1-0.2-1.2-0.1c-0.6,0.2-0.2,0.3-0.3,0.9
		c-0.3,1.1-1,0.8-1.7,1.3c-0.3,0.3,0,0.8-0.7,0.8c-0.6,0-0.6-1-1.2-0.8c-0.2,0-0.4,0.4-0.6,0.7c-0.4-0.1-0.8-0.7-1.2-1
		c-0.8,0.6-0.1,1.6-0.9,2.1c-0.6,0.3-0.8,0.1-1,0.8c-0.1,0.4,0.1,0.9,0.2,1.2c0.1,1.1-0.3,1.2-0.7,2.1c-0.4,1.1,0.4,1.5,1,2.2
		c-0.3,0.2-0.9,0.3-1.3,0.4c-0.9,0.2-0.8-0.1-1.6-0.7c-0.7-0.6-1.5-0.6-2.2-0.9c-0.9-0.3-0.7-0.8-1-1.7c-0.2-0.6-0.4-1-0.6-1.6
		c-0.2-0.9,0.4-1.3,0.6-2.2c0-0.3,0-1.1-0.2-1.5c-0.4-0.7-0.9-0.7-1-1.7c-0.1-0.8-0.1-1.7,0-2.5c-0.8-0.4-0.9-1.2-1.6-1.8
		c-0.6-0.6-2.4-1.1-2.2,0c-0.1,0-0.3,0.1-0.6,0c-0.2,0.7,0.3,1,0.8,1.2c0.1,0.2,0.1,0.6,0.1,0.9c-0.9,0-1.7-0.1-2.2,0.4
		s-0.6,1.3-1.1,1.8c-0.1,0.1-0.3,0-0.4,0.1s-0.1,0.3-0.2,0.4c-0.3,0.4-0.6,0.7-0.9,1c-0.7,0.7-0.6,0.8-0.7,1.9
		c-1.1,0.4-1,0.9-1.7,1.8c-0.6,0.7-1.3,0.9-2,0.3c-0.1-1.5,0.3-2.6-1-3.4c0.9-0.1,2.2,0.6,2.7-0.4c0.1-0.3,0-1,0-1.5
		c0-0.6,0.2-0.7,0.3-1.2c0.8-1.9,0.6-3.6-1-5.2c-0.2-0.2-0.9,1.8-0.9,1.8c0.2-0.1,0-1.8,0.1-2.1c0.1-0.8,0.2-1.7,0.1-2.5
		c0-0.7-0.2-1.3-0.2-1.9c0-0.7,0.4-1.1,0.7-1.8c0.1-0.4-0.1-0.8,0.1-1.2c0.2-0.4,0.6-0.3,0.7-0.8c0.1-1.1-0.8-0.8-1.5-1
		c-0.9-0.3-1.3-1.3-1.5-2.1c0,0.2-1.6,1.3-1.8,1.3c-0.9,0.2-1.5-0.3-1.8-1.1c0.3-0.3,1-0.3,1.2-0.8s-0.1-1.3-0.3-1.7
		c-0.8,0-1.6,0.2-2.2-0.2c-0.6-0.4-0.9-0.9-1.6-1.3c1-0.8,0.6-1.5,0.3-2.7c-0.2-1.1-0.2-1.8-1-2.5s-1.3-1-1.3-2.1
		c0-0.8-0.2-2.1,0.1-2.9c0.4-0.1,1-0.1,1.6-0.1c-0.1,1,0.3,1.8,1.3,1.5c1.3-0.4,0.7-1.6,1-2.5c0.3-1.1,1.7-0.7,2.6-0.9
		c0.8-0.2,1.6-0.8,2.4-1.2c0.1,1.3-0.1,2.4,1.2,2.9c0.8,0.3,2.5,0.4,2.2-0.9c1.1-0.1,1.3-0.1,1.6-1.2c1.9-0.3,1.3,1.6,2.7,1.7
		c0.2,0.8-0.8,0.9-1.1,1.5c0.3,0,1.6-0.2,1.9,0s0.2,1,0.1,1.3c-2.2,0.8-2.1-1.9-2.9-3.1c-0.7-0.1-1.5,0.7-2.1,1
		c-0.3,0.1-0.7,0.2-1.1,0.4c-0.7,0.2-0.7,0.3-1.1,0.8c-0.6,0.6-1.1,0.9-1.8,1.1c-0.9,0.3-1.3,0.4-1,1.6c0.8,0.2,1.7,0.7,1.6,1.7
		c0.2,0,0.6,0.1,0.7,0c0.1,0.7-0.8,2.1-0.3,2.6c0.6,0.7,2.1-0.3,2.8-0.4c0.1,1-0.4,1.8-0.3,2.7c0.7-0.1,0.4,0.4,0.9,0.7
		c0.3,0.2,0.7,0.3,1.1,0.3c1.2,0.1,1-0.3,1.1-1.3c0.9,0.1,0.9,1.6,1.3,2c0.8,0.8,1.8,0,2.8-0.1c0.8-0.9,2.2-1.5,2.2-2.9
		c0-0.7-0.3-1.2-0.3-1.9s0-1.5,0.1-2.1c0.2,0,0.6,0,0.7,0c0.3,1.1-0.6,2.5-0.1,3.6c0.2,0.6,0.8,0.6,1-0.2c0.2-0.4,0-1.3,0-1.9
		c1.6-0.1,2.5,0.6,2.6,2.2c0.1,0.7,0.2,1.1,0.4,1.7c0.2,0.4,0.7,1.5,0.3,2c-0.3,0.4-3.1-0.4-4-0.3c-1,0-3-0.4-2.7,1.3
		c0.4,0,0.9,0,1.3,0.1c0.2,0.8-2,1.3-2.5,1.3c0.9,0,3.4-0.7,4.3-0.7c0,0.3,0.2,1.3,0,1.3c-0.6,0.1-1.2,0.8-1.8,0.8
		c-0.9,0-2.9-0.6-3,0.9c0,0.9,0.7,1,1.6,1c0.7,1.5-1.9,1.7-1,3.1c0.3,0.6,1.1,0.4,1.7,0.1c0.7-0.3,0.7-0.9,1.1-1.5
		c0.3-0.4,1-1.1,1.5-1.5c0.3-0.2,0.2-0.2,0.7-0.2c0.4,0,0.3,0.4,0.9,0c1.3-1,0.2-2.7,2.6-2.6c0,0.8,0.1,1.9-0.3,2.5
		s-1.6,0.6-2.1,0.9c-0.8,0.4-0.7,1-0.8,1.9c-0.1,0.9,0,1.5-0.6,2.1c0.1,0,0.2,0,0.3,0c0.2-0.6,0.3-1.7,0.8-2c0.3-0.2,1.6-0.1,1.9,0
		c0.2,1-0.7,1.5-0.6,2.5c0.1,0.9,1,1.3,1.7,0.6c0.2-0.2,0.1-0.9,0.3-1.2c0.1-0.1,0.4-0.2,0.4-0.2c0.1-0.1,0.1-0.4,0.2-0.6
		c0.4-0.4,0.1-0.4,0.9-0.6c0.4-0.1,0.8,0.1,1.1-0.2c0.2,0.9-0.1,1.7-0.1,2.5c-0.1,1,0.2,1.3,0.8,2c0.7,0.7,1.2,1.2,1.6,0
		c0.3-0.9-0.2-1.7,1-1.7c0.2-0.6-0.1-1.3,0.4-1.7c0.9-0.4,0.8,0.9,0.8,1.3c0.1,0,0.3,0,0.4,0c0,0.9-0.1,1.5,1,1.3
		c0.2,0,0.9-0.4,1-0.3c0.6,0.2,0,0.7,0.2,1.1c0.2,0.3,0.7,0.1,0.9,0.4c0.1,0.2-0.1,0.8-0.1,1.1c0.1,0.8,0.8,1.2,1.6,1.3
		c0.1-0.4,0-1.3,0.3-1.5c0.3-0.9-0.2-1.8-0.1-2.6c0-0.4,1.1,0.4,1.2,0.6c0.8,0.4,1.6,0.8,2.2,0c0.3-0.4,0.4-2,1.1-2
		C1700.3,926.9,1699.6,928.7,1700,929.3z"/>
	<path class="st0" d="M1681.7,916.6c-0.3-0.1-0.1-0.6,0.2-0.4C1682.3,916.2,1682.1,916.7,1681.7,916.6z"/>
	<path class="st0" d="M1683.2,907.8c0,0,0-0.1,0.1-0.1c0,0,0.1,0.6-0.1,0.8c-0.2,0.2-0.7,0.2-1,0.2s-0.7-0.2-0.3-0.4
		C1681.9,908,1683,907.8,1683.2,907.8z"/>
	<path class="st0" d="M1670.4,962.2c0.4-0.4,0.6-1.3,0.6-1.9c-0.2,0.3-0.4,0.6-0.6,1C1670.4,961.3,1670.3,962.2,1670.4,962.2z"/>
	<path class="st0" d="M1674,965.8c-0.1,0.3,0.2,0.7,0.6,0.6c0.6-0.2,0-0.9-0.4-0.8"/>
	<path class="st0" d="M1676,965.2c0.1-0.2,0-0.6-0.1-0.7c-0.2-0.3-1.1-0.7-1.1-0.1C1674.7,964.9,1675.7,965.2,1676,965.2z"/>
	<path class="st0" d="M1679.3,963l0.1-0.1c0-0.1-0.1-0.2-0.1-0.2C1679.2,962.7,1679.1,963,1679.3,963
		C1679.2,963.1,1679.2,963.1,1679.3,963z"/>
	<path class="st0" d="M1683.6,956.6c-0.3,0-0.6,0.1-0.8,0.4C1683.1,957.2,1683.7,957.2,1683.6,956.6"/>
	<path class="st0" d="M1675,947.3c0.4-0.3,0-0.6-0.3-0.3C1674.1,947.2,1674.6,947.7,1675,947.3z"/>
	<path class="st0" d="M1659.9,948.5c0.1,0,0.2-0.2,0.4-0.1C1660.3,949.4,1659.9,948.5,1659.9,948.5z"/>
	<path class="st0" d="M1659.9,950.9c0.2,0.9-1.3-0.4-0.1-0.1"/>
	<path class="st0" d="M1653.9,930.3c0.2,0.1-0.1,0.4-0.3,0.6c-0.2,0.1-0.3,0-0.2-0.4C1653.3,930.3,1653.8,930.3,1653.9,930.3z"/>
	<path class="st0" d="M1664.4,931.1c-0.1,0-0.2,0-0.3,0C1663,930.7,1664.6,930,1664.4,931.1z"/>
	<path class="st0" d="M1696.7,943c0.2,0.3-0.3,0.8-0.6,0.7C1695.5,943.3,1696.4,942.5,1696.7,943z"/>
	<path class="st0" d="M1650.3,903.7c-0.1-0.6,0.1-1.1,0.7-1c0.1,0,0.1,0.7,0,0.8C1651,903.7,1650.6,903.7,1650.3,903.7z"/>
	<path class="st0" d="M1662.7,898.9c0.2,0.2,0.4,0.2,0.7,0.1c0.2-0.1,0.4-0.6,0.3-0.8C1663.5,898.1,1662.3,898.5,1662.7,898.9z"/>
	<path class="st0" d="M1651.2,890c0,0.7-0.2,0.9-0.6,0.3c-0.3-0.4-0.6-1.7-0.6-2.2C1650.9,888.5,1651.2,889.1,1651.2,890z"/>
	<path class="st0" d="M1754.9,866c0.2,0,0.4,0,0.7,0c0.1-0.3,0.1-0.8-0.3-0.9C1754.6,865.1,1754.9,866.1,1754.9,866z"/>
	<path class="st0" d="M1665.7,868.7c0.2,0.6,0.1,1.2,0.2,1.8s0.6,1.1,0.4,1.7c-0.3-0.1-0.4-0.4-0.8-0.6c-0.2-0.1-0.6,0-0.8,0
		c-0.7,0-0.7,0.1-1.1,0.7c-0.6,0.6-0.8,0.7-1.2-0.1c-0.3-0.6-0.6-1-1.2-1s-0.4,0.7-1.2,0.7c-0.6,0-1.2-0.2-1.6-0.6
		c-0.3-0.4-0.1-0.9-0.3-1.3c-0.3-0.4-1-0.6-1.5-0.8c-1-0.6-1.9-1.2-0.9-2.2c0.3-0.2,0.7-0.2,0.9-0.4c0.4-0.3,0.2-1,0.3-1.6
		c0.4-0.1,0.8,0.2,1.1,0.6c0.4,0.3,0.6,0.1,1.1,0.3c0.2,0.1,0.3,0.4,0.6,0.6c0.2,0.1,0.6,0.1,0.9,0.2c0.1,0.1,0.2,0.3,0.4,0.3
		c0.4,0.2,0.7-0.1,1.1-0.2c0.6-0.1,1.5,0.4,1.9,0.6C1664.7,867.5,1665.4,867.9,1665.7,868.7z"/>
	<path class="st0" d="M1728,889c0.3,0-0.7,0.6-1,0.6C1727.1,889.1,1727.4,889,1728,889z"/>
	<path class="st0" d="M1750.3,817c0-0.4-0.2,0.2-0.2-0.2C1751.4,816.5,1750.3,817.2,1750.3,817z"/>
	<path class="st0" d="M1742,831.8c-0.1-0.2,0-0.4,0.4-0.3C1742.5,831.9,1742.2,832.5,1742,831.8z"/>
	<path class="st0" d="M1783.4,811.3c0-0.1,0.1-0.2,0.1-0.3c-0.1,0.1-0.2,0.3-0.3,0.6C1783.1,811.5,1783.2,811.4,1783.4,811.3z"/>
	<path class="st0" d="M1681.4,856.8c0.1-0.1,0.1-0.4,0.1-0.8C1680.2,855.9,1681.2,857.3,1681.4,856.8z"/>
	<path class="st0" d="M1661,865.5c0,0,0.1-0.1,0.1-0.2C1661.1,864.2,1660,866.6,1661,865.5z"/>
	<path class="st0" d="M1590.5,996.2c1.1,0.1,2.1-0.6,3.4-0.6c2.7,0,6.1,0.9,8.8,0.1c-0.1,0.6-0.8,0.7-1,1.2
		c-0.1,0.7,0.3,0.8,0.4,1.3c0.4,1.3,1,1.8,0.9,3.3c-1.2,0.3-1.5,0.2-2.4,1.2c-0.7,0.8-1.6,1-2.1,1.7c-1.7,1.8,2.7,2,3.7,2.2
		c0,0.8,0,1.7,0,2.6c0,1.3-0.6,1-0.9,1.9c-0.2,0.8,0.3,1.3,0.6,2c0.3,0.7,0.4,1.3,0.6,2c-1.3-0.1-1.6,0.7-1.5,1.8
		c0,0.6,0.2,0.7,0.3,1.1c0.1,0.3,0.1,1.2,0.3,1.6c0.9,1.3,3.1,1,3.9,2.4c0.3,0.6-0.1,1.2,0.4,1.7c0.7,0.6,2,0.2,2.9,0.2
		c1,0,1,0.1,1.2,1.1c0.3,1.5,1.6,2,2.6,3c0.4,0.4,1.1,1.1,1.5,1.7c0.3,0.7-0.1,1.2,0,1.9c0.2,1.5,2.6,1.6,3.7,1.8
		c3.7,0.8,1.9,6.5,1.1,8.8c-0.2,0.8-0.8,1.1-1.6,1.7c-0.6,0.3-0.6,0.3-1.2,0.4c-0.4,0.1-1-0.1-0.9,0.7c1.7,0.4,0.6,2,0.2,2.9
		c-0.4,1.2-0.1,2.6,0.1,3.8c0.3,2.2-1.6,0.9-2.6,1.9c-1,0.9-2,1.9-2.1,3.5c0,0.4,0.6,1.1,0.2,1.6c-0.2,0.4-1.1,0.2-1.5,0.7
		c-0.8,1,0.3,2-0.3,3c-0.3,0.6-0.6,0.8-0.8,1.5c-0.4,1.5-1.3,1.9-2.1,3.1c-0.3,0.6-0.6,1.2-1.2,1.5c-1.6,0.4-3-0.8-4.5-0.7
		c-1.1,0.1-0.9,0.7-1.5,1.3c-0.6,0.6-1.3,0.4-2,0.6c-0.8,0.1-1.6,0.7-2.5,0.7c-0.8,0.1-1.6,0-2.2,0c-2.6,0-4.2-1.7-4.2-4.3
		c0-1.5-0.1-2.7-0.2-4c-0.1-0.7-0.2-1.3-0.3-2c-0.2-0.8-0.6-1-0.8-1.6c-1-0.7-2.2-1-3.1-1.7c-0.4-0.3-0.8-0.8-1.2-1
		c-0.7-0.3-1.1-0.1-1.8-0.6c-0.8-0.6-1.2-1.7-1.8-2.6c-0.6-0.8-1.6-1.8-1.5-2.8c0.6-0.2,1.3,0.1,1.9-0.2c0.7-0.3,0.7-1,0.9-1.7
		c0.4-1.2,2.1-1.8,2.5-3c0.3-1.2,0.3-2.9,0.4-4.2c0.1-0.8,0.2-1.2,0.6-2c0.3-0.7,0.7-1.5,0.6-2.1c-0.7,0.1-0.8-0.6-1-1
		c-0.3-0.8-0.8-1.1-1-2c-0.1-0.9-0.1-1.9-0.3-2.8c-0.3-1.1-1.7-1-2.1-2.2c-0.3-1.1,0.4-2.2,0.3-3.3c0-1.2-1-1.9-0.6-3.4
		c1.2-0.1,1.2-0.2,1-1.3c-0.1-0.8-0.3-1.5-0.6-2.2c-1,0.1-2-1.2-0.7-1c0-0.1-0.1-0.1-0.1-0.2c-0.7-0.1-1.3,0.6-1.8,0.1
		c-0.3-0.4-0.3-1.9-0.3-2.4c0.1-0.8,0.4-1.3,0.4-2.1s0-1.6,0.2-2.4c0.6,0.2,0.3,1.8,0.4,2.5h0.2c0.2-0.4,0.6-0.9,0.8-1.3
		c0.1-0.7,0-1.2,0.3-1.9c0.7-1.2,1.7-1.5,0.4-2.6c0.9,0.8,0.6-2.1,0.6-2.4c-0.3-1.7-0.7-3-0.4-4.8c0.2-1.2,0.4-1.9,1-3
		c0.7-1,0.9-2,2.2-2c1.1,0,2.5,0.2,3.6,0.4C1588.5,995.3,1589.4,996.1,1590.5,996.2z"/>
	<path class="st0" d="M1579.2,1008.7c-0.1,0.2-0.4-0.8-0.4-0.9c-0.1-0.3-0.1-1.1,0.2-1.5C1579.1,1006.2,1579.3,1008.5,1579.2,1008.7
		z"/>
	<path class="st0" d="M1480.2,1166.3c0.7,2.7,1.7,5.7,2.9,8.2c1.2,2.7,4.7,4.6,7.5,4.9c3,0.2,5.6-2.1,8.4-2.9
		c2.9-0.8,5.4-2.7,6.6-5.6c1.2-3,4.4-2.6,6.3-4.7c3.7-4.2,4.9-10.5,9.4-14c1.8-1.5,4.2-1.6,6.1-2.7c1.6-0.9,4.5-2.9,4-5.1
		c-2.2-0.7-6-2.2-8-0.1c-0.4,0.4-0.4,1.2-0.9,1.8c-0.4,0.4-1.2,0.8-1.8,1c-1.2,0.7-2.6,1.1-3.9,1.7c-2.4,1.1-4,3.1-6.4,4.5
		c-1,0.6-2.2,1.3-3.5,1.5c-1.8,0.2-2.1-1-3.9-0.1c-0.4,0.2-1.9,0.8-2.2,1c-0.8,0.6-0.8,1.5-1.7,1.8c-1.2,0.6-3.4-0.8-4.9-0.9
		c-2.1-0.1-3.8,0.4-5.8,0.6c-1.8,0-3.1-1.1-4.8-1.6C1480.2,1154.6,1479.6,1164,1480.2,1166.3z"/>
	<path class="st0" d="M1454.3,1262.6c0.1-0.1,0.2-0.3,0.2-0.3c0.4-1,0.4-2.1,1.3-2.9c1.2-1,1.9-1.7,3.8-1.1c1.2,0.4,2,1.3,3,2.2
		c2.8,2.5,2.1,4.7,2.9,8c0.6,2.5,0.6,6.3-2.9,5.4c-0.4-0.1-0.8-0.7-1.2-0.8c-0.7-0.2-1.6,0.2-2.2,0c-1.2-0.4-1.2-1.7-3-1.1
		c1.6-0.4-2.1-1.6-1.7-1.2c-1-0.7-0.7-1.8-1.6-2.7c-0.7-0.8-1.8-0.3-2.5-1.2c-2.6-3,2.5-5.3,2.4-2
		C1452.9,1264.6,1453.9,1263.3,1454.3,1262.6z"/>
	<path class="st0" d="M1345.9,1259.9c-1.1,2-2.2,2.5-4.4,2.8c-1.7,0.2-2.7,1.5-3.7,2.9c1.8,0.1,0.6,2.5-0.4,2.9
		c-1.5,0.6-2.9,0.2-4.3,1.2c-1.8,1.5-0.9,2.9-1.5,4.9c-0.1,0.6-0.3,1.1-0.6,1.6c-0.2,0.4-0.7,0.8-0.7,1.3c-0.1,0-0.4,0-0.6-0.1
		c-0.2-0.9,0.6-0.9,1-1.5c0.2-0.3,0.3-1.2,0.3-1.7c-0.1-1-1.2-1.3-1.6-2.1c-0.3-0.8-0.4-2.4-0.1-3c0.4-1.1,2.5-1.3,3-2.4
		c1-1.8,0.8-3.9,2.1-5.5c1-1.2,2.6-1.8,3.6-3.1c0.7-1,1-2.6,1.9-3.4c0.4-0.3,1.1-0.3,1.7-0.6c1.6-0.6,2.8-1.8,3.7-3.3
		c0.8-1.2,1.1-2.1,1.5-3.6c0.1-0.4,2.9-0.7,3.3-0.8c1.2-0.2,1.7-1.2,2.8-1.5c0.7-0.1,1.7,0.1,1.3,1c-0.2,0.7-0.9,0.3-1.5,0.6
		c-0.3,0.1-0.8,0.6-1,0.9c-0.8,0.7-1.8,1.3-2.4,2.2c-0.6,0.8-1.1,1.9-1.3,2.9c-0.3,1.2-1,2.1-1.2,3.5
		C1346.6,1257.2,1346.6,1258.5,1345.9,1259.9z"/>
	<path class="st0" d="M1336.2,1283.6c0.1,1.1-0.2,1.3-1.3,1.2c-0.8-0.1-2.7-0.9-2.5-2C1332.4,1282.7,1336,1283.5,1336.2,1283.6z"/>
	<path class="st0" d="M1324.9,1278.1c-0.2-0.2-0.7-0.1-1-0.3c-1-0.7,0.2-0.9,1-1.1c0.8-0.3,3.3-2,3.1,0c0,0.6-0.8,1.7-1.2,2.1
		C1325.7,1279.6,1325.7,1278.6,1324.9,1278.1z"/>
	<path class="st0" d="M1329,1291.1c1.1-0.8,1.2-1.1,2.6-0.4c1.1,0.4,1.2,0.9,1.9,1.7c0.6,0.7,1.7,0.8,2,1.7c0.3,0.8,0.1,3.1-0.2,3.8
		c-0.2,0.4-0.8,0.6-1,1c-0.2,0.6-0.1,1.3-0.1,2s-0.1,1.3,0,1.9s0.4,1.1,0.3,1.7c-0.8,0.1-1.6-0.6-2.5-0.3c-0.6,0.1-0.4,0.4-1,0.2
		s0-0.8-0.9-0.7c-0.4,0-0.6,0.4-1.1,0.3c-0.4-0.1-0.6-0.3-0.9-0.7c-0.7-0.7-0.8-0.7-1.9-0.8c-0.3-1-0.7-2-0.6-3.1
		c0.1-0.8,0.6-2.2,0-3c-0.6,0.1-1.5,0.8-2,0.3c-0.7-0.7,0.2-2.4,0.7-2.9c0.4-0.7,1-1.5,1.9-1.7c0.4-0.1,0.8,0,1.2-0.1
		C1328.1,1291.9,1328.6,1291.4,1329,1291.1z"/>
	<path class="st0" d="M1327.7,1308.6c0.2,0.8,0.4,1.3,1.3,1.7c0,0.6,0.1,0.9-0.3,1.1c-0.7,0.3-0.8-0.3-1.3-0.6
		c-0.3-0.1-1.1,0-1.3-0.3c-0.2-0.4,0.1-1.3,0.1-1.8c-0.1-0.7-0.7-0.9,0.2-1.1C1327,1307.4,1327.6,1308,1327.7,1308.6z"/>
	<path class="st0" d="M1336.8,1302.6v-0.1c-0.1-0.7-0.9-0.4-0.9,0.1C1335.9,1303.2,1336.7,1303.1,1336.8,1302.6z"/>
	<path class="st0" d="M1334.5,1281.9c0.1,0,0.3,0.2,0.4,0.2c-0.1,0,0.1-1.2,0-1.5c-0.1-0.2-0.6-0.7-0.9-0.4
		C1334,1280.3,1334.4,1281.7,1334.5,1281.9z"/>
	<path class="st0" d="M1407.7,1006.2c0.1-1.2,0.3-3.7-0.2-4.8c-0.2-0.6-0.9-0.8-1.2-1.2c-0.4-0.6-0.6-1.2-0.9-1.8
		c-0.6-1-1.9,0.9-1.9,1.3c-0.1,0.8,0.4,3.1,0.7,4C1404.4,1005.2,1405.9,1006.6,1407.7,1006.2z"/>
	<path class="st0" d="M1404.9,1397.9c2.7-0.3,5.7-0.8,7.2-2.9c0.7-0.9,1.6-1.6,2.6-2.5c1.2-1.1,1-1.9,1.1-3.7c0.7-0.4,0.7-1.2,0.8-2
		c0.6,0.2,1.5,0.8,2.1,0.4c1.3-0.7,0.2-1.5,0.6-2.6c0.4-1.6,2.1-1.6,2.9-2.7c1.1-1.5,0.3-3.7,1.5-5.5c0.2,0,0.4,0,0.7-0.1
		c-0.3-0.4-0.6-1-0.7-1.6c1.8,0.3,2-1.1,3.4-1.5c0.1-1.1-1.2-3.3,0.9-2.9c0.1-0.3,0.1-1,0-1.3c-0.6,0-1-0.3-1.6-0.2
		c-0.1-2.1,2.6-1.1,3.5-2.1c0.2-0.2-0.1-1,0-1.3c0.2-0.3,0.7-0.4,0.9-0.7c0.3-0.6,0.8-0.9,0.9-1.6c2.2,0.2,1.7-1.5,2-2.9
		c0.2-1.3,2.4-2.8,2-4.2c-0.1,0.1-0.4,0.2-0.7,0.3c0-0.2-0.1-0.6-0.1-0.9c-0.3,0-0.6-0.2-0.9-0.2c-0.1-1,0.8-1.5,0.9-2.6
		s-0.6-1.5-0.4-2.5c2.7-0.6,0.1-5.3-0.9-6.3c-0.2-0.8,0.2-1.2,1-1.1c0.3-1.3-0.6-3.1-0.6-4.6c0-0.2,0.4-0.7,0.4-0.9
		c-0.1-0.6-0.7-0.4-0.8-0.9c-0.2-0.7-0.4-1.2-0.6-2.2c-2-1-3.5-2.7-3.3-4.8c0.1-1.2,0.7-2.7-0.9-3c-1.8-0.4-1.2,1.7-3,1.2
		c0-0.6-0.1-1.2,0-1.8c-0.7-0.1-1.2-0.2-1.8-0.7c-1.1-0.8-0.6-1.1-0.9-1.8c-0.8-1.5-2-1.2-3.1-2.1c-1.8-1.3-0.8-2.9-1-4.8
		c-0.7-0.2-1.2-0.2-1.9,0c-0.2,0.1-0.2,0.7-0.6,0.9c-0.3,0.1-0.9-0.1-1.2,0.1c-0.7,0.6-2,2.5-2,3.4c0,1.3,1.3,1.8,2,2.7
		c0.8,1.1,0.9,2.5,0.4,3.9c-0.2,0.6-0.7,1.1-0.9,1.5c-0.2,0.6-0.2,1.3-0.4,2c-0.2,0.7-0.9,0.9-1.2,1.7c-0.3,0.7-0.2,1.3-0.6,2
		c-1.1,2.2-4,5.5-2.6,8.1c-2-0.1-1.7,0.9-2.6,2.5c-0.8,1.3-2,2.4-3.3,3.4c-1.1,0.9-1.2,1-1.8,2.2c0-0.1-0.9,2.8-1.1,2
		c-0.1-0.2-0.3-0.6-0.4-0.9c-0.4,1-1.5,2-2,2.9c-0.9,1.6-0.6,2.1-2.1,3.1c-1.1,0.7-2.7,1.5-4,1.8c-1.6,0.3-3.4-0.6-4.9,0
		c0.3,1.1,1.8,1.1,2.5,2c0.8,1.1,0.7,3.8,0.2,5.1c-0.7,1.7-2,1.5-3.3,2.6c-1.5,1.3-1.3,2.6-3.8,3.1c-1.5,0.3-2.8-0.3-4.2,0.7
		c-1.2,0.9-1.7,2.5-2.7,3.6c-2.4,2.7-1.6,4.2-1.1,7.4c-0.6,0.2-1,0.4-1.6,0.3c0.6,1.7,2.9-1.1,4.2-1.1c2.5,0.1,2,2.2,3.3,3.6
		c-0.6,0-1.6,0.1-2-0.1c-1.2-0.7-0.1-0.8-0.9-1.7c-0.7-0.7-0.6-0.3-1.5,0c-0.3,0.1,0,0.6-0.3,0.8c-0.3,0.1-0.9,0-1.2,0.2
		c-1,0.6-2.1,1.1-3,2c-1.7,1.7-3,3.6-5.2,4.9c-1,0.7-2.5,0.9-3.7,1.2c-2.6,0.8-4.2,0.4-6.7,0.6c0.2-1.6-0.3-1.9-1.8-2
		c-0.4,1.5,2.8,4.3-0.2,4.9c-1.2,0.2-1.7-0.7-2.6-1c-1.2-0.6-2.2,0-3.4-0.4c-0.6-1.7-0.4-2.4-1.6-3.7c-1.1-1.3-1.7-1.9-3.6-2.1
		c0.6-0.1,1.1-0.2,1.7-0.2c-1-0.7-1.8-2.1-0.6-3c0.7-0.6,0.9-0.2,1.6,0c-0.1,0,0.2,0.9,0.3,0.9c0.1,0.1,1.2,0,1.5,0
		c-0.2,1.3,1.2,1.7,2,2.5c-0.3-2.8,2-2.4,3.8-1.3c0.3,0.2,1.5,1.5,2,1.3c1-0.2,1.1-1.6,0.2-2c0.1-0.3,0-0.7,0.1-1
		c-0.8-0.7-2-1.5-2.5-2.5c-0.4-1.1,0-3.1,0-4.3c-0.9-0.3-3.6-0.4-4.4,0.2c-0.7,0.6-0.4,1.6-0.9,2c-0.4,0.3-1.2,0.3-1.8,0.6
		c-0.1,0.6-0.9,2.4-1.7,1.7c-1-0.8,0.9-1.7,1.1-2.2c0.7-1.2,0.3-1.5,1.5-2.4c1.3-1.2,2.6-2.2,0.6-3.6c-1.3-0.9-3-1-4.4-1.7
		c-0.7-0.3-2.4-1.7-3.3-1.2c-0.9,0.4-0.3,1.1-0.1,1.7c0.2,0.7,0.2,1.1,0.2,1.9c-0.8-0.8-1.2-2.5-2.4-2.7c0-0.1,0-0.3,0-0.4
		c0.7-0.1,1-0.7,0.8-1.3c-1.3-1-3.4-2-5.2-1.9c-1.2,0.1-4,0.2-4.7,1.3c0-0.1-0.1-0.2-0.1-0.3c-0.6,0-1.1,0.1-1.7,0.1
		c-0.1,1.6-1.6,0.6-2.2,0.3c-1.5-0.3-1.5,0.4-2.5,0.9c-2.7,1.2-6.5-2.7-8.4-4c0.1,1.7,0.4,3.1-0.3,4.6c-0.7,1.1-1.2,3.4-0.1,4.5
		c0.6,0.6,1.5,0.7,2.1,1.3c0.6,0.6,0.8,1.3,1.1,2.1c0.4,1.3,0.8,3.7,0.2,5.1c-1.7-0.3-2,2-2.2,3.3c-0.1,0.7-0.3,1.8-0.2,2.5
		c0.2,1,1,1.2,1.6,2s0,1.9,0.2,2.8c0.2,0.8,0.8,1.7,1.1,2.6c0.2,0.7,0.4,1.7,0.9,2.2c-0.9,1.5,4.3,3.4,5.3,3.4
		c0.8-0.1,0.9-0.1,1.2-0.7c0.4-0.9,0.7-1.8,1.9-1.9c1-0.1,1.5,0.7,2,1.2c1.1,1,3.5,1.9,5.1,1.9c0.6,2.5,2.8,2.1,4.8,2.7
		c2.1,0.6,3.5,1.8,3.6,4c0.1,1.9-0.2,3.6-0.9,5.3c-0.3,0.8-0.4,1.8-1.1,2.4c-0.8,0.7-1.9,0.7-2.4,1.8c-0.3,1.1,0.1,3.7-2,3.3
		c0.1-1-0.1-2.1-1.5-1.7c-0.9,0.2-1.1,1.2-1.7,1.9c-0.6,0.6-1.6,1.6-2.5,1.3c-1.3-0.4-0.2-2.1-1.6-2.4c0,0.2,0,0.4,0,0.7
		c0.3,0.2,0.4,0.6,0.3,1c-0.6,0.2-1,0.7-1.3,1.2c-0.3,0.7-0.4,2.8-1.8,1.7c-1.1,1.1-0.3,3-1.2,4.3c-1.1,0.1-1.7-0.8-2.5-1.2
		c-1,0.4-1,1.6-1.8,1.9s-2,0-2.9,0.2c-0.1,1.2-0.4,3.7-2.4,3.3c-0.9-0.2-0.9-1-1.5-1.6s-1.3-0.4-1.5-1.6c0.1,0.3-0.1,0.6-0.1,0.8
		c-0.6-0.1-0.8-0.6-0.9-1.1c0,0.4-0.1,0.9-0.2,1.2c-0.9-0.2-1,1.2-2,1.5c-0.1-0.6-0.2-1.2-0.2-1.8c-0.1,0.2,0,0.8-0.1,1.1
		c-0.2,0.8-0.7,1.5-0.7,2.4c0,0.1-1.5-1.2-1.6-1.3c-0.9-0.6-1.7,0.3-2.1,0.9s-1.6,1.5-1.6,2.2c1.2,0,1.7,0.1,1.9,1.3
		c0.2,1,0,2.4,0,3.4c-1.1,0-1.9-0.2-2.7,0.8c-0.6,0.7-0.9,1.7-1.8,2.4c-1.5,1.1-3,1.6-4.4,3c-0.6,0.6-1.1,1.5-1.8,2.1
		c-0.9,0.9-0.7,1.1-0.6,2.4c0.4,3-3.4,3.8-5.5,3.7c0.3-2.4-3.3-1.1-2.8-3.3c-0.9,0.2-1,1.2-1.7,1.8c-0.3,0.3-1,0.6-1.3,0.9
		s-0.4,0.8-0.8,1.1c-0.6,0.6-1.2,1-1.9,1.6c-0.6,0.4-1.3,1.9-2,2.1c-2.4,0.9-3.1-2.4-3.8-3.8c-0.4-0.8-0.8-2.4-1.8-2.7
		c-0.4-0.2-2.2-0.3-2.8-0.2c-0.2,1.1,0.6,1.1,0.8,1.9c0.2,0.7,0,1.9-0.1,2.6c-0.2,1.7-0.2,3.5-0.3,5.2c-0.1,0-0.3,0-0.4,0
		c-0.1,1,0.4,2,0.7,3c0.2,0.9,0.8,2,1.2,2.8c0.4,0.9,1.5,1.7,1.8,2.6c0.7,1.6,1.5,3.3,1.8,4.8c0.3,1.2,0.2,2.9,2,2.6
		c0.1,0.9-0.3,1.7-0.2,2.7c0.1,0,0.2,0,0.3,0c0.2,0.3,0.3,0.6,0.2,1c1.3-0.1,0.8,4.7,0.6,5.5c-0.2,1.2-0.1,4.5,1.3,5.3
		c0.4-0.8,1.3-2.2,1.7-0.6c0.2,1-0.6,1.7-0.7,2.6c0.8,0.3,1.5,1.3,2.4,1.1c0,0.9-0.8,2-0.9,3c-0.1,1.3,0.2,1.9-0.8,2.8
		c-0.8,0.7-2,0.7-2.8,1.3c-0.7,0.4-1.1,1.3-1.6,1.9c-0.7,0-1.3,0-2,0c-0.1,0.4-0.2,0.9-0.2,1.3c-0.1,0.1-0.3,0.1-0.4,0.1
		c0,0.2-0.1,0.4,0,0.7c-0.2-0.1-0.3,0-0.6-0.2c-0.1,1,0.2,2.1-1.2,1.7c-0.8-0.2-1.5-1.2-2.4-1.6c-0.2,0.4-0.2,1-0.8,1.1
		c0,0.3-0.1,0.8,0,1.1c-0.2-0.3-0.4-0.8-0.4-1.2c-0.2,0-0.3,0-0.6,0c-0.8,1.3-1.6,2.5-2.7,3.4c-0.7,0.6-2,3.4-3.1,2.1
		c-0.1,0.6-0.6,1.5,0.1,1.8c0,0.7-0.3,1.6-0.6,2.1c-0.6,0-1.6-0.6-2-1c-0.8-0.8-0.4-1-0.1-1.9c-0.7-0.1-1.9,0.2-2.1,0.6
		c-0.9,1.2,0.4,1.1,1,1.5c0.8,0.6,0.4,0.9,0,1.7c-0.3,0.7-0.6,1.5-1,2.1c1.6,0.6,1.3-0.2,2.4-0.9c1.1-0.7,1.1,0.4,1.1,1.2
		c0,1.3-0.4,2-1,3.1c-1.1,0.3-4.4,0.2-3.9,2c0.6,0.2,0.8,0.9,0.7,1.5c-0.9,0-2-0.2-2.9-0.4c0-0.4-0.1-0.8-0.4-1.2
		c-1,0.3-0.6,1.1-1,1.8c-0.3,0.6-0.9,0.7-1.3,1.3c-0.7,0.9-0.6,2.8-2.1,2.8c0,0.7,0.6,1,0.9,1.6c0.4,0.7,0.6,1.2,0.8,2
		c0.2,0.8,0.2,1.5,0.4,2.2c0.2,0.9,0.6,0.8,1.6,0.7c0.7,1.9-0.4,3.1-1,0.7c-0.6,0-1.2,0-1.8,0c0.1,0.3,0.4,0.9,0.8,1
		c0.4,0.2,1-0.2,1.5,0.2c0.9,0.9-0.4,1.7,1.6,1.6c0.4,0.7,0.6,1.7,0.2,2.5c-0.8,0.1-2.8,0.2-2.4,1.5c0.8,0.2,1.1,1.3,2,1.6
		c1.1,0.3,2.1-0.3,3.1-0.3c0.1,0.2,0.1,0.6,0,0.8c-0.9,0.2-1.7,0.7-2.6,0.8c-1.8,0.4-1.7,1.7-1.6,3.4c0,0.7-0.1,3.7,1,3.7
		c0.1-1.8-0.4-4,2.2-3.6c0.2,0.8-0.4,1.1-0.3,1.9c0.7-0.1,1.2-0.3,1.9-0.4c0.2,1.2-1.5,0.6-1,1.9c0.3,0,0.6,0.2,0.9,0.3
		c-0.2,0.6-0.9,1-1,1.6c-0.2,0.7,0,1.6-0.1,2.2c0.1,0,0.3,0,0.4,0c0.1,0.9-0.8,1.9-1,2.7c-0.4,1.2-0.6,2.5-0.6,3.7
		c-0.1,1.7-0.7,3.3,1,4.2c1,0.6,2.9,1.8,4,1.7c1.5-0.1,1.8-1.7,2.9-2.4c1.1-0.8,2.8-1.1,4.2-1.6c0.7-0.2,1.3-0.4,2-0.3
		c0.8,0.1,1.3,0.7,2.2,0.4c1.7-0.2,2.2-1.6,2.4-3.1c0.8-0.3,1-0.2,1.6-0.9c0.4-0.6,0.7-1.3,1-2c0.3-0.6,0.7-0.9,1-1.3
		c0.6-0.7,0.6-1.2,0.9-1.9c0.7-1.5,2-1,3.3-1.6c1.2-0.6,2.2-1.6,3.4-2.1c0.8-0.3,2.5,0.1,2-1.1c-0.8-0.2-1.1,0.6-1.9,0.3
		c-0.6-1.8,3.6-1.5,4.5-1.1c2.7,0.7,2.4-0.9,3.6-2.6c1.1-1.6,2.6-2.8,3.7-4.3c0.8-1,1-1.1,2-1.6c1.3-0.6,0.9-1.3,1.7-2.2
		c0.7,1.3,1.1-0.6,1.1-1.2c0-1,0-2.1-0.6-2.6c-0.7-0.4-1.6-0.3-1.8-1.2c-0.2-1,1.2-1.9,0.3-2.9c-0.8-0.9-2.7,0.2-3.5,0.3
		c-1.3,0.3-2.4,0.9-3.5,1.8c-0.7,0.6-1.2,0.8-1.5,1.7c-0.1,0.7-0.2,2.1,0.3,2.5c-0.1,1.1-1.3,0.1-1.7,0c-0.3-0.2-0.1-0.4-0.7-0.7
		c-0.3-0.1-1.1,0-1.5,0c0-1.3,0.3-4-0.4-5.1c-0.4-0.6-1.2-0.3-1.7-1c-0.3-0.7,0.1-1.5-0.1-2.2c-0.1-0.7-0.7-1-1-1.7
		c0.2,0,0.4-0.1,0.7-0.1c0-0.2,0-0.4,0-0.7c0,0-0.6,0-0.7,0c1.3-0.1,1.1-0.9,1.8-1.8c0.3-0.4,1-0.9,1.2-1.5c0.3-0.8,0.2-1.5,0.8-2.2
		c0.4-0.4,1.3-1.5,1.8-0.7c1.1-0.8,0.6-3.4,0.6-4.6c0.1-1.7,0.4-2.9,1-4.4s0.6-3,1.7-4.3c0.9-0.9,2.1-1.7,2.7-2.7
		c2,0.2,2.2-2.2,2-3.7c-0.1-0.3-0.2-0.9-0.4-1.2c-0.2-0.3-0.7-0.6-0.8-0.8c-0.2-0.4-0.8-1.6,0.2-1.8c0-0.7-0.2-2.2,0.9-2.7
		c0.4-0.1,1.2,0.3,1.7,0.3c0.6,0.1,1.1,0,1.7,0.2c-0.7-0.7-0.3-2-0.1-2.8c1.2,0,6,0.2,5.2-2.1c-0.9-0.1-1.8-0.1-2.7-0.2
		c-0.1-0.6-0.1-1.1,0.1-1.7c-0.2,0-0.3,0-0.6,0.1c0-0.7,0-1.2,0-1.9c0.8-0.1,2.5,2.2,3,0.7c0.3,0,2.4,2.4,2.2,0.2c0.1,0,0.3,0,0.4,0
		c0-0.3-0.3-1.7,0-1.9c0.6-0.3,1.5,0.8,1.6,1.2c0.2,0.1,0.8,0.1,1,0c-0.1-1.8,0.4-3-1.6-3.8c0-0.2,0-0.3,0-0.6
		c2.1-0.2,1.8,1.3,2.6,2.9c0.8,1.5,1.6,2.6,2.5,3.9c0.3,0.6,0.7,1,0.9,1.6c0.4,0.9,1.2,1.1,2,1.8c0.9,0.7,1.7,1.7,2.8,2.2
		c0.8,0.4,2.1,0.7,2.8,1.2c0.8,0.8,0.1,1.8,0.6,2.6c0.4,0.8,1.3,0.8,1.9,0c0.3-0.6,0.2-1.7,0.2-2.5c-0.1-1.7-0.2-3.4-0.4-4.9
		c1.6-0.3,1.5,0.4,2.5,1.3c0-0.4-0.1-2.7-0.4-3c-0.4-0.6-1.8-0.2-2.5-0.2c-1.7-0.1-1.6-1.2-2.5-2.2c-1-1.2-2.7-1-3.9-1.9
		c-0.7-0.6-0.7-1.7-1.3-2.4c-0.7-0.8-1.2-0.9-1.8-1.9c-0.8-1.5-2.2-3.3-2.5-4.8c-0.1-1,0.2-1.9,0.2-2.8c0-0.8-0.7-2.4,0.4-2.2
		c0.4,0-0.9-2.9-1.2-3.1c-0.4-0.4-1.1-0.6-1.6-1c-0.8-0.7-0.9-1.6-1.8-2.1c-0.7-0.4-1.5-0.8-2.2-1c-1.3-0.6-3-1-3.5-2.7
		c-0.2-0.7,0.1-1.5-0.1-2c-0.3-0.8-1.3-0.8-1.9-1.3c-1-1-0.2-1.2,0.1-2c0.1-0.2,0.8-1.9,0.3-2c1,0.4,0.7,1.2,2,1
		c1.1-0.2,1.1-0.4,1.1-1.7c0.2,0,0.4-0.2,0.7-0.1v-0.3c-0.3-0.2-0.4-0.4-0.7-0.8c0.6-0.9,1.3-0.6,1.6-1.7c0.2-1-0.2-1.9,0.6-2.7
		c0.7-0.6,1.7-0.4,2.5-0.9c0.4-0.2,0.6-0.7,1-0.8c0.4-0.1,1.2,0,1.7,0c1.8,0.2,3.8-0.4,5.6,0.4c0.9,0.4,1.3,1.2,2.2,1.7
		c1,0.4,2,0.3,3,0.8c1.9,0.8,2.6,2.7,4.7,2.5c1-0.1,1.9-0.2,2.9-0.1c1.3,0.1,1.7,0.8,2.6,1.5c0.1-0.3,0.3-1.5,0.1-1.8
		c-0.3-0.4-1.1-0.2-1.5-0.8c-0.4-0.8,0.1-2.9,0.3-3.7c0.4,0,0.9,0,1.5,0c0.3-1-0.6-0.9-0.7-1.6s0.1-1.3,0.2-1.9c1,0,0.8-1.7,0.9-2.5
		c1.2,0,2.2,0.1,3.4,0.4c-0.1,0,0.2,1.1,0.4,1.2c0.4,0.2,1.2,0.1,1.7,0c1.3-0.4,2.6-1.6,3.9-1.9c1.2-0.3,1.9-1,0.7-2
		c1.3-0.1,2.4,0,3-1.3c0.7-1.2,0.1-2-0.1-3.3s-1.1-1.8-1.3-3c-0.2-1.2,0.1-2.6,1.7-2.2c0,1,0.1,1.5,1.2,1.5c0.1-1-0.7-2.1,0.2-2.8
		c1-0.7,2.2,0.4,3.3,0.7c0.6,0.1,2.5,0.3,3,0c0.9-0.4,0.4-1.7,0.1-2.6c1.7-0.1,3.8,0.6,5.4-0.1c0-0.3,0.2-1.1,0-1.5
		c-0.3-0.8-1.1-0.9-1.5-1.9c-0.2-0.7-0.2-1.2-0.6-1.9c-0.7-1.2-2.7-2.7-2.4-4.2c0.2-1.6,2.9-0.7,2.5-2.6c-0.1,1.2-0.4,2,0.7,2.7
		c0.6,0.3,2,0.7,1.8-0.4c0,0,3.3-0.1,3.6,0c1,0.1,2.4,0.4,3,1.2c1.6,1.6,2.1,3.6,4.5,4.5c0.1-0.9-0.4-1.7-0.3-2.7c1-0.2,1.1,1,2,0.9
		c0.1-1.1-0.2-2.1,0.8-2.9c1.5-1,3.6-1.2,5.3-1.8c1.7-0.6,2.7-1.2,4.5-0.7c0.1-1.1-0.7-3.4,0.2-4.3c1-1,3,0,3.9,0.7
		c-0.4-0.4-1.2-0.6-1.7-0.9c-0.7-0.6-0.7-0.8-0.9-1.5c-0.4-1-1-1.8-1.5-2.8c-0.3-0.7-0.4-2-0.9-2.5c-0.4-0.4-1-0.1-1.5-0.8
		c-0.7-1-0.4-2.7-0.9-3.9c1,0.1,2,0.6,3,0.9c0.8,0.2,1.9,1.1,2.8,1c3.4-0.3,0.8-4.9,0.3-6.7c-1.6-5.1,4.3-3.4,7.3-2.6
		C1398,1398.5,1401.5,1398.3,1404.9,1397.9z"/>
	<path class="st0" d="M1302,1442.4c-0.2,0.1-0.8,1.6-0.9,1.9C1303.2,1444.5,1303.5,1442,1302,1442.4z"/>
	<path class="st0" d="M1311.5,1393.9c-0.4,0.4-0.7,0.7-1,1.1c-0.3,0.6-0.2,1.5-1.2,1.1c-0.1,0-0.3-0.3-0.4-0.3
		c0-0.9,0.2-1.7,0.1-2.6s-0.6-1.6-0.6-2.5c-0.1-1.6,1.7-2.8,3.1-2.6c0.8,0.1,2.1,1.3,2,2.1c0,0.4-0.6,0.7-0.8,1.1
		C1312.2,1392.3,1312.2,1393.1,1311.5,1393.9z"/>
	<path class="st0" d="M1353.1,1374.7c1.2-0.2,1.2-0.7,1.3-1.8c0.1-1,0.3-1.9,0.2-2.9c0-0.2-2.8-0.9-3.1-0.9
		C1348.4,1369,1349.7,1375.6,1353.1,1374.7z"/>
	<path class="st0" d="M1298.9,1391.4c-0.7,0.1-1.5,0.1-2.1,0.1c0.2-0.3,0.1-0.6,0.6-0.7c-0.1-0.1-0.6-0.2-0.7-0.2c0,0.1,0,0.3,0,0.4
		c-0.2,0.1-0.6,0.1-0.8,0.1s1.1-1.7,1.3-1.8C1298.6,1388.9,1298.9,1390.3,1298.9,1391.4z"/>
	<path class="st0" d="M1294.2,1370.4c1.9,0.3,3.1-0.2,4.9-0.6c0.8-0.1,1.6-0.1,2-0.7s0.4-1.8,0.3-2.6c-0.1-1.5-0.4-1.1-1.3-1.9
		c-0.6-0.4-0.8-1.2-1.5-1.2c-0.9-1.9-2.7-2.9-4.8-2.7c-1.2,0.1-1.7,0.8-2.6,1.1s-2,0.1-2.9,0c-1.9-0.2-3.9-1-6-0.7
		c-0.9,0.2-1.9,0.6-2.2,1.5c-0.1,0.4,0.1,1.1,0,1.6c-0.1,0.6-0.4,0.7-0.7,1.2c-0.4,1.1-0.2,3.1,0.7,4c1.6,1.6,4.3,1.2,6.3,1.1
		C1289.1,1370.3,1291.5,1370,1294.2,1370.4z"/>
	<path class="st0" d="M1343.9,1474.4c0.3,0.8,0.2,1.6,0,2.4c-0.1,0.1-0.3,0-0.4,0.1c-0.6,1.7-1.7,1.5-2.7,2.4
		c-0.9,0.8-1.3,2.8-2,3.8c-0.6,0.9-1.7,2.4-2.6,2.7c-1.3,0.6-3.3,0.1-4.6,0.4c0.2,2,1.5,3.3,0.8,5.5c1,0.1,2-0.3,3-0.2
		c1.2,0.1,1.2,0,2.4-0.7c1.5-1.1,2.4-2.5,2.6-4.4c0.9-0.2,1.6-0.3,2.4-0.7c0.6-0.2,1.9-0.2,2.2-0.6c1-0.8,0.6-3.9,0.6-5.1
		c-0.8-0.2-1.7-0.1-2.5-0.2c0.1-0.6,0.7-0.7,1-1.1c0.3-0.6,0.1-0.6,0.2-1.1c0.1-0.4-0.3-0.8,0.4-1c0.6-0.1,0.8,0.3,0.8,0.8
		c0.1,0.7,1.5-0.8,1.5-0.9c0.6-0.8,0.6-1.9,0.9-2.8c0.3-1.2,1-1.7-0.4-1.8C1344.9,1471.6,1345.2,1473.4,1343.9,1474.4z"/>
	<path class="st0" d="M1338.5,1496.2c0.1,0.6,0,1.2-0.3,1.7c-0.4,0.4-1.3,0.2-1.7,0.7s0,1.2-0.2,1.8c-0.1,0.6-0.7,0.7-0.6,1.3
		c-0.1,0-0.3,0-0.4,0c-0.9,0-1.7-4.3-1.7-4.8C1333.2,1492.6,1336.9,1496.7,1338.5,1496.2z"/>
	<path class="st0" d="M1345.2,1504.7c-0.8,1-1.8-0.1-1.5-1C1344.3,1502,1346.1,1503.5,1345.2,1504.7z"/>
	<path class="st0" d="M1341.4,1508.2c-0.4-0.2-0.6-0.8-0.4-1.2C1341.5,1507,1342.2,1507.8,1341.4,1508.2"/>
	<path class="st0" d="M1332.7,1516.1c-0.1,0.2-0.9,1.1-0.6,1.1c1.6,0.1,0.2,1.5,0.1,1.9c-0.3,1-0.1,1.7-0.7,2.6
		c-0.1,0.1-0.6,0.1-0.7,0.3c-0.1,0.2,0.1,0.6,0,0.8c-0.2,0.2-0.1,1-0.9,0.7c-1-0.4,0.1-1.6-1.6-1.7c0-0.2,0-0.4,0-0.7
		c0-0.2,0.9-0.7,1-1c0.3-0.8-0.2-2.2,0.1-2.8c0.4-0.8,1.3-0.4,2.1-0.4c0-0.2,0.1-0.6,0.1-0.7
		C1332.3,1516,1332.5,1515.8,1332.7,1516.1C1332.9,1516.1,1332.9,1516.1,1332.7,1516.1z"/>
	<path class="st0" d="M1322,1546.2c0.3,1.9-2.1,2.5-3.3,3.4c-0.6,0.4-1.2,0.9-1.9,1.3c-0.7,0.4-1,1.6-1.9,1.6
		c-0.8,0,0.4-2.4,0.7-2.5c0.9-0.9,2.4-1.6,3.5-2.2c0.6-0.3,1.1-0.3,1.7-0.6C1321.1,1546.9,1321.4,1546.2,1322,1546.2z"/>
	<path class="st0" d="M1233.1,1514.8c0,0.1-1.5,1.1-1.7,1.7c-0.6,2.1,3.4,0.3,2.9-0.9C1233.7,1515.7,1233,1515.6,1233.1,1514.8z"/>
	<path class="st0" d="M1225.9,1515.5c-0.8,0.1-1.7,0.1-2.4,0.2c-1,0.2-1.9-0.7-0.6-1.2C1223.5,1514.2,1226.1,1514.4,1225.9,1515.5z"
		/>
	<path class="st0" d="M1201.6,1524.7c-0.1,0.7-0.1,1.6,0.2,2.2c0.4,0.8,1.1,0.9,0.8,1.9c-0.6,0.3-0.7,1.1-1,1.5
		c-0.6,0.7-0.8,0.9-1,1.8c-0.3,1-0.9,2.9-2.1,3c-2,0.2-0.8-1.7-0.3-2.6c0.7-1.3,0.7-2.6,1.1-3.9c0.6-0.2,1.1-1,1.5-1.5
		c0.7-1.1,0.1-1-0.2-2c-0.1-0.2-0.1-0.9,0-1.2c0.2-0.4,0.6-0.4,0.8-0.7c0.3-0.6,0.7-3.3,1.8-2.7c1.1,0.6-0.7,1.5-0.9,1.8
		C1201.7,1523.1,1201.7,1523.9,1201.6,1524.7z"/>
	<path class="st0" d="M1187.8,1516.5c0,0-1.7-0.3-0.7-0.8c0.3-0.1,1.6,0.2,1.8,0.4c1,0.9,0.1,1.8,0.1,2.9
		C1187.8,1519,1188.3,1517.2,1187.8,1516.5z"/>
	<path class="st0" d="M1179.8,1533.7c-0.6,0.6-1.5,0.7-1.3,1.7c0.3,0,0.6,0.2,0.9,0.1c0,0.7,0.2,1.9-0.2,2.4
		c-0.1,0.1-0.8,0.1-1.1,0.2c-0.7,0.4-0.4,0.6-0.8,1.1c-0.4,0.8-0.8,1.1-0.9,2c-0.2,2,0.2,4,0.3,6.1c0.1,2.7-1.3,0.7-2.5,1.9
		c-0.3,0.3-0.3,1.5-0.4,1.9c-0.2,0.8-0.3,1-0.8,1.6c-0.3,0.6-1,2.7-1.8,2.6c0-1-0.1-2.2,0.2-3c0.4-1,0.9-1.1,0.9-2.5
		c0-1.9,0.3-3.6,0.2-5.5c-1.6,0.3-1.2-3.9-1.1-5.2c0.6,0.1,1.3,0.9,1.8-0.1c0.3-0.8-0.4-1.2-1.1-1.3c-0.3-1.1,0.6-0.8,0.7-1.3
		c0.1-0.7-0.2-1-0.3-1.6c-0.3-2,1.5-0.9,1.8-2.5c0.2-0.8-0.4-0.9-0.4-1.3c-0.1-1.2,0.4-0.8,1.1-1.5c1-0.8,0.6-2.5,0.6-3.7
		c1.5-0.1,1.8,0.4,3,0.7c-0.2,0-0.2-4.3-0.2-4.6c0-0.3,0.9,0.4,0.9,0.4c0.3,0.4,0.3,1.3,0.4,1.8c0.1,0.9-0.4,1.8-0.4,2.7
		c0,0.8,0.2,1,0.6,1.8C1180.3,1530.3,1181,1532.8,1179.8,1533.7z"/>
	<path class="st0" d="M1181,1535.8c-1.1-0.6,0.2-1.3,1.1-1C1182.1,1535.3,1181.6,1536.1,1181,1535.8z"/>
	<path class="st0" d="M1170.1,1548c-0.1-0.7,0-2.5,0.9-2.4c0,0.4,0.2,1,0.1,1.3C1171.2,1547.1,1170.1,1548.3,1170.1,1548z"/>
	<path class="st0" d="M1166.1,1525.1c0.8-2.1,2.6-0.8,3,1c0.2,0.1,0.7,0.1,0.9,0c0-0.2,0-0.4,0-0.7c-1.1,0.2-0.8-0.9-0.8-1.6
		c-1,0.2-1-0.9-0.9-1.6c0.4,0,0.8-0.3,0.7-0.9c-1.2-0.1-1.5-1-2.5-1.3s-1.8-1-2.9-0.9c-0.1-0.3-0.3-0.6-0.4-0.8
		c0,0.7-0.7,0.7-1.2,0.6c0,0.7,0.4,2.5,0,3c-0.8,0.8-1.9-0.1-2.2-0.7c-0.7,0.9-0.3,2-1.3,2.6c-0.8,0.3-2-0.3-2.6,0.7
		c-0.1,0.2,0.1,1.7,0.2,1.8c0.7,0.4,0.6-0.4,1-0.4c1.2-0.2,1.3,0.8,2.4,0.8c-0.1-1,1-0.9,1.7-0.9c0.1,1-0.4,1.9,0.2,2.6
		c0.4,0.4,0.7,0,1.1,0.6c0.2,0.3,0.2,0.9,0.2,1.3c0.1,1.3-0.2,4.9,1,5.5c-0.3-1.8,2.1-0.8,1.8-2.4c-2.4,0-1.8-1.6-1.9-3.5
		c0-0.9-1.6-3.7,0.3-3.6c-0.2,0-0.2-4.2,0.2-4.5c0.6-0.4,1.6-0.1,2,0.4C1166.7,1522.7,1166.2,1524.2,1166.1,1525.1z"/>
	<path class="st0" d="M1166.8,1533.9c0.1-0.2,0-0.6,0-0.8C1165.5,1533.7,1166.5,1534.7,1166.8,1533.9z"/>
	<path class="st0" d="M1167.9,1535.2c0.1-0.2,0.1-0.4,0-0.7C1166.2,1533.8,1167.1,1536.6,1167.9,1535.2z"/>
	<path class="st0" d="M1164.5,1539.6c-0.7-0.4-0.2-1.6,0.6-1.2C1165.5,1538.7,1165.5,1540.2,1164.5,1539.6z"/>
	<path class="st0" d="M1169.4,1518.7c0.2,0,0.3-0.1,0.4-0.2C1170.3,1517.9,1168.9,1517.4,1169.4,1518.7z"/>
	<path class="st0" d="M1159.9,1530.8c-0.8,1-1.1-1-1.1-1.6C1159.2,1527.1,1160.6,1530.1,1159.9,1530.8z"/>
	<path class="st0" d="M1156.9,1529.3c0-0.2-1.2-0.1-0.8-1C1156.8,1527.2,1157,1529,1156.9,1529.3z"/>
	<path class="st0" d="M1151.6,1530c-0.1-0.6-0.6-1-0.6-1.6C1151,1527.9,1153.6,1530.2,1151.6,1530z"/>
	<path class="st0" d="M1144.1,1527.8c0.4,0,1,0.3,1.5,0.2c0.4-0.1,0.6-0.9,1-1c0.7-0.1,1.1,0.7,1,1.2c-0.1,0.6-0.9,1.1-1.2,1.6
		c-0.6,0.7-0.9,1.3-1.1,2.1C1144.5,1531.7,1143.7,1527.8,1144.1,1527.8z"/>
	<path class="st0" d="M1154.5,1530.7c0.4,0,1.9,1.7,2.2,2.1c0.4,0.6,1.3,2.2,1.3,2.9c0.2,1.5-1.9,0.9-1.5,2.4
		c0.6,0.3,0.9,0.9,1.7,0.8c0.1,1.3,0.6,2.1,0.7,3.4c-0.6-0.1-0.9,0.1-0.8,0.6c1.5,0,0.8,2.7,0.4,3.5c-0.4,1.1-0.4,2.4-0.9,3.5
		c-0.2,0-0.3,0-0.6,0c0-0.8,0.2-1.5,0.2-2.1c0-0.9-0.8-1-0.9-1.8c-0.1-0.6,0.4-0.9,0.8-1.5c0.3-0.6,0.4-1.2,0.3-1.9
		c-0.4,0-0.7-0.1-1,0.2c-0.2-1-0.4-2-1.1-2.8c1.2-0.6,0-2.6-1.2-1.2c-0.6,0.7-0.9,2.5-0.9,3.3c-0.7-0.2-0.2-3.8-0.2-4.7
		c0.9-0.4,0.3-1.6-0.4-1.6c-0.9-0.1-1.3,0.7-1.8,1.2c-0.1-0.7-0.9-2.7,0.4-2.5c0.3,0,0.6-1.7,0.8-1.9
		C1152.5,1531.8,1154,1530.8,1154.5,1530.7z"/>
	<path class="st0" d="M1152.4,1549.3c0-0.1,0-0.2,0-0.3c0-0.4,0-0.8,0.1-1.2C1153.2,1548.1,1153.7,1549.8,1152.4,1549.3z"/>
	<path class="st0" d="M1151.4,1553.4c-0.1-0.7,0.4-1.1,0.2-1.8c-0.1-0.3-1.9-2.7,0-1.3c0.6,0.4,0.7,1.2,0.7,1.9
		C1152.3,1552.3,1151.4,1553.5,1151.4,1553.4z"/>
	<path class="st0" d="M1144.3,1547.2c-0.6,0.1-0.8-0.4-1-0.9c-0.6,0.9-1.3,1.5-1.6,0.1c-0.1-0.9,0.4-2.4,0.3-3.4
		c-0.7,0.1-1-0.3-0.9-1c0.3,0,0.8-0.1,1.1,0c0.1-0.3,0.3-0.8,0.3-1.1l-0.2-0.1c-0.1-0.1,0.7-0.2,0.8-0.2c0.4,0.1,0.6,0.7,0.9,0.9
		c1,0.8,1.5,0.6,1,1.8c-0.2,0.4-0.6,0.7-0.7,1.2C1144.2,1545.3,1144.4,1546.3,1144.3,1547.2z"/>
	<path class="st0" d="M1119.1,1479.1c0.1,0.3,0.7,1.1,0.9,1.5c0.4,0.7,0.1,1,1.2,0.8c0.7-0.2,1.1-0.7,1.9-0.7c0.1,0.7-0.2,2-0.7,2.6
		c-0.6,0.7-1.9,0.3-2,1c-0.9-0.1-1.3,0.6-1.3,1.3c-0.8,0.1-0.7-0.6-0.6-1.2c-0.9,0-0.7-0.7-0.8-1.3c-0.1-0.8-0.1-0.9-0.4-1.6
		c-0.6-1.3-0.7-1.9,0-3.1c-0.2,0-0.6-0.2-0.8-0.2c0.3-0.2,0.4-0.3,0.9-0.3c0-0.2,0-0.6,0-0.7c-0.4,0-0.9-0.4-0.4-0.9
		c0.2-0.2,1.2,0,1.6,0c0-0.3,0.2-0.7,0.1-1c0.6,0,1.7-0.3,1.8,0.3C1120.7,1476.5,1118.8,1477.7,1119.1,1479.1z"/>
	<path class="st0" d="M1106.4,1474.6c-0.2-1.3-0.2-2.7,1.6-2c0.4,0.1,0,1.2-0.1,1.3C1107.5,1474.3,1106.8,1474.2,1106.4,1474.6z"/>
	<path class="st0" d="M1063.8,1483.7c0.4,0.1,0.6,0.4,0.6,0.8c-0.6,0-1-0.3-1-0.8C1063.5,1483.7,1063.6,1483.7,1063.8,1483.7z"/>
	<path class="st0" d="M1030.9,1481.9c-0.1,1-0.4,0.4,0.3,1.3c0.2,0.2,0.3,0,0.6,0.4c0.2,0.3-0.1,0.9,0.2,1.2c0.9,1.3,2.9,0,2.5,2.6
		c-0.2,1.3-2.7,1.5-2.6,2.4c1.1,0.1,0.4,1.3,0.1,1.7c-0.6,0.7-1.3,0.8-1.9,1.6c-1.5,2.1,1,4.8-0.6,7.3c1.3,0.7,1.5,0.7,1.7,2.4
		c0.1,1.3,0.9,1.6,1.3,2.7c-1.1,0.6-4.7-0.8-5.4-1.7c-0.2-0.3-0.1-0.9-0.4-1.2c-0.3-0.3-1-0.3-1.6-0.4c-0.9-0.2-2.5-0.6-3.1-1.2
		c-0.6-0.7-0.2-1.7-0.3-2.7c-0.1-1.6-0.9-1.3-1.7-2.4c-0.6-0.8,0.1-2-0.4-2.9c-0.2-0.2-0.9-0.4-1.2-0.7c-0.4-0.3-0.6-1-1-1.5
		c-2.2-2.4-4.9-4.4-8.7-3.8c-0.1,0.6,0.2,0.9,0.7,1c-1.1,0.1-1.6-0.8-2.2-1.5c-0.4-0.4-1.6-0.9-1.9-1.6s0.1-1.8-0.3-2.5
		c-0.2-0.2-0.9,0-1.2-0.6c-0.2-0.3-0.2-1.1-0.1-1.6c0.3-2.4,2.4-2.5,4.4-2.6s4.7-1,6.3-2.5c0.7-0.7,1-1.5,1.8-1.9
		c2-1.2,6.5-2.4,8.2-0.1c0.3,0.4,3.5,7.2,3.9,6.7C1029.7,1479.1,1031,1480.2,1030.9,1481.9z"/>
	<path class="st0" d="M1033.7,1490.6c1.1-0.2,0.9-1.7,2-1.8c1.3-0.2,1.5,1.1,2.2,1.9c0.2-0.8,0.1-1.6,0.1-2.4c0.1,0,0.2,0,0.3,0
		c-0.1-0.2,0.1-0.7,0-0.9c0.2-0.1,0.6-0.1,0.8,0c-0.1,0.4-0.1,0.8-0.2,1.1c0.9,0.3,2.1,1.7,1,2.6c-0.8,0.7-5.8,0.4-6.5-0.3
		c0.4-0.2,1.1-0.1,1.7-0.1"/>
	<path class="st0" d="M1046.3,1489.5c-0.1,0.1-1.5-1.1-1.8-0.2C1044.3,1490.3,1046,1489.8,1046.3,1489.5z"/>
	<path class="st0" d="M1042.4,1490.9c-0.1,0,0.4-1.6,1-1.2C1044.3,1490,1042.9,1490.9,1042.4,1490.9z"/>
	<path class="st0" d="M1051.9,1488.3c0.1-1,1.2-1.2,2.1-1.3c1-0.1,1.8-0.4,2.8-0.8c-1.1-0.4-2.9-0.4-4.2,0c-0.3,0.1-0.6,0.3-0.8,0.6
		c-0.2,0.2-0.6,0.8-0.7,0.9c-0.7,0.4-3.8-1.1-3.8,0.4C1047.4,1488.1,1051.7,1488.3,1051.9,1488.3z"/>
	<path class="st0" d="M1037.2,1407.1c-0.3,0.3-1.1,0.9-0.9-0.1l0.3-0.2c0.1-0.1,0-0.4,0.1-0.6c0.2-0.3,0.8-0.6,1.2-0.6
		C1038.1,1406.3,1037.7,1406.6,1037.2,1407.1z"/>
	<path class="st0" d="M1145.2,1408.4c-0.4-1.5-1.2-3.4-2.8-3.9c-1-0.3-2.7-0.3-3.5,0.4c-0.7,0.7-0.9,1.8-1.6,2.5
		c-1.1,1.2-2.5,3.7-2.6,5.5c1.3,0.1,2.5,0.1,3.7-0.2c0.9-0.2,2-0.7,3-0.7c1.2,0,2.4,0.4,3.3-0.6
		C1145.4,1410.7,1145.4,1409.4,1145.2,1408.4z"/>
	<path class="st0" d="M2194.5,1652.3c2.9,1.1,6,2.8,9.2,2c1.1-0.2,3.7-0.7,4.5-1.7c0.9-1.1,0.4-3.7,0.8-5.2c0.7-2.7,2.9-6.6,1.5-9.6
		c-1.6-3-11.1-3.5-13.4-1.1C2196,1638,2195.2,1652.6,2194.5,1652.3z"/>
	<path class="st0" d="M2219.7,1617c2.4,0.9,4.8,0.7,6-1.8c0.4-1.1,1.7-4.7,1.7-5.8c-3.3-0.7-6.6-1.6-9.9-2.2
		c-1.5-0.3-1.8-1.5-2.9-0.1c-0.7,0.8-0.3,2.6-0.2,3.4C2214.8,1613.5,2216.8,1615.9,2219.7,1617z"/>
	<path class="st0" d="M631.4,1947.9c0,2.1,0.1,4.9,1.3,6.7c0.2,0.3,0.6,0.4,0.8,0.8c0.3,0.3,0.6,0.8,0.8,1.2c0.4,0.7,1,1.3,1.9,1.7
		c0.8,0.3,1.2,1.2,2,1.7c0.4,0.2,0.9,0.3,1.1,0.8c0.3,0.6,0.2,0.7,0,1.1c-0.8,1.2-0.6,2.4-0.7,3.8c0,1.3,0.3,2.6,1.3,3.5
		c0.7,0.6,1.1,0.6,1.9,0.9c1,0.3,1.1,1,2,1.5c1.8,1.1,3.5,0,5.3,0c1.3,0,3.7,0.4,4.7,1.6c0.7,0.9,0.3,2,0.8,2.9
		c0.3,0.7,1,1.3,1.5,1.9c0.8,1.2,1.5,1,2.6,1.6c0.6,0.3,0.7,0.6,1.3,0.7s1.1,0.1,1.7,0.1c-0.1,0.8,0.7,1,1.2,1.2
		c0.4,0.1,1.1,0.4,1.6,0.3c0.4,0,0.9-0.6,1.2-0.6c1.6,0,3.7,4.9,4.4,6.2c0.8,1.3,1.3,2.9,2.1,4.3c0.7,1.1,1.9,2,2.4,3.4
		c-2.1-0.3-2-3.7-4-3.8c0.4,2.8-1.2,2-2.8,1.5c-1-0.3-0.8-0.8-2.1-1c-0.9-0.1-1.6,0.3-2.5,0.4c-3.8,0.3-7.2,0.1-10.9,0.6
		c-0.7,0.1-1.5,0.3-2.2,0.2c-0.8-0.1-0.8-1.2-1.9-1c-0.6,0.1-0.9,1.5-1.3,1.8c-0.8,0.6-1.6,0.7-2.5,0.9c-1.5,0.3-3.1,0.7-4.6,0.9
		c-1.7,0.2-3.4-0.3-5.1,0c-0.8,3.9-5.3-0.1-7.1-0.1c0.1-0.9,0.1-1.1,1.1-1.5c0.2-0.9,0.8-2.9,0-3.7c-0.1,0-0.3-0.1-0.4-0.1
		c-0.2,0.7-0.1,1.3,0,1.9c0.2,0.7,0.2,1,0,1.7c-0.3,0.2-0.6,0.7-1,0.7c-0.6,0-1.1-0.8-1.6-1.1c-0.8-0.6-1.6-1-2.4-1.5
		c-1.8-1.2-4-2.5-4.9-4.5c-0.7-1.5,0.2-4-1.6-4.7c-0.4-1.6,1.2-2.7,2.1-3.6c0.6,1,0.2,2.4,0.7,3.3c0.4,0.9,1.7,1.1,2,2.4
		c0.6,0.2,2.4,0.8,2.8,0.2c0.2-0.2,0.2-1.9,0.2-2.4c0-0.8-0.3-1.5-0.7-2.1c-0.3-0.9-0.7-1.7-1-2.5c-0.2-0.6-0.4-1-0.7-1.6
		s-0.7-0.9-1-1.5c-0.4-0.6-0.7-0.8-1.3-0.9c-0.4,0-1,0.2-1.5,0c-0.2-0.1-0.6-0.8-0.7-1.1c-0.2-0.8-0.3-1.6-0.6-2.2
		c-0.2-0.6-0.2-1.1-0.1-1.7c0.2-0.8,0.9-1.2,1.7-1.3c1.9-0.4,3.9-0.4,4.6-2.8c0.3-1.2,0.4-2.5,0.4-3.7c0-0.4,0.2-0.9,0.1-1.2
		c-0.1-0.4-0.6-0.7-0.7-1c-0.1-0.6-0.1-1.1,0-1.7c0-0.6,0.3-1.5,0.7-1.9c0.3-0.4,0.8-0.4,1.5-0.2c1,0.2,1.8,1.1,2.7,1.7
		c-0.3-0.1,0.1-2.4,0.1-2.8c0-1.2-0.1-2.4-0.9-3.3c-0.1-0.2-0.3-0.4-0.6-0.7s-0.6-0.2-0.8-0.3c-0.4-0.3-0.3-1-0.7-1.6
		c-0.3-0.7-1-1.1-1.3-1.8c-0.4-0.8-0.2-1.8-0.7-2.6c-0.2-0.4-0.6-0.9-0.8-1.5c-0.3-0.9-0.3-2-0.3-3c0-0.7,0.1-1.1-0.3-1.6
		c-0.3-0.4-0.8-0.7-1.2-1c-1-0.8-2.2-2.5-2.5-3.8l0.7,0.3c0.2,0.2,0.3,0.4,0.6,0.8c0.2,0.3,0.7,1.5,1.2,1.5c1.1,0,0.1-3.3,0.2-3.9
		c0.1-0.3,1.6,3.1,1.7,3.4c0.7,1.6,1.9,2.7,2.9,3.9c0.8,0.9,1.2,2.1,2,3C630.1,1944.1,631.4,1944.1,631.4,1947.9z"/>
	<path class="st0" d="M631.4,1931.8c0-0.3,0.7-0.6,1-1.1c0.2-0.3,0.2-0.7,0-1.1s-0.6-0.7-1-0.7
		C631.1,1929.7,631.4,1930.8,631.4,1931.8z"/>
	<path class="st0" d="M617.6,1927.6c-0.4-0.2-0.9-0.1-1.3-0.6c1.1,1-0.7,1.9-1.5,1.8c-1.1-0.1-2.5-1.9-2.9-2.9
		C610,1921.8,617.8,1922.9,617.6,1927.6z"/>
	<path class="st0" d="M600.2,1950.3c3.3,2,5.8,2.5,7.1,6.4c0.8,2.6,3.5,7.5,0.6,9.6c-2.1,1.5-4.7,0.3-6.9-0.4
		c-0.9-0.3-2.4-1-3.4-0.8c-0.9,0.2-1.8,1.3-2.7,1.8c-0.9,0.4-1.2,0.8-2.1,0.4c-0.8-0.2-1.7-0.6-2.5-0.8c-0.8-0.2-1.3-0.2-2-0.9
		c-0.4-0.4-1.3-1-1.6-1.7c-0.2-0.7,0.2-1.5,0-2.1c-0.3-0.7-1-0.9-1.2-1.7c-0.1-0.6-0.3-1.8-0.2-2.4c0.1-0.7,0.8-1,1.1-1.6
		s0.3-1.2,0.3-1.8c1.7-0.1,1.8,2.4,3.1,2.8c1.9,0.6,1.6-1.9,1.8-3.3c0.2-1.8-0.2-4.7,1-6.2C594.7,1945.1,598.3,1949.2,600.2,1950.3z
		"/>
	<path class="st0" d="M613.4,1995.9c0.8,1.6,3.3,1.7,4.5,0.8c0.9-0.7-0.3-3.9-0.9-4.6c-0.7-0.9-2.6-2.5-3.5-1.5
		C613,1991.2,613.1,1995.1,613.4,1995.9z"/>
	<path class="st0" d="M471.4,1983.8c1.6,0.8,3.1,2.2,4.7,2.9c0.4-1.1,0.2-2.2-0.3-3c-0.1-0.2-1-0.3-1.2-0.6
		c-0.4-0.6-0.3-1.3-0.9-1.7c-0.7-0.3-3.3-0.2-3.7,0.3c-0.8,1.1,1.2,1.6,1.9,2.2"/>
	<path class="st0" d="M481.7,2012.9c0.4,1.1,0.4,3.8-0.1,5.1c-0.7,1.7-2.4,2.2-3.8,3c-1.6,0.9-3.4,1.8-5.3,1.3
		c-1-0.2-2.9-0.8-3.7-1.3c-1.5-0.9-0.9-1.3-1.6-2.9c-0.4-1.1-0.9-2.4-0.7-3.6c0.2-0.9,0.8-1.2,1.3-1.9c0.6-0.9,0.4-2,1.5-2.6
		c0.9-0.6,2.2-0.4,3.3-0.6c2-0.2,3.5,0.3,5.3,1.1C479.5,2011.1,481,2011.1,481.7,2012.9z"/>
	<path class="st0" d="M377.6,2025.6c-0.1,1.9-0.4,3.4-0.3,5.4c0.1,1.6-0.8,2.7-0.9,4.2c0,0.4,0.1,1.1-0.1,1.5
		c-0.1,0.3-0.6,0.8-0.8,1.1c-0.3,0.3-0.7,0.7-1.2,0.8c-0.8,0.1-0.9-0.1-1,0.8c-0.1,1.3-0.9,1.5-2,2c-0.4,0.2-1.1,0.3-1.5,0.7
		c-0.3,0.4-0.4,1-0.8,1.5c-0.2,0.3-0.6,0.6-0.9,0.8c-0.7,0.6-0.4,1.8-0.4,2.6c-0.1,0.9,0.2,1.2,0.9,1.8c0.4,0.3,0.6,1.2,0.4,1.8
		c-0.1,0.4-0.6,0.8-0.9,1.2c-0.2,0.3-0.4,0.7-0.8,1c-0.7,0.7-1.1,1.3-1.7,2c-0.7,0.8-1.5,1.5-2.5,2c-1.7,1-1.3,2.8-1.5,4.5
		c-0.1,1.1-0.3,2.5-1.3,3.3c-1.1,0.8-2.5,1-3.6,1.9c-1,0.9-1,1.9-1.7,3c-0.6,0.8-1.2,1-1.5,2c-0.6,2,0.2,3.6,0.8,5.4
		c0.1,0.6,0.4,1.3,0.2,1.9s-0.8,1-1.1,1.7c-0.6,1.3-0.4,2.9,0.1,4.3c0.4,1.1,1.3,1.6,1.3,2.9c0.1,1.7-0.4,3.1-0.9,4.7
		c-0.4,1.6-1.2,2.7-0.9,4.4c0.6,4.3-0.1,14.5-6.4,13.9c-2.9-0.3-1.3-1.9-3.5-3.1c-1.3-0.8-2.6-0.2-3.4,0.9c-0.9,1.2-0.1,2.6-1.3,3.7
		c-0.4,0.3-0.7,0.9-1,1.2c-0.4,0.4-0.9,0.8-1.3,1.1c-0.8,0.7-1.9,0.7-3,0.7c-1.8,0-3.6-0.1-5.4-0.2c-0.6,0-0.9-0.1-1.5,0
		c-0.2,0-1.3,0.2-1.5,0.1c0.1,0.2,0,0.2,0.2,0.3c0.1,0.2,0,0.4,0,0.7c-1.3,0-2.9-0.7-1.2-1.5c1-0.4,2.9-0.3,2.5-2.1
		c-0.6,0.1-1.3-0.2-1.9-0.1c0.1-0.8-0.1-1.2,0.4-1.9c-1.9-1.9-3.3-3-5.8-3.7c-2.4-0.7-4.8-2.8-3.3-5.8c1.3-2.8,5.3-1.1,6.7-3.6
		c0.9-1.5,0.2-3.3,0.6-4.8c0.2-1.3,1-2.7,0.7-4.2c-1,0-1.8-0.6-2.6-1c-0.3-2.2-0.8-2.5-2.2-4.2c-0.7-0.8-0.7-1.8-1.8-2.2
		c-1.1-0.4-0.6,0.8-0.8,1.5c-0.1,0.4-0.7,0.4-1.1,0.2c-0.4-0.2-0.4-0.9-0.8-1.1c-0.8-0.4-2,0.2-2.5,0.9c-0.4,0.8-1.5,1.7-2.4,2
		c-0.3,0.1-0.7,0.1-0.8,0.3c-0.1,0.1-0.1,0.6-0.1,0.7c-0.1,0.4-0.6,0.8-0.6,1.2c-0.1,0.1-0.1,0-0.1,0.1c-0.9,0.1-0.6-0.8-0.9-1.5
		c-0.2-0.6-0.6-1-1-1.3c-0.8-0.8-1.8-1.3-2-2.5c-0.6-3,3.1-2.7,2.7-5.1c-0.6-0.1-0.8-0.6-1.3-0.6c0.4-1.5,3.5-1,4.8-0.9
		c2.7,0.1,2.1,1.2,4,2.2c0.9,0.4,2.7,0,3.1-0.8c0.9-1.5-0.3-0.8-0.6-1.6c-0.2-1.6-0.4-2.9,0.7-4c0.6-0.6,0.8-0.2,1-1.2
		c0.1-0.6,0.1-1.5-0.2-1.9c-0.3-0.4-1.1-0.2-1.6-0.4c-1.3-0.7-1.3-1.3,0.1-1.6c1.5-0.2,2.7,1.2,3.9,1.9c0.7,0.3,1.3,0.3,1.9,0.8
		c0.6,0.4,1.1,1,1.5,1.7c0.2,0.4,0.2,1.1,0.4,1.6c0.3,0.6,0.8,1,1.2,1.6c0.3,0.3,0.6,0.9,0.9,1.2c0.4,0.4,1,0.6,1.6,0.7
		c1.7,0.6,4.7,1.7,6.5,0.8c0.7-0.3,1-1.1,1.3-1.8c0.1-0.4,0-0.4,0.4-0.7c0.2-0.1,0.6-0.1,0.9-0.2c0.7-0.1,1.2-0.1,1.9-0.1
		c1.5,0.1,0.8,0.7,1.9,1.2c0.7,0.3,1.7-0.2,2.4-0.2c0.9-0.1,1.3,0.2,1.8-0.7c0.2-0.4,0.4-1.9,0.3-2.4c-0.2-0.9-0.9-1-0.7-2
		c0.1-0.8,0.6-1.6,0.8-2.5c0.2-1,0.7-1.2,1.2-2c0.3-0.6,0.9-1.3,0-1.7c0-0.8-0.2-1.9,0.4-2.4c0.8-0.6,2,0.2,2.9-0.4
		c1.2-1,1.1-3.1,1.9-4.4c1.1-1.7,2.2-3.5,4.2-1.5c0.6,0.7,2.4,4.8,3.7,3.8c0.6-2.4,0.2-4.4,1.3-6.6c0.4-1,0.6-1.8,0.8-2.9
		c0.1-0.7,0-0.9,0.6-1.3c0.4-0.3,1.2,0,1.6-0.4s0.2-3,0-3.7c-1.3-0.2-3.3-1.5-2.8-3c0.3-1.2,2.1-1.8,3.1-2.5
		c1.2-0.8,1.5-1.6,1.9-2.9c0.3-1,1-1.9,1.5-2.8c0.8-1.7,1.2-3.4,1.3-5.3c0.1-1-0.2-3.5,1.3-3c0.2,0,0.4,0.7,0.7,0.8
		c0.4,0.3,1.2,0.6,1.8,0.7C375,2025.5,376.3,2025.5,377.6,2025.6z"/>
	<path class="st0" d="M372.3,2021.2c0-0.1,0-0.2,0-0.3c0,0-0.8,0.2-0.3,0.9C372.2,2021.6,372.3,2021.4,372.3,2021.2z"/>
	<path class="st0" d="M311.5,2113.9c0.2,0.2,0.4,0.6,0.7,1.1c0.3,0.9,0.6,2.1,0.4,3c-0.1,0.8-0.7,1-1.1,1.6
		c-0.6,0.7-0.8,1.2-1.7,1.6c-0.8,0.2-1.7,0.2-2.5,0.2c-0.6-1.1-1.3-2.2-1.2-3.6c0.1-1,0.7-2,0.8-3c0.2-0.9,0.1-4.4,2.1-3.3
		c0.6,0.3,0.8,1,1.3,1.5C310.7,2113.3,311.2,2113.6,311.5,2113.9z"/>
	<path class="st0" d="M296.7,2107.5c-0.1,0.1-0.3,0-0.4-0.3c-0.1-0.2-0.1-0.8,0-1.2c0.1-0.6,0.4-1,0.9-0.6
		C297.5,2105.6,297.2,2107.4,296.7,2107.5z"/>
	<path class="st0" d="M287.2,2104.9c-0.8,1.1-2.7-0.2-2.5-1.5C285.4,2103.3,288.2,2103.3,287.2,2104.9z"/>
	<path class="st0" d="M282.6,2108.2c1.1,0.6,1.7,1.5,0.1,2.1c0.4,0.8,0.8,1.8,1.6,2.2c0.7,0.4,1.9,0.4,2.4,1.2
		c1.1,2.1-2.7,3.8-4.2,2.9c-0.1-0.9,0.1-1.3-0.6-1.8c-0.4-0.3-1.7-0.3-2.4-0.6c-0.9-0.3-4-0.3-4.5-1.1c-0.8-0.1-1.6,0.2-2.4,0.1
		c-0.6-1.8,4.3,0,4.5-2.1c0.1-0.8-0.9-1.6-1.1-2.5c-0.2-1.3,1.3-2,2.5-2.1C279.9,2106.6,281.3,2107.5,282.6,2108.2z"/>
	<path class="st0" d="M292.8,2136.6c1.1-0.3,2.4,0.8,2.5,2c0.1,0.7,0.1,1.6,0,2.2c-0.2,1.7-1.9,3.4-3.3,4.2
		c-1.7,0.9-3.9,1.3-4.8-0.8c-0.7-1.6-1.9-3.1-2.2-4.8c-0.3-1.2-0.2-2.9,0.9-3.8c0.9-0.7,2.5-0.6,3.4,0c0.4,0.3,0.7,0.9,1,1.1
		C290.8,2137.2,292.1,2136.7,292.8,2136.6z"/>
	<path class="st0" d="M269,2148.8c-2.7,1,0.9-2.6-0.9-3c1-0.6,2-0.4,2.8-1.6c0.3-0.4,0-1,0.7-1.1c1.3-0.2,1.1,1.8,0.8,2.6
		C271.8,2147.2,270.5,2148.3,269,2148.8z"/>
	<path class="st0" d="M263.6,2151.7c0.3-0.1,3.8-1.3,3.8-1.3c-0.2,1.2,1.6,3.3-0.6,3.9s-1.8-2-3.3-2.4"/>
	<path class="st0" d="M237.4,2069.7c-1.1,0-1.5-1.3-1.8-2.2c-0.6-1.6,1.3-2,2.4-1.1C239,2067.3,239.1,2069.7,237.4,2069.7z"/>
	<path class="st0" d="M231.8,2083.6c0,0.8-0.2,1.8,0,2.2c0.2,0.6,1.3,0.9,1.9,1.2c0.6,0.2,1.7,0.7,1.8,1.2c0.1,0.8-0.9,1-1.2,1.6
		c-0.8,1.7,0.4,3,1.3,4.2c1.3,1.6,2.7,0.4,1.8-1.3c0.7-0.1,1.2-0.1,1.9-0.1c-0.1-1.5,0.3-3.4,2.2-2.9c0.9,0.2,1.5,0.8,2.4,1
		c0.8,0.1,1.6-0.1,2.4,0.1c-0.1,0.7,1.2,2.6,1.9,2.7c1.7,0.3,1.5-2.1,1.5-3c0-0.3,2.1,0.3,2.2,0.4c1.2,0.7,1.5,1.6,1.5,2.9
		c0,1.5,1.6,2,1.5,3.4c-0.1,0.4,1.7-1.2,1.5-1.1c0.7-0.2,1.2,0,1.3,0.7c1.2-0.6,2.4-0.1,3.5,0.4c1.1,0.7,2.4,1.2,2.7,2.4
		c0.4,1.6,0.4,2.4,2.1,2.9c0.7,0.2,3.5,0.7,3.7-0.2c1.8-0.3-0.1,1.5-0.3,1.8c-0.7,0.9-0.9,2.6-0.9,3.7c-0.7,0-1.2,0.4-1.2,1.1
		c1.3-0.1,1,2-0.3,1.7c0-0.4,0.3-2.1-0.6-1.3c0,0-0.6,2-0.7,2.1c-0.1,1.3,0.8,3.1,0.6,4.7c-0.2,0-0.4,0.1-0.7,0
		c-0.1,0.2-0.2,0.7-0.1,0.9c0.8,0.4,0.8,1.8,0.6,2.6c-0.4,0-1.5-1.3-1.8-1.7c-0.4-0.4-1.5-1.7-1.3-2.5c-1,0.3-0.3,1.3-1.9,0.9
		c0.2-0.1,0.3-0.1,0.6-0.1c0.3,0.4,0.7,1,0.4,1.7c-1.5,0.4-0.8,1.1-1.6,1.9c-0.1-0.3-0.2-0.7-0.2-1c0,0.6,0.2,1.6-0.1,2
		c-0.2,0.4-0.8,0.4-1,0.9c-0.2,0.4,0.1,1-0.1,1.5c-0.3,0.7-0.9,0.6-1,1.3c0,0.1,0.7,1.3,0.8,1.7c0.2,0.7,0.3,1.5,0.3,2.1
		s0.4,4.2-0.1,4.5s-1.2-1.1-1.6-1.3l-1-0.3c-0.2-0.1-0.4-0.6-0.8-0.7c-0.9,1.7-4-2-4.7-2.8c-0.8-0.9-1-1.6-2-1
		c-0.7,0.3-0.1,0.7-1.2,0.7c-0.7,0-1.1-0.2-1.8-0.1v0.3c1.3,0.2,2.6,0.1,3.9,0.2c0.2,0.8,0.9,0.8,1.5,1.3c0.2,0.2,0.3,0.6,0.6,0.8
		c0.1,0.1,0,0.3,0.1,0.4c0.1,0.2,0.4,0,0.6,0.1c1,1.1,1.9,2.6,1.2,4.4c-0.1,0-0.3,0-0.4,0c-0.1,1.5,0.6,3.6-1,3.9
		c-1.2,0.2-3.6,0-4.7-0.6c-2-0.9-2.6-2.4-4.3-3.6c-2.7-2-6.2-1.1-9.2-0.8c-0.3,0-1.1,0.1-1.5,0.1c-0.8-0.1-0.9-0.4-1.6-0.8
		c-1.8-0.8-4-1.3-6-1.2c-2,0.1-4.4-0.1-6-1.5c-2.7-2.2-5.5-5.6-9.1-6.4c-0.1,1.3-0.6,2.4-0.4,3.5c0.1,1.1,0.4,2.1-0.4,3.1
		c-0.6,0.7-2.2,0.4-2.9,0.3c-1.1-0.2-1.5-1.3-2.5-1.7c-1.1-0.4-1.7,0.9-3,0.7c-3.6-0.7-3.8-5.3-5.5-7.8c-0.2-0.3-0.7-0.4-0.9-0.7
		c-0.4-0.4-0.6-1.6,0-1.8c0.6-0.3,1.6,0.8,1.5-0.7c1-0.2,2.1,0.6,3.3,0.7c0.1,0.8,0.4,1.9,1.5,1.5c1.2-0.6,0.1-1.5-0.1-2.1
		c-0.1-0.4,0.1-1,0-1.5c-0.1-0.7-0.2-0.7-0.4-1.1c-0.6-1-0.9-1.7-0.1-2.9c0.8-1.1,0.9-0.2,1.9,0.4c0.8,0.6,1.8,0.4,2.7,0.9
		c1.8,0.7,1.2,3.1,1.2,4.9c0-1,0.9-1,1.3-0.3c0.2-0.3,0.4-0.6,0.8-0.8c-1-1-1.1-0.2-1-1.7c0.1-1.1-0.3-1.5-0.8-2.5
		c-0.7-1.6-1-3.8-1-5.6c0-0.4-0.3-0.9,0.1-1.2c0.7-0.4,0.9,0.2,1,0.6c0.2,0.6-0.4,0.8-0.2,1.3c0.1,0.3,0.7,0.7,0.9,0.9
		c1,1.3,0.4,3.1,1.7,4.3c0-1.9,0.2-2.2,1.7-3.3c0.4-0.3,1.1-1.7,1.6-1.9c1.8-0.6,0.7,4.2,0.8,5.1c0.2-0.3,0.4-0.7,0.4-1.1
		c0.6,0,1.1,0,1.7,0.1c0,1.1-0.1,2.4,0.2,3.4c0.6,0.3,0.3,1.5,0.3,2.1c0.3-0.7,0.1-1.6,0.8-2c0.7,0.3,0.6,1.6,0.9,2.2
		c0.4,1,0.7,1.2,0.7,2.4c0-1.1,0.3-1.8,0.4-2.8c0.2-1.1-0.2-1.7-0.6-2.6c-0.7-1.7,0.2-3.4,0-4.9s-2.4-3.1,0.7-3.5
		c0.7-0.1,2,0,2.5,0.3c0.9,0.7,0.4,1.8,0.6,2.9c2.7-0.9-1.6-4.8-1.8-5.7c-0.1-0.3,0.1-1-0.2-1.2c-0.3-0.3-1.2,0.1-1.6-0.1
		c-0.6-0.4-0.9-2.6-0.6-3.3c0.4-1.1,2.7-1,2.2-2.7c-0.7-0.4-1.2-0.9-1.5-1.6c-0.2-1,0.3-1.6-0.6-2.1c-0.8-0.1-1.2-1-1-1.8
		c0.9-0.1,1.9,2.7,2.8,0.6c0.6-1.2-0.9-2.2-0.7-3.5c1.6-0.2,2.7-2.4,2.6-3.9c1,0,2.9-0.7,3.5,0.1c0.7,0.9-0.4,2.8,0.4,3.6
		c0.6-0.7,0.4-2.5,0.3-3.4c-0.1-1.1-0.6-1.9-0.6-3.1c-0.3-0.4-0.8-0.9-1.5-0.8c-0.2,0.4-0.6,0.7-1.1,0.6c-0.8-0.2,0.7-2.7,1-3
		c1.5-1,3.4-0.9,4.6,0.2c0.6,0.6,1.1,1,1.8,1.5C229.6,2082,231.8,2083.7,231.8,2083.6z"/>
	<path class="st0" d="M212.6,2103.3c0.1-0.9,1.2-0.7,1.2,0.1c-0.1,0-0.2,0.1-0.4,0.1c0,0.2,0,0.4,0,0.7c0.9,0.3,2.2,0.4,2.6,1.3
		c0.4,0.9,0.1,2.4,0,3.4c-1.3,0.1-2.4-1.8-3-2.7c-0.6-0.7-2.8-2.1-2.4-3C210.9,2102.5,212,2103.3,212.6,2103.3z"/>
	<path class="st0" d="M209.4,2103c-1,0-1.6-2.1-1.6-2.9c0.1-2.4,5.5-1.9,4.7-0.1c-0.7-0.2-1.3-0.9-2.1-0.7
		C209.6,2099.5,209.5,2103,209.4,2103z"/>
	<path class="st0" d="M174,2154.9c-1.1-0.7-3.1,0.3-3.9,1.2C170.5,2156.3,174.2,2155,174,2154.9z"/>
	<path class="st0" d="M212.4,2128.4C212.3,2127.4,213.5,2128.6,212.4,2128.4"/>
	<path class="st0" d="M260.7,2130c0.3,0,0.7,0,1,0C261.8,2129.2,260.4,2129.1,260.7,2130"/>
	<path class="st0" d="M227.1,2192.9c2.4-0.2,6.2-0.3,8,1.7c1.2,1.5-0.1,2.1-0.8,3.6c-0.9,1.8-0.7,1.9-2.9,2.5
		c-2.9,0.8-5.8,0.2-8.8-0.8c-0.6-0.2-2.1-0.3-2.5-0.8c-0.6-0.7,0.2-1.5,0-2.1c-0.1-0.4-0.7-0.9-0.9-1.2c1.5,0.1,2-0.6,3.1-1.2
		C224,2193.2,225.2,2193,227.1,2192.9z"/>
	<path class="st0" d="M22.7,2069.6c4.2,0.2,7,2.6,11,2.9c0.2,1.8-2.2,2.5-3.3,3.5c-1.5,1.3-3.1,1.7-4.3,3c-1.5,1.9-1.3,1.8-3.8,1.5
		c-0.9-0.1-1.9,0-2.7-0.2c-0.9-0.3-1.7-1.1-2.7-0.9c0.1,0.2,0.2,0.9,0.3,1c-1.1,0.3-2.1,0-3.3,0c-0.6,0-1.1,0.2-1.7,0.2
		c-0.9-0.1-0.8-0.6-1.3-0.7c-1.1-0.4-2.2-0.4-3.3-0.9c-1.3-0.6-1.6-1.2-3.3-1.2c0-0.1,0-0.4,0-0.4c0.6-0.2,0.7-0.6,1-0.8
		c-0.3-0.4-0.2-1-0.3-1.6c0.9-0.2,2.4-0.3,3-1c1-0.9,0.9-2,1.8-3c1.3-1.3,2.6-0.7,4.3-0.3C17.4,2071.3,19.8,2069.5,22.7,2069.6z"/>
	<path class="st0" d="M150.8,1671.5c-0.2-0.1-0.4-0.1-0.6-0.1c-0.9-0.3-2-0.6-3-0.4c-0.1,0-1,0.9-1.2,1c-0.6,0.2-1.1,0.4-1.7,0.8
		c-0.9,0.7-1,2.1-0.6,3.1c0.3,0.8,1,0.6,1.8,0.6c0.7-0.1,1.2-0.3,1.9-0.7c0.2-0.1,0.7-0.1,0.9-0.3c0.2-0.2,0.3-0.6,0.4-0.7
		c1.1-0.8,3,0.7,4-0.2c0.3-0.3,0.3-1.6,0-2C152.5,1671.9,151.6,1671.7,150.8,1671.5z"/>
	<path class="st0" d="M169.7,1680.9c0.7-0.2-0.8-1.2-0.9-1.2c-0.7-0.2-1.3,0.1-1.8-0.3c-0.6-0.7,0-3-1.7-2.7
		c-0.1,1.3-0.1,2.4,1.1,3.3C167.2,1680.5,168.7,1681.3,169.7,1680.9z"/>
	<path class="st0" d="M155.9,1675.8c1-0.4,1.5,0.7,0.6,1C155.7,1677,155,1676.2,155.9,1675.8z"/>
	<path class="st0" d="M205.9,1614.4c0.6,2-1.9,1.9-3.3,1.8c-0.3,0,0.1-2.1,0.4-2.4C204.2,1612.9,204.9,1614.1,205.9,1614.4z"/>
	<path class="st0" d="M5121,996.1c0.2,0.4,0.4,0.6,0.2,1.1c-0.1,0.4-0.2,0.8-0.1,1.3c-0.2-0.3-0.3-0.8-0.6-1.1
		c0,0.1-0.2,0.2-0.2,0.2c-0.2-0.3-0.2-0.7-0.4-1c-0.3-0.3-0.9-0.4-1.2-0.8c-0.4-0.3-1.1-0.8-1.3-1.3c-0.2-0.8,0.2-1.1,0.9-0.8
		C5119.4,994.3,5120.4,994.9,5121,996.1z"/>
	<path class="st0" d="M5123.5,995.7c0,0.1,0,0.3,0,0.4c0.3,0,0.9-0.1,1.2-0.2c0.2-0.1,0.7-0.4,0.9-0.3c0.7,0.2-0.3,1.7-0.7,1.8
		c0,0.2,0,0.6-0.1,0.8c-0.1,0-0.3,0-0.4,0c-0.1-0.7-0.6-0.7-1-1c-0.4-0.4-0.4-0.9-0.3-1.5c0.2,0,0.4,0.1,0.6,0.4c0,0,0-0.1,0.1-0.1"
		/>
	<path class="st0" d="M5135.2,997c0.1-0.3,0.1-0.7-0.2-0.9c-0.4-0.2-1-0.1-1.5-0.2c-0.2,0-0.4-0.2-0.7-0.2
		C5132.9,996.2,5135.2,997,5135.2,997z"/>
	<path class="st0" d="M5130.5,1005.6c0.3,0.2,0.7,1,1.1,0.6s0-0.9,0-1.3c0-0.3-0.1-0.3,0.3-0.3c0.3,0,0.4,0.1,0.6,0.3
		c0.2,0.6-0.1,0.9,0.4,1.2c0.6,0.3,1.2,0.2,1.7,0.8c0.2,0.3,0.4,1,0.7,1.3c0.3,0.8,0,1.8,0,2.6c0,0.9,0.3,2.1,0.1,2.9
		c-0.1,0.3-0.4,0.9-0.7,1.1c-0.4,0.6-0.8,0.4-1.5,0.2c-0.3-0.1-1.1,0-1.5-0.1c-0.3-0.2-0.4-1-0.1-1.3c-0.4,0.2-0.9,0.3-1.2,0.6
		c0-0.3,0-0.7,0-1c0.1,0,0.1-0.1,0.2-0.1c-0.3-0.2-0.3-0.9,0.2-0.9c0-0.1,0-0.2,0-0.3c-0.8,0-0.3-0.8-0.3-1.1c0.1-0.8-0.3-0.8-1-1
		s-0.7-1.2-1.2-0.9c-0.7,0.4,0,1.3-0.6,1.7c0-0.2-0.1-0.4-0.2-0.6c-0.1,0.2-0.2,0.4-0.2,0.8c-0.4,0-0.2-0.4-0.3-0.7
		c-0.1-0.6-0.2-0.4-0.6-0.8c-0.3-0.3-0.9-0.9-1.2-0.2c-0.3,0.6,0.3,1.5-0.6,1.7c-0.6,0.2-1.1-0.4-1.1-0.9c1.1,0,0.9-0.8,1.2-1.6
		c0.1-0.3,0.4-0.6,0-0.9s-0.8,0.1-0.9,0.4c-0.4-0.7-0.2-0.9,0.1-1.5c0.1-0.3,0.2-0.8,0.4-1c0.2-0.1,0.6,0,0.8-0.1
		c0.3-0.1,0.3-0.2,0.6-0.4c0.4-0.3,1.5-0.7,2-0.2c0.8,0.4,0.2,1.1,0,1.8C5128.8,1006.1,5129.4,1004.8,5130.5,1005.6z"/>
	<path class="st0" d="M5140.8,1023.9c-0.2,0.1-0.2,0.2-0.2,0.4c-0.1,0-0.2,0.1-0.4,0.1c0.1,0.1,0.2,0.1,0.4,0.2
		c0.2,0.3,0.6,0.7,0.7,0.9c0.2,0.4,0,0.6,0,1c0.9,0.3,0.4-1.8,0.4-2.4c0.1,0,0.1,0,0.2,0c0-0.3-0.1-0.8-0.2-1.1
		c-0.1-0.7-0.7-1.2-1.5-1.3c0.1,0.3,0.4,0.4,0.6,0.7C5141,1022.8,5141,1023.4,5140.8,1023.9z"/>
	<path class="st0" d="M5146,1036c0,0.3-0.1,0.7,0,1s0.2,0.4,0.4,0.8c0.2,0.4,0.6,1.1,0.4,1.6c-0.1,0.6-0.4,1-0.6,1.7
		c-0.1,1.5,0.8,0.4,0.3,0.1c-0.1-0.3,0.1-0.6,0.4-0.7c0.1,0.3,0.1,0.8,0.1,1.2c0.3,0.1,0.7,0.2,1.1,0.2c0.1,0.2,0.1,0.7,0,0.9
		c0.1,0.1,0.3,0.1,0.4,0.1c0-0.2,0-0.6,0-0.8c0.3-0.1,0.4-0.6,0.3-0.9c0.1,0,0.2,0,0.3,0c0-0.2,0-0.4,0-0.7c0.3,0.4,0.3,1.7,1.1,1.6
		c0,0.2,0,0.6,0,0.8c0.3,0,0.6-0.1,0.7-0.4c0.3,0.3,0.4,1.3,1,1.3c0.7,0,0.6-1,0.6-1.3c-0.1-0.7-0.3-1-0.6-1.6
		c-0.1-0.2,0-0.4-0.1-0.7c-0.1-0.3-0.2-0.2-0.4-0.6c-0.3-0.4-0.2-0.9-0.4-1.3c-0.4-0.7-0.9-0.1-1.3,0c-1,0.2-0.7-0.4-0.8-1.1
		c-0.1-0.6-0.6-0.8-1-1.2c-0.3,0.2-0.6,0.4-0.7,0.9c0,0.1-0.7,0-0.8,0C5146.1,1036.6,5146.2,1036.2,5146,1036
		c-0.1-0.9-0.6-1-1.2-1.5c0,0,0.2,0.7,0.3,0.8C5145.3,1035.6,5145.7,1035.8,5146,1036z"/>
	<path class="st0" d="M5153.7,1068.4c0.2,0,0.4,0,0.6,0c0,0.1,0,0.2,0,0.3c0.7,0,0.8-0.1,1.2-0.6c0.2-0.2,0.3-1,0.6-1.1
		c1.2-0.6,0.9,1.8,0.9,2.2c1,0.4-0.1,1.6,0,2.2c0.1,0.1,0.3,0.2,0.6,0.2c0.2,0.3,0.2,0.7,0.2,1c0,0.2-0.2,0.2,0,0.6
		c0.1,0.2,0.4,0.2,0.7,0.3c0.6,0.4,1.5,1.6,0.2,1.5c0,0.8,0.1,1.6-0.8,1.3c-1.2-0.3-1-0.9-1.1-2c-0.1-0.7,0.1-1.8-0.3-2.4
		c-0.6-0.7-1.8,0.3-1.7-0.8c0,0.1-0.2,0.2-0.3,0.4c-0.9-0.1-1.3-1-2.2-0.9c0-0.1,0-0.3,0-0.4c0.3-0.1,0.8-0.3,0.7-0.8
		c-0.3,0-1.2-0.1-1.5-0.3c-0.2-0.9,1.2-0.3,1.2-1.1c0.3,0,0.6,0.2,0.9,0.2c0.2,0,0.6-0.1,0.8-0.2c0.1,0.1,0.1,0.2,0.1,0.3"/>
	<path class="st0" d="M5160.6,1074.1c0.4,0.9,0.7-1.3,0.4-1.7c-0.2-0.6-0.6-0.2-0.7,0.3C5160.4,1073.2,5160.5,1073.8,5160.6,1074.1z
		"/>
	<path class="st0" d="M5159.7,1072.9c-0.2,0.1-0.4,0.6-0.1,0.7C5159.9,1073.8,5159.7,1072.9,5159.7,1072.9z"/>
	<path class="st0" d="M5154.1,1077.3c0.7,0,0.3,3.3-0.4,3.1c0-0.4,0.7-2-0.2-1.8c-0.1-0.4,0.4-0.6,0-0.9c-0.2-0.2-0.8,0-1.1-0.2
		c-0.3-0.2,0.7-0.6,0.7-0.7c0.2-0.2,0.2-0.6,0.6-0.7C5154.2,1076.1,5154,1076.9,5154.1,1077.3z"/>
	<path class="st0" d="M5147.7,1166.5c0,0.2,0.1,0.4,0.3,0.6c0.1,0,0.3-0.1,0.4-0.2c0.1,0,0.2,0,0.2-0.1c0.2-0.1,0.1-0.4,0.1-0.7
		c-0.1,0-0.3,0.3-0.4,0.2c-0.1-0.1-0.1-0.6-0.3-0.4C5148,1166.1,5147.7,1166.1,5147.7,1166.5z"/>
	<path class="st0" d="M5147.8,1165.1c0,0,0.3,0.1,0.1,0.2C5147.9,1165.5,5147.8,1165.2,5147.8,1165.1z"/>
	<path class="st0" d="M5147.4,1167.1c0.1,0.1,0,0.3-0.1,0.3C5147,1167.5,5147.1,1167,5147.4,1167.1z"/>
	<path class="st0" d="M5146.7,1168.5c0.3,0.1,0.6,0.6,0.9,0.7c0.2,0,0.4-0.1,0.6,0.1c0.1,0.1,0,0.4,0,0.6c0.2-0.1,0.3,0,0.3,0.2
		c0.1,0,0.3,0,0.4-0.1s0.1-0.2,0.2-0.1c0.1,0,0.1,0.3,0.1,0.4c-0.1,0.2-0.2,0.1-0.3,0.2c-0.1,0-0.3,0.1-0.4,0.2s-0.1,0.2-0.2,0.3
		c-0.2,0.8-0.4,1.6,0.3,2c0,0.1,0,0.2,0.1,0.4c0,0.1,0.1,0.4,0.1,0.4c0.1,0.1,0.2-0.1,0.3-0.1c0.1-0.1,0.4,0,0.6,0
		c0,0.2,0,0.3,0,0.6s0.1,0.3-0.1,0.4s-0.3,0-0.3,0.3c0,0.1,0,0.3,0.1,0.4s0.3,0.1,0.6,0c-0.1,0,0,0.3-0.2,0.4s-0.3-0.1-0.6-0.1
		c-0.1,0.2,0.2,0.2,0.2,0.4c-0.1,0-0.2-0.1-0.3-0.1c-0.1,0.1-0.1,0.2-0.1,0.3c0,0.2,0.1,0.3,0,0.6c0,0.1-0.2,0.2-0.2,0.3
		c-0.1,0.1-0.1,0.3-0.2,0.4s-0.2,0.1-0.2,0.2c-0.1,0.1-0.1,0.3-0.2,0.4s-0.2,0.1-0.3,0.2c-0.1,0.1,0,0.4-0.1,0.6
		c-0.1,0.1-0.4-0.1-0.6-0.1c-0.1,0-0.3,0.2-0.4,0.3c-0.1,0.1,0,0.4,0,0.7c0,0.2,0,0.4,0,0.7c-0.2,0.1-0.3,0-0.6-0.1
		c-0.1-0.1-0.3,0-0.4-0.1c0-0.1,0-0.2,0-0.3c-0.3,0-0.9,0.3-0.9-0.2c0-0.1,0-0.3,0-0.6c0-0.2,0.2-0.2,0.2-0.3c0.2,0,0.8,0.4,1,0.1
		c0-0.1,0-0.3,0-0.4c-0.1-0.2-0.1-0.1,0-0.3c0.1-0.1,0.1-0.2,0.1-0.4s-0.1-0.2-0.2-0.3s-0.3-0.6-0.7-0.2c-0.1-0.1-0.2-0.2-0.2-0.4
		c0.3,0,0.6,0,0.6-0.3c0.1,0,0.2-0.2,0.2-0.3s-0.1-0.1-0.1-0.1c0-0.1,0.1-0.2,0.1-0.3c0-0.2-0.1-0.3-0.1-0.6c0-0.2-0.1-0.2-0.1-0.4
		c-0.1-0.2,0-0.2,0.1-0.3c0.1-0.1,0.1-0.3,0.1-0.4s0-0.2,0-0.2c0-0.1,0.1-0.1,0.1-0.2c0.1-0.1,0.1-0.2,0-0.4c0.2-0.1,0.3,0,0.6-0.2
		c0.1-0.1,0.1-0.3,0.1-0.4c0-0.2,0.1-0.7-0.1-0.9h-0.1c0-0.2,0.1-0.4-0.2-0.4c-0.1,0-0.1,0.1-0.2,0c-0.1,0-0.1-0.1-0.1-0.2
		s0.3-0.4,0.4-0.6c0.1-0.1,0.3-0.2,0.3-0.4c0.1-0.2,0.1-0.3-0.1-0.4c-0.1-0.1-0.3,0-0.4-0.1s0-0.4,0-0.6c0-0.1-0.2-0.1-0.1-0.2
		s0.2,0,0.3,0c0.3-0.1,0.3-0.7,0.8-0.7C5146.7,1168,5146.7,1168.3,5146.7,1168.5z"/>
	<path class="st0" d="M5146.9,1167.5c0.1,0.1,0,0.2-0.1,0.2C5146.6,1167.6,5146.8,1167.4,5146.9,1167.5z"/>
	<path class="st0" d="M5144.2,1185.6c0.3,0,0.6,0.1,0.9,0.1c0.1,0.4-0.9,0.1-1,0.6c0-0.3,0.1-0.3-0.2-0.6c-0.1-0.1-0.4-0.1-0.3-0.3
		c0-0.1,0.3,0,0.4-0.1c0.1,0,0.2-0.2,0.3-0.2C5144.3,1185,5144.2,1185.5,5144.2,1185.6z"/>
	<path class="st0" d="M5147.4,1183.9c-0.2,0-0.1-0.3-0.2-0.6s-0.4-0.1-0.6-0.3c-0.2-0.2,0-0.9,0.3-1c0-0.2,0-0.4,0-0.7
		c-0.2,0-0.2-0.1-0.2-0.3c0.1-0.2,0.2-0.1,0.4-0.1c0,0.1,0,0.1,0,0.2c0.2,0,0.3-0.1,0.6-0.1c0,0.2-0.1,0.3-0.1,0.4
		c0,0.2,0,0.3,0,0.6c0.1,0,0.2,0,0.3,0c0,0.2-0.1,0.6-0.2,0.8c0.2,0,0.3,0.1,0.4,0.2c0,0.1,0,0.3,0,0.4c0.1,0,0.4-0.1,0.6,0
		c0.1,0.1,0.1,0.3,0.1,0.6c0.4,0,0.4-0.1,0.8-0.3c0.2-0.2,0.6-0.2,0.7,0c0.2,0.3,0,0.6,0,0.9c-0.1,0.2-0.1,0.6-0.1,0.8
		c0.1-0.1,0.3-0.2,0.4-0.2c0.2,0,0.3,0,0.4-0.1s0.1-0.2,0.2-0.2c0.1-0.1,0.2-0.1,0.3-0.2c0.2-0.1,0.4-0.2,0.7-0.3
		c0.2-0.1,0.2-0.3,0.4-0.4c0.2-0.1,0.6,0,0.7,0.2s0,0.6-0.1,0.8c-0.1,0.3,0,0.3,0.2,0.4s0.2,0.4,0.4,0.6c0.1,0.1,0.2,0,0.3,0.1
		s0.1,0.2,0.2,0.3c0.2,0.6,0.3,0.2,0.8,0.2c0,0.2-0.1,0.7,0.1,0.7c0,0.2-0.2,0.2-0.3,0.3c0,0.1,0.1,0.3,0.3,0.4
		c0,0.2-0.1,0.7-0.1,0.8c0,0.1,0.7,0.4,0.8,0.4c0.2,0.1,0.7,0.1,0.9,0.1c0.3,0,0.4,0.1,0.3,0.6c-0.1,0.6-0.6,0.8-1,0.6
		c-0.2-0.1-0.4-0.1-0.7-0.1c-0.3,0-0.6-0.1-0.9-0.2c-0.2-0.1-0.4,0-0.8,0c-0.2,0-0.2-0.1-0.2,0.1c0,0.1,0,0.3,0,0.4
		c-0.2,0-0.6,0-0.8,0c-0.3,0-0.7,0-1-0.1c-0.3,0-0.6,0-0.9,0c-0.4,0-0.7-0.2-1-0.3c-0.2-0.1-0.3-0.1-0.6-0.1c-0.1,0-0.2,0.1-0.3-0.1
		c-0.1-0.2,0.3-0.2,0.3-0.4c0-0.1,0-0.2,0-0.3c0-0.1,0.1-0.2,0.2-0.3c0.2-0.2,0.4-0.2,0.6-0.4c0.2-0.2,0.2-0.3,0.2-0.6
		c-0.2,0-0.6-0.3-0.8-0.4c-0.2-0.1-0.2-0.3-0.3-0.6c-0.2-0.3-0.7-0.3-1.1-0.4s-0.8-0.1-1.2,0.2c-0.3,0.2-0.9,0.3-1.1,0
		c0.1-0.1,0.2-0.1,0.4-0.1c0.2-0.1,0.2-0.2,0.2-0.4c0-0.1,0.1-0.3,0.1-0.4c-0.1-0.1-0.3-0.1-0.4-0.3c-0.2-0.3,0-1,0.2-1.2
		C5146.7,1184.5,5147.5,1184.2,5147.4,1183.9z"/>
	<path class="st0" d="M5145.2,1188.4c-0.1-0.1,0.4,0,0.6,0s0.3,0.1,0.4,0.2s0.3,0.6,0,0.6
		C5145.9,1189.3,5145.5,1188.6,5145.2,1188.4z"/>
	<path class="st0" d="M5142.6,1189.2c-0.2,0.1-0.1-0.1-0.2-0.1c-0.2,0-0.1,0.1-0.3,0.2c-0.2,0.1-0.6,0.1-0.7,0
		c-0.1,0-0.1,0.1-0.1,0.2c0,0-0.1,0.1-0.2,0.2s-0.2,0.2-0.3,0.2c-0.3,0.1-0.8-0.1-0.8-0.6c0.4-0.2,1-0.2,0.9-0.8
		c-0.1-0.4-0.4-0.8-0.4-1.1c0.2-0.1,0.9,0.6,0.9-0.1c0.2,0,0.4,0,0.6,0.2s0,0.4,0.1,0.7C5142.1,1188.7,5142.8,1188.6,5142.6,1189.2z
		"/>
	<path class="st0" d="M5158.8,1194.9c0,0.4,0.7,0.8,0.9,1.1c0.1,0.1,0.2,0.3,0.4,0.3c0.1,0,0.4-0.2,0.4-0.3s-0.1-0.1-0.1-0.2
		s0.1-0.2,0.1-0.3c0-0.2-0.3-0.2-0.6-0.3C5159.6,1195,5159.3,1195.1,5158.8,1194.9"/>
	<path class="st0" d="M5153.2,1193.4c0.1,0,0.3-0.2,0.4,0s-0.3,0.2-0.4,0.2c0,0.3,0.1,0.2,0.2,0.4c0.1,0.2,0,0.4,0.1,0.6
		c0.1,0.1,0.3,0,0.6,0.2c0.1,0.1,0,0.3,0.1,0.4s0.2,0.1,0.3,0.2c0.2,0.2,0.3,0.4,0.4,0.8c0.1,0.3,0,0.3-0.2,0.6
		c-0.1,0.1-0.2,0.4-0.2,0.7c0,0.2,0.2,0.3,0.2,0.4c0,0.2-0.1,0.4-0.1,0.7c0.1,0.4,0.9,0.2,1.2,0.2c0,0.2,0.2,0.6,0.4,0.7
		c0.7,0.6,0.3,1,0.2,1.7c0,0.2-0.1,0.4-0.2,0.7c-0.1,0.2-0.1,0.4-0.1,0.8s0,0.9,0,1.3c0,0.6-0.6,1.1,0.1,1.6c-0.1,0-0.1,0.1-0.1,0.2
		c0.3,0.1,0.9,0.4,1,0.8c0.1,0.2,0.2,0.4,0.3,0.7c0.1,0.3,0,0.4-0.3,0.4c0,0,0.1,0.1,0.2,0.1c0.1,0.4-0.9,0.2-1.1,0
		c0.2,0,0.6,0,0.3-0.3c-0.1-0.1-0.3-0.2-0.4-0.2c-0.3-0.2-0.7-0.9-0.6-1.2c-0.1,0-0.2,0-0.2,0c0,0.3-0.1,0.2-0.2,0.3
		c-0.1,0.1-0.1,0.2-0.2,0.3c-0.2,0.2-0.6,0.3-0.8,0c-0.2,0.4,0.6,0.4,0.7,0.9c0.1,0.4,0,0.9,0,1.3c-0.2,0.1-0.4,0.1-0.7-0.1
		c-0.1,0.2-0.1,0.6,0.1,0.7c0.1,0,0.2-0.1,0.3,0s-0.1,0.2-0.2,0.2c0,0.1,0.1,0,0.2,0.1s0.1,0.2,0.1,0.2c0.1,0.1,0.3,0.1,0.2,0.3
		c-0.2,0.1-0.3,0.2-0.2,0.4c0.2,0,0.2-0.1,0.4-0.1c0.2,0,0.3,0.1,0.3,0.2c0.1,0.2,0.2,0.7,0,0.8c-0.2,0.1-0.7,0-1,0
		c-0.2,0-0.8,0.1-0.7-0.2c0,0.1-0.1,0.2-0.2,0.2c-0.2-0.1-0.2-0.2-0.3-0.4c0,0,0,0-0.1,0c0-0.1-0.1-0.3,0-0.4s0.2,0,0.3-0.2
		c0.1-0.3-0.3-0.4-0.6-0.4c-0.3,0.1-0.3,0.3-0.6,0.6c-0.3,0.3-0.4-0.2-0.8-0.2c-0.1,0.3,0,0.7-0.6,0.4c0-0.2,0-0.3,0-0.6
		c-0.1,0-0.2,0-0.3,0c-0.2,0.4-0.3-0.3-0.3-0.4c-0.1-0.2-0.2-0.4-0.6-0.6c-0.3-0.1-0.6,0-0.8-0.1c-0.2-0.2-0.3-0.3-0.7-0.3
		c0,0.2-0.2,0.4-0.4,0.6c-0.1,0-0.2,0-0.2,0.1c-0.1,0.1,0,0.3-0.1,0.4c-0.1,0.2-0.4,0.3-0.6,0.1c-0.2-0.2-0.1-0.4-0.4-0.6
		c-0.2-0.1-0.6-0.2-0.8-0.2c-0.2,0-0.1,0.2-0.2,0.6c0,0.2-0.1,0.4-0.3,0.2c-0.1-0.2-0.1-0.4-0.3-0.7c0-0.1,0-0.1-0.1-0.1
		c0-0.2,0.1-0.3,0.2-0.6c0.1-0.1,0.1-0.3,0.2-0.4c0.1-0.2,0.3,0.1,0.6,0c0.1,0,0.2-0.2,0.3-0.3c0.2-0.3,0.1-0.8,0.1-1.2
		c0-0.1,0.1-0.6,0-0.6c-0.2-0.2-0.6,0-0.6,0.2h-0.1c0-0.2,0-0.4,0.2-0.7c0.1-0.1,0.3-0.1,0.4-0.3c0.1-0.2-0.1-0.3-0.1-0.6
		c-0.1-0.2,0-0.4,0-0.7c0.3-0.2,0.6,0.3,0.9,0.4c0.2,0.1,0.7,0,0.8-0.2c-0.2-0.1-0.3-0.4-0.2-0.7c-0.2-0.1-0.4-0.1-0.8-0.1
		c0,0,0.4-0.9,0.3-1.1c-0.1-0.1-0.7,0-0.8,0c-0.1-0.3,0.3-0.3,0.2-0.7c-0.2-0.1-0.3,0-0.6,0c0-0.1,0-0.2,0-0.4c-0.6,0-1,0.2-1.6,0.2
		c0-0.2,0.1-0.7,0-0.7c0.1-0.2,0.4-0.6,0.7-0.6c0.3,0,0.4,0.4,0.8,0.7c0.2,0.1,0.8,0,1-0.1c0.1-0.1,0.1-0.2,0.2-0.2
		c0.1-0.2,0.3-0.2,0.7-0.2c0.3,0,0.8,0,1,0.2c0.4,0.2,0.6,0.8,1,0.6c0.2-0.1,0.4-0.2,0.4-0.4c0-0.1,0-0.2,0-0.3
		c-0.1-0.1-0.2,0-0.2-0.2s0.4-0.2,0.4-0.4c0.1-0.3-0.1-0.7,0.1-1c0.1-0.2,0.3-0.4,0.2-0.8c0-0.1-0.3-0.3-0.3-0.3
		c-0.1-0.1-0.2,0.1-0.4,0.1c-0.1-0.2-0.3-0.4-0.3-0.7c0-0.2,0.2-0.3,0.2-0.6c0.1-0.2,0-0.6,0-0.8c0-0.2,0-0.7-0.1-0.8
		c-0.2-0.1-0.4-0.1-0.7-0.1c0-0.2,0.6-0.7,0.4-0.8c-0.1-0.1-0.7,0-0.8,0c-0.2,0.2-0.1,0.4-0.2,0.7c-0.2,0.2-0.4,0.2-0.6,0.6
		c-0.3,0.1-0.6,0.2-0.8,0.4c0,0.2-0.1,0.4-0.1,0.7c0.1,0.1,0.1,0.3-0.1,0.3c-0.1,0.1-0.3,0-0.4,0c-0.3,0-0.6,0.4-0.8,0.3
		c0-0.2,0.1-0.3,0.1-0.4c0-0.3-0.1-0.3-0.2-0.6c-0.2-0.1-0.7-0.3-0.7-0.6c-0.2-0.7,0.3-1.6-0.3-2c-0.1-0.3,0.3-0.6,0.4-0.7
		c0.2-0.2,0.3-0.4,0.6-0.6c0.3-0.1,0.7-0.1,0.9,0c0.2,0,0.6,0,0.7-0.1c-0.2,0-0.2-0.4-0.1-0.6c0.1-0.1,0.6-0.2,0.7-0.2
		c0,0.3-0.4,0.8-0.2,1.1c0,0.1,0.3,0.2,0.4,0.1c0.2-0.1,0.1-0.2,0.1-0.4c0.4,0,0.8,0.1,1.2,0c0.2,0,0.4-0.2,0.8-0.1
		c0.1,0.1,0.1,0.2,0.1,0.4c0.4,0.1,0.8,0.3,1.2,0.3c0-0.2,0.3-0.6,0.6-0.3c0.2,0.1,0.2,0.4,0.3,0.7
		C5152.5,1193.4,5152.9,1193.6,5153.2,1193.4z"/>
	<path class="st0" d="M5158.8,1209c0,0.4-0.4,0.4-0.6,0.1c-0.1-0.1-0.1-0.2-0.2-0.3c-0.1-0.1-0.2-0.2-0.1-0.3
		C5158,1208.2,5158.8,1208.7,5158.8,1209z"/>
	<path class="st0" d="M5145.3,1197.3c0,0.1-0.1,0.2-0.2,0.2s-0.3,0-0.3-0.2C5144.9,1197.2,5145.3,1197.2,5145.3,1197.3z"/>
	<path class="st0" d="M5149.6,1199.6c-0.3-0.1-0.1-0.3,0.1-0.3C5150.1,1199.5,5149.8,1199.7,5149.6,1199.6z"/>
	<path class="st0" d="M5145.8,1198.4C5145.7,1198.3,5145.7,1198.3,5145.8,1198.4c-0.1-0.2,0-0.4,0.1-0.3
		C5146,1198.1,5145.9,1198.5,5145.8,1198.4z"/>
	<path class="st0" d="M5139.9,1191.9l-0.1,0.1c-0.2,0.1-0.3-0.2-0.2-0.3C5139.8,1191.5,5140.2,1191.6,5139.9,1191.9z"/>
	<path class="st0" d="M5143.2,1210.3c0.1,0.2,0.1,0.4,0.2,0.7c0.2,0.4,0.2,0.9,0.2,1.5h-0.1c0-0.3,0.1-0.8-0.3-0.9
		c0,0.3,0.1,0.6,0.1,0.9c0,0.1,0.1,0.2,0,0.3c0,0.1-0.1,0.1-0.2,0.3c-0.2-0.1-0.2-0.6-0.2-0.7c0-0.2,0-0.6,0-0.8c0-0.1,0-0.2,0-0.3
		c0-0.1-0.1-0.1-0.2-0.2c0-0.1,0-0.3,0-0.4c0-0.3,0-0.2-0.1-0.3c-0.2-0.1-0.6-0.4-0.4-0.8c0.1-0.2,0.6,0.1,0.7,0.2
		C5143,1209.7,5143.1,1210.1,5143.2,1210.3z"/>
	<path class="st0" d="M5128.7,1310.4c0,0.1,0,0.2-0.1,0.3s-0.1,0-0.1,0.1c0.2,0,0.4,0,0.6,0.1c0.3,0.1,0.2,0.2,0.3,0.4
		c0,0.3,0.2,0.3,0.3,0.7c0.1,0.3,0.1,0.3,0.4,0.6c0.3,0.2,0.1,0.4,0.2,0.9c0.1,0.2,0.2,0.3,0.2,0.7c0,0.2,0.1,0.4,0.2,0.7
		c0.1,0.2,0.3,0.3,0.4,0.6c0.1,0,0.1-0.1,0.2-0.2c0.2-0.1,0.2,0,0.3,0.1c0.2,0,0.6,0,0.7-0.2c0.2,0.2,0.4,0.4,0.7,0.7
		c0-0.1,0-0.3,0-0.4s-0.1-0.2-0.2-0.3c-0.1-0.2,0-0.4,0-0.8c0-0.3-0.1-0.4-0.2-0.7c0-0.3,0-0.7,0-0.9c0.4,0,0.6,0.6,0.8,0.9
		c0.2-0.1,0.4-0.3,0.8-0.3c0.3-0.1,0.8-0.1,0.8,0.3c0.6,0,0.4-0.1,0.4-0.6c0.4,0,0.8,0.2,1.1,0.6c0.3,0.3,0.3,0.7,0.7,1
		c0.1-0.3,1,0.1,1.1,0.3c0.3,0.7-0.7,0.6-0.9,0.2c-0.1,0-0.2,0-0.3,0.1c-0.1,0.1-0.1,0.2-0.2,0.3c-0.2,0.2-0.7,0.1-1,0.2
		s-0.6,0.2-0.7,0.3c-0.2,0.2-0.1,0.4-0.2,0.7c-0.4,0.1-1.1,0-1.2,0.6c-0.1,0.4,0.1,0.7,0.2,1.1c0.1,0.3-0.1,0.8,0,1.1
		c0.1,0.3,0.6,0.4,0.8,0.4s0.6,0.1,0.8,0c0.2,0,0.6-0.2,0.8-0.3c0.6-0.2,1-0.3,1.6-0.4c0.2,0,0.4-0.1,0.6-0.4
		c0.1-0.2,0.2-0.4,0.4-0.4c0.6,0-0.2,1.2-0.2,1.6c-0.1,0.2-0.1,0.4-0.1,0.8c0,0.3-0.1,0.4-0.2,0.7c-0.4,0.6-1.1,1.5-1,2.1
		c0.1,0.3,0.1,0.4,0.1,0.8c0,0.2,0,0.6,0,0.8c0,0.3,0.2,0.6,0.3,0.9c0.1,0.2,0.1,0.6,0.1,0.8c0.1,0.3,0.3,0.3,0.7,0.4
		c0.2,0.1,0.3,0.2,0.6,0.3c0.1,0.1,0.3,0,0.4,0.1c0.2,0,0.4,0.1,0.6,0.2c0.4,0.1,0.8,0,1.1,0c0.1,0,0.2,0.1,0.3,0.1
		c0.1-0.1,0-0.1,0.1-0.2s0.2-0.1,0.4-0.2c0.2-0.1,0.2,0,0.1-0.3c-0.1-0.2-0.2-0.1-0.1-0.4c0.2-0.1,1.3-0.1,1.5,0.2
		c0,0.2-0.2,0.3-0.1,0.6c0,0.1,0.3,0.3,0,0.4c-0.1-0.1-0.3-0.1-0.4-0.2c0,0.3-0.1,0.4-0.2,0.7c-0.1,0-0.2,0-0.4,0
		c-0.1,0-0.1-0.1-0.2-0.1s-0.1,0.1-0.2,0.2c-0.2,0.1-0.4,0-0.6-0.1c-0.2-0.2-0.6-0.3-0.9-0.3c-0.7,0.2-0.1,2-0.6,2.5
		c-0.2,0.2-0.3,0.3-0.3,0.7c0,0.2-0.1,0.6,0,0.8c0,0.2,0.3,0.4,0.3,0.6s-0.1,0.7,0,0.8c0.1,0.1,0.7,0.2,0.9,0.3
		c0.2,0.2,0.3,0.3,0.6,0.6c0.1,0.1,0.2,0.4,0.3,0.6c0.1,0.2,0,0.2,0,0.3l-0.1,0.1c0,0.1,0.1,0.1,0.1,0.2c0.1,0.2,0.1,0.4,0.1,0.8
		c0,0.3,0.1,0.8,0.2,1.1c0-0.2,0.3-0.6,0.6-0.4c0.2,0.1,0.3,0.7,0,0.7c0-0.3-0.2-0.2-0.4-0.1c-0.2,0.2-0.2,0.3-0.2,0.6
		c0,0.4-0.2,0.9-0.1,1.3c0,0.3,0.2,0.4,0.3,0.7c0.1,0.2,0,0.2-0.1,0.4c-0.1,0.3-0.2,1-0.8,0.6c-0.1,0.1-0.2,0.3-0.3,0.3
		c-0.1,0-0.2-0.2-0.3-0.3c0,0,0,0,0.1,0c0-0.1-0.4-0.3-0.6-0.2c-0.1,0.1,0,0.3,0,0.4c-0.6,0.1,0.2-1.1,0.3-1.2
		c0.1-0.2,0.3-0.3,0.4-0.6c0.2-0.3,0-0.2-0.1-0.4c-0.1,0-0.2,0-0.3,0c0-0.1,0-0.2,0-0.3c0.4,0.1,0.4-0.4,0.3-0.8
		c0-0.1,0-0.4-0.1-0.6c-0.1-0.1-0.4-0.1-0.4-0.1c-0.1-0.4,0.7-0.1,0.6-0.6c-0.1-0.3-0.7-0.1-0.8-0.6c-0.1-0.3,0-0.7-0.1-1
		s-0.3-0.6-0.6-0.9c-0.1,0-0.2,0-0.3,0.1c-0.1,0,0,0.1-0.1,0.1s-0.2,0-0.3,0c-0.2,0-0.3,0-0.4,0.1c-0.1,0-0.1,0.2-0.1,0.2
		c-0.8,0.6-0.8-0.8-0.8-1.1c0-0.2,0.2-1.6-0.2-1.5c-0.1,0-0.2,0.2-0.2,0.3c-0.1,0.1-0.2,0.1-0.2,0.2c-0.1,0.2-0.1,0.3-0.3,0.4
		c-0.9,0.4-0.6-1.6-0.9-2c-0.1-0.2-0.2-0.3-0.2-0.6s0.1-0.3,0.1-0.6c0-0.3-0.1-0.3-0.3-0.4c-0.1-0.1-0.3-0.1-0.4-0.3
		c-0.1-0.2,0-0.3-0.1-0.6c0-0.1-0.1-0.1-0.2-0.2s-0.2-0.3-0.2-0.6c0.1,0,0.2,0.1,0.2,0.2c0.1-0.2,0.1-0.4,0.1-0.7
		c-0.1-0.2-0.2-0.1-0.2-0.4c-0.2-0.1-0.4,0.1-0.6-0.2c0-0.3,0.4-0.3,0.6-0.4c0.2-0.2,0.1-0.3,0.1-0.7c0.1-0.2,0.2-0.4,0.3-0.7
		c0.1-0.3,0.2-1.3-0.4-1.2c-0.2,0.1-0.3,0.2-0.7,0.2c-0.3,0-0.7,0-1,0c0.1-0.1,0.4-0.2,0.6-0.3c0.3-0.4,0.1-0.9,0.3-1.3
		c0.1-0.2,0.2-0.3,0.2-0.7c0-0.3-0.1-0.4-0.3-0.6c-0.1-0.1-0.2,0-0.3-0.1c-0.1-0.1-0.1-0.4-0.2-0.6c-0.3-0.2-1-0.3-1.1-0.8
		c-0.1-0.2,0.1-0.6-0.1-0.8c-0.1-0.2-0.4-0.3-0.7-0.6c-0.2-0.2-0.4-0.6-0.7-0.9c-0.1-0.3,0.1-0.9-0.1-1.2c-0.1-0.1-0.3-0.1-0.3-0.3
		c-0.1-0.1-0.1-0.3-0.1-0.6c0-0.4,0-0.8,0-1.2c-0.4,0-0.4-0.4-0.7-0.8c-0.1-0.3-0.3-0.4-0.6-0.7c-0.2-0.3-0.1-0.8-0.1-1.1
		c0.1-0.4,0.1-0.8-0.1-1.2C5128.3,1310.6,5128.5,1310.5,5128.7,1310.4"/>
	<path class="st0" d="M5133.4,1330.2c-0.1,0-0.3,0-0.2-0.2C5133.2,1329.6,5134.1,1330.1,5133.4,1330.2z"/>
	<path class="st0" d="M5141.2,1342.9h-0.1c0,0.1,0,0.2,0,0.2c0.2,0,0.6-0.8,0.3-0.9C5141.3,1342.3,5141.1,1342.9,5141.2,1342.9z"/>
	<path class="st0" d="M5140.7,1344h0.1c0-0.1,0-0.2,0-0.4c0-0.1-0.1,0.1-0.1,0.1C5140.7,1343.8,5140.7,1344,5140.7,1344z"/>
	<path class="st0" d="M5139.2,1345.6c0.2-0.1,0.1-0.2,0.1-0.6C5139.4,1344.9,5138.5,1345.8,5139.2,1345.6z"/>
	<path class="st0" d="M5138.6,1346.3c0,0.2,0.1,0.7-0.1,0.7c0-0.3-0.1-0.6-0.2-0.9C5137.9,1345.5,5138.5,1345.9,5138.6,1346.3z"/>
	<path class="st0" d="M5137.2,1347.7c-0.1,0.1,0,0.2,0,0.2c0,0.2-0.2,0.3-0.3,0.4c-0.3,0.3-0.1,0.1-0.4-0.1
		c-0.4-0.2-0.9,0.1-1.2,0.3c-0.2,0.1-0.3,0.2-0.6,0.2c-0.2,0-0.2-0.1-0.3-0.1s0,0.2-0.2,0.1c-0.1-0.4,0.2-0.4,0.6-0.6
		c0-0.7,0.3-0.2,0.8-0.3c0-0.1,0-0.2,0-0.4c0.1,0,0.3,0,0.4,0c0.2,0,0.2-0.1,0.3-0.2c0.4-0.2,1-0.1,1.5-0.2c0,0,0,0.3-0.1,0.4
		C5137.5,1347.7,5137.2,1347.6,5137.2,1347.7z"/>
	<path class="st0" d="M5131.4,1342.8c0.1,0.4-0.1,0.6-0.2,1c-0.1,0.2,0,0.6-0.1,0.7c-0.1,0.2-0.4,0.2-0.6,0.4
		c-0.1,0.2-0.1,0.3-0.4,0.4c0-0.1-0.1-1-0.2-1c-0.2,0-0.1,0.3-0.2,0.4s-0.6,0-0.7,0c-0.1-0.4,0.1-0.6,0.4-0.9c0.2-0.2,0-0.2-0.1-0.4
		c-0.1-0.2-0.1-0.4-0.1-0.7c-0.1,0-0.2,0-0.3-0.1c-0.1-0.1-0.2-0.3-0.4-0.3c0-0.2,0.2-0.2,0.2-0.3c0.1-0.1,0-0.3,0.1-0.4
		c0.1,0,0.3,0,0.4,0.1c0-0.2,0.1-0.4,0-0.6c-0.1-0.1-0.3-0.2-0.2-0.4c0-0.1,0.2-0.1,0.3-0.2c0.1,0,0-0.1,0.1-0.2s0.3,0.1,0.4,0.2
		c0.1,0.2,0,0.4,0.1,0.7c0.1-0.2,0.1-0.4,0.4-0.4s0.2,0.2,0.3,0.4c0.3,0,0.4,0.3,0.6,0.7c0,0.1,0,0.2,0,0.4
		C5131.2,1342.5,5131.3,1342.6,5131.4,1342.8z"/>
	<path class="st0" d="M5136.2,1354.6c0.3,0.1,0.9,0,1,0.6c0.1,0.3-0.1,0.8-0.2,1c-0.1,0.8,0.7,2.2-0.1,2.9c-0.1,0.1-0.2,0.1-0.3,0.2
		c-0.1,0.1,0,0.3,0,0.4s-0.1,0.3-0.2,0.4c-0.1,0-0.3-0.2-0.4-0.2c-0.2-0.1-0.2,0-0.3-0.2c-0.1-0.1,0-0.2-0.1-0.3
		c-0.2-0.2-0.7,0-0.7-0.3c0,0.1-0.1,0.3-0.2,0.3c0-0.3-0.1-0.7,0.3-0.6c0.3,0,0.4,0.2,0.7,0s0.6-0.9,0.1-1c-0.1-0.2-0.1-0.4-0.1-0.7
		c0.1,0,0.1-0.1,0.2-0.1c0.1-0.3-0.1-0.2-0.3-0.4c-0.1-0.1-0.1-0.3-0.1-0.6c-0.1,0-0.1,0-0.2,0c-0.1-0.2,0.1-0.2,0.2-0.3
		c0-0.1,0-0.4,0-0.6c-0.1,0-0.1-0.1-0.2-0.1c0-0.3,0-0.6,0.3-0.7c0.2,0,0.6,0,0.8,0C5136.2,1354.1,5136.2,1354.4,5136.2,1354.6z"/>
	<path class="st0" d="M5135.9,1361.1c-0.2,0.1,0-0.4,0-0.3c0-0.1,0-0.3,0.2-0.3C5136.1,1360.5,5136.1,1361,5135.9,1361.1z"/>
	<path class="st0" d="M5147.6,1355c0,0.2,0,0.4,0,0.7c-0.1,0.1-0.2,0.1-0.3,0.2c-0.1,0.1-0.2,0.2-0.2,0.4c-0.1,0.3,0,0.8,0,1.1
		c0.1-0.2,0.2-0.4,0.4-0.6c0.2-0.1,0.4,0,0.7,0s0.4-0.1,0.7-0.2c0.2,0,0.4-0.1,0.7-0.2c0.3,0,0.4,0,0.7-0.2c0.1-0.1,0.2-0.3,0.3-0.6
		c0-0.1,0-0.2,0-0.3c0-0.2,0-0.2,0.1-0.3c0.1-0.1,0.1,0,0.2-0.2c0-0.1,0-0.3,0-0.4c-0.2-0.1-0.7-0.1-0.9-0.3c-0.1-0.1,0-0.7-0.4-0.6
		c0,0.3,0,0.4-0.2,0.6c-0.2,0.1-0.4,0.1-0.7,0.2c-0.3,0.2-0.6,0.4-1,0.4c-0.1,0-0.3-0.1-0.3,0.1c0,0.1,0.3,0.2,0.4,0.2"/>
	<path class="st0" d="M5153,1353.1c-0.3,0.3-0.1,0.8-0.1,1.2c0.6,0,1-0.8,1.5-1c0.1,0,0.3,0,0.4,0c0.1-0.1,0.2-0.2,0.3-0.2
		c0.2-0.1,0.6,0,0.9,0c0-0.6-0.4-0.6-0.9-0.8c-0.3-0.1-0.3-0.2-0.6-0.4c-0.1-0.1-0.3-0.4-0.6-0.4c-0.1-0.1-0.1-0.3-0.1-0.4
		c0.1-0.1,0.2-0.4,0.2-0.7c-0.2-0.1,0.1-0.3,0-0.6c-0.1-0.2-0.3-0.2-0.4,0c0,0.2,0.2,0.3,0.1,0.6c-0.1,0.2-0.1,0.3-0.1,0.6
		c-0.3-0.1-0.8,0.7-0.9,0.9c-0.1,0.3,0,0.3,0.1,0.6C5153.3,1352.8,5153.2,1352.9,5153,1353.1z"/>
	<path class="st0" d="M5148.5,1358.1c0.1,0-0.2-0.6-0.2-0.7s0.1-0.2,0.2-0.2c0.2,0,0.1,0,0.1,0.2
		C5148.7,1357.6,5148.7,1358,5148.5,1358.1z"/>
	<path class="st0" d="M5137,1354.3c0.1,0.1,0.3-0.3,0.2-0.4C5137.1,1353.8,5136.8,1354.1,5137,1354.3z"/>
	<path class="st0" d="M5137.7,1354.4c0-0.2,0.1-0.3,0.2-0.4c-0.1,0-0.3,0.1-0.3,0.2C5137.5,1354.4,5137.7,1354.5,5137.7,1354.4z"/>
	<path class="st0" d="M5146.6,1358.4h0.1c0.1-0.1,0.1-0.2,0-0.3C5146.6,1358.1,5146.5,1358.4,5146.6,1358.4z"/>
	<path class="st0" d="M5148.8,1353.7c-0.1,0-0.3,0-0.6,0.1C5148.4,1353.9,5148.6,1353.7,5148.8,1353.7z"/>
	<path class="st0" d="M4904.5,1686.8c0,1.1,0,1.9,0.8,2.7c0.3,0.3,0.6,0.7,0.9,0.6c0.3,0,0.8-0.4,1.1-0.6s0.9-0.2,1.2-0.6
		c0.3-0.3,0.2-1,0.2-1.5c0-0.9,0.2-2.2-0.2-2.9c-0.1-0.2-0.2-0.2-0.3-0.4c-0.1-0.3,0.1-0.7,0-1c-0.4-0.8-2.1-0.4-2.7,0
		c-0.1,0.1-0.2,0.2-0.3,0.4c0,0.1,0,0.2,0,0.3c0,0.2-0.1,0.3-0.2,0.4C4904.4,1685.1,4904.5,1686,4904.5,1686.8z"/>
	<path class="st0" d="M4914.4,1870.6c0.2-0.3,0.3-0.8,0.6-1.1c0.2-0.3,0.6-0.7,0.9-0.8c0.4-0.1,0.9,0,1.2-0.3
		c0.3-0.3,0.1-0.8,0.3-1.1s0.9-0.1,1.2,0c0.8,0.2,1.1,1.2,1.7,1.8c0.7,0.7,1.1,1.1,1.3,2c0.2,0.9,0.6,1.8,0.7,2.7c0,0.4,0,0.9,0,1.3
		c0,0.6,0,0.8-0.3,1.1c-0.6,0.8-1.3,0.8-2.2,1c-0.4,0.1-0.7,0.2-1.1,0.2s-1-0.1-1.5,0.1c-0.3,0.2-0.4,0.6-0.7,0.8
		c-0.2,0.3-0.7,0.6-0.9,0.8c-0.8,0.6-1.5,1.3-2.4,1.7c-0.7,0.3-1.6,0.7-1.8,1.5c-0.2,0.4-0.1,0.6-0.7,0.9c-0.3,0.1-0.7,0.4-1,0.4
		c0-0.6,0-1.1,0-1.7c0-1.3,1.1-2.8,1.5-4.2c0.3-1.1,0.2-2.4,0.2-3.5c0-0.3-0.1-0.9-0.3-1.1c-0.4-0.4-0.7,0-1.1,0.1
		c-0.3-0.3-0.1-0.7,0.2-0.8c0.4-0.1,0.8,0.1,1.1-0.3C4912.4,1872.2,4913.9,1871.4,4914.4,1870.6z"/>
	<path class="st0" d="M4910.1,1870.3c-0.6,0.4-0.2-2-0.2-2.2s0.3,0.1,0.3,0.1c0.1,0.1,0.1,0.6,0.1,0.7
		C4910.5,1869.3,4910.5,1869.9,4910.1,1870.3z"/>
	<path class="st0" d="M4954.8,2039.7c-0.2,0.6-0.4,1.2-1,1.6c-0.7,0.3-1.8,0.2-2.6,0.1c-0.3-1.3-0.8-4.7,1-5.3c0.4-0.1,0.7,0,1,0.2
		c0.4,0.2,0.9,0.3,1.3,0.4C4955.5,2037.4,4955.1,2038.9,4954.8,2039.7z"/>
	<path class="st0" d="M3515.4,3131.5c0,0.1-0.2,0.1-0.3,0s0-0.3,0.1-0.3C3515.4,3131.2,3515.4,3131.4,3515.4,3131.5z"/>
	<path class="st0" d="M3518.2,3133.5c0.1,0,0.1,0,0.2,0c0.1-0.1,0-0.3-0.1-0.3C3518.1,3133.1,3518.1,3133.3,3518.2,3133.5z"/>
	<path class="st0" d="M3519.6,3133c0.1,0.1,0.2,0.1,0.3,0c0-0.1,0.1-0.4-0.1-0.6C3519.5,3132.3,3519.5,3132.9,3519.6,3133z"/>
	<path class="st0" d="M3523.7,3131.3c0.1,0,0.2-0.1,0.1-0.2c0-0.1-0.2-0.1-0.3,0C3523.5,3131.2,3523.6,3131.3,3523.7,3131.3z"/>
	<path class="st0" d="M166.9,1660.7c-0.3,0.2-0.1,0.7-0.3,0.9c-0.2,0.2-1.5-0.1-1.3,0.3c0.1,0.2,0.6,0.4,0.8,0.4
		c0.3,0,0.6-0.2,0.8-0.4c0.2-0.2,0.4-0.4,0.4-0.8C167.2,1661.1,167.1,1660.6,166.9,1660.7z"/>
	<path class="st0" d="M172.6,1669.9c-0.4-0.4,0.3-0.9,0.7-0.4C173.6,1669.9,172.9,1670.2,172.6,1669.9z"/>
	<path class="st0" d="M1864.9,54.5c0,0.2,0,0.3,0,0.6c0,0.1,0,0.1,0,0.2c0,0.4,0.7,0.4,0.7,0c0-0.1,0-0.1,0-0.2c0-0.2,0-0.3,0-0.6
		C1865.6,54.1,1864.9,54.1,1864.9,54.5z"/>
	<path class="st0" d="M1891.4,77.1c-0.2,0-0.4,0-0.7,0.1c-0.2,0.1-0.2,0.4,0,0.7c0.2,0.1,0.4,0.1,0.7,0.1c0.2,0,0.3-0.2,0.3-0.4
		C1891.7,77.4,1891.6,77.1,1891.4,77.1z"/>
	<path class="st0" d="M1948.7,72.2c-0.2,0.3,0.1,0.8,0.4,0.6c0.3,0.1,0.8-0.3,0.4-0.6C1949.2,72,1948.9,71.8,1948.7,72.2z"/>
	<path class="st0" d="M1955.7,59.8c-0.7,0.1-1.2,0.6-1.2,1.2c0,0.4,0.7,0.4,0.7,0s0.4-0.4,0.8-0.6
		C1956.4,60.5,1956.3,59.8,1955.7,59.8z"/>
	<path class="st0" d="M1950.3,56.3c-0.4,0-0.4,0.7,0,0.8C1950.8,57.1,1950.8,56.3,1950.3,56.3z"/>
	<path class="st0" d="M1948.9,57.1c-0.4,0-0.4,0.7,0,0.7C1949.3,57.9,1949.3,57.1,1948.9,57.1z"/>
	<path class="st0" d="M2161.3,94.4v0.1c0,0.4,0.7,0.4,0.7,0v-0.1C2162.1,94,2161.3,94,2161.3,94.4z"/>
	<path class="st0" d="M2150.4,135.3c-0.4,0-0.4,0.8,0,0.8C2150.8,136,2150.8,135.3,2150.4,135.3z"/>
	<path class="st0" d="M2149.4,136.1c-0.4,0-0.4,0.7,0,0.8C2149.8,136.9,2149.8,136.1,2149.4,136.1z"/>
	<path class="st0" d="M2149.1,139.6c-0.4,0-0.4,0.7,0,0.8C2149.6,140.3,2149.6,139.6,2149.1,139.6z"/>
	<path class="st0" d="M2141.9,143.2c-0.4,0-0.4,0.8,0,0.8C2142.5,144,2142.5,143.2,2141.9,143.2z"/>
	<path class="st0" d="M2131.6,187.1c-0.4,0-0.4,0.7,0,0.7C2132.1,187.9,2132.1,187.1,2131.6,187.1z"/>
	<path class="st0" d="M2132.6,201.3v0.1c0,0.4,0.7,0.4,0.7,0v-0.1C2133.3,200.9,2132.6,200.9,2132.6,201.3z"/>
	<path class="st0" d="M2132.8,203.1c-0.4,0-0.4,0.8,0,0.8C2133.3,203.9,2133.3,203.1,2132.8,203.1z"/>
	<path class="st0" d="M2130.9,198.5c-0.1-0.4-0.6-0.3-0.7,0c-0.1,0-0.1,0.1-0.1,0.2c-0.2,0.7-0.2,1.2,0,1.9c0.1,0.3,0.7,0.3,0.7,0
		v-0.1c0.2,0,0.3-0.1,0.3-0.3c0-0.3-0.1-0.8-0.2-1.1C2130.9,198.9,2130.9,198.7,2130.9,198.5z"/>
	<path class="st0" d="M2129.8,201.1c-0.4,0-0.4,0.8,0,0.8C2130.3,201.8,2130.3,201.1,2129.8,201.1z"/>
	<path class="st0" d="M1946.8,185.9c-0.2-0.3-0.8-0.1-0.7,0.2c0.1,0.2,0.2,0.4,0.4,0.4C1947.1,186.7,1947.2,186,1946.8,185.9z"/>
	<path class="st0" d="M1890.9,308.3c0.1,0,0.1-0.2,0-0.2c-0.4-0.3-0.8-0.3-1.3-0.3c-0.2,0-0.2,0.3,0,0.3h0.1c-0.1,0.1-0.1,0.2,0,0.2
		c0.2,0,0.4,0,0.8,0.1c0.4,0.3,0.4,1,0.8,1.6c0.1,0.1,0.3,0,0.2-0.1C1891.2,309.2,1891.1,308.6,1890.9,308.3z"/>
	<path class="st0" d="M1893.2,306.8c-0.2,0.3-0.2,0.7-0.2,1.1c0,0.2,0.3,0.2,0.3,0c0-0.1,0-0.2,0-0.3h0.1c0.1,0,0.1-0.1,0.2-0.2
		v-0.1c-0.1-0.1-0.1-0.2-0.1-0.3C1893.4,306.7,1893.3,306.7,1893.2,306.8z"/>
	<path class="st0" d="M1894.3,303.6c0,0-0.1-0.1-0.2,0s-0.2,0.1-0.2,0.2s0,0.1,0,0.2c0.1,0.1,0.1,0.1,0.2,0.1s0.1,0,0.1,0
		c0.1,0.1,0.3,0,0.2-0.2C1894.4,303.7,1894.4,303.7,1894.3,303.6z"/>
	<path class="st0" d="M1894.5,302.7c-0.1,0-0.2,0.1-0.2,0.2s0.1,0.2,0.2,0.1c0,0,0,0,0.1-0.1
		C1894.6,302.9,1894.6,302.8,1894.5,302.7L1894.5,302.7z"/>
	<path class="st0" d="M1892.4,304c-0.1-0.1-0.2,0-0.2,0.1c0,0,0,0,0,0.1c0,0,0,0-0.1,0.1s0,0.1,0.1,0.2v0.1c0,0.2,0.3,0.1,0.3-0.1
		v-0.1l0,0C1892.5,304.2,1892.5,304.1,1892.4,304L1892.4,304z"/>
	<path class="st0" d="M1849.8,382C1849.8,382,1849.7,382,1849.8,382C1849.7,381.9,1849.7,381.9,1849.8,382c0.1-0.2-0.2-0.3-0.3-0.1
		c-0.1,0.3-0.2,0.4,0,0.8h0.1l0,0c0,0.2,0.3,0.1,0.2-0.1c0-0.1-0.1-0.2-0.1-0.3C1849.8,382.2,1849.8,382.1,1849.8,382z"/>
	<path class="st0" d="M1357.9,1389.3c-0.3-0.3-0.9,0.2-0.6,0.6l0.1,0.1C1357.8,1390.2,1358.3,1389.8,1357.9,1389.3L1357.9,1389.3z"
		/>
	<path class="st0" d="M1358,1386.1c-0.4,0-0.4,0.7,0,0.8C1358.5,1386.7,1358.5,1386.1,1358,1386.1z"/>
	<path class="st0" d="M1354.1,1392.3c-0.4,0-0.4,0.7,0,0.7S1354.5,1392.2,1354.1,1392.3z"/>
	<path class="st0" d="M1354.5,1383C1354.5,1383.1,1354.5,1383.1,1354.5,1383c0,0.6,0.7,0.6,0.7,0.1v-0.1
		C1355.2,1382.6,1354.5,1382.6,1354.5,1383z"/>
	<path class="st0" d="M1334,1460.4c-0.4,0-0.4,0.7,0,0.7C1334.4,1461.2,1334.5,1460.4,1334,1460.4z"/>
	<path class="st0" d="M1352.6,1436.3c-0.4,0-0.4,0.7,0,0.8C1353.1,1437,1353.1,1436.3,1352.6,1436.3z"/>
	<path class="st0" d="M1363,1433.1c-0.3-0.3-0.9,0.2-0.6,0.6c0.1,0.1,0.1,0.1,0.2,0.2c0.3,0.3,0.9-0.2,0.6-0.6
		C1363.1,1433.2,1363.1,1433.1,1363,1433.1z"/>
	<path class="st0" d="M1363.9,1433.9C1363.8,1433.9,1363.8,1433.9,1363.9,1433.9c-0.6,0-0.6,0.7-0.1,0.7h0.1
		C1364.3,1434.7,1364.3,1433.9,1363.9,1433.9z"/>
	<path class="st0" d="M1363.1,1431.7c-0.3-0.3-0.9,0.2-0.6,0.6c0.3,0.3,0.8,0.6,1.1,0.8c0.4,0.2,0.8-0.4,0.3-0.7
		C1363.8,1432.1,1363.4,1431.9,1363.1,1431.7z"/>
	<path class="st0" d="M1378.4,1422.9L1378.4,1422.9c0,0.6,0.7,0.6,0.7,0.1v-0.1C1379,1422.3,1378.4,1422.3,1378.4,1422.9z"/>
	<path class="st0" d="M1385,1417.4c-0.4,0-0.4,0.7,0,0.8C1385.6,1418.2,1385.6,1417.4,1385,1417.4z"/>
	<path class="st0" d="M1385.4,1421.2c-0.4,0-0.4,0.8,0,0.8C1385.9,1422,1385.9,1421.2,1385.4,1421.2z"/>
	<path class="st0" d="M1303.8,1441.9c-0.4,0-0.4,0.7,0,0.8C1304.3,1442.7,1304.3,1441.9,1303.8,1441.9z"/>
	<path class="st0" d="M1307.1,1436.2c-0.4,0-0.4,0.7,0,0.8C1307.6,1437,1307.6,1436.2,1307.1,1436.2z"/>
	<path class="st0" d="M1309.8,1434.7c-0.4,0-0.4,0.8,0,0.8C1310.3,1435.4,1310.3,1434.7,1309.8,1434.7z"/>
	<path class="st0" d="M1292.6,1456.4c-0.4,0-0.4,0.7,0,0.7C1293.1,1457.2,1293.1,1456.4,1292.6,1456.4z"/>
	<path class="st0" d="M1267.8,1458.9c-0.4,0-0.4,0.7,0,0.8C1268.2,1459.5,1268.2,1458.9,1267.8,1458.9z"/>
	<path class="st0" d="M1327.6,1500.9L1327.6,1500.9c0,0.6,0.7,0.6,0.7,0.1v-0.1C1328.4,1500.4,1327.6,1500.4,1327.6,1500.9z"/>
	<path class="st0" d="M1326.2,1507c-0.4,0-0.4,0.7,0,0.7C1326.7,1507.8,1326.7,1507,1326.2,1507z"/>
	<path class="st0" d="M1323.8,1508.7c-0.4,0-0.4,0.8,0,0.8C1324.2,1509.3,1324.2,1508.7,1323.8,1508.7z"/>
	<path class="st0" d="M1339,1497.5c-0.4,0-0.4,0.8,0,0.8C1339.5,1498.3,1339.5,1497.5,1339,1497.5z"/>
	<path class="st0" d="M1298,1553.3c-0.2,0.2-0.4,0.4-0.8,0.6c-0.3,0.2,0,0.9,0.3,0.7c0.3-0.2,0.6-0.4,0.9-0.7
		C1298.9,1553.4,1298.4,1552.9,1298,1553.3z"/>
	<path class="st0" d="M1295.1,1554.4c-0.4,0-0.8,0.2-1,0.7c-0.2,0.4,0.4,0.8,0.7,0.3c0-0.1,0.1-0.2,0.3-0.2
		C1295.5,1555.1,1295.5,1554.3,1295.1,1554.4z"/>
	<path class="st0" d="M1228.2,1519.7c-0.4,0-0.8,0-1.2,0.1c-0.4,0.1-0.2,0.8,0.2,0.7c0.3-0.1,0.7-0.1,1-0.1
		C1228.7,1520.3,1228.7,1519.7,1228.2,1519.7z"/>
	<path class="st0" d="M1151.6,1549c-0.4,0-0.4,0.7,0,0.8C1152,1549.8,1152,1549,1151.6,1549z"/>
	<path class="st0" d="M1121.3,1474.7c-0.4,0-0.4,0.8,0,0.8C1121.8,1475.4,1121.8,1474.7,1121.3,1474.7z"/>
	<path class="st0" d="M625,1950.3c0.3,0.7,0.2,1.5,0.4,2.1c0.1,0.4,0.9,0.2,0.7-0.2c-0.2-0.8-0.2-1.6-0.6-2.2
		C625.4,1949.5,624.8,1949.8,625,1950.3z"/>
	<path class="st0" d="M293,2106.9c0,0.1,0,0.1,0,0.2c0,0.4,0.7,0.4,0.7,0c0-0.1,0-0.1,0-0.2C293.6,2106.5,293,2106.5,293,2106.9z"/>
	<path class="st0" d="M274.6,2113.8c-0.4,0-0.4,0.8,0,0.8C275.2,2114.5,275.2,2113.8,274.6,2113.8z"/>
	<path class="st0" d="M272.8,2114.5c-0.4,0-0.4,0.7,0,0.8C273.3,2115.1,273.3,2114.5,272.8,2114.5z"/>
	<path class="st0" d="M260,2132.5c0,0,0-0.1,0.1-0.1c-0.4,0.2,0,0.9,0.3,0.7c0.1-0.1,0.2-0.1,0.2-0.3
		C260.8,2132.2,260.1,2132.1,260,2132.5z"/>
	<path class="st0" d="M254.4,2132.5c-0.4,0-0.4,0.7,0,0.8C254.9,2133.2,254.9,2132.5,254.4,2132.5z"/>
	<path class="st0" d="M292.1,2135.5c-0.2,0.1-0.2,0.1-0.3,0.3c-0.2,0.4,0.4,0.8,0.7,0.3l0,0C292.8,2135.9,292.5,2135.2,292.1,2135.5
		z"/>
	<path class="st0" d="M436.2,1619.1c-0.2,0.3-0.4,0.4-0.9,0.3c-0.4,0-0.4,0.7,0,0.8c0.4,0,0.8,0,1-0.2c0.2,0.2,0.7,0.1,0.7-0.2
		c0-0.2,0-0.4-0.1-0.7C436.7,1618.9,436.3,1618.9,436.2,1619.1z"/>
	<path class="st0" d="M1700.9,573.5c-0.1,0.4,0.4,0.6,0.7,0.2c0.3,0,0.6-0.3,0.3-0.6C1701.4,572.7,1701,573,1700.9,573.5z"/>
	<path class="st0" d="M4662.1,366.6c1,0.1-1.9,3.1-1.9,3.1C4655.7,370.8,4657.8,365.9,4662.1,366.6z"/>
	<path class="st0" d="M4644.6,154c2.4-0.1,8,0.8,3.9,3.5S4644.3,154,4644.6,154z"/>
</g>
<g id="sea">
</g>
</svg>
