<?xml version="1.0" encoding="utf-8"?>
<!-- Generator: Adobe Illustrator 27.0.1, SVG Export Plug-In . SVG Version: 6.00 Build 0)  -->
<svg version="1.1" id="レイヤー_1" xmlns="http://www.w3.org/2000/svg" xmlns:xlink="http://www.w3.org/1999/xlink" x="0px"
	 y="0px" viewBox="0 0 2403.5 5626.1" style="enable-background:new 0 0 2403.5 5626.1;" xml:space="preserve">
<style type="text/css">
	.st0{fill:#D4E5C2;}
</style>
<path class="st0" d="M252,3569.8c-3,21,6,36,12,54c-12-3-27,3-39,0c-3,60-3,108-12,162c-9,57-21,120-18,177c78-12-60,222-60,246
	c30,15,33,111,39,141c-3-21-57,33-60,39c-15,27-9,66-9,96c-3,90-6,183-15,273c-3,21-9,54-12,78c-3,15-12,18-15,36c0,9,9,27,9,39
	c-6,0-15,3-21,0c-3,54-3,117,6,168c-9-3-21,3-30,0c-12,69-12,135-6,204c6,72-21,138-21,204c39,6,15-42,27-63c15-27,36-24,57-42
	c18-15,24-36,45-45c21-6,60,15,81,18c0,36,3,105,54,69c0,6,3,15,0,21c3-6,12-15,15-24c33,6,33-18,33-45c12-3,30-3,45,0
	c-6,27-33,33-30,72c33-3,39,30,36,54c-6,39-24,21-42,54c-9,18-3,63,12,69c21,9,45-27,63-33c3-18-15-60-6-72c12-18,51-15,48,12
	c18-39,9-102,24-147c6,0,15,0,21,0c6,15,6,30,6,45c18,15,24,54,21,81c9,6,18,6,30,6c3-9,3-27,0-36c-6,0-12,0-18-3c-9-45,18-27,36-45
	c21-24,18-33,18-66c6,0,15,0,21,0c3,60,66,24,78-6c6-12,12-51,6-63c-12-27-30-12-54-27c-18-60,78-15,102-18c33-3,21-18,42-30
	c12-9,33-30,33,9c6,0,12,0,18,0c3-9,3-27,0-36c-24-15-24-93-27-117c15,6,33,18,48,18c0-15-27-177-3-183c33-9,57,30,90,30
	c9-24,9-54,9-81c0-33-15-42-51-39c-6-21,9-24,24-30c24-9,24,6,30-24c9-36-15-39-39-51c0-9-3-21,0-30c-15,6-33,15-48,21
	c-3-39,9-30,33-48c18-15,15-30,15-48c0,33-6,36,21,45c12,6,12-15,24,0c6,6,3,24,3,30c3-60,33-114,30-174c-30,3-36-12-39-36
	c0-27,18-39,18-63c42-3,12,51,42,63c21,9,60-24,69-39c12-15,3-27,21-36c15-6,33,3,45-6c9-6,21-21,12-36c-9-15-24-12-42-12
	c-15-27,33-39,12-69c-21-30-42-3-45-51c0-18-6-87,15-96c30-12,36,69,33,87c12-15,6-36,6-54c0-21,9-33,9-51c-57,0-30-66,12-33
	c3-15-3-36,0-48c3-6,12-6,15-12c3-9,3-18,6-27c9-21,3-27,30-15c6,3,3,15,12,18c12,3,18-6,27-12c12-9,15-30,27-36c15-9,33,0,51,0
	c33,6,57,9,60,48c39,9,63-45,93-60c27-15,33-12,54-36c18-21,36-21,57-33c27-15,21-33,30-57c6-15,39-42,33-57c-6-12-24-6-33-9
	c-9-6-15-21-24-24c-18-9-63-3-84,0c0,30,0,60,0,90c-21-9-24-42-36-60c-9,6-24,18-33,18c-15,0-21-18-39-12c-3,15-9,48-27,27
	c-3,3-3,3-3,3c-3-15,0-33,9-45c12-15,30-6,42-15c27-18,27-63,21-93c3,15,6,27,15,39c15,0,24-9,21-24c18,15,66,12,60-30
	c-30-3-69,9-78-24c15,0,30,3,45-3c-3-3-6-15-12-18c12,0,24,0,36-3c0-6,0-12,0-18c-6,0-12-3-18-3c-3-24,18-48-3-69c-15-18-48-9-72-9
	c0-3,0-6,0-12c12-3,27,0,39,6c3-6,6-12,3-21c-6,0-18-3-21-3c24,0,54-3,72,15c3-3,12-9,15-12c6,15,21,33,30,45c6,12,15,12,21,24
	c3,9,0,24,3,33c3,18,12,39,18,54c9,18,21,30,21,54c30,12,66-3,96-9c36-6,63-12,57-57c-24-3-54,3-54,33c-15,3-75-24-78-30
	c-6-12,9-33,3-45c-9-21-24-15-45-15c0-18,0-33,0-51c3,0,9,0,12,0c0-6,3-12,3-18c18,0,45,6,57-6c-9-9-21-15-33-21c24,0,48,0,72,0
	c0-18,3-39,0-54c-3-27-3-30-21-15c-3,3-3,18-9,24c-3,3-18,9-24,12c-21,9-33,9-57,9c-3-18,12-15,18-27c6-12,3-30,3-42
	c-39-3-39,6-60,33c-27,3-111,12-114-21c24,0,66,9,87,0c9-3,39-36,39-54c6,0,15-3,21,0c-3-24,24-60,30-18c9-3,30-27,48-15
	c12,6,15,42,15,54c21-9,54-30,75-33c9-21,3-51,3-75c-36,6-36,24-54,45c0-3,0-9,0-12c0,0-3,9-3,15c-9-6-21-9-33-3c-6-15-21-18-33-15
	c-3-42-36-30-60-42c-27-12-12-21,0-45c-27-6-33,18-51,21c-21,3-45-21-42-42c21,0,42,3,63,3c6,0-6-24-9-24c-9-9-21-9-33-12
	c-3-6-3-18,0-24c6,3,18,0,24,3c0-15,0-36-9-51c0,3,3,6,3,9c-9-9-15-27-9-39c3,0,9,0,15,0c6-9,12-21,12-33c0,0,6,0,9,0
	c3,15-3,51,3,63c6,9,45,15,57,15c9-33-30-27-27-54c3-24,42-15,51-39c9-18-6-45,0-66c6-27,9-48,9-75c-39,9-36,39-54,69
	c-3,6-12,3-15,6c-6,9,0,21-6,27c-9,12-24,18-30,0c-30,12-63,18-96,36c-27,15-54,36-84,42c-3-27,15-39,27-57c9-15,9-33,24-48
	s33-15,48-33c12-15,21-36,27-54c6,0,12-3,18,0c12-27,33-72,15-102c-21-33-87,9-87,36c0-27-18-129,12-147c9-6,45,6,63,3
	c9,24,9,39,24,57c12,12,33,27,45,33c3-57-24-90-30-144c-9,0-18-3-24,0c-12-24,3-57-12-78c-9-12-45-12-27-42c27-6,18,18,36,24
	c27,12,39-15,42-39c9,0,18-6,27-3c3-21-12-33,3-51c12-12,36-9,42-27c3-9-6-21-3-30c3-9,21-15,30-21c21-12,39-27,54-48c-6,0,3-9,6-24
	s9-30,15-42c9-21,21-36,39-51c27-24,60-33,93-51c24-12,39-39,63-51c9-3,39-9,42-15c9-15-6-24-21-21c0-15,0-33,0-51
	c33-18,42,21,60-21c6-15,0-18,12-30c9-9,30-9,39-21c21-27-3-36-15-54c-21-36,15-21,39-42c24,15,51-18,54-39c6-21-3-45-6-63
	c-3-21-12-51,9-63c27-15,33,18,51,30c9-45-3-99,6-144c6-24,21-30,24-57c3-27-3-57,3-84c3-15,12-24,3-39c-3-9-18-3-21-18
	c-3-21,27-21,36-39c21-39-21-36-36-57c-12-15-6-48-6-69c-24,0-96,33-99-6c-3,3-12,0-18,3c-6-18-12-33-12-51c-18,0-36-3-54-6
	c0,6-6,9-6,12c-15-12-33-27-54-21c-3-18-9-36-3-51c6,3,15,3,21,6c-18-33,27-18,39-24c15-6,21-24,21-42c18,21,30,72,30,99
	c39-3,36,27,69,30c39,6,39-36,81-36c21,0,60,15,54-27c-3-24-21-18-36-30c-12-12-15-18-12-39c18-3,126,21,114-21c-9,0-18,0-27,0
	c-6-33,3-33,24-48c6-6,33-60,15-60c-12,0-27,0-39,0c-3,6-6,6-9,12c0-6-9-15-9-21c-9,0-24,3-33,0c-12-6-15-21-30-21
	c15-42-18-42-45-66c15-15,54-15,75-12c45,6,27,0,51-30c30-36,84-30,78-90c-21,12-42,24-51,45c-12-18,3-48-24-54c0-9-3-27,0-36
	c6-15,12-9,27-18c27-15,27-27,27-57c-9,0-42,6-48,12c-9,12,3,39-6,48c-9,9-30,3-42,6c-6,0-33,27-30-6c0,3-9,9-12,12c-3-6-6-15-6-21
	c24,0,15-33,15-48c0,0,0,12,0,18c15,6,30,15,45,0c-3-24-33-18-48-27c-15-6-9,3-18-12c-3-6,0-27,0-36c27-3,72,15,63-30
	c-12,6-39,18-51,12c-30-12-15-51-57-33c-6-18,0-36-6-54c-6,15-6,30-6,42c-48,3-51-3-48-48c-9,0-24-3-30,3c-12,6-6,27-18,30
	c-30,9-12-42-15-54c-21-6-42-6-66-9c-15-3-33-15-48-9c-39,15,57,33,63,45c21,36-12,72-45,78c-15,3-42-3-57-3c-36-3-30-9-30-45
	c-21,0-48-3-57,15c-9,15,6,24,9,30c12,24,21,39-18,39c54,18,9,39,18,78c12,3,36,9,48,6c12,0,27-15,39-15c27,3,30,60,27,78
	c-27,0-21-33-36-45s-42-9-63-9c-6,12-18,21-30,21c-15,0-18-18-27-18c-30-3-24,39-24,63c-12,3-27,6-39,9c-3,33-18,45-36,63
	c-15,15-36,36-33,60c-24,3-63,45-54,72c3,12,27,21,36,33c12,15,12,33,33,42c-24,3-63-18-84-33c-15-9-12-12-30-18c-24-6-33,3-33-27
	c-33,0-42,57-72,72c-15-24,9-48-12-72c-15-15-48-27-69-24c-15,3-81,24-87,33c-9,12,3,30-9,39c-12,12-33,9-48,9c30-42-18-129-69-93
	c-33,24-21,69-27,102c-3,18-12,30-15,45c-6,27-3,54-9,81c-6,21-6,57-15,75c-9,18-27,18-39,30c-12,18-3,36-9,54c-9,33-27,36-21,72
	c6,63-9,84-48,129c-18,21-18,45-36,66s-33,36-42,63c-12,36-21,102,30,102c27,0,54-9,63-36c12-27,6-45,42-51c-6,48,33,63,78,60
	c-3,36-15,57-33,84c18,0,42,12,57,9c18,0,42-15,60-18c0,27-15,135,6,150c24,18,30-39,66-30c21,6,39,27,33,51c3-18-12-30-30-30
	c-27,3-24,27-45,39c-42,24-48-48-48-78c-33-3-45-6-54,27c-6,21,6,54-15,63c-3,21-9,108-33,108c-9-21-12-30-12-51c0-12,6-36-6-42
	c-30-15-57,135-60,150c-27,3-24,21-27,42c0,9,3,18-3,27c-6,9-15,9-21,21c-3,9,0,21-3,30c-3,9-9,15-12,21c-6,21-3,39-3,60
	c-21,12-33,12-48,30c-6,6-3,18-9,24c-6,6-18,6-27,12c-21,18-12,39-24,60c-9,18-30,15-24,45c45,27-18,87,57,105c3,15,18,21,18,36
	c30,3,36-21,57-30c9-3,24,0,33-6c9-6,9-24,18-33c6-9,18-15,27-21c12-9,15-18,21-27c6-6-3-9,6-15c6-3,15,6,15,6c15,0,27,6,39-6
	c6,48-51,51-48,81c18,3,24,24,21,42c-3-27,0-36-30-39c-24-3-36,3-36,30c-18,6-24,21-21,39c-42-9-15,111-36,138c-30-3-9-48-12-66
	c-3-30-21-33-45-39c-33-9-54-27-72,9c-9,21-12,45-12,69c9,9,45,12,45,24c0,6-27,18-33,21c18,0,36,0,48,9c-15,9-39,9-57,3
	c-15-3,21,54,21,54c15,21,18,33,48,27c-6,18-39,27-57,24c-3-24-24-9-30,3c-6,12,0,39,0,54c0,33,6,75,0,105c-3,21-33,78-9,99
	c18,15,24-6,33,18c12,30,12,69-24,72c-6,18-21,51-39,63c-15,9-33,6-51,9c-9,0-42,3-48,9c-21,18,3,30,21,33c-6,27-42,21-51,42
	c-3-9-6-30-9-36c-6-6-18,0-24-6c-15-15-9-33-12-57c-27-9-63-3-72,27c-9,0-21,3-30,0c-3,27,3,33,18,54c15,18,18,39,30,51
	c15,12,48,21,66,21c12,0,24-6,33-6c12,0,21,6,33,6c24,0,42-18,63-24c21-6,48-18,72-21c75-3,30,63,57,96c-3-15,3-33,21-30
	c6,12,18,6,21,12c6,9,3,21,6,33c3,39,15,33,36,0c24-39,18-81-18-96c0-3,0-9,0-12c15-3,30,12,36,27c0-6,6-42,0-51c-9-18-15-9-30-18
	c-21-12-36-36-60-45c18-3,39,0,60-3c0-15,6-42,0-57c-6-21-24-21-36-36c-9-12-18-33-12-51c6-15,27-21,27-42c-3,12,6,75,15,87
	c21,30,48-6,69-6c0-12,0-27,0-39c21-3,36,9,54,15c-3-36,9-33,39-39c0,33,9,48-21,66c-36,21-33,12-36,54c-12,6-27,9-42,6
	c-3,12,0,24,3,36c15,0,27-9,42-12c3,18-3,39-3,54c-3,27,9,36,12,57c12,3,27-3,33-15c-3,39-42,42-72,51c-3,21,3,45,15,60
	c9,15,45,45,57,9c0,12,0,24,0,33c75,15,39-81,60-108c12,9,9,30,15,39c0-12,0-24,6-33c0,9,3,27,12,33c30-39,27-78,24-129
	c-3,0-9-3-15,0c-6-30,18-12,30-27c6-9,9-39,12-48c12-45,27-39,60-63c3,45-12,33-33,60c-15,18-12,54-3,78c-3-36,12-51,48-48
	c0,3,3,9,0,15c9-6,18-18,21-30c3,0,6,0,9,0c9-18,21-39,27-60c21,3,27,27,48,33c-9-21-42,6-45,24c-3,24,18,33,18,54c-12,3-27,6-39,3
	c-3,12-3,15-12,24c-6,6-18,12-21,18c-15,27,6,42,24,54c12,9,24,9,33,24c6,9,6,33,9,39c15,15,33,0,45,21c6,9,3,24,3,33
	c-42,0-57,27-63,60c-3-12-15-24-18-33c3,12,15,42,9,54c-12,15-30-6-33,18c15,9,21,21,39,21c3,6,3,18,0,24c-12,3-24,0-33-9
	c-12,9-9,27-12,42c-18-3-48-21-63-36c0,51,30,93,30,141c12-6,18-18,24-30c9,15,9,33,12,48c24-18,30,9,36,27c12-18,9-60,39-54
	c6,24-9,72-9,99c-18,0-24-30-36-42c-6,36-36,6-45-15c-9,24-21,54-39,15c-3,6-9,12-9,18c-21-36-36,9-66,9c-27,0-42-27-39-54
	c-36-3-6,48-48,39c-3,33,24,69,18,99c-15,51-30-6-36-18c-3,15-12,51-27,51c-15,24-51-48-39-72c6-9,36-24,36-33c3-18-18-39-27-54
	c24-6,21-9,36-24c12-12,18-39,39-30c-18-24-57-3-75,15c0-48-24-63-66-39c0-27,6-51,6-75c-12,9-21,18-27,33c0-18,0-36,0-54
	c-24-12-45,12-51,33c0-15,0-30,0-45c-18,15-33,3-30-18c-15,6-27,15-42,21c-9-15-3-27-18-33c-21-12-39,27-30,48c3,9,51,54,63,51
	c-6,33,21,27,45,33c0,33,21,39,30,63c3,6-3,12,0,18c3,9,9,15,12,21c3,9,15,24,18,36c3,12,0,27-3,39c-3,9-12,24-12,33
	c0,21,15,30,21,45s6,27,6,45c-6-18-9-36-15-54c-6-15-9-18-15-27c-6-12-9-9-12-27c-3-9,0-21,0-33c-3,0-6,0-9,0c-9-21-9-48-15-69
	c-3-12,6-24-6-33c-3-3-39-6-45-6c-9,0-42,9-48,15c-12,12-3,18-9,33c-6,15-18,12-21,36c-3,18,0,36,0,54c-60-15-15-69-21-105
	c-9,3-18-3-27,0c-3-30,57-9,45-54c-12-3-24,0-33,3c0-15,0-30,0-45c-30-3-60,21-66,51c-3,9,6,27,0,36c-12,21-24,3-42,12
	c-9,3-3,18-15,24c-18,9-36-9-51-9c-27,3-33,18-30,48c-12-3-18-15-24-27c0,6-6,9-9,15c-18-3-24-66-12-81c9-15,39,3,30-30
	c-39-9,0-27,9-39c15-18,15-24,12-48c-3-21,0-48-6-66c-6-15-24-30-33-45c-33-21-27,33-66,27c-18-3-30-27-48-30
	C258,3473.8,309,3563.8,252,3569.8z"/>
<path class="st0" d="M987,1622.8c0,3,12,0,21-3c9-6,42-33,18-39C1014,1574.8,987,1610.8,987,1622.8z"/>
<path class="st0" d="M1080,1646.8c3-3,3-9,0-18C1044,1616.8,1068,1673.8,1080,1646.8z"/>
<path class="st0" d="M1221,3365.8c0,12,3,27-9,36c-12,9-24,3-21-12c-9-3-15-12-21-21c9-6,21-15,30,0c0-9,3-12,12-12c-9,0-9-30,6-33
	C1248,3314.8,1245,3365.8,1221,3365.8z"/>
<path class="st0" d="M741,2735.8c-6-18,0-27-12-42c-6-9-12-3-18-15c-6-12-6-75,15-69c0,15-6,39,3,51c6,9,18,9,24,24c3,9,6,27,3,39
	C759,2720.8,744,2744.8,741,2735.8z"/>
<path class="st0" d="M1878,155.8c18,3,24-21,33-27c12-12,30-15,42-27c-15-15-36,3-48,15C1905,113.8,1866,152.8,1878,155.8z"/>
<path class="st0" d="M2037,53.8c-15,0-33,6-27,21c9,0,18,0,30,0c3-9,3-3,12-6c0,6,3,12,3,18c3,0,12,0,18,0c0-6,0-15,0-21
	c18,0,39,3,39-21c-12-3-24,0-30,9c-6-12-18-15-30-9c3-12-6-30-18-15c-6,6-3,30-3,39c-6,0-12,0-18,0c0-3,0-6,0-9"/>
<path class="st0" d="M570,3521.8c-3,6-3,6-3,15c0,6,9,12,15,9c6-3,6-6,9-15c0-3,0-6-3-9C585,3515.8,573,3512.8,570,3521.8z"/>
<path class="st0" d="M708,3590.8c-3,6-3,12-6,18c-6,12,15,18,18,6c3-6,6-12,6-18C729,3584.8,711,3578.8,708,3590.8z"/>
<path class="st0" d="M1041,3575.8c12,0,12-18,0-18C1029,3554.8,1029,3575.8,1041,3575.8z"/>
<path class="st0" d="M1086,3590.8c0-6,0-15,0-24c0-12-18-12-18,0c0,9,0,15,0,24C1065,3602.8,1086,3602.8,1086,3590.8z"/>
<path class="st0" d="M1152,3569.8c12,0,12-18,0-18C1140,3548.8,1137,3569.8,1152,3569.8z"/>
<path class="st0" d="M1164,3593.8c-12,0-12,18,0,18C1179,3611.8,1179,3593.8,1164,3593.8z"/>
<path class="st0" d="M1215,3437.8c-12,9-15,21-15,33s21,12,18,0c0-6,0-12,6-18C1236,3449.8,1224,3431.8,1215,3437.8z"/>
<path class="st0" d="M1167,3455.8L1167,3455.8c15,0,15-18,3-18h-3C1155,3437.8,1155,3455.8,1167,3455.8z"/>
<path class="st0" d="M1185,3425.8L1185,3425.8c0-15-18-15-18-3c0,0,0,0,0,3C1167,3437.8,1185,3437.8,1185,3425.8z"/>
<path class="st0" d="M1131,3434.8c12,0,12-18,0-21C1119,3413.8,1119,3434.8,1131,3434.8z"/>
<path class="st0" d="M1095,3452.8c-6,0-12,0-18,0c-12,0-12,18,0,21c6,0,12,0,18,0C1110,3473.8,1110,3452.8,1095,3452.8z"/>
<path class="st0" d="M441,3248.8c0-6,3-12,3-18c3-12-15-18-18-6c0,6-3,12-3,21C420,3254.8,438,3260.8,441,3248.8z"/>
<path class="st0" d="M447,3449.8L447,3449.8c0,15,18,15,18,3c0,0,0,0,0-3C465,3434.8,447,3434.8,447,3449.8z"/>
<path class="st0" d="M288,3419.8c-12,0-12,18,0,21C300,3440.8,300,3419.8,288,3419.8z"/>
<path class="st0" d="M1977,164.8c3,6,3,9,6,15c3,12,24,6,18-6c-3-6-3-9-6-15C1992,146.8,1974,152.8,1977,164.8z"/>
<path class="st0" d="M2031-0.2c-12,0-12,18,0,21C2043,17.8,2043-0.2,2031-0.2z"/>
</svg>
