<?xml version="1.0" encoding="utf-8"?>
<!-- Generator: Adobe Illustrator 28.0.0, SVG Export Plug-In . SVG Version: 6.00 Build 0)  -->
<svg version="1.1" id="funkei" xmlns="http://www.w3.org/2000/svg" xmlns:xlink="http://www.w3.org/1999/xlink" x="0px" y="0px"
	 viewBox="0 0 450 450" style="enable-background:new 0 0 450 450;" xml:space="preserve">
<style type="text/css">
	.st0{fill:#555555;}
	.st1{fill:#6E92A1;}
	.st2{fill:#CBC6C0;}
	.st3{fill:#B69C64;}
</style>
<path class="st0" d="M65.5,335.1c-4.4,0-7.9-3.6-7.9-7.9V7.9c0-4.4,3.6-7.9,7.9-7.9h319.2c4.4,0,7.9,3.6,7.9,7.9v319.2
	c0,4.4-3.6,7.9-7.9,7.9L65.5,335.1L65.5,335.1z"/>
<g>
	<path class="st0" d="M49.7,401.7c-9.3,19.9,0.9,38,22.8,40.1c0,0,82.6,8.1,157.9,8.1c67.3,0,138.9-6.2,138.9-6.2
		c21.9-1.9,33-20.1,24.7-40.5c0,0-68.5-166.8-65.1-197.3c0.2-1.6,1.1-9.6-4.6-17.8c-27.4-38.3-174.6-39.3-199.7-3.8
		c-5.9,8.4-3.8,16.7-3.3,18.6C128.5,233.4,49.7,401.7,49.7,401.7z"/>
</g>
<path class="st1" d="M89.3,310.1c-3.7,0-6.8-3-6.8-6.8V31.8c0-3.7,3-6.8,6.8-6.8h271.6c3.7,0,6.8,3,6.8,6.8v271.6
	c0,3.7-3,6.8-6.8,6.8L89.3,310.1L89.3,310.1z"/>
<g>
	<path class="st1" d="M80.8,396.8c-4.5,10,0.8,19.2,11.8,20.3c0,0,76.5,7.9,135.8,7.9c53,0,120.8-6.2,120.8-6.2
		c11-1,16.6-10.2,12.6-20.5c0,0-58.7-150.2-55.9-175.5c0.1-1.4,0.9-7.9-3.6-14.7c-21.5-31.8-137.5-32.5-157.3-3.2
		c-4.6,6.9-3,13.8-2.6,15.4C148.2,245.6,80.8,396.8,80.8,396.8z"/>
</g>
<path class="st2" d="M123.6,387c28.8,4.2,63.3,7.5,102.3,7.5c34.8,0,65.9-2.5,92.5-6c-35.2-86.3-43.3-126.2-41.5-145.1
	c0.1-1,0.6-5.9-2.4-11c-14.2-23.7-90.3-24.3-103.3-2.4c-3.1,5.2-1.9,10.3-1.7,11.5C173.1,260.4,165.2,300.2,123.6,387z"/>
<path class="st2" d="M118.4,279.6c-2.9,0-5.3-2.4-5.3-5.3V60.8c0-2.9,2.4-5.3,5.3-5.3h213.4c2.9,0,5.3,2.4,5.3,5.3v213.4
	c0,2.9-2.4,5.3-5.3,5.3L118.4,279.6L118.4,279.6z"/>
<polygon class="st3" points="164.1,351.4 220.7,130.7 229.4,130.7 286.1,351.4 "/>
<circle class="st3" cx="225.1" cy="167.5" r="62.2"/>
<path class="st3" d="M164.7,230.9c-1.6,0-3-1.3-3-3V107.2c0-1.6,1.3-3,3-3h120.6c1.6,0,3,1.3,3,3v120.6c0,1.6-1.3,3-3,3H164.7z"/>
</svg>
