<?xml version="1.0" encoding="utf-8"?>
<!-- Generator: Adobe Illustrator 28.0.0, SVG Export Plug-In . SVG Version: 6.00 Build 0)  -->
<svg version="1.1" id="funkei" xmlns="http://www.w3.org/2000/svg" xmlns:xlink="http://www.w3.org/1999/xlink" x="0px" y="0px"
	 viewBox="0 0 450 450" style="enable-background:new 0 0 450 450;" xml:space="preserve">
<style type="text/css">
	.st0{fill:#555555;stroke:#555555;stroke-width:50;stroke-linecap:round;stroke-linejoin:round;stroke-miterlimit:10;}
	.st1{fill:#CBC6C0;}
	.st2{fill:#AAA5A0;}
</style>
<path class="st0" d="M105.2,416.2c34,5,74.7,8.8,120.7,8.8c41.1,0,77.8-3,109.1-7.1c-41.5-101.8-51.1-148.9-49-171.2
	c0.1-1.2,0.7-7-2.8-13c-16.7-28-106.6-28.7-121.9-2.8c-3.6,6.1-2.3,12.2-2,13.6C163.7,266.8,154.3,313.8,105.2,416.2z"/>
<path class="st0" d="M99.1,289.4c-3.5,0-6.3-2.8-6.3-6.3V31.3c0-3.5,2.8-6.3,6.3-6.3H351c3.5,0,6.3,2.8,6.3,6.3v251.9
	c0,3.5-2.8,6.3-6.3,6.3L99.1,289.4L99.1,289.4z"/>
<path class="st1" d="M105.2,416.2c34,5,74.7,8.8,120.7,8.8c41.1,0,77.8-3,109.1-7.1c-41.5-101.8-51.1-148.9-49-171.2
	c0.1-1.2,0.7-7-2.8-13c-16.7-28-106.6-28.7-121.9-2.8c-3.6,6.1-2.3,12.2-2,13.6C163.7,266.8,154.3,313.8,105.2,416.2z"/>
<path class="st1" d="M99.1,289.4c-3.5,0-6.3-2.8-6.3-6.3V31.3c0-3.5,2.8-6.3,6.3-6.3H351c3.5,0,6.3,2.8,6.3,6.3v251.9
	c0,3.5-2.8,6.3-6.3,6.3L99.1,289.4L99.1,289.4z"/>
<polygon class="st2" points="153,374.2 219.8,113.7 230.1,113.7 297,374.2 "/>
<path class="st2" d="M153.8,232c-1.9,0-3.6-1.5-3.6-3.6V86c0-1.9,1.5-3.6,3.6-3.6h142.4c1.9,0,3.6,1.5,3.6,3.6v142.4
	c0,1.9-1.5,3.6-3.6,3.6H153.8z"/>
</svg>
