<?xml version="1.0" encoding="utf-8"?>
<!-- Generator: Adobe Illustrator 28.0.0, SVG Export Plug-In . SVG Version: 6.00 Build 0)  -->
<svg version="1.1" id="funkei" xmlns="http://www.w3.org/2000/svg" xmlns:xlink="http://www.w3.org/1999/xlink" x="0px" y="0px"
	 viewBox="0 0 450 450" style="enable-background:new 0 0 450 450;" xml:space="preserve">
<style type="text/css">
	.st0{fill:#6E92A1;}
	.st1{fill:#E6E6F0;}
	.st2{fill:#A57C52;}
	.st3{fill:#B49A64;}
</style>
<g>
	<path class="st0" d="M82.3,424.7c2.9-47,5.7-94,8.6-141c2.9-47,5.7-93.9,8.6-140.9l0-0.2c3.3-31.7,17.1-61.6,38.8-84
		c21.7-22.4,49.8-36,79.2-38.3c3-0.2,6-0.3,8.9-0.3c62,0,115.6,49.6,124.8,115.3l0,0.2l0,0.2c2.7,48,5.5,95.9,8.2,143.9
		c2.7,47.6,5.4,95.2,8.1,142.8l0.3,5.2l-5.2,0c-45.9,0.4-91.8,0.8-137.7,1.2c-45.9,0.4-91.8,0.8-137.7,1.2l-5.4,0L82.3,424.7z"/>
	<path class="st1" d="M226.5,25c58.7,0,110.9,46.5,119.8,111c5.4,95.6,10.9,191,16.3,286.6c-91.8,0.8-183.5,1.6-275.3,2.4
		c5.8-94,11.4-187.9,17.2-281.9C111.2,79.6,159.9,29.8,218,25.3C220.8,25.1,223.7,25,226.5,25 M226.5,15c-3.1,0-6.2,0.1-9.3,0.4
		c-30.6,2.4-59.9,16.5-82.4,39.8c-22.5,23.2-36.8,54.1-40.2,87l0,0.2l0,0.2c-2.9,47-5.8,94.7-8.6,140.9
		c-2.8,46.2-5.7,93.9-8.6,140.9l-0.7,10.7l10.7-0.1c45.9-0.4,92.6-0.8,137.7-1.2c45.1-0.4,91.8-0.8,137.7-1.2l10.5-0.1l-0.6-10.5
		c-2.7-47.8-5.5-96.3-8.2-143.3c-2.7-47-5.5-95.5-8.2-143.3l0-0.4l-0.1-0.4c-4.6-33.2-20.4-63.7-44.4-85.7
		C287.9,27.1,257.6,15,226.5,15L226.5,15z"/>
</g>
<circle class="st2" cx="225" cy="151.2" r="92.9"/>
<path class="st2" d="M131.5,391.7c-2.6,0-4.7-2-4.7-4.5l49.1-179.9c0-1.2,1-2.2,2.3-2.2h93.5c1.2,0,2.3,1,2.3,2.2l49.1,179.9
	c0,2.5-2.1,4.5-4.7,4.5H131.5z"/>
<path class="st3" d="M163.7,363.8c-1.8,0-3.1-1.8-3.1-4l32.2-160.9c0-1.1,0.7-2,1.6-2h61.2c0.8,0,1.6,0.9,1.6,2l32.2,160.9
	c0,2.2-1.3,4-3.1,4H163.7z"/>
<circle class="st3" cx="225" cy="151.2" r="62.3"/>
<path class="st2" d="M173.8,355c-1.4,0-2.6-1.7-2.6-3.8l26.8-152.3c0-1,0.6-1.8,1.3-1.8h51.2c0.8,0,1.2,0.8,1.2,1.8l26.8,152.3
	c0,2.1-1.2,3.8-2.5,3.8H173.8z"/>
<circle class="st2" cx="225" cy="151.2" r="56.7"/>
<path class="st3" d="M205.1,325.9c-0.5,0-1-1.7-1-3.8L214.6,171c0-1,0.2-1.8,0.5-1.8H235c0.3,0,0.5,0.8,0.5,1.8L246,322.2
	c0,2.1-0.5,3.8-1,3.8H205.1z"/>
<circle class="st3" cx="225" cy="151.2" r="21.3"/>
</svg>
