<?xml version="1.0" encoding="utf-8"?>
<!-- Generator: Adobe Illustrator 28.0.0, SVG Export Plug-In . SVG Version: 6.00 Build 0)  -->
<svg version="1.1" id="funkei" xmlns="http://www.w3.org/2000/svg" xmlns:xlink="http://www.w3.org/1999/xlink" x="0px" y="0px"
	 viewBox="0 0 450 450" style="enable-background:new 0 0 450 450;" xml:space="preserve">
<style type="text/css">
	.st0{fill:#E6E6F0;stroke:#E6E6F0;stroke-width:20;stroke-miterlimit:10;}
	.st1{fill:#C9C4BE;}
	.st2{fill:#CBC6C0;}
	.st3{fill:#B49A64;}
</style>
<circle class="st0" cx="225" cy="136.5" r="111.5"/>
<path class="st0" d="M112.8,425c-3.1,0-5.6-2.4-5.6-5.4l58.9-215.9c0-1.5,1.2-2.7,2.8-2.7h112.2c1.5,0,2.8,1.2,2.8,2.7l58.9,215.9
	c0,3-2.5,5.4-5.6,5.4H112.8z"/>
<circle class="st1" cx="225" cy="136.5" r="111.5"/>
<path class="st2" d="M112.8,425c-3.1,0-5.6-2.4-5.6-5.4l58.9-215.9c0-1.5,1.2-2.7,2.8-2.7h112.2c1.5,0,2.8,1.2,2.8,2.7l58.9,215.9
	c0,3-2.5,5.4-5.6,5.4H112.8z"/>
<path class="st3" d="M122.6,414.3c-2.8,0-5.1-2.4-5.1-5.4l53.8-214.9c0-1.4,1.1-2.6,2.6-2.6h102.4c1.4,0,2.5,1.2,2.5,2.6L332.5,409
	c0,3-2.3,5.4-5.1,5.4L122.6,414.3L122.6,414.3z"/>
<circle class="st3" cx="225" cy="136.5" r="99.5"/>
<path class="st2" d="M129.3,408.8c-2.7,0-4.8-2.3-4.8-5.1l50.2-205.2c0-1.4,1.1-2.6,2.4-2.6h95.7c1.3,0,2.4,1.1,2.4,2.6l50.3,205.3
	c0,2.8-2.1,5.1-4.8,5.1L129.3,408.8L129.3,408.8z"/>
<circle class="st1" cx="225" cy="136.5" r="88.8"/>
<path class="st3" d="M151.4,391.6c-2.1,0-3.7-2.1-3.7-4.8l38.6-193.1c0-1.3,0.8-2.4,1.9-2.4h73.5c1,0,1.9,1.1,1.9,2.4l38.6,193.1
	c0,2.6-1.6,4.8-3.7,4.8H151.4z"/>
<circle class="st3" cx="225" cy="136.5" r="74.8"/>
<path class="st2" d="M163.6,381c-1.7,0-3.1-2-3.1-4.5l32.2-182.8c0-1.2,0.7-2.2,1.6-2.2h61.4c0.9,0,1.5,1,1.5,2.2l32.2,182.8
	c0,2.5-1.4,4.5-3,4.5H163.6z"/>
<circle class="st1" cx="225" cy="136.5" r="68"/>
<path class="st3" d="M201.1,346.1c-0.6,0-1.2-2-1.2-4.5l12.6-181.4c0-1.2,0.2-2.2,0.6-2.2H237c0.4,0,0.6,1,0.6,2.2l12.6,181.4
	c0,2.5-0.6,4.5-1.2,4.5H201.1z"/>
<circle class="st3" cx="225" cy="136.5" r="25.6"/>
</svg>
