<?xml version="1.0" encoding="utf-8"?>
<!-- Generator: Adobe Illustrator 28.0.0, SVG Export Plug-In . SVG Version: 6.00 Build 0)  -->
<svg version="1.1" id="funkei" xmlns="http://www.w3.org/2000/svg" xmlns:xlink="http://www.w3.org/1999/xlink" x="0px" y="0px"
	 viewBox="0 0 450 450" style="enable-background:new 0 0 450 450;" xml:space="preserve">
<style type="text/css">
	.st0{fill:#555555;stroke:#555555;stroke-width:50;stroke-miterlimit:10;}
	.st1{fill:#CBC6C0;}
	.st2{fill:#B59B64;}
	.st3{fill:#B69C64;}
</style>
<path class="st0" d="M175,45c0-11,4.5-20,10-20h80c5.5,0,10,9,10,20v360c0,11-4.5,20-10,20h-80c-5.5,0-10-9-10-20V45z"/>
<circle class="st0" cx="225" cy="225" r="115.7"/>
<path class="st1" d="M181.2,45c0-11,3.9-20,8.8-20h70c4.8,0,8.8,9,8.8,20v360c0,11-3.9,20-8.8,20h-70c-4.8,0-8.8-9-8.8-20V45z"/>
<circle class="st1" cx="225" cy="225" r="115.7"/>
<path class="st2" d="M203.1,60.3c0-5.8,1.9-10.3,4.4-10.3h35c2.4,0,4.4,4.5,4.4,10.3v329.4c0,5.8-1.9,10.3-4.4,10.3h-35
	c-2.4,0-4.4-4.5-4.4-10.3V60.3z"/>
<circle class="st3" cx="225" cy="225" r="85"/>
</svg>
