<?xml version="1.0" encoding="utf-8"?>
<!-- Generator: Adobe Illustrator 28.0.0, SVG Export Plug-In . SVG Version: 6.00 Build 0)  -->
<svg version="1.1" id="funkei" xmlns="http://www.w3.org/2000/svg" xmlns:xlink="http://www.w3.org/1999/xlink" x="0px" y="0px"
	 viewBox="0 0 450 450" style="enable-background:new 0 0 450 450;" xml:space="preserve">
<style type="text/css">
	.st0{fill:#555555;}
	.st1{fill:#6E92A1;}
	.st2{fill:#CCC7C1;}
	.st3{fill:#B49A64;}
</style>
<g>
	<path class="st0" d="M61.4,444.6c3.3-51.6,6.6-103.1,9.9-154.7s6.6-103.2,9.9-154.7V135c3.8-34.8,19.7-67.6,44.6-92.2
		s57.3-39.5,91.1-42c3.5-0.2,6.9-0.3,10.2-0.3c71.3,0,133,54.5,143.6,126.6v0.2v0.2c3.1,52.5,6.2,105,9.4,157.3
		c3.1,52.5,6.3,104.8,9.4,157.3l0.3,5.7h-6c-52.8,0.4-105.6,0.9-158.4,1.3c-52.8,0.4-105.6,0.9-158.4,1.3H61L61.4,444.6z"/>
	<path class="st1" d="M86.3,420.3c2.8-45.9,5.6-91.6,8.4-137.5c2.8-45.9,5.6-91.7,8.4-137.5v-0.2c3.2-30.9,16.7-60.1,37.9-82
		s48.6-35.1,77.3-37.4c2.9-0.2,5.9-0.3,8.7-0.3c60.5,0,112.8,48.4,121.8,112.5v0.2v0.2c2.6,46.6,5.3,93.3,8,139.8
		c2.6,46.6,5.4,93.2,8,139.8l0.3,5.1H360c-44.8,0.4-89.6,0.8-134.4,1.2s-89.6,0.8-134.4,1.2H86L86.3,420.3z"/>
</g>
<circle class="st2" cx="225" cy="151.2" r="92.9"/>
<path class="st2" d="M131.5,391.7c-2.6,0-4.7-2-4.7-4.5l49.1-179.9c0-1.2,1-2.2,2.3-2.2h93.5c1.2,0,2.3,1,2.3,2.2l49.1,179.9
	c0,2.5-2.1,4.5-4.7,4.5H131.5z"/>
<path class="st3" d="M185.3,352.5c-1.1,0-2-1.9-2-4.4l20.8-176.8c0-1.2,0.4-2.2,1-2.2h39.8c0.6,0,1,1,1,2.2l20.8,176.8
	c0,2.4-0.9,4.4-2,4.4H185.3z"/>
<circle class="st3" cx="225" cy="151.2" r="46.5"/>
</svg>
