<?xml version="1.0" encoding="utf-8"?>
<!-- Generator: Adobe Illustrator 28.0.0, SVG Export Plug-In . SVG Version: 6.00 Build 0)  -->
<svg version="1.1" id="funkei" xmlns="http://www.w3.org/2000/svg" xmlns:xlink="http://www.w3.org/1999/xlink" x="0px" y="0px"
	 viewBox="0 0 450 450" style="enable-background:new 0 0 450 450;" xml:space="preserve">
<style type="text/css">
	.st0{fill:#555555;stroke:#555555;stroke-width:50;stroke-miterlimit:10;}
	.st1{fill:#A57C52;}
	.st2{fill:#B49A64;}
</style>
<circle class="st0" cx="225" cy="136.5" r="111.5"/>
<path class="st0" d="M112.8,425c-3.1,0-5.6-2.4-5.6-5.4l58.9-215.9c0-1.5,1.2-2.7,2.8-2.7h112.2c1.5,0,2.8,1.2,2.8,2.7l58.9,215.9
	c0,3-2.5,5.4-5.6,5.4H112.8z"/>
<circle class="st1" cx="225" cy="136.5" r="111.5"/>
<path class="st1" d="M112.8,425c-3.1,0-5.6-2.4-5.6-5.4l58.9-215.9c0-1.5,1.2-2.7,2.8-2.7h112.2c1.5,0,2.8,1.2,2.8,2.7l58.9,215.9
	c0,3-2.5,5.4-5.6,5.4H112.8z"/>
<path class="st2" d="M177.4,378c-1.3,0-2.4-2.3-2.4-5.3l25-212.1c0-1.5,0.5-2.6,1.2-2.6h47.7c0.7,0,1.2,1.2,1.2,2.6l25,212.1
	c0,2.9-1.1,5.3-2.4,5.3H177.4z"/>
<circle class="st2" cx="225" cy="136.5" r="55.8"/>
</svg>
