<?xml version="1.0" encoding="utf-8"?>
<!-- Generator: Adobe Illustrator 28.0.0, SVG Export Plug-In . SVG Version: 6.00 Build 0)  -->
<svg version="1.1" id="funkei" xmlns="http://www.w3.org/2000/svg" xmlns:xlink="http://www.w3.org/1999/xlink" x="0px" y="0px"
	 viewBox="0 0 450 450" style="enable-background:new 0 0 450 450;" xml:space="preserve">
<style type="text/css">
	.st0{fill:#555555;}
	.st1{fill:#6E92A1;}
	.st2{fill:#A57C52;}
	.st3{fill:#B49A64;}
</style>
<g>
	<path class="st0" d="M60.9,444.2c3.3-51.6,6.6-103.2,9.9-154.8c3.3-51.6,6.6-103.1,9.9-154.6v-0.2c3.8-34.8,19.7-67.6,44.6-92.2
		s57.3-39.5,91.1-42c3.5-0.2,6.9-0.3,10.2-0.3c71.3,0,133,54.4,143.6,126.5v0.2v0.2c3.1,52.7,6.3,105.3,9.4,157.9
		c3.1,52.2,6.2,104.5,9.3,156.7l0.3,5.7h-6c-52.8,0.4-105.6,0.9-158.4,1.3c-52.8,0.4-105.6,0.9-158.4,1.3h-6.2L60.9,444.2z"/>
	<path class="st1" d="M85.8,419.8c2.8-45.9,5.6-91.7,8.4-137.6s5.6-91.6,8.4-137.5v-0.2c3.2-30.9,16.7-60.1,37.9-82
		c21.2-21.9,48.6-35.1,77.3-37.4c2.9-0.2,5.9-0.3,8.7-0.3c60.5,0,112.8,48.4,121.8,112.5v0.2v0.2c2.6,46.8,5.4,93.6,8,140.4
		c2.6,46.4,5.3,92.9,7.9,139.3l0.3,5.1h-5.1c-44.8,0.4-89.6,0.8-134.3,1.2s-89.6,0.8-134.3,1.2h-5.3L85.8,419.8z"/>
</g>
<circle class="st2" cx="225" cy="151.2" r="92.9"/>
<path class="st2" d="M131.5,391.7c-2.6,0-4.7-2-4.7-4.5l49.1-179.9c0-1.2,1-2.2,2.3-2.2h93.5c1.2,0,2.3,1,2.3,2.2l49.1,179.9
	c0,2.5-2.1,4.5-4.7,4.5H131.5z"/>
<path class="st3" d="M139.7,382.8c-2.3,0-4.2-2-4.2-4.5l44.8-179.1c0-1.2,0.9-2.2,2.2-2.2h85.3c1.2,0,2.1,1,2.1,2.2l44.8,179.2
	c0,2.5-1.9,4.5-4.3,4.5L139.7,382.8L139.7,382.8z"/>
<circle class="st3" cx="225" cy="151.2" r="82.9"/>
<path class="st2" d="M145.2,378.2c-2.2,0-4-1.9-4-4.2L183,203c0-1.2,0.9-2.2,2-2.2h79.7c1.1,0,2,0.9,2,2.2l42,171
	c0,2.3-1.8,4.2-4,4.2H145.2L145.2,378.2z"/>
<circle class="st2" cx="225" cy="151.2" r="74"/>
<path class="st3" d="M163.7,363.8c-1.8,0-3.1-1.8-3.1-4l32.2-160.9c0-1.1,0.7-2,1.6-2h61.2c0.8,0,1.6,0.9,1.6,2l32.2,160.9
	c0,2.2-1.3,4-3.1,4H163.7z"/>
<circle class="st3" cx="225" cy="151.2" r="62.3"/>
<path class="st2" d="M173.8,355c-1.4,0-2.6-1.7-2.6-3.8L198,198.9c0-1,0.6-1.8,1.3-1.8h51.2c0.8,0,1.2,0.8,1.2,1.8l26.8,152.3
	c0,2.1-1.2,3.8-2.5,3.8H173.8z"/>
<circle class="st2" cx="225" cy="151.2" r="56.7"/>
<path class="st3" d="M205.1,325.9c-0.5,0-1-1.7-1-3.8L214.6,171c0-1,0.2-1.8,0.5-1.8H235c0.3,0,0.5,0.8,0.5,1.8L246,322.2
	c0,2.1-0.5,3.8-1,3.8h-39.9V325.9z"/>
<circle class="st3" cx="225" cy="151.2" r="21.3"/>
</svg>
