<?xml version="1.0" encoding="utf-8"?>
<!-- Generator: Adobe Illustrator 27.0.1, SVG Export Plug-In . SVG Version: 6.00 Build 0)  -->
<svg version="1.1" id="layer" xmlns="http://www.w3.org/2000/svg" xmlns:xlink="http://www.w3.org/1999/xlink" x="0px" y="0px"
	 viewBox="0 0 2162.1 2000" style="enable-background:new 0 0 2162.1 2000;" xml:space="preserve">
<style type="text/css">
	.st0{fill:#D4E5C2;}
</style>
<g transform="translate(0.000000,1174.000000) scale(0.100000,-0.100000)">
	<path class="st0" d="M9204.7,11748.5c-24.1-6.9-88-34.5-143.1-60.4c-69-32.8-113.8-44.8-144.9-37.9c-24.1,6.9-69,3.4-100-6.9
		c-46.6-15.5-72.4-12.1-144.9,17.2c-106.9,41.4-122.4,43.1-122.4,8.6s-101.8-34.5-148.3,0c-43.1,32.8-67.3,32.8-100,0
		c-13.8-15.5-62.1-32.8-105.2-41.4c-44.8-8.6-89.7-24.1-100-34.5c-22.4-22.4-98.3-25.9-98.3-3.4c0,8.6-53.5,25.9-119,36.2
		c-108.7,20.7-156.9,19-393.2-12.1c-48.3-5.2-74.2-1.7-74.2,10.3c0,31-31,22.4-75.9-24.1c-39.7-37.9-56.9-43.1-179.4-43.1
		c-241.4,0-458.7-63.8-572.6-165.6c-69-62.1-96.6-72.4-106.9-37.9c-5.2,15.5-20.7,13.8-53.5-8.6c-24.1-15.5-63.8-29.3-88-29.3
		s-75.9-27.6-120.7-67.3c-89.7-77.6-150-100-291.5-110.4c-86.2-6.9-106.9-1.7-146.6,31c-39.7,34.5-50,36.2-96.6,17.2
		c-32.8-12.1-134.5-19-253.5-19c-191.4,1.7-201.8,3.4-262.1,50c-44.8,32.8-63.8,62.1-63.8,93.1c0,41.4-1.7,43.1-79.3,31
		c-44.8-5.2-89.7-15.5-100-19c-12.1-5.2-50-77.6-86.2-163.8s-100-201.8-141.4-255.2c-72.4-94.9-84.5-105.2-288-191.4
		c-181.1-75.9-231.1-106.9-327.7-196.6c-94.9-86.2-115.5-115.5-115.5-158.7c0-34.5-22.4-82.8-63.8-138
		c-55.2-72.4-67.3-101.8-75.9-205.2c-8.6-91.4-6.9-127.6,12.1-148.3c13.8-13.8,24.1-37.9,24.1-51.7c0-31-213.9-239.7-350.1-344.9
		c-55.2-41.4-127.6-96.6-158.7-120.7c-44.8-34.5-91.4-48.3-215.6-63.8c-151.8-19-270.8-63.8-263.9-100c1.7-8.6-3.4-22.4-12.1-32.8
		c-6.9-8.6-27.6-65.5-43.1-124.2c-34.5-120.7-43.1-131.1-179.4-203.5c-86.2-46.6-101.8-63.8-155.2-172.5
		c-32.8-70.7-62.1-163.8-70.7-222.5c-12.1-108.7-1.7-94.9-205.2-265.6c-48.3-41.4-96.6-91.4-106.9-112.1l-20.7-37.9l41.4,34.5
		l39.7,34.5l-39.7-60.4c-36.2-56.9-65.5-117.3-136.2-281.1c-15.5-37.9-44.8-74.2-65.5-82.8c-22.4-6.9-50-36.2-63.8-62.1
		c-31-60.4-72.4-322.5-56.9-362.2c10.3-25.9,17.2-22.4,51.7,20.7l39.7,50l37.9-72.4c36.2-70.7,70.7-94.9,70.7-50
		c1.7,10.3,15.5-6.9,34.5-39.7c41.4-75.9,46.6-193.2,8.6-179.4c-15.5,6.9-31-1.7-37.9-20.7c-6.9-17.2-3.4-32.8,8.6-37.9
		c13.8-3.4,13.8-17.2,0-48.3c-17.2-34.5-13.8-48.3,19-81.1c46.6-51.7,62.1-106.9,77.6-272.5c12.1-124.2,10.3-139.7-50-293.2
		c-41.4-105.2-65.5-200.1-70.7-272.5c-8.6-132.8-56.9-225.9-170.7-326c-84.5-74.2-93.1-89.7-50-89.7c39.7,0,144.9-110.4,144.9-153.5
		c0-22.4,10.3-36.2,29.3-36.2c22.4,0,24.1-5.2,8.6-20.7c-29.3-29.3-25.9-53.5,3.4-43.1c17.2,6.9,22.4,1.7,17.2-13.8
		c-6.9-15.5,12.1-37.9,48.3-60.4c43.1-25.9,48.3-34.5,24.1-34.5c-19,0-46.6,12.1-63.8,27.6c-27.6,24.1-31,24.1-48.3-6.9
		c-10.3-19-13.8-37.9-6.9-44.8c5.2-5.2,8.6-63.8,6.9-131.1c-3.4-108.6,0-125.9,36.2-155.2c22.4-19,48.3-32.8,56.9-34.5
		c10.3,0,19-17.2,20.7-36.2c1.7-20.7,12.1-46.6,22.4-56.9c20.7-20.7,134.5-22.4,179.4-1.7c25.9,10.3,29.3,8.6,19-6.9
		c-15.5-27.6,19-51.7,77.6-55.2c36.2-1.7,37.9-3.4,8.6-10.3c-19-5.2-44.8-17.2-56.9-25.9c-24.1-20.7-27.6-55.2-3.4-39.7
		c10.3,5.2,17.2-1.7,17.2-17.2c0-31,39.7-77.6,67.3-77.6c8.6,0,22.4-15.5,27.6-34.5c13.8-43.1,41.4-44.8,70.7-3.4
		c20.7,25.9,22.4,24.1,24.1-19c0-32.8,6.9-44.8,20.7-36.2c12.1,6.9,13.8,5.2,6.9-6.9c-6.9-10.3,1.7-39.7,17.2-63.8
		c31-48.3,172.5-153.5,229.4-172.5c27.6-8.6,36.2-22.4,31-43.1c-5.2-19,8.6-46.6,31-69c22.4-20.7,44.8-56.9,50-79.3
		c6.9-22.4,19-41.4,29.3-41.4s8.6-13.8-3.4-37.9c-17.2-31-13.8-41.4,12.1-62.1c31-22.4,29.3-24.1-15.5-13.8l-50,12.1l31-51.7
		c15.5-27.6,48.3-58.6,70.7-69c22.4-10.3,39.7-29.3,36.2-43.1s13.8-41.4,36.2-60.4c39.7-34.5,39.7-36.2,5.2-36.2
		c-58.6,0-60.4-31,0-43.1c98.3-22.4,357-155.2,389.8-201.8c12.1-17.2,53.5-46.6,91.4-65.5c36.2-19,67.3-43.1,67.3-53.5
		c0-8.6,36.2-32.8,79.3-50c44.8-20.7,138-91.4,220.7-170.7c115.5-110.4,172.5-150,313.9-217.3c93.1-44.8,191.4-91.4,219-105.2
		c43.1-24.1,56.9-22.4,198.3,29.3c82.8,29.3,158.7,60.4,169,69c46.6,37.9,188,70.7,394.9,94.9c224.2,25.9,526,27.6,526,3.4
		c0-8.6,32.8-13.8,74.2-13.8c39.7-1.7,103.5-13.8,141.4-27.6c122.4-46.6,131.1-46.6,181.1-10.3c25.9,19,94.9,48.3,151.8,63.8
		c58.6,13.8,170.7,56.9,248.3,94.9c79.3,37.9,172.5,74.2,208.7,81.1c34.5,5.2,63.8,15.5,63.8,24.1c0,19-51.7,67.3-72.4,67.3
		c-10.3,0-15.5,5.2-10.3,10.3c17.2,17.2,79.3-25.9,91.4-62.1c13.8-44.8,69-32.8,124.2,27.6c53.5,56.9,225.9,94.9,443.2,94.9
		c127.6,0,184.5,6.9,213.9,25.9c22.4,15.5,44.8,22.4,51.7,17.2c5.2-5.2,0-10.3-10.3-10.3c-12.1,0-20.7-5.2-20.7-12.1
		c0-8.6,44.8-13.8,100-15.5c125.9,0,239.7-60.4,288-151.8c19-34.5,44.8-62.1,56.9-62.1s17.2-8.6,12.1-19
		c-6.9-10.3,3.4-22.4,24.1-27.6c31-8.6,32.8-13.8,15.5-36.2c-17.2-20.7-17.2-27.6,0-32.8c10.3-5.2,20.7-24.1,20.7-41.4
		c0-75.9,89.7-189.7,167.3-212.1c20.7-6.9,41.4-5.2,46.6,5.2c5.2,8.6,25.9,12.1,44.8,6.9c19-5.2,62.1-3.4,96.6,1.7
		c50,10.3,56.9,17.2,41.4,37.9c-25.9,29.3,1.7,32.8,31,3.4c15.5-15.5,25.9-15.5,41.4,0c29.3,29.3,67.3,25.9,55.2-5.2
		c-6.9-13.8-1.7-25.9,8.6-25.9c12.1,0,24.1,10.3,29.3,22.4c5.2,17.2,46.6,25.9,124.2,27.6c63.8,1.7,119,10.3,120.7,20.7
		c10.3,25.9,37.9,17.2,37.9-10.3c0-17.2,17.2-25.9,48.3-25.9c36.2,0,53.5-13.8,72.4-55.2c32.8-70.7,127.6-129.3,162.1-101.8
		c17.2,13.8,27.6,15.5,36.2,1.7c5.2-8.6,1.7-17.2-6.9-17.2c-32.8,0-20.7-44.8,34.5-120.7l53.5-72.4l-25.9-125.9
		c-13.8-69-20.7-146.6-17.2-170.7c6.9-29.3-6.9-72.4-39.7-125.9c-72.4-119-79.3-143.1-50-153.5c13.8-6.9,25.9-29.3,25.9-51.7
		c0-29.3-12.1-43.1-43.1-51.7l-44.8-10.3l37.9-63.8c19-34.5,25.9-51.7,13.8-39.7c-37.9,36.2-44.8,24.1-43.1-74.2
		c0-86.2-5.2-101.8-51.7-144.9c-37.9-34.5-60.4-44.8-77.6-34.5c-13.8,8.6-29.3,15.5-37.9,15.5c-15.5,0,31-112.1,70.7-172.5
		c27.6-41.4,31-50,36.2-86.2c0-8.6,19-17.2,39.7-17.2c29.3,0,32.8-5.2,17.2-20.7c-32.8-32.8-25.9-46.6,36.2-74.2
		c31-13.8,37.9-20.7,15.5-15.5l-39.7,10.3L9215,830c37.9-56.9,56.9-70.7,88-63.8c20.7,3.4,34.5,1.7,31-6.9
		c-5.2-6.9,5.2-17.2,20.7-20.7c17.2-3.4,10.3-5.2-17.2-3.4c-67.3,3.4-51.7-22.4,63.8-108.7c53.5-41.4,139.7-127.6,189.7-189.7
		c51.7-63.8,120.7-143.1,156.9-175.9c34.5-32.8,77.6-88,93.1-120.7c17.2-32.8,46.6-89.7,67.3-125.9s36.2-86.2,34.5-112.1
		s41.4-141.4,94.9-257c53.5-115.5,105.2-239.7,113.8-275.9c10.3-36.2,41.4-112.1,70.7-167.3c67.3-132.8,67.3-188,0-229.4
		c-27.6-15.5-51.7-41.4-51.7-53.5c0-39.7,141.4-384.6,186.3-458.7c41.4-65.5,41.4-74.2,25.9-234.5c-19-193.2-51.7-255.2-162.1-310.4
		c-39.7-20.7-67.3-48.3-67.3-65.5c0-17.2-27.6-56.9-60.4-89.7c-41.4-39.7-60.4-74.2-60.4-108.7c0-25.9-8.6-65.5-20.7-86.2
		c-10.3-20.7-25.9-75.9-32.8-124.2c-19-141.4-81.1-327.7-125.9-376c-36.2-39.7-39.7-50-24.1-141.4c8.6-55.2,12.1-108.7,6.9-119
		c-3.4-10.3-8.6-5.2-8.6,12.1c-1.7,15.5-10.3,29.3-20.7,29.3c-12.1,0-13.8-12.1-5.2-29.3c6.9-17.2,15.5-105.2,17.2-194.9
		c1.7-136.2,10.3-179.4,46.6-258.7c25.9-53.5,70.7-119,100-146.6c29.3-29.3,70.7-86.2,93.1-129.3s67.3-122.4,101.8-179.4
		c32.8-55.2,74.2-139.7,89.7-188s63.8-138,103.5-198.3c41.4-60.4,75.9-119,75.9-131.1s20.7-39.7,44.8-63.8
		c24.1-22.4,58.6-63.8,75.9-93.1c36.2-58.6,65.5-191.4,39.7-175.9c-10.3,6.9-13.8-62.1-8.6-182.8c6.9-156.9,15.5-208.7,48.3-272.5
		c24.1-48.3,44.8-136.2,56.9-232.8c22.4-201.8,36.2-267.3,63.8-310.4c13.8-19,19-39.7,13.8-46.6c-15.5-15.5,51.7-181.1,117.3-293.2
		c46.6-79.3,196.6-232.8,250.1-257c37.9-15.5,113.8-146.6,170.7-291.5c81.1-208.7,113.8-272.5,217.3-426
		c46.6-70.7,96.6-153.5,110.4-184.5c50-119,19-232.8-63.8-232.8c-46.6,0-41.4-51.7,10.3-101.8c24.1-22.4,43.1-48.3,43.1-56.9
		s15.5-39.7,36.2-67.3c31-44.8,32.8-58.6,15.5-112.1c-12.1-32.8-15.5-70.7-10.3-84.5c13.8-37.9,56.9-31,67.3,8.6
		c12.1,46.6,60.4,43.1,67.3-3.4c3.4-31,19-41.4,62.1-44.8c31-3.4,62.1-17.2,67.3-31c20.7-55.2,227.6-103.5,255.2-58.6
		c27.6,44.8,169,84.5,303.5,84.5c125.9,0,146.6,5.2,208.7,46.6c63.8,44.8,84.5,48.3,244.9,53.5c300.1,6.9,339.7,5.2,438-20.7
		c84.5-20.7,100-20.7,124.2,0c19,17.2,63.8,25.9,125.9,25.9c86.2,0,96.6,3.4,101.8,39.7c5.2,34.5,13.8,37.9,134.5,39.7
		c113.8,0,144.9,8.6,250.1,62.1c169,86.2,355.3,224.2,517.4,379.4c75.9,72.4,179.4,162.1,229.4,198.3
		c93.1,67.3,301.8,332.8,363.9,462.2c41.4,86.2,119,165.6,246.6,253.5c112.1,75.9,138,117.3,169,263.9
		c12.1,56.9,36.2,141.4,55.2,189.7c19,46.6,29.3,98.3,25.9,113.8c-5.2,15.5-3.4,81.1,3.4,143.1c10.3,101.8,8.6,117.3-20.7,136.2
		c-32.8,20.7-32.8,24.1-5.2,77.6c39.7,75.9,94.9,106.9,346.6,191.4c155.2,53.5,232.8,89.7,284.6,136.2
		c93.1,79.3,162.1,229.4,93.1,203.5c-22.4-8.6-25.9,0-15.5,62.1c6.9,41.4,22.4,96.6,36.2,124.2c15.5,32.8,19,55.2,8.6,62.1
		c-10.3,5.2-15.5,53.5-13.8,106.9c3.4,100-22.4,138-41.4,62.1c-5.2-22.4-10.3,3.4-8.6,55.2c0,62.1-12.1,119-36.2,163.8
		c-22.4,44.8-32.8,88-27.6,124.2c6.9,46.6,0,65.5-44.8,106.9c-50,46.6-55.2,60.4-51.7,138c3.4,74.2,10.3,88,37.9,88
		c20.7,0,86.2,53.5,156.9,125.9c69,69,146.6,131.1,177.6,141.4c36.2,12.1,96.6,65.5,172.5,155.2c65.5,75.9,148.3,158.7,186.3,184.5
		c79.3,53.5,298.4,146.6,388,162.1c32.8,6.9,79.3,29.3,103.5,50c24.1,22.4,75.9,55.2,117.3,75.9c41.4,20.7,79.3,51.7,84.5,67.3
		c15.5,39.7,131.1,194.9,175.9,234.5c67.3,60.4,115.5,294.9,63.8,313.9c-13.8,5.2-20.7,22.4-15.5,43.1c5.2,17.2,1.7,32.8-6.9,32.8
		c-6.9,0-15.5,75.9-17.2,169c-3.4,124.2-10.3,165.6-25.9,162.1c-12.1-3.4-6.9,10.3,10.3,29.3c24.1,25.9,27.6,41.4,13.8,56.9
		c-8.6,12.1-22.4,96.6-29.3,186.3c-8.6,127.6-5.2,181.1,15.5,241.4c13.8,43.1,19,79.3,10.3,82.8s-10.3,17.2-5.2,31
		c12.1,32.8-50,98.3-144.9,155.2c-41.4,22.4-74.2,44.8-74.2,46.6c-1.7,55.2-39.7,212.1-55.2,231.1c-12.1,15.5-22.4,36.2-22.4,46.6
		c-1.7,10.3-12.1,39.7-25.9,65.5c-19,39.7-19,63.8,0,139.7c19,82.8,19,98.3-8.6,138c-27.6,43.1-27.6,48.3,6.9,103.5
		c20.7,32.8,36.2,69,36.2,81.1s-41.4,63.8-93.1,115.5s-98.3,112.1-103.5,134.5c-6.9,24.1,8.6,89.7,39.7,167.3
		c27.6,69,56.9,146.6,62.1,172.5c6.9,25.9,27.6,51.7,46.6,58.6c22.4,6.9,63.8,72.4,120.7,189.7c46.6,98.3,93.1,182.8,101.8,188
		c8.6,6.9,15.5,36.2,15.5,65.5c0,72.4,39.7,127.6,100,139.7c56.9,13.8,172.5,115.5,162.1,144.9c-3.4,12.1,8.6,20.7,25.9,20.7
		c43.1,0,86.2,48.3,170.7,189.7c74.2,124.2,394.9,472.5,624.3,676c101.8,89.7,207,163.8,322.5,224.2
		c153.5,79.3,196.6,113.8,396.7,313.9c267.3,269,369.1,381.1,410.5,460.5c15.5,32.8,79.3,131.1,141.4,219
		c60.4,86.2,115.5,177.6,120.7,201.8c5.2,24.1,12.1,60.4,17.2,82.8c3.4,20.7,39.7,86.2,77.6,146.6c39.7,58.6,84.5,141.4,101.8,181.1
		c17.2,39.7,44.8,84.5,60.4,98.3c17.2,12.1,58.6,79.3,91.4,144.9c32.8,67.3,74.2,138,93.1,156.9c19,20.7,39.7,86.2,51.7,163.8
		c12.1,70.7,32.8,143.1,46.6,160.4c32.8,37.9,56.9,222.5,32.8,239.7c-12.1,6.9-6.9,39.7,12.1,91.4c19,48.3,25.9,86.2,15.5,96.6
		c-8.6,8.6-51.7,20.7-98.3,25.9c-75.9,10.3-84.5,8.6-131.1-41.4c-25.9-29.3-70.7-58.6-98.3-63.8c-25.9-5.2-91.4-22.4-143.1-37.9
		s-144.9-29.3-207-29.3c-62.1-1.7-131.1-12.1-153.5-25.9c-29.3-15.5-72.4-20.7-146.6-12.1c-98.3,10.3-106.9,6.9-220.8-60.4
		l-119-72.4l-103.5,29.3l-101.8,27.6l-91.4-50c-48.3-27.6-125.9-60.4-169-70.7c-70.7-17.2-91.4-15.5-156.9,13.8
		c-43.1,19-103.5,65.5-136.2,106.9c-32.8,39.7-75.9,93.1-96.6,117.3c-32.8,41.4-48.3,46.6-139.7,46.6c-112.1,0-110.4,6.9,27.6,69
		c103.5,48.3,117.3,70.7,91.4,150c-20.7,60.4-94.9,153.5-117.3,150c-36.2-6.9-56.9,3.4-56.9,29.3c0,15.5-22.4,36.2-51.7,46.6
		c-32.8,12.1-53.5,34.5-60.4,65.5c-12.1,51.7-62.1,101.8-143.1,143.1c-29.3,15.5-74.2,58.6-96.6,94.9
		c-56.9,89.7-115.5,132.8-201.8,146.6c-77.6,12.1-170.7,55.2-170.7,77.6c0,6.9-15.5,31-32.8,51.7c-19,22.4-37.9,48.3-41.4,58.6
		c-12.1,37.9-50-10.3-39.7-55.2c6.9-39.7,5.2-37.9-15.5,10.3c-13.8,29.3-34.5,60.4-46.6,69c-31,19-65.5,113.8-91.4,255.2
		c-24.1,131.1-34.5,158.7-124.2,350.1c-34.5,74.2-69,124.2-84.5,124.2c-13.8,0-62.1,34.5-106.9,75.9s-98.3,79.3-119,86.2
		s-44.8,34.5-55.2,63.8c-24.1,69-58.6,401.8-48.3,469.1c3.4,32.8-1.7,63.8-15.5,77.6c-32.8,32.8-31,65.5,1.7,37.9
		c51.7-43.1,44.8-3.4-8.6,58.6c-34.5,37.9-58.6,88-65.5,134.5c-10.3,60.4-29.3,89.7-106.9,162.1c-51.7,48.3-120.7,101.8-150,117.3
		c-69,34.5-143.1,170.7-143.1,262.1c0,58.6,3.4,62.1,43.1,51.7c24.1-6.9,43.1-6.9,43.1-1.7c0,3.4-36.2,41.4-79.3,81.1
		c-46.6,43.1-103.5,120.7-134.5,186.3c-31,62.1-103.5,189.7-160.4,284.6c-58.6,94.9-122.4,222.5-143.1,282.8s-56.9,136.2-81.1,169
		c-37.9,50-41.4,62.1-20.7,75.9c19,12.1,6.9,31-58.6,93.1c-44.8,44.8-100,110.4-124.2,146.6c-22.4,36.2-50,70.7-58.6,75.9
		c-10.3,6.9-13.8,22.4-8.6,36.2s-5.2,51.7-25.9,82.8c-39.7,63.8-46.6,124.2-19,141.4c10.3,5.2,17.2-3.4,17.2-20.7
		c0-17.2,34.5-77.6,77.6-134.5c46.6-62.1,77.6-120.7,77.6-148.3c0-34.5,29.3-74.2,119-156.9c63.8-62.1,132.8-115.5,153.5-120.7
		c50-13.8,98.3,44.8,100,122.4c1.7,58.6,19,119,96.6,326c24.1,62.1,29.3,96.6,17.2,112.1c-10.3,10.3-51.7,106.9-94.9,213.9
		l-77.6,193.2l41.4,37.9c22.4,20.7,41.4,44.8,41.4,53.5c0,25.9-46.6,13.8-79.3-22.4c-63.8-70.7-124.2-89.7-250.1-77.6
		c-74.2,8.6-119,5.2-127.6-5.2c-15.5-27.6-105.2-22.4-129.3,6.9c-10.3,13.8-37.9,29.3-56.9,36.2c-20.7,5.2-48.3,20.7-62.1,31
		c-24.1,19-106.9,27.6-277.7,27.6c-184.5,0-207-3.4-207-37.9c0-24.1-10.3-32.8-39.7-27.6c-20.7,1.7-62.1-12.1-89.7-31
		c-77.6-55.2-158.7-93.1-194.9-93.1c-19,0-67.3,15.5-108.7,34.5s-105.2,34.5-139.7,34.5s-69,8.6-74.2,17.2
		c-5.2,10.3-34.5,17.2-62.1,17.2s-69,12.1-89.7,25.9c-22.4,13.8-96.6,32.8-165.6,43.1s-158.7,25.9-200.1,36.2
		c-51.7,13.8-91.4,13.8-139.7,0c-94.9-25.9-106.9-24.1-120.7,20.7c-24.1,81.1-56.9,98.3-182.8,98.3c-65.5,0-136.2,8.6-156.9,20.7
		c-20.7,10.3-75.9,27.6-124.2,37.9c-75.9,17.2-86.2,25.9-91.4,67.3s-19,50-150,91.4c-162.1,50-238,50-424.3-5.2
		c-151.8-44.8-257-105.2-303.5-175.9c-48.3-72.4-50-138-5.2-225.9c39.7-79.3,29.3-122.4-44.8-191.4
		c-77.6-72.4-158.7-106.9-220.8-94.9c-29.3,6.9-96.6,41.4-150,79.3c-125.9,88-365.6,167.3-563.9,188
		c-94.9,10.3-174.2,27.6-201.8,46.6c-50,32.8-94.9,108.6-94.9,158.7c0,63.8-63.8,119-150,132.8c-44.8,6.9-108.6,25.9-143.1,43.1
		c-32.8,15.5-98.3,36.2-146.6,43.1c-46.6,6.9-100,19-117.3,29.3c-20.7,10.3-70.7,10.3-148.3-5.2c-113.8-19-122.4-19-213.9,25.9
		c-110.4,51.7-158.7,56.9-181.1,15.5c-24.1-39.7-72.4-15.5-72.4,37.9c0,46.6-53.5,82.8-65.5,46.6c-8.6-27.6-56.9-25.9-51.7,0
		c3.4,12.1-13.8,24.1-37.9,27.6c-94.9,12.1-165.6,75.9-146.6,129.3c5.2,12.1,36.2,36.2,69,51.7s79.3,44.8,103.5,67.3
		c63.8,53.5,150,182.8,131.1,193.2c-6.9,5.2-19,32.8-24.1,60.4c-8.6,37.9-29.3,62.1-81.1,88c-56.9,29.3-69,43.1-69,86.2
		c0,29.3,6.9,51.7,15.5,51.7c39.7,0,122.4,93.1,132.8,148.3c5.2,32.8,6.9,65.5,0,70.7c-5.2,5.2-39.7-8.6-74.2-32.8
		c-91.4-58.6-125.9-70.7-125.9-37.9c0,13.8-12.1,29.3-27.6,36.2c-19,6.9-20.7,13.8-6.9,22.4c36.2,22.4-1.7,55.2-53.5,48.3
		c-27.6-5.2-46.6,0-44.8,10.3C9318.5,11758.9,9259.8,11765.8,9204.7,11748.5z M2182.1,5181.2c-17.2-3.4-44.8-3.4-60.4,0
		c-17.2,5.2-3.4,8.6,29.3,8.6S2197.6,5186.4,2182.1,5181.2z M2409.7,4744.9c0-8.6-15.5-17.2-36.2-17.2c-19,0-29.3,8.6-24.1,17.2
		c5.2,10.3,22.4,17.2,36.2,17.2C2399.4,4762.1,2409.7,4755.2,2409.7,4744.9z"/>
	<path class="st0" d="M2639.1,9497.9c-41.4-34.5-43.1-44.8-24.1-69c31-36.2,39.7-34.5,94.9,15.5
		C2799.5,9528.9,2733.9,9579,2639.1,9497.9z"/>
	<path class="st0" d="M1450.8,9409.9c-13.8-32.8,39.7-117.3,67.3-106.9c20.7,6.9,48.3,108.7,32.8,124.2
		C1531.9,9446.2,1459.4,9434.1,1450.8,9409.9z"/>
	<path class="st0" d="M2537.3,9346.1c-15.5-31-48.3-77.6-72.4-103.5l-44.8-48.3h48.3c75.9,0,146.6,46.6,162.1,108.7
		c8.6,29.3,12.1,65.5,6.9,77.6C2623.6,9422,2566.6,9401.3,2537.3,9346.1z"/>
	<path class="st0" d="M1900.9,9342.7c-19-12.1-60.4-29.3-89.7-36.2c-31-5.2-56.9-15.5-56.9-20.7c0-31,74.2-122.4,93.1-115.5
		c36.2,13.8,151.8,160.4,139.7,179.4C1971.7,9373.7,1940.6,9370.3,1900.9,9342.7z"/>
	<path class="st0" d="M1650.9,9237.5c-25.9-31-8.6-60.4,34.5-60.4c17.2,0,37.9,8.6,43.1,17.2c12.1,19-20.7,69-43.1,69
		C1678.5,9263.4,1662.9,9251.3,1650.9,9237.5z"/>
	<path class="st0" d="M2085.5,9225.4c-56.9-56.9,10.3-156.9,81.1-119c41.4,22.4,51.7,53.5,34.5,101.8
		C2185.5,9249.6,2120,9259.9,2085.5,9225.4z"/>
	<path class="st0" d="M1428.4,9140.9c-32.8-13.8-36.2-20.7-19-41.4c29.3-36.2,74.2-32.8,98.3,6.9c17.2,27.6,15.5,34.5-5.2,43.1
		c-15.5,5.2-27.6,10.3-29.3,8.6C1471.5,9158.2,1450.8,9149.5,1428.4,9140.9z"/>
	<path class="st0" d="M15982.4,9094.3c0-8.6,12.1-22.4,27.6-27.6c17.2-6.9,24.1-1.7,20.7,10.3
		C16022,9103,15982.4,9116.8,15982.4,9094.3z"/>
	<path class="st0" d="M121.2,6148.7c-19-8.6-32.8-75.9-15.5-75.9c32.8,0,113.8,43.1,108.7,58.6
		C207.4,6152.2,153.9,6162.5,121.2,6148.7z"/>
	<path class="st0" d="M190.1,6078c-34.5-13.8-25.9-39.7,12.1-39.7c19,0,34.5,12.1,34.5,25.9C236.7,6090.1,226.4,6093.5,190.1,6078z"
		/>
	<path class="st0" d="M747.2,6076.3c-13.8-22.4,17.2-89.7,41.4-89.7c24.1,0,20.7,39.7-5.2,77.6
		C766.2,6084.9,755.8,6088.4,747.2,6076.3z"/>
	<path class="st0" d="M262.6,6038.3c-5.2-8.6-1.7-17.2,6.9-17.2c10.3,0,19,8.6,19,17.2c0,10.3-3.4,17.2-6.9,17.2
		C276.4,6055.6,267.7,6048.7,262.6,6038.3z"/>
	<path class="st0" d="M369.5,6010.7c-24.1-24.1,10.3-51.7,56.9-44.8c62.1,8.6,67.3,29.3,13.8,44.8
		C390.2,6022.8,383.3,6022.8,369.5,6010.7z"/>
	<path class="st0" d="M17655.2,5903.8c0-10.3,8.6-20.7,19-24.1c13.8-5.2,10.3-17.2-8.6-36.2c-17.2-15.5-22.4-29.3-12.1-29.3
		s13.8-12.1,8.6-25.9c-13.8-32.8,17.2-32.8,44.8,0c10.3,13.8,13.8,34.5,6.9,46.6c-8.6,12.1-15.5,32.8-15.5,46.6
		C17698.3,5909,17655.2,5929.7,17655.2,5903.8z"/>
	<path class="st0" d="M764.4,5872.8c-20.7-55.2,36.2-81.1,74.2-34.5c17.2,20.7,13.8,29.3-13.8,43.1
		C780,5905.5,776.5,5905.5,764.4,5872.8z"/>
	<path class="st0" d="M17750.1,5796.9c-13.8-22.4-1.7-41.4,24.1-32.8c10.3,5.2,12.1,17.2,3.4,31
		C17767.3,5812.4,17760.4,5812.4,17750.1,5796.9z"/>
	<path class="st0" d="M685.1,5607.2c0-19,8.6-34.5,17.2-34.5c10.3,0,17.2,15.5,17.2,34.5s-6.9,34.5-17.2,34.5
		C693.7,5641.7,685.1,5626.2,685.1,5607.2z"/>
	<path class="st0" d="M542,5612.4c-41.4-39.7,27.6-124.2,84.5-101.8c32.8,12.1,31,37.9-10.3,79.3
		C579.9,5626.2,560.9,5631.3,542,5612.4z"/>
	<path class="st0" d="M18422.7,5348.5c-12.1-20.7,3.4-51.7,27.6-51.7c20.7,0,20.7,46.6,0,60.4
		C18441.6,5362.3,18429.6,5358.8,18422.7,5348.5z"/>
	<path class="st0" d="M18396.8,5245c0-8.6,6.9-17.2,15.5-17.2c10.3,0,22.4,8.6,27.6,17.2c5.2,10.3-1.7,17.2-15.5,17.2
		C18408.9,5262.3,18396.8,5255.4,18396.8,5245z"/>
	<path class="st0" d="M21397.6,4960.5c-15.5-17.2-10.3-32.8,15.5-58.6c46.6-46.6,141.4-46.6,243.2,0c72.4,32.8,74.2,36.2,43.1,55.2
		C21647.7,4986.3,21421.8,4988.1,21397.6,4960.5z"/>
	<path class="st0" d="M21035.5,4850.1c0-17.2,86.2-43.1,100-27.6c13.8,12.1,1.7,19-51.7,32.8
		C21056.1,4860.4,21035.5,4858.7,21035.5,4850.1z"/>
	<path class="st0" d="M21294.1,4831.1c0-8.6,8.6-17.2,17.2-17.2c10.3,0,17.2,8.6,17.2,17.2c0,10.3-6.9,17.2-17.2,17.2
		C21302.8,4848.4,21294.1,4841.5,21294.1,4831.1z"/>
	<path class="st0" d="M2019.9,4638c-8.6-13.8-3.4-15.5,15.5-8.6c17.2,6.9,29.3,3.4,29.3-6.9s10.3-15.5,24.1-10.3
		c12.1,5.2,32.8,0,43.1-10.3c15.5-15.5,24.1-13.8,36.2,5.2c24.1,36.2,20.7,51.7-8.6,51.7c-13.8,0-25.9-6.9-25.9-17.2
		s-15.5-10.3-44.8,0C2033.7,4662.1,2035.5,4662.1,2019.9,4638z"/>
	<path class="st0" d="M2211.4,4624.2c-5.2-8.6-3.4-17.2,6.9-17.2c8.6,0,22.4,8.6,27.6,17.2c5.2,10.3,3.4,17.2-6.9,17.2
		C2230.3,4641.4,2216.5,4634.5,2211.4,4624.2z"/>
	<path class="st0" d="M2073.4,4572.4c-5.2-8.6-1.7-17.2,6.9-17.2c10.3,0,19,8.6,19,17.2c0,10.3-3.4,17.2-6.9,17.2
		C2087.2,4589.7,2078.6,4582.8,2073.4,4572.4z"/>
	<path class="st0" d="M2220,4574.1c0-10.3-10.3-13.8-20.7-10.3c-34.5,12.1-67.3-17.2-55.2-48.3s41.4-39.7,41.4-12.1
		c0,10.3-8.6,17.2-19,17.2c-8.6,0-12.1,8.6-6.9,17.2c8.6,13.8,19,13.8,34.5,0c15.5-12.1,27.6-10.3,41.4,6.9s15.5,27.6,1.7,36.2
		C2228.6,4586.2,2220,4584.5,2220,4574.1z"/>
	<path class="st0" d="M2068.2,4517.2c8.6-25.9,48.3-31,50-5.2c0,10.3-12.1,20.7-29.3,22.4
		C2071.7,4539.7,2063.1,4532.8,2068.2,4517.2z"/>
	<path class="st0" d="M9020.1,2508.1c-12.1-5.2-22.4-17.2-22.4-29.3c0-13.8-17.2-44.8-37.9-70.7c-36.2-46.6-36.2-48.3-5.2-70.7
		c51.7-37.9,74.2-29.3,112.1,43.1C9111.5,2468.4,9087.4,2532.2,9020.1,2508.1z"/>
	<path class="st0" d="M8642.4,1897.6c-5.2-10.3-1.7-27.6,8.6-37.9c13.8-13.8,19-8.6,19,19C8670,1920,8661.4,1926.9,8642.4,1897.6z"
		/>
	<path class="st0" d="M17579.3,24.6c1.7-46.6,8.6-81.1,13.8-77.6c5.2,1.7,17.2,3.4,25.9,3.4c22.4,0,34.5,108.7,15.5,134.5
		C17596.6,129.8,17575.9,105.7,17579.3,24.6z"/>
	<path class="st0" d="M17455.2-159.9c-13.8-36.2,0-139.7,17.2-134.5c8.6,3.4,22.4-5.2,31-20.7s22.4-27.6,29.3-27.6
		c29.3,0,36.2,56.9,13.8,84.5c-13.8,15.5-29.3,48.3-36.2,75.9C17498.3-132.3,17470.7-120.2,17455.2-159.9z"/>
	<path class="st0" d="M17600-711.8c-27.6-20.7-48.3-43.1-48.3-50c0-24.1,46.6-12.1,75.9,20.7
		C17674.2-689.4,17653.5-668.7,17600-711.8z"/>
	<path class="st0" d="M19466.1-1239.5c0-8.6,8.6-17.2,17.2-17.2c10.3,0,17.2,8.6,17.2,17.2c0,10.3-6.9,17.2-17.2,17.2
		C19474.7-1222.3,19466.1-1229.2,19466.1-1239.5z"/>
	<path class="st0" d="M18562.4-1715.5c-19-48.3-10.3-88,24.1-119c53.5-48.3,77.6-13.8,50,75.9
		C18615.8-1686.2,18581.3-1667.2,18562.4-1715.5z"/>
	<path class="st0" d="M20212.8-1889.7c-17.2-51.7-60.4-91.4-96.6-91.4c-32.8,0-32.8-1.7-6.9-31c17.2-17.2,29.3-50,29.3-74.2
		c0-62.1-55.2-156.9-98.3-172.5c-34.5-12.1-39.7-8.6-39.7,27.6c0,24.1-8.6,43.1-17.2,43.1c-27.6,0-44.8-56.9-20.7-65.5
		c24.1-6.9,27.6-65.5,5.2-81.1c-8.6-5.2-20.7,6.9-27.6,25.9c-5.2,19-17.2,34.5-25.9,34.5c-27.6,0-72.4-82.8-58.6-106.9
		c8.6-12.1,15.5-43.1,17.2-69c1.7-36.2-5.2-48.3-29.3-48.3c-41.4,0-55.2-25.9-36.2-63.8c19-34.5-20.7-88-39.7-56.9
		s-41.4,17.2-88-51.7c-32.8-48.3-41.4-81.1-34.5-112.1c6.9-24.1,3.4-43.1-6.9-43.1c-8.6,0-17.2,13.8-17.2,31
		c0,48.3-17.2,56.9-67.3,31c-72.4-37.9-127.6-106.9-117.3-148.3c5.2-19,1.7-31-6.9-24.1c-8.6,5.2-15.5,20.7-15.5,34.5
		c0,19-6.9,20.7-32.8,6.9c-19-8.6-53.5-17.2-77.6-17.2s-50-10.3-56.9-22.4c-19-31-88-48.3-96.6-24.1c-3.4,12.1-25.9,5.2-55.2-19
		c-29.3-24.1-72.4-37.9-110.4-37.9c-79.3,0-105.2-24.1-105.2-103.5c0-41.4-19-86.2-60.4-144.9c-60.4-86.2-60.4-86.2-50-224.2
		c6.9-81.1,25.9-167.3,43.1-203.5c19-36.2,32.8-86.2,32.8-112.1s12.1-63.8,27.6-82.8c17.2-24.1,22.4-53.5,15.5-96.6
		c-6.9-36.2-3.4-69,6.9-74.2c10.3-6.9,0-36.2-25.9-74.2c-22.4-34.5-67.3-113.8-98.3-177.6c-29.3-63.8-69-122.4-88-131.1
		c-17.2-8.6-51.7-62.1-74.2-119c-60.4-144.9-51.7-260.4,34.5-396.7c51.7-81.1,58.6-106.9,43.1-134.5
		c-29.3-55.2-8.6-213.9,34.5-258.7c20.7-22.4,37.9-50,37.9-62.1c0-36.2,138-156.9,177.6-156.9c20.7,0,74.2-19,119-43.1
		s91.4-43.1,103.5-43.1c13.8,0,77.6,25.9,143.1,56.9c67.3,32.8,158.7,63.8,205.2,69c119,17.2,156.9,48.3,191.4,153.5
		c17.2,50,44.8,120.7,62.1,155.2c19,36.2,55.2,160.4,82.8,275.9c27.6,117.3,75.9,267.3,105.2,332.8c29.3,67.3,65.5,169,79.3,229.4
		s41.4,148.3,60.4,198.3c20.7,50,82.8,224.2,138,386.3c86.2,251.8,101.8,315.6,101.8,417.4c0,98.3,5.2,124.2,32.8,143.1
		c17.2,12.1,41.4,55.2,53.5,94.9c19,63.8,19,79.3-6.9,117.3c-15.5,24.1-24.1,51.7-19,60.4s0,31-10.3,48.3
		c-20.7,34.5-12.1,89.7,15.5,89.7c8.6,0,27.6-31,43.1-69c29.3-74.2,75.9-105.2,100-67.3c8.6,13.8,27.6,62.1,43.1,106.9
		c27.6,82.8,27.6,82.8-19,150c-34.5,48.3-44.8,82.8-41.4,132.8c3.4,36.2,0,75.9-6.9,86.2c-6.9,12.1-8.6,39.7-3.4,62.1
		c6.9,27.6-1.7,69-24.1,112.1c-20.7,39.7-36.2,93.1-36.2,122.4c0,31-19,69-51.7,105.2c-27.6,31-51.7,65.5-51.7,77.6
		c0,13.8-13.8,34.5-32.8,46.6c-17.2,12.1-34.5,37.9-37.9,55.2C20266.3-1860.4,20228.3-1850,20212.8-1889.7z"/>
	<path class="st0" d="M18884.9-1891.4c-50-6.9-50-29.3-1.7-62.1c46.6-32.8,79.3-10.3,55.2,36.2
		C18928-1896.6,18909-1888,18884.9-1891.4z"/>
	<path class="st0" d="M18672.7-1946.6c0-22.4,48.3-43.1,65.5-27.6c5.2,6.9,0,19-13.8,27.6
		C18690-1924.2,18672.7-1925.9,18672.7-1946.6z"/>
	<path class="st0" d="M19074.6-2093.2c0-25.9,8.6-43.1,22.4-43.1s24.1,12.1,24.1,25.9s10.3,25.9,22.4,25.9c13.8,0,12.1,6.9-5.2,17.2
		C19095.3-2039.7,19074.6-2048.3,19074.6-2093.2z"/>
	<path class="st0" d="M20424.9-3203.8c-17.2-19-27.6-48.3-24.1-65.5c5.2-24.1,13.8-19,37.9,25.9
		C20473.2-3174.5,20468.1-3157.3,20424.9-3203.8z"/>
	<path class="st0" d="M18422.7-3274.5c5.2-8.6,13.8-17.2,19-17.2c3.4,0,6.9,8.6,6.9,17.2c0,10.3-8.6,17.2-19,17.2
		C18420.9-3257.3,18417.5-3264.2,18422.7-3274.5z"/>
	<path class="st0" d="M16396.3-4550.7c0-19,8.6-34.5,17.2-34.5c10.3,0,17.2,15.5,17.2,34.5s-6.9,34.5-17.2,34.5
		C16404.9-4516.3,16396.3-4531.8,16396.3-4550.7z"/>
</g>
</svg>
