<?xml version="1.0" encoding="utf-8"?>
<!-- Generator: Adobe Illustrator 27.0.1, SVG Export Plug-In . SVG Version: 6.00 Build 0)  -->
<svg version="1.1" id="layer" xmlns="http://www.w3.org/2000/svg" xmlns:xlink="http://www.w3.org/1999/xlink" x="0px" y="0px"
	 viewBox="0 0 12800 6420" style="enable-background:new 0 0 12800 6420;" xml:space="preserve">
<style type="text/css">
	.st0{fill:#D4E5C2;}
</style>
<path class="st0" d="M5985.8,18.3c-31,14-55,39-102,108c-34,50-71,112-82,139c-19,49-19,50,1,77c11,15,15,27,9,27c-6,0-11,8-11,18
	c0,16-14,21-85,31c-47,7-85,16-85,19s15,22,34,42c27,28,33,41,29,62c-3,16-8,28-12,28c-4,0-22-16-41-35l-33-34l-39,27
	c-29,20-37,32-33,48c4,17-2,23-33,33c-20,7-43,15-51,18c-10,4-12,1-8-10c9-24-11-32-32-13c-26,24-31,20-19-15c16-48,4-51-117-34
	c-60,8-112,15-117,15c-4,0-8,7-8,15c0,9,10,15,26,15c19,0,25,4,22,17c-2,13-48,34-168,76l-165,59l-48,59c-41,49-54,59-80,59
	c-28,1-29,2-14,11c18,10,18,12-2,25c-11,8-26,33-32,54l-12,40l-34-26l-33-25l-9,23c-7,20-4,25,26,41l35,19l-27,28l-27,28l31,16
	c35,18,45,47,33,91l-8,29l-210,38c-267,48-257,45-250,65c4,9-1,24-10,34s-14,22-11,26c3,5,2,15-3,23c-6,9,1,25,20,48
	c24,29,27,39,19,60c-5,13-7,40-3,58c5,28,15,39,58,61c38,21,52,34,54,53c2,19,15,33,48,50c53,30,61,51,44,128c-10,48-9,68,4,125
	c22,96,21,122-8,141c-18,11-23,21-18,38l5,22l-34-22l-34-21l-3-112l-3-112l31-26c16-14,33-40,36-57c5-29,3-32-26-38c-18-3-47-6-66-6
	c-27,0-38-7-65-44c-31-44-126-116-152-116c-7,0-41,9-75,21c-45,15-62,26-62,39c0,10,10,20,22,23c22,6,22,7-12,42c-42,43-64,44-80,5
	c-21-51-45-34-34,24c8,44,86,110,120,102c18-5,25,1,38,35c9,23,15,43,13,46c-6,6-236-87-243-98c-3-5,0-9,5-9c14,0,14-54,1-101
	c-8-27-7-45,4-71c18-41,14-114-9-157c-27-54-38-38-31,46l7,78l-64,52c-48,39-66,61-75,92c-12,39-11,44,37,140l50,100l-29,96
	c-27,92-28,99-14,138c8,23,13,56,9,73c-5,29-3,31,46,47c49,15,54,15,89-3l36-19l62,41c56,36,63,45,82,101l20,62l-20,15
	c-13,10-21,29-23,53c-2,37,0,40,42,56c33,14,40,19,27,24c-31,12-62,8-78-11c-11-13-15-38-13-99c1-75-1-85-22-105c-13-12-23-29-23-37
	c-1-40-14-43-94-19c-75,22-77,23-87,62c-9,32-8,46,5,73c26,55,21,107-14,147c-17,19-38,55-46,80c-12,35-27,54-60,77
	c-29,20-46,40-52,62c-5,18-12,32-18,32c-54-2-146-19-149-28c-2-7-6-26-9-43c-4-28-3-31,14-27c23,6,130-34,130-48c0-6-7-12-15-15
	c-25-10-17-25,10-18c22,5,27,1,45-39c11-24,27-50,35-57c9-8,15-30,15-59c1-25,7-57,15-71c23-40,17-70-21-117l-37-45l7-99
	c4-61,3-114-4-139c-9-33-8-44,6-65c13-21,16-41,11-99c-6-79-16-106-54-147l-24-26l37-92c32-82,36-99,31-152c-3-34-7-63-10-66
	c-6-5-213-53-233-53s-43,63-66,180l-20,105l-59,60c-60,61-92,125-63,125c19,0,18,9-3,33c-17,18-17,19,2,33c10,8,25,14,32,14
	c11,0,12,9,6,37c-4,21-7,55-6,76c2,26-2,40-12,43c-19,8-21,104-2,104c28,0,87,22,82,30c-9,15,27,94,52,115l24,20l-28,62
	c-15,35-31,63-34,63c-4,0-27-27-52-61c-34-46-74-81-159-139c-100-69-126-82-230-113l-117-35l-33,28l-33,28l25,53c33,69,29,93-21,122
	c-33,18-39,27-39,55c0,35-23,53-43,33c-8-8-8-19-1-40c9-21,8-32-3-47c-8-10-18-26-23-34c-7-12-20-4-68,38l-60,52h-76h-76l-26,40
	c-15,22-30,40-34,40c-4,0-19-11-34-25c-23-21-26-30-22-74c2-27,6-53,10-59s-3-8-16-5c-32,8-48,23-48,44c0,22-11,24-28,7
	c-10-10-15-10-22,2c-5,8-7,22-5,30c2,8,0,22-5,30c-8,12-10,12-16-3c-3-9-14-17-24-17s-84,43-163,96c-137,90-147,98-161,142
	c-9,25-16,53-16,63c0,9-15,28-34,43c-40,30-46,32-46,11c0-9-9-15-25-15c-20,0-33-12-60-55c-39-60-40-64-24-99c8-17,22-27,48-31
	c57-9,62-15,50-58c-18-68-47-89-148-113c-50-11-91-19-91-16s12,19,27,34c25,27,27,34,24,103c-1,41-6,89-11,106c-8,27-5,37,20,68
	l28,37l-19,69c-11,39-18,82-16,97c4,30-7,38-17,13c-3-8-12-12-20-9c-11,4-13,0-9-15c4-16-5-25-45-45l-49-25l-32,44
	c-17,24-59,63-94,87c-34,24-63,51-65,60c-2,10,15,58,37,108c22,49,39,90,37,90c-1,0-42-14-92-30c-78-27-90-29-100-15
	c-6,8-14,15-18,15c-11,0-6-28,6-32c6-2-13-18-43-35l-54-31l-17,21c-24,30-23,38,12,86c25,34,34,40,54,35c22-5,26-1,35,33
	c16,55,14,62-14,69c-37,9-114-23-149-63c-17-19-43-35-62-39c-30-6-32-8-27-43c4-27-1-50-17-80c-19-39-20-44-6-60c10-10,16-36,16-62
	c0-42-3-47-107-151c-83-83-105-110-95-120c9-9,23-2,61,30c35,29,59,42,80,42c21,0,31,5,31,15c0,21,22,29,187,70
	c165,41,172,41,221,16c82-43,170-168,133-190c-6-4-15-29-20-55c-12-64-74-129-145-152c-39-13-74-39-154-114l-103-97l-96-6
	c-73-5-98-11-108-23c-7-11-17-14-25-9c-9,5-11,4-6-3c4-7-8-18-32-28c-31-12-39-19-35-35c6-23,12-23,37-4s32,19,40,0c4-10-7-21-34-35
	c-43-22-65-26-55-10c3,6-1,17-10,26c-13,14-21,15-41,5c-33-15-34-14-34,9c0,17-5,19-25,14s-25-2-25,13c0,10-26,45-58,78
	c-56,59-58,61-60,122c-3,57-1,63,23,79c14,9,40,44,57,77l30,61l-32,66l-32,66l35,111c35,107,35,113,21,159c-19,63-19,130,1,138
	c8,3,15,16,15,28c0,13,7,34,16,46c15,22,14,64-2,106c-3,7,16,40,41,73c27,37,45,71,45,87c0,42-108,192-204,284c-47,45-86,84-86,87
	c0,2,13,0,29-5c36-10,40-6,35,29c-4,26-2,28,47,39c82,19,109,50,39,44c-53-5-110,35-110,76c0,38-24,69-60,77c-27,6-29,9-23,38
	c3,18,17,51,30,75c23,39,24,44,10,65c-13,20-13,26-1,42c8,10,14,32,14,49c0,16,7,37,15,46c9,10,19,37,23,61c7,42,9,44,46,47
	c28,2,40,9,43,23c4,16,11,18,42,13c57-9,83,18,83,87c0,55,22,113,52,138c9,8,16,20,16,27c0,8,10,14,25,14c18,0,29,8,37,26
	c11,23,9,28-12,44c-18,14-30,16-49,9c-35-14-42,0-26,46c8,22,14,50,15,61c0,35,24,47,45,24c14-15,31-20,69-20c47,0,53,3,75,36
	c18,26,21,38,12,43c-13,8-5,41,13,53c6,4,21,8,34,8c23,0,35,19,46,71c5,22,12,27,52,33c25,3,57,3,71,0c18-5,32,0,51,18
	c15,14,47,30,72,37c103,30,114,36,118,70c2,18-1,31-8,31c-7,0-9,8-5,20s2,20-6,20s-10,12-5,39c9,57,0,73-40,69c-41-3-84,31-84,67
	c0,23,3,25,28,19c42-10,44-10,49,3c3,7,0,13-7,13c-11,0-101,38-110,47c-3,3,9,16,25,29c29,24,30,24,8,30c-12,3-31,21-42,40
	c-15,24-27,34-46,34c-14,0-25,5-25,11c0,19,41,69,57,69c21,0,78,35,135,84c38,32,54,40,80,38c18-2,53,4,77,13c24,8,63,15,88,15
	c35,0,54,7,90,35c35,27,49,32,63,25c38-20,110-1,110,29c0,9,23,29,50,44c28,16,58,39,66,53c21,32,57,31,79-2c16-25,16-28-20-95
	c-22-41-35-81-34-97c3-30-11-62-47-105l-23-28l29-46c17-26,30-55,30-64c0-10,5-21,11-25c6-3,9-17,6-30c-6-32,16-31,31,1l11,24l32-31
	c28-28,29-33,15-43c-22-17-20-33,4-37c20-3,20-4-6-56c-26-52-28-53-89-56c-13-1-22-12-28-33c-5-17-18-33-28-36c-16-4-17-10-9-38
	c6-19,14-35,19-37c5-2,7-21,4-43c-5-31-1-47,16-69c11-16,21-36,21-45c0-25,14-17,46,25c33,45,36,46,54,25c10-12,11-24,2-50
	c-6-21-6-35-1-35c6,0,27-18,49-40c22-22,46-40,54-40c9,0,23-11,31-24c19-29,62-40,74-19c10,19,22,19,33-1c11-20,42-21,58-1
	c7,8,29,15,49,15c29,0,42,7,67,38c17,20,34,46,39,57c8,18,9,18,13-8c4-30,19-36,29-11c3,8,17,20,31,25c20,8,29,6,47-11
	c12-11,28-20,36-20s20-5,26-11c8-8,17-8,32,0s27,9,40,1c34-17,61-12,71,15c5,14,16,25,25,25c8,0,25,6,36,13c18,10,23,9,36-10
	c12-19,19-21,35-12c11,6,35,8,52,5c26-5,35-13,43-41c10-32,9-35-16-45c-37-15-65-32-85-52c-16-16-15-18,12-32c47-24,58-43,38-65
	c-15-16-15-19,2-34c10-10,34-17,54-17c19,0,38-3,41-7c10-9-25-32-50-33c-25,0-29-10-11-28c9-9,8-12-4-12c-11,0-15-8-14-25
	c1-31,10-34,68-25c26,4,51,4,55,0s28-12,53-19s55-17,68-22c13-5,34-9,47-9c14,0,25-5,25-10c0-15,32-26,143-50c64-14,97-26,97-35
	c0-16,54-45,82-45c11,0,29,6,41,12c12,7,38,13,57,13c27,0,35,4,38,20c2,11,8,30,14,42c8,17,8,29,0,48c-7,16-8,26-1,30
	c13,9,69-4,69-16c0-19,20-8,25,14c5,20,12,22,56,22c51,0,59,7,34,31c-24,25-18,32,30,30c25,0,45-5,45-9s13-13,29-18
	c16-6,37-21,46-35c8-13,24-24,35-24c10,0,31-5,45-12c31-14,45-3,19,17c-18,14-16,17,46,77c55,52,80,89,145,211c78,144,80,147,97,127
	c9-11,18-25,20-32c6-16,37,3,51,33c17,33,78,38,127,10l36-20l37,25c21,14,37,33,37,44c0,11,9,24,19,30c11,5,27,23,37,38
	c20,35,87,57,105,36c17-21,25-17,47,18c15,23,18,37,11,49c-13,25-11,29,11,29c10,0,32-16,47-35c30-38,186-136,255-161
	c33-12,65-14,138-9c87,6,98,9,126,36l31,30l119-3l119-3l-3-28c-2-16,1-34,7-41c7-8,6-26-1-54c-12-47-6-58,62-112l35-28l105,42
	l105,41l10,47c11,49,40,80,94,99c24,9,37,6,80-15c28-14,59-26,69-26c26,0,210,91,248,123c22,18,54,30,116,42c85,16,88,15,165-6
	c43-13,107-41,142-63c60-37,65-39,95-26c17,7,56,16,86,19c30,4,76,15,101,25l46,17l48-28c47-28,50-33,81-120c23-68,40-99,63-118
	c40-35,44-85,7-85c-39,0-39-15,2-59c36-40,39-41,143-57l105-16l37,25c20,13,56,28,79,31c37,6,48,13,76,54c17,26,32,56,32,67
	s12,47,26,80c14,33,33,96,42,140l17,79l65,13c79,16,165,59,179,91c6,13,11,37,11,55c1,81,67,90,208,28c51-23,94-41,96-41
	c2,0,4,22,5,49c1,33-4,52-14,61c-8,7-24,44-36,84c-21,70-71,180-87,189c-4,3-27,0-50-6c-41-11-44-10-74,20c-29,29-30,35-20,58
	c20,44,15,104-13,141c-14,18-25,43-24,56c0,13,3,17,6,10c2-6,13-12,24-12c12,0,26-15,39-40c18-35,23-39,40-28c10,7,21,19,23,29
	c5,20,64,33,104,23c15-4,46-22,69-41c52-42,276-326,297-375c21-50,79-139,121-186c32-35,37-49,50-135c10-69,12-107,5-132
	c-11-38,4-101,42-176c14-28,16-47,10-91c-4-32-3-64,3-77c8-18,5-25-15-38c-26-19-66-59-89-91c-10-14-28-22-55-24c-40-3-40-3-45,36
	c-4,34-9,39-32,42c-16,1-37,5-48,9c-21,7-28-9-10-20c8-5,7-11-1-21c-6-7-8-21-5-30c4-10,1-14-6-12c-7,3-15,15-18,28s-11,25-18,28
	c-8,2-12-13-12-52v-55l-30,5c-33,7-90-12-90-30c0-6,43-51,96-99c53-48,125-124,159-170c35-46,82-99,104-117c23-17,49-46,58-64
	c26-50,120-152,166-179c34-20,59-25,135-29c80-4,95-2,109,14c16,18,17,18,38-2c21-19,24-20,59-5c30,13,45,14,69,5c21-7,34-7,41,0
	c15,15,36,12,30-4c-3-7,2-16,10-19c9-4,13-13,10-22c-9-21,24-20,86,5c39,15,56,18,71,10c15-8,26-7,49,7c39,22,38,29-5,43
	c-64,21-33,50,34,32c22-5,45-6,52-1c8,4,23,0,38-12c19-15,38-19,83-18c32,1,61,0,64-4c11-10-6-25-35-32c-24-5-29-11-27-33
	c2-43,42-107,90-147c25-20,65-69,90-109l45-73l72-20l71-21l34,20c33,20,36,20,54,3c26-24,27-3,2,44c-21,40-18,93,5,84
	c13-5,14,0,8,28c-7,33-4,30,83-54c81-79,122-105,122-77c0,5,4,10,10,10c5,0,7-20,4-48c-5-39-2-53,18-81c28-41,69-58,104-42
	c32,14,30,27-6,46c-22,11-31,24-35,53c-4,20-10,47-16,60c-5,13-9,34-9,47c0,13-5,27-10,30c-6,4-8,15-5,25c5,16-7,26-64,55
	c-42,21-71,42-71,51c0,8-33,50-73,92s-101,117-137,165c-65,88-112,127-154,127c-20,0-23,5-23,47c0,42-4,50-41,82s-42,43-51,101
	c-19,118-13,206,33,448c24,128,46,235,49,238c6,6,99-91,109-114c4-9,12-42,18-74c10-53,14-57,51-72c22-9,47-16,56-16c13,0,15-8,9-54
	c-6-54-6-54,36-91c33-28,48-34,68-30c18,4,31,0,43-13c16-17,16-23,2-70c-18-59-13-91,20-122c13-12,21-28,19-35c-3-8,4-18,15-24
	c28-16,33-14,21,8c-10,20-4,51,11,51c28,0,31-76,3-93c-24-14-26-61-4-111c19-46,20-49,3-62c-15-10-22-10-39,1c-26,17-34,11-34-25
	c0-29,53-135,81-162c10-10,21-38,25-63c6-45,32-73,55-60c5,4,17,1,25-6c11-9,18-9,26-1c17,17,28,15,28-4c0-19,56-74,76-74
	c10,0,14,14,14,47v48l26-43c56-94,177-103,252-20c37,41,52,38,52-9c0-15,17-31,65-59c36-21,65-42,65-46c0-12,29-40,62-61
	c14-9,29-26,33-37c4-13,15-20,31-20c30,0,104-45,104-64c0-7,35-27,78-43c70-28,77-33,77-58c-1-26,0-27,15-8c8,11,21,18,27,16
	c6-2,34,7,61,21l50,25l14-22c8-12,17-27,21-33c4-7-3-23-14-38c-17-22-18-26-4-26c13,0,11-8-10-47c-14-27-25-62-25-79
	c0-20-6-34-16-38c-8-3-13-10-10-15c9-13-4-42-15-35c-20,12-59-26-59-56c0-26,4-30,27-30c14,0,34,7,43,15c14,13,22,9,71-30
	c31-24,68-63,84-87c28-42,28-42,10-73c-9-16-21-42-26-58c-6-23-5-27,13-27c11,0,22-8,25-20c6-24,19-26,27-4c6,15,8,15,27-2
	c19-17,20-17,13,2c-4,10-13,23-20,27c-11,6-10,17,5,55l19,47l77-4c101-4,125,8,125,63c0,46,40,102,67,92c20-8,69,19,75,42
	c6,20,39,26,50,8c5-6,8-1,8,11c0,14,6,23,15,23c8,0,15-7,15-15c0-9,9-15,22-15c19,0,20-2,6-18c-18-21-30-52-20-52c4,0,18-9,32-19
	c24-19,24-20,6-40c-19-21-19-21,2-21c12,0,23-8,27-20c4-14,15-20,36-20c33,0,33,1,19-34c-11-29-4-32,24-11c29,22,36,19,36-14
	c0-23,6-31,32-42l32-13l-32-13c-18-7-32-19-32-26c0-6-20-37-45-68c-43-54-47-56-102-63c-37-4-59-3-61,4c-2,5-8,10-14,10s-7-8-4-17
	c9-22-11-33-38-20c-18,8-21,17-18,46c3,20,11,43,18,52c28,32,2,25-31-8c-24-24-37-49-45-87c-6-29-8-59-6-67c7-17-37-69-59-69
	c-14,0-14,3,1,25c20,30,12,32-27,4c-21-15-28-26-24-39c4-14-1-20-24-25c-22-5-28-11-24-25c4-13-4-23-26-34c-16-9-36-16-44-16
	c-8,0-19-11-25-25c-6-14-19-25-27-25c-9,0-21-13-26-29c-7-19-23-34-52-47c-23-10-72-44-108-74c-36-31-104-77-151-103l-86-47h-119
	c-94,0-136-5-207-24c-48-14-94-22-102-19s-14,19-14,36s-7,39-17,49c-15,17-15,18,5,18c16,0,24,11,37,51c16,48,16,51-1,71
	c-11,11-31,29-46,40l-28,19l-59-48c-49-40-60-55-66-88c-4-22-13-50-22-63l-14-23l-36,31c-34,30-38,31-97,25c-33-4-84-18-113-32
	c-46-23-59-25-114-19c-51,6-70,14-106,43c-31,26-43,31-43,19c0-9-24-28-61-47c-56-28-61-32-55-57c23-95,21-105-30-175l-48-67h-168
	c-138,0-181,4-243,21c-74,20-80,20-125-10c-12-8-11-14,10-36l24-25l-29-30c-22-23-38-30-66-30s-43-6-57-24c-12-17-33-26-65-31l-47-7
	l17-29c13-22,22-27,39-23c21,6,22,4,12-34c-7-29-17-43-37-51c-14-6-167-45-340-87c-328-79-342-80-319-28c10,20,4,32-43,91
	c-50,62-54,72-53,118c0,27,4,60,8,73c7,20,5,22-16,17c-18-5-36,4-75,34c-28,23-56,41-61,41c-6,0-50-25-98-55c-106-66-130-70-140-20
	c-3,19-8,35-11,35c-2,0-23-5-47-11c-39-10-46-16-72-71c-16-33-32-62-36-64c-14-9-58,95-58,138c-1,25-13,68-29,103l-28,60l-13-28
	c-9-18-26-31-53-39c-37-11-43-18-75-90c-19-42-38-75-42-73c-5,3-11-2-14-11c-13-33-5-61,25-90c28-26,30-33,24-74
	c-10-72-10-103-3-137c6-28,1-39-43-95c-41-51-59-66-96-76c-40-12-47-12-63,3c-18,16-24,14-122-39c-89-50-104-55-114-41
	c-6,8-18,15-27,15c-20,0-28,63-14,117c15,57,3,67-97,83c-83,13-86,13-177-16c-89-28-93-31-102-64c-7-27-5-37,8-46c13-10-4-16-97-38
	c-136-31-137-32-219-5c-81,27-87,33-55,54c34,22,33,29-7,43c-43,16-52,15-38-2c8-10,9-16,1-21c-6-3-8-22-4-43c4-26-1-51-15-82
	c-17-39-20-41-20-19c-1,43-21,51-74,33c-43-14-53-26-48-57c2-11-13-9-26,4c-8,8-19,6-41-5c-30-15-31-15-51,10c-22,28-24,38-12,67
	c6,17,8,17,33-2c31-25,41-26,57-7c17,21-75,79-102,64c-17-9-19-8-14,6c5,12-10,24-64,52c-57,28-80,35-118,32c-46-3-46-3-46,29
	c0,27-3,32-18,27c-10-3-26,0-35,8c-19,15-26,28,64-115c49-78,49-78,89-75l39,3l91-129c82-118,95-131,143-152c38-17,52-28,52-43
	c0-12,7-21,15-21c8,0,19-9,25-19c5-11,23-27,38-36c40-24,72-85,68-130c-3-31-9-40-32-50c-16-7-35-25-43-41l-13-29l32,30
	c31,30,32,30,46,10c24-32,29-67,12-79c-9-7-22-31-29-55c-12-40-14-42-26-25c-12,16-15,17-23,4c-6-8-8-24-6-35c3-14-14-40-57-87
	l-62-68l-116-6l-115-7l-33,52c-32,49-35,51-77,51c-24,0-44-3-44-6s18-27,40-53c24-28,43-63,46-83c5-31,3-36-17-41c-13-4-36-7-51-7
	c-37,0-58-10-58-26c0-19-4-18-53,12c-41,25-40,24,21-38l63-64l-16-37c-12-29-28-43-75-67C6030.8-5.7,6036.8-5.7,5985.8,18.3z"/>
</svg>
