<?xml version="1.0" encoding="utf-8"?>
<!-- Generator: Adobe Illustrator 27.0.1, SVG Export Plug-In . SVG Version: 6.00 Build 0)  -->
<svg version="1.1" id="layer" xmlns="http://www.w3.org/2000/svg" xmlns:xlink="http://www.w3.org/1999/xlink" x="0px" y="0px"
	 viewBox="0 0 1280 642" style="enable-background:new 0 0 1280 642;" xml:space="preserve">
<style type="text/css">
	.st0{fill:#D4E5C2;}
</style>
<path class="st0" d="M598.5,1.9c-3.1,1.4-5.5,3.9-10.2,10.8c-3.4,5-7.1,11.2-8.2,13.9c-1.9,4.9-1.9,5,0.1,7.7
	c1.1,1.5,1.5,2.7,0.9,2.7c-0.6,0-1.1,0.8-1.1,1.8c0,1.6-1.4,2.1-8.5,3.1c-4.7,0.7-8.5,1.6-8.5,1.9s1.5,2.2,3.4,4.2
	c2.7,2.8,3.3,4.1,2.9,6.2c-0.3,1.6-0.8,2.8-1.2,2.8c-0.4,0-2.2-1.6-4.1-3.5l-3.3-3.4l-3.9,2.7c-2.9,2-3.7,3.2-3.3,4.8
	c0.4,1.7-0.2,2.3-3.3,3.3c-2,0.7-4.3,1.5-5.1,1.8c-1,0.4-1.2,0.1-0.8-1c0.9-2.4-1.1-3.2-3.2-1.3c-2.6,2.4-3.1,2-1.9-1.5
	c1.6-4.8,0.4-5.1-11.7-3.4c-6,0.8-11.2,1.5-11.7,1.5c-0.4,0-0.8,0.7-0.8,1.5c0,0.9,1,1.5,2.6,1.5c1.9,0,2.5,0.4,2.2,1.7
	c-0.2,1.3-4.8,3.4-16.8,7.6l-16.5,5.9l-4.8,5.9c-4.1,4.9-5.4,5.9-8,5.9c-2.8,0.1-2.9,0.2-1.4,1.1c1.8,1,1.8,1.2-0.2,2.5
	c-1.1,0.8-2.6,3.3-3.2,5.4l-1.2,4l-3.4-2.6l-3.3-2.5l-0.9,2.3c-0.7,2-0.4,2.5,2.6,4.1l3.5,1.9l-2.7,2.8l-2.7,2.8l3.1,1.6
	c3.5,1.8,4.5,4.7,3.3,9.1l-0.8,2.9l-21,3.8c-26.7,4.8-25.7,4.5-25,6.5c0.4,0.9-0.1,2.4-1,3.4c-0.9,1-1.4,2.2-1.1,2.6
	c0.3,0.5,0.2,1.5-0.3,2.3c-0.6,0.9,0.1,2.5,2,4.8c2.4,2.9,2.7,3.9,1.9,6c-0.5,1.3-0.7,4-0.3,5.8c0.5,2.8,1.5,3.9,5.8,6.1
	c3.8,2.1,5.2,3.4,5.4,5.3c0.2,1.9,1.5,3.3,4.8,5c5.3,3,6.1,5.1,4.4,12.8c-1,4.8-0.9,6.8,0.4,12.5c2.2,9.6,2.1,12.2-0.8,14.1
	c-1.8,1.1-2.3,2.1-1.8,3.8l0.5,2.2l-3.4-2.2l-3.4-2.1l-0.3-11.2l-0.3-11.2l3.1-2.6c1.6-1.4,3.3-4,3.6-5.7c0.5-2.9,0.3-3.2-2.6-3.8
	c-1.8-0.3-4.7-0.6-6.6-0.6c-2.7,0-3.8-0.7-6.5-4.4c-3.1-4.4-12.6-11.6-15.2-11.6c-0.7,0-4.1,0.9-7.5,2.1c-4.5,1.5-6.2,2.6-6.2,3.9
	c0,1,1,2,2.2,2.3c2.2,0.6,2.2,0.7-1.2,4.2c-4.2,4.3-6.4,4.4-8,0.5c-2.1-5.1-4.5-3.4-3.4,2.4c0.8,4.4,8.6,11,12,10.2
	c1.8-0.5,2.5,0.1,3.8,3.5c0.9,2.3,1.5,4.3,1.3,4.6c-0.6,0.6-23.6-8.7-24.3-9.8c-0.3-0.5,0-0.9,0.5-0.9c1.4,0,1.4-5.4,0.1-10.1
	c-0.8-2.7-0.7-4.5,0.4-7.1c1.8-4.1,1.4-11.4-0.9-15.7c-2.7-5.4-3.8-3.8-3.1,4.6l0.7,7.8l-6.4,5.2c-4.8,3.9-6.6,6.1-7.5,9.2
	c-1.2,3.9-1.1,4.4,3.7,14l5,10l-2.9,9.6c-2.7,9.2-2.8,9.9-1.4,13.8c0.8,2.3,1.3,5.6,0.9,7.3c-0.5,2.9-0.3,3.1,4.6,4.7
	c4.9,1.5,5.4,1.5,8.9-0.3l3.6-1.9l6.2,4.1c5.6,3.6,6.3,4.5,8.2,10.1l2,6.2l-2,1.5c-1.3,1-2.1,2.9-2.3,5.3c-0.2,3.7,0,4,4.2,5.6
	c3.3,1.4,4,1.9,2.7,2.4c-3.1,1.2-6.2,0.8-7.8-1.1c-1.1-1.3-1.5-3.8-1.3-9.9c0.1-7.5-0.1-8.5-2.2-10.5c-1.3-1.2-2.3-2.9-2.3-3.7
	c-0.1-4-1.4-4.3-9.4-1.9c-7.5,2.2-7.7,2.3-8.7,6.2c-0.9,3.2-0.8,4.6,0.5,7.3c2.6,5.5,2.1,10.7-1.4,14.7c-1.7,1.9-3.8,5.5-4.6,8
	c-1.2,3.5-2.7,5.4-6,7.7c-2.9,2-4.6,4-5.2,6.2c-0.5,1.8-1.2,3.2-1.8,3.2c-5.4-0.2-14.6-1.9-14.9-2.8c-0.2-0.7-0.6-2.6-0.9-4.3
	c-0.4-2.8-0.3-3.1,1.4-2.7c2.3,0.6,13-3.4,13-4.8c0-0.6-0.7-1.2-1.5-1.5c-2.5-1-1.7-2.5,1-1.8c2.2,0.5,2.7,0.1,4.5-3.9
	c1.1-2.4,2.7-5,3.5-5.7c0.9-0.8,1.5-3,1.5-5.9c0.1-2.5,0.7-5.7,1.5-7.1c2.3-4,1.7-7-2.1-11.7l-3.7-4.5l0.7-9.9
	c0.4-6.1,0.3-11.4-0.4-13.9c-0.9-3.3-0.8-4.4,0.6-6.5c1.3-2.1,1.6-4.1,1.1-9.9c-0.6-7.9-1.6-10.6-5.4-14.7l-2.4-2.6l3.7-9.2
	c3.2-8.2,3.6-9.9,3.1-15.2c-0.3-3.4-0.7-6.3-1-6.6c-0.6-0.5-21.3-5.3-23.3-5.3s-4.3,6.3-6.6,18l-2,10.5l-5.9,6
	c-6,6.1-9.2,12.5-6.3,12.5c1.9,0,1.8,0.9-0.3,3.3c-1.7,1.8-1.7,1.9,0.2,3.3c1,0.8,2.5,1.4,3.2,1.4c1.1,0,1.2,0.9,0.6,3.7
	c-0.4,2.1-0.7,5.5-0.6,7.6c0.2,2.6-0.2,4-1.2,4.3c-1.9,0.8-2.1,10.4-0.2,10.4c2.8,0,8.7,2.2,8.2,3c-0.9,1.5,2.7,9.4,5.2,11.5l2.4,2
	l-2.8,6.2c-1.5,3.5-3.1,6.3-3.4,6.3c-0.4,0-2.7-2.7-5.2-6.1c-3.4-4.6-7.4-8.1-15.9-13.9c-10-6.9-12.6-8.2-23-11.3l-11.7-3.5
	l-3.3,2.8l-3.3,2.8l2.5,5.3c3.3,6.9,2.9,9.3-2.1,12.2c-3.3,1.8-3.9,2.7-3.9,5.5c0,3.5-2.3,5.3-4.3,3.3c-0.8-0.8-0.8-1.9-0.1-4
	c0.9-2.1,0.8-3.2-0.3-4.7c-0.8-1-1.8-2.6-2.3-3.4c-0.7-1.2-2-0.4-6.8,3.8l-6,5.2h-7.6H222l-2.6,4c-1.5,2.2-3,4-3.4,4
	c-0.4,0-1.9-1.1-3.4-2.5c-2.3-2.1-2.6-3-2.2-7.4c0.2-2.7,0.6-5.3,1-5.9c0.4-0.6-0.3-0.8-1.6-0.5c-3.2,0.8-4.8,2.3-4.8,4.4
	c0,2.2-1.1,2.4-2.8,0.7c-1-1-1.5-1-2.2,0.2c-0.5,0.8-0.7,2.2-0.5,3c0.2,0.8,0,2.2-0.5,3c-0.8,1.2-1,1.2-1.6-0.3
	c-0.3-0.9-1.4-1.7-2.4-1.7s-8.4,4.3-16.3,9.6c-13.7,9-14.7,9.8-16.1,14.2c-0.9,2.5-1.6,5.3-1.6,6.3c0,0.9-1.5,2.8-3.4,4.3
	c-4,3-4.6,3.2-4.6,1.1c0-0.9-0.9-1.5-2.5-1.5c-2,0-3.3-1.2-6-5.5c-3.9-6-4-6.4-2.4-9.9c0.8-1.7,2.2-2.7,4.8-3.1
	c5.7-0.9,6.2-1.5,5-5.8c-1.8-6.8-4.7-8.9-14.8-11.3c-5-1.1-9.1-1.9-9.1-1.6c0,0.3,1.2,1.9,2.7,3.4c2.5,2.7,2.7,3.4,2.4,10.3
	c-0.1,4.1-0.6,8.9-1.1,10.6c-0.8,2.7-0.5,3.7,2,6.8l2.8,3.7l-1.9,6.9c-1.1,3.9-1.8,8.2-1.6,9.7c0.4,3-0.7,3.8-1.7,1.3
	c-0.3-0.8-1.2-1.2-2-0.9c-1.1,0.4-1.3,0-0.9-1.5c0.4-1.6-0.5-2.5-4.5-4.5l-4.9-2.5l-3.2,4.4c-1.7,2.4-5.9,6.3-9.4,8.7
	c-3.4,2.4-6.3,5.1-6.5,6c-0.2,1,1.5,5.8,3.7,10.8c2.2,4.9,3.9,9,3.7,9c-0.1,0-4.2-1.4-9.2-3c-7.8-2.7-9-2.9-10-1.5
	c-0.6,0.8-1.4,1.5-1.8,1.5c-1.1,0-0.6-2.8,0.6-3.2c0.6-0.2-1.3-1.8-4.3-3.5l-5.4-3.1l-1.7,2.1c-2.4,3-2.3,3.8,1.2,8.6
	c2.5,3.4,3.4,4,5.4,3.5c2.2-0.5,2.6-0.1,3.5,3.3c1.6,5.5,1.4,6.2-1.4,6.9c-3.7,0.9-11.4-2.3-14.9-6.3c-1.7-1.9-4.3-3.5-6.2-3.9
	c-3-0.6-3.2-0.8-2.7-4.3c0.4-2.7-0.1-5-1.7-8c-1.9-3.9-2-4.4-0.6-6c1-1,1.6-3.6,1.6-6.2c0-4.2-0.3-4.7-10.7-15.1
	c-8.3-8.3-10.5-11-9.5-12c0.9-0.9,2.3-0.2,6.1,3c3.5,2.9,5.9,4.2,8,4.2c2.1,0,3.1,0.5,3.1,1.5c0,2.1,2.2,2.9,18.7,7
	s17.2,4.1,22.1,1.6c8.2-4.3,17-16.8,13.3-19c-0.6-0.4-1.5-2.9-2-5.5c-1.2-6.4-7.4-12.9-14.5-15.2c-3.9-1.3-7.4-3.9-15.4-11.4
	l-10.3-9.7l-9.6-0.6c-7.3-0.5-9.8-1.1-10.8-2.3c-0.7-1.1-1.7-1.4-2.5-0.9c-0.9,0.5-1.1,0.4-0.6-0.3c0.4-0.7-0.8-1.8-3.2-2.8
	c-3.1-1.2-3.9-1.9-3.5-3.5c0.6-2.3,1.2-2.3,3.7-0.4c2.5,1.9,3.2,1.9,4,0c0.4-1-0.7-2.1-3.4-3.5c-4.3-2.2-6.5-2.6-5.5-1
	c0.3,0.6-0.1,1.7-1,2.6c-1.3,1.4-2.1,1.5-4.1,0.5c-3.3-1.5-3.4-1.4-3.4,0.9c0,1.7-0.5,1.9-2.5,1.4s-2.5-0.2-2.5,1.3
	c0,1-2.6,4.5-5.8,7.8c-5.6,5.9-5.8,6.1-6,12.2c-0.3,5.7-0.1,6.3,2.3,7.9c1.4,0.9,4,4.4,5.7,7.7l3,6.1L20,279l-3.2,6.6l3.5,11.1
	c3.5,10.7,3.5,11.3,2.1,15.9c-1.9,6.3-1.9,13,0.1,13.8c0.8,0.3,1.5,1.6,1.5,2.8c0,1.3,0.7,3.4,1.6,4.6c1.5,2.2,1.4,6.4-0.2,10.6
	c-0.3,0.7,1.6,4,4.1,7.3c2.7,3.7,4.5,7.1,4.5,8.7c0,4.2-10.8,19.2-20.4,28.4c-4.7,4.5-8.6,8.4-8.6,8.7c0,0.2,1.3,0,2.9-0.5
	c3.6-1,4-0.6,3.5,2.9c-0.4,2.6-0.2,2.8,4.7,3.9c8.2,1.9,10.9,5,3.9,4.4c-5.3-0.5-11,3.5-11,7.6c0,3.8-2.4,6.9-6,7.7
	c-2.7,0.6-2.9,0.9-2.3,3.8c0.3,1.8,1.7,5.1,3,7.5c2.3,3.9,2.4,4.4,1,6.5c-1.3,2-1.3,2.6-0.1,4.2c0.8,1,1.4,3.2,1.4,4.9
	c0,1.6,0.7,3.7,1.5,4.6c0.9,1,1.9,3.7,2.3,6.1c0.7,4.2,0.9,4.4,4.6,4.7c2.8,0.2,4,0.9,4.3,2.3c0.4,1.6,1.1,1.8,4.2,1.3
	c5.7-0.9,8.3,1.8,8.3,8.7c0,5.5,2.2,11.3,5.2,13.8c0.9,0.8,1.6,2,1.6,2.7c0,0.8,1,1.4,2.5,1.4c1.8,0,2.9,0.8,3.7,2.6
	c1.1,2.3,0.9,2.8-1.2,4.4c-1.8,1.4-3,1.6-4.9,0.9c-3.5-1.4-4.2,0-2.6,4.6c0.8,2.2,1.4,5,1.5,6.1c0,3.5,2.4,4.7,4.5,2.4
	c1.4-1.5,3.1-2,6.9-2c4.7,0,5.3,0.3,7.5,3.6c1.8,2.6,2.1,3.8,1.2,4.3c-1.3,0.8-0.5,4.1,1.3,5.3c0.6,0.4,2.1,0.8,3.4,0.8
	c2.3,0,3.5,1.9,4.6,7.1c0.5,2.2,1.2,2.7,5.2,3.3c2.5,0.3,5.7,0.3,7.1,0c1.8-0.5,3.2,0,5.1,1.8c1.5,1.4,4.7,3,7.2,3.7
	c10.3,3,11.4,3.6,11.8,7c0.2,1.8-0.1,3.1-0.8,3.1c-0.7,0-0.9,0.8-0.5,2s0.2,2-0.6,2s-1,1.2-0.5,3.9c0.9,5.7,0,7.3-4,6.9
	c-4.1-0.3-8.4,3.1-8.4,6.7c0,2.3,0.3,2.5,2.8,1.9c4.2-1,4.4-1,4.9,0.3c0.3,0.7,0,1.3-0.7,1.3c-1.1,0-10.1,3.8-11,4.7
	c-0.3,0.3,0.9,1.6,2.5,2.9c2.9,2.4,3,2.4,0.8,3c-1.2,0.3-3.1,2.1-4.2,4c-1.5,2.4-2.7,3.4-4.6,3.4c-1.4,0-2.5,0.5-2.5,1.1
	c0,1.9,4.1,6.9,5.7,6.9c2.1,0,7.8,3.5,13.5,8.4c3.8,3.2,5.4,4,8,3.8c1.8-0.2,5.3,0.4,7.7,1.3c2.4,0.8,6.3,1.5,8.8,1.5
	c3.5,0,5.4,0.7,9,3.5c3.5,2.7,4.9,3.2,6.3,2.5c3.8-2,11-0.1,11,2.9c0,0.9,2.3,2.9,5,4.4c2.8,1.6,5.8,3.9,6.6,5.3
	c2.1,3.2,5.7,3.1,7.9-0.2c1.6-2.5,1.6-2.8-2-9.5c-2.2-4.1-3.5-8.1-3.4-9.7c0.3-3-1.1-6.2-4.7-10.5l-2.3-2.8l2.9-4.6
	c1.7-2.6,3-5.5,3-6.4c0-1,0.5-2.1,1.1-2.5c0.6-0.3,0.9-1.7,0.6-3c-0.6-3.2,1.6-3.1,3.1,0.1l1.1,2.4l3.2-3.1c2.8-2.8,2.9-3.3,1.5-4.3
	c-2.2-1.7-2-3.3,0.4-3.7c2-0.3,2-0.4-0.6-5.6c-2.6-5.2-2.8-5.3-8.9-5.6c-1.3-0.1-2.2-1.2-2.8-3.3c-0.5-1.7-1.8-3.3-2.8-3.6
	c-1.6-0.4-1.7-1-0.9-3.8c0.6-1.9,1.4-3.5,1.9-3.7s0.7-2.1,0.4-4.3c-0.5-3.1-0.1-4.7,1.6-6.9c1.1-1.6,2.1-3.6,2.1-4.5
	c0-2.5,1.4-1.7,4.6,2.5c3.3,4.5,3.6,4.6,5.4,2.5c1-1.2,1.1-2.4,0.2-5c-0.6-2.1-0.6-3.5-0.1-3.5c0.6,0,2.7-1.8,4.9-4s4.6-4,5.4-4
	c0.9,0,2.3-1.1,3.1-2.4c1.9-2.9,6.2-4,7.4-1.9c1,1.9,2.2,1.9,3.3-0.1c1.1-2,4.2-2.1,5.8-0.1c0.7,0.8,2.9,1.5,4.9,1.5
	c2.9,0,4.2,0.7,6.7,3.8c1.7,2,3.4,4.6,3.9,5.7c0.8,1.8,0.9,1.8,1.3-0.8c0.4-3,1.9-3.6,2.9-1.1c0.3,0.8,1.7,2,3.1,2.5
	c2,0.8,2.9,0.6,4.7-1.1c1.2-1.1,2.8-2,3.6-2s2-0.5,2.6-1.1c0.8-0.8,1.7-0.8,3.2,0c1.5,0.8,2.7,0.9,4,0.1c3.4-1.7,6.1-1.2,7.1,1.5
	c0.5,1.4,1.6,2.5,2.5,2.5c0.8,0,2.5,0.6,3.6,1.3c1.8,1,2.3,0.9,3.6-1c1.2-1.9,1.9-2.1,3.5-1.2c1.1,0.6,3.5,0.8,5.2,0.5
	c2.6-0.5,3.5-1.3,4.3-4.1c1-3.2,0.9-3.5-1.6-4.5c-3.7-1.5-6.5-3.2-8.5-5.2c-1.6-1.6-1.5-1.8,1.2-3.2c4.7-2.4,5.8-4.3,3.8-6.5
	c-1.5-1.6-1.5-1.9,0.2-3.4c1-1,3.4-1.7,5.4-1.7c1.9,0,3.8-0.3,4.1-0.7c1-0.9-2.5-3.2-5-3.3c-2.5,0-2.9-1-1.1-2.8
	c0.9-0.9,0.8-1.2-0.4-1.2c-1.1,0-1.5-0.8-1.4-2.5c0.1-3.1,1-3.4,6.8-2.5c2.6,0.4,5.1,0.4,5.5,0s2.8-1.2,5.3-1.9
	c2.5-0.7,5.5-1.7,6.8-2.2c1.3-0.5,3.4-0.9,4.7-0.9c1.4,0,2.5-0.5,2.5-1c0-1.5,3.2-2.6,14.3-5c6.4-1.4,9.7-2.6,9.7-3.5
	c0-1.6,5.4-4.5,8.2-4.5c1.1,0,2.9,0.6,4.1,1.2c1.2,0.7,3.8,1.3,5.7,1.3c2.7,0,3.5,0.4,3.8,2c0.2,1.1,0.8,3,1.4,4.2
	c0.8,1.7,0.8,2.9,0,4.8c-0.7,1.6-0.8,2.6-0.1,3c1.3,0.9,6.9-0.4,6.9-1.6c0-1.9,2-0.8,2.5,1.4c0.5,2,1.2,2.2,5.6,2.2
	c5.1,0,5.9,0.7,3.4,3.1c-2.4,2.5-1.8,3.2,3,3c2.5,0,4.5-0.5,4.5-0.9c0-0.4,1.3-1.3,2.9-1.8c1.6-0.6,3.7-2.1,4.6-3.5
	c0.8-1.3,2.4-2.4,3.5-2.4c1,0,3.1-0.5,4.5-1.2c3.1-1.4,4.5-0.3,1.9,1.7c-1.8,1.4-1.6,1.7,4.6,7.7c5.5,5.2,8,8.9,14.5,21.1
	c7.8,14.4,8,14.7,9.7,12.7c0.9-1.1,1.8-2.5,2-3.2c0.6-1.6,3.7,0.3,5.1,3.3c1.7,3.3,7.8,3.8,12.7,1l3.6-2l3.7,2.5
	c2.1,1.4,3.7,3.3,3.7,4.4s0.9,2.4,1.9,3c1.1,0.5,2.7,2.3,3.7,3.8c2,3.5,8.7,5.7,10.5,3.6c1.7-2.1,2.5-1.7,4.7,1.8
	c1.5,2.3,1.8,3.7,1.1,4.9c-1.3,2.5-1.1,2.9,1.1,2.9c1,0,3.2-1.6,4.7-3.5c3-3.8,18.6-13.6,25.5-16.1c3.3-1.2,6.5-1.4,13.8-0.9
	c8.7,0.6,9.8,0.9,12.6,3.6l3.1,3l11.9-0.3l11.9-0.3l-0.3-2.8c-0.2-1.6,0.1-3.4,0.7-4.1c0.7-0.8,0.6-2.6-0.1-5.4
	c-1.2-4.7-0.6-5.8,6.2-11.2l3.5-2.8l10.5,4.2l10.5,4.1l1,4.7c1.1,4.9,4,8,9.4,9.9c2.4,0.9,3.7,0.6,8-1.5c2.8-1.4,5.9-2.6,6.9-2.6
	c2.6,0,21,9.1,24.8,12.3c2.2,1.8,5.4,3,11.6,4.2c8.5,1.6,8.8,1.5,16.5-0.6c4.3-1.3,10.7-4.1,14.2-6.3c6-3.7,6.5-3.9,9.5-2.6
	c1.7,0.7,5.6,1.6,8.6,1.9c3,0.4,7.6,1.5,10.1,2.5l4.6,1.7l4.8-2.8c4.7-2.8,5-3.3,8.1-12c2.3-6.8,4-9.9,6.3-11.8
	c4-3.5,4.4-8.5,0.7-8.5c-3.9,0-3.9-1.5,0.2-5.9c3.6-4,3.9-4.1,14.3-5.7l10.5-1.6l3.7,2.5c2,1.3,5.6,2.8,7.9,3.1
	c3.7,0.6,4.8,1.3,7.6,5.4c1.7,2.6,3.2,5.6,3.2,6.7s1.2,4.7,2.6,8c1.4,3.3,3.3,9.6,4.2,14l1.7,7.9l6.5,1.3c7.9,1.6,16.5,5.9,17.9,9.1
	c0.6,1.3,1.1,3.7,1.1,5.5c0.1,8.1,6.7,9,20.8,2.8c5.1-2.3,9.4-4.1,9.6-4.1s0.4,2.2,0.5,4.9c0.1,3.3-0.4,5.2-1.4,6.1
	c-0.8,0.7-2.4,4.4-3.6,8.4c-2.1,7-7.1,18-8.7,18.9c-0.4,0.3-2.7,0-5-0.6c-4.1-1.1-4.4-1-7.4,2c-2.9,2.9-3,3.5-2,5.8
	c2,4.4,1.5,10.4-1.3,14.1c-1.4,1.8-2.5,4.3-2.4,5.6c0,1.3,0.3,1.7,0.6,1c0.2-0.6,1.3-1.2,2.4-1.2c1.2,0,2.6-1.5,3.9-4
	c1.8-3.5,2.3-3.9,4-2.8c1,0.7,2.1,1.9,2.3,2.9c0.5,2,6.4,3.3,10.4,2.3c1.5-0.4,4.6-2.2,6.9-4.1c5.2-4.2,27.6-32.6,29.7-37.5
	c2.1-5,7.9-13.9,12.1-18.6c3.2-3.5,3.7-4.9,5-13.5c1-6.9,1.2-10.7,0.5-13.2c-1.1-3.8,0.4-10.1,4.2-17.6c1.4-2.8,1.6-4.7,1-9.1
	c-0.4-3.2-0.3-6.4,0.3-7.7c0.8-1.8,0.5-2.5-1.5-3.8c-2.6-1.9-6.6-5.9-8.9-9.1c-1-1.4-2.8-2.2-5.5-2.4c-4-0.3-4-0.3-4.5,3.6
	c-0.4,3.4-0.9,3.9-3.2,4.2c-1.6,0.1-3.7,0.5-4.8,0.9c-2.1,0.7-2.8-0.9-1-2c0.8-0.5,0.7-1.1-0.1-2.1c-0.6-0.7-0.8-2.1-0.5-3
	c0.4-1,0.1-1.4-0.6-1.2c-0.7,0.3-1.5,1.5-1.8,2.8s-1.1,2.5-1.8,2.8c-0.8,0.2-1.2-1.3-1.2-5.2v-5.5l-3,0.5c-3.3,0.7-9-1.2-9-3
	c0-0.6,4.3-5.1,9.6-9.9c5.3-4.8,12.5-12.4,15.9-17c3.5-4.6,8.2-9.9,10.4-11.7c2.3-1.7,4.9-4.6,5.8-6.4c2.6-5,12-15.2,16.6-17.9
	c3.4-2,5.9-2.5,13.5-2.9c8-0.4,9.5-0.2,10.9,1.4c1.6,1.8,1.7,1.8,3.8-0.2c2.1-1.9,2.4-2,5.9-0.5c3,1.3,4.5,1.4,6.9,0.5
	c2.1-0.7,3.4-0.7,4.1,0c1.5,1.5,3.6,1.2,3-0.4c-0.3-0.7,0.2-1.6,1-1.9c0.9-0.4,1.3-1.3,1-2.2c-0.9-2.1,2.4-2,8.6,0.5
	c3.9,1.5,5.6,1.8,7.1,1c1.5-0.8,2.6-0.7,4.9,0.7c3.9,2.2,3.8,2.9-0.5,4.3c-6.4,2.1-3.3,5,3.4,3.2c2.2-0.5,4.5-0.6,5.2-0.1
	c0.8,0.4,2.3,0,3.8-1.2c1.9-1.5,3.8-1.9,8.3-1.8c3.2,0.1,6.1,0,6.4-0.4c1.1-1-0.6-2.5-3.5-3.2c-2.4-0.5-2.9-1.1-2.7-3.3
	c0.2-4.3,4.2-10.7,9-14.7c2.5-2,6.5-6.9,9-10.9l4.5-7.3l7.2-2l7.1-2.1l3.4,2c3.3,2,3.6,2,5.4,0.3c2.6-2.4,2.7-0.3,0.2,4.4
	c-2.1,4-1.8,9.3,0.5,8.4c1.3-0.5,1.4,0,0.8,2.8c-0.7,3.3-0.4,3,8.3-5.4c8.1-7.9,12.2-10.5,12.2-7.7c0,0.5,0.4,1,1,1
	c0.5,0,0.7-2,0.4-4.8c-0.5-3.9-0.2-5.3,1.8-8.1c2.8-4.1,6.9-5.8,10.4-4.2c3.2,1.4,3,2.7-0.6,4.6c-2.2,1.1-3.1,2.4-3.5,5.3
	c-0.4,2-1,4.7-1.6,6c-0.5,1.3-0.9,3.4-0.9,4.7c0,1.3-0.5,2.7-1,3c-0.6,0.4-0.8,1.5-0.5,2.5c0.5,1.6-0.7,2.6-6.4,5.5
	c-4.2,2.1-7.1,4.2-7.1,5.1c0,0.8-3.3,5-7.3,9.2c-4,4.2-10.1,11.7-13.7,16.5c-6.5,8.8-11.2,12.7-15.4,12.7c-2,0-2.3,0.5-2.3,4.7
	c0,4.2-0.4,5-4.1,8.2c-3.7,3.2-4.2,4.3-5.1,10.1c-1.9,11.8-1.3,20.6,3.3,44.8c2.4,12.8,4.6,23.5,4.9,23.8c0.6,0.6,9.9-9.1,10.9-11.4
	c0.4-0.9,1.2-4.2,1.8-7.4c1-5.3,1.4-5.7,5.1-7.2c2.2-0.9,4.7-1.6,5.6-1.6c1.3,0,1.5-0.8,0.9-5.4c-0.6-5.4-0.6-5.4,3.6-9.1
	c3.3-2.8,4.8-3.4,6.8-3c1.8,0.4,3.1,0,4.3-1.3c1.6-1.7,1.6-2.3,0.2-7c-1.8-5.9-1.3-9.1,2-12.2c1.3-1.2,2.1-2.8,1.9-3.5
	c-0.3-0.8,0.4-1.8,1.5-2.4c2.8-1.6,3.3-1.4,2.1,0.8c-1,2-0.4,5.1,1.1,5.1c2.8,0,3.1-7.6,0.3-9.3c-2.4-1.4-2.6-6.1-0.4-11.1
	c1.9-4.6,2-4.9,0.3-6.2c-1.5-1-2.2-1-3.9,0.1c-2.6,1.7-3.4,1.1-3.4-2.5c0-2.9,5.3-13.5,8.1-16.2c1-1,2.1-3.8,2.5-6.3
	c0.6-4.5,3.2-7.3,5.5-6c0.5,0.4,1.7,0.1,2.5-0.6c1.1-0.9,1.8-0.9,2.6-0.1c1.7,1.7,2.8,1.5,2.8-0.4s5.6-7.4,7.6-7.4
	c1,0,1.4,1.4,1.4,4.7v4.8l2.6-4.3c5.6-9.4,17.7-10.3,25.2-2c3.7,4.1,5.2,3.8,5.2-0.9c0-1.5,1.7-3.1,6.5-5.9c3.6-2.1,6.5-4.2,6.5-4.6
	c0-1.2,2.9-4,6.2-6.1c1.4-0.9,2.9-2.6,3.3-3.7c0.4-1.3,1.5-2,3.1-2c3,0,10.4-4.5,10.4-6.4c0-0.7,3.5-2.7,7.8-4.3
	c7-2.8,7.7-3.3,7.7-5.8c-0.1-2.6,0-2.7,1.5-0.8c0.8,1.1,2.1,1.8,2.7,1.6c0.6-0.2,3.4,0.7,6.1,2.1l5,2.5l1.4-2.2
	c0.8-1.2,1.7-2.7,2.1-3.3c0.4-0.7-0.3-2.3-1.4-3.8c-1.7-2.2-1.8-2.6-0.4-2.6c1.3,0,1.1-0.8-1-4.7c-1.4-2.7-2.5-6.2-2.5-7.9
	c0-2-0.6-3.4-1.6-3.8c-0.8-0.3-1.3-1-1-1.5c0.9-1.3-0.4-4.2-1.5-3.5c-2,1.2-5.9-2.6-5.9-5.6c0-2.6,0.4-3,2.7-3
	c1.4,0,3.4,0.7,4.3,1.5c1.4,1.3,2.2,0.9,7.1-3c3.1-2.4,6.8-6.3,8.4-8.7c2.8-4.2,2.8-4.2,1-7.3c-0.9-1.6-2.1-4.2-2.6-5.8
	c-0.6-2.3-0.5-2.7,1.3-2.7c1.1,0,2.2-0.8,2.5-2c0.6-2.4,1.9-2.6,2.7-0.4c0.6,1.5,0.8,1.5,2.7-0.2c1.9-1.7,2-1.7,1.3,0.2
	c-0.4,1-1.3,2.3-2,2.7c-1.1,0.6-1,1.7,0.5,5.5l1.9,4.7l7.7-0.4c10.1-0.4,12.5,0.8,12.5,6.3c0,4.6,4,10.2,6.7,9.2
	c2-0.8,6.9,1.9,7.5,4.2c0.6,2,3.9,2.6,5,0.8c0.5-0.6,0.8-0.1,0.8,1.1c0,1.4,0.6,2.3,1.5,2.3c0.8,0,1.5-0.7,1.5-1.5
	c0-0.9,0.9-1.5,2.2-1.5c1.9,0,2-0.2,0.6-1.8c-1.8-2.1-3-5.2-2-5.2c0.4,0,1.8-0.9,3.2-1.9c2.4-1.9,2.4-2,0.6-4
	c-1.9-2.1-1.9-2.1,0.2-2.1c1.2,0,2.3-0.8,2.7-2c0.4-1.4,1.5-2,3.6-2c3.3,0,3.3,0.1,1.9-3.4c-1.1-2.9-0.4-3.2,2.4-1.1
	c2.9,2.2,3.6,1.9,3.6-1.4c0-2.3,0.6-3.1,3.2-4.2l3.2-1.3l-3.2-1.3c-1.8-0.7-3.2-1.9-3.2-2.6c0-0.6-2-3.7-4.5-6.8
	c-4.3-5.4-4.7-5.6-10.2-6.3c-3.7-0.4-5.9-0.3-6.1,0.4c-0.2,0.5-0.8,1-1.4,1s-0.7-0.8-0.4-1.7c0.9-2.2-1.1-3.3-3.8-2
	c-1.8,0.8-2.1,1.7-1.8,4.6c0.3,2,1.1,4.3,1.8,5.2c2.8,3.2,0.2,2.5-3.1-0.8c-2.4-2.4-3.7-4.9-4.5-8.7c-0.6-2.9-0.8-5.9-0.6-6.7
	c0.7-1.7-3.7-6.9-5.9-6.9c-1.4,0-1.4,0.3,0.1,2.5c2,3,1.2,3.2-2.7,0.4c-2.1-1.5-2.8-2.6-2.4-3.9c0.4-1.4-0.1-2-2.4-2.5
	c-2.2-0.5-2.8-1.1-2.4-2.5c0.4-1.3-0.4-2.3-2.6-3.4c-1.6-0.9-3.6-1.6-4.4-1.6c-0.8,0-1.9-1.1-2.5-2.5c-0.6-1.4-1.9-2.5-2.7-2.5
	c-0.9,0-2.1-1.3-2.6-2.9c-0.7-1.9-2.3-3.4-5.2-4.7c-2.3-1-7.2-4.4-10.8-7.4c-3.6-3.1-10.4-7.7-15.1-10.3l-8.6-4.7h-11.9
	c-9.4,0-13.6-0.5-20.7-2.4c-4.8-1.4-9.4-2.2-10.2-1.9s-1.4,1.9-1.4,3.6c0,1.7-0.7,3.9-1.7,4.9c-1.5,1.7-1.5,1.8,0.5,1.8
	c1.6,0,2.4,1.1,3.7,5.1c1.6,4.8,1.6,5.1-0.1,7.1c-1.1,1.1-3.1,2.9-4.6,4l-2.8,1.9l-5.9-4.8c-4.9-4-6-5.5-6.6-8.8
	c-0.4-2.2-1.3-5-2.2-6.3l-1.4-2.3l-3.6,3.1c-3.4,3-3.8,3.1-9.7,2.5c-3.3-0.4-8.4-1.8-11.3-3.2c-4.6-2.3-5.9-2.5-11.4-1.9
	c-5.1,0.6-7,1.4-10.6,4.3c-3.1,2.6-4.3,3.1-4.3,1.9c0-0.9-2.4-2.8-6.1-4.7c-5.6-2.8-6.1-3.2-5.5-5.7c2.3-9.5,2.1-10.5-3-17.5
	l-4.8-6.7h-16.8c-13.8,0-18.1,0.4-24.3,2.1c-7.4,2-8,2-12.5-1c-1.2-0.8-1.1-1.4,1-3.6l2.4-2.5l-2.9-3c-2.2-2.3-3.8-3-6.6-3
	s-4.3-0.6-5.7-2.4c-1.2-1.7-3.3-2.6-6.5-3.1l-4.7-0.7l1.7-2.9c1.3-2.2,2.2-2.7,3.9-2.3c2.1,0.6,2.2,0.4,1.2-3.4
	c-0.7-2.9-1.7-4.3-3.7-5.1c-1.4-0.6-16.7-4.5-34-8.7c-32.8-7.9-34.2-8-31.9-2.8c1,2,0.4,3.2-4.3,9.1c-5,6.2-5.4,7.2-5.3,11.8
	c0,2.7,0.4,6,0.8,7.3c0.7,2,0.5,2.2-1.6,1.7c-1.8-0.5-3.6,0.4-7.5,3.4c-2.8,2.3-5.6,4.1-6.1,4.1c-0.6,0-5-2.5-9.8-5.5
	c-10.6-6.6-13-7-14-2c-0.3,1.9-0.8,3.5-1.1,3.5c-0.2,0-2.3-0.5-4.7-1.1c-3.9-1-4.6-1.6-7.2-7.1c-1.6-3.3-3.2-6.2-3.6-6.4
	c-1.4-0.9-5.8,9.5-5.8,13.8c-0.1,2.5-1.3,6.8-2.9,10.3l-2.8,6l-1.3-2.8c-0.9-1.8-2.6-3.1-5.3-3.9c-3.7-1.1-4.3-1.8-7.5-9
	c-1.9-4.2-3.8-7.5-4.2-7.3c-0.5,0.3-1.1-0.2-1.4-1.1c-1.3-3.3-0.5-6.1,2.5-9c2.8-2.6,3-3.3,2.4-7.4c-1-7.2-1-10.3-0.3-13.7
	c0.6-2.8,0.1-3.9-4.3-9.5c-4.1-5.1-5.9-6.6-9.6-7.6c-4-1.2-4.7-1.2-6.3,0.3c-1.8,1.6-2.4,1.4-12.2-3.9c-8.9-5-10.4-5.5-11.4-4.1
	c-0.6,0.8-1.8,1.5-2.7,1.5c-2,0-2.8,6.3-1.4,11.7c1.5,5.7,0.3,6.7-9.7,8.3c-8.3,1.3-8.6,1.3-17.7-1.6c-8.9-2.8-9.3-3.1-10.2-6.4
	c-0.7-2.7-0.5-3.7,0.8-4.6c1.3-1-0.4-1.6-9.7-3.8c-13.6-3.1-13.7-3.2-21.9-0.5c-8.1,2.7-8.7,3.3-5.5,5.4c3.4,2.2,3.3,2.9-0.7,4.3
	c-4.3,1.6-5.2,1.5-3.8-0.2c0.8-1,0.9-1.6,0.1-2.1c-0.6-0.3-0.8-2.2-0.4-4.3c0.4-2.6-0.1-5.1-1.5-8.2c-1.7-3.9-2-4.1-2-1.9
	c-0.1,4.3-2.1,5.1-7.4,3.3c-4.3-1.4-5.3-2.6-4.8-5.7c0.2-1.1-1.3-0.9-2.6,0.4c-0.8,0.8-1.9,0.6-4.1-0.5c-3-1.5-3.1-1.5-5.1,1
	c-2.2,2.8-2.4,3.8-1.2,6.7c0.6,1.7,0.8,1.7,3.3-0.2c3.1-2.5,4.1-2.6,5.7-0.7c1.7,2.1-7.5,7.9-10.2,6.4c-1.7-0.9-1.9-0.8-1.4,0.6
	c0.5,1.2-1,2.4-6.4,5.2c-5.7,2.8-8,3.5-11.8,3.2c-4.6-0.3-4.6-0.3-4.6,2.9c0,2.7-0.3,3.2-1.8,2.7c-1-0.3-2.6,0-3.5,0.8
	c-1.9,1.5-2.6,2.8,6.4-11.5c4.9-7.8,4.9-7.8,8.9-7.5l3.9,0.3l9.1-12.9c8.2-11.8,9.5-13.1,14.3-15.2c3.8-1.7,5.2-2.8,5.2-4.3
	c0-1.2,0.7-2.1,1.5-2.1s1.9-0.9,2.5-1.9c0.5-1.1,2.3-2.7,3.8-3.6c4-2.4,7.2-8.5,6.8-13c-0.3-3.1-0.9-4-3.2-5
	c-1.6-0.7-3.5-2.5-4.3-4.1l-1.3-2.9l3.2,3c3.1,3,3.2,3,4.6,1c2.4-3.2,2.9-6.7,1.2-7.9c-0.9-0.7-2.2-3.1-2.9-5.5
	c-1.2-4-1.4-4.2-2.6-2.5c-1.2,1.6-1.5,1.7-2.3,0.4c-0.6-0.8-0.8-2.4-0.6-3.5c0.3-1.4-1.4-4-5.7-8.7l-6.2-6.8l-11.6-0.6l-11.5-0.7
	l-3.3,5.2c-3.2,4.9-3.5,5.1-7.7,5.1c-2.4,0-4.4-0.3-4.4-0.6s1.8-2.7,4-5.3c2.4-2.8,4.3-6.3,4.6-8.3c0.5-3.1,0.3-3.6-1.7-4.1
	c-1.3-0.4-3.6-0.7-5.1-0.7c-3.7,0-5.8-1-5.8-2.6c0-1.9-0.4-1.8-5.3,1.2c-4.1,2.5-4,2.4,2.1-3.8l6.3-6.4l-1.6-3.7
	c-1.2-2.9-2.8-4.3-7.5-6.7C603-0.5,603.6-0.5,598.5,1.9z"/>
</svg>
