<?xml version="1.0" encoding="utf-8"?>
<!-- Generator: Adobe Illustrator 27.0.1, SVG Export Plug-In . SVG Version: 6.00 Build 0)  -->
<svg version="1.1" id="layer" xmlns="http://www.w3.org/2000/svg" xmlns:xlink="http://www.w3.org/1999/xlink" x="0px" y="0px"
	 viewBox="0 0 360 360" style="enable-background:new 0 0 360 360;" xml:space="preserve">
<style type="text/css">
	.st0{fill:#BC002D;}
	.st1{fill:#FFFFFF;}
</style>
<g>
	<circle class="st0" cx="180" cy="180" r="170"/>
	<path class="st1" d="M180,15c91.1,0,165,73.9,165,165s-73.9,165-165,165S15,271.1,15,180S88.9,15,180,15 M180,5
		c-23.6,0-46.5,4.6-68.1,13.8C91,27.6,72.3,40.2,56.3,56.3S27.6,91,18.8,111.9C9.6,133.5,5,156.4,5,180s4.6,46.5,13.8,68.1
		c8.8,20.8,21.4,39.6,37.5,55.6c16.1,16.1,34.8,28.7,55.6,37.5c21.6,9.1,44.5,13.8,68.1,13.8s46.5-4.6,68.1-13.8
		c20.8-8.8,39.6-21.4,55.6-37.5c16.1-16.1,28.7-34.8,37.5-55.6c9.1-21.6,13.8-44.5,13.8-68.1s-4.6-46.5-13.8-68.1
		c-8.8-20.8-21.4-39.6-37.5-55.6c-16.1-16.1-34.8-28.7-55.6-37.5C226.5,9.6,203.6,5,180,5L180,5z"/>
</g>
<g>
	<path class="st1" d="M74.5,96h50.8l9.8-9.8l15.6,15.6c-5.9,0.7-13,7.5-21.5,20.5c-8.5,13.7-16.9,27-25.4,40h28.3l6.8-9.8l14.6,12.7
		l-7.8,5.9c-3.9,25.4-9.8,48.5-17.6,69.3c16.3,13,32.4,20.5,48.3,22.5c15.9,2,32.1,2.9,48.3,2.9c21.5,0,43.3-1,65.4-2.9v3.9
		c-13,2.6-19.5,8.1-19.5,16.6c-44.9,0-76.5-2.1-94.7-6.3c-18.2-4.2-36.1-13.5-53.7-27.8c-14.3,17.6-32.6,31.2-54.7,41l-2-2.9
		c19.5-11.7,35.5-27.3,47.9-46.9c-8.5-11.1-17.3-27.7-26.4-49.8l2.9-1c9.8,18.2,19.2,31.9,28.3,41c7.8-20.2,12.7-41,14.6-62.5h-31.2
		l-5.9,6.8l-12.7-11.7c7.8-5.2,16.1-14.8,24.9-28.8c8.8-14,14.8-24.9,18.1-32.7H94.1l-11.7,2L74.5,96z M164.4,105.8
		c22.8-2.6,43.8-6.5,63-11.7c19.2-5.2,31.4-9.8,36.6-13.7L280.6,98c-7.2,0-15.1,0.7-23.9,2c-8.8,1.3-17.4,2.6-25.9,3.9v56.6h21.5
		l11.7-11.7l17.6,17.6h-50.8v63.5h27.3l11.7-11.7l17.6,17.6h-98.6l-7.8,8.8l-12.7-12.7l6.8-5.9V181c0-13-0.3-25.1-1-36.1l20.5,9.8
		l-6.8,4.9v70.3h30.3v-125c-15.6,2-33.2,3.6-52.7,4.9L164.4,105.8z"/>
</g>
<g>
</g>
<g>
</g>
<g>
</g>
<g>
</g>
<g>
</g>
<g>
</g>
<g>
</g>
<g>
</g>
<g>
</g>
<g>
</g>
<g>
</g>
<g>
</g>
<g>
</g>
<g>
</g>
<g>
</g>
</svg>
