<?xml version="1.0" encoding="utf-8"?>
<!-- Generator: Adobe Illustrator 27.0.1, SVG Export Plug-In . SVG Version: 6.00 Build 0)  -->
<svg version="1.1" id="layer" xmlns="http://www.w3.org/2000/svg" xmlns:xlink="http://www.w3.org/1999/xlink" x="0px" y="0px"
	 viewBox="0 0 360 360" style="enable-background:new 0 0 360 360;" xml:space="preserve">
<style type="text/css">
	.st0{fill:#BC002D;}
	.st1{fill:#FFFFFF;}
</style>
<g>
	<circle class="st0" cx="180" cy="180" r="170"/>
	<path class="st1" d="M180,15c91.1,0,165,73.9,165,165s-73.9,165-165,165S15,271.1,15,180S88.9,15,180,15 M180,5
		c-23.6,0-46.5,4.6-68.1,13.8C91,27.6,72.3,40.2,56.3,56.3S27.6,91,18.8,111.9C9.6,133.5,5,156.4,5,180s4.6,46.5,13.8,68.1
		c8.8,20.8,21.4,39.6,37.5,55.6c16.1,16.1,34.8,28.7,55.6,37.5c21.6,9.1,44.5,13.8,68.1,13.8s46.5-4.6,68.1-13.8
		c20.8-8.8,39.6-21.4,55.6-37.5c16.1-16.1,28.7-34.8,37.5-55.6c9.1-21.6,13.8-44.5,13.8-68.1s-4.6-46.5-13.8-68.1
		c-8.8-20.8-21.4-39.6-37.5-55.6c-16.1-16.1-34.8-28.7-55.6-37.5C226.5,9.6,203.6,5,180,5L180,5z"/>
</g>
<g>
	<path class="st1" d="M260.1,159.5c-2.6,54.7-5.2,86.9-7.8,96.7c-2.6,9.8-7.2,16.9-13.7,21.5c-6.5,4.5-14,7.8-22.5,9.8
		c0.6-8.5-9.8-16.9-31.2-25.4l1-4.9c15,3.9,26.9,6,35.6,6.3c8.8,0.3,14.3-7.6,16.6-23.9c2.3-16.3,4.4-43.9,6.3-83h-79.1
		c-5.2,33.2-15.6,61-31.2,83.5S98,280.6,72.6,294.3l-2-2.9c22.8-15.6,41.8-38.2,57.1-67.9c15.3-29.6,23.6-70.5,24.9-122.6h-49.8
		c-8.5,0-16.3,1-23.4,2.9L70.6,95h183.6l14.6-14.6l20.5,20.5H170.2c-0.7,16.9-2,33.5-3.9,49.8h76.2l8.8-11.7l17.6,13.7L260.1,159.5z
		"/>
</g>
<g>
</g>
<g>
</g>
<g>
</g>
<g>
</g>
<g>
</g>
<g>
</g>
<g>
</g>
<g>
</g>
<g>
</g>
<g>
</g>
<g>
</g>
<g>
</g>
<g>
</g>
<g>
</g>
<g>
</g>
</svg>
