<?xml version="1.0" encoding="utf-8"?>
<!-- Generator: Adobe Illustrator 27.0.1, SVG Export Plug-In . SVG Version: 6.00 Build 0)  -->
<svg version="1.1" id="レイヤー_1" xmlns="http://www.w3.org/2000/svg" xmlns:xlink="http://www.w3.org/1999/xlink" x="0px"
	 y="0px" viewBox="0 0 360 360" style="enable-background:new 0 0 360 360;" xml:space="preserve">
<style type="text/css">
	.st0{fill:#BC002D;}
	.st1{fill:#FFFFFF;}
</style>
<g>
	<path class="st0" d="M168.9,355.1c-35.7,0-71.5,0-107.2,0c-11.1,0-21.4-2.6-30.6-7.8C18.2,340.1,10,330,6.6,317.1
		c-0.8-3.2-1.2-6.4-1.2-9.5c0-2.6,0-5.2,0-7.9l0-3.9l0-2.9c0-1.9,0-3.8,0-5.7c-0.1-33.7-0.1-67.9-0.1-101c0-9.7,0-40,0-45.5
		c0-11.1,0-22.2,0-33.3c0-4.4,0-8.8,0-13.2c0-4.3,0-8.6,0-12.9c0-4.4,0-8.8,0-13.2c0-4.3,0-8.6,0-12.9c0-0.4,0-0.8,0-1.3
		c0-0.8-0.1-1.7,0-2.6c0.4-9.2,3.7-17.6,9.6-25C23.1,16.2,34.5,9.5,48.6,6.5c3.7-0.8,7.5-1.2,11.9-1.3c1.8,0,3.8-0.1,6.4-0.1l6.2,0
		h265.3c2,0,4.5,0.1,7,1c6,2.1,9.9,7.2,9.9,12.9v3.1c0,52.7,0,105.4,0,158.2v91.6c0,5.7,0,11.3,0,17c0,5.7,0,11.3,0,17
		c0,11.2,0,22.4,0,33.7l0,1.7c0,6.6-5,12.2-12.2,13.7c-1.4,0.3-2.8,0.3-3.6,0.3L168.9,355.1z"/>
	<path class="st1" d="M66.9,10.1c2.1,0,4.1,0,6.2,0c88.4,0,176.8,0,265.3,0c1.8,0,3.6,0.1,5.3,0.7c3.9,1.4,6.5,4.6,6.6,8.2
		c0,1,0,2,0,3c0,52.7,0,105.4,0,158.2c0,30.5,0,61.1,0,91.6c0,11.3,0,22.7,0,34c0,11.8,0,23.6,0,35.4c0,4.2-3.3,7.8-8.2,8.7
		c-0.9,0.2-1.7,0.2-2.6,0.2c-21.2,0-42.3,0-63.5,0c-35.7,0-71.5,0-107.2,0c-35.7,0-71.3,0-107,0c-10.2,0-19.7-2.4-28.2-7.1
		c-11.7-6.5-19-15.6-22.1-27.1c-0.7-2.7-1.1-5.4-1.1-8.2c0-4,0-7.9,0-11.8c0-2.9,0-5.8,0-8.6c-0.2-43.3-0.1-86.6-0.1-129.9
		c0-16.6,0-33.2,0.1-49.8c0-8.7,0-17.3,0-26c0-8.7,0-17.3,0-26c0-1.2-0.1-2.5-0.1-3.7c0.4-8,3.2-15.5,8.5-22.1
		c7.5-9.4,17.8-15.4,30.8-18.2c3.6-0.8,7.2-1.1,11-1.2C62.7,10.1,64.8,10.1,66.9,10.1 M66.9,0.1c-2.6,0-4.6,0-6.5,0.1
		c-4.6,0.1-8.8,0.6-12.8,1.4C32.3,4.8,20,12.1,11.1,23.3C4.5,31.6,0.9,41,0.4,51.2c-0.1,1.2,0,2.2,0,3.1c0,0.4,0,0.7,0,1.1
		c0,4.3,0,8.7,0,13c0,4.3,0,8.7,0,13c0,4.3,0,8.7,0,13c0,4.3,0,8.7,0,13c0,11.1,0,22.3,0,33.2c0,5.5,0,11.1,0,16.6
		c0,9.6,0,19.2,0,28.9c0,33.1-0.1,67.4,0.1,101.1c0,1.9,0,3.8,0,5.7c0,1,0,1.9,0,2.9c0,1.3,0,2.6,0,4c0,2.6,0,5.2,0,7.8
		c0,3.6,0.4,7.2,1.4,10.8c3.8,14.2,12.8,25.4,26.9,33.3c9.9,5.6,21.1,8.4,33.1,8.4c35.7,0,71.3,0,107,0l53.6,0l53.6,0h63.5
		c1.1,0,2.8,0,4.7-0.4c9.5-1.9,16.2-9.6,16.2-18.5v0l0-0.1c0-11.8,0-23.5,0-35.3c0-5.7,0-11.3,0-17c0-5.7,0-11.3,0-17v-91.6
		c0-52.7,0-105.5,0-158.2v-3V19l0-0.1c-0.1-7.8-5.3-14.7-13.3-17.5c-3.3-1.1-6.3-1.3-8.6-1.3H73.1c-1,0-2,0-3.1,0
		C68.9,0.1,67.9,0.1,66.9,0.1L66.9,0.1z"/>
</g>
<g>
	<path class="st1" d="M73.4,84.2c0,22.8,0.1,36.7,0.4,41.9l-5.9,3c0.2-7.4,0.4-22.4,0.4-44.9c-3,5.7-6.4,10.9-10.4,15.8
		c-4,4.8-8.3,9.1-13,12.8l-0.7-1.1c5.7-6.2,10.4-12.6,14.1-19.1c3.7-6.6,6.4-12.7,8.2-18.4H53.7l-3.3,0.7l-3-3h20.8V55.3
		c-3.5,0.5-9.8,1.1-18.9,1.9v-1.5c8.4-1.2,15.3-2.7,20.8-4.3c5.4-1.6,10.1-3.6,14.1-6.1l5.2,6.7c-6.7,0.7-12,1.6-16,2.6V72h8.9
		l4.1-4.1l5.9,6.3H73.4v8.2c9.4,3,14.5,5.4,15.2,7.2s1.1,3.3,1.1,4.3c0,1.2-0.2,2.3-0.7,3.2c-0.5,0.9-0.9,1.3-1.1,1.3
		c-0.7,0-1.6-0.9-2.6-2.6C83.8,93.2,79.8,89.4,73.4,84.2z M124.2,61.2c0,28,0.1,45.5,0.4,52.7l-5.6,2.2v-7.8h-18.9v8.5l-5.6,2.6
		c0.2-10.9,0.4-22.5,0.4-34.7s-0.1-22.6-0.4-31l5.6,3.7h18.2l3.7-3.7l5.2,5.2L124.2,61.2z M100.1,59.7v46.4H119V59.7H100.1z"/>
	<path class="st1" d="M211.1,61.6c-5.7,8.2-11.6,14.9-17.6,20.2c-6.1,5.3-11.9,9.8-17.6,13.5h33l3-3.7l5.9,4.8l-3,2.2v14.1
		c0,3.7,0.1,7.7,0.4,11.9l-5.6,3v-5.6h-37.1v4.5l-5.6,2.2c0.2-8.7,0.4-14.3,0.4-17.1v-11.5c-8.7,4.7-17.7,8.2-27.1,10.4l-0.4-1.1
		c10.6-4,19.8-8.7,27.5-14.1v-3.7l4.1,1.5c5.7-4,11.6-8.8,17.8-14.7c6.2-5.8,11.4-11.9,15.6-18.4h-32.3
		c-7.9,10.6-16.3,18.6-25.2,23.8l-1.1-1.1c5.7-4.2,11.2-9.9,16.5-17.1c5.3-7.2,9.2-14.6,11.7-22.3l8.2,5.9l-4.1,1.5
		c-2,3-3.6,5.3-4.8,7.1h31.2l3.3-4.1l7.1,5.6L211.1,61.6z M164.7,68.6c8.2,3.5,12.5,6.3,13,8.3c0.5,2.1,0.3,3.8-0.6,5
		c-0.9,1.2-1.7,1.9-2.4,1.9s-1.4-0.9-1.9-2.6c-1.2-2.7-4.3-6.6-9.3-11.5L164.7,68.6z M172.5,97.6v22.3h37.1V97.6H172.5z"/>
	<path class="st1" d="M69.3,178.6c6.7,2.7,11,4.7,13,5.9c2,1.2,3,2.8,3,4.8c0,1-0.2,2-0.6,3.2s-0.7,1.7-0.9,1.7
		c-0.7,0-1.6-0.9-2.6-2.6c-2-2.7-5.9-6.6-11.9-11.5c0,4.5,0.1,9.3,0.4,14.5l-5.6,3.3c0.2-4.7,0.4-10.3,0.4-16.7
		c-4.5,5.2-11,10.6-19.7,16.3l-1.1-1.1c6.7-5.2,12.2-11.3,16.7-18.2h-3.7c-3.2,0-6.2,0.4-8.9,1.1l-3.3-3.3h20
		c0-10.6-0.1-17.8-0.4-21.5l8.5,4.5l-3.3,2.2V176h1.9c3.5-6.7,5.8-12.6,7.1-17.8l7.1,5.2c-2,0.2-3.8,1.6-5.6,4.1
		c-2,2.7-4.1,5.6-6.3,8.5h5.9l4.5-4.5l6.3,6.7H69.3V178.6z M68.9,212c-0.2,1-0.6,2.4-1.1,4.1c9.6,3.5,15,5.9,16,7.2
		c1,1.4,1.5,2.5,1.5,3.5c0,1-0.2,2-0.7,3.2c-0.5,1.1-1,1.7-1.5,1.7c-0.7,0-1.7-1-3-3c-2-3-6.2-6.7-12.6-11.1
		c-2.5,8.2-9.8,15.6-21.9,22.3l-1.1-1.1c10.1-6.4,16.7-15.3,19.7-26.7h-7.8c-3.2,0-6.2,0.4-8.9,1.1l-3.3-3.3h20.4
		c0.7-4.5,1-8.4,0.7-11.9l7.8,4.5c-2,0.5-3.2,3-3.7,7.4h10.8l4.5-4.1l6.3,6.3H68.9z M50,158.9c4.9,3.5,7.8,5.8,8.5,7.1
		c0.7,1.2,1.1,2.1,1.1,2.6c0,1-0.4,2-1.3,3.2c-0.9,1.1-1.5,1.7-2,1.7c-0.5,0-1-0.7-1.5-2.2c-0.7-2.5-2.7-6.3-5.9-11.5L50,158.9z
		 M73.8,194.9c3.5,1.7,5.9,3.2,7.2,4.3c1.4,1.1,2,2.2,2,3.2c0,0.7-0.3,1.6-0.9,2.6c-0.6,1-1.2,1.5-1.7,1.5c-0.7,0-1.4-0.7-1.9-2.2
		c-1-2.2-3-5.1-5.9-8.5L73.8,194.9z M107.9,222.8c-1.5,0-4,1.7-7.4,5.2c-3.7,3.7-8.8,7.5-15.2,11.5l-1.1-1.1
		c4.9-4,8.9-7.9,11.9-11.9c3-4,4.7-6.9,5.2-8.9L107.9,222.8z M103.5,174.2c1-6.2,1.5-10.3,1.5-12.2h-6.3c-3.2,0-6.2,0.4-8.9,1.1
		l-3.3-3.3h33.4l4.8-4.5l6.3,6.7h-24.1l5.6,2.6c-2.2,1-4.6,4.2-7.1,9.6h15.6l3-3.7l5.9,4.8l-3.3,1.9c0,20.5,0.1,33.5,0.4,39
		l-5.2,3.3v-3.7H97.5v1.5l-5.2,2.6c0.2-5.7,0.4-13.1,0.4-22.3c0-9.2-0.1-17.9-0.4-26.3l5.2,3H103.5z M97.5,176.4v10.8h24.1v-10.8
		H97.5z M97.5,189.4v10.8h24.1v-10.8H97.5z M97.5,202.4v11.1h24.1v-11.1H97.5z M112,219.4l1.1-0.7c7.4,4.7,12,8,13.7,10
		c1.7,2,2.6,3.6,2.6,4.8c0,0.7-0.4,1.8-1.1,3.2c-0.7,1.4-1.4,2-1.9,2c-0.5,0-0.9-0.4-1.1-1.1c-1-1.7-2.3-3.9-3.9-6.5
		C119.8,228.5,116.7,224.6,112,219.4z"/>
	<path class="st1" d="M190.7,184.2l-9.3,3c0,3.2,0.1,5.6,0.4,7.1l-5.6,2.2c0.2-2.7,0.4-5.4,0.4-8.2c-7.4,1.7-13.5,3.3-18.2,4.8
		c-4.7,1.5-8.4,3-11.1,4.5l-3.3-5.9c3.5-0.5,6.8-1,10-1.5v-30.1c-2.7,0-5.4,0.4-8.2,1.1l-3.3-3.3h40.4l5.2-4.5l6.3,6.7h-13v24.9
		l8.9-1.9L190.7,184.2z M172.5,209.8l-3.7,0.7c-8.9,6.2-16.6,10.6-23,13.4l-0.4-1.5c3.7-2.2,7.5-4.9,11.3-8.2
		c3.8-3.2,7.1-6.6,9.8-10L172.5,209.8z M178,220.9l-3.7,0.4c-3.5,2.5-7.4,5-11.9,7.4s-9.4,4.7-14.8,6.7l-0.4-1.5
		c5.2-2.5,9.8-5.3,13.9-8.3c4.1-3.1,8-6.7,11.7-10.9L178,220.9z M225.2,227.6c-4,0.7-6.3,2.5-7.1,5.2c-9.2-3-16.1-6.9-21-11.9
		c-4.8-4.9-8.7-11.5-11.7-19.7v27.8c0,1.7,0.1,4.6,0.4,8.5l-5.6,2.6c0.2-8.9,0.4-21.9,0.4-39c-5,0.5-12.9,1.1-23.8,1.9v-1.5
		c8.4-1,14.5-1.8,18.2-2.4c3.7-0.6,8-1.4,12.8-2.4c4.8-1,9.8-2.6,15-4.8l3.7,6.3c-5.2,0.5-9.2,1-11.9,1.5c-2.7,0.5-5.2,0.9-7.4,1.1
		c2.7,6.2,6.2,11.4,10.4,15.6c2.5-2.2,4.9-4.8,7.2-7.6c2.3-2.8,4.1-5.3,5.4-7.2l5.6,6.3l-3.7,0.7c-6.2,4.5-10.5,7.5-13,9.3
		c2.7,2.2,6.3,4.1,10.8,5.8c4.5,1.6,9.5,2.5,15.2,2.8V227.6z M158.8,160.1v8.2h17.8v-8.2H158.8z M158.8,170.4v7.4h17.8v-7.4H158.8z
		 M158.8,189.4l17.8-3.3v-5.9h-17.8V189.4z M218.1,166.7c-3.7,5-6.8,8.7-9.3,11.1c5.4,3.2,8.8,5.8,10.2,7.6c1.4,1.9,1.9,3.5,1.5,5
		s-1,2.3-1.9,2.4c-0.9,0.1-2.2-1-3.9-3.5c-1.7-2.5-4.6-5.2-8.5-8.2c-5.9,5.2-13.1,9.2-21.5,11.9l-0.4-1.1c7.4-3.7,13.6-8,18.6-13
		c-4.7-3-9.3-5.7-13.7-8.2l0.4-1.1c3.5,1.2,8.7,3.3,15.6,6.3c2.5-2.7,5.3-6.4,8.5-11.1h-15.2c-3.2,0-6.2,0.4-8.9,1.1l-3.3-3.3h27.1
		l3.3-3.3l5.2,5.2L218.1,166.7z"/>
	<path class="st1" d="M234.1,200.1c2.5,0,8-1.5,16.7-4.5v-18.6h-9.3l-4.5,0.7l-3-3h16.7c0-8.2-0.1-15.3-0.4-21.5l8.9,4.1l-3.3,2.6
		v14.8h4.8l4.1-4.1l6.3,6.3H256v17.1l13.7-5.2l0.4,1.5l-14.1,7.4v31.9c0,2.2-0.7,4.1-2,5.6c-1.4,1.5-3.4,2.8-6.1,4.1
		c-1-3.7-4.7-6.4-11.1-8.2v-1.9c5.7,1,9.5,1.4,11.3,1.3c1.9-0.1,2.8-1,2.8-2.8v-27.8c-6.7,3.2-10.8,5.6-12.2,7.1L234.1,200.1z
		 M310.2,194.9l7.1,5.9l-3.7,1.1c-8.4,11.4-17.3,20-26.7,25.8c-9.4,5.8-18.6,9.7-27.5,11.7l-0.4-1.5c9.9-3,19.4-8.2,28.6-15.6
		C296.7,215,304.2,205.8,310.2,194.9z M277.9,171.9l8.2,5.2c-2,1.5-5,5.8-8.9,13c-4.2,7.2-8.7,13.1-13.4,17.8l-1.1-1.1
		c4.2-5.9,7.6-12.1,10.2-18.6C275.5,181.8,277.1,176.4,277.9,171.9z M295.3,161.2v37.1c0,3.2,0.1,6.8,0.4,10.8l-5.9,3
		c0.2-7.2,0.4-13,0.4-17.4c0-22.3-0.1-35.7-0.4-40.4l9.3,4.1L295.3,161.2z M302,171.6c6.7,4.2,11.2,7.4,13.5,9.5
		c2.3,2.1,3.5,4,3.3,5.6c-0.1,1.6-0.6,2.8-1.5,3.5c-0.9,0.7-1.4,1.1-1.7,1.1c-1.2,0-2.4-1.4-3.3-4.1c-1.7-3.7-5.4-8.5-11.1-14.5
		L302,171.6z"/>
</g>
<path class="st1" d="M193.7,325c-43.3,0-86.5,0-129.8,0c-7.9,0-14.8-2-20.6-6.5c-5.2-4-8.4-8.9-9.5-14.8c-2.3-13.2,7.8-25,22.3-28
	c2.1-0.4,4.3-0.7,6.5-0.7c87.7,0,175.5,0,263.2,0c1.5,0,1.3-0.2,1.3,1.1c0,15.9,0,31.9,0,47.8c0,1.1,0,1.1-1.3,1.1
	C281.7,325,237.7,325,193.7,325z"/>
</svg>
