<?xml version="1.0" encoding="utf-8"?>
<!-- Generator: Adobe Illustrator 28.0.0, SVG Export Plug-In . SVG Version: 6.00 Build 0)  -->
<svg version="1.1" id="レイヤー_1" xmlns="http://www.w3.org/2000/svg" xmlns:xlink="http://www.w3.org/1999/xlink" x="0px"
	 y="0px" viewBox="0 0 512 512" style="enable-background:new 0 0 512 512;" xml:space="preserve">
<style type="text/css">
	.st0{fill:#333333;}
	.st1{fill:#ACACAC;}
</style>
<g>
	<path class="st0" d="M512,460.8c0,28.2-23,51.2-51.2,51.2H51.2C23,512,0,489,0,460.8V51.2C0,23,23,0,51.2,0h409.6
		C489,0,512,23,512,51.2V460.8z"/>
</g>
<g>
	<path class="st1" d="M481,436c0,24.8-20.2,45-45,45H76c-24.8,0-45-20.2-45-45V76c0-24.8,20.2-45,45-45h360c24.8,0,45,20.2,45,45
		V436z"/>
</g>
<g>
	<path class="st0" d="M273.4,319.2c0-9.6-7.7-15-20.2-15c-9.9,0-17.8,4.3-25.6,12.6l-13.1-12.2c10.1-11.8,24.2-19.5,41.3-19.5
		c23.2,0,40.2,10.7,40.2,32c0,23.5-34.9,26.2-32.5,48.5h-20.6C239.5,340.5,273.4,334.7,273.4,319.2z M239.2,394.1
		c0-8.5,6.1-14.2,14.1-14.2c8.2,0,14.1,5.8,14.1,14.2c0,8.3-5.9,14.1-14.1,14.1S239.2,402.4,239.2,394.1z"/>
</g>
<g>
	<path class="st0" d="M166.4,222.7l-7.5-26.3h-35.7l-8,26.3H82l41.2-133.3h43.3l41.8,133.3H166.4z M130.1,167.3h21.6l-10.8-38.7
		L130.1,167.3z"/>
	<path class="st0" d="M311.4,122.3h-55.9l-1.6,18.8c7.2-5,15.2-7.5,24-7.5c11.6,0,21.7,4,30.4,11.9c8.7,7.9,13,18.6,13,31.8
		c0,14-5,25.4-15.1,34.2c-10.1,8.8-23,13.2-38.7,13.2c-13.7,0-25.5-3.6-35.5-10.8c-10-7.2-16.1-17.2-18.4-30.1l34.4-4.2
		c2.3,9.7,8.5,14.6,18.7,14.6c5.1,0,9.2-1.6,12.1-4.7c2.9-3.1,4.3-6.9,4.3-11.4c0-5.1-1.7-9-5-11.9c-3.3-2.9-7.3-4.3-11.8-4.3
		c-6.8,0-12,2.8-15.6,8.4l-30.6-4.3l5.9-76.6h89L311.4,122.3z"/>
	<path class="st0" d="M396.2,182.6l33.2,2.8c-1.6,11.6-6.4,21-14.6,28.3c-8.2,7.3-19,10.9-32.6,10.9c-15.2,0-27.5-4.8-37-14.3
		c-9.5-9.5-14.2-21.8-14.2-36.7c0-15.2,4.7-27.8,14.1-37.6c9.4-9.9,21.6-14.8,36.7-14.8c13.3,0,24.2,3.7,32.6,11.2
		c8.4,7.5,13.2,16.9,14.5,28.3l-34.1,2.8c-1.4-10.5-5.4-15.7-11.9-15.7c-4.2,0-7.2,1.9-9.1,5.7c-1.9,3.8-2.9,10.4-2.9,19.9
		c0,8.1,1,14.2,2.9,18.1c1.9,3.9,5.3,5.9,10,5.9C390.8,197.4,394.9,192.5,396.2,182.6z"/>
</g>
</svg>
