<?xml version="1.0" encoding="utf-8"?>
<!-- Generator: Adobe Illustrator 28.0.0, SVG Export Plug-In . SVG Version: 6.00 Build 0)  -->
<svg version="1.1" id="レイヤー_1" xmlns="http://www.w3.org/2000/svg" xmlns:xlink="http://www.w3.org/1999/xlink" x="0px"
	 y="0px" viewBox="0 0 512 512" style="enable-background:new 0 0 512 512;" xml:space="preserve">
<style type="text/css">
	.st0{fill:#333333;}
	.st1{fill:#ACACAC;}
</style>
<g>
	<path class="st0" d="M512,460.8c0,28.2-23,51.2-51.2,51.2H51.2C23,512,0,489,0,460.8V51.2C0,23,23,0,51.2,0h409.6
		C489,0,512,23,512,51.2V460.8z"/>
</g>
<g>
	<path class="st1" d="M481,436c0,24.8-20.2,45-45,45H76c-24.8,0-45-20.2-45-45V76c0-24.8,20.2-45,45-45h360c24.8,0,45,20.2,45,45
		V436z"/>
</g>
<g>
	<path class="st0" d="M277.1,172.5l37.4,2.2c-1.8,16.3-7.8,28.9-18.1,37.6c-10.3,8.7-23,13.1-38,13.1c-18.1,0-32.7-6-43.8-18
		c-11.1-12-16.7-28.5-16.7-49.6c0-20.9,5.3-37.8,15.8-50.6C224.2,94.5,238.9,88,257.8,88c17.6,0,31.2,4.9,40.7,14.6
		s14.8,22.7,16.1,38.9l-38.2,2.1c0-8.9-1.7-15.4-5.1-19.3c-3.4-4-7.4-6-12.1-6c-12.9,0-19.3,13-19.3,38.9c0,14.5,1.7,24.4,5,29.6
		c3.4,5.2,8.1,7.8,14.1,7.8C269.8,194.6,275.8,187.2,277.1,172.5z"/>
</g>
<g>
	<path class="st0" d="M273.4,319.2c0-9.6-7.7-15-20.2-15c-9.9,0-17.8,4.3-25.6,12.6l-13.1-12.2c10.1-11.8,24.2-19.5,41.3-19.5
		c23.2,0,40.2,10.7,40.2,32c0,23.5-34.9,26.2-32.5,48.5h-20.6C239.5,340.5,273.4,334.7,273.4,319.2z M239.2,394.1
		c0-8.5,6.1-14.2,14.1-14.2c8.2,0,14.1,5.8,14.1,14.2c0,8.3-5.9,14.1-14.1,14.1S239.2,402.4,239.2,394.1z"/>
</g>
<g>
</g>
<g>
</g>
<g>
</g>
<g>
</g>
<g>
</g>
<g>
</g>
<g>
</g>
<g>
</g>
<g>
</g>
<g>
</g>
<g>
</g>
<g>
</g>
<g>
</g>
<g>
</g>
<g>
</g>
</svg>
