<?xml version="1.0" encoding="utf-8"?>
<!-- Generator: Adobe Illustrator 28.0.0, SVG Export Plug-In . SVG Version: 6.00 Build 0)  -->
<svg version="1.1" id="レイヤー_1" xmlns="http://www.w3.org/2000/svg" xmlns:xlink="http://www.w3.org/1999/xlink" x="0px"
	 y="0px" viewBox="0 0 512 512" style="enable-background:new 0 0 512 512;" xml:space="preserve">
<style type="text/css">
	.st0{fill:#333333;}
	.st1{fill:#ACACAC;}
</style>
<g>
	<path class="st0" d="M512,460.8c0,28.2-23,51.2-51.2,51.2H51.2C23,512,0,489,0,460.8V51.2C0,23,23,0,51.2,0h409.6
		C489,0,512,23,512,51.2V460.8z"/>
</g>
<g>
	<path class="st1" d="M481,436c0,24.8-20.2,45-45,45H76c-24.8,0-45-20.2-45-45V76c0-24.8,20.2-45,45-45h360c24.8,0,45,20.2,45,45
		V436z"/>
</g>
<g>
	<path class="st0" d="M273.4,319.2c0-9.6-7.7-15-20.2-15c-9.9,0-17.8,4.3-25.6,12.6l-13.1-12.2c10.1-11.8,24.2-19.5,41.3-19.5
		c23.2,0,40.2,10.7,40.2,32c0,23.5-34.9,26.2-32.5,48.5h-20.6C239.5,340.5,273.4,334.7,273.4,319.2z M239.2,394.1
		c0-8.5,6.1-14.2,14.1-14.2c8.2,0,14.1,5.8,14.1,14.2c0,8.3-5.9,14.1-14.1,14.1S239.2,402.4,239.2,394.1z"/>
</g>
<g>
	<path class="st0" d="M160.8,171.8l37.4,2.2c-1.8,16.3-7.8,28.9-18.1,37.6c-10.3,8.7-23,13.1-38,13.1c-18.1,0-32.7-6-43.8-18
		c-11.1-12-16.7-28.5-16.7-49.6c0-20.9,5.3-37.8,15.8-50.6c10.5-12.8,25.3-19.2,44.1-19.2c17.6,0,31.2,4.9,40.7,14.6
		s14.8,22.7,16.1,38.9l-38.2,2.1c0-8.9-1.7-15.4-5.1-19.3c-3.4-4-7.4-6-12.1-6c-12.9,0-19.3,13-19.3,38.9c0,14.5,1.7,24.4,5,29.6
		c3.4,5.2,8.1,7.8,14.1,7.8C153.5,193.9,159.5,186.5,160.8,171.8z"/>
	<path class="st0" d="M304.1,122.3h-55.9l-1.6,18.8c7.2-5,15.2-7.5,24-7.5c11.6,0,21.7,4,30.4,11.9c8.7,7.9,13,18.6,13,31.8
		c0,14-5,25.4-15.1,34.2c-10.1,8.8-23,13.2-38.7,13.2c-13.7,0-25.5-3.6-35.5-10.8c-10-7.2-16.1-17.2-18.4-30.1l34.4-4.2
		c2.3,9.7,8.5,14.6,18.7,14.6c5.1,0,9.2-1.6,12.1-4.7c2.9-3.1,4.3-6.9,4.3-11.4c0-5.1-1.7-9-5-11.9c-3.3-2.9-7.3-4.3-11.8-4.3
		c-6.8,0-12,2.8-15.6,8.4l-30.6-4.3l5.9-76.6h89L304.1,122.3z"/>
	<path class="st0" d="M429.2,222.7h-37.1c-0.9-4.2-1.4-8.9-1.4-13.9c-7,10.6-17.7,15.9-31.9,15.9c-11.7,0-20.5-3-26.3-9
		c-5.8-6-8.7-12.9-8.7-20.6c0-10.5,4.8-19,14.3-25.4c9.5-6.5,26.4-10.4,50.7-11.7v-2.2c0-4.4-1-7.3-3-8.7c-2-1.4-4.9-2.1-8.7-2.1
		c-9,0-14,3.6-15,10.8l-35.5-3.3c5.1-20.8,22.4-31.2,51.9-31.2c8,0,15.4,0.8,22.1,2.4c6.7,1.6,12,4.1,15.9,7.5
		c3.9,3.4,6.5,7,7.9,10.7c1.3,3.8,2,11,2,21.8v39.6C426.2,210.9,427.2,217.3,429.2,222.7z M388.8,176.2
		c-16.6,1.8-24.9,7.1-24.9,15.9c0,6,3.3,9,9.9,9c4.2,0,7.7-1.2,10.6-3.7c2.9-2.5,4.4-7.9,4.4-16.4V176.2z"/>
</g>
</svg>
