<?xml version="1.0" encoding="utf-8"?>
<!-- Generator: Adobe Illustrator 28.0.0, SVG Export Plug-In . SVG Version: 6.00 Build 0)  -->
<svg version="1.1" id="レイヤー_1" xmlns="http://www.w3.org/2000/svg" xmlns:xlink="http://www.w3.org/1999/xlink" x="0px"
	 y="0px" viewBox="0 0 512 512" style="enable-background:new 0 0 512 512;" xml:space="preserve">
<style type="text/css">
	.st0{fill:#333333;}
	.st1{fill:#ACACAC;}
</style>
<g>
	<path class="st0" d="M512,460.8c0,28.2-23,51.2-51.2,51.2H51.2C23,512,0,489,0,460.8V51.2C0,23,23,0,51.2,0h409.6
		C489,0,512,23,512,51.2V460.8z"/>
</g>
<g>
	<path class="st1" d="M481,436c0,24.8-20.2,45-45,45H76c-24.8,0-45-20.2-45-45V76c0-24.8,20.2-45,45-45h360c24.8,0,45,20.2,45,45
		V436z"/>
</g>
<g>
	<path class="st0" d="M273.4,319.2c0-9.6-7.7-15-20.2-15c-9.9,0-17.8,4.3-25.6,12.6l-13.1-12.2c10.1-11.8,24.2-19.5,41.3-19.5
		c23.2,0,40.2,10.7,40.2,32c0,23.5-34.9,26.2-32.5,48.5h-20.6C239.5,340.5,273.4,334.7,273.4,319.2z M239.2,394.1
		c0-8.5,6.1-14.2,14.1-14.2c8.2,0,14.1,5.8,14.1,14.2c0,8.3-5.9,14.1-14.1,14.1S239.2,402.4,239.2,394.1z"/>
</g>
<g>
	<path class="st0" d="M199.7,222.7V89.4h51.6c22.4,0,39.2,6.6,50.3,19.9s16.7,28.6,16.7,46.1c0,19.9-6,36.1-17.9,48.6
		c-11.9,12.5-27.5,18.7-46.5,18.7H199.7z M240.6,192h10.6c6.8,0,12.5-3.3,17.1-9.9c4.7-6.6,7-15.5,7-26.9c0-9.7-2.1-18.1-6.2-25.1
		c-4.1-7-10.1-10.5-17.9-10.5h-10.6V192z"/>
</g>
</svg>
