<?xml version="1.0" encoding="utf-8"?>
<!-- Generator: Adobe Illustrator 28.0.0, SVG Export Plug-In . SVG Version: 6.00 Build 0)  -->
<svg version="1.1" id="レイヤー_1" xmlns="http://www.w3.org/2000/svg" xmlns:xlink="http://www.w3.org/1999/xlink" x="0px"
	 y="0px" viewBox="0 0 512 512" style="enable-background:new 0 0 512 512;" xml:space="preserve">
<style type="text/css">
	.st0{fill:#333333;}
	.st1{fill:#F69263;}
</style>
<g>
	<path class="st0" d="M512,460.8c0,28.2-23,51.2-51.2,51.2H51.2C23,512,0,489,0,460.8V51.2C0,23,23,0,51.2,0h409.6
		C489,0,512,23,512,51.2V460.8z"/>
</g>
<g>
	<path class="st1" d="M481,436c0,24.8-20.2,45-45,45H76c-24.8,0-45-20.2-45-45V76c0-24.8,20.2-45,45-45h360c24.8,0,45,20.2,45,45
		V436z"/>
</g>
<g>
	<path class="st0" d="M196,148.7v74.7h-20c-1.6-5.5-3.4-10.2-5.4-14c-8.3,10.7-20.5,16-36.7,16c-17.2,0-31.3-6-42.4-18
		c-11.1-12-16.6-28.3-16.6-48.8c0-19.9,5.4-36.7,16.1-50.2C101.7,94.8,117.6,88,138.8,88c15.9,0,28.7,4,38.4,12.1
		c9.7,8.1,16,19.5,18.8,34.4l-39.6,3.9c-2-13.9-8-20.8-18.3-20.8c-13.4,0-20.1,12.8-20.1,38.3c0,15.4,2.1,25.6,6.4,30.5
		c4.3,4.9,9.5,7.4,15.6,7.4c4.9,0,9.2-1.5,12.6-4.5c3.5-3,5.3-7.1,5.3-12.3H136v-28.3H196z"/>
	<path class="st0" d="M289.8,193.7h31.4v29.7H218.7v-29.7h32.9v-63.4c-12.5,5.5-22.3,8.8-29.3,9.8v-30c18.9-4.1,31.8-11.5,38.6-22.1
		h28.9V193.7z"/>
	<path class="st0" d="M355.7,223.4h-22V90.1h38.4v45.8c5.3-9.2,13.8-13.9,25.5-13.9c8.2,0,15.2,2.1,20.9,6.4
		c5.7,4.3,10,10.4,12.8,18.4c2.8,8,4.2,16.4,4.2,25.1c0,16-3.6,28.9-10.7,38.7c-7.2,9.8-17.8,14.7-32,14.7c-14,0-24.6-5.2-31.9-15.7
		C358.7,213.6,357,218.2,355.7,223.4z M372.1,186.4c0,9.8,3.8,14.6,11.3,14.6c4.1,0,7.2-1.8,9.4-5.3c2.2-3.5,3.3-10.9,3.3-21.9
		c0-12-1.2-19.6-3.7-22.7c-2.5-3.1-5.5-4.6-9.2-4.6c-2.9,0-5.4,1.1-7.7,3.3c-2.3,2.2-3.4,5.4-3.4,9.7V186.4z"/>
</g>
<g>
	<path class="st0" d="M120.9,367.4c-1.4,15.2-5,31-9.4,41.3c-3.2-2.2-10.1-5.3-13.9-6.7c4.6-9.4,6.9-23.7,8.2-37.1L120.9,367.4z
		 M139.5,354.4v66.2h-16.3v-65l-22.2,1.8L99,341l11.5-0.6c2.4-2.9,4.8-6.1,7.2-9.4c-4.5-7.2-11.8-15.8-18.2-22.4l9.3-12.8
		c1.1,1.1,2.4,2.2,3.7,3.4c4.5-8.8,9-19.5,11.5-27.7l16.5,5.8c-5.6,11-12.2,23.7-18.1,32.6c1.9,2.1,3.7,4.3,5.1,6.2
		c5.6-9,10.7-18.1,14.4-25.9l15.5,7.2c-8.8,13.4-19.7,29.3-29.8,42.1l13.9-0.8c-1.6-3.5-3.4-7-5.1-10.2l13.4-5.6
		c4.2,7.2,8.2,15.8,11,23.5v-15h87.8v31.7h-16.6v-17h-55.4v17h-15.8v-4.8l-11,5.1c-0.5-2.7-1.4-5.9-2.4-9.4L139.5,354.4z
		 M154.2,364.2c3.8,8.8,7.2,20.5,8.2,28.2l-14.1,4.6c-0.8-7.8-3.8-19.7-7.4-28.8L154.2,364.2z M180.1,353.9h17.1v12.8
		c0,16.5-4.3,39.5-34.1,54.1c-2.9-3.8-8.8-9.3-13-12.6c26.2-12.5,29.9-30.1,29.9-41.8V353.9z M194.5,299.2h-33.1v-15.5h33.1v-12.5
		h18.9v12.5h33.8v15.5h-33.8v9.3h29.1v15.4h-75.4v-15.4h27.4V299.2z M233.7,403c2.2,0,3-2.6,3.4-19.8c3.4,3,10.4,5.8,15.2,7
		c-1.6,22.9-5.9,28.8-16.8,28.8h-10.2c-13.6,0-16.5-5.1-16.5-21v-44.2h17.1v44.2c0,4.3,0.3,5,2.4,5H233.7z"/>
	<path class="st0" d="M280.9,367.4c-1.4,15.2-5,31-9.4,41.3c-3.2-2.2-10.1-5.3-13.9-6.7c4.6-9.4,6.9-23.7,8.2-37.1L280.9,367.4z
		 M400,395c3.7,1.9,8.5,3.7,12.3,4.6c-1.6,15.5-6.1,21-18.9,21h-18.7c-15.8,0-19.8-5.1-19.8-22.9V395H340v9.3h-16.6V357l-13.4,6.2
		c-0.5-2.7-1.4-5.9-2.4-9.3l-8,0.6v66.1h-16.3v-64.8l-22.9,1.6L259,341l11.5-0.6c2.4-2.9,4.8-6.1,7.2-9.4
		c-4.5-7.2-11.8-15.8-18.2-22.4l9.3-12.8c1.1,1.1,2.4,2.2,3.7,3.4c4.5-8.8,9-19.5,11.5-27.7l16.5,5.8c-5.6,11-12.2,23.7-18.1,32.6
		c1.9,2.1,3.7,4.3,5.1,6.2c5.6-9,10.7-18.1,14.4-25.9l15.5,7.2c-8.8,13.4-19.7,29.3-29.8,42.1l13.9-0.8c-1.6-3.5-3.4-7-5.1-10.2
		l13.4-5.6c5.6,9.6,10.9,21.8,13.4,30.7v-14.7h31.5v-6.4h-29.6v-54.2h77.3v54.2h-30.4v6.4h33.6V395H400z M314.2,364.2
		c3.8,8.8,7.2,20.5,8.2,28.2l-14.1,4.6c-0.8-7.8-3.8-19.7-7.4-28.8L314.2,364.2z M340,352.2v8.2h14.9v-8.2H340z M354.8,381.8v-8.5
		H340v8.5H354.8z M341.2,299h13.6v-8.2h-13.6V299z M354.8,319.4V311h-13.6v8.3H354.8z M385.9,290.9h-13.8v8.2h13.8V290.9z
		 M385.9,311h-13.8v8.3h13.8V311z M372.1,352.2v8.2h16.3v-8.2H372.1z M372.1,373.3v8.5h16.3v-8.5H372.1z M392,406.1
		c3.8,0,4.8-2.2,5.4-11h-25.3v2.9c0,7,0.6,8.2,5.4,8.2H392z"/>
</g>
<g>
</g>
<g>
</g>
<g>
</g>
<g>
</g>
<g>
</g>
<g>
</g>
<g>
</g>
<g>
</g>
<g>
</g>
<g>
</g>
<g>
</g>
<g>
</g>
<g>
</g>
<g>
</g>
<g>
</g>
</svg>
