<?xml version="1.0" encoding="utf-8"?>
<!-- Generator: Adobe Illustrator 28.0.0, SVG Export Plug-In . SVG Version: 6.00 Build 0)  -->
<svg version="1.1" id="レイヤー_1" xmlns="http://www.w3.org/2000/svg" xmlns:xlink="http://www.w3.org/1999/xlink" x="0px"
	 y="0px" viewBox="0 0 512 512" style="enable-background:new 0 0 512 512;" xml:space="preserve">
<style type="text/css">
	.st0{fill:#333333;}
	.st1{fill:#ACACAC;}
</style>
<g>
	<path class="st0" d="M512,460.8c0,28.2-23,51.2-51.2,51.2H51.2C23,512,0,489,0,460.8V51.2C0,23,23,0,51.2,0h409.6
		C489,0,512,23,512,51.2V460.8z"/>
</g>
<g>
	<path class="st1" d="M481,436c0,24.8-20.2,45-45,45H76c-24.8,0-45-20.2-45-45V76c0-24.8,20.2-45,45-45h360c24.8,0,45,20.2,45,45
		V436z"/>
</g>
<g>
	<path class="st0" d="M273.4,319.2c0-9.6-7.7-15-20.2-15c-9.9,0-17.8,4.3-25.6,12.6l-13.1-12.2c10.1-11.8,24.2-19.5,41.3-19.5
		c23.2,0,40.2,10.7,40.2,32c0,23.5-34.9,26.2-32.5,48.5h-20.6C239.5,340.5,273.4,334.7,273.4,319.2z M239.2,394.1
		c0-8.5,6.1-14.2,14.1-14.2c8.2,0,14.1,5.8,14.1,14.2c0,8.3-5.9,14.1-14.1,14.1S239.2,402.4,239.2,394.1z"/>
</g>
<g>
	<path class="st0" d="M178.9,172.8h-43.5v49.9H95.6V89.4h96.4v31.7h-56.5v21.7h43.5V172.8z"/>
	<path class="st0" d="M277.1,193h31.4v29.7H206V193h32.9v-63.4c-12.5,5.5-22.3,8.8-29.3,9.8v-30c18.9-4.1,31.8-11.5,38.6-22.1h28.9
		V193z"/>
	<path class="st0" d="M343,222.7h-22V89.4h38.4v45.8c5.3-9.2,13.8-13.9,25.5-13.9c8.2,0,15.2,2.1,20.9,6.4
		c5.7,4.3,10,10.4,12.8,18.4c2.8,8,4.2,16.4,4.2,25.1c0,16-3.6,28.9-10.7,38.7c-7.2,9.8-17.8,14.7-32,14.7c-14,0-24.6-5.2-31.9-15.7
		C346,212.9,344.3,217.5,343,222.7z M359.4,185.7c0,9.8,3.8,14.6,11.3,14.6c4.1,0,7.2-1.8,9.4-5.3c2.2-3.5,3.3-10.9,3.3-21.9
		c0-12-1.2-19.6-3.7-22.7c-2.5-3.1-5.5-4.6-9.2-4.6c-2.9,0-5.4,1.1-7.7,3.3c-2.3,2.2-3.4,5.4-3.4,9.7V185.7z"/>
</g>
</svg>
