<?xml version="1.0" encoding="utf-8"?>
<!-- Generator: Adobe Illustrator 28.0.0, SVG Export Plug-In . SVG Version: 6.00 Build 0)  -->
<svg version="1.1" id="レイヤー_1" xmlns="http://www.w3.org/2000/svg" xmlns:xlink="http://www.w3.org/1999/xlink" x="0px"
	 y="0px" viewBox="0 0 512 512" style="enable-background:new 0 0 512 512;" xml:space="preserve">
<style type="text/css">
	.st0{fill:#333333;}
	.st1{fill:#95F563;}
</style>
<g>
	<path class="st0" d="M512,460.8c0,28.2-23,51.2-51.2,51.2H51.2C23,512,0,489,0,460.8V51.2C0,23,23,0,51.2,0h409.6
		C489,0,512,23,512,51.2V460.8z"/>
</g>
<g>
	<path class="st1" d="M481,436c0,24.8-20.2,45-45,45H76c-24.8,0-45-20.2-45-45V76c0-24.8,20.2-45,45-45h360c24.8,0,45,20.2,45,45
		V436z"/>
</g>
<g>
	<path class="st0" d="M88.8,222.7V89.4h51.6c22.4,0,39.2,6.6,50.3,19.9s16.7,28.6,16.7,46.1c0,19.9-6,36.1-17.9,48.6
		c-11.9,12.5-27.5,18.7-46.5,18.7H88.8z M129.7,192h10.6c6.8,0,12.5-3.3,17.1-9.9c4.7-6.6,7-15.5,7-26.9c0-9.7-2.1-18.1-6.2-25.1
		c-4.1-7-10.1-10.5-17.9-10.5h-10.6V192z"/>
	<path class="st0" d="M315.5,122.3h-55.9l-1.6,18.8c7.2-5,15.2-7.5,24-7.5c11.6,0,21.7,4,30.4,11.9c8.7,7.9,13,18.6,13,31.8
		c0,14-5,25.4-15.1,34.2c-10.1,8.8-23,13.2-38.7,13.2c-13.7,0-25.5-3.6-35.5-10.8c-10-7.2-16.1-17.2-18.4-30.1l34.4-4.2
		c2.3,9.7,8.5,14.6,18.7,14.6c5.1,0,9.2-1.6,12.1-4.7c2.9-3.1,4.3-6.9,4.3-11.4c0-5.1-1.7-9-5-11.9c-3.3-2.9-7.3-4.3-11.8-4.3
		c-6.8,0-12,2.8-15.6,8.4l-30.6-4.3l5.9-76.6h89L315.5,122.3z"/>
	<path class="st0" d="M362.7,222.7h-22V89.4h38.4v45.8c5.3-9.2,13.8-13.9,25.5-13.9c8.2,0,15.2,2.1,20.9,6.4
		c5.7,4.3,10,10.4,12.8,18.4c2.8,8,4.2,16.4,4.2,25.1c0,16-3.6,28.9-10.7,38.7c-7.2,9.8-17.8,14.7-32,14.7c-14,0-24.6-5.2-31.9-15.7
		C365.7,212.9,364,217.5,362.7,222.7z M379.1,185.7c0,9.8,3.8,14.6,11.3,14.6c4.1,0,7.2-1.8,9.4-5.3c2.2-3.5,3.3-10.9,3.3-21.9
		c0-12-1.2-19.6-3.7-22.7c-2.5-3.1-5.5-4.6-9.2-4.6c-2.9,0-5.4,1.1-7.7,3.3c-2.3,2.2-3.4,5.4-3.4,9.7V185.7z"/>
</g>
<g>
	<g>
		<path class="st0" d="M248.8,367.7h-62.9v53h-19.8v-53h-62.2v-19.2h62.2V300h-53.9v-18.9h127.4V300h-53.6v48.5h62.9V367.7z
			 M139.4,305.1c5.3,10.2,11,23.7,12.8,32.6l-18.6,5.8c-1.6-8.6-6.6-22.6-11.7-33.3L139.4,305.1z M198.7,338.4
			c5.1-9.3,10.9-23.4,13.9-33.8l20.3,5.1c-5.8,12.3-12.2,25.3-17.6,33.4L198.7,338.4z"/>
		<path class="st0" d="M380.6,348.5c-4.6,15.2-11.2,27.2-19.8,37c15.5,6.4,29.9,13.1,40,19.4l-15.2,15.5
			c-9.8-6.6-24.5-14.1-40.6-21.1c-17,11.4-38.7,17.6-65.6,21.4c-1.8-4.5-7.2-13.1-10.9-17.3c22.4-2.2,40.6-6.1,55-13
			c-7-2.6-13.9-5.1-20.6-7.4l-3,5.3l-19.8-5.4c5.8-9.3,12.5-21.4,19.4-34.4H265v-17.9h43.5c4.2-8.2,8-16.3,11.2-23.7l20,4.2
			c-2.9,6.2-6.1,12.8-9.4,19.5h77v17.9H380.6z M287.7,323h-19.4v-37.6h57.1v-14.2h20.2v14.2h58.7V323H384v-20h-96.3V323z
			 M321.3,348.5c-3.4,6.7-6.9,13.3-10.2,19.5c9.8,2.7,20.2,6.2,30.7,10.1c7.8-7.7,13.4-17.3,16.8-29.6H321.3z"/>
	</g>
</g>
</svg>
