<?xml version="1.0" encoding="utf-8"?>
<!-- Generator: Adobe Illustrator 28.0.0, SVG Export Plug-In . SVG Version: 6.00 Build 0)  -->
<svg version="1.1" id="レイヤー_1" xmlns="http://www.w3.org/2000/svg" xmlns:xlink="http://www.w3.org/1999/xlink" x="0px"
	 y="0px" viewBox="0 0 512 512" style="enable-background:new 0 0 512 512;" xml:space="preserve">
<style type="text/css">
	.st0{fill:#333333;}
	.st1{fill:#F66466;}
</style>
<g>
	<path class="st0" d="M512,460.8c0,28.2-23,51.2-51.2,51.2H51.2C23,512,0,489,0,460.8V51.2C0,23,23,0,51.2,0h409.6
		C489,0,512,23,512,51.2V460.8z"/>
</g>
<g>
	<path class="st1" d="M481,436c0,24.8-20.2,45-45,45H76c-24.8,0-45-20.2-45-45V76c0-24.8,20.2-45,45-45h360c24.8,0,45,20.2,45,45
		V436z"/>
</g>
<g>
	<path class="st0" d="M210.2,90.1v133.3h-38v-95.3l-24.7,95.3h-26l-25.6-95.3v95.3H65.3V90.1h53.5l19.3,70.8l18.5-70.8H210.2z"/>
	<path class="st0" d="M329.4,90.1v25c-9.7,11.4-18,26.6-25,45.5c-7,18.9-10.4,37.1-10.4,54.4c0,1.7,0.1,4.5,0.4,8.4h-44
		c0-15.7,3.8-32.8,11.5-51.4c7.6-18.6,17.9-34.7,30.8-48.5h-61.8l2.8-33.4H329.4z"/>
	<path class="st0" d="M449.4,223.4h-37.1c-0.9-4.2-1.4-8.9-1.4-13.9c-7,10.6-17.7,15.9-31.9,15.9c-11.7,0-20.5-3-26.3-9
		c-5.8-6-8.7-12.9-8.7-20.6c0-10.5,4.8-19,14.3-25.4c9.5-6.5,26.4-10.4,50.7-11.7v-2.2c0-4.4-1-7.3-3-8.7c-2-1.4-4.9-2.1-8.7-2.1
		c-9,0-14,3.6-15,10.8l-35.5-3.3c5.1-20.8,22.4-31.2,51.9-31.2c8,0,15.4,0.8,22.1,2.4c6.7,1.6,12,4.1,15.9,7.5
		c3.9,3.4,6.5,7,7.9,10.7c1.3,3.8,2,11,2,21.8v39.6C446.4,211.6,447.4,218.1,449.4,223.4z M409,176.9c-16.6,1.8-24.9,7.1-24.9,15.9
		c0,6,3.3,9,9.9,9c4.2,0,7.7-1.2,10.6-3.7c2.9-2.5,4.4-7.9,4.4-16.4V176.9z"/>
</g>
<g>
	<path class="st0" d="M120.9,367.4c-1.4,15.2-5,31-9.4,41.3c-3.2-2.2-10.1-5.3-13.9-6.7c4.6-9.4,6.9-23.7,8.2-37.1L120.9,367.4z
		 M240,395c3.7,1.9,8.5,3.7,12.3,4.6c-1.6,15.5-6.1,21-18.9,21h-18.7c-15.8,0-19.8-5.1-19.8-22.9V395H180v9.3h-16.6V357l-13.4,6.2
		c-0.5-2.7-1.4-5.9-2.4-9.3l-8,0.6v66.1h-16.3v-64.8l-22.9,1.6L99,341l11.5-0.6c2.4-2.9,4.8-6.1,7.2-9.4
		c-4.5-7.2-11.8-15.8-18.2-22.4l9.3-12.8c1.1,1.1,2.4,2.2,3.7,3.4c4.5-8.8,9-19.5,11.5-27.7l16.5,5.8c-5.6,11-12.2,23.7-18.1,32.6
		c1.9,2.1,3.7,4.3,5.1,6.2c5.6-9,10.7-18.1,14.4-25.9l15.5,7.2c-8.8,13.4-19.7,29.3-29.8,42.1l13.9-0.8c-1.6-3.5-3.4-7-5.1-10.2
		l13.4-5.6c5.6,9.6,10.9,21.8,13.4,30.7v-14.7h31.5v-6.4h-29.6v-54.2h77.3v54.2h-30.4v6.4h33.6V395H240z M154.2,364.2
		c3.8,8.8,7.2,20.5,8.2,28.2l-14.1,4.6c-0.8-7.8-3.8-19.7-7.4-28.8L154.2,364.2z M180,352.2v8.2h14.9v-8.2H180z M194.8,381.8v-8.5
		H180v8.5H194.8z M181.2,299h13.6v-8.2h-13.6V299z M194.8,319.4V311h-13.6v8.3H194.8z M225.9,290.9h-13.8v8.2h13.8V290.9z
		 M225.9,311h-13.8v8.3h13.8V311z M212.1,352.2v8.2h16.3v-8.2H212.1z M212.1,373.3v8.5h16.3v-8.5H212.1z M232,406.1
		c3.8,0,4.8-2.2,5.4-11h-25.3v2.9c0,7,0.6,8.2,5.4,8.2H232z"/>
	<path class="st0" d="M385.1,315c-8.6,23.7-20.3,43-35,59c16.5,12.6,36.6,22.1,61,27.5c-4.6,4.6-10.7,13.6-13.6,19
		c-25.8-6.6-46.6-17.3-63.4-31.5c-17.4,13.9-38.1,24.3-62.4,32c-2.2-5-8.2-13.9-12-18.6c23.7-6.2,43.7-15.4,59.8-27.7
		c-14.4-16.5-25.4-36.5-34.1-59.8h-22.9v-18.6h62.7v-25.3h19.4v25.3h63.5V315H385.1z M306.5,315c6.9,17.3,16.3,32.6,28.6,45.6
		c11.5-12.5,20.6-27.5,27.5-45.6H306.5z"/>
</g>
<g>
</g>
<g>
</g>
<g>
</g>
<g>
</g>
<g>
</g>
<g>
</g>
<g>
</g>
<g>
</g>
<g>
</g>
<g>
</g>
<g>
</g>
<g>
</g>
<g>
</g>
<g>
</g>
<g>
</g>
</svg>
