<?xml version="1.0" encoding="utf-8"?>
<!-- Generator: Adobe Illustrator 28.0.0, SVG Export Plug-In . SVG Version: 6.00 Build 0)  -->
<svg version="1.1" id="レイヤー_1" xmlns="http://www.w3.org/2000/svg" xmlns:xlink="http://www.w3.org/1999/xlink" x="0px"
	 y="0px" viewBox="0 0 512 512" style="enable-background:new 0 0 512 512;" xml:space="preserve">
<style type="text/css">
	.st0{fill:#333333;}
	.st1{fill:#F69263;}
</style>
<g>
	<path class="st0" d="M512,460.8c0,28.2-23,51.2-51.2,51.2H51.2C23,512,0,489,0,460.8V51.2C0,23,23,0,51.2,0h409.6
		C489,0,512,23,512,51.2V460.8z"/>
</g>
<g>
	<path class="st1" d="M481,436c0,24.8-20.2,45-45,45H76c-24.8,0-45-20.2-45-45V76c0-24.8,20.2-45,45-45h360c24.8,0,45,20.2,45,45
		V436z"/>
</g>
<g>
	<path class="st0" d="M85.1,223.4V90.1h67.7c14.1,0,24.3,3.5,30.8,10.6c6.4,7.1,9.7,15.2,9.7,24.3c0,6.6-1.9,12.6-5.6,18
		c-3.7,5.4-9.3,9.1-16.7,11.1c17.3,4.2,25.9,14.5,25.9,31.1c0,9.9-3,18.7-9.1,26.5c-6.1,7.8-19.1,11.7-39,11.7H85.1z M122.8,141.2
		h18.9c4.8,0,8.1-1.2,10.1-3.6c2-2.4,2.9-5,2.9-7.7c0-7.4-4.6-11.1-13.7-11.1h-18.3V141.2z M122.8,193.7h19.9
		c4.9,0,8.6-1.2,10.9-3.7c2.3-2.4,3.5-5.2,3.5-8.3c0-3.1-1.1-5.9-3.4-8.4c-2.2-2.6-6.4-3.9-12.4-3.9h-18.6V193.7z"/>
	<path class="st0" d="M317,194.1h-18.8v29.3h-36.7v-29.3h-54.5v-29L257.2,88h41v77.1H317V194.1z M261.5,165.1v-39.8l-25.2,39.8
		H261.5z"/>
	<path class="st0" d="M429.6,223.4h-37.1c-0.9-4.2-1.4-8.9-1.4-13.9c-7,10.6-17.7,15.9-31.9,15.9c-11.7,0-20.5-3-26.3-9
		c-5.8-6-8.7-12.9-8.7-20.6c0-10.5,4.8-19,14.3-25.4c9.5-6.5,26.4-10.4,50.7-11.7v-2.2c0-4.4-1-7.3-3-8.7c-2-1.4-4.9-2.1-8.7-2.1
		c-9,0-14,3.6-15,10.8l-35.5-3.3c5.1-20.8,22.4-31.2,51.9-31.2c8,0,15.4,0.8,22.1,2.4c6.7,1.6,12,4.1,15.9,7.5
		c3.9,3.4,6.5,7,7.9,10.7c1.3,3.8,2,11,2,21.8v39.6C426.6,211.6,427.6,218.1,429.6,223.4z M389.2,176.9
		c-16.6,1.8-24.9,7.1-24.9,15.9c0,6,3.3,9,9.9,9c4.2,0,7.7-1.2,10.6-3.7c2.9-2.5,4.4-7.9,4.4-16.4V176.9z"/>
</g>
<g>
	<path class="st0" d="M167,394.7c-12.8,9.4-32.5,20-48.6,25.9c-3.7-4.2-10.7-10.2-15.5-14.1c16.3-5.6,36-16,45.9-24.3L167,394.7z
		 M229.2,278.4v103.2H122.7V278.4H229.2z M141.9,307.5h67V296h-67V307.5z M141.9,335.7h67V324h-67V335.7z M141.9,364.2h67V352h-67
		V364.2z M200,382.4c14.2,6.9,35.8,17.6,47,25.1l-17.4,13.8c-9.9-7.2-30.9-18.9-45.9-26.6L200,382.4z"/>
	<path class="st0" d="M409.6,340.3c-6.7,5.1-14.1,10.9-20.5,15.5c5.9,13.9,13.6,25.9,22.7,33.9c-4.6,3.4-10.9,10.4-14.1,15.5
		c-17.6-17.8-28.5-49-35.2-82.1c-4.3,3.7-9.3,7.4-14.4,10.7c29.9,25.9,30.1,67,16,79.2c-5.4,5.4-11,7.2-18.9,7.4
		c-3.4,0.2-8,0-12.5-0.3c-0.3-5-1.6-12.3-4.8-17.4c5.1,0.6,10.1,0.8,13.6,0.8c3.5,0,6.2-0.5,8.8-3.7c3.4-3,5.3-10.6,4.3-19.8
		c-14.2,12.3-33.8,24.8-49.9,32.3c-2.4-4.5-6.7-10.6-10.6-14.2c19.2-6.9,43.4-21.3,55.8-34.4c-0.8-1.9-1.8-3.7-2.9-5.6
		c-9.3,7.2-21.9,15-31.5,19.7c-2.1-2.9-5.1-6.7-8-9.6l1.6,6.2c-15.2,7.7-31.7,15.7-45.4,21.9l-5.3-18.7c5.1-1.9,11.4-4.3,18.1-7.2
		v-45.1h-14.9v-17.6h14.9v-34.2h17.8v34.2h13.3v17.6h-13.3v37.4l10.6-4.8l1.9,7.2c10.6-4,24-11.2,32.5-17.8c-1.6-1.8-3.2-3.4-5-5
		c-7.2,4-14.6,7.5-21.3,10.4c-2.2-3-7.7-9.6-11-12.5c12.8-4.3,26.7-10.7,37.9-17.9H318v-15h-10.9v-30.1h98.6v30.1H394v15h-15.7
		c1.4,6.2,3,12.5,5.1,18.6c5.3-4.8,10.9-10.4,14.6-14.9L409.6,340.3z M325.1,293.9v12.6h61.8v-12.6H325.1z"/>
</g>
<g>
</g>
<g>
</g>
<g>
</g>
<g>
</g>
<g>
</g>
<g>
</g>
<g>
</g>
<g>
</g>
<g>
</g>
<g>
</g>
<g>
</g>
<g>
</g>
<g>
</g>
<g>
</g>
<g>
</g>
</svg>
