<?xml version="1.0" encoding="utf-8"?>
<!-- Generator: Adobe Illustrator 28.0.0, SVG Export Plug-In . SVG Version: 6.00 Build 0)  -->
<svg version="1.1" id="レイヤー_1" xmlns="http://www.w3.org/2000/svg" xmlns:xlink="http://www.w3.org/1999/xlink" x="0px"
	 y="0px" viewBox="0 0 512 512" style="enable-background:new 0 0 512 512;" xml:space="preserve">
<style type="text/css">
	.st0{fill:#333333;}
	.st1{fill:#95F563;}
</style>
<g>
	<path class="st0" d="M512,460.8c0,28.2-23,51.2-51.2,51.2H51.2C23,512,0,489,0,460.8V51.2C0,23,23,0,51.2,0h409.6
		C489,0,512,23,512,51.2V460.8z"/>
</g>
<g>
	<path class="st1" d="M481,436c0,24.8-20.2,45-45,45H76c-24.8,0-45-20.2-45-45V76c0-24.8,20.2-45,45-45h360c24.8,0,45,20.2,45,45
		V436z"/>
</g>
<g>
	<path class="st0" d="M159.1,223.4l-7.5-26.3h-35.7l-8,26.3H74.6l41.2-133.3H159l41.8,133.3H159.1z M122.8,168h21.6l-10.8-38.7
		L122.8,168z"/>
	<path class="st0" d="M304,123h-55.9l-1.6,18.8c7.2-5,15.2-7.5,24-7.5c11.6,0,21.7,4,30.4,11.9c8.7,7.9,13,18.6,13,31.8
		c0,14-5,25.4-15.1,34.2c-10.1,8.8-23,13.2-38.7,13.2c-13.7,0-25.5-3.6-35.5-10.8c-10-7.2-16.1-17.2-18.4-30.1l34.4-4.2
		c2.3,9.7,8.5,14.6,18.7,14.6c5.1,0,9.2-1.6,12.1-4.7c2.9-3.1,4.3-6.9,4.3-11.4c0-5.1-1.7-9-5-11.9c-3.3-2.9-7.3-4.3-11.8-4.3
		c-6.8,0-12,2.8-15.6,8.4l-30.6-4.3l5.9-76.6h89L304,123z"/>
	<path class="st0" d="M429.1,223.4H392c-0.9-4.2-1.4-8.9-1.4-13.9c-7,10.6-17.7,15.9-31.9,15.9c-11.7,0-20.5-3-26.3-9
		c-5.8-6-8.7-12.9-8.7-20.6c0-10.5,4.8-19,14.3-25.4c9.5-6.5,26.4-10.4,50.7-11.7v-2.2c0-4.4-1-7.3-3-8.7c-2-1.4-4.9-2.1-8.7-2.1
		c-9,0-14,3.6-15,10.8l-35.5-3.3c5.1-20.8,22.4-31.2,51.9-31.2c8,0,15.4,0.8,22.1,2.4c6.7,1.6,12,4.1,15.9,7.5
		c3.9,3.4,6.5,7,7.9,10.7c1.3,3.8,2,11,2,21.8v39.6C426.1,211.6,427.1,218.1,429.1,223.4z M388.7,176.9
		c-16.6,1.8-24.9,7.1-24.9,15.9c0,6,3.3,9,9.9,9c4.2,0,7.7-1.2,10.6-3.7c2.9-2.5,4.4-7.9,4.4-16.4V176.9z"/>
</g>
<g>
	<path class="st0" d="M185.4,317v28.6h46.2V420h-20.8v-6.9h-72.3v7.5h-20v-75h46.1V317h-62.2v-18.6h62.2v-27.2h20.8v27.2h62.4V317
		H185.4z M210.8,363.7h-72.3V395h72.3V363.7z"/>
	<path class="st0" d="M314.4,375.4c-16.8,7.4-34.9,15.2-49.8,21.4l-5.6-19.2c5.4-1.8,12.3-4.3,19.7-7v-43.4h-16.2v-18.1h16.2v-35.8
		h17.4v35.8h13v18.1h-13v36.6c4.8-1.9,9.8-4,14.6-5.9L314.4,375.4z M382.4,394.2c10.4,5.6,21.6,12.2,28.5,16.8l-16.8,9.6
		c-6.7-5.4-19.2-13.6-29.9-19.7l8.8-6.7h-30.7l12.3,4.8c-10.2,8.6-26.4,17.1-39.2,22.1c-3.5-3.7-10.2-10.4-14.2-13.4
		c11.5-3.2,24-8.2,32.6-13.4h-13.9v-64.3h80.3v64.3H382.4z M328.8,320.5h-18.2V307h18.2v-8.6h17v8.6h27.5v-8.6h17.3v8.6h19.4v13.4
		h-19.4v7h-17.3v-7h-27.5v7h-17V320.5z M350.7,294.7h-35.2v-13.1h35.2v-10.4h17.4v10.4h35.2v13.1h-35.2v8.3h-17.4V294.7z
		 M337.9,347.8h43.4v-6.1h-43.4V347.8z M337.9,365.1h43.4V359h-43.4V365.1z M337.9,382.2h43.4v-6.1h-43.4V382.2z"/>
</g>
<g>
</g>
<g>
</g>
<g>
</g>
<g>
</g>
<g>
</g>
<g>
</g>
<g>
</g>
<g>
</g>
<g>
</g>
<g>
</g>
<g>
</g>
<g>
</g>
<g>
</g>
<g>
</g>
<g>
</g>
</svg>
