<?xml version="1.0" encoding="utf-8"?>
<!-- Generator: Adobe Illustrator 28.0.0, SVG Export Plug-In . SVG Version: 6.00 Build 0)  -->
<svg version="1.1" id="レイヤー_1" xmlns="http://www.w3.org/2000/svg" xmlns:xlink="http://www.w3.org/1999/xlink" x="0px"
	 y="0px" viewBox="0 0 512 512" style="enable-background:new 0 0 512 512;" xml:space="preserve">
<style type="text/css">
	.st0{fill:#333333;}
	.st1{fill:#95F563;}
</style>
<g>
	<path class="st0" d="M512,460.8c0,28.2-23,51.2-51.2,51.2H51.2C23,512,0,489,0,460.8V51.2C0,23,23,0,51.2,0h409.6
		C489,0,512,23,512,51.2V460.8z"/>
</g>
<g>
	<path class="st1" d="M481,436c0,24.8-20.2,45-45,45H76c-24.8,0-45-20.2-45-45V76c0-24.8,20.2-45,45-45h360c24.8,0,45,20.2,45,45
		V436z"/>
</g>
<g>
	<path class="st0" d="M110.6,223.4V90.1h51.6c22.4,0,39.2,6.6,50.3,19.9s16.7,28.6,16.7,46.1c0,19.9-6,36.1-17.9,48.6
		c-11.9,12.5-27.5,18.7-46.5,18.7H110.6z M151.5,192.7h10.6c6.8,0,12.5-3.3,17.1-9.9c4.7-6.6,7-15.5,7-26.9c0-9.7-2.1-18.1-6.2-25.1
		c-4.1-7-10.1-10.5-17.9-10.5h-10.6V192.7z"/>
	<path class="st0" d="M349.9,194.1h-18.8v29.3h-36.7v-29.3h-54.5v-29L290.1,88h41v77.1h18.8V194.1z M294.4,165.1v-39.8l-25.2,39.8
		H294.4z"/>
	<path class="st0" d="M400.8,90.1v133.3h-38.4V90.1H400.8z"/>
</g>
<g>
	<path class="st0" d="M185.4,317v28.6h46.2V420h-20.8v-6.9h-72.3v7.5h-20v-75h46.1V317h-62.2v-18.6h62.2v-27.2h20.8v27.2h62.4V317
		H185.4z M210.8,363.7h-72.3V395h72.3V363.7z"/>
	<path class="st0" d="M314.4,375.4c-16.8,7.4-34.9,15.2-49.8,21.4l-5.6-19.2c5.4-1.8,12.3-4.3,19.7-7v-43.4h-16.2v-18.1h16.2v-35.8
		h17.4v35.8h13v18.1h-13v36.6c4.8-1.9,9.8-4,14.6-5.9L314.4,375.4z M382.4,394.2c10.4,5.6,21.6,12.2,28.5,16.8l-16.8,9.6
		c-6.7-5.4-19.2-13.6-29.9-19.7l8.8-6.7h-30.7l12.3,4.8c-10.2,8.6-26.4,17.1-39.2,22.1c-3.5-3.7-10.2-10.4-14.2-13.4
		c11.5-3.2,24-8.2,32.6-13.4h-13.9v-64.3h80.3v64.3H382.4z M328.8,320.5h-18.2V307h18.2v-8.6h17v8.6h27.5v-8.6h17.3v8.6h19.4v13.4
		h-19.4v7h-17.3v-7h-27.5v7h-17V320.5z M350.7,294.7h-35.2v-13.1h35.2v-10.4h17.4v10.4h35.2v13.1h-35.2v8.3h-17.4V294.7z
		 M337.9,347.8h43.4v-6.1h-43.4V347.8z M337.9,365.1h43.4V359h-43.4V365.1z M337.9,382.2h43.4v-6.1h-43.4V382.2z"/>
</g>
<g>
</g>
<g>
</g>
<g>
</g>
<g>
</g>
<g>
</g>
<g>
</g>
<g>
</g>
<g>
</g>
<g>
</g>
<g>
</g>
<g>
</g>
<g>
</g>
<g>
</g>
<g>
</g>
<g>
</g>
</svg>
