<?xml version="1.0" encoding="utf-8"?>
<!-- Generator: Adobe Illustrator 28.0.0, SVG Export Plug-In . SVG Version: 6.00 Build 0)  -->
<svg version="1.1" id="レイヤー_1" xmlns="http://www.w3.org/2000/svg" xmlns:xlink="http://www.w3.org/1999/xlink" x="0px"
	 y="0px" viewBox="0 0 512 512" style="enable-background:new 0 0 512 512;" xml:space="preserve">
<style type="text/css">
	.st0{fill:#333333;}
	.st1{fill:#AB63F6;}
</style>
<g>
	<path class="st0" d="M512,460.8c0,28.2-23,51.2-51.2,51.2H51.2C23,512,0,489,0,460.8V51.2C0,23,23,0,51.2,0h409.6
		C489,0,512,23,512,51.2V460.8z"/>
</g>
<g>
	<path class="st1" d="M481,436c0,24.8-20.2,45-45,45H76c-24.8,0-45-20.2-45-45V76c0-24.8,20.2-45,45-45h360c24.8,0,45,20.2,45,45
		V436z"/>
</g>
<path class="st0" d="M257.6,90.1L215.9,167v56.4h-39.7V167l-44.9-76.9h44.8l23.4,43.9l22.4-43.9H257.6z"/>
<path class="st0" d="M337.3,193.7h31.4v29.7H266.2v-29.7h32.9v-63.4c-12.5,5.5-22.3,8.8-29.3,9.8v-30c19-4.1,31.9-11.4,38.6-22.1
	h28.9V193.7z"/>
<g>
	<path class="st0" d="M114.4,408.4c-15,0-27.2-5-36.7-14.9s-14.2-23.3-14.2-39.9c0-15.9,4.5-29.1,13.6-39.5
		c9-10.4,21.6-15.6,37.6-15.6c14.8,0,26.9,4.9,36.3,14.7c9.3,9.8,14,22.9,14,39.2c0,16.9-4.7,30.5-14.1,40.7
		C141.5,403.3,129.3,408.4,114.4,408.4z M114.3,384.1c5.5,0,9.5-2.4,11.9-7.2c2.4-4.8,3.6-13.6,3.6-26.4c0-18.5-5-27.8-14.9-27.8
		c-10.7,0-16.1,10.6-16.1,31.7C98.8,374.2,103.9,384.1,114.3,384.1z"/>
	<path class="st0" d="M259.9,327.3l-24,27.3l26.7,52.2h-32.2L215.5,375l-8.5,9.9v21.9h-29.2V300.1H207v43c0,1.2-0.1,6-0.2,14.4
		c1.9-2.7,3.8-5.1,5.7-7.3l19.9-23L259.9,327.3L259.9,327.3z"/>
	<path class="st0" d="M347.6,406.7h-31.2v-47.8c0-4.4-0.5-7.4-1.4-9s-2.8-2.5-5.6-2.5c-2.1,0-4,0.6-5.6,1.9s-2.5,2.6-2.8,3.9
		c-0.3,1.4-0.4,4.2-0.4,8.5v44.9h-31.2V300.1h31.2v36.6c5.6-7.3,13-11,22-11c4.6,0,8.6,0.8,12.1,2.4s6.1,3.6,8,6.1s3.1,4.9,3.8,7.3
		c0.7,2.3,1,6.9,1,13.6v51.6H347.6z"/>
	<path class="st0" d="M402.9,408.4c-13.2,0-23.6-4.1-31.4-12.3c-7.8-8.2-11.6-17.8-11.6-28.9c0-11.9,4-21.8,12.1-29.7
		c8.1-7.9,18.6-11.9,31.6-11.9c13.1,0,23.6,3.9,31.5,11.7c7.9,7.8,11.9,17.6,11.9,29.4c0,11.9-4,21.8-12.1,29.7
		C427,404.4,416.3,408.4,402.9,408.4z M403.4,389.5c4.8,0,7.8-2.5,8.9-7.5s1.6-10.3,1.6-15.7c0-7.4-0.8-12.8-2.3-16.1
		c-1.5-3.3-4.2-4.9-8.1-4.9c-3.6,0-6.2,1.7-7.9,5.1c-1.7,3.4-2.5,9-2.5,16.7c0,9.1,0.9,15.1,2.6,18.1
		C397.4,388,400,389.5,403.4,389.5z"/>
</g>
</svg>
