<?xml version="1.0" encoding="utf-8"?>
<!-- Generator: Adobe Illustrator 28.0.0, SVG Export Plug-In . SVG Version: 6.00 Build 0)  -->
<svg version="1.1" id="レイヤー_1" xmlns="http://www.w3.org/2000/svg" xmlns:xlink="http://www.w3.org/1999/xlink" x="0px"
	 y="0px" viewBox="0 0 512 512" style="enable-background:new 0 0 512 512;" xml:space="preserve">
<style type="text/css">
	.st0{fill:#333333;}
	.st1{fill:#F5DB63;}
</style>
<g>
	<path class="st0" d="M512,460.8c0,28.2-23,51.2-51.2,51.2H51.2C23,512,0,489,0,460.8V51.2C0,23,23,0,51.2,0h409.6
		C489,0,512,23,512,51.2V460.8z"/>
</g>
<g>
	<path class="st1" d="M481,436c0,24.8-20.2,45-45,45H76c-24.8,0-45-20.2-45-45V76c0-24.8,20.2-45,45-45h360c24.8,0,45,20.2,45,45
		V436z"/>
</g>
<g>
	<path class="st0" d="M91.4,223.4V90.1h67.7c14.1,0,24.3,3.5,30.8,10.6c6.4,7.1,9.7,15.2,9.7,24.3c0,6.6-1.9,12.6-5.6,18
		c-3.7,5.4-9.3,9.1-16.7,11.1c17.3,4.2,25.9,14.5,25.9,31.1c0,9.9-3,18.7-9.1,26.5c-6.1,7.8-19.1,11.7-39,11.7H91.4z M129.1,141.2
		h18.9c4.8,0,8.1-1.2,10.1-3.6c2-2.4,2.9-5,2.9-7.7c0-7.4-4.6-11.1-13.7-11.1h-18.3V141.2z M129.1,193.7H149c4.9,0,8.6-1.2,10.9-3.7
		c2.3-2.4,3.5-5.2,3.5-8.3c0-3.1-1.1-5.9-3.4-8.4c-2.2-2.6-6.4-3.9-12.4-3.9h-18.6V193.7z"/>
	<path class="st0" d="M323.4,194.1h-18.8v29.3h-36.7v-29.3h-54.5v-29L263.6,88h41v77.1h18.8V194.1z M267.9,165.1v-39.8l-25.2,39.8
		H267.9z"/>
	<path class="st0" d="M395.7,183.4l33.2,2.8c-1.6,11.6-6.4,21-14.6,28.3c-8.2,7.3-19,10.9-32.6,10.9c-15.2,0-27.5-4.8-37-14.3
		c-9.5-9.5-14.2-21.8-14.2-36.7c0-15.2,4.7-27.8,14.1-37.6c9.4-9.9,21.6-14.8,36.7-14.8c13.3,0,24.2,3.7,32.6,11.2
		c8.4,7.5,13.2,16.9,14.5,28.3l-34.1,2.8c-1.4-10.5-5.4-15.7-11.9-15.7c-4.2,0-7.2,1.9-9.1,5.7c-1.9,3.8-2.9,10.4-2.9,19.9
		c0,8.1,1,14.2,2.9,18.1c1.9,3.9,5.3,5.9,10,5.9C390.3,198.1,394.4,193.2,395.7,183.4z"/>
</g>
<g>
	<path class="st0" d="M214.5,315v84.5c0,9.3-1.9,14.6-7.8,17.4c-5.9,3-14.1,3.5-25.9,3.5c-0.8-5.3-3.8-13.4-6.6-18.6
		c7.8,0.3,15.8,0.3,18.2,0.2c2.4,0,3.4-0.6,3.4-2.9V315h-16c-3.8,8-8.2,15.2-12.5,21c-2.9-2.1-8.5-5.8-13.1-8.5v3.5h-28.5
		c-0.6,5.3-1.4,10.6-2.1,15.7h33.1l-0.5,7.4c-0.8,12-1.6,21.8-2.6,29.6c8.5-12,14.2-31,17.3-49.6l18.2,3.2
		c-4.2,21.8-11.2,43.4-20.2,57.1c-3.4-2.9-10.9-7.7-15.4-9.9c-1.9,16.5-4,25-7.5,28.8c-3.5,4.2-7,5.8-12.2,6.4
		c-4.3,0.6-11.4,0.6-18.7,0.3c-0.3-5.6-2.4-13.3-5.4-18.4c6.4,0.6,12.2,0.8,15.2,0.8c2.4,0,4-0.3,5.6-2.1c2.7-2.7,4.8-12.8,6.4-36.5
		h-16.2c-0.5,2.4-0.8,4.6-1.3,6.7l-18.6-3c2.9-14.4,6.4-36.5,8-54.2h27V295h-29.8v-17.8h47.8v42.1c9-12.8,16-30.7,20.3-48.2
		l20.2,4.2c-1.9,7-4.2,14.2-6.9,21.1h60.3V315H214.5z M235.2,333.8c6.7,17.3,13.6,39.2,16.8,54.1l-17.6,5.8
		c-2.4-14.7-9.4-37.8-15.7-55L235.2,333.8z"/>
	<path class="st0" d="M407.3,397.4v18.7H263.5v-18.7h61.8v-32.2h-43.4v-18.4h43.4v-28.2h-33.1c-4.6,8.8-9.6,17-14.9,23.2
		c-3.8-3-12.3-8.8-17.1-11.4c12.5-13.4,22.9-35.5,28.3-57.3l19.7,4.3c-2.2,7.7-4.8,15.2-7.5,22.6h24.6v-28.8h20v28.8h53.9v18.6
		h-53.9v28.2h47.8v18.4h-47.8v32.2H407.3z"/>
</g>
<g>
</g>
<g>
</g>
<g>
</g>
<g>
</g>
<g>
</g>
<g>
</g>
<g>
</g>
<g>
</g>
<g>
</g>
<g>
</g>
<g>
</g>
<g>
</g>
<g>
</g>
<g>
</g>
<g>
</g>
</svg>
