<?xml version="1.0" encoding="utf-8"?>
<!-- Generator: Adobe Illustrator 28.0.0, SVG Export Plug-In . SVG Version: 6.00 Build 0)  -->
<svg version="1.1" id="レイヤー_1" xmlns="http://www.w3.org/2000/svg" xmlns:xlink="http://www.w3.org/1999/xlink" x="0px"
	 y="0px" viewBox="0 0 512 512" style="enable-background:new 0 0 512 512;" xml:space="preserve">
<style type="text/css">
	.st0{fill:#333333;}
	.st1{fill:#F5DB63;}
</style>
<g>
	<path class="st0" d="M512,460.8c0,28.2-23,51.2-51.2,51.2H51.2C23,512,0,489,0,460.8V51.2C0,23,23,0,51.2,0h409.6
		C489,0,512,23,512,51.2V460.8z"/>
</g>
<g>
	<path class="st1" d="M481,436c0,24.8-20.2,45-45,45H76c-24.8,0-45-20.2-45-45V76c0-24.8,20.2-45,45-45h360c24.8,0,45,20.2,45,45
		V436z"/>
</g>
<g>
	<path class="st0" d="M81.3,223.4V90.1h51.6c22.4,0,39.2,6.6,50.3,19.9s16.7,28.6,16.7,46.1c0,19.9-6,36.1-17.9,48.6
		c-11.9,12.5-27.5,18.7-46.5,18.7H81.3z M122.2,192.7h10.6c6.8,0,12.5-3.3,17.1-9.9c4.7-6.6,7-15.5,7-26.9c0-9.7-2.1-18.1-6.2-25.1
		c-4.1-7-10.1-10.5-17.9-10.5h-10.6V192.7z"/>
	<path class="st0" d="M320.6,194.1h-18.8v29.3h-36.7v-29.3h-54.5v-29L260.8,88h41v77.1h18.8V194.1z M265.1,165.1v-39.8l-25.2,39.8
		H265.1z"/>
	<path class="st0" d="M430,223.4h-36.5v-13.2c-5.4,10.2-14.3,15.2-26.8,15.2c-11.5,0-20.8-4.5-27.9-13.4c-7.1-9-10.7-22-10.7-39
		c0-16,3.6-28.6,10.7-38c7.2-9.4,16.6-14.1,28.4-14.1c9.8,0,17.9,3.7,24.3,11.2V90.1H430V223.4z M391.7,159.5
		c0-8.9-3.7-13.4-11-13.4c-5.1,0-8.5,2.8-10.1,8.5c-1.6,5.7-2.4,12.6-2.4,20.8c0,16.1,4.1,24.1,12.3,24.1c3.1,0,5.8-1.3,8-3.8
		c2.2-2.5,3.3-6.4,3.3-11.6V159.5z"/>
</g>
<g>
	<path class="st0" d="M214.5,315v84.5c0,9.3-1.9,14.6-7.8,17.4c-5.9,3-14.1,3.5-25.9,3.5c-0.8-5.3-3.8-13.4-6.6-18.6
		c7.8,0.3,15.8,0.3,18.2,0.2c2.4,0,3.4-0.6,3.4-2.9V315h-16c-3.8,8-8.2,15.2-12.5,21c-2.9-2.1-8.5-5.8-13.1-8.5v3.5h-28.5
		c-0.6,5.3-1.4,10.6-2.1,15.7h33.1l-0.5,7.4c-0.8,12-1.6,21.8-2.6,29.6c8.5-12,14.2-31,17.3-49.6l18.2,3.2
		c-4.2,21.8-11.2,43.4-20.2,57.1c-3.4-2.9-10.9-7.7-15.4-9.9c-1.9,16.5-4,25-7.5,28.8c-3.5,4.2-7,5.8-12.2,6.4
		c-4.3,0.6-11.4,0.6-18.7,0.3c-0.3-5.6-2.4-13.3-5.4-18.4c6.4,0.6,12.2,0.8,15.2,0.8c2.4,0,4-0.3,5.6-2.1c2.7-2.7,4.8-12.8,6.4-36.5
		h-16.2c-0.5,2.4-0.8,4.6-1.3,6.7l-18.6-3c2.9-14.4,6.4-36.5,8-54.2h27V295h-29.8v-17.8h47.8v42.1c9-12.8,16-30.7,20.3-48.2
		l20.2,4.2c-1.9,7-4.2,14.2-6.9,21.1h60.3V315H214.5z M235.2,333.8c6.7,17.3,13.6,39.2,16.8,54.1l-17.6,5.8
		c-2.4-14.7-9.4-37.8-15.7-55L235.2,333.8z"/>
	<path class="st0" d="M407.3,397.4v18.7H263.5v-18.7h61.8v-32.2h-43.4v-18.4h43.4v-28.2h-33.1c-4.6,8.8-9.6,17-14.9,23.2
		c-3.8-3-12.3-8.8-17.1-11.4c12.5-13.4,22.9-35.5,28.3-57.3l19.7,4.3c-2.2,7.7-4.8,15.2-7.5,22.6h24.6v-28.8h20v28.8h53.9v18.6
		h-53.9v28.2h47.8v18.4h-47.8v32.2H407.3z"/>
</g>
<g>
</g>
<g>
</g>
<g>
</g>
<g>
</g>
<g>
</g>
<g>
</g>
<g>
</g>
<g>
</g>
<g>
</g>
<g>
</g>
<g>
</g>
<g>
</g>
<g>
</g>
<g>
</g>
<g>
</g>
</svg>
