<?xml version="1.0" encoding="utf-8"?>
<!-- Generator: Adobe Illustrator 28.0.0, SVG Export Plug-In . SVG Version: 6.00 Build 0)  -->
<svg version="1.1" id="レイヤー_1" xmlns="http://www.w3.org/2000/svg" xmlns:xlink="http://www.w3.org/1999/xlink" x="0px"
	 y="0px" viewBox="0 0 512 512" style="enable-background:new 0 0 512 512;" xml:space="preserve">
<style type="text/css">
	.st0{fill:#333333;}
	.st1{fill:#F5DB63;}
</style>
<g>
	<path class="st0" d="M512,460.8c0,28.2-23,51.2-51.2,51.2H51.2C23,512,0,489,0,460.8V51.2C0,23,23,0,51.2,0h409.6
		C489,0,512,23,512,51.2V460.8z"/>
</g>
<g>
	<path class="st1" d="M481,436c0,24.8-20.2,45-45,45H76c-24.8,0-45-20.2-45-45V76c0-24.8,20.2-45,45-45h360c24.8,0,45,20.2,45,45
		V436z"/>
</g>
<g>
	<path class="st0" d="M81.4,223.4V90.1H133c22.4,0,39.2,6.6,50.3,19.9s16.7,28.6,16.7,46.1c0,19.9-6,36.1-17.9,48.6
		c-11.9,12.5-27.5,18.7-46.5,18.7H81.4z M122.3,192.7H133c6.8,0,12.5-3.3,17.1-9.9c4.7-6.6,7-15.5,7-26.9c0-9.7-2.1-18.1-6.2-25.1
		c-4.1-7-10.1-10.5-17.9-10.5h-10.6V192.7z"/>
	<path class="st0" d="M320.7,194.1h-18.8v29.3h-36.7v-29.3h-54.5v-29L260.9,88h41v77.1h18.8V194.1z M265.2,165.1v-39.8L240,165.1
		H265.2z"/>
	<path class="st0" d="M398.8,187.8l36.3,2.4c-2.1,9.8-7.6,18.1-16.5,25c-8.8,6.9-20.8,10.3-35.8,10.3c-16.7,0-30.1-4.8-40-14.5
		s-14.9-21.7-14.9-36c0-14.8,4.9-27.4,14.7-37.6c9.8-10.2,22.9-15.3,39.4-15.3c15.9,0,28.7,4.8,38.5,14.5
		c9.8,9.6,14.7,22.8,14.7,39.4c0,1.4,0,3.3-0.1,5.7h-66.5c0.1,6.2,1.2,10.9,3.3,13.9c2.1,3,6.1,4.5,11.9,4.5
		C392.3,200,397.3,195.9,398.8,187.8z M396.2,162c-0.1-6.7-1.4-11.2-4-13.5c-2.6-2.3-5.9-3.5-9.8-3.5c-9.2,0-13.8,5.7-13.8,17H396.2
		z"/>
</g>
<g>
	<path class="st0" d="M214.5,315v84.5c0,9.3-1.9,14.6-7.8,17.4c-5.9,3-14.1,3.5-25.9,3.5c-0.8-5.3-3.8-13.4-6.6-18.6
		c7.8,0.3,15.8,0.3,18.2,0.2c2.4,0,3.4-0.6,3.4-2.9V315h-16c-3.8,8-8.2,15.2-12.5,21c-2.9-2.1-8.5-5.8-13.1-8.5v3.5h-28.5
		c-0.6,5.3-1.4,10.6-2.1,15.7h33.1l-0.5,7.4c-0.8,12-1.6,21.8-2.6,29.6c8.5-12,14.2-31,17.3-49.6l18.2,3.2
		c-4.2,21.8-11.2,43.4-20.2,57.1c-3.4-2.9-10.9-7.7-15.4-9.9c-1.9,16.5-4,25-7.5,28.8c-3.5,4.2-7,5.8-12.2,6.4
		c-4.3,0.6-11.4,0.6-18.7,0.3c-0.3-5.6-2.4-13.3-5.4-18.4c6.4,0.6,12.2,0.8,15.2,0.8c2.4,0,4-0.3,5.6-2.1c2.7-2.7,4.8-12.8,6.4-36.5
		h-16.2c-0.5,2.4-0.8,4.6-1.3,6.7l-18.6-3c2.9-14.4,6.4-36.5,8-54.2h27V295h-29.8v-17.8h47.8v42.1c9-12.8,16-30.7,20.3-48.2
		l20.2,4.2c-1.9,7-4.2,14.2-6.9,21.1h60.3V315H214.5z M235.2,333.8c6.7,17.3,13.6,39.2,16.8,54.1l-17.6,5.8
		c-2.4-14.7-9.4-37.8-15.7-55L235.2,333.8z"/>
	<path class="st0" d="M407.3,397.4v18.7H263.5v-18.7h61.8v-32.2h-43.4v-18.4h43.4v-28.2h-33.1c-4.6,8.8-9.6,17-14.9,23.2
		c-3.8-3-12.3-8.8-17.1-11.4c12.5-13.4,22.9-35.5,28.3-57.3l19.7,4.3c-2.2,7.7-4.8,15.2-7.5,22.6h24.6v-28.8h20v28.8h53.9v18.6
		h-53.9v28.2h47.8v18.4h-47.8v32.2H407.3z"/>
</g>
<g>
</g>
<g>
</g>
<g>
</g>
<g>
</g>
<g>
</g>
<g>
</g>
<g>
</g>
<g>
</g>
<g>
</g>
<g>
</g>
<g>
</g>
<g>
</g>
<g>
</g>
<g>
</g>
<g>
</g>
</svg>
