<?xml version="1.0" encoding="utf-8"?>
<!-- Generator: Adobe Illustrator 28.0.0, SVG Export Plug-In . SVG Version: 6.00 Build 0)  -->
<svg version="1.1" id="レイヤー_1" xmlns="http://www.w3.org/2000/svg" xmlns:xlink="http://www.w3.org/1999/xlink" x="0px"
	 y="0px" viewBox="0 0 512 512" style="enable-background:new 0 0 512 512;" xml:space="preserve">
<style type="text/css">
	.st0{fill:#333333;}
	.st1{fill:#F5DB63;}
</style>
<g>
	<path class="st0" d="M512,460.8c0,28.2-23,51.2-51.2,51.2H51.2C23,512,0,489,0,460.8V51.2C0,23,23,0,51.2,0h409.6
		C489,0,512,23,512,51.2V460.8z"/>
</g>
<g>
	<path class="st1" d="M481,436c0,24.8-20.2,45-45,45H76c-24.8,0-45-20.2-45-45V76c0-24.8,20.2-45,45-45h360c24.8,0,45,20.2,45,45
		V436z"/>
</g>
<g>
	<path class="st0" d="M159.8,172.5l37.4,2.2c-1.8,16.3-7.8,28.9-18.1,37.6c-10.3,8.7-23,13.1-38,13.1c-18.1,0-32.7-6-43.8-18
		c-11.1-12-16.7-28.5-16.7-49.6c0-20.9,5.3-37.8,15.8-50.6C106.9,94.5,121.6,88,140.5,88c17.6,0,31.2,4.9,40.7,14.6
		s14.8,22.7,16.1,38.9l-38.2,2.1c0-8.9-1.7-15.4-5.1-19.3c-3.4-4-7.4-6-12.1-6c-12.9,0-19.3,13-19.3,38.9c0,14.5,1.7,24.4,5,29.6
		c3.4,5.2,8.1,7.8,14.1,7.8C152.5,194.6,158.5,187.2,159.8,172.5z"/>
	<path class="st0" d="M284.3,193.7h31.4v29.7H213.3v-29.7h32.9v-63.4c-12.5,5.5-22.3,8.8-29.3,9.8v-30c18.9-4.1,31.8-11.5,38.6-22.1
		h28.9V193.7z"/>
	<path class="st0" d="M428.2,223.4h-37.1c-0.9-4.2-1.4-8.9-1.4-13.9c-7,10.6-17.7,15.9-31.9,15.9c-11.7,0-20.5-3-26.3-9
		c-5.8-6-8.7-12.9-8.7-20.6c0-10.5,4.8-19,14.3-25.4c9.5-6.5,26.4-10.4,50.7-11.7v-2.2c0-4.4-1-7.3-3-8.7c-2-1.4-4.9-2.1-8.7-2.1
		c-9,0-14,3.6-15,10.8l-35.5-3.3c5.1-20.8,22.4-31.2,51.9-31.2c8,0,15.4,0.8,22.1,2.4c6.7,1.6,12,4.1,15.9,7.5
		c3.9,3.4,6.5,7,7.9,10.7c1.3,3.8,2,11,2,21.8v39.6C425.2,211.6,426.2,218.1,428.2,223.4z M387.8,176.9
		c-16.6,1.8-24.9,7.1-24.9,15.9c0,6,3.3,9,9.9,9c4.2,0,7.7-1.2,10.6-3.7c2.9-2.5,4.4-7.9,4.4-16.4V176.9z"/>
</g>
<g>
	<path class="st0" d="M214.5,315v84.5c0,9.3-1.9,14.6-7.8,17.4c-5.9,3-14.1,3.5-25.9,3.5c-0.8-5.3-3.8-13.4-6.6-18.6
		c7.8,0.3,15.8,0.3,18.2,0.2c2.4,0,3.4-0.6,3.4-2.9V315h-16c-3.8,8-8.2,15.2-12.5,21c-2.9-2.1-8.5-5.8-13.1-8.5v3.5h-28.5
		c-0.6,5.3-1.4,10.6-2.1,15.7h33.1l-0.5,7.4c-0.8,12-1.6,21.8-2.6,29.6c8.5-12,14.2-31,17.3-49.6l18.2,3.2
		c-4.2,21.8-11.2,43.4-20.2,57.1c-3.4-2.9-10.9-7.7-15.4-9.9c-1.9,16.5-4,25-7.5,28.8c-3.5,4.2-7,5.8-12.2,6.4
		c-4.3,0.6-11.4,0.6-18.7,0.3c-0.3-5.6-2.4-13.3-5.4-18.4c6.4,0.6,12.2,0.8,15.2,0.8c2.4,0,4-0.3,5.6-2.1c2.7-2.7,4.8-12.8,6.4-36.5
		h-16.2c-0.5,2.4-0.8,4.6-1.3,6.7l-18.6-3c2.9-14.4,6.4-36.5,8-54.2h27V295h-29.8v-17.8h47.8v42.1c9-12.8,16-30.7,20.3-48.2
		l20.2,4.2c-1.9,7-4.2,14.2-6.9,21.1h60.3V315H214.5z M235.2,333.8c6.7,17.3,13.6,39.2,16.8,54.1l-17.6,5.8
		c-2.4-14.7-9.4-37.8-15.7-55L235.2,333.8z"/>
	<path class="st0" d="M407.3,397.4v18.7H263.5v-18.7h61.8v-32.2h-43.4v-18.4h43.4v-28.2h-33.1c-4.6,8.8-9.6,17-14.9,23.2
		c-3.8-3-12.3-8.8-17.1-11.4c12.5-13.4,22.9-35.5,28.3-57.3l19.7,4.3c-2.2,7.7-4.8,15.2-7.5,22.6h24.6v-28.8h20v28.8h53.9v18.6
		h-53.9v28.2h47.8v18.4h-47.8v32.2H407.3z"/>
</g>
<g>
</g>
<g>
</g>
<g>
</g>
<g>
</g>
<g>
</g>
<g>
</g>
<g>
</g>
<g>
</g>
<g>
</g>
<g>
</g>
<g>
</g>
<g>
</g>
<g>
</g>
<g>
</g>
<g>
</g>
</svg>
