<?xml version="1.0" encoding="utf-8"?>
<!-- Generator: Adobe Illustrator 28.0.0, SVG Export Plug-In . SVG Version: 6.00 Build 0)  -->
<svg version="1.1" id="レイヤー_1" xmlns="http://www.w3.org/2000/svg" xmlns:xlink="http://www.w3.org/1999/xlink" x="0px"
	 y="0px" viewBox="0 0 256 256" style="enable-background:new 0 0 256 256;" xml:space="preserve">
<style type="text/css">
	.st0{fill:#647EB6;stroke:#555555;stroke-width:15;stroke-linecap:round;stroke-linejoin:round;stroke-miterlimit:10;}
	.st1{fill:#555555;}
</style>
<polygon class="st0" points="128,13.9 165.1,89 248,101.1 188,159.5 202.2,242.1 128,203.1 53.8,242.1 68,159.5 8,101.1 90.9,89 "/>
<g>
	<path class="st1" d="M117.7,102.3v71.1H99.2v-71.1H117.7z"/>
	<path class="st1" d="M159.8,115.1l-7.1,27.9l8.6,30.5h-17.3c-1.7-7.7-3-14.3-3.9-19.9c-1.2,6.9-2.5,13.6-3.9,19.9h-14.8l7.6-30.5
		l-7.6-27.9h14.8c2.4,11.9,3.7,18.7,3.9,20.3c1.7-10,3-16.7,3.9-20.3H159.8z"/>
</g>
</svg>
