<?xml version="1.0" encoding="utf-8"?>
<!-- Generator: Adobe Illustrator 28.0.0, SVG Export Plug-In . SVG Version: 6.00 Build 0)  -->
<svg version="1.1" id="レイヤー_1" xmlns="http://www.w3.org/2000/svg" xmlns:xlink="http://www.w3.org/1999/xlink" x="0px"
	 y="0px" viewBox="0 0 256 256" style="enable-background:new 0 0 256 256;" xml:space="preserve">
<style type="text/css">
	.st0{fill:#647EB6;stroke:#555555;stroke-width:15;stroke-linecap:round;stroke-linejoin:round;stroke-miterlimit:10;}
	.st1{fill:#555555;}
</style>
<polygon class="st0" points="128,13.9 165.1,89 248,101.1 188,159.5 202.2,242.1 128,203.1 53.8,242.1 68,159.5 8,101.1 90.9,89 "/>
<g>
	<path class="st1" d="M100.9,102.3v71.1H82.4v-71.1H100.9z"/>
	<path class="st1" d="M126.8,102.3v71.1h-18.5v-71.1H126.8z"/>
	<path class="st1" d="M151.5,102.3v16.8c1.5-1.7,3.1-3,4.9-3.8c1.8-0.8,3.8-1.3,5.9-1.3c2.4,0,4.5,0.4,6.3,1.1
		c1.8,0.8,3.1,1.8,4.1,3.2c0.9,1.4,1.5,2.7,1.7,4s0.3,4.1,0.3,8.4v26.3c0,4.3-0.3,7.5-0.9,9.6c-0.6,2.1-1.9,3.9-4,5.4
		s-4.6,2.3-7.5,2.3c-2.1,0-4-0.5-5.8-1.4c-1.8-0.9-3.4-2.3-4.9-4.1l-1.1,4.4h-16.6v-71.1H151.5z M156.9,131.7c0-3-0.2-5-0.6-5.9
		s-1.1-1.4-2.2-1.4c-1.1,0-1.8,0.4-2.1,1.2c-0.3,0.8-0.5,2.8-0.5,6.1v25.1c0,3.1,0.2,5.1,0.5,6c0.4,0.9,1.1,1.3,2.2,1.3
		c1.1,0,1.8-0.5,2.2-1.4c0.3-0.9,0.5-3.1,0.5-6.5V131.7z"/>
</g>
</svg>
