<?xml version="1.0" encoding="utf-8"?>
<!-- Generator: Adobe Illustrator 28.0.0, SVG Export Plug-In . SVG Version: 6.00 Build 0)  -->
<svg version="1.1" id="レイヤー_1" xmlns="http://www.w3.org/2000/svg" xmlns:xlink="http://www.w3.org/1999/xlink" x="0px"
	 y="0px" viewBox="0 0 256 256" style="enable-background:new 0 0 256 256;" xml:space="preserve">
<style type="text/css">
	.st0{fill:#647EB6;stroke:#555555;stroke-width:15;stroke-linecap:round;stroke-linejoin:round;stroke-miterlimit:10;}
	.st1{fill:#555555;}
</style>
<polygon class="st0" points="128,13.9 165.1,89 248,101.1 188,159.5 202.2,242.1 128,203.1 53.8,242.1 68,159.5 8,101.1 90.9,89 "/>
<g>
	<path class="st1" d="M117.1,102.3v71.1H98.6v-71.1H117.1z"/>
	<path class="st1" d="M161.1,115.1l-5.1,42.2c-0.8,6.7-1.5,11.2-2,13.7c-0.5,2.4-1.4,4.4-2.7,6c-1.3,1.6-3,2.7-5.3,3.5
		c-2.2,0.7-5.8,1.1-10.7,1.1h-10.8v-9.3c2.8,0,4.5-0.1,5.3-0.4s1.2-0.9,1.2-1.9c0-0.5-0.4-2.5-1.1-6.1l-9.7-48.8h16.1l5.8,39.4
		l2.8-39.4H161.1z"/>
</g>
</svg>
