<?xml version="1.0" encoding="utf-8"?>
<!-- Generator: Adobe Illustrator 28.0.0, SVG Export Plug-In . SVG Version: 6.00 Build 0)  -->
<svg version="1.1" id="レイヤー_1" xmlns="http://www.w3.org/2000/svg" xmlns:xlink="http://www.w3.org/1999/xlink" x="0px"
	 y="0px" viewBox="0 0 256 256" style="enable-background:new 0 0 256 256;" xml:space="preserve">
<style type="text/css">
	.st0{fill:#647EB6;stroke:#555555;stroke-width:15;stroke-linecap:round;stroke-linejoin:round;stroke-miterlimit:10;}
	.st1{fill:#555555;}
</style>
<polygon class="st0" points="128,13.9 165.1,89 248,101.1 188,159.5 202.2,242.1 128,203.1 53.8,242.1 68,159.5 8,101.1 90.9,89 "/>
<g>
	<path class="st1" d="M105.3,120.8l-9.1-11.8c3.1-4.5,7.5-8,13.1-10.7c5.7-2.7,11.8-4,18.4-4l-1.2,15.8c-3.9,0-7.8,1-11.6,2.9
		C111.2,115,108,117.6,105.3,120.8z M125.6,185.6c-3.2,0-5.9-1.1-8.1-3.3c-2.2-2.2-3.3-4.9-3.3-8c0-3.2,1.1-5.9,3.3-8.1
		c2.2-2.2,4.9-3.3,8.1-3.3c3.2,0,5.9,1.1,8.1,3.3c2.2,2.2,3.3,4.9,3.3,8.1c0,3.1-1.1,5.8-3.3,8C131.5,184.5,128.8,185.6,125.6,185.6
		z M117.2,153.8v-5.2c0-4.3,1-7.9,3-11c2-3,5.1-5.9,9.3-8.7c2.2-1.5,4-3.2,5.2-5.1c1.2-1.9,1.8-4,1.8-6.2c0-2.4-0.9-4.3-2.6-5.6
		c-1.7-1.3-4.2-2-7.4-2l1.2-15.8c8.5,0,15,1.8,19.7,5.5c4.7,3.7,7,8.9,7,15.6c0,5-1.2,9.6-3.7,13.8c-2.5,4.1-6.2,7.8-11.2,11
		c-2,1.3-3.5,2.9-4.5,4.7c-1,1.8-1.4,3.9-1.4,6.5v2.3H117.2z"/>
</g>
</svg>
