<?xml version="1.0" encoding="utf-8"?>
<!-- Generator: Adobe Illustrator 28.0.0, SVG Export Plug-In . SVG Version: 6.00 Build 0)  -->
<svg version="1.1" id="レイヤー_1" xmlns="http://www.w3.org/2000/svg" xmlns:xlink="http://www.w3.org/1999/xlink" x="0px"
	 y="0px" viewBox="0 0 256 256" style="enable-background:new 0 0 256 256;" xml:space="preserve">
<style type="text/css">
	.st0{fill:#647EB6;stroke:#555555;stroke-width:15;stroke-linecap:round;stroke-linejoin:round;stroke-miterlimit:10;}
	.st1{fill:#555555;}
</style>
<polygon class="st0" points="128,13.9 165.1,89 248,101.1 188,159.5 202.2,242.1 128,203.1 53.8,242.1 68,159.5 8,101.1 90.9,89 "/>
<g>
	<path class="st1" d="M102,102.3v71.1H83.5v-71.1H102z"/>
	<path class="st1" d="M127.9,102.3v71.1h-18.5v-71.1H127.9z"/>
	<path class="st1" d="M174.1,137.1h-16.7v-6.7c0-2.3-0.2-3.9-0.6-4.8s-1.1-1.3-2.1-1.3s-1.7,0.4-2.1,1.1c-0.4,0.7-0.5,2.4-0.5,4.9
		v27.5c0,2.1,0.3,3.6,0.8,4.7s1.3,1.6,2.3,1.6c1.2,0,2-0.5,2.4-1.6c0.4-1.1,0.6-3.1,0.6-6.2v-6.9h15.8c0,4.7-0.2,8.2-0.5,10.5
		c-0.3,2.3-1.3,4.7-2.9,7.2c-1.7,2.4-3.8,4.3-6.5,5.5s-6,1.9-9.9,1.9c-5,0-9-0.9-11.9-2.6s-5-4.1-6.2-7.2s-1.8-7.5-1.8-13.2V135
		c0-5,0.5-8.7,1.5-11.2c1-2.5,3.1-4.8,6.4-6.7s7.2-3,11.9-3c4.6,0,8.6,1,11.9,2.9c3.3,2,5.5,4.4,6.5,7.4S174.1,131.6,174.1,137.1z"
		/>
</g>
</svg>
