<?xml version="1.0" encoding="utf-8"?>
<!-- Generator: Adobe Illustrator 28.0.0, SVG Export Plug-In . SVG Version: 6.00 Build 0)  -->
<svg version="1.1" id="レイヤー_1" xmlns="http://www.w3.org/2000/svg" xmlns:xlink="http://www.w3.org/1999/xlink" x="0px"
	 y="0px" viewBox="0 0 256 256" style="enable-background:new 0 0 256 256;" xml:space="preserve">
<style type="text/css">
	.st0{fill:#72B664;stroke:#555555;stroke-width:15;stroke-linecap:round;stroke-linejoin:round;stroke-miterlimit:10;}
	.st1{fill:#555555;}
</style>
<circle class="st0" cx="128" cy="128" r="120"/>
<g>
	<path class="st1" d="M165.7,174.6v24.3H87.6l0-20.3c23.1-37.9,36.9-61.3,41.3-70.3c4.4-9,6.5-16,6.5-21c0-3.9-0.7-6.8-2-8.7
		c-1.3-1.9-3.3-2.9-6-2.9c-2.7,0-4.7,1.1-6,3.2c-1.3,2.1-2,6.3-2,12.6V105H87.6v-5.2c0-8,0.4-14.3,1.2-18.9
		c0.8-4.6,2.8-9.1,6.1-13.6c3.2-4.5,7.4-7.8,12.6-10.1c5.2-2.3,11.3-3.4,18.5-3.4c14.1,0,24.8,3.5,32,10.5
		c7.2,7,10.9,15.9,10.9,26.6c0,8.1-2,16.8-6.1,25.8c-4.1,9.1-16.1,28.4-36,57.8H165.7z"/>
</g>
</svg>
