<?xml version="1.0" encoding="utf-8"?>
<!-- Generator: Adobe Illustrator 28.0.0, SVG Export Plug-In . SVG Version: 6.00 Build 0)  -->
<svg version="1.1" id="sekkan" xmlns="http://www.w3.org/2000/svg" xmlns:xlink="http://www.w3.org/1999/xlink" x="0px" y="0px"
	 viewBox="0 0 256 512" style="enable-background:new 0 0 256 512;" xml:space="preserve">
<style type="text/css">
	.st0{fill:#DDDDDD;}
	.st1{fill:#89817A;}
	.st2{fill:#686560;}
</style>
<g id="_x31_">
	<path class="st0" d="M256,452c0,33-27,60-60,60H60c-33,0-60-27-60-60V60C0,27,27,0,60,0h136c33,0,60,27,60,60V452z"/>
</g>
<g id="_x32_">
	<path class="st1" d="M9.5,452c0,27.5,22.5,50,50,50h136c27.5,0,50-22.5,50-50V60c0-27.5-22.5-50-50-50h-136c-27.5,0-50,22.5-50,50
		V452z"/>
</g>
<g id="_x33_">
	<path class="st2" d="M50,437c0,11,9,20,20,20h116c11,0,20-9,20-20V75c0-11-9-20-20-20H70c-11,0-20,9-20,20V437z"/>
</g>
<g>
</g>
<g>
</g>
<g>
</g>
<g>
</g>
<g>
</g>
<g>
</g>
<g>
</g>
<g>
</g>
<g>
</g>
<g>
</g>
<g>
</g>
<g>
</g>
<g>
</g>
<g>
</g>
<g>
</g>
</svg>
