<?xml version="1.0" encoding="utf-8"?>
<!-- Generator: Adobe Illustrator 27.0.1, SVG Export Plug-In . SVG Version: 6.00 Build 0)  -->
<svg version="1.1" id="レイヤー_1" xmlns="http://www.w3.org/2000/svg" xmlns:xlink="http://www.w3.org/1999/xlink" x="0px"
	 y="0px" viewBox="0 0 256 256" style="enable-background:new 0 0 256 256;" xml:space="preserve">
<style type="text/css">
	.st0{fill:none;stroke:#000000;stroke-width:10;stroke-linecap:round;stroke-linejoin:round;}
	.st1{fill:none;stroke:#000000;stroke-width:7;stroke-linecap:round;stroke-linejoin:round;stroke-miterlimit:10;}
</style>
<g>
	<g>
		<path class="st0" d="M188.3,70.8c12.3,9.6,22.4,22.2,29.2,37.4c22,49.4-0.2,107.4-49.7,129.4s-107.4-0.2-129.4-49.7
			S38.7,80.5,88.1,58.5"/>
		<g>
			<polygon points="190.6,94.5 193.3,74.5 209.5,62.6 162.3,56.2 			"/>
		</g>
	</g>
</g>
<g>
	<path d="M128,15c13.8,0,25,11.2,25,25s-11.2,25-25,25s-25-11.2-25-25S114.2,15,128,15 M128,8c-17.7,0-32,14.3-32,32
		c0,17.7,14.3,32,32,32s32-14.3,32-32C160,22.3,145.7,8,128,8L128,8z"/>
</g>
<line class="st1" x1="101.3" y1="40" x2="154.7" y2="40"/>
<line class="st1" x1="128" y1="13.3" x2="128" y2="66.7"/>
<g>
	<path d="M79.1,116v57.4c0,1.3-0.4,2.4-1.2,3.3c-1.2,1.3-2.8,1.9-4.8,1.9c-2.4,0-4.1-0.8-5.2-2.4c-0.5-0.8-0.8-1.7-0.8-2.7V116
		c0-1.8,0.8-3.2,2.4-4.1c1.1-0.6,2.3-1,3.6-1c1.5,0,2.9,0.4,4,1.2C78.4,113.1,79.1,114.4,79.1,116z"/>
	<path d="M118.9,110.4c8.5,0,15.1,3.7,19.9,11c4,6,5.9,13.7,5.9,23.1c0,8.4-1.5,15.5-4.4,21.2c-1.9,3.7-4.4,6.7-7.4,9
		c-4,3-8.7,4.5-14.1,4.5c-8.6,0-15.3-3.6-20-10.9c-3.9-6-5.9-13.9-5.9-23.7c0-10,2.2-18.1,6.7-24.3
		C104.3,113.6,110.8,110.4,118.9,110.4z M118.7,120.5c-3.9,0-7.1,2-9.5,6.1c-2.6,4.4-4,10.4-4,18.1c0,5.9,0.8,10.9,2.4,14.9
		c2.5,6,6.2,9.1,11.2,9.1c3.5,0,6.5-1.7,8.9-5.1c3-4.3,4.6-10.6,4.6-18.9c0-7.8-1.4-13.9-4.1-18.3
		C125.9,122.5,122.7,120.5,118.7,120.5z"/>
	<path d="M167.1,161.4v12.3c0,1.4-0.5,2.5-1.5,3.4c-1.1,1-2.5,1.5-4.2,1.5c-2.5,0-4.2-0.9-5.1-2.7c-0.3-0.6-0.5-1.4-0.5-2.2v-58.1
		c0-1.2,0.4-2.2,1.1-2.9c1.1-1.2,2.6-1.8,4.5-1.8c2.4,0,4.1,0.8,5.1,2.5c0.4,0.7,0.6,1.4,0.6,2.3v32.8l19.5-16.6
		c1.3-1.1,2.7-1.7,4.1-1.7c1.3,0,2.5,0.5,3.5,1.5c1.3,1.3,1.9,2.7,1.9,4.2s-0.6,2.8-1.9,3.8l-13.8,11.1l16.1,17.7
		c1.1,1.2,1.6,2.6,1.6,4.2c0,1.8-0.7,3.3-2.1,4.3c-1.3,1-2.7,1.5-4.2,1.5c-1.7,0-3.1-0.7-4.4-2.2l-15.3-18.9L167.1,161.4z"/>
</g>
<g>
</g>
<g>
</g>
<g>
</g>
<g>
</g>
<g>
</g>
<g>
</g>
<g>
</g>
<g>
</g>
<g>
</g>
<g>
</g>
<g>
</g>
<g>
</g>
<g>
</g>
<g>
</g>
<g>
</g>
<g>
</g>
</svg>
