<?xml version="1.0" encoding="utf-8"?>
<!-- Generator: Adobe Illustrator 27.0.1, SVG Export Plug-In . SVG Version: 6.00 Build 0)  -->
<svg version="1.1" id="レイヤー_1" xmlns="http://www.w3.org/2000/svg" xmlns:xlink="http://www.w3.org/1999/xlink" x="0px"
	 y="0px" viewBox="0 0 256 256" style="enable-background:new 0 0 256 256;" xml:space="preserve">
<style type="text/css">
	.st0{fill:none;stroke:#000000;stroke-width:10;stroke-linecap:round;stroke-linejoin:round;}
	.st1{fill:none;stroke:#000000;stroke-width:7;stroke-linecap:round;stroke-linejoin:round;stroke-miterlimit:10;}
</style>
<g>
	<g>
		<path class="st0" d="M67.7,70.8c-12.3,9.6-22.4,22.2-29.2,37.4c-22,49.4,0.2,107.4,49.7,129.4s107.4-0.2,129.4-49.7
			s-0.2-107.4-49.7-129.4"/>
		<g>
			<polygon points="46.5,62.6 62.7,74.5 65.4,94.5 93.7,56.2 			"/>
		</g>
	</g>
</g>
<g>
	<path d="M128,15c13.8,0,25,11.2,25,25s-11.2,25-25,25s-25-11.2-25-25S114.2,15,128,15 M128,8c-17.7,0-32,14.3-32,32
		c0,17.7,14.3,32,32,32s32-14.3,32-32C160,22.3,145.7,8,128,8L128,8z"/>
</g>
<line class="st1" x1="101.3" y1="40" x2="154.7" y2="40"/>
<line class="st1" x1="128" y1="13.3" x2="128" y2="66.7"/>
<g>
	<path d="M101.5,107.7v76.6c0,1.7-0.5,3.2-1.6,4.3c-1.6,1.7-3.7,2.5-6.4,2.5c-3.2,0-5.5-1.1-6.9-3.2c-0.7-1.1-1.1-2.3-1.1-3.6v-76.6
		c0-2.5,1.1-4.3,3.2-5.5c1.5-0.9,3.1-1.3,4.8-1.3c2,0,3.8,0.5,5.4,1.6C100.6,103.7,101.5,105.5,101.5,107.7z"/>
	<path d="M154.6,100.1c11.3,0,20.2,4.9,26.5,14.6c5.3,8,7.9,18.3,7.9,30.8c0,11.2-2,20.6-5.9,28.2c-2.6,5-5.9,8.9-9.9,12
		c-5.4,4-11.6,6-18.8,6c-11.5,0-20.4-4.9-26.7-14.6c-5.2-8-7.9-18.6-7.9-31.6c0-13.4,3-24.2,8.9-32.4
		C135.1,104.5,143.7,100.1,154.6,100.1z M154.3,113.7c-5.2,0-9.4,2.7-12.7,8.1c-3.5,5.9-5.3,13.9-5.3,24.2c0,7.9,1.1,14.5,3.2,19.9
		c3.3,8,8.3,12.1,15,12.1c4.7,0,8.7-2.2,11.9-6.7c4.1-5.7,6.1-14.1,6.1-25.3c0-10.4-1.8-18.6-5.4-24.4
		C163.9,116.3,159.6,113.7,154.3,113.7z"/>
</g>
<g>
</g>
<g>
</g>
<g>
</g>
<g>
</g>
<g>
</g>
<g>
</g>
<g>
</g>
<g>
</g>
<g>
</g>
<g>
</g>
<g>
</g>
<g>
</g>
<g>
</g>
<g>
</g>
<g>
</g>
<g>
</g>
</svg>
