<?xml version="1.0" encoding="utf-8"?>
<!-- Generator: Adobe Illustrator 27.0.1, SVG Export Plug-In . SVG Version: 6.00 Build 0)  -->
<svg version="1.1" id="レイヤー_1" xmlns="http://www.w3.org/2000/svg" xmlns:xlink="http://www.w3.org/1999/xlink" x="0px"
	 y="0px" viewBox="0 0 256 256" style="enable-background:new 0 0 256 256;" xml:space="preserve">
<style type="text/css">
	.st0{fill:none;stroke:#000000;stroke-width:10;stroke-linecap:round;stroke-linejoin:round;}
	.st1{fill:none;stroke:#000000;stroke-width:7;stroke-linecap:round;stroke-linejoin:round;stroke-miterlimit:10;}
</style>
<g>
	<g>
		<path class="st0" d="M67.7,70.8c-12.3,9.6-22.4,22.2-29.2,37.4c-22,49.4,0.2,107.4,49.7,129.4s107.4-0.2,129.4-49.7
			s-0.2-107.4-49.7-129.4"/>
		<g>
			<polygon points="46.5,62.6 62.7,74.5 65.4,94.5 93.7,56.2 			"/>
		</g>
	</g>
</g>
<g>
	<path d="M128,15c13.8,0,25,11.2,25,25s-11.2,25-25,25s-25-11.2-25-25S114.2,15,128,15 M128,8c-17.7,0-32,14.3-32,32
		c0,17.7,14.3,32,32,32s32-14.3,32-32C160,22.3,145.7,8,128,8L128,8z"/>
</g>
<line class="st1" x1="101.3" y1="40" x2="154.7" y2="40"/>
<line class="st1" x1="128" y1="13.3" x2="128" y2="66.7"/>
<g>
	<path d="M108.9,107.7v76.6c0,1.7-0.5,3.2-1.6,4.3c-1.6,1.7-3.7,2.5-6.4,2.5c-3.2,0-5.5-1.1-6.9-3.2c-0.7-1.1-1.1-2.3-1.1-3.6v-76.6
		c0-2.5,1.1-4.3,3.2-5.5c1.5-0.9,3.1-1.3,4.8-1.3c2,0,3.8,0.5,5.4,1.6C108,103.7,108.9,105.5,108.9,107.7z"/>
	<path d="M144.3,168.2v16.4c0,1.9-0.6,3.4-1.9,4.5c-1.5,1.3-3.4,2-5.6,2c-3.3,0-5.5-1.2-6.8-3.6c-0.4-0.9-0.6-1.8-0.6-2.9v-77.4
		c0-1.6,0.5-2.9,1.5-3.9c1.4-1.6,3.4-2.4,6-2.4c3.2,0,5.4,1.1,6.7,3.3c0.5,0.9,0.8,1.9,0.8,3v43.7l26-22.1c1.8-1.5,3.6-2.2,5.4-2.2
		c1.8,0,3.3,0.7,4.7,2c1.7,1.7,2.5,3.5,2.5,5.6s-0.9,3.7-2.6,5.1l-18.5,14.8l21.5,23.6c1.4,1.6,2.2,3.5,2.2,5.6
		c0,2.5-0.9,4.4-2.8,5.7c-1.8,1.3-3.6,2-5.6,2c-2.3,0-4.2-1-5.8-2.9L151,162.8L144.3,168.2z"/>
</g>
<g>
</g>
<g>
</g>
<g>
</g>
<g>
</g>
<g>
</g>
<g>
</g>
<g>
</g>
<g>
</g>
<g>
</g>
<g>
</g>
<g>
</g>
<g>
</g>
<g>
</g>
<g>
</g>
<g>
</g>
<g>
</g>
</svg>
