<?xml version="1.0" encoding="utf-8"?>
<!-- Generator: Adobe Illustrator 27.0.1, SVG Export Plug-In . SVG Version: 6.00 Build 0)  -->
<svg version="1.1" id="c" xmlns="http://www.w3.org/2000/svg" xmlns:xlink="http://www.w3.org/1999/xlink" x="0px" y="0px"
	 viewBox="0 0 128 128" style="enable-background:new 0 0 128 128;" xml:space="preserve">
<style type="text/css">
	.st0{fill-rule:evenodd;clip-rule:evenodd;fill:#1B1F23;}
	.st1{fill:#FFFFFF;}
</style>
<g>
	<path class="st0" d="M107.8,69c4.8-2.8,4.8-7.2,0-10L9.2,2C4.4-0.7,0.5,1.5,0.5,7v114c0,5.5,3.9,7.7,8.7,5L107.8,69z"/>
</g>
<g>
	<path class="st0" d="M127,122.2c0,2.8-2.2,5-5,5l0,0c-2.8,0-5-2.2-5-5V5.8c0-2.8,2.2-5,5-5l0,0c2.8,0,5,2.2,5,5V122.2z"/>
</g>
<g>
	<path class="st1" d="M34.8,30.8c7.5,0,13.6,2.1,18.2,6.2c2.6,2.3,3.8,4.4,3.8,6.4c0,1.2-0.5,2.4-1.4,3.4c-1.1,1.2-2.5,1.8-4.1,1.8
		c-1.3,0-2.4-0.4-3.2-1.3c-0.1-0.1-0.4-0.5-1-1.2c-3-4-7.1-6-12.2-6c-4,0-7.5,1.4-10.4,4.1c-4.2,3.9-6.2,9.6-6.2,17.2
		c0,5.5,1.2,10.1,3.7,13.9c3.1,4.7,7.5,7.1,13.1,7.1c5.5,0,10.2-2.4,14.1-7.3c0.9-1.1,2.1-1.7,3.6-1.7s2.8,0.5,3.9,1.5
		c1.1,1,1.7,2.3,1.7,3.8c0,1.6-0.8,3.3-2.3,4.9c-5.1,5.6-12,8.4-21,8.4c-9,0-16.2-3.1-21.5-9.3c-4.7-5.4-7-12.5-7-21.2
		c0-9.4,2.8-17,8.3-22.7C20,33.4,26.6,30.8,34.8,30.8z"/>
</g>
</svg>
