<?xml version="1.0" encoding="utf-8"?>
<!-- Generator: Adobe Illustrator 27.0.1, SVG Export Plug-In . SVG Version: 6.00 Build 0)  -->
<svg version="1.1" id="d" xmlns="http://www.w3.org/2000/svg" xmlns:xlink="http://www.w3.org/1999/xlink" x="0px" y="0px"
	 viewBox="0 0 128 128" style="enable-background:new 0 0 128 128;" xml:space="preserve">
<style type="text/css">
	.st0{fill-rule:evenodd;clip-rule:evenodd;fill:#1B1F23;}
	.st1{fill:#FFFFFF;}
</style>
<g>
	<path class="st0" d="M20.1,59c-4.8,2.8-4.8,7.3,0,10l98.7,57c4.8,2.8,8.7,0.5,8.7-5L127.4,7c0-5.5-3.9-7.7-8.7-5L20.1,59z"/>
</g>
<g>
	<path class="st0" d="M11,122.2c0,2.8-2.2,5-5,5l0,0c-2.8,0-5-2.2-5-5V5.8c0-2.8,2.2-5,5-5l0,0c2.8,0,5,2.2,5,5V122.2z"/>
</g>
<g>
	<path class="st1" d="M74.7,34.1h12.1c7.3,0,13.5,1.6,18.5,4.8c3.8,2.4,6.8,5.6,8.9,9.7c2.2,4.3,3.4,9.2,3.4,14.6
		c0,7.4-2,13.6-5.9,18.7c-5.5,7.1-13.9,10.6-25.2,10.6H74.7c-6.1,0-9.2-3-9.2-9.1V43.2C65.5,37.2,68.6,34.1,74.7,34.1z M76.5,45.3
		v35.9c0,1.2,0.6,1.8,1.9,1.8H85c5.4,0,9.6-0.9,12.6-2.7c5.6-3.4,8.4-9.1,8.4-17.1c0-4.6-1-8.5-3-11.8c-2.4-3.9-5.8-6.3-10.2-7.3
		c-2.1-0.4-4.6-0.7-7.5-0.7h-6.9C77.1,43.5,76.5,44.1,76.5,45.3z"/>
</g>
</svg>
