<?xml version="1.0" encoding="utf-8"?>
<!-- Generator: Adobe Illustrator 27.0.1, SVG Export Plug-In . SVG Version: 6.00 Build 0)  -->
<svg version="1.1" id="d" xmlns="http://www.w3.org/2000/svg" xmlns:xlink="http://www.w3.org/1999/xlink" x="0px" y="0px"
	 viewBox="0 0 128 128" style="enable-background:new 0 0 128 128;" xml:space="preserve">
<style type="text/css">
	.st0{fill-rule:evenodd;clip-rule:evenodd;fill:#1B1F23;}
	.st1{fill:#FFFFFF;}
</style>
<g>
	<path class="st0" d="M107.8,69c4.8-2.8,4.8-7.2,0-10L9.2,2C4.4-0.7,0.5,1.5,0.5,7v114c0,5.5,3.9,7.7,8.7,5L107.8,69z"/>
</g>
<g>
	<path class="st0" d="M127,122.2c0,2.8-2.2,5-5,5l0,0c-2.8,0-5-2.2-5-5V5.8c0-2.8,2.2-5,5-5l0,0c2.8,0,5,2.2,5,5V122.2z"/>
</g>
<g>
	<path class="st1" d="M19.1,32.1h12.1c7.3,0,13.5,1.6,18.5,4.8c3.8,2.4,6.8,5.6,8.9,9.7c2.2,4.3,3.4,9.2,3.4,14.6
		c0,7.4-2,13.6-5.9,18.7C50.7,87,42.2,90.5,30.9,90.5H19.1c-6.1,0-9.2-3-9.2-9.1V41.2C9.8,35.2,12.9,32.1,19.1,32.1z M20.8,43.3
		v35.9c0,1.2,0.6,1.8,1.9,1.8h6.6c5.4,0,9.6-0.9,12.6-2.7c5.6-3.4,8.4-9.1,8.4-17.1c0-4.6-1-8.5-3-11.8c-2.4-3.9-5.8-6.3-10.2-7.3
		c-2.1-0.4-4.6-0.7-7.5-0.7h-6.9C21.4,41.5,20.8,42.1,20.8,43.3z"/>
</g>
</svg>
