<?xml version="1.0" encoding="utf-8"?>
<!-- Generator: Adobe Illustrator 27.0.1, SVG Export Plug-In . SVG Version: 6.00 Build 0)  -->
<svg version="1.1" id="github" xmlns="http://www.w3.org/2000/svg" xmlns:xlink="http://www.w3.org/1999/xlink" x="0px" y="0px"
	 viewBox="0 0 128 125" style="enable-background:new 0 0 128 125;" xml:space="preserve">
<style type="text/css">
	.st0{fill-rule:evenodd;clip-rule:evenodd;fill:#1B1F23;}
</style>
<path id="icon" class="st0" d="M64,0.1c-35.4,0-64,28.6-64,64c0,28.3,18.3,52.2,43.8,60.7c3.2,0.6,4.4-1.4,4.4-3
	c0-1.5-0.1-6.6-0.1-11.9c-16.1,3-20.2-3.9-21.5-7.5c-0.7-1.8-3.8-7.5-6.6-9c-2.2-1.2-5.4-4.2-0.1-4.2c5-0.1,8.6,4.6,9.8,6.6
	c5.8,9.7,15,7,18.6,5.3c0.6-4.2,2.2-7,4.1-8.6c-14.2-1.6-29.1-7.1-29.1-31.6c0-7,2.5-12.7,6.6-17.2c-0.6-1.6-2.9-8.2,0.6-17
	c0,0,5.4-1.7,17.6,6.6c5.1-1.4,10.6-2.2,16-2.2c5.4,0,10.9,0.7,16,2.2c12.2-8.3,17.6-6.6,17.6-6.6c3.5,8.8,1.3,15.4,0.6,17
	c4.1,4.5,6.6,10.2,6.6,17.2c0,24.6-15,30-29.2,31.6c2.3,2,4.3,5.8,4.3,11.8c0,8.6-0.1,15.4-0.1,17.6c0,1.7,1.2,3.7,4.4,3
	c25.3-8.5,43.6-32.5,43.6-60.7C128,28.7,99.4,0.1,64,0.1z"/>
</svg>
