<?xml version="1.0" encoding="utf-8"?>
<!-- Generator: Adobe Illustrator 28.0.0, SVG Export Plug-In . SVG Version: 6.00 Build 0)  -->
<svg version="1.1" id="init" xmlns="http://www.w3.org/2000/svg" xmlns:xlink="http://www.w3.org/1999/xlink" x="0px" y="0px"
	 viewBox="0 0 128 128" style="enable-background:new 0 0 128 128;" xml:space="preserve">
<g>
	<path d="M40,28.4c2.6,0,4.9,0.6,6.9,1.7c1.9,1.1,2.9,2.3,2.9,3.5c0,0.6-0.2,1.2-0.7,1.6c-0.5,0.5-1.2,0.8-1.9,0.8
		c-0.7,0-1.3-0.3-2.1-1c-1.5-1.4-3.2-2.2-5.1-2.2c-1.5,0-2.7,0.3-3.7,0.8c-1.1,0.6-1.6,1.5-1.6,2.6c0,1,0.5,1.9,1.5,2.6
		c0.7,0.5,2.5,1.2,5.2,2c3.6,1.1,6,2.1,7.3,3.1c1.9,1.6,2.9,3.6,2.9,6c0,2.9-1.1,5.1-3.4,6.7c-2.1,1.4-4.8,2.2-8.1,2.2
		c-3.1,0-5.9-0.8-8.3-2.3c-2.3-1.4-3.4-2.8-3.4-4.2c0-0.6,0.2-1.1,0.5-1.5c0.5-0.6,1.2-1,1.9-1c0.6,0,1.1,0.2,1.5,0.5
		c0.1,0.1,0.4,0.4,0.8,0.8c2,1.9,4.2,2.9,6.8,2.9c1.7,0,3.1-0.3,4.1-1c1.1-0.7,1.7-1.6,1.7-2.9c0-1.3-0.6-2.3-1.8-3
		c-0.8-0.5-2.6-1.2-5.4-2.1c-3-0.9-5.2-1.9-6.6-2.9c-1.8-1.3-2.7-3.2-2.7-5.7c0-2.1,0.7-3.8,2.2-5.3C33.5,29.4,36.3,28.4,40,28.4z"
		/>
	<path d="M60.2,28.4c0.6,0,1.1,0.2,1.6,0.5c1,0.6,1.5,1.5,1.5,2.7c0,0.8-0.3,1.6-0.9,2.2c-0.6,0.7-1.4,1-2.4,1c-0.5,0-1-0.1-1.5-0.4
		c-1.1-0.6-1.7-1.6-1.7-2.8c0-1,0.4-1.8,1.1-2.4C58.7,28.6,59.4,28.4,60.2,28.4z M62.7,39.4v17.1c0,0.5-0.2,1-0.5,1.3
		c-0.5,0.6-1.2,0.9-2.1,0.9c-1,0-1.8-0.4-2.2-1.1c-0.2-0.3-0.3-0.7-0.3-1.1V39.4c0-0.8,0.3-1.4,1-1.8c0.5-0.3,1-0.4,1.5-0.4
		c0.7,0,1.2,0.2,1.8,0.6C62.5,38.1,62.7,38.7,62.7,39.4z"/>
	<path d="M74.6,40.4c1.2-2.2,3.2-3.3,5.8-3.3c1.3,0,2.5,0.4,3.5,1.1c0.8,0.6,1.4,1.4,1.8,2.4C87,38.2,89.2,37,92,37
		c2.4,0,4.2,1.1,5.4,3.2c0.7,1.3,1,2.9,1,4.8v11.5c0,0.6-0.2,1-0.5,1.4c-0.5,0.5-1.1,0.7-2,0.7c-1.1,0-1.9-0.4-2.2-1.2
		c-0.1-0.3-0.2-0.6-0.2-0.9v-11c0-0.9-0.2-1.7-0.5-2.4c-0.5-1.1-1.3-1.7-2.3-1.7c-1,0-1.8,0.5-2.7,1.4c-0.9,1-1.3,2.2-1.3,3.5v10.3
		c0,0.5-0.2,1-0.5,1.3c-0.5,0.5-1.1,0.8-2,0.8c-1,0-1.8-0.4-2.2-1.1c-0.2-0.3-0.3-0.6-0.3-1V45.8c0-1.1-0.2-2-0.5-2.8
		c-0.5-1-1.2-1.6-2.1-1.6c-1,0-1.9,0.5-2.8,1.6c-0.9,1.1-1.3,2.3-1.3,3.6v10c0,0.5-0.2,1-0.5,1.3c-0.5,0.5-1.2,0.8-2,0.8
		c-1.1,0-1.8-0.4-2.2-1.2c-0.1-0.3-0.2-0.6-0.2-1V39.2c0-0.5,0.2-1,0.5-1.3c0.4-0.5,1-0.7,1.6-0.7c1.4,0,2.2,0.7,2.3,2.1L74.6,40.4z
		"/>
	<path d="M32.9,69.1h-2.9c-0.4,0-0.8-0.1-1.1-0.4c-0.4-0.4-0.6-0.9-0.6-1.6c0-0.8,0.3-1.4,0.8-1.8c0.2-0.2,0.5-0.3,0.9-0.3h11.3
		c0.4,0,0.8,0.1,1.1,0.4c0.4,0.4,0.6,0.9,0.6,1.6c0,0.8-0.3,1.4-0.8,1.8c-0.2,0.2-0.5,0.3-0.9,0.3h-2.9v21.1h2.9
		c0.4,0,0.8,0.1,1.1,0.4c0.4,0.4,0.6,0.9,0.6,1.6c0,0.8-0.3,1.4-0.8,1.8c-0.2,0.2-0.5,0.3-0.9,0.3H29.9c-0.4,0-0.8-0.1-1.1-0.4
		c-0.4-0.4-0.6-0.9-0.6-1.6c0-0.8,0.3-1.4,0.8-1.8c0.2-0.2,0.5-0.3,0.9-0.3h2.9V69.1z"/>
	<path d="M52.8,76.7c0.7-1,1.6-1.8,2.6-2.4c1.4-0.8,2.9-1.2,4.5-1.2c2.4,0,4.2,0.8,5.6,2.4c1.2,1.4,1.9,3.5,1.9,6.2v10.9
		c0,0.5-0.2,1-0.5,1.3c-0.5,0.6-1.2,0.8-2.1,0.8c-1,0-1.8-0.4-2.2-1.1c-0.2-0.3-0.3-0.7-0.3-1.1V82.2c0-1.1-0.2-2.1-0.5-2.9
		c-0.6-1.2-1.5-1.9-2.9-1.9c-1.4,0-2.7,0.7-4,2.2c-1,1.1-1.5,2.3-1.5,3.5v9.4c0,0.6-0.2,1-0.5,1.4c-0.5,0.5-1.2,0.8-2,0.8
		c-1,0-1.8-0.4-2.2-1.1c-0.2-0.3-0.3-0.7-0.3-1.1V75.3c0-0.5,0.1-1,0.4-1.3c0.4-0.5,0.9-0.8,1.7-0.8c1.2,0,1.9,0.7,2.1,2L52.8,76.7z
		"/>
	<path d="M77.4,64.4c0.6,0,1.1,0.2,1.6,0.5c1,0.6,1.5,1.5,1.5,2.7c0,0.8-0.3,1.6-0.9,2.2c-0.6,0.7-1.4,1-2.4,1c-0.5,0-1-0.1-1.5-0.4
		c-1.1-0.6-1.7-1.6-1.7-2.8c0-1,0.4-1.8,1.1-2.4C75.9,64.6,76.6,64.4,77.4,64.4z M79.9,75.4v17.1c0,0.5-0.2,1-0.5,1.3
		c-0.5,0.6-1.2,0.9-2.1,0.9c-1,0-1.8-0.4-2.2-1.1c-0.2-0.3-0.3-0.7-0.3-1.1V75.4c0-0.8,0.3-1.4,1-1.8c0.5-0.3,1-0.4,1.5-0.4
		c0.7,0,1.2,0.2,1.8,0.6C79.7,74.1,79.9,74.7,79.9,75.4z"/>
	<path d="M90.4,73.6v-4.4c0-0.5,0.2-1,0.5-1.4c0.5-0.5,1.2-0.8,2-0.8c1,0,1.7,0.4,2.2,1.1c0.2,0.3,0.3,0.7,0.3,1.1v4.4h4.1
		c0.5,0,0.9,0.2,1.2,0.5c0.4,0.4,0.5,0.9,0.5,1.6c0,0.8-0.3,1.4-0.9,1.8c-0.2,0.1-0.5,0.2-0.8,0.2h-4.1v14.7c0,0.5-0.2,1-0.5,1.3
		c-0.5,0.6-1.2,0.8-2.1,0.8c-1,0-1.7-0.4-2.2-1.1c-0.2-0.3-0.3-0.7-0.3-1.1V77.8h-4.1c-0.4,0-0.7-0.1-1-0.4c-0.5-0.4-0.7-1-0.7-1.7
		c0-0.9,0.3-1.5,0.9-1.8c0.2-0.2,0.5-0.2,0.8-0.2H90.4z"/>
</g>
<g>
	<path d="M64,14c27.6,0,50,22.4,50,50s-22.4,50-50,50S14,91.6,14,64S36.4,14,64,14 M64,4C30.9,4,4,30.9,4,64s26.9,60,60,60
		s60-26.9,60-60S97.1,4,64,4L64,4z"/>
</g>
</svg>
