<?xml version="1.0" encoding="utf-8"?>
<!-- Generator: Adobe Illustrator 27.0.1, SVG Export Plug-In . SVG Version: 6.00 Build 0)  -->
<svg version="1.1" id="m" xmlns="http://www.w3.org/2000/svg" xmlns:xlink="http://www.w3.org/1999/xlink" x="0px" y="0px"
	 viewBox="0 0 128 128" style="enable-background:new 0 0 128 128;" xml:space="preserve">
<style type="text/css">
	.st0{fill-rule:evenodd;clip-rule:evenodd;fill:#1B1F23;}
	.st1{fill:#FFFFFF;}
</style>
<g>
	<path class="st0" d="M20.1,59c-4.8,2.8-4.8,7.3,0,10l98.7,57c4.8,2.8,8.7,0.5,8.7-5L127.4,7c0-5.5-3.9-7.7-8.7-5L20.1,59z"/>
</g>
<g>
	<path class="st0" d="M11,122.2c0,2.8-2.2,5-5,5l0,0c-2.8,0-5-2.2-5-5V5.8c0-2.8,2.2-5,5-5l0,0c2.8,0,5,2.2,5,5V122.2z"/>
</g>
<g>
	<path class="st1" d="M65.7,44.3l0.5,43.8c0,0.8-0.2,1.5-0.5,2.1c-0.9,1.5-2.5,2.2-4.7,2.2c-1.7,0-3.1-0.5-4.1-1.5
		c-0.8-0.8-1.1-1.7-1.1-2.9V40.8c0-2.7,0.9-4.9,2.8-6.4c1.6-1.4,3.8-2.1,6.3-2.1c4.6,0,7.7,2.3,9.2,6.8l13,38.4l13-38.4
		c1.5-4.5,4.6-6.8,9.3-6.8c3,0,5.3,0.9,7,2.8c1.4,1.5,2.1,3.5,2.1,5.8v47.3c0,1.1-0.4,2.1-1.1,2.8c-1,1-2.4,1.5-4.1,1.5
		c-1.8,0-3.2-0.5-4.3-1.6c-0.7-0.7-1-1.6-1-2.7l0.5-43.8L94,85.6c-0.4,1.1-0.9,2-1.6,2.9c-1.4,1.7-3.2,2.6-5.4,2.6
		c-3.4,0-5.7-1.8-7-5.4L65.7,44.3z"/>
</g>
</svg>
