<?xml version="1.0" encoding="utf-8"?>
<!-- Generator: Adobe Illustrator 27.0.1, SVG Export Plug-In . SVG Version: 6.00 Build 0)  -->
<svg version="1.1" xmlns="http://www.w3.org/2000/svg" xmlns:xlink="http://www.w3.org/1999/xlink" x="0px" y="0px"
	 viewBox="0 0 256 256" style="enable-background:new 0 0 256 256;" xml:space="preserve">
<style type="text/css">
	.st0{fill:none;stroke:#000000;stroke-width:10;stroke-linecap:round;stroke-linejoin:round;}
	.st1{fill:none;stroke:#000000;stroke-width:15;stroke-linecap:round;stroke-linejoin:round;stroke-miterlimit:10;}
</style>
<g id="レイヤー_1">
	<g>
		<path d="M128,99c27,0,49,22,49,49s-22,49-49,49s-49-22-49-49S101,99,128,99 M128,84c-35.3,0-64,28.7-64,64s28.7,64,64,64
			s64-28.7,64-64S163.3,84,128,84L128,84z"/>
	</g>
	<g>
		<g>
			<path class="st0" d="M188.3,70.8c12.3,9.6,22.4,22.2,29.2,37.4c22,49.4-0.2,107.4-49.7,129.4s-107.4-0.2-129.4-49.7
				S38.7,80.5,88.1,58.5"/>
			<g>
				<polygon points="190.6,94.5 193.3,74.5 209.5,62.6 162.3,56.2 				"/>
			</g>
		</g>
	</g>
	<line class="st1" x1="73" y1="148" x2="183" y2="148"/>
	<line class="st1" x1="128" y1="93" x2="128" y2="203"/>
</g>
<g id="レイヤー_2">
	<g>
		<g>
			<path d="M135.3,10.6c-3.2-1.4-6.5-2.2-9.8-2.5c10.1,8.9,13.7,23.6,8.1,36.6s-18.9,20.4-32.3,19.2c2.5,2.2,5.3,4.1,8.5,5.4
				c16.2,7,35.1-0.4,42.1-16.7S151.5,17.6,135.3,10.6z"/>
		</g>
	</g>
	<g>
	</g>
	<g>
	</g>
	<g>
	</g>
	<g>
	</g>
	<g>
	</g>
	<g>
	</g>
	<g>
	</g>
	<g>
	</g>
	<g>
	</g>
	<g>
	</g>
	<g>
	</g>
	<g>
	</g>
	<g>
	</g>
	<g>
	</g>
	<g>
	</g>
	<g>
	</g>
</g>
</svg>
