<?xml version="1.0" encoding="utf-8"?>
<!-- Generator: Adobe Illustrator 28.0.0, SVG Export Plug-In . SVG Version: 6.00 Build 0)  -->
<svg version="1.1" id="レイヤー_1" xmlns="http://www.w3.org/2000/svg" xmlns:xlink="http://www.w3.org/1999/xlink" x="0px"
	 y="0px" viewBox="0 0 256 256" style="enable-background:new 0 0 256 256;" xml:space="preserve">
<style type="text/css">
	.st0{fill:none;stroke:#000000;stroke-width:26.0229;stroke-linecap:round;stroke-linejoin:round;}
	.st1{fill:#231815;}
</style>
<g>
	<path class="st0" d="M179.9,57.3c10.7,8.3,19.4,19.3,25.3,32.4c19.1,42.9-0.2,93.2-43.1,112.2S69,201.8,49.9,158.8
		S50.1,65.7,93,46.6"/>
	<g>
		<path d="M178.2,90.1c-1.1,0-2.2-0.5-2.9-1.5l-36.9-49.9c-0.9-1.2-0.9-2.7-0.2-4c0.7-1.1,1.8-1.8,3.1-1.8c0.2,0,0.3,0,0.5,0
			l61.5,8.3c1.5,0.2,2.7,1.3,3,2.7c0.4,1.4-0.2,2.9-1.4,3.8l-19.9,14.6l-3.3,24.5c-0.2,1.5-1.3,2.7-2.7,3
			C178.8,90,178.5,90.1,178.2,90.1z"/>
		<path class="st1" d="M141.3,36.6l61.5,8.3l-21.1,15.5l-3.5,26L141.3,36.6 M141.3,29.3c-2.5,0-4.9,1.3-6.2,3.5
			c-1.5,2.5-1.3,5.6,0.4,8l36.9,49.9c1.4,1.9,3.6,2.9,5.8,2.9c0.6,0,1.2-0.1,1.8-0.2c2.9-0.7,5-3.1,5.4-6l3.1-23l18.6-13.7
			c2.4-1.7,3.5-4.8,2.7-7.6c-0.7-2.9-3.1-5-6-5.4l-61.5-8.3C142,29.4,141.6,29.3,141.3,29.3L141.3,29.3z"/>
	</g>
</g>
</svg>
