<?xml version="1.0" encoding="UTF-8"?>
<svg id="_レイヤー_1" data-name="レイヤー_1" xmlns="http://www.w3.org/2000/svg" version="1.1" viewBox="0 0 256 256">
  <!-- Generator: Adobe Illustrator 29.4.0, SVG Export Plug-In . SVG Version: 2.1.0 Build 152)  -->
  <defs>
    <style>
      .st0 {
        fill: none;
        stroke: #000;
        stroke-miterlimit: 10;
        stroke-width: 15px;
      }
    </style>
  </defs>
  <path d="M128,18c29.4,0,57,11.4,77.8,32.2,20.8,20.8,32.2,48.4,32.2,77.8s-11.4,57-32.2,77.8c-20.8,20.8-48.4,32.2-77.8,32.2s-57-11.4-77.8-32.2c-20.8-20.8-32.2-48.4-32.2-77.8s11.4-57,32.2-77.8c20.8-20.8,48.4-32.2,77.8-32.2M128,3C59,3,3,59,3,128s56,125,125,125,125-56,125-125S197,3,128,3h0Z"/>
  <path d="M128,18c10.6,0,21.8,10.3,30.8,28.3,10.8,21.6,16.7,50.6,16.7,81.7s-5.9,60.1-16.7,81.7c-9,18-20.2,28.3-30.8,28.3s-21.8-10.3-30.8-28.3c-10.8-21.6-16.7-50.6-16.7-81.7s5.9-60.1,16.7-81.7c9-18,20.2-28.3,30.8-28.3M128,3c-34.5,0-62.5,56-62.5,125s28,125,62.5,125,62.5-56,62.5-125S162.5,3,128,3h0Z"/>
  <line class="st0" x1="5.5" y1="128" x2="250.5" y2="128"/>
  <line class="st0" x1="30.5" y1="64" x2="225.5" y2="64"/>
  <line class="st0" x1="30.5" y1="192" x2="225.5" y2="192"/>
  <line class="st0" x1="128" y1="250.5" x2="128" y2="5.5"/>
</svg>