<?xml version="1.0" encoding="utf-8"?>
<!-- Generator: Adobe Illustrator 27.0.1, SVG Export Plug-In . SVG Version: 6.00 Build 0)  -->
<svg version="1.1" id="y" xmlns="http://www.w3.org/2000/svg" xmlns:xlink="http://www.w3.org/1999/xlink" x="0px" y="0px"
	 viewBox="0 0 128 128" style="enable-background:new 0 0 128 128;" xml:space="preserve">
<style type="text/css">
	.st0{fill-rule:evenodd;clip-rule:evenodd;fill:#1B1F23;}
	.st1{fill:#FFFFFF;}
</style>
<g>
	<path class="st0" d="M20.1,59c-4.8,2.8-4.8,7.3,0,10l98.7,57c4.8,2.8,8.7,0.5,8.7-5L127.4,7c0-5.5-3.9-7.7-8.7-5L20.1,59z"/>
</g>
<g>
	<path class="st0" d="M11,122.2c0,2.8-2.2,5-5,5l0,0c-2.8,0-5-2.2-5-5V5.8c0-2.8,2.2-5,5-5l0,0c2.8,0,5,2.2,5,5V122.2z"/>
</g>
<g>
	<path class="st1" d="M84.6,67.8L65.1,42.2c-0.8-1.1-1.2-2.3-1.2-3.5c0-1.5,0.7-2.8,2-3.9c1.2-1,2.5-1.5,4-1.5
		c1.8,0,3.3,0.8,4.5,2.3L90,57.3l15.7-21.6c1.2-1.6,2.7-2.4,4.6-2.4c1.2,0,2.3,0.4,3.3,1.1c1.7,1.2,2.6,2.7,2.6,4.5
		c0,1.1-0.4,2.3-1.2,3.4L95.4,67.8v21.1c0,1.2-0.4,2.3-1.3,3c-1.1,1-2.5,1.4-4.2,1.4c-2.2,0-3.8-0.8-4.8-2.3
		c-0.4-0.6-0.6-1.4-0.6-2.2V67.8z"/>
</g>
</svg>
