<?xml version="1.0" encoding="utf-8"?>
<!-- Generator: Adobe Illustrator 27.0.1, SVG Export Plug-In . SVG Version: 6.00 Build 0)  -->
<svg version="1.1" id="レイヤー_1" xmlns="http://www.w3.org/2000/svg" xmlns:xlink="http://www.w3.org/1999/xlink" x="0px"
	 y="0px" viewBox="0 0 256 256" style="enable-background:new 0 0 256 256;" xml:space="preserve">
<style type="text/css">
	.st0{fill:none;stroke:#000000;stroke-width:10;stroke-linecap:round;stroke-linejoin:round;}
	.st1{fill:none;stroke:#000000;stroke-width:7;stroke-linecap:round;stroke-linejoin:round;stroke-miterlimit:10;}
</style>
<g>
	<path d="M128,99c27,0,49,22,49,49s-22,49-49,49s-49-22-49-49S101,99,128,99 M128,84c-35.3,0-64,28.7-64,64s28.7,64,64,64
		s64-28.7,64-64S163.3,84,128,84L128,84z"/>
</g>
<g>
	<circle cx="128" cy="148" r="24"/>
</g>
<g>
	<g>
		<path class="st0" d="M188.3,70.8c12.3,9.6,22.4,22.2,29.2,37.4c22,49.4-0.2,107.4-49.7,129.4s-107.4-0.2-129.4-49.7
			S38.7,80.5,88.1,58.5"/>
		<g>
			<polygon points="190.6,94.5 193.3,74.5 209.5,62.6 162.3,56.2 			"/>
		</g>
	</g>
</g>
<g>
	<path d="M128,15c13.8,0,25,11.2,25,25s-11.2,25-25,25s-25-11.2-25-25S114.2,15,128,15 M128,8c-17.7,0-32,14.3-32,32
		c0,17.7,14.3,32,32,32s32-14.3,32-32C160,22.3,145.7,8,128,8L128,8z"/>
</g>
<line class="st1" x1="101.3" y1="40" x2="154.7" y2="40"/>
<line class="st1" x1="128" y1="13.3" x2="128" y2="66.7"/>
<g>
</g>
<g>
</g>
<g>
</g>
<g>
</g>
<g>
</g>
<g>
</g>
<g>
</g>
<g>
</g>
<g>
</g>
<g>
</g>
<g>
</g>
<g>
</g>
<g>
</g>
<g>
</g>
<g>
</g>
<g>
</g>
</svg>
