<?xml version="1.0" encoding="utf-8"?>
<!-- Generator: Adobe Illustrator 28.0.0, SVG Export Plug-In . SVG Version: 6.00 Build 0)  -->
<svg version="1.1" id="icon" xmlns="http://www.w3.org/2000/svg" xmlns:xlink="http://www.w3.org/1999/xlink" x="0px" y="0px"
	 viewBox="0 0 256 256" style="enable-background:new 0 0 256 256;" xml:space="preserve">
<style type="text/css">
	.st0{fill:#CAC4BE;}
	.st1{fill:#555555;}
</style>
<g>
	<path class="st0" d="M30,166.9c-11,0-20-9-20-20v-37.8c0-11,9-20,20-20h196c11,0,20,9,20,20v37.8c0,11-9,20-20,20H30z"/>
	<path class="st1" d="M226,99.1c5.4,0,10,4.6,10,10v37.8c0,5.4-4.6,10-10,10H30c-5.4,0-10-4.6-10-10v-37.8c0-5.4,4.6-10,10-10H226
		 M226,79.1H30c-16.5,0-30,13.5-30,30v37.8c0,16.5,13.5,30,30,30h196c16.5,0,30-13.5,30-30v-37.8C256,92.6,242.5,79.1,226,79.1
		L226,79.1z"/>
</g>
</svg>
