<?xml version="1.0" encoding="utf-8"?>
<!-- Generator: Adobe Illustrator 28.0.0, SVG Export Plug-In . SVG Version: 6.00 Build 0)  -->
<svg version="1.1" id="icon" xmlns="http://www.w3.org/2000/svg" xmlns:xlink="http://www.w3.org/1999/xlink" x="0px" y="0px"
	 viewBox="0 0 256 256" style="enable-background:new 0 0 256 256;" xml:space="preserve">
<style type="text/css">
	.st0{fill:#CAC4BE;}
	.st1{fill:#555555;}
</style>
<g>
	<path class="st0" d="M30,87.8c-11,0-20-9-20-20V30c0-11,9-20,20-20h196c11,0,20,9,20,20v37.8c0,11-9,20-20,20H30z"/>
	<path class="st1" d="M226,20c5.4,0,10,4.6,10,10v37.8c0,5.4-4.6,10-10,10H30c-5.4,0-10-4.6-10-10V30c0-5.4,4.6-10,10-10H226 M226,0
		H30C13.5,0,0,13.5,0,30v37.8c0,16.5,13.5,30,30,30h196c16.5,0,30-13.5,30-30V30C256,13.5,242.5,0,226,0L226,0z"/>
</g>
<g>
	<path class="st0" d="M55,246c-11,0-20-9-20-20V107.8c0-11,9-20,20-20h20c11,0,20,9,20,20V226c0,11-9,20-20,20H55z"/>
	<path class="st1" d="M75,97.8c5.4,0,10,4.6,10,10V226c0,5.4-4.6,10-10,10H55c-5.4,0-10-4.6-10-10V107.8c0-5.4,4.6-10,10-10H75
		 M75,77.8H55c-16.5,0-30,13.5-30,30V226c0,16.5,13.5,30,30,30h20c16.5,0,30-13.5,30-30V107.8C105,91.3,91.5,77.8,75,77.8L75,77.8z"
		/>
</g>
<g>
	<path class="st0" d="M175,246c-11,0-20-9-20-20V107.8c0-11,9-20,20-20h20c11,0,20,9,20,20V226c0,11-9,20-20,20H175z"/>
	<path class="st1" d="M195,97.8c5.4,0,10,4.6,10,10V226c0,5.4-4.6,10-10,10h-20c-5.4,0-10-4.6-10-10V107.8c0-5.4,4.6-10,10-10H195
		 M195,77.8h-20c-16.5,0-30,13.5-30,30V226c0,16.5,13.5,30,30,30h20c16.5,0,30-13.5,30-30V107.8C225,91.3,211.5,77.8,195,77.8
		L195,77.8z"/>
</g>
</svg>
