<?xml version="1.0" encoding="utf-8"?>
<!-- Generator: Adobe Illustrator 28.0.0, SVG Export Plug-In . SVG Version: 6.00 Build 0)  -->
<svg version="1.1" id="icon" xmlns="http://www.w3.org/2000/svg" xmlns:xlink="http://www.w3.org/1999/xlink" x="0px" y="0px"
	 viewBox="0 0 256 256" style="enable-background:new 0 0 256 256;" xml:space="preserve">
<style type="text/css">
	.st0{fill:#CAC4BE;}
	.st1{fill:#555555;}
</style>
<g>
	<path class="st0" d="M30,128c-11,0-20-9-20-20V70.2c0-11,9-20,20-20h196c11,0,20,9,20,20V108c0,11-9,20-20,20H30z"/>
	<path class="st1" d="M226,60.2c5.4,0,10,4.6,10,10V108c0,5.4-4.6,10-10,10H30c-5.4,0-10-4.6-10-10V70.2c0-5.4,4.6-10,10-10H226
		 M226,40.2H30c-16.5,0-30,13.5-30,30V108c0,16.5,13.5,30,30,30h196c16.5,0,30-13.5,30-30V70.2C256,53.7,242.5,40.2,226,40.2
		L226,40.2z"/>
</g>
<g>
	<path class="st0" d="M30,205.8c-11,0-20-9-20-20V148c0-11,9-20,20-20h196c11,0,20,9,20,20v37.8c0,11-9,20-20,20H30z"/>
	<path class="st1" d="M226,138c5.4,0,10,4.6,10,10v37.8c0,5.4-4.6,10-10,10H30c-5.4,0-10-4.6-10-10V148c0-5.4,4.6-10,10-10H226
		 M226,118H30c-16.5,0-30,13.5-30,30v37.8c0,16.5,13.5,30,30,30h196c16.5,0,30-13.5,30-30V148C256,131.5,242.5,118,226,118L226,118z
		"/>
</g>
</svg>
