<?xml version="1.0" encoding="utf-8"?>
<!-- Generator: Adobe Illustrator 27.0.1, SVG Export Plug-In . SVG Version: 6.00 Build 0)  -->
<svg version="1.1" id="layer" xmlns="http://www.w3.org/2000/svg" xmlns:xlink="http://www.w3.org/1999/xlink" x="0px" y="0px"
	 viewBox="0 0 1280 944" style="enable-background:new 0 0 1280 944;" xml:space="preserve">
<style type="text/css">
	.st0{fill:#D4E5C2;}
</style>
<path class="st0" d="M1033,2c-4,1-8.9,1.6-10.6,1.3c-2.2-0.4-6.1,0.5-11.9,2.6c-8.7,3.1-15.2,3.9-18.4,2.1c-2.2-1.1-3.9,0.6-10.1,10
	c-2.3,3.6-5.3,7.4-6.6,8.5c-2,1.7-2.2,2.5-1.5,5c0.6,2.3,1.3,2.9,3,2.8c3.3-0.4,6.1,1.5,6.1,4c0,1.2,1.1,3.9,2.5,5.9
	s2.5,4.5,2.5,5.4c0,2.1-4.7,10.4-5.9,10.4c-1.6,0-10.2,8.2-11.7,11.2c-0.8,1.6-1.9,5.5-2.4,8.5c-0.5,3.1-2.1,7.3-3.5,9.3
	s-2.5,4.3-2.5,5.2s-1.1,2.9-2.3,4.5c-1.3,1.5-2.6,3.7-2.9,4.8c-0.3,1.1-0.9,2.8-1.3,3.7c-0.5,1.4-0.2,1.8,1.4,1.8
	c2.5,0,2.5,0.3,0.5,6.3c-1.4,4.2-2,4.8-5.7,5.7c-8.7,2.3-10.9,3.3-14,6.4c-1.8,1.7-4.9,4.4-6.9,5.9l-3.6,2.8l-10.8-5
	c-5.9-2.8-11.2-5.1-11.8-5.1c-4.2,0-17.6,33-17.6,43.3c0,3.4-0.4,4.7-1.7,5.2c-3,1.1-7.5,7.2-6.9,9.3c0.4,1.1,2.9,3.8,5.7,6.2l5,4.2
	l4.7-2c2.6-1.1,7.4-2.3,10.6-2.7c5.2-0.7,6.5-0.5,10.3,1.6l4.3,2.4l4.6-4.8c5.2-5.3,6.6-5.6,14.4-2.6c10.8,4.1,11.8,4.8,14.5,10.5
	c2.4,5,5.3,7.7,13,12c3.3,1.8,3.3,10.3,0,17c-3.2,6.5-5.1,6.9-9.3,1.9c-5.8-7.1-17.7-7.5-25.4-1c-3.3,2.8-5.8,3.1-8.8,1.3
	c-1-0.7-2-1-2.2-0.8c-0.2,0.3-1.2,2.3-2.3,4.5c-2,4-2.1,4-7.7,4c-5.2,0-6,0.3-10.3,4.2c-4.6,4.1-4.7,4.4-4.3,8.8
	c0.5,3.8,0.2,4.8-1.5,6c-1.2,0.8-3,1.5-4,1.5c-1.1,0-3.1,1.3-4.6,2.9c-1.6,1.7-5.1,3.6-8.4,4.7c-5.7,1.8-5.7,1.8-8.8-0.5
	c-4.6-3.4-6.8-2.5-11.9,5.2c-3.6,5.4-5.7,7.5-10.7,10.3c-10.8,6-19,5.8-27.3-0.7c-6.8-5.4-10.8-6-15.9-2.5c-2.1,1.5-4.4,3.9-5.1,5.4
	c-2,4.2-5,12.5-5,13.8c0,0.6,2.9,4.3,6.4,8.1l6.5,6.9l-3.7,4.9c-2.5,3.3-4.7,5.1-6.7,5.5c-5.5,1.2-9.3,3.9-16.2,11.7
	c-11.5,13-11.5,12.9-16.7,13.7c-2.7,0.4-6,1.4-7.2,2.3c-1.9,1.2-6.6,1.5-24.1,1.7l-21.8,0.2l-16,6c-17.2,6.5-21.2,8.4-28.9,13.9
	c-4.5,3.3-5.3,3.5-9.5,2.9c-5.2-0.8-6.4-1.9-5.6-5.2c0.6-2.6,0.8-2.6-4.5-0.7c-7.5,2.6-13.6,2-22.7-2.4c-4.5-2.2-10.3-4.3-13-4.7
	c-7.1-1-9.4-2.1-13.9-6.5c-3.3-3.2-5.6-4.4-12-6.1c-7-1.9-10.7-2.2-31.9-2.3c-18.8-0.1-26.1-0.5-33.5-2c-6.3-1.2-14.4-1.8-24.2-1.9
	l-14.7-0.1l-5.5-6.2c-3.5-3.8-5.9-7.4-6.3-9.5c-0.3-1.8-1.6-5.1-2.8-7.3c-1.3-2.2-2.6-5.3-2.9-6.8c-0.4-1.6-1.9-4-3.3-5.3
	c-2.3-2.1-2.5-2.7-1.5-4.9c1.1-2.5,1.1-2.5-3.7-2.5c-4.2,0-5.7-0.6-11.2-4.6c-3.5-2.6-8.1-6.2-10.1-8c-9-8-11-8.8-26.3-9.6
	c-24.4-1.3-36-2.5-38.9-3.9c-1.8-0.9-4-3.6-5.8-7l-2.9-5.6l4.6-9.1c4-7.7,4.5-9.3,3.5-11.2c-0.7-1.4-0.9-4.3-0.5-8.3
	c0.6-5.6,0.4-6.8-2.4-12.6c-1.6-3.5-4.1-7.6-5.5-9c-1.3-1.4-4-6.4-5.9-11.1l-3.5-8.5l-4.7-0.3c-4-0.3-4.9-0.8-6.3-3.3
	c-1.8-3.1-2.5-3.4-10.7-4.4c-4.4-0.6-5.6-1.3-10-5.9c-2.8-2.9-6.6-6.1-8.5-7.1c-4-2-5-3.3-4.3-5.1c0.2-0.7-0.7-2-2-2.9
	c-3.6-2.3-3.9-3.9-1.7-9.1l2-4.6l-4.2,0.4c-2.4,0.3-6.3,1-8.8,1.6c-2.5,0.7-5.7,1.4-7.2,1.7c-3.8,0.7-5.8,3.1-5.8,7.2
	c0,4-4.2,10.6-7.8,12.2c-1.3,0.6-4,1.1-6.2,1.1c-3.9,0-6,1.4-8.2,5.3c-1.5,2.8-1.4,19.8,0.1,25.5c1.1,4,1,4.5-1.6,8.5
	c-2.4,3.5-3.5,4.3-7.1,4.8c-2.3,0.3-5.2,1.5-6.5,2.7c-2.9,2.8-3.5,2.8-3.9-0.1c-0.3-2.1-0.9-2.2-10.8-2.8
	c-11.3-0.7-13.4-1.2-19.4-5.4c-3.8-2.6-4.1-2.6-5.3-0.9c-0.7,1-1.3,3-1.3,4.4c0,3.5-5,18.4-9.9,29.6c-2.2,5-4.3,10.7-4.6,12.7
	c-0.6,3.3-0.4,3.9,2.4,6.3c2.5,2.1,3.1,3.3,3.1,6.5c0,4.1-0.9,4.9-3,2.4c-0.9-1.1-2.5-1.3-6.5-0.9c-4.7,0.6-5.4,0.4-6.4-1.5
	c-1.5-2.7-4.1-2.7-13.5,0.4c-4.2,1.4-8.7,2.5-9.9,2.5c-1.2,0.1-4,0.9-6.2,2s-4.7,1.9-5.6,2c-1.6,0-2.9,1.9-2.9,4.1
	c0,0.5,1.8,0.9,3.9,0.9c2.2,0,4.2,0.4,4.5,0.8c0.3,0.5,0,3.8-0.7,7.5c-1.2,7.5-0.1,16,3.3,23.2c6,13,7.3,18.8,4.5,19.1
	c-4.1,0.6-5.6,1.8-5.1,4c0.5,1.9,0,2.5-3.5,4.1l-4.1,1.8l0.8,5.5c1.1,7.7,1.1,12.3,0.1,13.7c-0.5,0.7-2.4,1.5-4.2,1.9
	c-1.8,0.3-4.6,1.9-6.1,3.5c-1.5,1.6-4.6,3.4-6.9,4c-5.4,1.5-9.5,4.1-18.8,12.1c-6.3,5.4-8.6,6.8-11.2,6.8c-1.8,0-5.2,0.7-7.6,1.6
	s-7,1.9-10.3,2.3l-5.8,0.6l-2,5c-2.4,6.3-4.2,7.8-11.3,9.5c-5.7,1.4-5.8,1.4-7.9-1.2c-1.1-1.4-2.6-3.3-3.1-4.3
	c-1-1.6-1.8-1.4-10.4,2.9c-5.1,2.6-10.6,6-12.1,7.6c-1.6,1.7-3.8,3-5.2,3c-1.2,0-2.8,0.4-3.4,0.8c-1.6,1-4.6,8.3-4,9.8
	c0.6,1.6-2.9,6.1-5.4,6.9c-2.4,0.8-2.5,3-0.5,6.8c0.9,1.7,1.1,3.5,0.6,4.9C1.2,446.7,4.7,456,6.6,456c0.6,0,2.7-0.6,4.6-1.4
	c3.2-1.4,3.8-1.3,8.6,1.2c5,2.6,6.6,5.2,4.1,6.8c-1.4,0.8-0.3,5.2,2.1,8.5c1.6,2.3,1.7,3.2,0.8,5.7c-1,2.5-0.8,3.3,1,5.7
	c2.6,3.2,2.7,4.3,0.8,6.4c-0.7,0.9-1.6,3.3-1.9,5.3c-0.5,3.5-0.4,3.7,3.4,5.2c2.2,0.9,5,1.6,6.3,1.6s2.6,0.7,3,1.5
	c0.3,0.8,1.4,1.5,2.5,1.5s3.6,1.9,5.6,4.5c2.9,3.5,3.6,5,3.1,7c-0.3,1.4-0.2,3.3,0.4,4.2c0.5,1,1.5,3.1,2,4.7c1,2.7,1.3,2.8,5,2.2
	c3.5-0.5,4.1-0.3,5.6,2c2.4,3.6,8.2,6.2,16.7,7.5c8.3,1.2,7-0.2,16.2,18.9c3.5,7.3,5.7,10.6,9.7,14.1c5,4.4,5.2,4.8,4,7.3
	c-2.2,4.8-1.9,5.8,6.2,21.6c4.7,9,5.3,12.3,2.7,14.9c-2.9,2.9-4.7,2.6-8.5-1.5c-3.3-3.6-3.3-3.6-6.5-2c-1.7,0.9-3.1,2-3.1,2.4
	c0.1,1.6,3.7,11.2,4.7,12.4c1.5,1.8,2.1,4.2,3.2,12.2c1,7.3,2,8.6,6.3,8.6c1.4,0,4,1.1,5.6,2.5c1.8,1.5,4.2,2.5,6.1,2.5
	c2.4,0,4.4,1.3,9.3,6c3.5,3.3,7.9,6.5,9.8,7.1c1.9,0.6,4,1.6,4.5,2.3c1.6,1.8,8.3,6.6,9.2,6.6c0.4,0,2.3-2.3,4.1-5.1
	c3.2-4.9,3.5-5.1,7-4.5c6,1.1,8.6,2.5,10.3,5.5c0.9,1.6,5.2,5.6,9.5,8.9c13,10,14.2,11.2,14.9,14.2c0.4,1.6,1,3.2,1.3,3.4
	c0.4,0.2,3-0.6,5.7-1.9c7.1-3.4,8.5-3.2,8.5,0.7c0.1,4.8,5.5,10.4,12.7,13.3c3.9,1.6,6.2,3.2,7.1,5s2.1,2.6,3.5,2.4
	c1.2-0.1,3.9,0.6,5.9,1.5c2.1,0.9,4.4,1.6,5.2,1.6s3.6,1.1,6.2,2.5s6.1,2.5,7.8,2.5c1.7,0,6.4,0.9,10.4,2c3.9,1.1,8.6,2,10.4,2
	c5.5,0,17.4-2.6,19.9-4.4c4-2.7,6.8-2.1,8.5,2.1c1.4,3.3,1.4,4-0.2,7.5c-1.3,2.9-1.5,4.6-0.8,6.6c1.2,3.5,2.6,3.4,3.5-0.1
	c0.4-1.6,2.3-4.7,4.2-7c1.9-2.3,3.8-5.6,4.4-7.2c0.7-2.2,2.5-3.8,6.9-6.2c8.6-4.6,10.7-4.9,13.7-1.9c2.6,2.6,8.3,4.6,13.2,4.6
	c1.7,0,4.6,0.3,6.7,0.6c3.3,0.6,3.7,0.9,4.2,4.8c0.9,5.8,1.7,6.7,6.7,7.3c2.4,0.3,4.7,1.1,5.1,1.7c0.4,0.6,1,3.6,1.4,6.8
	c0.7,6.4,1.3,6.8,10,6.8c6.9,0,18.2-4,25.1-8.9c3.7-2.8,6.7-4.1,8.8-4.1c3.3,0,10-4.1,12.6-7.7c2-2.8,6.1-5.3,8.5-5.3
	c1.1,0,2.9-0.9,3.9-2s3-2,4.5-2s4.6-1.4,6.9-3.1c2.4-1.7,4.4-2.9,4.6-2.7c0.1,0.2,1,1.8,1.9,3.5c0.9,1.8,2,3.3,2.4,3.3
	c0.5,0,2.3-1.6,4.2-3.5s3.9-3.5,4.5-3.5s2.6,1.6,4.5,3.5c4.5,4.6,6.4,4.5,8-0.5c1.9-5.6,2.9-6.3,7.8-4.6c6.8,2.4,9.2,4.5,9.2,8
	c0.1,3.9,2.4,12.7,3.3,12.6c0.4,0,1.4-0.3,2.2-0.7c0.9-0.3,2.6,0.4,3.9,1.6c3.3,3.1,4.2,17,1.6,25.1c-1,3-2.6,8.4-3.6,11.9
	c-1.5,5.5-2.6,7.2-8.8,13.5c-5.3,5.3-7.5,8.4-8.9,12.2c-1.9,5.9-2.2,9-0.7,9.9c0.7,0.4,0.8,3.1,0.4,7.3l-0.7,6.7l2.4-2.1
	c4-3.6,6.5-4.4,13.7-4.4h7l0.6,4.2c0.3,2.4,0.9,6.7,1.2,9.6c0.7,6,3.1,8.5,9.5,10.2c4.7,1.3,5.6,2.6,3.4,4.9c-1,1.2-1.4,2.7-1,4.4
	c0.4,1.5,0,3.7-0.9,5.5c-2.9,5.7-2.3,6.9,4,7.5s6.3,0.7,6.8,3.4c0.2,1,1.1,3.5,1.9,5.5c1.3,3,2.2,3.8,5,4.3c4.7,0.9,8.7-0.1,12.7-3
	s5-2.4,8.5,4.6c1.8,3.5,3,4.7,4.7,4.7c1.3,0,3.2,0.3,4.3,0.6c1.9,0.7,2,0.3,2-6.1c0-3.7-0.5-7.5-1-8.3s-1-4.1-1-7.2v-5.7l6-0.3
	c5.7-0.3,6.1-0.5,8.4-4l2.3-3.6l3.7,1.5c2,0.8,4.5,2.3,5.7,3.4c2.9,2.7,4,2.4,7.9-1.8l3.4-3.7l3.6,1.7c3.2,1.5,3.9,1.6,6.5,0.2
	c1.6-0.8,4.5-1.5,6.3-1.5c4,0,11.1-3.7,13.3-6.9c0.9-1.2,3.3-3.3,5.5-4.7l3.9-2.5l2.5,2.8c1.3,1.6,2.5,3.1,2.5,3.5
	c0,0.8,4.3,2.1,14.5,4.3c11.3,2.5,12.3,3.8,7.3,10.7c-1,1.3-0.6,2.3,2.2,5.5c1.8,2.1,4.5,4.5,5.9,5.4c1.5,0.9,3.9,2.9,5.5,4.6
	c2.6,2.8,3.1,2.9,5.8,1.9c2.4-0.9,3.5-0.7,6.6,1c4.4,2.5,8.1,1.9,12.3-2.2c2.7-2.6,3-2.6,4.7-1.1c1,0.9,3,1.7,4.3,1.7
	c1.5,0,3.5,1.2,5.1,3c3.4,3.9,5.3,3.8,7.4-0.3c0.9-1.7,1.8-3.4,2-3.6c0.1-0.1,1.5,0.9,3.1,2.3c1.5,1.4,3.1,2.6,3.5,2.6
	c1.4,0,0.8,2.1-1.2,4.7c-2.4,3.1-2.5,5.9-0.4,11.5c1.8,4.5,7.9,11.8,10,11.8c0.7,0,2.2-1.2,3.3-2.6c2-2.5,2-2.5,0-4.5
	c-1-1-1.9-2.8-1.9-3.9s-0.6-2-1.4-2c-0.8,0-1.8-0.5-2.1-1c-0.7-1.2,3.4-12,4.5-12c0.4,0,2,1,3.5,2.2c2.6,2,2.9,2,4,0.5
	c1.3-1.8,10.7-4.7,15-4.7c1.3,0,3.2-1,4.2-2.3c1.5-1.9,2.5-2.2,6.5-1.9c3.7,0.3,5,0,6.8-1.8c2-2,2.2-2.1,3.5-0.4
	c1.1,1.6,1.6,1.5,5.8-2.2c2.6-2.1,4.6-4.5,4.7-5.3c0-0.7,0.6-1.1,1.5-0.7c1.2,0.4,1.5-0.4,1.5-4.4c0-6.3,1.4-7.1,4-2
	c1.1,2.2,2.5,4,3,4c1.7,0,2.2-4.3,1-8.1c-1.4-4.2-0.7-8.9,1.4-8.9c0.7,0,2.4,2.1,3.8,4.7c1.8,3.5,3.3,5.1,5.9,6.1
	c3.4,1.3,3.8,1.2,9.5-2.2c3.2-2,6.2-3.6,6.6-3.6s0.8,0.9,1,2.1c0.3,1.9,0.5,1.9,4.3-1c4.8-3.7,5.3-3.7,5.7-0.9
	c0.4,3.1,2.4,3.3,4.9,0.4c1.8-2.1,2.5-2.3,4.2-1.5c2.1,1.2,8.7-0.2,14.1-2.8c2.6-1.4,2.8-1.8,2.3-5.7c-0.3-2.3-0.9-5-1.3-5.9
	c-0.4-1.3-0.1-1.7,1.5-1.7c1.2,0,2.1-0.6,2.1-1.5c0-2.1,1.8-1.9,3.2,0.4c1.2,1.9,1.3,1.9,4.7-0.8c2-1.6,4.6-3.1,5.8-3.5
	c1.1-0.4,2.4-1.3,2.7-2.1s1.4-1.5,2.4-1.5c1.1,0,2.5-0.6,3.2-1.4c0.6-0.8,1.8-1.2,2.6-0.9s1.4,0,1.4-0.7s0.8-2.4,1.9-3.8
	c1-1.5,2-3.6,2.3-4.7c0.2-1.3,1.1-1.9,2.5-1.8c1.2,0.1,2.6-0.4,3.3-1.2c0.8-0.9,2.2-1.2,4-0.9c2.2,0.5,3.1,0.1,3.9-1.5
	c0.7-1.2,1.1-2.8,0.9-3.6c-0.3-1.6,2.2-5.1,10.4-14.1c6-6.6,8.1-11,5.8-12.4c-1-0.6-0.9-1.2,0.5-2.6c1.4-1.4,1.6-2.8,1.1-7
	c-0.3-2.9-0.1-6.5,0.5-8.3c1.1-3,1.2-3.1,3-1.5c1.7,1.5,2,1.4,5.3-1.8c2-2,3.6-4.5,3.6-5.8c0-1.5,0.5-2,1.4-1.7
	c1.8,0.7,4.2-2,5.1-5.6c0.4-1.5,1.1-3,1.6-3.3s0.9-1.4,0.9-2.5c0-1,0.7-1.9,1.5-1.9s2.1-1.5,2.9-3.4c1.1-2.7,2.3-3.7,5.6-4.7
	c5.1-1.5,6.7-3.8,7.6-10.6c0.3-2.9,1.2-5.4,2-5.7c1-0.4,1.2-1.8,0.7-5.6c-0.6-5.6,0.1-6.1,4.4-3.3l2.6,1.7l-0.7-3.7
	c-0.4-2.2-0.2-4.5,0.4-5.8c1.1-1.9,1-2-1.2-1.4c-1.2,0.4-3.3,1.3-4.5,2.1c-3.6,2.2-2.7,0.1,1.7-4.5l4.1-4.2l-3.2-2.7
	c-1.8-1.5-5.2-3.8-7.6-5.1c-4.3-2.4-4.4-2.4-9.5-0.8c-4.6,1.4-5.4,1.5-6.8,0.2c-0.9-0.8-2.9-1.5-4.3-1.5c-1.5,0-2.7-0.4-2.7-1
	c0-1,6.3-3,9.9-3c1.5,0,3.8-1.5,6-3.9c2.7-2.8,5.2-4.3,9.6-5.6c8.2-2.3,8.7-2.8,6.8-7.3c-1.7-4-3.3-5.6-7.9-7.6
	c-3.6-1.6-7.4-6.1-7.4-8.7c0-1.6,0.4-1.7,2.6-0.9c1.4,0.6,4.1,2.2,6,3.6c4.3,3.3,4.5,1.4,0.2-2.1l-3.3-2.7l4.3,0.5
	c2.3,0.3,4.2,0.3,4.2,0.1c0-2-3.6-6.6-6.5-8.4c-2.1-1.3-3.5-3-3.5-4.1s-2.2-4.4-4.9-7.2c-4.1-4.3-5.4-6.8-8-14.6
	c-1.7-5.1-3.1-10.2-3.1-11.2c0-2-8.3-18.1-10.9-21.3c-2-2.3-10.8-6.6-13.7-6.6c-1.4,0-2.4-0.8-2.8-2.3c-1-3.9-0.7-5.6,2.3-9.7
	c1.5-2.1,3.4-5.3,4.1-7c0.7-1.6,1.9-3,2.7-3c0.7,0,4.4-2.8,8.1-6.3c3.7-3.4,8.1-6.9,9.9-7.6c3-1.2,5.2-4.5,3.9-5.9
	c-0.3-0.3,0.3-1.5,1.3-2.6c1.1-1.2,2.1-2.6,2.2-3.1c0.2-0.6,2.3-1.5,4.8-2.2c6.3-1.6,13.4-4.7,14.9-6.6c0.7-0.8,3.5-1.8,6.3-2.2
	c2.7-0.4,5.6-1.4,6.4-2.2c1.7-1.6,3.8-5.4,3.3-5.7c-2.7-1.5-10.8-4.2-10.8-3.5c0,1.2-6.4,1.2-12.9-0.1c-5.7-1.1-10.9-4.4-12.2-7.8
	c-0.8-2-1.2-2.1-3.1-1.1c-1.3,0.7-4.5,3.1-7.3,5.4c-2.7,2.4-6,4.6-7.3,5c-1.7,0.5-2,1-1.2,2c1.5,1.8-0.6,3.2-6.8,4.6
	c-4.7,1.1-5.5,1-10.2-1.2l-5.2-2.4l0.7-5c0.4-3,1.6-6.3,3.2-8.3l2.5-3.3l-2.1-2.3c-1.9-2-3.5-2.4-11.5-2.9
	c-5.1-0.4-10.5-1.1-11.9-1.8c-2.7-1.2-7.7-9.4-7.7-12.5c0-4.4,2.3-9.6,5.8-12.9l3.7-3.5l2.5,2.9l2.5,2.9l4.5-2.4
	c2.5-1.2,5.8-2.3,7.3-2.4c3.8,0,9.1-5.2,8.4-8.1c-0.3-1.2-0.2-3.1,0.3-4.4c0.9-2.3,12-10.5,14.2-10.5c1.5,0,7.8-2.2,9.5-3.3
	c0.6-0.4,1.4-2.1,1.8-3.7c0.4-1.6,1.8-3.9,3.2-5s4.3-4.7,6.5-8c2.1-3.3,4.2-6,4.6-6c0.5,0,2.3,1.1,4.1,2.5c1.9,1.3,5.4,2.7,7.9,3.1
	c4.8,0.7,10.2,5.2,10.2,8.5c0,2.3-9,15.9-12.6,18.9c-1.7,1.5-2.9,3.6-3,5s-0.4,3.2-0.8,4.2c-0.6,1.2,0,1.8,2.4,2.3
	c2.5,0.5,2.9,1,2,2c-0.6,0.8-1,2.4-0.8,3.5c0.2,1.8-0.7,2.7-4.4,4.7c-2.7,1.4-4.8,2.9-4.8,3.4c0,1.8,3.7,0.8,5.9-1.5
	c1.4-1.4,3.9-2.6,6.5-3c3.6-0.6,4.6-1.3,7.4-5.6c2.3-3.5,3.9-5,5.5-5c1.2,0,3.1-0.6,4.2-1.4c1.1-0.7,3.7-1.9,5.7-2.5
	c2.1-0.7,4.4-2.1,5.1-3c0.6-1,3-2.1,5.2-2.4c2.2-0.4,6.9-1,10.5-1.5c8.5-1.3,9.6-1.8,11.1-5.3c0.7-1.8,4.2-5.3,8.3-8.4
	c3.9-3,9.4-7.2,12.3-9.4c2.8-2.3,6-4.1,7-4.1c4.4,0,12-8.6,18.8-21.3c1.4-2.6,2.7-4.7,3-4.7c0.2,0,2.8,2.1,5.6,4.6l5.3,4.7l7.4-0.7
	c6.3-0.5,16.2-3.5,16.2-4.9c0-0.3-1.1-3-2.5-6.2s-2.4-6-2.1-6.2c0.2-0.2,1.8,0.3,3.5,1.1c1.6,0.9,4,1.6,5.1,1.6
	c3,0,14.1-6.6,16.8-10.1c1.4-1.7,3.3-2.9,4.7-2.9c2.1,0,2.4-0.6,3-5.3c0.8-6.5,1.1-7,5.2-9.1c4.2-2.1,4.3-2.1,4.3,0.9
	s3.6,10.5,5,10.5c0.6,0,1-1.3,1-3c0-2.6,0.6-3.2,4.9-5.1c8.3-3.5,9.1-5,10.1-18c0.9-11.9,0.1-22.2-2.6-33.8
	c-1.7-7.5-1.5-7.7,5.9-8.7c5.2-0.7,6-1.6,7.1-7.7c0.7-3.7,0.9-3.8,3.8-3.2c1.6,0.4,5.5,1.8,8.5,3.2c6.9,3.2,14.1,4.2,15.4,2.2
	c0.5-0.8,0.9-3.1,0.9-5.1c0-3,0.6-4.2,3.4-6.3c2.6-2,3.9-4.2,5.6-9.6c1.3-3.9,3.3-8.3,4.5-9.8c3.3-3.9,4.5-6.6,4.5-10.3
	c0.1-1.8,0.7-4.4,1.5-5.8c0.8-1.4,1.4-4.4,1.5-6.6c0-2.4,0.6-4.7,1.5-5.4c0.8-0.7,1.5-3.4,1.7-6.3c0.3-4.9,0.5-5.3,4.1-7.1
	c4.9-2.4,6.5-5.6,4.9-10c-1.5-3.9-1.6-11.1-0.2-13.6c1.7-3.1-1.1-4.3-8.8-3.8c-5.9,0.4-8.4,1.3-18.7,6.7c-6.5,3.3-12.4,6.1-13.1,6.1
	s-2,1.3-2.8,2.9c-2.1,3.9-11.3,6-18.1,4.1c-2.6-0.7-6.4-1-9-0.7c-3.8,0.6-4.5,0.4-4.5-1.1c0-0.9-1.4-2.9-3.2-4.4
	c-3.1-2.5-3.3-3-3.6-11c-0.3-5.6-0.9-8.9-1.9-10c-1.1-1.2-1.4-2.9-1-5.1c0.5-3.4,0.5-3.4-3.3-3.4c-4.7,0-7.9-2.4-12.9-9.5
	c-2-2.8-5-6-6.8-7.1c-2.8-1.6-3.7-1.7-6.6-0.6c-3.2,1.1-3.8,1-8.1-1.9c-5.8-3.9-9.1-4.8-12.1-3.2c-3.4,1.8-8.3-0.9-12.3-7.1
	c-3.3-4.9-3.3-5.1-2.1-9.9c1.1-4.3,1-5.1-0.8-8.3c-1.2-1.9-2.8-5.9-3.7-8.9c-0.8-3-2.7-6.4-4-7.7c-3.1-2.9-6-11.1-5.4-15.2
	c0.3-2-0.1-3.4-1.4-4.6c-1-0.9-1.8-2.9-1.8-4.5c0-1.5-1.3-5.6-3-9.1c-1.7-3.7-2.7-7.1-2.4-8.4c0.4-1.5,0-2.3-1.5-2.8
	c-1.6-0.5-2-1.2-1.5-3.1c0.3-1.3,0.2-3-0.4-3.7c-0.5-0.6-1.2-2.4-1.6-3.9c-0.3-1.5-1.5-3.2-2.6-3.8s-2-1.7-2-2.5
	c0-0.7-1.3-2.8-2.9-4.6c-1.7-1.8-3.1-4.4-3.3-5.8c-0.3-2.7-3.2-4.5-11-7.2c-3.3-1.1-4-1-5.8,0.6c-2,1.8-2.1,1.7-7.3-1.8
	c-3-2.1-6.2-3.7-7.3-3.7c-1,0-3-0.6-4.4-1.4c-7.8-4.3-14.2-7.6-14.8-7.5C1040.8,0.2,1037.1,1,1033,2z"/>
<path class="st0" d="M762.7,906.1c-1,0.6-2.9,0.8-4.3,0.5c-1.4-0.4-3.4,0-4.8,1c-2,1.2-2.9,1.3-4.6,0.4c-2-1-2.1-1-1.6,0.8
	c0.5,1.5,0.1,2.2-1.4,2.7c-1.1,0.4-2.8,1.7-3.6,3.1c-0.9,1.3-3.2,3.3-5,4.5c-3.4,2-3.5,2.3-2.9,6.8c1.4,11,1.2,10.6,7.3,14.6
	c5.2,3.4,6,3.6,8.7,2.6c1.7-0.7,7-2.6,12-4.2c4.9-1.7,9.3-3.6,9.7-4.2c0.4-0.6,1-3.4,1.4-6.2c0.6-5,3-10.6,6.5-15.7
	c2.3-3.2,2.4-5.1,0.4-6.8c-1.3-1.1-2.2-1-5.1,0.3c-3.1,1.5-3.8,1.6-7.1,0.2c-1.9-0.8-3.6-1.5-3.7-1.5
	C764.6,905,763.7,905.5,762.7,906.1z"/>
</svg>
