<?xml version="1.0" encoding="utf-8"?>
<!-- Generator: Adobe Illustrator 27.0.1, SVG Export Plug-In . SVG Version: 6.00 Build 0)  -->
<svg version="1.1" id="layer" xmlns="http://www.w3.org/2000/svg" xmlns:xlink="http://www.w3.org/1999/xlink" x="0px" y="0px"
	 viewBox="0 0 12800 9440" style="enable-background:new 0 0 12800 9440;" xml:space="preserve">
<style type="text/css">
	.st0{fill:#D4E5C2;}
</style>
<path class="st0" d="M10330.5,21.2c-40,10-89,16-106,13c-22-4-61,5-119,26c-87,31-152,39-184,21c-22-11-39,6-101,100
	c-23,36-53,74-66,85c-20,17-22,25-15,50c6,23,13,29,30,28c33-4,61,15,61,40c0,12,11,39,25,59c14,20,25,45,25,54c0,21-47,104-59,104
	c-16,0-102,82-117,112c-8,16-19,55-24,85c-5,31-21,73-35,93s-25,43-25,52s-11,29-23,45c-13,15-26,37-29,48c-3,11-9,28-13,37
	c-5,14-2,18,14,18c25,0,25,3,5,63c-14,42-20,48-57,57c-87,23-109,33-140,64c-18,17-49,44-69,59l-36,28l-108-50c-59-28-112-51-118-51
	c-42,0-176,330-176,433c0,34-4,47-17,52c-30,11-75,72-69,93c4,11,29,38,57,62l50,42l47-20c26-11,74-23,106-27c52-7,65-5,103,16
	l43,24l46-48c52-53,66-56,144-26c108,41,118,48,145,105c24,50,53,77,130,120c33,18,33,103,0,170c-32,65-51,69-93,19
	c-58-71-177-75-254-10c-33,28-58,31-88,13c-10-7-20-10-22-8c-2,3-12,23-23,45c-20,40-21,40-77,40c-52,0-60,3-103,42
	c-46,41-47,44-43,88c5,38,2,48-15,60c-12,8-30,15-40,15c-11,0-31,13-46,29c-16,17-51,36-84,47c-57,18-57,18-88-5
	c-46-34-68-25-119,52c-36,54-57,75-107,103c-108,60-190,58-273-7c-68-54-108-60-159-25c-21,15-44,39-51,54c-20,42-50,125-50,138
	c0,6,29,43,64,81l65,69l-37,49c-25,33-47,51-67,55c-55,12-93,39-162,117c-115,130-115,129-167,137c-27,4-60,14-72,23
	c-19,12-66,15-241,17l-218,2l-160,60c-172,65-212,84-289,139c-45,33-53,35-95,29c-52-8-64-19-56-52c6-26,8-26-45-7
	c-75,26-136,20-227-24c-45-22-103-43-130-47c-71-10-94-21-139-65c-33-32-56-44-120-61c-70-19-107-22-319-23c-188-1-261-5-335-20
	c-63-12-144-18-242-19l-147-1l-55-62c-35-38-59-74-63-95c-3-18-16-51-28-73c-13-22-26-53-29-68c-4-16-19-40-33-53
	c-23-21-25-27-15-49c11-25,11-25-37-25c-42,0-57-6-112-46c-35-26-81-62-101-80c-90-80-110-88-263-96c-244-13-360-25-389-39
	c-18-9-40-36-58-70l-29-56l46-91c40-77,45-93,35-112c-7-14-9-43-5-83c6-56,4-68-24-126c-16-35-41-76-55-90c-13-14-40-64-59-111
	l-35-85l-47-3c-40-3-49-8-63-33c-18-31-25-34-107-44c-44-6-56-13-100-59c-28-29-66-61-85-71c-40-20-50-33-43-51c2-7-7-20-20-29
	c-36-23-39-39-17-91l20-46l-42,4c-24,3-63,10-88,16c-25,7-57,14-72,17c-38,7-58,31-58,72c0,40-42,106-78,122c-13,6-40,11-62,11
	c-39,0-60,14-82,53c-15,28-14,198,1,255c11,40,10,45-16,85c-24,35-35,43-71,48c-23,3-52,15-65,27c-29,28-35,28-39-1
	c-3-21-9-22-108-28c-113-7-134-12-194-54c-38-26-41-26-53-9c-7,10-13,30-13,44c0,35-50,184-99,296c-22,50-43,107-46,127
	c-6,33-4,39,24,63c25,21,31,33,31,65c0,41-9,49-30,24c-9-11-25-13-65-9c-47,6-54,4-64-15c-15-27-41-27-135,4c-42,14-87,25-99,25
	c-12,1-40,9-62,20c-22,11-47,19-56,20c-16,0-29,19-29,41c0,5,18,9,39,9c22,0,42,4,45,8c3,5,0,38-7,75c-12,75-1,160,33,232
	c60,130,73,188,45,191c-41,6-56,18-51,40c5,19,0,25-35,41l-41,18l8,55c11,77,11,123,1,137c-5,7-24,15-42,19c-18,3-46,19-61,35
	c-15,16-46,34-69,40c-54,15-95,41-188,121c-63,54-86,68-112,68c-18,0-52,7-76,16s-70,19-103,23l-58,6l-20,50c-24,63-42,78-113,95
	c-57,14-58,14-79-12c-11-14-26-33-31-43c-10-16-18-14-104,29c-51,26-106,60-121,76c-16,17-38,30-52,30c-12,0-28,4-34,8
	c-16,10-46,83-40,98c6,16-29,61-54,69c-24,8-25,30-5,68c9,17,11,35,6,49c-9,25,26,118,45,118c6,0,27-6,46-14c32-14,38-13,86,12
	c50,26,66,52,41,68c-14,8-3,52,21,85c16,23,17,32,8,57c-10,25-8,33,10,57c26,32,27,43,8,64c-7,9-16,33-19,53c-5,35-4,37,34,52
	c22,9,50,16,63,16c13,0,26,7,30,15c3,8,14,15,25,15c11,0,36,19,56,45c29,35,36,50,31,70c-3,14-2,33,4,42c5,10,15,31,20,47
	c10,27,13,28,50,22c35-5,41-3,56,20c24,36,82,62,167,75c83,12,70-2,162,189c35,73,57,106,97,141c50,44,52,48,40,73
	c-22,48-19,58,62,216c47,90,53,123,27,149c-29,29-47,26-85-15c-33-36-33-36-65-20c-17,9-31,20-31,24c1,16,37,112,47,124
	c15,18,21,42,32,122c10,73,20,86,63,86c14,0,40,11,56,25c18,15,42,25,61,25c24,0,44,13,93,60c35,33,79,65,98,71c19,6,40,16,45,23
	c16,18,83,66,92,66c4,0,23-23,41-51c32-49,35-51,70-45c60,11,86,25,103,55c9,16,52,56,95,89c130,100,142,112,149,142
	c4,16,10,32,13,34c4,2,30-6,57-19c71-34,85-32,85,7c1,48,55,104,127,133c39,16,62,32,71,50c9,18,21,26,35,24c12-1,39,6,59,15
	c21,9,44,16,52,16s36,11,62,25c26,14,61,25,78,25c17,0,64,9,104,20c39,11,86,20,104,20c55,0,174-26,199-44c40-27,68-21,85,21
	c14,33,14,40-2,75c-13,29-15,46-8,66c12,35,26,34,35-1c4-16,23-47,42-70c19-23,38-56,44-72c7-22,25-38,69-62c86-46,107-49,137-19
	c26,26,83,46,132,46c17,0,46,3,67,6c33,6,37,9,42,48c9,58,17,67,67,73c24,3,47,11,51,17c4,6,10,36,14,68c7,64,13,68,100,68
	c69,0,182-40,251-89c37-28,67-41,88-41c33,0,100-41,126-77c20-28,61-53,85-53c11,0,29-9,39-20c10-11,30-20,45-20s46-14,69-31
	c24-17,44-29,46-27c1,2,10,18,19,35c9,18,20,33,24,33c5,0,23-16,42-35c19-19,39-35,45-35s26,16,45,35c45,46,64,45,80-5
	c19-56,29-63,78-46c68,24,92,45,92,80c1,39,24,127,33,126c4,0,14-3,22-7c9-3,26,4,39,16c33,31,42,170,16,251c-10,30-26,84-36,119
	c-15,55-26,72-88,135c-53,53-75,84-89,122c-19,59-22,90-7,99c7,4,8,31,4,73l-7,67l24-21c40-36,65-44,137-44h70l6,42c3,24,9,67,12,96
	c7,60,31,85,95,102c47,13,56,26,34,49c-10,12-14,27-10,44c4,15,0,37-9,55c-29,57-23,69,40,75c63,6,63,7,68,34c2,10,11,35,19,55
	c13,30,22,38,50,43c47,9,87-1,127-30c40-29,50-24,85,46c18,35,30,47,47,47c13,0,32,3,43,6c19,7,20,3,20-61c0-37-5-75-10-83
	s-10-41-10-72v-57l60-3c57-3,61-5,84-40l23-36l37,15c20,8,45,23,57,34c29,27,40,24,79-18l34-37l36,17c32,15,39,16,65,2
	c16-8,45-15,63-15c40,0,111-37,133-69c9-12,33-33,55-47l39-25l25,28c13,16,25,31,25,35c0,8,43,21,145,43c113,25,123,38,73,107
	c-10,13-6,23,22,55c18,21,45,45,59,54c15,9,39,29,55,46c26,28,31,29,58,19c24-9,35-7,66,10c44,25,81,19,123-22c27-26,30-26,47-11
	c10,9,30,17,43,17c15,0,35,12,51,30c34,39,53,38,74-3c9-17,18-34,20-36c1-1,15,9,31,23c15,14,31,26,35,26c14,0,8,21-12,47
	c-24,31-25,59-4,115c18,45,79,118,100,118c7,0,22-12,33-26c20-25,20-25,0-45c-10-10-19-28-19-39s-6-20-14-20c-8,0-18-5-21-10
	c-7-12,34-120,45-120c4,0,20,10,35,22c26,20,29,20,40,5c13-18,107-47,150-47c13,0,32-10,42-23c15-19,25-22,65-19c37,3,50,0,68-18
	c20-20,22-21,35-4c11,16,16,15,58-22c26-21,46-45,47-53c0-7,6-11,15-7c12,4,15-4,15-44c0-63,14-71,40-20c11,22,25,40,30,40
	c17,0,22-43,10-81c-14-42-7-89,14-89c7,0,24,21,38,47c18,35,33,51,59,61c34,13,38,12,95-22c32-20,62-36,66-36s8,9,10,21
	c3,19,5,19,43-10c48-37,53-37,57-9c4,31,24,33,49,4c18-21,25-23,42-15c21,12,87-2,141-28c26-14,28-18,23-57c-3-23-9-50-13-59
	c-4-13-1-17,15-17c12,0,21-6,21-15c0-21,18-19,32,4c12,19,13,19,47-8c20-16,46-31,58-35c11-4,24-13,27-21c3-8,14-15,24-15
	c11,0,25-6,32-14c6-8,18-12,26-9c8,3,14,0,14-7c0-7,8-24,19-38c10-15,20-36,23-47c2-13,11-19,25-18c12,1,26-4,33-12c8-9,22-12,40-9
	c22,5,31,1,39-15c7-12,11-28,9-36c-3-16,22-51,104-141c60-66,81-110,58-124c-10-6-9-12,5-26c14-14,16-28,11-70c-3-29-1-65,5-83
	c11-30,12-31,30-15c17,15,20,14,53-18c20-20,36-45,36-58c0-15,5-20,14-17c18,7,42-20,51-56c4-15,11-30,16-33s9-14,9-25
	c0-10,7-19,15-19c8,0,21-15,29-34c11-27,23-37,56-47c51-15,67-38,76-106c3-29,12-54,20-57c10-4,12-18,7-56c-6-56,1-61,44-33l26,17
	l-7-37c-4-22-2-45,4-58c11-19,10-20-12-14c-12,4-33,13-45,21c-36,22-27,1,17-45l41-42l-32-27c-18-15-52-38-76-51c-43-24-44-24-95-8
	c-46,14-54,15-68,2c-9-8-29-15-43-15c-15,0-27-4-27-10c0-10,63-30,99-30c15,0,38-15,60-39c27-28,52-43,96-56c82-23,87-28,68-73
	c-17-40-33-56-79-76c-36-16-74-61-74-87c0-16,4-17,26-9c14,6,41,22,60,36c43,33,45,14,2-21l-33-27l43,5c23,3,42,3,42,1
	c0-20-36-66-65-84c-21-13-35-30-35-41c0-11-22-44-49-72c-41-43-54-68-80-146c-17-51-31-102-31-112c0-20-83-181-109-213
	c-20-23-108-66-137-66c-14,0-24-8-28-23c-10-39-7-56,23-97c15-21,34-53,41-70c7-16,19-30,27-30c7,0,44-28,81-63c37-34,81-69,99-76
	c30-12,52-45,39-59c-3-3,3-15,13-26c11-12,21-26,22-31c2-6,23-15,48-22c63-16,134-47,149-66c7-8,35-18,63-22c27-4,56-14,64-22
	c17-16,38-54,33-57c-27-15-108-42-108-35c0,12-64,12-129-1c-57-11-109-44-122-78c-8-20-12-21-31-11c-13,7-45,31-73,54
	c-27,24-60,46-73,50c-17,5-20,10-12,20c15,18-6,32-68,46c-47,11-55,10-102-12l-52-24l7-50c4-30,16-63,32-83l25-33l-21-23
	c-19-20-35-24-115-29c-51-4-105-11-119-18c-27-12-77-94-77-125c0-44,23-96,58-129l37-35l25,29l25,29l45-24c25-12,58-23,73-24
	c38,0,91-52,84-81c-3-12-2-31,3-44c9-23,120-105,142-105c15,0,78-22,95-33c6-4,14-21,18-37c4-16,18-39,32-50c14-11,43-47,65-80
	c21-33,42-60,46-60c5,0,23,11,41,25c19,13,54,27,79,31c48,7,102,52,102,85c0,23-90,159-126,189c-17,15-29,36-30,50c-1,14-4,32-8,42
	c-6,12,0,18,24,23c25,5,29,10,20,20c-6,8-10,24-8,35c2,18-7,27-44,47c-27,14-48,29-48,34c0,18,37,8,59-15c14-14,39-26,65-30
	c36-6,46-13,74-56c23-35,39-50,55-50c12,0,31-6,42-14c11-7,37-19,57-25c21-7,44-21,51-30c6-10,30-21,52-24c22-4,69-10,105-15
	c85-13,96-18,111-53c7-18,42-53,83-84c39-30,94-72,123-94c28-23,60-41,70-41c44,0,120-86,188-213c14-26,27-47,30-47c2,0,28,21,56,46
	l53,47l74-7c63-5,162-35,162-49c0-3-11-30-25-62c-14-32-24-60-21-62c2-2,18,3,35,11c16,9,40,16,51,16c30,0,141-66,168-101
	c14-17,33-29,47-29c21,0,24-6,30-53c8-65,11-70,52-91c42-21,43-21,43,9s36,105,50,105c6,0,10-13,10-30c0-26,6-32,49-51
	c83-35,91-50,101-180c9-119,1-222-26-338c-17-75-15-77,59-87c52-7,60-16,71-77c7-37,9-38,38-32c16,4,55,18,85,32
	c69,32,141,42,154,22c5-8,9-31,9-51c0-30,6-42,34-63c26-20,39-42,56-96c13-39,33-83,45-98c33-39,45-66,45-103c1-18,7-44,15-58
	c8-14,14-44,15-66c0-24,6-47,15-54c8-7,15-34,17-63c3-49,5-53,41-71c49-24,65-56,49-100c-15-39-16-111-2-136c17-31-11-43-88-38
	c-59,4-84,13-187,67c-65,33-124,61-131,61c-7,0-20,13-28,29c-21,39-113,60-181,41c-26-7-64-10-90-7c-38,6-45,4-45-11
	c0-9-14-29-32-44c-31-25-33-30-36-110c-3-56-9-89-19-100c-11-12-14-29-10-51c5-34,5-34-33-34c-47,0-79-24-129-95c-20-28-50-60-68-71
	c-28-16-37-17-66-6c-32,11-38,10-81-19c-58-39-91-48-121-32c-34,18-83-9-123-71c-33-49-33-51-21-99c11-43,10-51-8-83
	c-12-19-28-59-37-89c-8-30-27-64-40-77c-31-29-60-111-54-152c3-20-1-34-14-46c-10-9-18-29-18-45c0-15-13-56-30-91
	c-17-37-27-71-24-84c4-15,0-23-15-28c-16-5-20-12-15-31c3-13,2-30-4-37c-5-6-12-24-16-39c-3-15-15-32-26-38c-11-6-20-17-20-25
	c0-7-13-28-29-46c-17-18-31-44-33-58c-3-27-32-45-110-72c-33-11-40-10-58,6c-20,18-21,17-73-18c-30-21-62-37-73-37c-10,0-30-6-44-14
	c-78-43-142-76-148-75C10408.5,3.2,10371.5,11.2,10330.5,21.2z"/>
<path class="st0" d="M7627.5,9062.2c-10,6-29,8-43,5c-14-4-34,0-48,10c-20,12-29,13-46,4c-20-10-21-10-16,8c5,15,1,22-14,27
	c-11,4-28,17-36,31c-9,13-32,33-50,45c-34,20-35,23-29,68c14,110,12,106,73,146c52,34,60,36,87,26c17-7,70-26,120-42
	c49-17,93-36,97-42c4-6,10-34,14-62c6-50,30-106,65-157c23-32,24-51,4-68c-13-11-22-10-51,3c-31,15-38,16-71,2c-19-8-36-15-37-15
	C7646.5,9051.2,7637.5,9056.2,7627.5,9062.2z"/>
</svg>
