<?xml version="1.0" encoding="utf-8"?>
<!-- Generator: Adobe Illustrator 27.0.1, SVG Export Plug-In . SVG Version: 6.00 Build 0)  -->
<svg version="1.1" id="レイヤー_1" xmlns="http://www.w3.org/2000/svg" xmlns:xlink="http://www.w3.org/1999/xlink" x="0px"
	 y="0px" viewBox="0 0 1452.1 1500" style="enable-background:new 0 0 1452.1 1500;" xml:space="preserve">
<style type="text/css">
	.st0{fill:#D4E5C2;}
</style>
<g transform="translate(0.000000,1280.000000) scale(0.100000,-0.100000)">
	<path class="st0" d="M5174.2,12637.7l-411.4-162.9l-148.8-113.7c-147.7-111.3-151.2-114.9-199.2-212.1l-49.2-99.6l-76.2,9.4
		c-119.5,14.1-157,9.4-361-52.7c-146.5-45.7-199.2-56.3-222.7-49.2c-196.9,63.3-596.5,164.1-622.3,158.2
		c-16.4-3.5-57.4-15.2-91.4-24.6l-60.9-17.6l-35.2-107.8c-19.9-59.8-36.3-111.3-36.3-114.9c0-3.5,21.1-16.4,46.9-28.1
		c52.7-24.6,56.3-32.8,24.6-84.4c-27-42.2-28.1-39.8,75-97.3c38.7-21.1,71.5-39.8,73.8-42.2c2.3-1.2-22.3-27-55.1-57.4
		c-32.8-30.5-59.8-60.9-59.8-68c0-5.9,27-42.2,59.8-79.7l59.8-69.1l-44.5-53.9c-25.8-30.5-57.4-68-71.5-85.6
		c-14.1-16.4-25.8-35.2-27-42.2c0-5.9,38.7-53.9,86.7-105.5l85.6-92.6l98.4-24.6l98.4-24.6l11.7-87.9l11.7-86.7l99.6-9.4
		c152.4-15.2,148.8-12.9,187.5-90.2c18.8-38.7,35.2-72.7,35.2-76.2c0-3.5-78.5-44.5-173.5-92.6l-174.6-87.9l-37.5-72.7l-36.3-72.7
		l48.1-62.1c51.6-68,51.6-65.6-9.4-141.8l-38.7-49.2l76.2-42.2c42.2-23.4,78.5-46.9,82-52.7c3.5-5.9-59.8-37.5-139.5-70.3
		l-146.5-62.1l-98.4-147.7c-60.9-91.4-107.8-177-124.2-225l-25.8-77.3l-78.5-32.8c-43.4-17.6-84.4-38.7-92.6-45.7
		c-7-7-73.8-121.9-146.5-255.5l-133.6-243.8l-117.2-80.9c-64.5-45.7-124.2-90.2-132.4-99.6c-8.2-10.5-69.1-109-134.8-219.2
		l-118.4-201.6l-240.3-64.5l-240.3-63.3l-96.1,103.1l-96.1,104.3l-27-35.2c-15.2-18.8-111.3-144.2-214.5-277.8l-188.7-243.8
		l-23.4-123.1c-14.1-68-21.1-125.4-17.6-127.7c3.5-2.3,78.5-18.8,165.2-36.3c86.7-18.8,161.7-36.3,166.4-39.8
		c4.7-4.7-2.3-78.5-15.2-165.2c-14.1-86.7-19.9-159.4-15.2-161.7c5.9-1.2,63.3-30.5,127.7-64.5l116-60.9l120.7-328.1
		c66.8-180.5,120.7-332.8,120.7-339.9c0-12.9-166.4-99.6-191-99.6c-8.2,0-39.8,25.8-71.5,57.4l-56.3,57.4l-113.7-73.8l-112.5-73.8
		l-263.7,56.3C593,6140.4,462.9,6169.7,450,6172c-23.4,5.9-25.8,1.2-32.8-72.7c-4.7-43.4-10.5-92.6-14.1-111.3l-7-31.6H277.8H158.2
		l-78.5-52.7L0,5850.9l226.2-252l225-250.8h187.5h187.5l158.2,85.6c86.7,48.1,160.6,84.4,161.7,83.2c4.7-3.5-42.2-243.8-48.1-246.1
		c-1.2,0-39.8-32.8-85.6-72.7l-82-72.7l-233.2-24.6c-128.9-14.1-235.6-27-237.9-29.3s-1.2-30.5,3.5-62.1l7-57.4l356.3-329.3
		l356.3-330.5h179.3h179.3l182.8,77.3l182.8,77.3l73.8,327c70.3,307.1,76.2,328.1,99.6,322.3c12.9-2.3,79.7-14.1,148.8-25.8
		l125.4-19.9l-31.6-37.5c-17.6-21.1-56.3-66.8-86.7-102l-55.1-63.3l75-377.4l75-377.4l-35.2-182.8c-18.8-100.8-34-198.1-34-215.6
		c0-25.8,32.8-188.7,64.5-324.6c4.7-21.1,15.2-27,41-27c42.2,0,42.2,5.9,11.7-181.7l-23.4-146.5l116-494.6l116-495.7l98.4-211
		c53.9-116,109-234.4,120.7-263.7s23.4-53.9,24.6-56.3c1.2-2.3,23.4,7,50.4,21.1c27,12.9,48.1,22.3,49.2,21.1
		c0-2.3,7-71.5,15.2-155.9l16.4-152.4l186.3-335.2l186.3-335.2l62.1-271.9c34-150,69.1-297.7,77.3-328.1
		c11.7-43.4,53.9-107.8,177-267.2l160.6-211l225-624.7l225-624.7l174.6-214.5l174.6-215.6h76.2h76.2l100.8,87.9l100.8,86.7
		l19.9,126.6c11.7,69.1,23.4,137.1,27,151.2c4.7,21.1,38.7,35.2,203.9,87.9l198.1,62.1v73.8c0,69.1,5.9,86.7,87.9,249.6l87.9,175.8
		H5711c66.8,0,124.2,2.3,126.6,4.7c2.3,2.3-1.2,148.8-7,325.8l-11.7,319.9L5943-57l125.4,390.3L6018,447l-49.2,112.5l-14.1,426.6
		l-12.9,426.6l60.9,97.3l62.1,97.3l140.6,3.5l140.6,3.5l83.2,144.2c46.9,79.7,87.9,147.7,91.4,151.2c3.5,3.5,105.5,34,226.2,66.8
		l220.3,60.9l70.3,131.3l70.3,131.3l427.8,328.1l427.8,328.1l211,259l211,260.2l322.3,173.5l322.3,173.5l173.5,185.2l172.3,185.2
		v188.7v189.9l226.2,99.6l225,99.6l46.9,87.9c25.8,48.1,50.4,91.4,53.9,94.9c4.7,4.7,18.8-49.2,32.8-118.4
		c15.2-69.1,31.6-146.5,37.5-169.9l10.5-42.2l97.3,37.5c94.9,36.3,96.1,37.5,102,83.2l5.9,46.9l16.4-50.4
		c9.4-28.1,21.1-52.7,25.8-56.3c18.8-10.5,69.1,9.4,69.1,29.3c0,10.5-49.2,256.7-109,546.1c-106.6,512.1-110.2,530.9-100.8,627
		c4.7,55.1,9.4,132.4,9.4,172.3l1.2,72.7l-145.3,120.7c-80.9,66.8-144.2,126.6-143,132.4c2.3,7,39.8,63.3,84.4,125.4l80.9,114.9
		h96.1c52.7,0,98.4,3.5,100.8,9.4c3.5,4.7,0,45.7-7,90.2l-14.1,82l-98.4,11.7l-98.4,11.7l-21.1,58.6c-11.7,32.8-21.1,70.3-21.1,85.6
		c-1.2,22.3,155.9,353.9,167.6,353.9c2.3,0,35.2-46.9,72.7-105.5c38.7-57.4,72.7-105.5,77.3-105.5c3.5,0,27,34,50.4,76.2
		c23.4,42.2,46.9,73.8,51.6,71.5c4.7-3.5,29.3-50.4,52.7-105.5l45.7-100.8h63.3c69.1,0,63.3-5.9,103.1,99.6
		c5.9,16.4,22.3-28.1,59.8-164.1c50.4-186.3,50.4-187.5,106.6-236.7c30.5-27,72.7-57.4,91.4-66.8c22.3-10.5,214.5-36.3,533.2-71.5
		c274.2-30.5,513.3-58.6,532.1-63.3c34-8.2,31.6-11.7-260.2-314.1c-162.9-168.8-295.3-311.7-295.3-319.9
		c0-12.9,92.6-319.9,97.3-322.3c1.2-1.2,45.7-35.2,99.6-75c53.9-41,99.6-71.5,100.8-69.1c2.3,1.2,57.4,84.4,123.1,182.8
		c66.8,99.6,123.1,178.1,125.4,174.6c5.9-4.7,56.3-201.6,192.2-740.7c28.1-109,53.9-203.9,58.6-208.6
		c10.5-11.7,246.1,104.3,246.1,121.9c0,5.9-15.2,73.8-35.2,148.8c-45.7,185.2-37.5,218,59.8,230.9c55.1,8.2,57.4,9.4,57.4,45.7
		c0,60.9,24.6,410.2,29.3,414.9c2.3,2.3,97.3,32.8,211,65.6l207.4,62.1l126.6,325.8l126.6,327l124.2,161.7l124.2,162.9l11.7,160.6
		c5.9,87.9,11.7,172.3,11.7,186.3c0,19.9,56.3,72.7,219.2,209.8c120.7,100.8,229.7,187.5,243.8,192.2
		c12.9,4.7,106.6,12.9,207.4,17.6l185.2,8.2l5.9,37.5c3.5,19.9,15.2,93.8,27,165.2l19.9,127.7l60.9,36.3l62.1,35.2v64.5
		c0,63.3-2.3,66.8-62.1,126.6l-62.1,62.1l-187.5,37.5c-180.5,37.5-186.3,39.8-185.2,68c1.2,15.2,5.9,70.3,10.5,121.9l7,94.9
		l-38.7,18.8c-35.2,16.4-43.4,31.6-84.4,148.8c-25.8,71.5-51.6,130.1-57.4,130.1c-5.9,0-92.6-32.8-192.2-71.5l-181.7-71.5l-100.8,7
		c-56.3,4.7-133.6,10.5-172.3,14.1l-70.3,7l-375-288.3l-375-288.3l-152.4-59.8c-83.2-31.6-229.7-89.1-324.6-125.4l-173.5-66.8v-77.3
		v-77.3l110.2-49.2l110.2-50.4l-49.2-110.2c-43.4-98.4-51.6-110.2-83.2-116c-18.8-3.5-277.8-32.8-574.3-65.6l-539.1-58.6l-191,49.2
		l-191,49.2l-39.8,78.5l-39.8,78.5l46.9,45.7c24.6,24.6,45.7,48.1,45.7,52.7c0,3.5-21.1,16.4-46.9,28.1l-46.9,21.1v174.6
		c0,94.9-3.5,173.5-8.2,172.3c-5.9,0-72.7-22.3-150-49.2l-140.6-49.2l-41-211c-23.4-116-51.6-228.5-63.3-250.8l-21.1-39.8l62.1-62.1
		l62.1-62.1l-34-83.2c-18.8-45.7-37.5-85.6-41-87.9c-4.7-3.5-94.9-16.4-201.6-30.5l-193.4-24.6l-239.1,53.9
		c-131.3,29.3-380.9,85.6-555.5,124.2l-316.4,71.5l-152.4,151.2L8069,7783.5l-375,12.9l-375,12.9l-644.6,370.3
		c-353.9,202.7-658.6,378.5-675.1,389.1l-30.5,18.8l73.8,274.2c41,151.2,78.5,278.9,83.2,282.4c5.9,4.7,82,59.8,171.1,123.1
		c89.1,63.3,160.6,118.4,158.2,124.2c-2.3,5.9-172.3,113.7-378.5,239.1l-375,230.9l-114.9-8.2c-63.3-3.5-120.7-9.4-128.9-12.9
		c-9.4-3.5-38.7,43.4-77.3,123.1l-63.3,127.7l11.7,150l11.7,151.2l-75,162.9c-41,90.2-70.3,166.4-65.6,171.1
		c4.7,4.7,32.8,27,62.1,50.4l53.9,42.2l62.1-99.6l62.1-98.4l36.3,25.8c155.9,107.8,267.2,200.4,261.3,216.8
		c-3.5,9.4-19.9,60.9-35.2,116c-16.4,53.9-31.6,103.1-36.3,109c-3.5,7-56.3,38.7-117.2,72.7c-107.8,59.8-111.3,63.3-111.3,103.1
		c0,23.4-5.9,105.5-11.7,182.8c-7,91.4-7,143,1.2,147.7c5.9,3.5,73.8,16.4,151.2,28.1l139.5,21.1l7,59.8
		c17.6,151.2,11.7,139.5,130.1,243.8l110.2,97.3l75,226.2c41,123.1,71.5,225,66.8,225s-38.7-10.5-73.8-22.3l-65.6-22.3l-8.2,42.2
		c-3.5,24.6-9.4,52.7-12.9,63.3c-4.7,16.4-342.2,246.1-357.4,242.6C5586.8,12799.5,5399.2,12725.6,5174.2,12637.7z"/>
</g>
</svg>
