<?xml version="1.0" encoding="utf-8"?>
<!-- Generator: Adobe Illustrator 27.0.1, SVG Export Plug-In . SVG Version: 6.00 Build 0)  -->
<svg version="1.1" id="layer" xmlns="http://www.w3.org/2000/svg" xmlns:xlink="http://www.w3.org/1999/xlink" x="0px" y="0px"
	 viewBox="0 0 150 572" style="enable-background:new 0 0 150 572;" xml:space="preserve">
<style type="text/css">
	.st0{fill:#D4E5C2;}
</style>
<path class="st0" d="M38,571.9c-0.7,0-1.3,0-2,0c-4.2-3.2-6.7-7.3-7.1-12.6c-0.7-8.8-2.5-17.4-4.6-26c-1.9-7.5,0.8-14.2,3.3-20.8
	c2.4-6.4,4.5-12.9,5.6-19.6c0.7-4.1,0.9-8.3-1.4-12.1c-1-1.6-1.1-3.5-1.1-5.3c0-0.8,0.3-1.7,0.1-2.5c-2.9-11.2,0.6-21.7,3.8-32.2
	c0.2-0.8,0.3-1.6,0.7-2.4C42,425.1,39,412.3,33,400c-2-4.2-4-8.4-5.8-12.7c-2.1-4.9-1.9-9.5,1.4-14.6c4.9-7.5,5.3-16.7,6-25.4
	c0.4-5.5,1.1-10.7,2.3-16.1c1.6-7.3,1.8-15.1,1.2-22.8c-0.2-3.3-0.8-6.7-0.2-9.9c1.6-8.2,0-16.3-0.4-24.4c0-0.5,0-1.1-0.3-1.5
	c-5.5-9.2-2.9-19.1-2.2-28.8c0.3-3.7,1.4-7,3.6-10.2c3.8-5.4,4.6-11.2,1.3-17.3c-1.9-3.6-3.1-7.8-4.1-11.6
	c-2.6-9.1-9.9-14.3-15-21.4c-1.7-2.4-4.2-4,0.8-5.4c2.3-0.6,0.8-2.4,0-2.8c-4.6-2.2-5.7-5.4-4.1-10.1c0.7-1.9-1.1-4.1-0.8-5.8
	c1.2-6.4,1-12.6-0.1-19c-0.4-2.2,1.3-4.8,3.2-6.6c2.7-2.6,3.8-5.8,3.9-9.4c0.1-9.4,1.8-18.5,4.2-27.5c0.8-2.9-0.1-5.3-1.4-7.6
	c-2.6-4.6-3.3-9.7-4.2-14.8c-0.4-2.8,0.4-4.8,2.5-6.6c4.9-4.2,10.6-6.9,16.5-9.2c4.2-1.7,5.9,0.1,4.9,4.5c-0.5,2-1.3,4.2,1.2,5.2
	c2.3,0.9,4.1-0.5,5.5-2.3c0.8-1.1,1.2-2.4,1.9-3.5c0.8-0.9,1.4-2.3,3.1-1.9c-1.1-0.8-2.6,0.5-3.6-0.7c-2.3-3.7-2.1-7.2,0.7-10.5
	c2.5-3,3.6-6.7,5.1-10.2c1.2-2.8,0.8-5.5-1.6-7.7c-6.5-5.5-9.4-13.5-14.5-20c-1.6-2.1-0.7-3.8,2.1-4.1c1.3-0.1,2.6,0.3,4,0.3
	c3.9,0.1,7.4-0.4,8.7-4.8c0.5-1.7,2-2.1,3.2-2.7c0.7,0,1.3,0,2,0c1.5,0.7,3.1,1.2,3.5,3.1c1.2,5,4.2,9,7.1,13.1
	c3.2,4.4,4.3,8.6,0.4,13.6c-2.9,3.7-2,8.2-0.6,12.5c3.3,10,7.5,19.5,10.9,29.5c2.9,8.7,4.9,17.7,5.6,26.8
	c0.8,10.3,1.1,20.6-0.5,30.9c-0.5,3.2-1.4,6.3-3.1,8.9c-6,9.6-4.1,19.5-1.2,29.4c1.4,4.6,3.5,9,5.4,13.4c2.8,6.7,4.1,13.7,5.3,20.7
	c2.4,13.1,6,25.9,8.7,38.9c0.9,4.3,1.6,8.6,1.6,12.9c-0.1,12.9,5.1,24.2,9.6,35.9c3.4,8.8,6.5,17.8,7.5,27.2
	c0.2,1.5-0.2,3.2,0.6,4.4c5,7.5,4,16.6,6.7,24.7c2.6,7.8,4.2,16.2,11.9,21.2c4,2.6,4.9,6.5,4.4,10.9c-0.4,3.3,0.1,6.3,2.1,9
	c0,0.3,0,0.7,0,1c-2.3,2.5-4.2,0.9-5.7-0.9c-1.1-1.3-1.8-2.9-1.9-4.6c-0.6-8.2-5.6-13.6-11.2-18.7c-1.6-1.5-3.2-3.1-4.1-5
	c-3.7-7.4-9.9-11-17.8-13c-11.9-3.1-24.3,0.2-31.1,9c-1.5,1.9-3,4.1-2.3,6.4c2.7,8.1-1.4,14.6-4.3,21.4c-3.4,8-5.1,16.4-7.4,24.7
	c-2.2,7.7-3.6,15.5-5.8,23.1c-3.3,11.5,2.5,30.6,11.9,38c6,4.7,8.9,11.1,9.1,18.6c0.1,5.6,1.1,10.9,3.7,15.9
	c2.4,4.6,4.6,5.3,9.4,3.1c2.5-1.2,4,0,4.5,2.2c0.9,4.2,2.8,8.1,2.5,12.6c-0.2,4.7,0.6,9.3,2.5,13.6c1.6,3.6,1.3,7.1-0.6,10.5
	c-2.2,4-4.9,7.9-4.7,12.8c0,1.4-1,2.4-2.4,2.9c-0.8,0.2-1.6,0.2-2.3-0.1c-1.9-0.9-1.8-2.6-1.6-4.3c1.5-8.8-2.7-16.6-4.5-24.8
	c-0.7-3.1-3.4-5.3-7-5.4c-2.5-0.1-5-0.9-7.4-0.7c-4.5,0.3-8.1,0-9.1-5.8c-0.5-2.9-3.1-1.9-4.7-0.6c-2.6,2.2-4,5.2-5.1,8.4
	c-3.6,10.7-5.4,21.9-8.1,32.8C43.2,564.7,39.2,567.5,38,571.9z"/>
<path class="st0" d="M0.1,543.9c3.3-0.6,3.9,2.1,3.8,4c-0.1,2.2-2.4,1.2-3.8,1C0.1,547.2,0.1,545.6,0.1,543.9z"/>
</svg>
