<?xml version="1.0" encoding="utf-8"?>
<!-- Generator: Adobe Illustrator 27.0.1, SVG Export Plug-In . SVG Version: 6.00 Build 0)  -->
<svg version="1.1" id="layer" xmlns="http://www.w3.org/2000/svg" xmlns:xlink="http://www.w3.org/1999/xlink" x="0px" y="0px"
	 viewBox="0 0 1189 1280" style="enable-background:new 0 0 1189 1280;" xml:space="preserve">
<style type="text/css">
	.st0{fill:#D4E5C2;}
</style>
<path class="st0" d="M1049.3,2c-4.9,2.2-5.3,3.4-2,6.1l2.2,1.8l-4.6,0.1c-3.9,0-4.7,0.4-5.7,2.5c-0.9,2-0.9,3.3,0.2,6
	c1.3,3.1,1.3,3.5-0.5,4.7c-1.3,0.9-2.1,3-2.5,7.3c-0.4,3.5-1.4,6.8-2.4,8c-1.7,1.9-2.5,4.8-3.7,13c-0.3,2.2-1.4,5.1-2.4,6.4
	c-1.1,1.3-1.9,3.4-1.9,4.6s-0.9,4.2-2,6.7c-2.4,5.4-1.8,8.4,2.4,12c2.7,2.3,2.9,2.8,1.4,3.3c-1.2,0.5-1.8,1.8-1.8,3.6
	c0,2.9-1.3,3.8-2.5,1.9c-0.3-0.6-1-1-1.5-1c-1.4,0-0.7,8.4,0.8,9.5c1.1,0.9,0.7,2.1-2.2,6.4c-3.5,5.4-3.5,5.4-1.9,9.3
	c1.5,3.6,1.4,4.4-0.2,9.9c-1.5,5-1.6,6.6-0.7,9.3c1.6,4.3,1.5,6.6-0.2,6.6c-0.8,0-2.9,1.2-4.6,2.7c-2.7,2.2-3.5,2.5-5.1,1.5
	c-1-0.6-3.2-0.9-4.8-0.6c-2.7,0.6-3.2,0.3-4.7-3c-1.8-3.6-3.6-4.4-6.3-2.7c-1.1,0.7-1.2,1.5-0.4,3.3c1.4,3.2-0.1,6.9-3.7,9
	c-2.1,1.2-3,2.5-3,4.2c0,5.9-2.9,7.5-5.4,2.8c-2.1-3.8-8.2-10.2-9.9-10.2c-0.8,0-2.6-0.9-4.1-2.1c-1.6-1.3-3.5-1.9-4.7-1.6
	c-1.3,0.4-2.7-0.2-3.7-1.4c-2.2-2.6-2.7-2.4-4.2,1.1c-1.6,3.8-3.4,3.4-3.8-0.8c-0.2-1.9-0.9-3.2-1.7-3.2c-2.3,0-2.7,1.8-1.4,5.5
	c1.6,4.3,0.4,5.8-2.1,2.7l-1.9-2.3l-1.6,2.5c-1,1.5-1.4,3.3-1,4.6c0.5,1.4,0.2,2-0.9,2c-0.9,0-1.6,0.4-1.6,1c0,0.5-1.3,1-3,1
	c-1.6,0-3,0.5-3,1.1c0,0.6-0.9,0.9-2,0.6c-1.6-0.4-2.4,0.2-3.4,2.6c-1.2,3-1.2,3.4,1.1,5.8c3.8,4.1,2,6.6-4.4,6
	c-2.7-0.2-2.9,0.6-0.6,3.1c1.5,1.7,1.5,1.9-0.2,3.2c-1.8,1.3-1.8,1.4,0.3,2.5c2.9,1.5,2.8,4-0.4,8.7c-2.5,3.6-2.5,3.9-1,6.5
	c2.2,3.8,2,4.9-0.9,4.9c-1.8,0-2.5,0.5-2.5,1.9c0,1.4-0.8,2.1-2.7,2.3c-2.2,0.2-2.9,0.9-3.1,3c-0.2,1.9-0.9,2.8-2.1,2.8
	c-0.9,0-2.7,1.3-3.9,3c-2.6,3.5-4.6,3.8-6.9,1c-2.3-2.6-3.1-2.5-4.4,0.4c-0.6,1.3-2.2,2.9-3.6,3.5c-1.7,0.8-2.3,1.6-1.8,3
	c0.4,1.5-0.4,2.3-3.8,4c-2.4,1.2-5.1,2.1-5.9,2.1c-3.5,0-5,2.9-4.3,8.5l0.7,5.3l-4.1,2.8c-3.8,2.5-4.4,2.6-6.7,1.3
	c-1.5-0.7-3.9-1.2-5.4-1.1c-1.5,0.2-3.1-0.1-3.4-0.7c-0.4-0.6-1.3-0.7-2.2-0.4c-0.9,0.3-2.4-0.4-3.5-1.6c-2.2-2.3-3.6-2.6-7.3-1.1
	c-1.9,0.7-2.9,0.6-4-0.5c-2.1-2.2-3.9-1.8-6.7,1.1c-2.5,2.7-7,5.4-8.9,5.4c-0.5,0-2-1.1-3.2-2.5c-3.6-4.1-11.8-2.7-11.8,2.1
	c0,0.8-0.9,2.3-2.1,3.5c-1.9,1.9-2.2,1.9-4.4,0.5c-2.9-1.9-5.5-2-8.9-0.5c-1.8,0.9-2.9,0.9-3.8,0.1c-4-3.3-10.6-4-40.3-4.7
	l-30.1-0.7l-5.7,3.2c-3.1,1.7-5.7,3.8-5.7,4.5s2.3,3.4,5.2,6c4.6,4.1,5.2,5.2,6.1,10.3c0.5,3.1,0.8,11.5,0.7,18.6l-0.2,12.9l4.2,3.8
	c3.6,3.3,4.1,4.2,3.5,6.8c-0.9,4,1.7,8.8,6,10.8c1.9,0.9,3.6,2.6,3.9,3.9c0.4,1.5,1.8,2.6,4.3,3.4c4.9,1.6,8,4.4,9.4,8.7
	c0.6,1.8,2,3.8,3,4.4c1.6,0.8,1.8,1.4,0.9,2.4c-0.8,1-0.8,1.5,0.3,2.2c1.6,0.9,3.4,9.3,2,9.3c-0.5,0-1.7,0.6-2.7,1.3
	c-1.5,1.1-1.7,1.7-0.7,3.6c1.1,1.9,0.7,2.8-3.7,7.9c-4.3,5-5.1,6.4-5.7,11.6c-0.5,4.2-1.3,6.5-3.1,8.3c-1.3,1.3-2.4,3-2.4,3.8
	c0,0.8-1,2-2.3,2.7c-1.3,0.7-5.2,3.2-8.7,5.6c-3.5,2.3-6.9,4.1-7.4,3.9c-0.6-0.2-1.2-1.8-1.4-3.5c-0.4-3.5-1.6-4.1-3-1.6
	c-0.7,1.3-1.5,1.5-3.7,0.7c-2.8-0.9-3.8-2.1-4.9-5.6c-0.3-1-1.5-1.7-3.1-1.7c-2,0-2.5-0.5-2.5-2.5c0-2.8-1.5-3.3-2.8-0.9
	c-0.8,1.4-1.3,1.3-4.5-0.6c-2-1.2-3.7-2.6-3.7-3.1c0-2.1-3.1-0.7-4.5,2.1c-1.8,3.6-3.7,3.8-5.8,0.7c-1.4-1.9-1.8-2-2.7-0.7
	c-0.6,0.8-0.9,2.6-0.6,3.9c0.7,4.4-0.4,5.5-3,3c-2.1-1.9-2.4-2-3-0.5c-0.8,2-3.4,2.1-3.4,0.1c0-1.8-1.1-1.9-4.5-0.3
	c-2.3,1-2.8,1-3.6-0.5c-1.1-1.9-8.2-2.3-13.5-0.8c-2.2,0.6-3.6,0.5-5-0.6c-1.7-1.3-1.9-1.2-2.4,1.3c-0.9,4.7-2.6,4.3-7.9-2.1
	c-0.8-1.1-2.6-1.6-5-1.4c-5.7,0.3-5.9,0.2-8.6-5.1l-2.5-5h-5.3c-3,0.1-6,0.7-7.1,1.5c-3.1,2.4-8.3,1.9-10.8-1
	c-2.6-3.1-4.7-3.2-8.2-0.4l-2.8,2.2l-3-2.3c-2.4-1.7-4.3-2.3-8-2.1c-5.4,0.2-5.7-0.4-2.7-4.3c2.7-3.4,2-4.2-1.9-2.2
	c-3.2,1.7-4.2,1.3-4.2-1.7c0-1.3-0.5-1.7-1.5-1.3c-0.9,0.3-1.8-0.1-2.1-0.9c-0.4-1-2-1.5-4.4-1.5c-2.2,0-4.2-0.5-4.5-1
	c-0.5-0.8-1.1-0.8-2,0c-0.9,0.7-1.6,0.6-2.5-0.5c-0.7-0.8-2.3-1.5-3.6-1.5c-1.6,0-2.4-0.6-2.4-1.7c0-2.1,7.8-9.3,10.2-9.3
	c3.4,0,1.8-1.9-2.4-3.1c-5.2-1.3-6.8-2.5-6.8-5c0-1.1-0.7-1.9-1.6-1.9c-1,0-1.4-0.7-1.2-2.3c0.2-1.8-0.1-2.1-1.9-1.9
	c-1.6,0.2-2.3-0.2-2.3-1.3c0-0.9-1.3-2.1-2.9-2.6c-4.9-1.7-4.9-5.9,0-7.4c2.5-0.8,2.4-2.5-0.1-3.2c-1.6-0.4-2-1.4-2-4.9
	c0-4.2,0-4.3-3.7-4.6c-2.9-0.2-4.1-0.9-5-2.9c-0.9-1.9-2.8-3.1-6.9-4.4c-4.4-1.4-5.4-2.1-4.9-3.4c2.6-6.1,1-6.7-5.6-2
	c-7.8,5.6-9.9,8-9.9,11.5c0,6.9-2.8,8.6-5.5,3.3c-1.4-2.5-1.9-2.8-3.1-1.8c-1.1,0.9-1.4,2.7-1.2,5.8c0.2,3.7,0,4.6-1.5,4.9
	c-1.2,0.3-2.2-0.9-3.6-4c-2.5-5.9-5.3-8.1-10.3-8.2c-5.5-0.1-5.9,1.7-1.2,5.9l3.8,3.5l-6.1,6.1l-6.1,6l-3.1-1.6
	c-3.9-2-4.8-1.5-6.2,3.8c-0.7,2.6-2.5,5.4-4.8,7.4l-3.6,3.2l2.3,4.6c2.9,5.9,2.8,6.9-0.8,11.4c-1.8,2.2-3.3,5.5-3.6,7.7
	c-0.3,2.1-2.6,8-5.1,13.1c-4.4,8.7-4.6,9.4-3.5,13.1c0.7,2.1,2.1,4.7,3.2,5.7c4.2,3.8,1,9.5-4.6,8.1c-2.9-0.8-3.1-2.2-0.4-3.6
	c2.7-1.4,2.5-3-0.2-3c-3.7,0.1-6.4,2.1-12.5,9.3c-9.5,10.9-10.8,12.9-11.3,17.1c-0.4,3.4-1.2,4.5-4.7,6.9c-4,2.6-4.3,3.2-4.3,7.2
	c0,4.9-3.1,9.5-8.2,12.1c-1.6,0.8-5.5,3.9-8.6,6.7c-8.2,7.5-11.6,9.7-15.1,9.7c-3.6,0-3.9,1.5-1.6,6c1.4,2.8,1.4,3.1-0.5,5
	c-1.1,1.1-2.7,2-3.6,2c-1.3,0-1.5,0.7-1.1,3.5c0.5,2.9,0.3,3.5-1.2,3.5c-2.7,0-4.4,2.6-3.7,5.4c0.4,1.6,0.1,2.8-0.8,3.3
	c-0.7,0.4-2.3,2.7-3.5,5c-2.4,4.8-3.7,5.9-5.4,4.5c-0.8-0.7-2.2-0.1-4.6,1.9l-3.5,2.9l3.2,0.6c4.3,0.9,4.1,2.5-0.2,2.2
	c-2.8-0.2-3.9,0.4-5.7,2.6c-2.7,3.5-5.7,3.1-8.5-1.1c-1.4-2.1-2.5-2.9-3.4-2.3c-0.7,0.4-1.9,0.6-2.6,0.3c-0.7-0.2-3.3,1.6-5.7,4.1
	c-5.3,5.6-8.1,5.9-11.8,1.4l-2.7-3.2l-3.2,2.7c-1.7,1.5-4.1,2.7-5.2,2.7c-2.1,0-15.7,13.5-15.8,15.7c0,0.7,1.7,2.1,3.8,3
	c7,3.3,3.5,8.3-5.8,8.3c-2.5,0-5.5-0.7-6.8-1.6c-3.4-2.4-5.4-1.4-8.7,4.6c-2.8,5-3.4,5.5-7.2,6.1c-5,0.6-6.5,1.8-8.7,6.8
	c-1,2.1-2.9,4.4-4.2,5c-1.8,0.8-2.4,1.9-2.4,4.3c0,5.6-1.1,6.3-6,3.8c-3.1-1.6-5.2-2-7.6-1.6c-1.9,0.4-4.1,0.2-5.2-0.5
	c-2-1.2-3.8-0.3-11.5,5.8c-1.6,1.3-3.7,2.3-4.8,2.3c-2.3,0-10.4,3.9-17.4,8.4c-9,5.9-15.6,9.6-18,10.2c-1.3,0.3-3.1,1.4-4,2.4
	c-1.5,1.6-1.3,2,2,6c2.2,2.6,3.5,5.1,3.3,6.4c-0.3,2.2-0.4,2.2-7.9,1c-2.5-0.5-4.7,0-7.7,1.5c-3.7,1.9-7.2,2-7.2,0.2
	c0-0.4-0.6-1.6-1.4-2.6c-1.3-1.8-1.5-1.7-3.4,2.1c-2.7,5.2-10.1,12.2-18.9,17.8c-7.6,4.8-8.6,6-9.7,11.5c-0.9,5.1-3.1,6.9-11,9.2
	c-5.6,1.7-8.5,3.3-13.6,7.8c-9.3,8-16.3,15.4-18.5,19.5c-1.3,2.3-3.2,4.1-5.7,5c-2,0.9-4.2,2.5-4.8,3.7c-0.6,1.1-2.4,2.5-3.9,3
	c-1.7,0.6-4.4,3.3-6.6,6.5l-3.7,5.4l1,7.2c1.7,11.6,0.8,14.2-6.3,19.2c-3.3,2.3-6.7,5.6-7.6,7.4c-2.5,4.9-3.7,5.9-7.4,6.6
	c-4.7,0.9-6.5,3.9-6.5,10.8c0,3.4-0.5,6.1-1.2,6.7c-0.7,0.6-2.6,2.2-4.3,3.7l-3,2.6l4.5-0.6c5.5-0.6,7.1,0.2,6.8,3.4
	c-0.4,3.2,2.9,4,4,1c0.4-1.2,1.9-2.7,3.2-3.4c1.9-0.9,2.4-1.8,2.1-3.7c-0.7-4.7-0.4-12.4,0.5-16.9c0.9-4,1.5-4.8,6.4-7.5
	c4.4-2.5,5.6-3.7,6.1-6.3c1-4.9,1.9-5.1,1.9-0.5c0,3.3-0.6,4.5-3.5,7.2c-4,3.6-4.2,4.5-1.5,8.6c1.1,1.7,2,4.7,2,6.9
	c0,3.8,0.1,3.9,1.9,2.2s2-1.7,2.9,0.1c0.5,1,1.5,3.5,2.1,5.5c0.8,2.5,2.2,4.2,4.3,5.3c3.1,1.5,3.1,1.5,6.4-2.3
	c2.6-3,3.5-3.5,4.5-2.5c0.7,0.7,2.5,1.3,4,1.3c1.4,0,4.9,1,7.7,2.1l5.1,2.1l3.1-2.6c1.8-1.4,3.6-2.6,4.1-2.6c1.1,0,1.2,1.7,0.2,2.2
	c-0.5,0.1-2,1.8-3.5,3.6c-3.6,4.4-3.6,7.7,0,9.4c3.7,1.8,4,5.3,0.7,8.4c-2.9,2.7-2.5,4.7,0.9,3.8c1.4-0.3,3.2,0.3,4.9,1.6
	c2.5,2,2.7,2.6,2.7,10.3c0,4.4-0.5,9.5-1.2,11.3c-0.9,2.7-0.9,3.5,0.5,4.9c1,0.9,1.7,2.4,1.7,3.3c0.1,1.2,0.5,1,1.5-0.8
	c2.2-4.2,11.6-11.5,14.2-11.2c2.1,0.3,2.3,0,1.8-2.1c-0.5-1.9-0.2-2.7,1.3-3.1c1.1-0.4,2.6-1.3,3.2-2.1c1-1.2,0.7-1.7-1.5-2.5
	c-2.5-1-2.6-1.2-1.2-2.8c1.6-1.8,1.8-10.4,0.2-15c-0.5-1.6-0.3-2.2,0.7-2.2c0.8,0,1.9,1.5,2.4,3.2c0.7,2.3,1.7,3.4,3.2,3.6
	c1.2,0.2,3.1,1.5,4.2,2.9c1.6,2.1,2.6,2.4,5.6,2.1c2.9-0.3,3.8-0.1,4.1,1.3c0.3,1,1.6,1.9,3.1,2.1c3,0.3,7.2,5.8,7.2,9.4
	c0,1.7,0.6,2.4,1.9,2.4c1,0,2.5,0.7,3.2,1.6c1.2,1.4,1.5,1.2,3-2.2l1.6-3.9l1.3,5.1c1.3,5,1.4,5.1,4,4.1c2.2-0.9,3.8-0.5,9.2,2
	c4,1.9,7.5,2.9,9,2.6c2.1-0.4,2.6,0,3.1,2.5c0.3,1.6,1.6,4.2,2.9,5.6c2.1,2.4,2.6,2.5,6.1,1.6c2.5-0.8,4.1-1.9,4.7-3.6
	c0.5-1.3,1.6-2.4,2.4-2.4c0.8,0,2.4-1.2,3.5-2.7c5.6-7.5,6.8-7.2,2.7,0.8c-3,5.9-3,6.1-1.2,7.2c4.7,2.9,8.5,7,8.8,9.5
	c0.3,2.3,0.7,2.7,3.2,2.5c1.6-0.1,4.1-1.3,5.5-2.6c1.4-1.4,3.7-2.8,5.1-3.2c1.4-0.4,4.1-2.1,5.9-3.8c4.2-3.6,11.7-7.1,13.7-6.3
	c2.1,0.8,1.7,3.7-0.6,4.3c-1.1,0.3-2,1-2,1.5s-0.5,0.6-1.1,0.3c-1.4-0.9-5.9,0.3-5.9,1.5c0,0.6,1,1,2.3,1.1h2.2l-2.1,1.1
	c-1.6,0.7-2.3,2.3-2.8,5.6c-0.5,3.6-1.6,5.5-5.7,9.9c-3.9,4.2-5,5.9-4.7,8.1c0.3,2.8,2,3.3,6.3,1.8c1.8-0.7,1.8-0.6,0.3,0.6
	c-0.9,0.7-2.4,1.8-3.4,2.4c-2.6,1.5-1.1,5.7,3.7,10.4c2.9,2.8,4.1,4.9,4.5,7.7c1.1,8.1,1.2,8.3,4.7,8.4h3.2l-2.4,1.7
	c-5,3.4-6.7,5.3-5.3,5.9c3.7,1.5,5.7,5.9,2.3,5c-1.2-0.3-2.9,0.4-4.1,1.6c-1.7,1.5-2.1,2.7-1.7,5.3c0.6,3.4-0.6,4.7-1.7,1.9
	c-0.3-0.8-1.2-1.5-2-1.5c-1.8,0-6.6,6-6.6,8.3c0,0.9-0.8,2.1-1.9,2.6c-3,1.7-6.4,10.8-5.8,15.9c0.4,3.8,0.1,4.8-2.4,7.7
	c-1.6,1.8-2.9,3.6-2.9,4.1c0,1.7-8.4,15-10.9,17.2c-2.3,2.1-2.4,2.5-1,3.4c1.4,1,1.4,1.5-0.7,5.2c-1.2,2.3-3,6.8-4,10.1
	c-2.2,7.4-3,8.5-6.2,8.5h-2.5l2.7,2.5c2,1.8,2.6,3.1,2,4.3c-0.4,0.9-0.9,3.8-1.2,6.3c-0.3,4.1,0,5.1,2.8,8.3c1.8,2,4,3.6,4.9,3.6
	c1,0,2.5,1.6,3.5,3.7c1.7,3.6,1.9,3.7,3.2,1.8c0.8-1,1.4-3.6,1.4-5.7c0-2.1,0.5-3.8,1-3.8c0.6,0,1,0.6,1,1.4c0,0.7,0.9,1.6,2,1.9
	c1.8,0.5,1.9,0.8,0.8,3.4c-0.7,1.5-2.1,4.1-3.1,5.6c-2.2,3.2-1.8,4,4.4,8.2l4,2.8l2.9-2.1c1.6-1.2,3.7-2.2,4.7-2.2s2.7-0.7,3.7-1.5
	c1.2-0.9,4.2-1.5,7.8-1.5c5.4,0,5.8-0.2,7.3-3c1.8-3.6,2.7-3.7,6.7-0.8c2.1,1.4,5.3,2.3,9.9,2.7c8,0.8,10.6,2.7,11.5,8.3
	c0.6,3.7,1.2,4.4,7.9,9.1c3.3,2.3,2.8,3-1.2,1.7c-1.6-0.6-4.6-3.1-6.7-5.5c-3.9-4.7-7.3-5.8-9.6-3c-1.7,2.1-2.1,2-7.1-1.9
	c-2.4-1.8-5.6-3.6-7.1-4c-2.5-0.6-2.8-0.4-2.5,1.6c0.2,2.2-0.1,2.3-5.5,2c-5-0.3-6.4,0-10.2,2.5c-2.6,1.6-5,4.1-5.6,5.8
	c-2.9,7.5-2.7,7.3-4,3.8c-0.7-1.8-1.6-3.3-2-3.3c-0.5,0-1.5-0.7-2.3-1.5c-1.3-1.3-2.1-1.2-6.6,0.6c-4.7,2-5.2,2-7.5,0.5
	c-1.4-0.9-2.7-1.6-3-1.6s-0.6,1.9-0.8,4.2c-0.2,2.3-0.8,4.3-1.4,4.5c-0.6,0.2-2.6-1.9-4.3-4.6c-2.1-3.3-3.7-4.8-4.7-4.4
	c-1.8,0.7-1.8,1.9,0.5,8.6c1.1,3.1,2.1,7.1,2.3,8.9l0.3,3.3l-4.7-0.2c-4-0.2-4.7,0-4.6,1.5c0.3,3.7-0.3,5.2-2,5.2
	c-3,0-5.6-2.6-5.7-5.6c0-2.2-0.5-2.9-2-3c-1.1,0-3.7-0.4-5.8-0.9c-4.9-1-5.6-0.1-2.4,2.9c2.4,2.2,2.5,2.7,1.5,6
	c-1,3.3-0.9,3.8,1,5.2c3.5,2.4,3,7.6-1.3,12.3c-1.9,2.1-3.5,4.9-3.5,6.2v2.4l-1.9-2.4l-1.8-2.3l-2,2.8c-1.1,1.6-3.5,5.8-5.2,9.2
	c-1.8,3.5-5.1,8.4-7.3,10.8l-4.1,4.5l2.1,3.7c1.7,3.1,1.9,4.4,1.1,8.5c-1,5.4-0.3,7.7,4,12.7l2.9,3.5l4.6-1.3
	c5.6-1.5,8.9-1.6,8.1-0.2c-0.3,0.5-1.3,1-2,1c-0.8,0-3.1,1.7-5.1,3.8c-3.5,3.7-3.5,3.7-3.1,1c0.3-2.4,0-2.8-2.7-3.4
	c-1.7-0.3-4.2-1.6-5.4-2.8l-2.4-2.1l-4.4,5c-2.4,2.7-4.4,5.8-4.4,6.8c0,2.3-2.8,3.3-5.1,1.9c-1.5-1-2.1-0.6-3.8,2.4
	c-2.5,4.2-7.2,6.4-13.8,6.4c-7.5,0-8.7,1.5-3.2,3.9c7.2,3.2,17.8,5.3,24.5,4.9c5.7-0.4,6.9-0.8,13.1-5.3c1.8-1.3,12.5,4.4,19.2,10.2
	c4.7,4.1,5.1,4.3,6.2,2.5c1-1.6,1.6-1.7,4-0.8c2.4,0.8,3.7,0.6,7.6-1.3c5.7-2.8,13-3.5,23.3-2.4c8.1,0.9,9.9,2.6,6.5,6.3
	c-1.1,1.2-1.5,3.1-1.3,5.2c0.3,3.2,0,3.5-3.1,2.9c-0.5,0-1.2-1.2-1.5-2.5c-1-3.9-5.7-5.2-12.5-3.5l-5.6,1.4l0.3,5
	c0.5,7.3,2,9.9,6,10.3c2.5,0.3,3.2,0.7,2.8,1.9c-0.3,0.8-0.6,1.7-0.6,1.9c0,0.2-2.8,0.4-6.2,0.4c-4.9,0-6.6-0.4-8.4-2.1l-2.3-2.1
	l-5.6,2.6c-3.2,1.4-6.4,2.6-7.1,2.6c-0.8,0-1.9,1.2-2.4,2.6c-1.4,3.5-1.4,3.5,1.8,3.2c2.2-0.3,2.8,0.1,3,2.2c0.4,3,2.8,5,6,5
	c1.4,0,4.1,1.5,6.3,3.5c4.2,3.8,8.5,5.3,10.1,3.7c0.6-0.6,2.3-0.8,3.9-0.5c3.1,0.6,9.6-1.2,12.1-3.5c1-0.8,2.1-3.7,2.4-6.3
	c0.8-5.7,2.6-6.7,2.2-1.1l-0.3,3.7l5,0.5c5,0.5,5,0.5,4.8,3.9c-0.1,2.5-1.2,4.5-4.4,7.7c-2.4,2.4-5.1,4.7-6.1,5
	c-1,0.3-1.8,1.2-1.8,2.1c0,1,0.6,1.3,1.6,0.9c0.9-0.3,3.2,0.4,5.2,1.6l3.6,2.2l-1.7-2.4c-1.6-2.2-1.5-2.4,1-3.7
	c3.4-1.7,3.3-1.8,3.3,2.3v3.6l3.1-2.6c1.7-1.4,3.4-2.6,3.9-2.6c0.4,0,1.7-1.6,2.9-3.5l2.1-3.6l-2.2-0.8l-2.2-0.8l2.4-1.3
	c1.8-0.9,2.5-1,2.8-0.1c0.2,0.6,2.1,1.1,4.2,1.1c2.1,0,4.3,0.6,5,1.5c1.6,1.9,3,1.9,3,0c0-0.8-0.4-1.5-1-1.5c-0.5,0-1-0.9-1-2
	c0-1.6-0.7-2-3.4-2c-3.7,0-6.2-2.1-5.2-4.6c0.5-1.4,1-1.3,3.9,0.4c3.7,2.3,6.8,1.5,6-1.6c-0.2-1,0.3-2.4,1.1-3.1
	c1.4-1.2,1.6-0.9,1.6,2.4c0,3.5,0.1,3.6,2.9,3c3.1-0.7,8.1,0.2,8.1,1.5c0,0.4-1.2,1.2-2.7,1.8c-7.2,2.6-7,2.5-4,3
	c2.9,0.4,3.6,1.9,1.2,2.8c-2,0.8-1.9,2.1,0.5,4.6c1.7,1.8,2.3,2,4.5,1c2.4-1.1,2.5-1.1,1.5,0.9c-1.4,2.6-3.8,3.5-5.3,2
	c-0.6-0.6-2.1-1.1-3.3-1.1c-1.3,0-2.5-0.4-2.9-1c-1.4-2.3-10.4,3.4-10.5,6.7c0,1.6-0.5,2-1.9,1.6c-1.1-0.3-2.7,0-3.7,0.5
	c-1.6,0.9-1.3,1.2,2.1,2.6c3.4,1.5,4,1.5,6.1,0.1c3.3-2.2,4.7-2,3.4,0.5c-0.6,1.1-1.9,2-2.9,2s-2.4,0.7-3.1,1.6
	c-1,1.1-2.4,1.4-4.9,0.9c-3.6-0.5-3.6-0.5-6.6,5.5l-2.9,5.9l2.1,2.3c1.1,1.3,2.3,3,2.6,3.8c0.4,1.2,0.6,1.1,1.2-0.5
	c2.3-6.7,3.6-8.6,6.5-9.2c1.7-0.3,3.3-0.9,3.6-1.4s3.1-0.6,6.3-0.2c5.6,0.5,5.9,0.4,6.6-1.8c0.4-1.3,1.3-3,1.9-3.8
	c0.6-0.7,1.6-3.2,2.1-5.4c1.1-4.3,3.5-6.3,3.5-2.8c0,1.8,3.3,5.1,5.2,5.1c0.5,0,0.8-0.9,0.8-2c0-1.5,0.7-2,2.7-2
	c2.5,0,2.5,0.1,0.9,1.9c-1.7,1.8-1.6,1.9,2.4,2.6c2.3,0.4,4.4,0.4,4.8,0c1.2-1.2,0.9-5.9-0.5-7.3c-2-2.1-1.5-3.2,1.7-3.9
	c4-0.7,4.6-2,2.4-4.4c-1.7-1.9-1.7-2.1,0.5-6.3c2.1-3.8,2.2-4.7,1.2-7.6c-1.7-5.1-1.4-6.2,1.4-3.5c3.1,3.2,9.1,3.4,12.9,0.4
	c3.7-2.9,3.4-4.9-0.9-4.9c-3.8,0-4.4-1.4-2-4.6c2.4-3.2,1.9-4.4-1.6-3.7c-3.1,0.6-3.2,0.5-2.5-2c0.8-3.2,0.9-3.1-3.7-1.2
	c-4.4,1.8-7.6,0.8-10.2-3.2c-0.9-1.5-2.9-4.1-4.4-5.6c-2.5-2.8-2.6-2.9-0.7-4.3c2.3-1.6,4.2-1.8,5.1-0.4c0.3,0.5,1.2,0.7,1.9,0.4
	c0.7-0.3,4,0.4,7.2,1.5c4.7,1.5,6,2.4,6.3,4.3c0.6,4.2,3.6,5,5.3,1.3c1.5-3.3,4.1-3.2,10.3,0.5c4.9,2.9,5,3,5,7.7
	c0,4.5,0.2,4.8,2.8,5.1c1.5,0.2,2.7,0.9,2.7,1.6c0,0.7,1.1,2.3,2.5,3.6s2.5,2.9,2.5,3.5s1.1,2.2,2.5,3.5s3.2,4.7,4.1,7.6l1.5,5.1
	l4.7-0.1c2.6-0.1,5.8,0.3,7.1,0.8c2.2,0.8,2.3,0.7,1.6-2c-1.3-4.4-1.1-9.7,0.3-10.1c0.6-0.3,2.2,0.7,3.5,2.2
	c1.2,1.5,3.1,3.6,4.1,4.8l1.9,2l2.2-2.6c1.1-1.5,2.3-2.7,2.7-2.7c0.3,0,0.8,3.2,1,7.2c0.5,6.5,0.8,7.4,3.7,9.7
	c2.5,2,3.1,3.3,2.9,5.6c-0.1,1.7,0.1,3.5,0.5,4.1c0.9,1.5,9.3,3.8,11.2,3.1c1.9-0.8,2-6.4,0.1-13.5c-0.8-3-1.2-6-1-6.7
	c0.3-0.7,2.3-2,4.4-3c2.2-1,4.7-2.6,5.6-3.6c1.5-1.7,1.7-1.7,5.5,0.3c4.7,2.4,6.6,2.1,14.6-2.6c3.2-1.9,7.4-3.7,9.3-4.1
	s4.5-1.6,5.7-2.7l2.2-2.1l-0.6,3.7c-0.5,3.3-0.2,4.1,4.6,9.1c2.8,2.9,5.1,5.9,5.1,6.4c0,0.6,1.4,1.1,3.1,1.1c3.6,0,5.7,1,12.5,6.2
	c5.4,4.1,10.2,5,12.4,2.3c0.7-0.8,2.3-1.5,3.6-1.5c1.8,0,2.7-0.8,3.5-2.8c0.5-1.5,1.5-3.2,2.2-3.7c0.7-0.6,2-2.1,2.8-3.5
	c1.5-2.3,1.5-3.6,0.4-11.5c-0.7-5-1.6-10.7-2-12.8c-0.7-3.7-0.7-3.7,2.6-3.7c4.7-0.1,11.2-3.2,19.1-9.3c8-6,11.2-10.4,12.9-17.2
	c1.3-5.7,5.2-10.3,10.9-13.1c3.4-1.7,4.2-2.8,7.6-11.2c2.1-5.1,4.6-10,5.7-10.7c1-0.7,3-2.9,4.3-4.9c1.4-2,4.4-4.8,6.6-6.2
	c2.3-1.5,6.3-4.7,8.9-7.1c4.4-4.1,5.1-4.4,8.6-3.8c2.9,0.4,5.2,0,9.3-1.8c5.1-2.3,6-2.4,13.1-1.4c6.8,0.9,8.3,0.8,13.9-1.1l6.3-2.2
	l7.1,2.1c3.9,1.1,9,3,11.3,4.2l4.3,2l4.9-3c7.2-4.5,10-5.1,27.9-5.6l16.3-0.4l4.1,3.3c4.6,3.9,9,4.4,12.8,1.4
	c3.2-2.5,7.1-2.5,18.9,0c12.4,2.6,14.5,2.5,21.9-1c10.5-5,19.3-11.3,27.8-20.1c10.1-10.4,10.9-12.6,10.7-28.4
	c-0.1-6.5,0.3-12.8,0.9-13.8c0.5-1,3-2.8,5.4-3.8l4.4-2v-6.5c0-6.3-0.1-6.6-4.5-11.3c-2.5-2.7-5.9-5.5-7.6-6.1
	c-2.1-0.9-3.2-2.2-3.6-4.2c-0.7-3.6-2-4.4-2.8-1.8c-0.4,1.2-1.5,2-2.9,2c-1.2,0-3.1,0.7-4.2,1.5c-2.6,2-3.1,1.9-4-0.7
	c-0.3-1.2-2.8-4.5-5.4-7.2c-2.6-2.8-5.5-6.5-6.4-8.3c-2.2-4.4-6.8-7.6-16.1-11.3c-11.5-4.5-15-7-17-12.4c-1-2.5-2.6-4.8-3.5-5.1
	c-3.2-1-7-4.6-7-6.5c0-1.1-0.9-2.4-2-3c-1.1-0.6-2-1.7-2-2.5c0-0.7-1-1.5-2.1-1.7c-1.6-0.2-2.5-1.5-3.4-4.3
	c-1.8-6.2-3.4-8.6-6.5-9.6c-1.8-0.7-3.3-2.2-4.1-4.2c-3-7.9-4.2-9.6-7-10.6c-1.9-0.7-2.9-1.7-2.9-3.1c0-2-0.1-2-3-0.5
	c-4.4,2.3-8.5,1.9-12.2-1.3c-6.9-5.7-9.9-7.5-11.1-6.3c-0.6,0.6-2.7,1.1-4.7,1.1s-4.1,0.5-4.7,1.1c-1.5,1.5-4.3-0.1-7.8-4.3
	l-2.7-3.2l-1.8,2.3c-2.1,2.9-2.7,2.6-11.3-5.6c-5-4.6-6.8-7.1-7.3-9.8c-1-5.6,0.1-11.6,2.7-13.6c1.2-0.9,1.9-2.1,1.5-2.7
	c-0.3-0.6-0.2-1.3,0.3-1.7c0.7-0.4,0.7-1.5,0-3.2c-1.4-3.7-0.3-4,1.5-0.4c2.6,5,7.5,6.3,9,2.4c0.5-1.2,0-1.3-2.5-0.8
	c-2.3,0.5-3,0.4-2.7-0.6c0.2-0.7,1.1-1.6,1.9-1.9c4.9-2.3,5.4-2.8,5.1-5.6c-0.6-4.7-2.1-5.8-4.7-3.4c-1.2,1.1-2.9,2-3.8,2
	c-1,0-2.6,0.6-3.7,1.2c-1.5,1-2.2,1-3.2,0c-1.1-1.1-1-1.5,0.4-2.3c1.1-0.6,1.5-1.6,1.1-2.7c-0.3-0.9-0.3-1.4,0.2-1
	c0.4,0.4,1.5,0.2,2.3-0.4c0.8-0.7,2.3-1.7,3.5-2.3c2.9-1.4,3.2-3.2,0.7-4.5c-1.7-0.9-2.8-0.7-5.7,1.1c-3.2,2-3.6,2.1-3,0.5
	c0.4-1,0.7-2.1,0.7-2.6c0-0.4,4.2-1,9.3-1.3c5-0.3,10.1-0.7,11.2-0.9c1.3-0.2,2.1,0.4,2.3,1.7c0.3,1.1,1.7,3.5,3.3,5.3
	c3.2,3.6,3.7,7.3,1.4,9.2c-0.8,0.7-1.5,2.6-1.5,4.2c0,1.6-0.5,3.9-1.1,5c-2,3.7,4.2,6.2,7.9,3.1c2.5-2,2.7-0.5-2.9-19.3
	c-1.1-3.6-1.9-7.4-1.9-8.5s-0.7-4.2-1.5-6.9s-1.5-8.1-1.5-12.1c0-6.3,0.3-7.4,2.5-9.5c1.4-1.3,2.5-3.1,2.5-4.1s1.1-3.1,2.5-4.7
	c3.1-3.7,3.1-4.3,0-9.7c-3.1-5.2-5.1-7-6-5.5c-1.3,2-3.6,0.9-5.1-2.5c-3.2-7.7-0.7-18.8,5.6-25c2.2-2.1,4-4.6,4-5.5
	c0.1-1.6,6.5-9,7.9-9c0.4,0,2-0.9,3.5-2.1c2.4-1.9,3-2,5.8-0.8c2.9,1.2,3.2,1.1,5.2-1.4c2.6-3.2,6.6-4.9,13.6-5.6l5.5-0.6l0.3-4.4
	c0.3-3.9,0.5-4.2,2.5-3.6c1.2,0.3,2.7,0.6,3.2,0.6c8.1-0.5,10.6-0.8,11.2-1.5c0.4-0.4,0.7-3.6,0.5-7c-0.3-7.9,2.5-12.9,7.6-13.4
	c2.6-0.3,4.2-1.6,8.2-6.5c2.8-3.4,5-7.1,5-8.3c0-1.1,0.2-2.3,0.5-2.6c0.7-0.7,8.1,0.9,11.1,2.4c1.1,0.5,2.7,0.8,3.5,0.7
	c0.8-0.2,2.5,0.1,3.9,0.6c1.4,0.4,4.3,0.9,6.5,0.9c3.6,0.1,4,0.4,4.3,2.8c0.4,3.4,1.5,3.5,3.4,0.6c1.1-1.6,2.8-2.3,6.4-2.7
	c4.8-0.6,4.9-0.6,4.6-3.8c-0.7-6.8,8.1-6.7,12.3,0c1.1,1.8,2.6,3.2,3.3,3.2c0.7,0,2.7-2.9,4.5-6.5c3.8-7.6,7-9.9,15.3-10.7
	c4.8-0.5,5.9-1,7.2-3.4c1.2-2,2.7-2.9,5.6-3.4c3-0.4,5.4-1.9,9.7-6c5.4-5.2,6.1-5.5,10.8-5.5c4.8,0,5.4-0.3,9-4.5
	c1.9-2.4,0.6-10-2.2-12.2c-2.1-1.7-5.7-7.3-5.7-8.8c0-1.4,6.6-6.5,8.5-6.5c1.2,0,6.1-1.8,11-4c5-2.2,10.1-4,11.3-4
	c2.7,0,17.3-7.8,21.3-11.2c1.4-1.3,4.9-5.1,7.8-8.6c3.2-3.7,6.4-6.5,8-6.8c1.4-0.4,4.5-1.7,6.9-3.1c3-1.7,5.1-2.3,7.1-1.8
	c2.4,0.5,3.3,0,5.9-3c1.8-1.9,4.1-5.2,5.1-7.3c1.1-2,2.8-4.4,3.9-5.3c1.1-0.9,2.5-4.1,3.2-7c0.7-3,2.5-7.7,4.1-10.5
	c1.6-2.8,2.9-5.8,2.9-6.5c0-1.9,5.6-13.5,6.9-14.3c0.6-0.4,3.4,0,6.3,0.9c2.8,0.8,5.5,1.5,6,1.5c0.4,0,1.7-1.8,2.8-4
	c2.9-5.6,8.2-9.1,22-14.5c13.5-5.3,17.7-7.7,20.5-12.2c2.6-4.1,6.3-5.4,16.1-5.4c4.3,0,8.6-0.5,9.5-1c1.4-0.7,1.9-0.4,2.4,1.2
	c1,3.1,2.9,1.7,4.3-3.2c0.7-2.4,2.1-7.1,3.2-10.4c2.7-8.1,2.5-10-1.2-15.8c-2.9-4.5-3.2-5.6-2.8-11.1c0.4-7.1,0.3-12.7-0.4-33.1
	c-0.5-13.6-0.4-15.1,1.3-17c1.1-1.1,2.1-4,2.5-6.5c1.2-10.1,2-12.7,5.1-16.5c2.3-2.8,3.6-5.8,4.4-9.9c1.5-7.9,1.5-7.6-1.9-7.6
	c-2.1,0-3.5-0.8-4.7-2.6l-1.7-2.6l-2.8,3.3c-1.5,1.9-2.8,2.8-2.8,2.2c0-2-5.7-4.4-8.5-3.7c-1.6,0.4-2.5,0.2-2.5-0.6
	c0-0.8,1.9-1.1,6.3-0.8c5.6,0.3,6.2,0.1,6.2-1.6c0-1.3-1.6-2.9-4.5-4.6c-7.1-4.2-8.5-7.5-8.2-19.7c0.2-7.4,0.8-11.4,2.2-14.5
	c1-2.4,2.6-7.6,3.4-11.7c1.5-7.2,2.8-9.6,9.6-18.5c1.8-2.4,3.4-6,4.1-9.7c0.6-3.2,1.6-5.9,2.1-5.9c0.4,0,1.4-1.1,2-2.5
	c1.4-3.1,5.7-3.4,8.3-0.5c2.5,2.7,3.1,2.5,3.9-1c0.3-1.7,1.7-4.1,3.2-5.3c2.4-2.1,2.6-3,3.3-14.3c0.5-6.7,1.1-12.6,1.5-13.3
	c1.1-1.7,3.7-1.3,7.4,0.9c4,2.5,4.2,2.5,4.2,0c0-2,0.4-3,3-8c0.9-1.7,1-2.5,0.1-2.8c-0.7-0.2-0.4-1.4,1-3.3c1.7-2.4,1.9-3.2,0.8-4.5
	c-1-1.2-0.8-1.8,0.9-3.4c1.1-1.1,2.4-2.9,2.8-4.2l0.7-2.2l1.8,2.3c1.8,2.2,1.9,2.2,1.9,0.3c0-1.1,0.7-2.5,1.5-3.2
	c0.8-0.7,1.7-2.8,2.1-4.7l0.7-3.6l1.7,2.3c1.7,2.2,1.8,2.3,2.8,0.4c0.5-1.1,0.6-2.8,0.1-3.9c-1.3-3.4-0.9-4.9,1.7-6.9
	c2.5-1.8,2.6-1.8,7.6,1.3c6,3.8,9,3.5,6.3-0.5c-0.9-1.4-1.5-2.7-1.3-2.8c0.2-0.1,1.6-0.6,3.2-1.1c2.3-0.8,3.3-2.2,5.1-7.1
	c1.4-3.7,2-6.6,1.5-7.5c-1.1-1.7-0.3-2.9,1.8-2.9c1.6,0,9.3-8,12.3-12.8c0.8-1.2,1.7-2.2,2.1-2.2c0.9,0,2.7,6.8,2.5,9.5
	c-0.3,3.5,1.8,3.2,2.9-0.4c0.6-1.9,2.3-4.7,3.8-6.1c1.4-1.5,2.6-3.5,2.6-4.6c0-1,0.7-2.8,1.5-3.8c1.2-1.6,1.7-1.7,3-0.6
	c2.2,1.9,2.5,1.1,1.3-4.5c-0.8-3.5-0.7-5.4,0.1-6.7c0.6-1,1.1-2.9,1.1-4.3c0-2.9,0-2.9,4.7-1c5.1,2.1,7.7,2,7-0.4
	c-0.6-2.4,1.1-3.2,5.6-2.4c2.7,0.4,4,0,5.6-1.6c1.9-1.9,2.2-2,2.8-0.5c0.4,1,0,2.2-1,2.9c-3,2.1-1.9,3.5,2.6,3.5
	c2.4,0,4.9,0.6,5.6,1.2c1,1.1,1.1,0.6,0.6-2.5c-0.4-2.1-0.3-4.3,0.3-5c0.5-0.6,1.3-3.3,1.6-6c0.7-4.7,1.4-5.2,5.1-3.8
	c1.8,0.7,1.8,0.9-0.8,2.6c-2.2,1.4-2.5,2-1.5,3.2c0.9,1.2,0.8,2.2-0.7,5c-1.9,3.4-1.9,3.5-0.1,4.9c1.8,1.2,1.8,1.4,0.2,2
	c-1.4,0.5-1.6,1.4-1.1,4.6c0.5,2.5,0.3,4.4-0.5,5.4c-0.7,0.8-1.1,1.7-0.8,1.9c0.7,0.8,3.8-0.6,3.8-1.6c0-0.5,1.9-0.9,4.3-0.9
	c7.1,0,7.5-0.9,4.4-8.5c-3.1-7.4-3.3-10.3-1.2-13.1c1.9-2.5,1.9-6.4-0.2-9.4c-3.5-5.3-6.6-7.9-10.4-8.5c-5.2-0.9-6.3-2.5-5.5-7.9
	c0.6-3.9,0.4-4.6-1.3-5.6c-1.4-0.7-2.1-2.1-2.1-4.2c0-1.7-1.4-5.5-3.1-8.5c-2.7-4.8-3.1-6.1-2.6-10.3c0.5-3.9,0.2-5.4-1.2-7.2
	c-1.7-2-2.1-2.1-4.4-0.9c-3.7,2-5.3,6.3-3.7,10.1c2.4,5.7-1.2,8-6.3,3.9c-2.5-1.9-2.6-2.4-2-8.1l0.6-6.1l-4.6,0.6
	c-4.6,0.7-4.7,0.6-6.1-2.8c-0.9-2-3.4-4.8-6-6.7c-3.5-2.4-4.9-4.3-6.1-7.9c-1.4-4.2-2.1-4.9-5.8-6.1l-4.2-1.3V62.8
	c0-6.4-0.3-12-0.7-12.4c-1.5-1.4-0.8-5.8,1.9-13.6c3.3-9.2,2.8-10.4-4.4-10.1c-2.6,0.1-6-0.5-7.6-1.3c-2.5-1.4-3.1-1.4-5.2,0
	c-5.9,3.9-11.3-0.7-6.8-5.6c1.4-1.6,1.5-2.3,0.5-3.9c-1.1-1.7-0.8-2.3,1.9-4.9c3.4-3,3.4-6,0.2-6c-1,0-4.4,1.3-7.6,2.9
	c-4.9,2.4-6.4,2.8-9,2c-1.8-0.5-5-0.9-7.2-0.9c-5,0-8.1-2.1-9-6C1056.7-0.5,1055.2-0.7,1049.3,2z"/>
<path class="st0" d="M1115,211.5c0,1.6,0.6,2.5,1.5,2.5s1.5-0.9,1.5-2.5s-0.6-2.5-1.5-2.5S1115,209.9,1115,211.5z"/>
<path class="st0" d="M730.4,736.5c-1,2.4-0.1,2.7,5.5,1.9c6.4-0.8,6.2-2.8-0.2-3.2C732.1,735,730.8,735.3,730.4,736.5z"/>
<path class="st0" d="M131.5,829.4c-1.1,0.8-1.9,2.6-2,4.2c0,2.2-0.9,3.5-3.9,5.4c-3.1,2-3.5,2.6-1.9,2.8c1.5,0.2,1.9,1.1,2,4
	c0.1,2.9-0.5,4.2-2.8,6.3c-3.6,3.2-3.6,3.6-0.1,3.4c1.7-0.1,5.1-2,8.4-4.7c3.1-2.6,6.5-5.1,7.5-5.7c1.5-0.9,1.6-1.2,0.4-2
	c-1.6-1-2.4-10.1-1-10.1c1.4,0,1.1-1.7-0.7-3.4C135.5,827.6,133.9,827.6,131.5,829.4z"/>
<path class="st0" d="M88.9,839.1c-4.2,1-10.9,4.7-10.9,6c0,0.6,0.8,0.5,1.9-0.1c1.1-0.5,2.7-0.7,3.6-0.4c0.9,0.4,2,0.2,2.4-0.5
	c0.6-0.9,1.5-0.8,3.6,0.3c3.3,1.7,6,0.8,7-2.4C97.7,838.1,95.9,837.4,88.9,839.1z"/>
<path class="st0" d="M96.7,847.8c-2,2.2-2.3,7.2-0.4,7.2c1.6,0,4-7.1,2.9-8.2C98.7,846.3,97.6,846.8,96.7,847.8z"/>
<path class="st0" d="M79,869c0,2.5,0.4,3.1,1.8,2.8c1.1-0.2,1.7-1.2,1.7-2.8c0-1.6-0.6-2.6-1.7-2.8C79.4,865.9,79,866.5,79,869z"/>
<path class="st0" d="M150,1052.4c0,0.8,0.5,1.8,1.1,2.1c0.7,0.5,0.4,1.4-0.7,2.6c-2.3,2.6-0.9,3.7,2.4,1.8c3.1-1.7,4.2-4.9,1.7-4.9
	c-0.8,0-1.8-0.7-2.1-1.5C151.6,1050.6,150,1050.5,150,1052.4z"/>
<path class="st0" d="M118,1073.6c0,1.9-0.7,2.8-3,3.5c-1.9,0.7-3,1.8-3,3c0,1-0.4,1.9-1,1.9c-1.5,0-1.2,2.6,0.5,4
	c1.2,1,2.1,1,4.3,0.1c2.4-1,3.6-0.9,7.6,0.9c6.5,2.7,9.6,2.7,9.6-0.3c0-3.5-3.5-8.3-8.7-12.1C118.5,1070.3,118,1070.3,118,1073.6z"
	/>
<path class="st0" d="M220,1242c0,0.5,0.7,1,1.5,1s1.5-0.5,1.5-1c0-0.6-0.7-1-1.5-1S220,1241.4,220,1242z"/>
<path class="st0" d="M157,1244.4c0,0.9-0.7,1.2-1.7,1c-1.1-0.3-2.3,0.4-3.1,1.6c-1.1,1.8-1,2.1,1,2.9c2.7,1,5.1,0,7.2-3.1
	c2.2-3.1,2-3.8-0.9-3.8C158,1243,157,1243.6,157,1244.4z"/>
<path class="st0" d="M215.6,1250.4c-3.7,4.9-3.2,5.6,0.9,1.6c1.9-1.9,3.5-3.8,3.5-4.2C220,1246,218.1,1247.2,215.6,1250.4z"/>
<path class="st0" d="M182.8,1248.7c-1,0.2-1.8,0.9-1.8,1.4s-0.7,0.9-1.5,0.9c-1.6,0-1.7,0.6-0.7,3.2c0.6,1.4,1.2,1.2,4.5-1.8
	C188.1,1248,188,1247.3,182.8,1248.7z"/>
<path class="st0" d="M292,1250.5c0,0.8,0.5,1.5,1,1.5c0.6,0,1-0.7,1-1.5s-0.4-1.5-1-1.5C292.5,1249,292,1249.7,292,1250.5z"/>
<path class="st0" d="M316,1257.2c-2.2,1-2.3,1.2-0.6,1.5c1,0.3,2.6-0.2,3.4-1.1C320.7,1255.8,319.6,1255.6,316,1257.2z"/>
<path class="st0" d="M206.7,1261.6c-2.1,1.4-3.5,3-3.1,3.5c0.4,0.7-0.1,0.9-1.5,0.4c-1.6-0.5-2.3-0.1-3,1.7c-0.5,1.3-2.1,3-3.5,3.7
	c-2.7,1.5-3.6,5.1-1.2,5.1c3.7,0,15.4-9.6,19-15.8C214.6,1258.1,210.8,1258.9,206.7,1261.6z"/>
</svg>
