<?xml version="1.0" encoding="utf-8"?>
<!-- Generator: Adobe Illustrator 27.0.1, SVG Export Plug-In . SVG Version: 6.00 Build 0)  -->
<svg version="1.1" id="layer" xmlns="http://www.w3.org/2000/svg" xmlns:xlink="http://www.w3.org/1999/xlink" x="0px" y="0px"
	 viewBox="0 0 896 1280" style="enable-background:new 0 0 896 1280;" xml:space="preserve">
<style type="text/css">
	.st0{fill:#D4E5C2;}
</style>
<path class="st0" d="M742.6,1.6c-1.7,1-4,1.4-5.7,1c-2-0.4-3.1-0.1-3.8,1.2c-0.7,1.2-2.1,1.6-5,1.6c-2.4-0.1-4.2,0.4-4.5,1.1
	c-0.2,0.7-2.6,2.5-5.3,3.9c-2.6,1.5-5.8,4.2-7.1,6.1c-1.4,2.3-3,3.5-4.5,3.5c-1.8,0-2.6,1-4,5.1c-1,2.8-3.4,6.8-5.3,8.8
	c-1.9,2.1-3.4,4.6-3.4,5.5c0,1-1.4,2.3-3.2,3l-3.1,1.4l2.4,1.5c1.3,0.9,4,2.3,5.9,3.1c6.1,2.5,8.9,5.4,10.5,10.8
	c2.2,7.5,1.7,9.1-0.9,3.2c-2.4-5.3-8.8-11.4-11.9-11.4c-2.3,0-7.4,2.6-8.4,4.4c-0.4,0.7-4.6,3.3-9.3,5.6c-7.8,3.9-9.2,4.3-20,5.1
	c-19.2,1.5-24.5,2.7-34,7.7c-16.8,8.9-19.6,10.1-27,11.9c-5.3,1.2-9.4,3-13.7,6c-3.4,2.3-7.7,4.9-9.5,5.7
	c-5.1,2.2-15.8,12.8-15.8,15.6c0,1.3-0.7,3.2-1.6,4.2c-1.3,1.4-1.4,2.1-0.5,3.2c1.3,1.6-0.1,5.6-1.9,5.6c-0.4,0-1.3,1.5-1.9,3.3
	c-0.6,1.8-3.2,5.3-5.7,7.8c-2.9,2.8-6.1,7.7-9,13.4c-2.4,5-4.4,9.4-4.4,9.8c0,0.4-2.9,4.8-6.5,9.7c-8.1,10.9-10.6,16.5-11.3,24.8
	c-0.4,5.5-0.2,6.7,1.3,7.8c2.1,1.5,2.5,0.8-7.7,12.1c-3.9,4.2-4.8,5.9-4.8,8.8c0,3.2-0.9,4.6-5.9,9.7c-4.3,4.4-6.8,6.1-9.1,6.4
	c-5.7,0.7-10.7,2.4-13.5,4.6c-4.2,3.3-8.5,9.8-8.5,12.8c0,3.4-1.4,4.6-6.2,5.5c-2,0.4-4.5,1.7-5.6,2.8c-1.9,2.1-6.7,13.2-13.7,32
	c-3.8,10.1-8.6,17.8-16,25.7c-7.2,7.7-14.1,16.8-15.8,21c-0.7,1.9-3.1,5.7-5.1,8.5c-3.2,4.4-9.2,16.3-11.1,22
	c-0.6,1.9-0.7,1.9-1.9-0.4l-1.4-2.4l-1.2,2.4c-0.7,1.3-2.4,3.7-3.9,5.2l-2.6,2.9l2.2,1.8c1.6,1.3,2.3,2.9,2.3,5.4
	c0,2-0.5,3.6-1.1,3.6c-0.6,0-0.9-0.9-0.6-2c0.3-1.1,0.2-2-0.2-2c-1,0-2.4,3.2-4.1,9.2c-1,3.5-2,4.8-3.7,5.3
	c-1.3,0.3-2.3,1.1-2.3,1.7c0,0.7-0.6,0.4-1.3-0.5c-1.4-2-2.8-1.2-4.5,2.6c-1.9,4.3-1.5,5.1,3.8,8.2c2.8,1.6,5,3.2,5,3.5
	c0,0.3-1.9,0.5-4.2,0.5c-4.1,0-4.2,0.1-5.1,4c-1.6,6.5-4.2,9.5-8.5,9.5c-4.5,0-8.2,2.4-8.2,5.2c0,1.2-1.9,4-4.4,6.4
	C341,449,335,456.7,335,458.2c0,0.4,1.3,0.8,3,0.8c3.8,0,8.9-4.5,10.4-9.1c0.8-2.3,1.8-3.5,3.4-3.7c2.5-0.4,2.7,0.6,1.2,5.8
	c-1.8,6.1-3.4,7.3-11.3,8.5c-7,1-7.3,1.2-9.4,5c-1.2,2.2-2.2,4.4-2.2,4.8c-0.1,0.5,3.3,0.7,7.4,0.5s7.5-0.1,7.5,0.2
	c0,0.3-2.9,2.2-6.5,4.3c-6.9,4-10.6,8.8-13,17c-0.9,3.1-1.8,4.3-3.4,4.5c-2.6,0.4-5.4,4.3-4.5,6.5c0.3,1-0.2,2-1.4,2.6
	c-1.1,0.6-3.2,3.2-4.6,5.8c-2.8,4.8-2.4,6.2,1.7,6.3c1.6,0,1.6,0.4-0.6,4.2c-1.4,2.4-3,6.1-3.7,8.3c-1.8,5.4-8.7,13.5-12.2,14.2
	c-3,0.6-3.5,2.3-1.8,6.7c0.7,1.8,2.1,2.8,5.2,3.6c6.2,1.5,12.7,4,13.3,5c0.3,0.5-0.6,0.5-2.2,0c-10.3-3.2-25.5-7-26.3-6.5
	c-0.6,0.3-1,1.3-1,2.1s-0.7,1.4-1.6,1.4c-1.1,0-1.4,0.6-0.9,2c0.5,1.7,0.2,2-2.6,2c-2.6,0-8.7,3-13.8,6.7c-0.2,0.1,0.2,0.9,0.9,1.8
	c1.6,1.9-0.2,6.9-3.3,9c-1.9,1.3-1.9,1.5-0.3,4c1.8,2.7,3.4,2.9,7.9,1c1-0.4,1.7-0.3,1.7,0.4c0,0.6-0.9,1.1-2,1.1s-2.9,0.9-4.1,2.1
	c-1.6,1.6-2,3.1-1.8,7.7c0.1,3.1-0.2,6.5-0.6,7.5c-0.6,1.4-0.2,2,1.4,2.4c2,0.5,2,0.6-1.1,5.2c-1.7,2.5-4.5,6.6-6.2,9.1
	c-2.2,3.2-3.3,6.3-3.9,11c-1.1,8.8-1.1,8.7-0.4,23.4c0.5,9.6,1,13.3,2.2,14.6c1.2,1.3,1.3,2.3,0.6,4.4c-0.9,2.3-1.6,2.6-5.6,2.6
	h-4.6l0.3,5.2c0.3,5.2,0.4,5.3,3.5,5.6c1.8,0.2,4.1-0.2,5.3-0.8c2.8-1.5,3.8,1.2,1.6,4.5c-0.9,1.3-1.6,3.3-1.6,4.3s-0.9,2.7-2,3.7
	c-2.4,2.1-2.6,4-0.5,3.1c0.8-0.3,2.2-0.9,3-1.2c1.3-0.5,1.4,0.7,0.9,9.4l-0.7,10l2.8,0.4l2.7,0.3l-2.1,2.6c-1.1,1.5-3.4,2.9-5.1,3.3
	c-2.6,0.5-3,0.9-2.5,2.7c0.5,1.4,0.1,2.5-1.1,3.3c-1.9,1.5-5.1,9.5-6.4,16.6c-1.7,8.6-2.3,10.3-4.2,10.8c-1,0.2-2,1.4-2.2,2.6
	c-2,10.9-2.6,15.6-2.3,18.4c0.3,2.5,0.2,3-0.8,2.2c-0.9-0.8-1.6,0.9-3,7.1c-0.9,4.5-2.5,10-3.5,12.3c-1,2.2-2.4,7-3,10.6
	c-0.6,3.6-1.8,7.7-2.6,9.3c-2.3,4.2,0,3.2,4.5-2.1c3.3-3.9,4.2-4.4,5.1-3.2c0.5,0.8,1,2.4,1,3.6c0,2.2-4.1,4.5-11,6.2
	c-3.3,0.8-3.6,1.2-5.3,7.8l-1.8,6.9l2.4,2c1.4,1.1,3.2,3.4,4.1,5.2c0.9,1.9,3.6,4.3,6.4,5.9c14.1,8,27.1,18.1,29.7,23.1
	c0.9,1.8,2,3.3,2.5,3.3c2.1,0,4.4,6.9,5.1,15.5c0.4,4.9,1.2,11.4,1.9,14.2c1.2,5.6,4.7,10.8,5.6,8.5c0.9-1.9,2-1.4,3.2,1.3
	c1.5,3.3,1.5,4.2,0,2.7s-4.5-1.6-5.3-0.2c-0.4,0.6,1,3.7,3,7c2.5,4.2,3.4,6.6,3,8.1c-0.5,1.4,0,2.8,1.4,4.3c2,2.1,7.1,13.4,7.1,15.7
	c0,0.6,2.7,6.5,6,13c7.2,14.2,7.8,18.5,3,22.7c-3.6,3.2-3.7,5.1-0.5,12c1.3,2.9,2.2,5.9,1.9,6.6c-0.3,0.8,4.7,8.5,11.5,17.8
	c6.7,8.9,12.8,17.4,13.7,18.7c0.9,1.3,4,3.4,6.9,4.7c2.9,1.2,5.6,2.8,6,3.3c0.3,0.6,3.6,3.2,7.2,5.8c6.2,4.4,6.6,4.6,7.9,2.8
	c0.9-1.2,1.2-3.6,0.8-7.9c-0.4-4.5-0.3-5.7,0.5-4.6c0.6,0.8,1.1,3.6,1.1,6.2c0,3.8,0.6,5.3,3.5,8.8c1.9,2.3,3.5,4.5,3.5,4.8
	c0,0.4,0.7,1.5,1.4,2.5c1.4,1.7,1.6,1.8,4,0.2c3-2,5.9-1.3,7.4,1.9c1.4,3.2,0.5,3.8-3,2c-1.6-0.8-3.4-1.4-4-1.2
	c-0.6,0.2,2.6,2.5,7.2,5.1c5.7,3.3,8.7,4.4,9.4,3.7c1.7-1.7,3.3-1.1,3.2,1.1c-0.1,1.7,1.8,3.2,9.2,7.3c12.8,7.1,15.9,9.8,19.2,17
	c1.5,3.3,4.4,7.7,6.5,9.6c4.6,4.4,6.1,7.2,7,13.5c1.1,7.1,4.2,15.1,7.5,18.8c4.4,5.1,6,9.2,8.6,21.6c1.6,7.3,3.8,14.3,6.1,19.1
	l3.6,7.5l-1.1,9c-0.9,7.2-1.5,9.3-3.2,10.4c-1.1,0.7-2,2.3-2,3.4c0,1.1-0.9,3.1-2.1,4.3c-2.6,2.8-2,6.6,2,12.1
	c3.9,5.4,5.1,9.6,5.1,18c0,7.2,0.1,7.6,3.4,10.9c1.9,1.9,4,3.2,4.8,2.9c0.8-0.3,2.3-3.3,3.3-6.7c2.6-7.9,4.3-9,8.5-5.5
	c1.7,1.5,4.4,3,5.8,3.3c7.8,1.6,13.8,4.7,17.9,9.2c2.4,2.5,4.3,5.2,4.3,5.9c0,0.7,0.9,1.3,2,1.3s2-0.2,2-0.5
	c0-2.5-2.6-11.5-4.1-13.9c-2.4-4-2.6-14.1-0.3-17.4c0.9-1.3,3.4-3.4,5.6-4.8c3-1.9,4.6-4.1,7-9.2c2.8-6.3,3-7.2,2.5-15.6
	c-0.5-7.2-0.3-9.5,1-11.7c1.6-2.7,1.6-2.9-1-5.5c-3.3-3.2-3.4-6-0.5-9.1c1.8-2,2-2.6,1-4.8c-1.6-3.5-1.4-26,0.2-30.4
	c1-2.8,1-4.8-0.2-10.5c-2-10.3-1.9-22,0.2-28.6c1-3,3.6-8.5,5.7-12.1c2.1-3.6,3.9-6.9,3.9-7.5c0-1.3,6.9-23,9.2-28.9
	c1.1-2.8,3-9.1,4.3-14c5.2-20.2,7.1-24.7,12.1-29c4.4-3.9,4.6-4.3,5.4-11c1-9.4,3.7-15.1,9.4-20c2.5-2.2,7.3-6.4,10.4-9.2
	c3.2-2.9,8-6.2,10.8-7.4c7-3.1,21.6-17,25.4-24.1c1.7-3.1,4.4-6.7,6-7.8c3.7-2.6,3.7-3.9,0.4-9.5c-2.2-3.8-2.4-4.8-1.5-8.2
	c1.6-5.9,3.7-8.2,8.2-8.9c4.9-0.8,11.5-6.8,15.3-13.9c1.5-2.8,3.8-6.8,5.1-9c1.4-2.2,2.5-5,2.5-6.3c0-1.4,1.1-2.9,2.9-4
	c5.1-3.1,10.2-10.9,11-16.8c0.6-4.1,1.4-5.8,3.4-7.4c1.5-1.2,2.7-3,2.7-3.9c0-2.8,4.5-16,7.2-21.1c1.7-3.4,3-4.6,5-4.8
	c3.9-0.5,7.8-7,8.8-14.6c0.4-3.4,1.3-7.3,1.8-8.7c0.8-2,0.7-4.1-0.4-8c-2.1-8.2-1.8-10.4,1.5-12.9c2.3-1.6,3.1-3.1,3.6-6.8
	c1.1-7.5,4.1-18.9,6.2-22.9c1.1-2.2,3.3-4.5,5.1-5.3c3.8-1.9,5.5-6.4,7.2-20.5c1-7.4,2.3-12.2,5-18.5c4.4-10.2,5.4-15.1,3.5-17.7
	c-2-2.5-1.9-3,1.3-4.5l2.7-1.4l-0.4-10.6c-0.3-10.2-0.2-10.8,3.3-19.4c2.4-5.9,4-11.7,4.7-17.1c0.5-4.5,2.5-14.3,4.4-21.6
	c2.8-10.6,3.3-14.3,2.7-17.3c-0.7-3.2-0.4-4.5,1.5-7.3c1.3-1.9,2.3-4,2.3-4.7c0-0.7,0.9-2.9,2.1-4.8c1.5-2.6,2-5,1.8-8.3
	c-0.5-10.6,0-13.9,3.1-18.4c3.9-5.8,5.6-11.5,8-27.7c2.4-16,2.4-15.2,0.5-15.2c-0.8,0-1.5-0.4-1.5-0.8c0-2.3,4-12.7,5-13
	c2-0.7,10-12.5,10-14.9c0-1.2-1.3-3.7-2.9-5.5c-6.1-7.1-8.3-15.6-6.1-23.8c0.9-3.5,2.7-6,8-11c7.4-7.1,8.8-10.3,7.1-16.7
	c-1.6-5.7,0.8-14,5-17.3c1.7-1.4,6.3-5.3,10.2-8.8c3.9-3.4,7.4-6.2,7.8-6.2c1.3,0,5.8-7.8,6.9-12.1c0.6-2.4,2.6-5.9,4.3-7.7
	c2.5-2.6,3.1-4,3-7.3c-0.1-2.3,1.3-8.9,3.2-15.1c1.9-6,3.5-12.5,3.5-14.3c0-7.4,2.1-13.7,6.1-18c2.2-2.3,3.9-4.9,3.9-5.7
	c0-1.9,8.7-8.8,11.1-8.8c3.1,0,3-1.7-0.3-4.6c-1.8-1.5-3.9-4-4.5-5.7c-1.6-3.7-1.6-3.7,0.4-3.7c4.3,0,13.4-7.5,11.9-9.9
	c-0.3-0.4-1-3.9-1.6-7.6c-0.6-3.8-2-8.3-3-10c-2.5-4-1.3-5.9,3.4-5.3c2,0.2,3.6,0.2,3.6-0.2c0-0.3-1.8-1.8-4-3.3
	c-6.7-4.7-11-16.3-11-29.5c0-5.6-0.3-7.1-1.7-7.6c-1.2-0.5-1.3-1-0.5-1.8c0.9-0.9,0.7-1.9-0.8-4.3c-3.1-5-3.8-23.2-1.5-37.5
	c2.1-12.9,3.7-15.8,15.2-28.2c5.1-5.4,7.3-8.5,7.3-10.3s1.1-3.2,4.1-5c2.2-1.5,5-4.2,6.1-6.1c2-3.3,6.3-6.1,14.8-9.4
	c7.1-2.8,15-8.1,15-10c0-2.5-2.7-5.1-4.6-4.3c-0.8,0.3-2.3-0.2-3.4-1.2c-1.6-1.4-2.9-1.6-7.3-1.1c-5,0.7-5.6,0.5-8.5-2.2
	c-3.3-3.1-4.3-8-2.2-11.2c0.7-1.1,0.2-2.2-1.6-4.1c-2.3-2.4-2.4-3-2-12.7l0.4-10.1l-3.1,0.7c-3.2,0.7-11.1,0.7-24.4,0
	c-6.2-0.3-7.5-0.7-8.8-2.6c-0.9-1.2-2.2-2.2-2.9-2.2c-0.8,0-1.9-0.7-2.6-1.5s-2.4-1.5-3.7-1.5c-1.5,0-3.7-1.3-5.5-3.2
	c-2.4-2.6-3.1-2.9-3.9-1.7c-0.5,0.8-0.9,2.4-0.9,3.6c0,2.9-0.5,2.9-4.4-0.4c-1.7-1.4-5.8-3.8-9.1-5.3c-3.8-1.7-7.2-4.1-9-6.4
	c-3-3.8-8.1-9.2-12.6-13.3c-5.6-5.3-6.9-7.1-6.9-10c0-6.7-1.8-9.2-11.3-15.4c-5-3.2-9.8-5.9-10.6-5.9C746.2,0.1,744.2,0.8,742.6,1.6
	z M241.5,771.7c-0.4,1-1.2,3-1.7,4.5c-0.5,1.6-1.6,2.8-2.2,2.8c-0.9,0-0.6-1.4,0.8-4.5C240.4,770.3,243.1,767.9,241.5,771.7z"/>
<path class="st0" d="M874.9,173.1c-1.4,2.8,0,4.2,3.5,3.3c3.1-0.7,3.2-1.5,0.8-3.7S876.3,170.6,874.9,173.1z"/>
<path class="st0" d="M378.4,388.5c-0.4,1.1-1.6,3.2-2.7,4.7c-1.9,2.6-1.8,5.8,0.2,5.8c1.2,0,4.4-9.6,3.8-11.3
	C379.4,387,378.9,387.2,378.4,388.5z"/>
<path class="st0" d="M70,586c0,0.5-1.2,2.1-2.7,3.4c-2.6,2.5-2.7,2.6-1,4.3c1.7,1.7,1.9,1.7,3.8-1c1.2-1.5,2.7-2.7,3.5-2.7
	c1.2,0,1.2-0.4-0.2-2.5C71.8,585,70,584.2,70,586z"/>
<path class="st0" d="M51.9,617.1c-1.9,2.6-1.9,2.7,0.1,5c1.9,2.2,2.1,2.3,3,0.6c1.5-2.4,3-2.1,6.7,1.5c2.6,2.5,3.6,2.9,4.5,2
	c0.7-0.7,2-1.2,3-1.2c2.9,0,2.1-2.3-2.2-6.5c-3.6-3.5-4.7-4-8.7-4C54.6,614.5,53.5,614.9,51.9,617.1z"/>
<path class="st0" d="M35.5,629.5c-3.3,5-3.5,5.7-2.1,7.1c0.9,0.8,1.6,3.1,1.6,5.1c0,3-0.3,3.5-2,3c-2.4-0.6-2.7,0.8-0.4,2.1
	c2.8,1.6,0.5,6.6-3.2,7c-3.2,0.3-8.3,3.7-7.2,4.7c0.4,0.4,2.7,0,5.2-0.8c2.8-1,6-1.3,8.2-1c3.4,0.6,3.6,0.5,2.5-1.4
	c-1.7-3.3-1.1-9.2,1.2-10.4c2-1.1,2-1.9,0.1-10.8c-0.6-3.1-0.5-3.3,1.5-2.6c2.1,0.6,3-0.8,1.1-2c-0.5-0.3-1-1.5-1-2.5
	C41,623.2,39.1,624.1,35.5,629.5z"/>
<path class="st0" d="M66.3,633.7c0.3,1,1.5,4.3,2.6,7.3c2,5.4,2,5.5,0.2,7.1c-1,0.8-2.1,2.4-2.3,3.5c-0.5,2.6-3.1,2.4-4.3-0.4
	c-0.8-1.8-1.7-2.2-4-2c-2.2,0.2-2.9,0.8-2.7,2c0.2,1-0.2,2.7-0.8,3.8c-0.9,1.8-0.8,2,1.5,2c2.7,0,3.4,1.7,1,2.6
	c-1.2,0.5-1.3,0.9-0.4,2.1c0.8,0.9,2.8,1.3,5.8,1.1c4.1-0.3,4.6-0.1,4.9,2c0.4,2.8-1.5,5.4-3.7,5c-0.9-0.1-2.2,0.1-2.8,0.5
	c-2.4,1.5-8.4-0.4-9.3-2.9c-1.1-2.8-3-3.2-3-0.6c0,2.4,2.7,4.8,6.3,5.7c2.2,0.6,2.7,1.3,2.7,3.6c0,2.7,0.1,2.8,2.7,1.8
	c1.5-0.6,4.2-0.8,6-0.4c3.7,0.7,4.9-0.6,3.1-3.4c-1.1-1.8-0.9-2.4,1.4-4.8c1.4-1.5,3.1-3.8,3.7-5.1c2.5-4.7,14.6-6.7,19.3-3.2
	c3.3,2.4,3.6,2.5,4,0.2c0.2-0.9-0.6-3-1.9-4.5c-1.5-1.9-2.3-4.2-2.3-6.6c0-4.7-0.5-5.2-3.9-4c-1.4,0.6-4.2,1.1-6.1,1.1s-4,0.4-4.7,1
	c-1.7,1.4-3.3,0.1-3.3-2.6c0-1.7-0.5-2.3-1.7-2.2c-1.2,0.1-1.9-0.7-2.1-2.4c-0.3-2.9-2.3-7.2-3.7-8.2
	C66.8,631.5,65.7,631.9,66.3,633.7z"/>
<path class="st0" d="M44,682.7c-0.8,0.3-2.3,1.2-3.2,2.1c-1,0.8-2.4,1.2-3.3,0.9c-0.8-0.4-1.5-0.1-1.5,0.5c0,1.7,7.1,0.1,9.4-2.2
	C47.4,682,47,681.6,44,682.7z"/>
<path class="st0" d="M30.4,726.4c0,2.8-0.4,6.1-0.8,7.3c-0.8,2.1-0.5,2.3,2.7,2.3c2.4,0,4.5-0.8,6.2-2.4l2.6-2.4l-2.8-4.5
	c-1.9-3.1-3.6-4.6-5.4-4.9C30.5,721.4,30.4,721.6,30.4,726.4z"/>
<path class="st0" d="M90.5,772c-0.7,2.1,0.9,5.9,1.7,4.4c0.3-0.5,0.8-2.1,1.2-3.7c0.5-2,0.3-2.7-0.8-2.7
	C91.8,770,90.9,770.9,90.5,772z"/>
<path class="st0" d="M70.7,774.6c-0.9,1,0.2,2.4,1.9,2.4c0.8,0,1.4-0.7,1.4-1.5C74,774,71.9,773.4,70.7,774.6z"/>
<path class="st0" d="M0,783.6c0,1.4,1.1,3.9,2.5,5.6c1.4,1.6,2.5,4,2.5,5.3c0,1.4,0.9,2.9,2,3.5c1.7,0.9,2,0.8,2-1
	c0-1.1,0.9-2.5,2-3.2s2-2.3,2-3.5c0-1.6,0.8-2.5,2.5-2.9c1.8-0.4,2.5-1.3,2.5-3c0-3-1.1-3-4.8,0.1c-3.9,3.3-6.6,3.2-9.2-0.5
	S0,780.2,0,783.6z"/>
<path class="st0" d="M710,991.7c0,1,0.7,2.7,1.5,3.7c0.8,1.1,1.5,2.8,1.5,3.8s1,2.2,2.3,2.7c1.3,0.5,2.9,1.6,3.6,2.5
	c1.9,2.3,5.6,2.2,4.6-0.2c-0.9-1.9-0.9-3.3,0.1-7.9c0.7-3.8-0.6-4.7-8.3-5.7C710.6,990,710,990.1,710,991.7z"/>
<path class="st0" d="M331.2,1111.6c-1.2,0.8-2.2,2.3-2.2,3.3s-0.7,2.4-1.5,3.1c-0.8,0.7-1.5,1.9-1.5,2.6c0,2.7,3.8,1.4,8.3-2.9
	c3.6-3.4,4.3-4.6,3.6-6C336.7,1109.6,334.1,1109.5,331.2,1111.6z"/>
<path class="st0" d="M727.8,1211.7c-5.2,0.4-5.8,0.6-5.8,2.6c0.1,4.1,1.9,10,3.3,10.9c0.8,0.4,3.4,2.4,5.7,4.3s5,3.5,6.1,3.5
	c1.1,0,2.9,1.2,4.2,2.7c4.5,5.4,5.8,6.3,8.7,6.3c2.3,0,3.3-0.7,4.5-2.9c1.9-3.8,1.3-5.2-4.1-9c-5.6-4.1-6.6-6-6.5-13.1v-5.7h-5.2
	C735.8,1211.4,730.9,1211.5,727.8,1211.7z"/>
</svg>
