<?xml version="1.0" encoding="utf-8"?>
<!-- Generator: Adobe Illustrator 27.0.1, SVG Export Plug-In . SVG Version: 6.00 Build 0)  -->
<svg version="1.1" id="layer" xmlns="http://www.w3.org/2000/svg" xmlns:xlink="http://www.w3.org/1999/xlink" x="0px" y="0px"
	 viewBox="0 0 2358.4 5000" style="enable-background:new 0 0 2358.4 5000;" xml:space="preserve">
<style type="text/css">
	.st0{fill:#D4E5C2;}
</style>
<path class="st0" d="M1009.2,12.1c-5.9,6.6-11.7,15.2-12.9,19.1c-2.3,7-27.3,15.6-46.9,15.6c-5.9,0-15.6,4.3-22.3,9.8
	c-6.3,5.5-14.8,9.8-19.1,9.8c-3.9,0-7.4,2.3-7.4,5.5c0,3.9-3.5,5.5-10.5,5.1c-8.6-0.8-11.3,1.2-12.1,7.8c-0.8,5.5-5.1,9.8-10.9,11.3
	c-8.6,2.3-9,3.9-7,18.8c1.2,8.6,3.9,21.9,6.3,28.9c3.9,12.9,3.1,14.1-16,31.6c-10.9,10.2-19.9,20.3-19.9,22.7
	c0,2.7-4.7,3.1-14.5,1.2c-9.4-2.3-16.4-2-19.5,0.8c-3.9,3.1-6.6,2.3-10.5-2.7c-4.3-6.3-7.4-4.3-35.9,21.1
	c-16.8,15.2-32.8,27.7-35.2,27.7s-8.2-4.3-13.3-9.8c-5.1-5.5-11.3-9.8-14.5-9.8c-3.1,0-5.1-5.1-5.1-13.3c0-7.4-1.6-14.5-3.1-15.6
	c-2-1.2-13.7,0.8-25.8,3.9c-32.8,8.6-52.7,33.2-53.1,66.4c0,27.3-3.9,39.8-13.3,42.2c-6.3,1.6-10.9-0.8-18.4-10.5
	c-5.9-6.6-28.9-29.7-52-50.8l-41-38.3L465,226.1c-5.5,8.6-9.8,20.7-9.8,27c0,12.5-6.3,20.3-16.4,20.3c-9.4,0-30.5-31.6-28.1-42.2
	c2.7-9-10.2-19.5-25.4-21.1c-8.2-1.2-10.2,1.6-15.6,18.4c-5.5,17.2-8.6,20.7-25.8,29.3c-18.8,9.4-19.5,10.5-18.4,24.6
	c0.8,7.8-0.4,14.5-2.7,14.5c-7.4,0-27.3,19.9-28.5,28.5c-0.8,6.6-3.5,8.2-10.9,7.4c-5.5-0.8-11.7-3.9-14.1-7
	c-2.3-3.1-7.8-5.5-12.5-5.5c-5.9,0-10.9-5.9-19.1-22.7c-8.2-16.8-13.7-23.4-22.7-26.2c-6.3-2.3-19.5-9.8-28.9-16.8
	c-9.8-7-19.5-12.1-22.3-10.9c-2.7,1.2-7-0.8-9.8-3.9c-3.1-3.9-8.2-5.1-15.6-3.5c-9.4,2-11.7,0.8-17.2-9.4
	c-8.2-16.4-16-15.2-25.8,3.9c-4.3,9-11.3,17.2-15.6,18c-5.5,1.6-6.6,4.3-5.1,10.9c1.6,7-1.6,13.3-12.9,26.2
	c-23.4,26.6-32.4,41-29.7,48.1c2,5.5-0.4,6.3-14.8,5.5c-17.2-1.2-17.2-1.2-16.8,11.3c0.8,15.6,19.5,48.1,29.3,50.4
	c3.9,1.2,8.2,5.5,9.4,9.4c1.6,3.9,5.1,7.4,8.2,7.4c3.1,0,6.6,2.7,7.8,5.9c1.6,3.1,3.9,5.9,5.5,5.9c4.7,0,27.3,22.3,27.3,26.6
	c0,2.3,5.1,7.8,11.3,12.5c8.2,5.5,12.1,12.1,12.9,20.7c0.8,10.2,3.5,13.3,14.5,16.8c16.4,5.1,31.3,30.9,31.6,54.3
	c0,8.6,1.2,22.3,2.3,30.1c2.3,12.5,4.3,14.8,12.1,14.8c7.8,0,30.1-8.6,36.3-14.5c1.2-1.2,2.7-11.7,3.9-23.4
	c2.7-30.5,10.9-31.6,12.5-2.3c1.2,22.3,1.6,22.7,11.7,21.5c5.9-0.4,15.2,2,20.7,5.5c7.8,5.1,9.8,9.4,9.8,23.4
	c0,14.5-2.3,19.5-17.6,36.7c-19.1,21.5-23.4,35.9-9.4,32.4c7.8-2.3,7.8-1.6,3.1,7c-2.7,5.1-5.1,13.7-5.5,18.8
	c0,5.1-5.9,14.1-12.9,20.3c-7,6.3-12.5,12.1-12.5,12.9c0,0.8,4.7,2.7,10.5,4.3c15.6,3.9,20.7,9.4,20.7,21.5c0,5.9,2.3,12.9,5.5,15.2
	c2.7,2.3,6.3,9.8,7.4,16c2,7.8,5.5,12.1,12.1,14.1c6.6,1.6,14.8,11.3,27.3,33.2c18.8,31.6,36.7,46.5,57.8,46.5
	c5.1,0,18.4,3.5,30.1,8.2l21.5,7.8l6.6-8.6l6.3-8.6l7.4,11.3c9.4,15.2,16.8,21.1,27.3,21.1c11.3,0,27,8.2,35.5,19.1
	c9.4,11.3,22.3,7.4,19.1-5.5c-1.6-6.6,0.4-10.5,7.4-15.2c5.5-3.5,9.8-9,9.8-12.1c0-10.5,9-25.4,15.6-25.4c3.5,0,8.2-2,10.9-4.7
	c6.3-6.3,31.6-14.8,44.9-14.8c7.8,0,11.7-2.7,14.5-9.8c4.3-11.7,14.5-16.4,20.7-10.2c2.3,2.3,9,4.3,14.5,4.3c5.9,0,13.7,3.5,18,8.2
	c4.7,5.5,9.8,7,16,5.5c7-1.6,10.5,0.8,18.8,13.7c5.5,8.6,12.1,15.6,15.2,15.6s6.6,4.3,7.8,9.8c2,7.4,5.1,9.8,13.7,9.8
	c7.8,0,16,5.1,28.5,17.6c10.2,9.8,21.5,17.6,26.2,17.6c11.3,0,10.5,5.5-3.9,27.7c-13.3,19.9-19.9,24.6-31.3,21.1
	c-7.8-2.7-33.2,12.1-36.7,21.1c-2.7,7.4,0,9.8,22.3,18c14.8,5.5,20.7,5.9,30.5,2.3c12.5-4.3,27.3-0.4,27.3,7c0,2,5.1,5.5,11.3,8.2
	c14.8,5.9,18,14.1,8.2,22.3c-12.5,10.9-10.2,26.6,4.3,32.8c10.9,4.3,14.1,3.9,24.2-2c11.7-6.6,12.5-6.6,30.9,2.3
	c13.3,6.3,18.4,10.9,17.2,15.6c-0.8,3.5,1.6,9.4,5.5,12.9c5.1,4.7,6.6,11.3,6.3,24.6c-0.4,15.2-1.6,18.4-8.2,18.8
	c-4.3,0.4-9.8,0.8-12.1,1.2c-5.5,0.4-40.6,31.3-40.6,35.2c0,1.6,4.3,5.1,9.4,7.4c8.2,3.5,9,5.9,6.6,15.2c-2,7-5.9,11.3-11.3,12.1
	c-4.7,0.8-8.6,3.1-8.6,5.1c0,2-5.9,5.9-12.5,8.6c-16.4,6.6-21.5,13.3-23.4,28.1c-0.8,9-3.1,11.7-9.8,11.7c-4.7,0-9.8,1.6-11.3,3.1
	c-5.1,4.7-19.9,3.1-25-3.1c-2.7-3.1-8.2-5.9-11.7-5.9c-3.9,0-10.5-4.7-15.2-10.9c-7.8-10.5-7.8-10.5-20.3-3.5
	c-9,5.1-13.7,5.9-17.6,2.7c-4.3-3.9-12.1-4.7-34.8-3.5c-4.3,0.4-10.9,3.5-14.8,6.6c-6.3,5.5-8.2,5.5-19.9-0.4
	c-10.5-5.1-14.5-5.1-17.6-1.2c-5.9,7,0,23.8,12.5,33.6c12.9,10.2,14.1,27,2.7,37.1c-4.3,3.9-7.8,9.4-7.8,12.1
	c0,2.7-5.5,5.9-12.1,7.4c-10.5,2.3-46.5,32.4-46.5,38.7c0,1.2,3.1,2.3,7,2.3c3.9,0,11.3,4.7,16.8,10.2c7.4,7.8,12.1,9.8,23,8.2
	c10.2-1.2,16.4,0.8,24.6,7.8c6.3,4.7,14.5,9,18.4,9c3.9,0,10.5,5.9,15.2,13.7c5.5,9.4,10.9,13.7,16.8,13.7
	c10.5,0,40.2,18.8,48.4,30.9c3.9,5.1,10.2,8.2,17.2,8.2c8.2,0,14.1,3.9,23.4,15.6c7,8.6,20.7,20.3,30.5,26.2
	c10.2,5.5,21.5,12.9,25.4,16.4c8.6,7,38.7,15.6,56.3,16c8.6,0,14.1,2.7,16.8,7.8c2.3,4.7,8.2,7.8,14.1,7.8c5.5,0,15.2,2.7,21.5,6.3
	c6.6,3.1,14.8,5.5,18.4,4.7c7.8-1.2,28.1,16.8,28.1,24.6c0,3.1-3.9,7.4-8.6,9.4c-10.2,4.3-14.1,15.6-14.5,41.8
	c-0.4,16,1.2,19.1,10.9,26.2c6.3,4.7,12.5,12.9,14.1,18.8c3.5,15.6,25,37.1,34,34c5.5-1.6,7,0,7,7.8c0,5.9,3.9,12.9,10.2,17.6
	c13.3,10.5,16.4,10.2,21.1-1.6c2-5.5,5.5-9.8,7.8-9.8c10.2,0,19.5,8.6,19.5,17.6c0,9.4,12.1,25.4,19.1,25.4c2,0,4.7,5.5,6.3,12.1
	c1.6,7.4,6.3,13.3,12.1,15.2c9.4,3.9,12.5,13.3,5.5,17.6c-5.9,3.5-4.7,23.8,2,29.3c3.1,2.7,14.1,18.8,23.8,35.5
	c10.2,16.8,20.3,30.9,23,30.9c5.9,0,37.1,33.2,62.1,65.6c18.4,24.2,77,75,86.3,75c2.7,0,7.4-3.9,10.5-8.6l5.9-8.6l5.9,12.1
	c4.3,8.6,5.1,13.3,2,16.4s-2,6.6,3.5,12.9c14.1,16.4,23.8,32.4,28.5,47.3c5.9,17.2,14.8,23,31.6,19.5l12.5-2.3l-1.6,53.9l-1.2,53.5
	l18.8,17.2c16.8,14.8,18.4,18,14.5,25c-3.9,7-2.7,10.9,5.9,23.8c5.5,8.6,12.5,16.4,15.6,17.6c6.6,2.7,29.3-12.5,29.3-19.5
	c0-9.4,9.8-18.4,17.2-15.6c5.1,2,6.3,5.1,4.7,11.7c-3.5,12.9,5.5,31.6,23,50c12.9,13.7,16.8,15.6,36.3,16.4
	c11.7,0.8,23.4,3.1,25.4,5.1c2.3,2.3,3.9,10.9,3.5,19.1c-0.8,18,7,26.2,24.6,27.3c8.2,0.8,15.2,5.1,23.8,15.2
	c12.1,14.5,13.7,14.8,41.8,6.6c5.5-2,6.6,0.4,6.6,14.8c0,9.4-3.5,24.2-7.8,33.6c-6.6,14.5-9,16.4-16.8,14.5
	c-5.9-1.6-10.9-0.4-14.1,3.5c-3.1,3.5-7.4,6.3-9.8,6.3c-10.9,0-25.8,10.2-25.8,17.6c0,4.3-1.2,11.7-2.3,16.8c-2,7-0.4,9.4,9.8,12.9
	c10.2,3.5,11.7,5.9,9.8,13.7c-2,7.4-0.4,10.2,7.8,13.3c6.6,2.3,12.9,9.8,17.6,20.7c8.6,20.3,14.8,25.4,36.3,32
	c12.1,3.5,17.2,7,18,13.3c0.8,4.7,5.9,10.5,11.7,13.7c9.8,5.1,23.8,21.1,34.8,39.5c6.6,11.3,6.3,32-0.8,34.8
	c-3.1,1.2-5.9,6.3-5.9,11.3c0,5.5-2.7,11.7-5.9,14.5c-3.5,2.7-5.1,8.2-3.9,12.1c2.3,7.4-8.6,13.3-18.8,9.4c-3.1-1.6-7-0.8-8.6,1.6
	c-1.2,2.3-5.9,4.3-10.2,4.3c-13.7,0-8.2,14.5,12.5,32l19.5,17.2l-14.1,14.5c-11.3,11.3-13.3,16-10.2,19.9c2.7,3.1,4.3,7,3.9,8.6
	c-0.4,2,0.4,10.2,2.3,18.4c2,10.2,1.2,18.4-2,25.4c-2.7,5.9-4.7,15.2-4.3,21.1s-2,14.8-5.1,19.5c-3.5,4.7-6.3,13.7-6.3,19.5
	c0,7.8-2,10.9-6.6,10.9c-12.1,0.4-22.3,19.1-21.5,39.1c0.8,12.9-2,23-9.8,38.3c-10.2,19.1-10.5,21.1-4.3,24.6
	c5.5,3.1,5.9,5.9,2.7,14.1c-4.7,12.9,1.2,20.7,16.4,20.7c9.4,0,11.3,1.6,11.3,9c0,5.1,1.6,10.5,3.5,12.9c2.3,2,2.3,9.8,0,20.7
	c-3.9,17.2-3.5,17.6,11.7,31.6c10.9,10.2,16,18.8,18.4,29.7c1.2,8.2,7,23.8,12.1,34.4c8.6,16.8,9.4,23,8.2,52.7
	c-1.2,28.9-4.3,39.8-20.3,80.1c-14.8,37.1-18.8,50.8-18.8,71.1c-0.4,18.4,1.2,27,6.3,32.4c8.2,9,23.4,80.1,20.3,96.1
	c-1.2,6.3-2.7,19.1-3.5,27.7c-0.4,9-3.1,18.8-5.9,22.3c-2.7,3.1-3.9,8.6-2.3,11.7c1.6,4.3-5.1,13.3-19.5,27.7
	c-12.1,12.1-22.7,21.9-23.8,21.9c-0.8,0-4.7-5.5-7.8-11.7c-9-17.6-22.3-21.1-41-11.7c-8.6,4.3-18,7.8-21.5,7.8
	c-3.1,0-11.3,7.4-18,16.4c-19.5,27.3-60.9,57.8-78.5,57.8c-6.3,0-14.8-2.3-19.1-5.1c-7-3.9-9-3.5-15.6,5.1
	c-4.3,5.5-12.1,14.8-17.6,21.1l-9.8,11.3l-44.5-2.7c-41.4-2.3-44.9-2-44.9,4.3c0.4,3.9,2.7,11.3,5.5,16.4
	c5.5,10.2,3.1,27.3-5.5,37.5c-3.1,3.9-2.7,9,2,19.5c3.1,8.2,5.9,16,5.9,18c0,6.3-44.5-1.2-65.2-10.9c-12.5-5.9-23.4-8.6-28.1-7
	c-5.1,1.6-12.1-0.8-19.5-6.3c-14.8-10.9-22.3-7.8-30.1,12.1c-7.4,18.8-16,24.2-32.4,21.1c-23.4-4.7-36.7,18.8-18,31.3
	c7.4,4.7,9.8,9.8,9.8,19.5c0,7.4,2,14.1,4.3,14.8c3.5,1.2,3.5,3.9,0,10.2c-7.4,13.7-9,51.6-2.3,51.6c3.1,0,7.8,4.7,10.5,10.5
	c3.5,7.4,8.6,11.3,15.6,12.1c7.4,0.8,14.5,7,24.2,20.7c12.1,16.8,15.6,19.1,27.7,19.1c11.3,0,14.5,2,17.6,10.2c5.5,14.5,4.7,25-2,25
	c-10.9,0-11.3,18-0.4,33.6c5.5,7.8,9,16,7.8,18c-1.2,1.6-11.7,3.1-23.4,3.1c-19.5,0-22.7-1.6-38.3-15.6
	c-19.1-17.6-21.9-18.8-21.9-8.2c0,10.2-4.3,12.5-18,8.6c-7.8-2-10.9-5.1-10.2-9.8c0.8-3.5-4.7-15.2-11.7-26.2
	c-14.5-22.7-13.3-22.3-61.3-5.9c-21.1,7.4-32.8,9.4-44.1,7.8c-14.1-2.3-16.8-1.6-31.6,13.3l-16.4,16l-17.6-5.5
	c-9.8-3.1-26.2-6.6-36.3-7.8c-14.1-2-19.5-4.7-21.9-10.5c-2.3-6.6-3.5-7-7.8-2c-9.8,12.1-9.4,31.3,1.6,47.3
	c11.7,17.6,10.9,19.5-19.5,39.8c-12.1,7.8-26.2,22.3-35.2,35.2l-14.5,21.9l-19.9-2.3c-60.2-7.8-62.5-7.8-73.1,2.7
	c-5.5,5.1-13.3,14.1-17.6,19.5c-5.9,7.4-10.2,9.4-18.4,7.8c-6.3-1.2-10.9-0.4-10.9,2c0,4.3,21.5,32.4,36.3,47.7
	c5.5,5.5,10.9,16.8,12.5,26.2c3.1,20.7,10.2,23,25,9.4c13.3-12.1,27.7-16.8,37.1-11.3c3.1,2,12.5,12.9,20.3,24.6
	c15.2,23,17.6,24.6,25,15.6c7-8.6,17.2-7,31.3,4.3c20.7,17.6,32,47.7,15.6,42.6c-5.9-2-11.3,1.6-22.3,13.3c-8.6,9.8-17.6,16-22.7,16
	s-10.5,2.3-12.9,5.1c-9,10.5-16.8,53.5-18.8,100.4c-1.6,44.5-5.5,105.1-12.1,189.9c-3.1,44.5-0.8,52.3,16.8,52.3
	c17.2,0,16.4,7-2.7,16.4c-9,4.7-14.1,10.5-15.2,17.6s-5.1,11.3-9.8,12.1c-24.6,4.7-6.6,19.1,28.1,22.7c40.2,4.3,59.4-2.7,94.9-35.2
	c16.8-15.2,38.3-33.2,47.7-39.5c13.3-9.4,20.3-19.1,33.6-46.1c13.7-27.3,20.3-36.3,34.4-46.1c28.9-19.9,85.2-44.5,153.1-67.6
	c72.7-24.2,78.1-27.3,68.8-37.9c-5.9-6.3-5.9-7.8,1.2-16.8c3.9-5.5,10.9-11.3,16-12.5c5.1-1.6,11.3-7.8,14.5-15.6
	c6.6-16,9.4-16.4,21.5-3.5c11.3,12.1,28.1,12.9,46.1,2c26.2-16,36.3-51.2,19.9-68.8c-5.5-5.9-7.4-11.3-5.5-16.8
	c3.1-10.5,11.3-10.5,18.8,0.8l6.3,8.6l12.1-12.9c12.9-13.7,16-34.4,5.9-38.3c-3.1-1.6-5.9-3.9-5.9-5.9c0-7.4,17.2-27,23.8-27
	c3.9,0,10.5-4.7,15.2-10.5c6.6-8.2,7.8-13.7,5.9-24.2c-1.6-9-0.8-14.5,2.7-16.4c4.3-2.7,3.9-4.3-0.8-9c-4.3-4.7-5.5-13.3-4.7-37.9
	l1.6-31.6l9.4,9c5.1,4.7,10.5,7.4,12.1,6.3c1.2-1.6,4.7-0.8,7.8,2c3.9,3.1,6.6,3.1,9.8,0c2.7-2.7,7.8-4.7,11.3-4.7
	c9.4,0,12.9-7,7-14.1c-2.3-3.1-3.9-5.9-3.1-6.6c0.8-0.4,7.4-6.3,14.8-12.5l13.3-11.7l-2.7,10.5c-2,7.8-0.4,12.5,5.9,18.4
	c6.6,6.3,7.8,9,3.9,13.3c-4.7,6.3,0.4,26.2,6.6,26.2c2,0,10.2-5.1,18.8-11.7c16-12.1,24.6-14.5,31.3-7.8c2.7,2.7,9-1.2,19.1-11.7
	c12.5-12.5,18-15.6,29.7-15.6c19.5,0,45.7-11.7,59.8-27c6.6-6.6,14.5-12.1,18-12.1c3.5,0,10.5-3.5,15.6-7.8
	c5.1-4.3,10.9-7.8,13.3-7.8c2.3,0,13.3-6.3,23.8-14.1c17.2-12.1,21.5-13.7,35.2-11.3c31.3,5.1,30.9,5.1,34.8-11.7
	c4.7-22.3,22.3-56.6,30.5-60.9c11.3-6.3,50.8-6.3,52.7-0.8c2.7,7.4,7.8,5.9,10.2-2.7c1.2-5.1,3.9-7,8.2-5.5c4.3,1.6,6.3,0,6.3-5.1
	c0-9.4,13.3-22.7,19.1-19.1c7.8,5.1,23-2.3,27.7-13.3c6.3-14.5,27.7-34.8,37.1-34.8c4.3,0,15.2-1.2,24.2-2.7
	c14.8-2.3,17.2-4.3,21.1-16.8c2.3-7.8,7-16.8,10.2-20.7c7.4-8.2,31.3-12.9,38.3-7c6.3,5.1,27,2,32.4-5.1c2-2.7,4.7-19.5,6.3-37.5
	c3.5-42.6,6.3-47.7,22.7-43c10.9,3.1,13.7,2.3,19.5-5.1c3.9-5.1,8.2-12.5,9.4-16.8c1.6-4.3,7-14.5,12.5-22.7l9.8-14.8l-8.2-11.3
	c-4.7-6.3-8.6-13.7-8.6-16c0-2.7-3.1-2-7.8,2.3c-5.1,4.3-9.4,5.9-11.3,3.5c-4.7-4.7-0.8-25,5.1-25c2.3,0,6.6-3.5,9.4-7.8
	c6.6-10.5,12.5-9.8,12.5,2c0,8.2,9.4,17.6,17.6,17.6c3.9,0-2.7-28.9-9.8-41c-3.5-6.6-9-17.6-11.7-24.6c-4.3-10.9-3.9-13.7,2-20.3
	c5.1-5.5,5.9-9,2.7-12.5c-4.7-5.9-5.1-42.2,0-42.2c6.3,0,3.1-14.1-6.6-28.1c-5.5-7.8-9.8-16.4-9.8-18.4c0-7,10.2-4.7,18,3.9
	c9,10.2,27,19.5,30.5,16.4c4.7-5.1,2-15.2-5.5-19.9c-4.3-2.7-7.8-9-7.8-14.5s-3.1-11.3-7.8-13.7c-4.3-2.3-7.8-7.8-7.8-11.7
	c0-4.3-2.7-7.8-5.9-7.8c-6.6,0-8.2-13.7-2-17.6c2.3-1.6,2.7-4.3,1.6-6.6c-2.3-3.9,39.8-46.1,46.1-46.1c4.7,0,3.9,30.5-0.8,33.2
	c-7.4,4.7-3.9,8.6,6.6,6.6c8.6-1.6,9.8-0.8,7.4,5.1c-1.6,3.9,0,10.9,3.5,16c7.4,11.3,16,12.9,10.2,2.3c-2.3-3.9-2.7-10.9-1.6-15.6
	c1.2-5.1-1.2-12.1-5.9-18.4c-4.7-5.9-10.2-16.4-12.5-23.8c-4.3-12.9-3.9-14.8,6.3-25.4c12.1-12.9,18.4-14.8,14.5-4.3
	c-2.3,5.9-2,5.9,3.9,1.2c6.3-4.7,5.5-7-7-31.3c-16.8-31.3-21.1-36.7-31.6-42.6c-7.4-3.9-8.2-7.4-7.4-35.9
	c0.8-24.6-0.4-30.5-3.9-27.3s-5.5,2.3-7.4-2c-1.2-3.1-0.4-5.9,1.2-5.9c6.3,0,2.3-19.5-3.9-21.5c-7-2.3-12.9-32.8-7.4-38.7
	c5.1-5.5,12.1,1.6,9.8,9.8c-2,5.9-0.4,7.4,5.9,7.4c8.2,0,8.2-4.3,0.8-29.3c-1.2-4.3-2-10.2-1.2-13.3c0.4-2.7-3.5-9.8-9-15.6
	c-8.6-9-9.8-13.3-8.6-33.6c0.8-23.4,2-24.6,15.6-19.1c6.6,2.3,7,1.6,4.7-6.6c-1.6-5.1-4.3-17.2-5.9-27c-1.6-9.8-4.3-20.3-6.3-23.4
	c-2-3.1-3.1-11.3-2.7-18.8c0.8-7.8-2.3-18.4-7.4-26.6c-6.6-10.5-7.4-14.8-3.5-19.1c3.5-4.3,3.1-7.8-3.5-16c-4.7-5.9-8.2-16-8.2-23.8
	c0-7.4-4.3-19.5-10.2-28.5c-7.4-10.9-9.4-18-7.8-26.2c1.6-7.4-0.8-16.8-7.4-30.1c-7.4-14.8-9.8-25.4-9.8-44.5
	c0-21.9-1.6-28.1-12.1-44.5c-11.7-18.4-30.1-71.5-40.2-117.6c-4.7-21.9-4.7-23.4,3.1-30.5l7.8-7.4l-8.6-6.3
	c-4.7-3.1-11.3-11.7-14.5-18.4c-3.1-7-7.4-15.2-9.4-18.4c-2-3.1-4.7-9-5.9-12.9c-1.6-5.1-4.7-6.3-9.8-4.7
	c-12.5,3.9-27-4.3-29.7-17.2c-2-9-5.9-12.9-16-16c-9.8-3.5-19.5-12.5-34.4-32.4c-24.2-32-45.3-72.7-45.3-85.9
	c0-6.6-3.9-10.9-12.9-15.2c-15.2-7.4-37.9-39.1-37.9-52.7c0-7,3.1-10.5,11.7-13.3c13.3-4.7,15.6-11.3,4.3-11.3c-4.3,0-9-2-10.2-3.9
	c-4.3-7-10.2-3.9-14.1,7.8c-5.1,14.1-16,15.6-24.6,3.1c-5.9-8.2-5.5-9.4,3.5-18c10.5-9.8,9.8-16.4-1.6-16.4c-3.9,0-8.2-1.2-9.8-2.7
	c-1.6-1.6-7.4-2.7-13.3-3.1c-8.6,0-10.2-1.6-9.4-8.6c2-14.5-5.9-24.2-18.4-23.8c-14.5,0.4-26.6-7.4-59-37.5
	c-38.7-36.3-39.8-37.1-70.7-46.1c-26.6-7.4-53.1-21.1-49.2-25.4c1.2-0.8,12.5,3.9,25.8,10.9c13.3,7,25,11.7,25.8,10.5
	c1.2-1.2-11.3-10.5-27.7-21.1c-17.2-10.9-50.8-39.5-78.1-66.4c-46.5-45.3-48.4-48.1-48.4-63.3s-1.2-16.8-20.3-29.3
	c-11.3-7-29.3-20.3-39.5-29.3s-22.7-18.4-27.3-20.7c-18-9.4-69.9-68-81.3-91.4c-5.9-12.9-15.2-27.3-20.3-32
	c-8.6-7.8-30.1-62.9-30.1-76.2c0-2.7,4.7-10.2,10.2-16l10.2-10.9l-10.9-22.3c-5.9-12.1-11.7-24.6-13.3-27.7
	c-1.2-3.1-8.2-7.4-14.8-9.8c-6.6-2.3-19.9-12.5-29.3-22.3c-18-18.4-39.1-30.9-52.7-30.9c-14.1,0-59.4-43.4-59.4-57
	c0-3.1-2.7-5.5-5.9-5.5c-9.4,0-26.2-30.1-39.1-69.5c-7.4-23-14.1-36.7-18.4-38.3c-3.5-0.8-7.8-7.4-9.4-14.5c-1.2-6.6-8.6-18-16-24.6
	c-10.5-9.8-13.7-16-15.6-32c-2.7-25.8,5.1-39.8,22.7-39.8c10.9,0,11.7-0.8,9.4-12.9c-3.1-16.4,2.7-31.3,19.5-48.4
	c12.5-12.9,13.3-14.8,7.8-20.7c-8.6-9.8-11.7-29.7-4.7-32.4c4.3-1.6,5.1-6.6,3.5-21.5c-1.2-15.2,0.8-26.2,9-47.3
	c5.9-15.2,12.1-28.5,14.1-30.1c5.5-3.1,15.2-28.5,15.2-38.7c0-4.7,2.7-10.9,5.9-13.7c3.1-2.7,5.9-9,5.9-13.7
	c0-13.3,24.2-19.9,28.5-8.2c1.6,3.5,5.5,4.7,10.2,3.5c4.7-1.2,8.2-0.4,8.2,2.3c0,10.2,8.2,2,32.8-32.8
	c29.3-41.4,51.6-60.9,80.9-70.3c15.2-5.1,20.7-5.5,25-2c3.1,2.7,8.6,3.5,12.1,2.3c5.9-2.3,6.3-7,4.3-34.8c-1.2-18-0.8-34.8,0.8-37.5
	c2-2.7,1.6-12.5-0.4-21.9c-3.1-15.2-2.7-18.8,5.5-29.7c5.1-6.6,12.9-13.7,18-15.6c4.7-2,10.2-7.4,12.1-12.9
	c2.3-5.1,9-11.7,15.6-14.5c7-3.1,11.3-7.4,10.2-10.2c-0.8-2.7-2.7-14.1-4.3-25.4c-2-17.2-1.6-19.9,2.7-16c2.7,2.7,7.4,5.1,10.5,5.1
	c2.7,0,7.8,2.7,11.3,5.9c7.4,7.8,14.1,3.5,9-5.9c-4.7-9-5.1-27.3-0.4-27.3c2,0,4.3-3.5,5.5-7.8c1.2-5.1,5.5-7.8,11.7-7.8
	c5.5,0,10.9-1.6,12.1-3.5s6.3-2.7,10.5-1.6c5.5,1.6,9.8,0,12.1-4.3c5.9-10.5,18-7.8,19.5,4.3c1.2,10.2,2.7,10.9,21.5,12.1
	c18.8,1.2,20.3,0.4,25.4-9.8c4.3-9,7.8-10.9,19.1-11.3c18-0.4,23-3.9,23-14.8c0-5.1,2.7-16.4,5.5-25c3.5-9.8,4.3-17.2,2.3-18.4
	c-2.3-1.2-3.1-9.8-2.3-18.8c1.2-13.7,2.7-16.8,10.5-18c5.1-0.4,14.1-4.7,19.5-8.6c12.9-9,15.2-9,21.1-0.8c4.7,6.3,5.5,6.3,15.2,0
	c5.5-3.9,10.2-9,10.2-11.7c0-7.8,16-21.5,28.5-24.2c12.9-3.5,23.4-17.6,21.5-29.3c-1.2-8.2,0.8-9,25-10.5l26.2-1.6l-2,14.8l-2,14.8
	l9-10.9c5.5-6.3,13.3-10.5,18.8-10.5c5.5,0,12.1-1.6,15.2-3.5c5.1-3.1,5.1-4.7,0.4-10.2c-4.3-5.1-9-5.9-19.9-4.3
	c-12.5,2-15.2,1.2-17.2-5.1c-1.2-4.3-5.5-9-9.4-10.2c-4.3-1.2-8.2-5.5-9.4-9.4c-3.1-12.1-28.5-14.1-53.9-4.3
	c-14.5,5.9-25.4,7.8-35.5,6.3c-10.9-2-15.2-0.8-18,3.9c-5.1,8.6-18.8,1.2-21.9-12.1c-3.1-12.5-9-12.5-22.3,0.4
	c-11.3,10.9-19.1,9.8-19.1-2.3c0-11.3-12.9-31.3-20.3-31.3c-3.5,0-10.9,1.6-16,3.5c-8.2,3.1-12.1,1.2-29.3-13.7
	c-10.5-9.4-22.3-17.2-25.8-17.2c-3.1,0-8.6-3.9-11.7-8.6c-5.5-7.8-5.5-9.4,2-17.2c7.4-7.8,7.4-9,1.6-14.8c-7-7-17.6-8.6-17.6-2.3
	c0,7-9,4.3-19.5-5.9c-8.6-8.2-14.1-9.4-43-10.5l-33.2-1.2v-46.9c0-61.3-7.8-80.1-33.6-80.1c-6.3,0-7.4-2.7-7.4-18.4
	c0-10.2,3.9-30.1,8.6-44.5c7.8-25,9-26.2,17.6-22.7c15.6,5.9,25.4,4.3,23.4-3.5c-1.6-7.8,5.9-24.6,14.5-31.6
	c3.5-3.1,6.3-8.6,6.3-12.9s3.5-12.1,7.8-18l8.2-9.8l-18.8-9.8c-10.2-5.1-20.3-11.7-21.9-14.8c-3.9-6.6-16.8-7.4-20.7-1.2
	c-1.6,3.1-4.7,0.8-8.2-5.9c-3.5-6.6-8.6-10.2-14.5-10.2c-5.5,0-10.2-2.3-11.3-5.1c-1.2-3.1-4.3-2.3-10.9,3.5
	c-5.1,4.3-17.2,10.5-27,13.3c-9.8,3.1-19.5,6.6-21.5,8.2c-2.3,1.6-10.2,1.6-17.6,0c-10.5-2-13.7-5.1-16.4-14.5
	c-5.1-19.5-14.5-25-47.3-27c-27-1.6-29.7-1.2-32,5.9c-1.6,4.3-6.3,8.2-10.9,8.6c-4.7,0.4-11.3,0.8-14.5,1.2c-3.1,0-7.8,1.6-10.5,3.1
	c-2.7,1.6-12.9-5.9-25.8-18.4c-11.7-12.1-26.6-22.7-32.4-23.8c-6.3-1.2-14.5-3.9-18-6.3c-3.9-2-11.3-3.5-16.4-3.5
	c-9.8,0-14.1-6.3-14.1-21.9c0-6.3-3.5-10.9-11.7-15.2c-6.3-3.1-15.2-12.9-19.5-21.5c-5.9-11.3-10.5-15.6-16.8-15.6
	c-6.6,0-10.9-4.3-17.6-17.6c-4.7-9.8-9.8-17.6-11.3-17.6C1020.9,0.3,1015.1,5.4,1009.2,12.1z M1819,2398.6
	c8.6,10.5,21.1,21.1,27.3,23.4c6.6,3.1,11.3,7.8,11.3,12.1c0,5.9-2.3,7-12.5,5.9c-7-1.2-14.5-2-16.4-2c-1.6-0.4-2-4.7-0.8-10.2
	c2-7.8-0.8-13.7-12.1-27.7c-8.2-9.4-21.5-21.9-29.3-27.7c-8.2-5.5-14.8-11.7-14.8-13.7C1771.8,2352.9,1801.8,2378.3,1819,2398.6z"/>
<path class="st0" d="M1863.6,701.2c-2,0.8-9,2.3-14.8,3.5c-17.2,3.9-8.6,9.4,9.4,6.3c17.2-3.1,30.5-12.1,17.2-11.3
	C1871,699.6,1865.9,700.4,1863.6,701.2z"/>
<path class="st0" d="M1806.5,722.7c-12.1,9.8-4.7,10.2,8.2,0c5.5-4.3,7.8-7.8,5.5-7.8C1817.5,714.9,1811.6,718.4,1806.5,722.7z"/>
<path class="st0" d="M1713.2,748.1c0,4.3-2.7,12.9-5.9,19.1c-3.1,5.9-5.9,14.1-5.9,18c0,3.9-2.7,9-5.9,11.7
	c-7.4,6.3-7.8,19.5-0.4,19.5c2.7,0,7.8-2.7,10.5-6.3c2.7-3.5,15.2-13.3,27.7-21.5c23-15.6,31.6-30.1,14.1-23.4
	c-7.4,3.1-10.9,1.2-21.5-10.5C1715.5,742.6,1713.6,741.4,1713.2,748.1z"/>
<path class="st0" d="M1693.6,753.5c0,2-1.2,6.3-2.3,9.8c-1.2,3.5-0.8,6.3,1.6,6.3c5.1,0,9-14.8,4.3-18
	C1695.2,750.4,1693.6,751.2,1693.6,753.5z"/>
<path class="st0" d="M1739,803.1c-4.7,12.1,1.2,13.3,8.6,1.6c3.9-6.3,3.9-7.8-0.8-7.8C1743.6,796.9,1740.1,799.6,1739,803.1z"/>
<path class="st0" d="M1756.9,803.5c-2,3.9-4.7,14.8-5.9,24.6c-2.3,17.6-2.3,17.2,5.1-5.5C1764,800,1764.3,789.5,1756.9,803.5z"/>
<path class="st0" d="M1826.8,834.8c-5.1,10.9-5.1,10.9,3.1,3.5c8.6-7.8,10.5-14.1,5.1-14.1C1833.1,824.2,1829.6,828.9,1826.8,834.8z
	"/>
<path class="st0" d="M1719.4,847.7c-7.8,10.5-13.3,19.5-12.5,19.5c9.4,0,27-10.9,30.1-18.4C1746.8,822.7,1737.8,821.9,1719.4,847.7z
	"/>
<path class="st0" d="M1804.6,838.3c1.2,3.5,2.3,9,2.3,12.5c0.4,5.9,0.8,5.9,4.3-0.4c4.7-8.2,2-18.4-4.7-18.4
	C1804.2,832,1803.4,834.8,1804.6,838.3z"/>
<path class="st0" d="M1668.2,855.5c-3.1,5.1,9.8,5.1,17.6,0c4.7-3.1,3.5-3.9-4.7-3.9C1675.3,851.6,1669.4,853.1,1668.2,855.5z"/>
<path class="st0" d="M1533.5,861c0,3.5,2,6.3,3.9,6.3c2.3,0,3.9-1.6,3.9-3.5c0-2.3-1.6-5.1-3.9-6.3
	C1535.4,856.3,1533.5,857.8,1533.5,861z"/>
<path class="st0" d="M1731.1,868c-5.5,6.6-10.2,14.8-10.2,18c0,5.1,9-6.3,21.1-25.8C1747.5,851.2,1741.7,855.5,1731.1,868z"/>
<path class="st0" d="M1670.2,875c0,3.1,9.8,7.8,16,7.8c7.8,0,2.7-7-6.3-8.6C1674.5,873.1,1670.2,873.5,1670.2,875z"/>
<path class="st0" d="M1550.3,889.1c-14.8,6.3-16,11.3-5.1,17.2c4.3,2.3,7.8,6.6,7.8,9.8s3.1,5.9,7,5.9c3.9,0,10.9,3.1,16,6.6
	c9.4,6.3,9.4,6.3,7-2.3c-1.2-5.5,0-9.4,3.5-10.9c8.2-3.1,6.6-7.8-6.6-20.7C1565.9,881.3,1567.1,881.7,1550.3,889.1z"/>
<path class="st0" d="M1674.1,893.8c0,4.7,7.4,10.2,10.2,7.4c0.8-0.8-0.8-3.9-4.3-6.6C1676.4,891.4,1674.1,891.4,1674.1,893.8z"/>
<path class="st0" d="M1694,908.6c0,4.3,1.2,5.5,2.3,2.3c1.2-2.7,0.8-6.3-0.4-7.4C1694.8,902,1693.6,904.3,1694,908.6z"/>
<path class="st0" d="M1603.8,964.9c0,12.5,2.3,13.3,23,9.4c7-1.6,11.7-4.3,11.3-6.3c-1.2-3.1-27-14.5-33.2-14.8
	C1604.2,953.2,1603.8,958.2,1603.8,964.9z"/>
<path class="st0" d="M1213.1,1394.2c0,2,2,5.1,3.9,6.3c2.3,1.2,3.9,0.8,3.9-1.6c0-2-1.6-5.1-3.9-6.3
	C1215.1,1391.5,1213.1,1391.9,1213.1,1394.2z"/>
<path class="st0" d="M2049.1,2554.1c0,4.7,7.4,10.2,10.2,7.4c0.8-0.8-0.8-3.9-4.3-6.6C2051.5,2551.7,2049.1,2551.7,2049.1,2554.1z"
	/>
<path class="st0" d="M2232.7,2730.6c0,2,2.7,3.9,5.9,3.9s5.9-2,5.9-3.9c0-2.3-2.7-3.9-5.9-3.9S2232.7,2728.3,2232.7,2730.6z"/>
<path class="st0" d="M2241.3,2746.7c0.8,2.3,2.7,3.9,4.3,3.9c1.6-0.4,6.3-0.4,10.9-0.4c4.3,0,6.6-2,5.5-3.9
	C2258.9,2740.8,2239.4,2741.2,2241.3,2746.7z"/>
<path class="st0" d="M2312.8,3668.6c-1.6,2.3-2,4.3-1.6,5.1c25.8,17.2,34.4,18,23,2.3C2325.7,3663.9,2317.1,3661.2,2312.8,3668.6z"
	/>
<path class="st0" d="M2295.6,3806.9c3.5,3.5,9,5.1,12.5,3.5c10.9-3.9,7.4-9.4-5.9-9.4C2291,3801,2290.2,3801.8,2295.6,3806.9z"/>
<path class="st0" d="M2185.9,4355c0,2,2.7,6.3,6.3,9c5.5,4.7,6.3,4.3,5.1-2C2195.6,4354.2,2185.9,4348.4,2185.9,4355z"/>
<path class="st0" d="M580.3,4398.8c-6.6,9-11.3,11.7-21.9,11.7c-18.8,0-17.6,11.3,2.3,27.3c16,12.5,21.5,25.4,30.1,70.3
	c5.1,27,14.5,23.8,16.8-5.9c1.2-12.9,4.3-27.3,7-32c2.3-4.7,4.7-19.9,4.7-34c0-23.4-0.8-26.2-12.5-37.1c-7-6.6-14.1-12.1-15.6-12.1
	S584.9,4392.1,580.3,4398.8z"/>
<path class="st0" d="M795.1,4594.1c-7.8,4.7-2,9.4,6.3,4.7c3.5-2,4.7-4.7,2.7-5.9C802.2,4591.7,798.2,4592.1,795.1,4594.1z"/>
<path class="st0" d="M1436.2,4949.2c-11.7,12.5-13.7,19.9-5.9,22.7c5.1,1.6,22.3-24.6,20.3-30.9
	C1449.5,4937.5,1444.4,4940.6,1436.2,4949.2z"/>
</svg>
