<?xml version="1.0" encoding="utf-8"?>
<!-- Generator: Adobe Illustrator 28.0.0, SVG Export Plug-In . SVG Version: 6.00 Build 0)  -->
<svg version="1.1" id="funkei" xmlns="http://www.w3.org/2000/svg" xmlns:xlink="http://www.w3.org/1999/xlink" x="0px" y="0px"
	 viewBox="0 0 450 450" style="enable-background:new 0 0 450 450;" xml:space="preserve">
<style type="text/css">
	.st0{fill:#555555;}
	.st1{fill:none;stroke:#555555;stroke-width:50;stroke-miterlimit:10;}
	.st2{fill:#555555;stroke:#555555;stroke-width:50;stroke-miterlimit:10;}
	.st3{fill:#A57C52;}
	.st4{fill:#B59B64;}
	.st5{fill:#B69C64;}
</style>
<g>
	<path class="st0" d="M175,235c0-5.5,4.5-10,10-10h80c5.5,0,10,4.5,10,10v180c0,5.5-4.5,10-10,10h-80c-5.5,0-10-4.5-10-10V235z"/>
	<path class="st1" d="M175,235c0-5.5,4.5-10,10-10h80c5.5,0,10,4.5,10,10v180c0,5.5-4.5,10-10,10h-80c-5.5,0-10-4.5-10-10V235z"/>
</g>
<circle class="st2" cx="225" cy="157.2" r="132.2"/>
<g>
	<path class="st3" d="M175,235c0-5.5,4.5-10,10-10h80c5.5,0,10,4.5,10,10v180c0,5.5-4.5,10-10,10h-80c-5.5,0-10-4.5-10-10V235z"/>
</g>
<circle class="st3" cx="225" cy="157.2" r="132.2"/>
<g>
	<path class="st4" d="M200,230c0-2.8,2.2-5,5-5h40c2.8,0,5,2.2,5,5v160c0,2.8-2.2,5-5,5h-40c-2.8,0-5-2.2-5-5V230z"/>
</g>
<circle class="st5" cx="225" cy="157.2" r="73.4"/>
</svg>
