<?xml version="1.0" encoding="utf-8"?>
<!-- Generator: Adobe Illustrator 28.0.0, SVG Export Plug-In . SVG Version: 6.00 Build 0)  -->
<svg version="1.1" id="funkei" xmlns="http://www.w3.org/2000/svg" xmlns:xlink="http://www.w3.org/1999/xlink" x="0px" y="0px"
	 viewBox="0 0 450 450" style="enable-background:new 0 0 450 450;" xml:space="preserve">
<style type="text/css">
	.st0{fill:#E6E6F0;stroke:#E6E6F0;stroke-width:20;stroke-miterlimit:10;}
	.st1{fill:#CBC6C0;}
	.st2{fill:#B69C64;}
</style>
<path class="st0" d="M126.6,231.7c-2.7,0-4.9-2.2-4.9-4.9V29.9c0-2.7,2.2-4.9,4.9-4.9h196.9c2.7,0,4.9,2.2,4.9,4.9v196.9
	c0,2.7-2.2,4.9-4.9,4.9L126.6,231.7L126.6,231.7z"/>
<path class="st0" d="M145.8,425c-2.2,0-4-2.4-4-5.3L182.4,197c0-1.5,0.9-2.7,2-2.7h81.1c1.1,0,2,1.2,2,2.7l40.6,222.6
	c0,2.9-1.8,5.3-4,5.3H145.8V425z"/>
<path class="st1" d="M126.6,231.7c-2.7,0-4.9-2.2-4.9-4.9V29.9c0-2.7,2.2-4.9,4.9-4.9h196.9c2.7,0,4.9,2.2,4.9,4.9v196.9
	c0,2.7-2.2,4.9-4.9,4.9L126.6,231.7L126.6,231.7z"/>
<path class="st1" d="M145.8,425c-2.2,0-4-2.4-4-5.3L182.4,197c0-1.5,0.9-2.7,2-2.7h81.1c1.1,0,2,1.2,2,2.7l40.6,222.6
	c0,2.9-1.8,5.3-4,5.3H145.8V425z"/>
<g>
	<path class="st2" d="M160.8,410c-1.8,0-3.2-2.3-3.2-5.1l32.9-214c0-1.4,0.7-2.6,1.6-2.6h65.7c0.9,0,1.6,1.2,1.6,2.6l32.9,214
		c0,2.8-1.4,5.1-3.2,5.1H160.8z"/>
</g>
<g>
	<path class="st2" d="M140.8,216.8c-2.3,0-4.2-1.9-4.2-4.2V44.2c0-2.3,1.9-4.2,4.2-4.2h168.4c2.3,0,4.2,1.9,4.2,4.2v168.4
		c0,2.3-1.9,4.2-4.2,4.2L140.8,216.8L140.8,216.8z"/>
</g>
<path class="st1" d="M175.1,395c-1.4,0-2.5-2.2-2.5-4.9l25.6-205.3c0-1.4,0.6-2.5,1.3-2.5h51.1c0.7,0,1.3,1.1,1.3,2.5l25.6,205.3
	c0,2.7-1.1,4.9-2.5,4.9H175.1z"/>
<path class="st1" d="M155.1,201.8c-1.9,0-3.5-1.6-3.5-3.5V58.5c0-1.9,1.6-3.5,3.5-3.5h139.8c1.9,0,3.5,1.6,3.5,3.5v139.8
	c0,1.9-1.6,3.5-3.5,3.5H155.1z"/>
<g>
	<path class="st2" d="M169.4,186.8c-1.5,0-2.8-1.2-2.8-2.8V72.7c0-1.5,1.2-2.8,2.8-2.8h111.3c1.5,0,2.8,1.2,2.8,2.8V184
		c0,1.5-1.2,2.8-2.8,2.8H169.4z"/>
</g>
<g>
	<path class="st2" d="M189.3,380.1c-1,0-1.8-2.1-1.8-4.7l18.3-196.6c0-1.3,0.4-2.4,0.9-2.4h36.5c0.5,0,0.9,1.1,0.9,2.4l18.3,196.6
		c0,2.6-0.8,4.7-1.8,4.7H189.3z"/>
</g>
</svg>
