<?xml version="1.0" encoding="utf-8"?>
<!-- Generator: Adobe Illustrator 28.0.0, SVG Export Plug-In . SVG Version: 6.00 Build 0)  -->
<svg version="1.1" id="funkei" xmlns="http://www.w3.org/2000/svg" xmlns:xlink="http://www.w3.org/1999/xlink" x="0px" y="0px"
	 viewBox="0 0 450 450" style="enable-background:new 0 0 450 450;" xml:space="preserve">
<style type="text/css">
	.st0{fill:#555555;stroke:#555555;stroke-width:50;stroke-miterlimit:10;}
	.st1{fill:#CBC6C0;}
	.st2{fill:#B69C64;}
</style>
<path class="st0" d="M126.6,231.7c-2.7,0-4.9-2.2-4.9-4.9V29.9c0-2.7,2.2-4.9,4.9-4.9h196.9c2.7,0,4.9,2.2,4.9,4.9v196.9
	c0,2.7-2.2,4.9-4.9,4.9L126.6,231.7L126.6,231.7z"/>
<path class="st0" d="M145.8,425c-2.2,0-4-2.4-4-5.3L182.4,197c0-1.5,0.9-2.7,2-2.7h81.1c1.1,0,2,1.2,2,2.7l40.6,222.6
	c0,2.9-1.8,5.3-4,5.3H145.8V425z"/>
<path class="st1" d="M126.6,231.7c-2.7,0-4.9-2.2-4.9-4.9V29.9c0-2.7,2.2-4.9,4.9-4.9h196.9c2.7,0,4.9,2.2,4.9,4.9v196.9
	c0,2.7-2.2,4.9-4.9,4.9L126.6,231.7L126.6,231.7z"/>
<path class="st1" d="M145.8,425c-2.2,0-4-2.4-4-5.3L182.4,197c0-1.5,0.9-2.7,2-2.7h81.1c1.1,0,2,1.2,2,2.7l40.6,222.6
	c0,2.9-1.8,5.3-4,5.3H145.8V425z"/>
<g>
	<path class="st2" d="M169.4,186.8c-1.5,0-2.8-1.2-2.8-2.8V72.7c0-1.5,1.2-2.8,2.8-2.8h111.3c1.5,0,2.8,1.2,2.8,2.8V184
		c0,1.5-1.2,2.8-2.8,2.8H169.4z"/>
</g>
<g>
	<path class="st2" d="M189.3,380.1c-1,0-1.8-2.1-1.8-4.7l18.3-196.6c0-1.3,0.4-2.4,0.9-2.4h36.5c0.5,0,0.9,1.1,0.9,2.4l18.3,196.6
		c0,2.6-0.8,4.7-1.8,4.7H189.3z"/>
</g>
</svg>
