<?xml version="1.0" encoding="utf-8"?>
<!-- Generator: Adobe Illustrator 28.0.0, SVG Export Plug-In . SVG Version: 6.00 Build 0)  -->
<svg version="1.1" id="funkei" xmlns="http://www.w3.org/2000/svg" xmlns:xlink="http://www.w3.org/1999/xlink" x="0px" y="0px"
	 viewBox="0 0 450 450" style="enable-background:new 0 0 450 450;" xml:space="preserve">
<style type="text/css">
	.st0{fill:#6E92A1;}
	.st1{fill:#E6E6F0;}
	.st2{fill:#A57C52;}
	.st3{fill:#B69C64;}
</style>
<g>
	<path class="st0" d="M110.7,430c-6.1,0-10.7-6.2-10.7-14.5v-381c0-8.3,4.6-14.5,10.7-14.5h228.6c6.1,0,10.7,6.2,10.7,14.5v381
		c0,8.3-4.6,14.5-10.7,14.5H110.7z"/>
	<path class="st1" d="M339.3,25c3.1,0,5.7,4.3,5.7,9.5v381c0,5.2-2.6,9.5-5.7,9.5H110.7c-3.1,0-5.7-4.3-5.7-9.5v-381
		c0-5.2,2.6-9.5,5.7-9.5H339.3 M339.3,15H110.7C101.7,15,95,23.4,95,34.5v381c0,11.1,6.7,19.5,15.7,19.5h228.6
		c8.9,0,15.7-8.4,15.7-19.5v-381C355,23.4,348.3,15,339.3,15L339.3,15z"/>
</g>
<path class="st2" d="M143,230.6c-2.2,0-4.1-1.8-4.1-4.1V62.4c0-2.3,1.8-4.1,4.1-4.1h164.1c2.2,0,4.1,1.8,4.1,4.1v164.1
	c0,2.2-1.8,4.1-4.1,4.1L143,230.6L143,230.6z"/>
<path class="st2" d="M159,391.7c-1.8,0-3.3-2-3.3-4.4l33.8-185.6c0-1.2,0.7-2.2,1.7-2.2h67.6c0.9,0,1.7,1,1.7,2.2l33.8,185.5
	c0,2.4-1.5,4.4-3.3,4.4L159,391.7L159,391.7z"/>
<g>
	<path class="st3" d="M171.5,379.2c-1.5,0-2.7-1.9-2.7-4.2l27.4-178.3c0-1.2,0.6-2.2,1.3-2.2h54.7c0.7,0,1.3,1,1.3,2.2l27.4,178.3
		c0,2.3-1.2,4.2-2.7,4.2H171.5z"/>
</g>
<g>
	<path class="st3" d="M154.8,218.2c-1.9,0-3.5-1.6-3.5-3.5V74.3c0-1.9,1.6-3.5,3.5-3.5h140.3c1.9,0,3.5,1.6,3.5,3.5v140.3
		c0,1.9-1.6,3.5-3.5,3.5L154.8,218.2L154.8,218.2z"/>
</g>
<path class="st2" d="M183.4,366.7c-1.2,0-2.1-1.8-2.1-4.1l21.3-171.1c0-1.2,0.5-2.1,1.1-2.1h42.6c0.6,0,1.1,0.9,1.1,2.1l21.3,171.1
	c0,2.2-0.9,4.1-2.1,4.1H183.4z"/>
<path class="st2" d="M166.8,205.7c-1.6,0-2.9-1.3-2.9-2.9V86.2c0-1.6,1.3-2.9,2.9-2.9h116.5c1.6,0,2.9,1.3,2.9,2.9v116.5
	c0,1.6-1.3,2.9-2.9,2.9H166.8z"/>
<g>
	<path class="st3" d="M178.7,193.2c-1.2,0-2.3-1-2.3-2.3V98.1c0-1.2,1-2.3,2.3-2.3h92.8c1.2,0,2.3,1,2.3,2.3v92.8
		c0,1.2-1,2.3-2.3,2.3H178.7z"/>
</g>
<g>
	<path class="st3" d="M195.3,354.2c-0.8,0-1.5-1.8-1.5-3.9L209,186.5c0-1.1,0.3-2,0.8-2h30.4c0.4,0,0.7,0.9,0.7,2l15.2,163.8
		c0,2.2-0.7,3.9-1.5,3.9H195.3z"/>
</g>
<path class="st2" d="M203.2,345.8c-0.6,0-1.1-1.8-1.1-4l11.2-169.3c0-1.2,0.3-2.1,0.6-2.1h22.3c0.3,0,0.6,0.9,0.6,2.1L248,341.7
	c0,2.2-0.5,4-1.1,4H203.2z"/>
<path class="st2" d="M190.5,180.7c-0.9,0-1.7-0.8-1.7-1.7v-69c0-0.9,0.8-1.7,1.7-1.7h69c0.9,0,1.7,0.8,1.7,1.7v69
	c0,0.9-0.8,1.7-1.7,1.7H190.5z"/>
<g>
	<path class="st3" d="M202.5,168.2c-0.6,0-1.1-0.5-1.1-1.1v-45.1c0-0.6,0.5-1.1,1.1-1.1h45.1c0.6,0,1.1,0.5,1.1,1.1V167
		c0,0.6-0.5,1.1-1.1,1.1H202.5z"/>
</g>
<g>
	<path class="st3" d="M210.8,333.5c-0.4,0-0.7-1.7-0.7-3.9l7.3-162.1c0-1.1,0.2-2,0.4-2h14.5c0.2,0,0.4,0.9,0.4,2l7.3,162.1
		c0,2.1-0.3,3.9-0.7,3.9H210.8z"/>
</g>
</svg>
