<?xml version="1.0" encoding="utf-8"?>
<!-- Generator: Adobe Illustrator 28.0.0, SVG Export Plug-In . SVG Version: 6.00 Build 0)  -->
<svg version="1.1" id="funkei" xmlns="http://www.w3.org/2000/svg" xmlns:xlink="http://www.w3.org/1999/xlink" x="0px" y="0px"
	 viewBox="0 0 450 450" style="enable-background:new 0 0 450 450;" xml:space="preserve">
<style type="text/css">
	.st0{fill:#555555;}
	.st1{fill:#6E92A1;}
	.st2{fill:#A57C52;}
	.st3{fill:#B69C64;}
</style>
<g>
	<path class="st0" d="M88.3,450.5c-7.3,0-12.8-6.8-12.8-15.9V16.4c0-9.1,5.5-15.9,12.8-15.9h274.3c7.3,0,12.8,6.8,12.8,15.9v418.2
		c0,9.1-5.5,15.9-12.8,15.9H88.3z"/>
	<path class="st1" d="M111.2,425.5c-6.1,0-10.7-6-10.7-14.1V39.6c0-8.1,4.6-14.1,10.7-14.1h228.6c6.1,0,10.7,6,10.7,14.1v371.7
		c0,8.1-4.6,14.1-10.7,14.1H111.2z"/>
</g>
<path class="st2" d="M143,230.6c-2.2,0-4.1-1.8-4.1-4.1V62.4c0-2.3,1.8-4.1,4.1-4.1h164.1c2.2,0,4.1,1.8,4.1,4.1v164.1
	c0,2.2-1.8,4.1-4.1,4.1H143L143,230.6z"/>
<path class="st2" d="M159,391.7c-1.8,0-3.3-2-3.3-4.4l33.8-185.6c0-1.2,0.7-2.2,1.7-2.2h67.6c0.9,0,1.7,1,1.7,2.2l33.8,185.5
	c0,2.4-1.5,4.4-3.3,4.4L159,391.7L159,391.7z"/>
<g>
	<path class="st3" d="M171.5,379.2c-1.5,0-2.7-1.9-2.7-4.2l27.4-178.3c0-1.2,0.6-2.2,1.3-2.2h54.7c0.7,0,1.3,1,1.3,2.2L280.9,375
		c0,2.3-1.2,4.2-2.7,4.2H171.5z"/>
</g>
<g>
	<path class="st3" d="M154.8,218.2c-1.9,0-3.5-1.6-3.5-3.5V74.3c0-1.9,1.6-3.5,3.5-3.5h140.3c1.9,0,3.5,1.6,3.5,3.5v140.3
		c0,1.9-1.6,3.5-3.5,3.5L154.8,218.2L154.8,218.2z"/>
</g>
<path class="st2" d="M183.4,366.7c-1.2,0-2.1-1.8-2.1-4.1l21.3-171.1c0-1.2,0.5-2.1,1.1-2.1h42.6c0.6,0,1.1,0.9,1.1,2.1l21.3,171.1
	c0,2.2-0.9,4.1-2.1,4.1H183.4z"/>
<path class="st2" d="M166.8,205.7c-1.6,0-2.9-1.3-2.9-2.9V86.2c0-1.6,1.3-2.9,2.9-2.9h116.5c1.6,0,2.9,1.3,2.9,2.9v116.5
	c0,1.6-1.3,2.9-2.9,2.9H166.8V205.7z"/>
<g>
	<path class="st3" d="M178.7,193.2c-1.2,0-2.3-1-2.3-2.3V98.1c0-1.2,1-2.3,2.3-2.3h92.8c1.2,0,2.3,1,2.3,2.3v92.8
		c0,1.2-1,2.3-2.3,2.3H178.7z"/>
</g>
<g>
	<path class="st3" d="M195.3,354.2c-0.8,0-1.5-1.8-1.5-3.9L209,186.5c0-1.1,0.3-2,0.8-2h30.4c0.4,0,0.7,0.9,0.7,2l15.2,163.8
		c0,2.2-0.7,3.9-1.5,3.9L195.3,354.2L195.3,354.2z"/>
</g>
</svg>
