<?xml version="1.0" encoding="utf-8"?>
<!-- Generator: Adobe Illustrator 28.0.0, SVG Export Plug-In . SVG Version: 6.00 Build 0)  -->
<svg version="1.1" id="layer" xmlns="http://www.w3.org/2000/svg" xmlns:xlink="http://www.w3.org/1999/xlink" x="0px" y="0px"
	 viewBox="0 0 1000 1000" style="enable-background:new 0 0 1000 1000;" xml:space="preserve">
<style type="text/css">
	.st0{fill:#EEEEEE;}
	.st1{fill:#555555;}
	.st2{fill:#555555;stroke:#555555;stroke-width:5;stroke-miterlimit:10;}
	.st3{fill:#EEEEEE;stroke:#555555;stroke-width:10;stroke-miterlimit:10;}
</style>
<g id="skeleton">
	<g>
		<path class="st0" d="M221.9,751.7c-30.5,0-66-1.4-105.6-4.1c-4.8-0.3-9.3-2.4-12.8-5.8c-23-23-15-49.9-10.3-66
			c1.4-4.8,3.8-12.7,3.2-15.1c0,0,0,0,0,0c-6.9-11.9-4.3-21.5-2.1-26.1c6.3-13.4,20.6-15.8,31.1-17.6c1.9-0.3,4.5-0.8,6.6-1.2
			c0.3-7.5-5.7-17.8-13.8-30.9c-4.7-7.5-9.5-15.2-12.9-23.3c-16.1-7.7-32.5-18.9-36.5-37c-4.9-22,10.8-39.3,25.9-56
			c5.3-5.9,10.8-12,15.6-18.3c7-15,5.4-26.8,3.5-41.7c-2.4-18.7-5.4-42,12.4-68.8c10.3-19.1,19.1-40.2,28.3-62.5
			c21.8-52.8,44.4-107.3,92.4-146.6c0.2-0.2,0.5-0.4,0.7-0.6c92.5-68.9,213.9-110,325-110c84.4,0,160.2,23.8,219.2,68.7
			c79.8,51.8,139.1,149.5,158.9,261.5c8.5,48.3,9,97.2,1.4,141.4c-8.2,47.9-25.3,89.1-50.6,122.5c-0.5,0.7-1,1.3-1.6,1.9
			c-36.8,37.7-81.3,50.5-124.3,62.8c-26.9,7.7-52.3,15-75.6,28c-1,0.5-1.9,1-3,1.4c-7.8,2.8-15.7,9.5-23.3,15.9
			c-12,10.1-24.4,20.6-40.9,20.6c-12.7,0-24.2-6.3-34.3-18.7c-1.6-1.9-2.7-4.1-3.5-6.4c-5.9-18-14.8-34.3-26.5-48.4
			c-32.8-39.4-78.2-51-102.3-54.5c-2.3-0.3-4.5-1-6.5-2.1c0,0-0.1-0.1-0.1-0.1c-2.7-1.4-16.9-8.5-34.4-8.5c-10.1,0-19.5,2.4-28,7.1
			c-14.2,7.9-22,20-26.1,29.3c17.2,21.2,23,40.1,17.8,57.8C378.2,735.8,326.7,751.7,221.9,751.7z"/>
		<path class="st1" d="M572.7,40c75,0,148,19.4,207.7,65.1C934.3,204.3,986.7,468.8,885.6,602c-54.8,56.2-131.5,51.5-195.4,87.3
			c-23.8,8.6-40,35.3-57.4,35.3c-6,0-12.2-3.2-18.8-11.3c-4.9-15.1-13.8-35.3-30-54.9c-40.7-48.9-97.6-59.1-114.9-61.5
			c-1.7-0.9-20.1-10.8-43.8-10.8c-11.8,0-24.8,2.4-37.7,9.6c-29.3,16.3-37.6,45.4-39.2,51.1c18,19.1,25.1,35,21.3,47.7
			c-7.4,24.8-56.7,37.2-147.8,37.2c-30.1,0-64.9-1.4-104.2-4.1c-25.5-25.5,8.3-56.3-3.9-77c-10.5-18.2,28.2-9.6,35.5-22.4
			c12.9-28.1-22-57.1-28-81.4c-64.5-27.3-20.4-49.8,6.1-86.2c21.9-44.1-11.4-70.4,15.9-110.4c35.5-64.9,52.3-151.7,116.3-204.1
			C344.2,83.1,460.8,40,572.7,40 M572.7,0c-58.1,0-120.3,10.9-179.9,31.6c-56.9,19.8-111.3,48.2-157,82.3c-0.5,0.4-1,0.7-1.5,1.1
			c-51.8,42.5-76.5,102-98.2,154.5c-8.9,21.6-17.4,41.9-27,59.9c-21.4,32.7-17.6,62.1-15.1,81.6c1.7,13.4,2.4,20.4-1,28.9
			c-3.9,5-8.6,10.2-13.1,15.2c-7.2,8-14.6,16.2-20.4,25.3c-10.3,16.1-13.7,32.4-10.1,48.4c5.2,23.4,23.2,37.9,40.8,47.4
			c3.5,6.9,7.5,13.2,11.2,19.2c1.1,1.7,2.3,3.7,3.6,5.8c-16.8,5.8-24.8,16.6-28.6,24.8c-3.4,7.2-7.5,21.1-0.4,38
			c-0.5,1.9-1.2,4.3-1.7,6c-2.8,9.4-6.3,21.2-6.2,34.9c0.1,19.4,7.5,37,21.5,50.9c6.8,6.8,15.9,11,25.5,11.6
			c40,2.8,76,4.2,106.9,4.2c49.3,0,87-3.4,115.1-10.5c16.8-4.2,30.3-9.8,41.3-17c18.8-12.4,26.6-27.6,29.8-38.3c0,0,0-0.1,0-0.1
			c3.2-10.8,5-28.2-4.4-49.2c-2.3-5.2-5.2-10.4-8.7-15.6c2.9-3.8,6.8-7.6,12-10.4c5.6-3.1,11.6-4.6,18.3-4.6
			c10.6,0,20.7,3.9,25.1,6.1l0.1,0.1c4.1,2.1,8.4,3.6,13,4.2c21.3,3,61.2,13.2,89.7,47.5c10,12.1,17.7,26.2,22.8,41.8
			c1.5,4.7,3.9,9,7,12.8c17.6,21.5,36.8,26,49.8,26c23.9,0,40.5-14,53.8-25.3c6-5,12.7-10.8,17.2-12.4c2-0.7,4-1.6,5.9-2.7
			c21.3-11.9,45.6-18.9,71.3-26.2c43.4-12.4,92.7-26.5,133.1-68c1.1-1.2,2.2-2.4,3.2-3.7c27.3-36,45.6-80.2,54.4-131.2
			c8-46.4,7.5-97.7-1.4-148.2c-9.8-55.3-29.4-109.2-56.7-155.6c-14.4-24.4-30.8-46.8-49-66.4c-18.8-20.4-39.4-38-61.4-52.3
			c-32.4-24.5-69.2-43.1-109.6-55.2C656.1,5.8,615.4,0,572.7,0L572.7,0z"/>
	</g>
	<g>
		<path class="st0" d="M184.2,980c-22.2,0-42.8-4.2-61.1-12.5c-1.4-0.6-2.7-1.4-3.9-2.3c-22.9-17.3-33.3-38.4-31.1-62.7
			c1.8-19.2,11.3-36.8,19.7-52.4c6.6-12.2,14-26,12.6-32.7c-1.3-6,0.3-12.3,4.3-17c3.8-4.5,9.4-7.1,15.2-7.1c0.3,0,0.6,0,0.9,0
			c5,0.2,10.2,0.3,15.4,0.3c9.9,0,20.2-0.4,30.5-1.2c57.9-4.7,114.4-22.6,168.1-53.4c-1-46.2-0.3-80.8,1.9-105.6
			c1.3-14.5,3.2-25.5,5.8-33.7c5.7-18.1,16.2-23.3,23.9-24.5c1.1-0.2,2.4-0.3,3.6-0.3c19.4,0,31.4,20.3,44.2,53.2
			c5.9,7.6,11.5,11.9,15.6,11.9c10.4,0,27-20.6,37-32.9c14.2-17.6,25.5-31.5,42.1-31.5c7.7,0,21.6,3.3,29,25.2
			c1.3,3.7,1.4,7.7,0.4,11.5c-1.7,6.8-10,62-10.7,89c7.8,65.3,0.9,107-22.7,139.2c-26.8,36.5-74.8,56-122.6,71.6
			c-18.1,5.8-38.3,14.3-59.7,23.3C293.2,956.5,237.3,980,184.2,980z"/>
		<path class="st1" d="M390.1,595.2c6.7,0,15.6,14.3,26.5,43c11.6,16,22.7,22.2,33.3,22.2c34.1,0,61.9-64.4,79.1-64.4
			c3.9,0,7.3,3.3,10,11.5c-2.1,7.8-10.9,67-11.4,95.1c14.4,118.8-20.8,154.7-131.5,190.8C335,913,255.3,960,184.2,960
			c-18.4,0-36.2-3.1-52.9-10.7c-60.7-46,16.7-98,8.7-135.9c5.3,0.2,10.7,0.3,16.2,0.3c10.3,0,21-0.4,32-1.3
			c80.3-6.5,143.9-36,186.8-62c-2.6-101.6,2.1-153.4,14.3-155.2C389.6,595.2,389.8,595.2,390.1,595.2 M390.1,555.2
			c-2.2,0-4.5,0.2-6.7,0.5c0,0,0,0,0,0c0,0,0,0,0,0c-11,1.7-30.6,8.9-39.9,38.2c-3,9.5-5.2,21.9-6.6,37.9
			c-2.1,23.3-2.9,54.7-2.2,95.7c-48,25.8-98.2,40.9-149.4,45.1c-9.8,0.8-19.5,1.1-28.9,1.1c-4.9,0-9.8-0.1-14.5-0.3
			c-0.6,0-1.1,0-1.7,0c-11.7,0-22.9,5.1-30.5,14.1c-7.5,8.8-10.8,20.4-9.1,31.8c-1.2,4.6-6.8,15-10.2,21.4
			c-8.8,16.4-19.8,36.7-22,60c-2,21.7,3.1,53.4,38.9,80.5c2.4,1.8,5,3.3,7.7,4.6c20.9,9.4,44.3,14.2,69.4,14.2
			c57.1,0,115-24.4,166-45.8c21-8.8,40.8-17.2,58-22.7c0.1,0,0.1,0,0.2-0.1c32.4-10.6,56.6-20.6,76.2-31.4
			c24.3-13.4,42.7-28.9,56.3-47.4c14.4-19.6,23.3-42.3,27.3-69.5c3.3-23,3.1-50-0.6-82.4c0.9-25,8.4-75.4,10.1-83.4
			c1.9-7.5,1.6-15.3-0.8-22.6c-3.1-9.3-7.3-16.8-12.8-22.8c-9.2-10.3-21.7-15.9-35.2-15.9c-21.2,0-35.5,14.1-40.2,18.7
			c-6,6-11.6,12.9-17.5,20.2c-5.3,6.6-10.8,13.4-16.1,18.8c-1.4,1.5-2.7,2.6-3.8,3.6c-5.4-13.6-10.6-24.2-15.6-32.3
			c-4.2-6.8-8.5-12.1-13.2-16.5C410.7,557.5,398.3,555.2,390.1,555.2L390.1,555.2z"/>
	</g>
	<path class="st2" d="M508.4,611.7c-83.8,142.2-108.1-56.3-123.7-5.5c0.1,63.1,31,162.6-30.3,201.6c3.8-18.7,39-38.6,23.9-59.3
		c-6.4-13.3-12.9-26.5-19.3-39.8c17.2-21.3-9.2-53.7-23.5-70.9c-8.1,3.9-16.1,7.7-24.1,11.6c-16.8,1.2-30.8,9.6-49.3,8.2
		c-30.6-1.2-22.2-39.5-46-50.7c-6.5-8.3-45.4-28.9-29.8-36.7c13.1,18.7,38.4,30.3,52,50.3c1.4,14.2,9.8,25.8,21.1,29.1
		c6.8,2.1,13,0.7,16.4-0.5C376,635.2,383.8,527.1,508.4,611.7z"/>
	<path class="st1" d="M253.9,464.9c5.6,19.9,4.3,35.1,3.8,38.4c-4.7,34.6-31.7,68.7-48.7,65.3c-15.9-3.3-25.8-40.5-23.8-90.4
		c-4.4-19.6-20.3-49.2-15.3-69.2C179.3,357.4,248.2,444.6,253.9,464.9z"/>
	<path class="st2" d="M361.9,552.6c87-11.7,170.7,16.7,186.8,13.4c0.9-0.1,5.2-1.2,6.6,0.7c0.8,1.2,0.7,3-1,6.1
		c-80.9,18.6-162.3-29.5-240.9-2.2c-49.4,0.7-10-82.3-30.4-114.5c-27.7-64-50.3-106.7,14.3-156.9c2.2-1.7,7.2-3.4,8.5-2
		c3.6,4-26.4,24.6-37.6,53.5c-18.9,48.8,34.2,74.9,29.8,155.8c-1.2,20-5.3,36.3,5.1,46.4C314.2,563.9,331.3,556.6,361.9,552.6z"/>
	<g id="tooth">
		<path class="st3" d="M356.1,770.4c-18.6,17.2-44.4-7.2-29.7-27.1C354.6,737.4,401.1,735.8,356.1,770.4z"/>
		<path class="st3" d="M322,786.7c-22.1,22.1-45.7-25.9-16.8-30.6C324.1,744.3,338.9,776.6,322,786.7z"/>
		<path class="st3" d="M272.4,761.3c46.8-22,12.9,70.2-12.5,27.8C254.6,773,256.3,764.8,272.4,761.3z"/>
		<path class="st3" d="M247.6,769c1.4,0.4,2.5,0.9,3.4,1.4c6.5,4.2,6.2,13.7,6.2,15c-0.1,12.1-7.5,22.9-20.7,21.6
			C206.7,763.8,231.8,782.2,247.6,769z"/>
		<path class="st3" d="M210,809.2c-9-9.6-15.5-23.8-8.2-37.3c4.2,2.6,8.3,4.3,13.4,0.5C224.8,766.7,233.1,826.1,210,809.2z"/>
		<path class="st3" d="M183.3,774.5c7.7,1.8,10.1-4.2,13.3-9.1c3,14,14.6,41.9-1,51.4C177.6,823.5,172,781.1,183.3,774.5z"/>
		<path class="st3" d="M166.5,818.1c-15.6,0.9-10.3-21.9-17.6-31.5c-2-9.9,7.3-8.6,13.4-12.5c2.3-3.6,4.2-6.5,9.1-4.9
			C180.7,782.3,184.5,811.2,166.5,818.1z"/>
		<path class="st3" d="M141,768.8c8.7,8.3,17,34.1,8.2,42.7C131.5,823.4,115.9,764.5,141,768.8z"/>
		<path class="st3" d="M359,708.3c23.9,29.8-30.4,54.4-35.5,19C316.6,709.3,351.8,693.7,359,708.3z"/>
		<path class="st3" d="M311.6,718.9c27.1,2.2,13.3,44-15,38c-7.9-6.6-8.1-28.9-3-34.5C300.1,723.4,306.1,722.3,311.6,718.9z"/>
		<path class="st3" d="M286.6,720.6c13.4,17.7,8.3,41.1-17.6,42.5C231,772.4,239.5,710.2,286.6,720.6z"/>
		<path class="st3" d="M245.2,739.4c6.2,13.8,6.9,40.7-15.2,33.3C206.9,760.7,228.1,704.5,245.2,739.4z"/>
		<path class="st3" d="M210.8,729.7c17.4,4.3,12.6,59.1-7.7,41.6C198.7,761.1,192.9,725.2,210.8,729.7z"/>
		<path class="st3" d="M173.4,771c-9.4-15.1-6.5-63.7,18.3-39.8C204.9,738.4,196.3,783.5,173.4,771z"/>
		<path class="st3" d="M151.2,720.6c26.9,6.4,22.5,76.7-9.5,51.4C132.3,756.5,135.3,728.9,151.2,720.6z"/>
		<path class="st3" d="M141.8,730.4c-7,9.1,1.2,31.7-7.3,35.8C100.1,796.8,116.2,678.6,141.8,730.4z"/>
	</g>
</g>
</svg>
