<?xml version="1.0" encoding="UTF-8"?>
<svg id="funkei" xmlns="http://www.w3.org/2000/svg" version="1.1" viewBox="0 0 450 450">
  <!-- Generator: Adobe Illustrator 29.4.0, SVG Export Plug-In . SVG Version: 2.1.0 Build 152)  -->
  <defs>
    <style>
      .st0 {
        fill: #bf9100;
      }

      .st1 {
        fill: #555;
      }
    </style>
  </defs>
  <g>
    <path class="st0" d="M35,390c-5.5,0-10.5-3-13.1-7.8-2.6-4.8-2.5-10.6.5-15.3L212.3,67c2.8-4.3,7.5-7,12.7-7s9.9,2.6,12.7,7l190,300c2.9,4.6,3.1,10.5.5,15.3s-7.7,7.8-13.1,7.8H35Z"/>
    <path class="st1" d="M225,75l190,300H35L225,75M225,45c-10.3,0-19.8,5.3-25.3,13.9L9.7,358.9c-5.9,9.2-6.2,20.9-.9,30.5,5.3,9.6,15.3,15.5,26.3,15.5h380c10.9,0,21-6,26.3-15.5,5.3-9.6,4.9-21.3-.9-30.5L250.3,58.9c-5.5-8.7-15.1-13.9-25.3-13.9h0Z"/>
  </g>
  <g>
    <rect class="st1" x="187.5" y="235.1" width="75" height="112" rx="15" ry="15"/>
    <path class="st1" d="M247.5,250.1v82h-45v-82h45M247.5,220.1h-45c-16.6,0-30,13.4-30,30v82c0,16.6,13.4,30,30,30h45c16.6,0,30-13.4,30-30v-82c0-16.6-13.4-30-30-30h0Z"/>
  </g>
</svg>