<?xml version="1.0" encoding="utf-8"?>
<!-- Generator: Adobe Illustrator 28.0.0, SVG Export Plug-In . SVG Version: 6.00 Build 0)  -->
<svg version="1.1" id="レイヤー_1" xmlns="http://www.w3.org/2000/svg" xmlns:xlink="http://www.w3.org/1999/xlink" x="0px"
	 y="0px" viewBox="0 0 60 60" style="enable-background:new 0 0 60 60;" xml:space="preserve">
<style type="text/css">
	.st0{fill:none;stroke:#555555;stroke-width:10;stroke-linecap:round;stroke-linejoin:round;stroke-miterlimit:10;}
	.st1{stroke:#555555;stroke-width:5;stroke-miterlimit:10;}
	.st2{fill:#87C39B;}
</style>
<g>
	<g>
		<path class="st0" d="M20.6,41.6l-3.8,9.9c-0.8,2.1-2.3,3.2-4.3,3.2c-0.8,0-1.6-0.2-2.4-0.6c-1.5-0.7-2.3-1.8-2.3-3.3
			c0-0.7,0.2-1.4,0.5-2.2l15.3-38C24.8,7.2,27,5.5,30,5.5s5.2,1.7,6.6,5.1l15.3,38c0.3,0.8,0.4,1.5,0.4,2.3c0,1.4-0.7,2.4-2.2,3.1
			c-0.8,0.4-1.7,0.7-2.6,0.7c-2,0-3.5-1.1-4.3-3.2l-3.8-9.9H20.6z M30,14.5L23.3,34h13.5L30,14.5z"/>
	</g>
	<g>
		<path class="st1" d="M20.6,41.6l-3.8,9.9c-0.8,2.1-2.3,3.2-4.3,3.2c-0.8,0-1.6-0.2-2.4-0.6c-1.5-0.7-2.3-1.8-2.3-3.3
			c0-0.7,0.2-1.4,0.5-2.2l15.3-38C24.8,7.2,27,5.5,30,5.5s5.2,1.7,6.6,5.1l15.3,38c0.3,0.8,0.4,1.5,0.4,2.3c0,1.4-0.7,2.4-2.2,3.1
			c-0.8,0.4-1.7,0.7-2.6,0.7c-2,0-3.5-1.1-4.3-3.2l-3.8-9.9H20.6z M30,14.5L23.3,34h13.5L30,14.5z"/>
	</g>
	<g>
		<path class="st2" d="M20.6,41.6l-3.8,9.9c-0.8,2.1-2.3,3.2-4.3,3.2c-0.8,0-1.6-0.2-2.4-0.6c-1.5-0.7-2.3-1.8-2.3-3.3
			c0-0.7,0.2-1.4,0.5-2.2l15.3-38C24.8,7.2,27,5.5,30,5.5s5.2,1.7,6.6,5.1l15.3,38c0.3,0.8,0.4,1.5,0.4,2.3c0,1.4-0.7,2.4-2.2,3.1
			c-0.8,0.4-1.7,0.7-2.6,0.7c-2,0-3.5-1.1-4.3-3.2l-3.8-9.9H20.6z M30,14.5L23.3,34h13.5L30,14.5z"/>
	</g>
</g>
</svg>
