<?xml version="1.0" encoding="utf-8"?>
<!-- Generator: Adobe Illustrator 28.0.0, SVG Export Plug-In . SVG Version: 6.00 Build 0)  -->
<svg version="1.1" id="funkei" xmlns="http://www.w3.org/2000/svg" xmlns:xlink="http://www.w3.org/1999/xlink" x="0px" y="0px"
	 viewBox="0 0 900 900" style="enable-background:new 0 0 900 900;" xml:space="preserve">
<style type="text/css">
	.st0{fill:#E6E6F0;stroke:#E6E6F0;stroke-width:40;stroke-miterlimit:10;}
	.st1{fill:#C9C4BE;}
	.st2{fill:#CBC6C0;}
	.st3{fill:#B49A64;}
</style>
<circle class="st0" cx="450" cy="273" r="223"/>
<path class="st0" d="M225.6,850c-6.2,0-11.2-4.8-11.2-10.7l117.8-431.9c0-3,2.5-5.4,5.6-5.4h224.4c3.1,0,5.6,2.4,5.6,5.4
	l117.8,431.9c0,5.9-5,10.7-11.2,10.7H225.6z"/>
<polygon class="st0" points="374.8,463.3 282.2,463.3 266.1,528.8 351.4,595.3 "/>
<polygon class="st0" points="527.3,463.3 619.9,463.3 636,528.8 550.7,595.3 "/>
<circle class="st1" cx="450" cy="273" r="223"/>
<path class="st2" d="M225.6,850c-6.2,0-11.2-4.8-11.2-10.7l117.8-431.9c0-3,2.5-5.4,5.6-5.4h224.4c3.1,0,5.6,2.4,5.6,5.4
	l117.8,431.9c0,5.9-5,10.7-11.2,10.7H225.6z"/>
<path class="st3" d="M245.3,828.6c-5.6,0-10.2-4.8-10.2-10.7l107.5-429.7c0-2.9,2.3-5.3,5.1-5.3h204.7c2.8,0,5.1,2.4,5.1,5.3
	L664.9,818c0,5.9-4.6,10.7-10.2,10.7H245.3V828.6z"/>
<polygon class="st1" points="374.8,463.3 282.2,463.3 266.1,528.8 351.4,595.3 "/>
<polygon class="st1" points="527.3,463.3 619.9,463.3 636,528.8 550.7,595.3 "/>
<circle class="st3" cx="450" cy="273" r="199"/>
<path class="st2" d="M258.6,817.6c-5.3,0-9.6-4.6-9.6-10.2l100.5-410.5c0-2.8,2.1-5.1,4.8-5.1h191.4c2.6,0,4.8,2.3,4.8,5.1
	L651,807.4c0,5.6-4.3,10.2-9.6,10.2L258.6,817.6L258.6,817.6z"/>
<circle class="st1" cx="450" cy="273" r="177.5"/>
<path class="st3" d="M302.9,783.3c-4.1,0-7.4-4.3-7.4-9.6l77.2-386.1c0-2.6,1.6-4.8,3.7-4.8h147.1c2,0,3.7,2.1,3.7,4.8l77.2,386.1
	c0,5.3-3.3,9.6-7.4,9.6H302.9z"/>
<circle class="st3" cx="450" cy="273" r="149.6"/>
<path class="st2" d="M327.2,762c-3.4,0-6.1-4.1-6.1-9.1l64.5-365.6c0-2.5,1.4-4.5,3.1-4.5h122.8c1.7,0,3.1,2,3.1,4.5l64.5,365.6
	c0,5-2.8,9.1-6.1,9.1H327.2z"/>
<circle class="st1" cx="450" cy="273" r="136.1"/>
<path class="st3" d="M402.1,692.2c-1.3,0-2.4-4-2.4-9l25.1-362.7c0-2.5,0.5-4.5,1.2-4.5h47.9c0.7,0,1.2,2,1.2,4.5l25.1,362.7
	c0,5-1.1,9-2.4,9H402.1z"/>
<circle class="st3" cx="450" cy="273" r="51.3"/>
<path class="st3" d="M309.3,484.6c-3.1,11.8-6.2,23.7-9.2,35.5c16.7,18.4,33.3,36.9,50,55.3c6.1-34,12.1-68,18.2-102
	C348.7,477.1,329,480.8,309.3,484.6z"/>
<path class="st3" d="M592.4,484.6c3.2,11.8,6.4,23.7,9.6,35.5c-17.2,18.4-34.5,36.9-51.7,55.3c-6.3-34-12.5-68-18.8-102
	C551.8,477.1,572.1,480.8,592.4,484.6z"/>
</svg>
