<?xml version="1.0" encoding="utf-8"?>
<!-- Generator: Adobe Illustrator 28.0.0, SVG Export Plug-In . SVG Version: 6.00 Build 0)  -->
<svg version="1.1" id="funkei" xmlns="http://www.w3.org/2000/svg" xmlns:xlink="http://www.w3.org/1999/xlink" x="0px" y="0px"
	 viewBox="0 0 450 450" style="enable-background:new 0 0 450 450;" xml:space="preserve">
<style type="text/css">
	.st0{fill:#B49A64;}
	.st1{fill:#FFFFFF;}
</style>
<g id="hotategaigatakofun">
	<path class="st0" d="M65.1,435c-3.3,0-6.4-1.6-8.3-4.4s-2.2-6.2-1-9.3l37.4-93.7c0.9-2.3,1.8-4.6,2.7-6.8
		c2.2-5.6,4.5-11.4,6.9-17.1C74.2,273.9,58.2,238,55.3,197.2c-2.8-39.2,8.2-78.4,31-110.5c22.8-32,56.3-55.3,94.3-65.7
		c14.5-4,29.4-6,44.3-6c39.4,0,77.9,13.9,108.6,39.3c31.3,25.9,52.2,62,58.8,101.7c9.3,56.2-5.9,105.9-45.3,147.6
		c13.7,34.2,27.7,69,41.1,102.7l5,12.4c0.2,0.6,0.4,1.1,0.7,1.8c0.1,0.3,0.2,0.7,0.4,1.1c1.1,3.1,0.7,6.5-1.2,9.2s-4.9,4.3-8.2,4.3
		L65.1,435L65.1,435z"/>
	<g>
		<path class="st1" d="M224.9,25c75.6,0,144.5,54.4,157.5,132.6c9,53.9-6.1,101.1-44.1,140.6c-2.7,2.8-2.4,4.8-1.2,7.7
			c15.6,38.8,31.1,77.7,46.7,116.5c0.3,0.8,0.5,1.5,0.9,2.6c-106.5,0-212.8,0-319.6,0c12.6-31.5,25-62.6,37.4-93.7
			c3.5-8.8,6.9-17.6,10.6-26.3c1.1-2.7,0.9-4.2-1.3-6.4c-27.9-28.3-43.7-62.4-46.5-102.2c-5.5-76.3,43.9-145.6,117.9-165.8
			C197.2,26.8,211.1,25,224.9,25 M224.9,5v20V5c-15.8,0-31.6,2.1-46.9,6.3c-40.2,11-75.7,35.7-99.8,69.5
			c-24.1,33.9-35.8,75.5-32.8,117c2.9,41.1,18.3,77.4,45.8,107.9c-1.5,3.8-3.1,7.6-4.5,11.4c-0.9,2.3-1.8,4.5-2.7,6.8
			c-9.3,23.3-18.7,46.7-28,70.2l-9.4,23.5c-2.5,6.2-1.7,13.1,2,18.6s9.9,8.8,16.6,8.8h319.6c6.5,0,12.7-3.2,16.4-8.6
			c3.7-5.4,4.6-12.2,2.3-18.4c-0.1-0.4-0.2-0.7-0.3-0.9c-0.2-0.6-0.5-1.3-0.8-2.1l-5.1-12.7c-12.7-31.7-25.7-64.3-38.7-96.6
			c18-20.3,31-42.6,38.5-66.4c8.4-26.5,10.1-55.1,5.1-85c-7-42.1-29.1-80.4-62.2-107.8C307.4,19.8,266.6,5,224.9,5L224.9,5z"/>
	</g>
</g>
</svg>
