<?xml version="1.0" encoding="utf-8"?>
<!-- Generator: Adobe Illustrator 28.0.0, SVG Export Plug-In . SVG Version: 6.00 Build 0)  -->
<svg version="1.1" id="funkei" xmlns="http://www.w3.org/2000/svg" xmlns:xlink="http://www.w3.org/1999/xlink" x="0px" y="0px"
	 viewBox="0 0 450 450" style="enable-background:new 0 0 450 450;" xml:space="preserve">
<style type="text/css">
	.st0{fill:#E6E6F0;stroke:#E6E6F0;stroke-width:20;stroke-miterlimit:10;}
	.st1{fill:#6E92A1;}
	.st2{fill:#A57C52;}
	.st3{fill:#B49A64;}
</style>
<path class="st0" d="M221.1,25C154.4,26.4,99.3,76.7,96.2,139.2c-12.8,89.2-25.7,178.4-38.5,267.6c55.9,6.1,111.8,12.2,167.7,18.2
	c55.7-6.1,111.4-12.1,167.1-18.2c-13.9-91.4-27.7-182.8-41.6-274.2C344.3,70.8,287.3,23.6,221.1,25z"/>
<path class="st1" d="M221.1,25C154.4,26.4,99.3,76.7,96.2,139.2c-12.8,89.2-25.7,178.4-38.5,267.6c55.9,6.1,111.8,12.2,167.7,18.2
	c55.7-6.1,111.4-12.1,167.1-18.2c-13.9-91.4-27.7-182.8-41.6-274.2C344.3,70.8,287.3,23.6,221.1,25z"/>
<path class="st2" d="M108.2,376.5c-0.4,0-2.5-0.1-4.1-1.8c-1.7-1.8-1.7-4-1.7-4.4l79.1-251.6c0-1.2,0.9-2.2,2-2.2h81.2
	c1.1,0,2,1,2,2.2c26.6,84.8,53.1,169.5,79.7,254.3c-1.1,1.6-2.3,3.2-3.4,4.7c-40.4,5.4-80.8,10.9-121.2,16.3
	C184,388.2,146.1,382.4,108.2,376.5z"/>
<circle class="st2" cx="224.1" cy="150.6" r="96.4"/>
<path class="st3" d="M120.3,372.9c-0.4,0-2.2-0.2-3.7-1.7c-1.6-1.6-1.5-3.6-1.5-4L186,139.4c0-1.1,0.8-2,1.8-2h72.7
	c1,0,1.8,0.9,1.8,2l70.9,227.9c-1.7,1.9-3.5,3.8-5.2,5.7c-35.2,3.3-70.5,6.6-105.7,10C188.3,379.6,154.3,376.3,120.3,372.9z"/>
<circle class="st3" cx="224.1" cy="150.6" r="86.2"/>
<circle class="st2" cx="224.1" cy="150.6" r="65.9"/>
<circle class="st3" cx="224.1" cy="150.6" r="53.3"/>
<circle class="st2" cx="224.1" cy="150.6" r="44.6"/>
<circle class="st3" cx="224.1" cy="150.6" r="13.2"/>
</svg>
