<?xml version="1.0" encoding="utf-8"?>
<!-- Generator: Adobe Illustrator 28.0.0, SVG Export Plug-In . SVG Version: 6.00 Build 0)  -->
<svg version="1.1" id="funkei" xmlns="http://www.w3.org/2000/svg" xmlns:xlink="http://www.w3.org/1999/xlink" x="0px" y="0px"
	 viewBox="0 0 450 450" style="enable-background:new 0 0 450 450;" xml:space="preserve">
<style type="text/css">
	.st0{fill:#E6E6F0;stroke:#E6E6F0;stroke-width:20;stroke-miterlimit:10;}
	.st1{fill:#6E91A0;}
	.st2{fill:#CAC5BF;}
	.st3{fill:#CBC6C0;}
	.st4{fill:#C9C4BE;}
	.st5{fill:#B49A64;}
</style>
<path class="st0" d="M231,411.5c-0.2,3.1-0.3,6.3-0.5,9.4c58,1.3,115.9,2.7,173.9,4c-11.9-98-23.8-195.9-35.7-293.9
	c-4.4-12.8-19.6-52.4-61.6-80.2c-6.7-4.4-41.9-27.1-92.1-25.9c-18.8,0.4-62.9,1.5-96,35.4c-20.3,20.8-27.4,44.6-30.2,57.2
	c-4.7,38.8-9.3,77.6-14,116.4c0.4,3.5,0.9,7.1,1.3,10.6c1.1-0.3,11.5-2.9,19.8,4c6.9,5.7,9.6,15.6,6.4,24.7c-5.8,14-11.6,28-17.3,42
	c-1.9,2.4-3.7,4.7-5.6,7.1c-11.2,27.8-22.4,55.5-33.6,83.3C107.5,407.8,169.2,409.7,231,411.5z"/>
<path class="st1" d="M231,411.5c-0.2,3.1-0.3,6.3-0.5,9.4c58,1.3,115.9,2.7,173.9,4c-11.9-98-23.8-195.9-35.7-293.9
	c-4.4-12.8-19.6-52.4-61.6-80.2c-6.7-4.4-41.9-27.1-92.1-25.9c-18.8,0.4-62.9,1.5-96,35.4c-20.3,20.8-27.4,44.6-30.2,57.2
	c-4.7,38.8-9.3,77.6-14,116.4c0.4,3.5,0.9,7.1,1.3,10.6c1.1-0.3,11.5-2.9,19.8,4c6.9,5.7,9.6,15.6,6.4,24.7c-5.8,14-11.6,28-17.3,42
	c-1.9,2.4-3.7,4.7-5.6,7.1c-11.2,27.8-22.4,55.5-33.6,83.3C107.5,407.8,169.2,409.7,231,411.5z"/>
<path class="st2" d="M86.1,233.6c4.1-27.5,8.1-55,12.2-82.5c1.5-10.2,7.7-42.9,36.5-69.8c4.3-4,33.7-30.6,78.8-32.1
	c59.1-1.9,96.8,40.9,104,49.2c18.7,21.3,26.5,43.3,30.9,57.2c28.5,89.8,31.4,204,31.6,252.5c-107.6-2-215.3-4.1-322.9-6.1
	c20-44,40-88,60.1-132.1c0-2.5-0.2-16.5-11.4-26.9C98.1,235.8,89.5,234,86.1,233.6z"/>
<path class="st1" d="M114.8,227.4c1.7-22.7,3.5-45.5,5.2-68.2c0.3-8.5,2.3-37.2,24.5-59.9c25.2-25.9,58.8-25.7,74.1-25.6
	c10.3,0,49,0.1,77.4,28.9c18.3,18.5,24.5,41,26.2,47.5c3.3,12.6,3.4,22.6,3.5,25.6c0.5,21.7,6.6,76.5,27.6,209.2
	c-84.1-0.9-168.2-1.7-252.2-2.6c10.9-41.9,21.7-83.8,32.6-125.7c0.1-3-0.2-8.2-2.9-13.9C126,232.8,117.4,228.6,114.8,227.4z"/>
<path class="st3" d="M131.7,353c-2.4,0-4.3-1.9-4.3-4.1l44.9-166.2c0-1.1,1-2.1,2.1-2.1h85.5c1.2,0,2.1,0.9,2.1,2.1L307,348.9
	c0,2.3-1.9,4.1-4.3,4.1H131.7z"/>
<circle class="st4" cx="217.2" cy="173.4" r="77"/>
<path class="st5" d="M147.5,340.2c-1.9,0-3.5-1.8-3.5-4l36.6-159c0-1.1,0.8-2,1.7-2H252c1,0,1.7,0.9,1.7,2l36.6,159
	c0,2.2-1.6,4-3.5,4H147.5z"/>
<circle class="st5" cx="217.2" cy="173.4" r="66.7"/>
<path class="st3" d="M154.5,333.7c-1.7,0-3.1-1.5-3.1-3.4l32.9-138.4c0-0.9,0.7-1.7,1.6-1.7h62.7c0.9,0,1.6,0.8,1.6,1.7L283,330.3
	c0,1.9-1.4,3.4-3.1,3.4H154.5z"/>
<circle class="st4" cx="217.2" cy="173.4" r="61.6"/>
<path class="st5" d="M167.2,320.9c-1.4,0-2.5-1.4-2.5-3.1l26.2-123.7c0-0.8,0.6-1.5,1.2-1.5h50c0.7,0,1.2,0.7,1.2,1.5l26.2,123.7
	c0,1.7-1.1,3.1-2.5,3.1H167.2z"/>
<circle class="st5" cx="217.2" cy="173.4" r="51.3"/>
<path class="st3" d="M175,314.5c-1.2,0-2.1-1.2-2.1-2.6l22.1-106c0-0.7,0.5-1.3,1.1-1.3h42.2c0.6,0,1.1,0.6,1.1,1.3l22.1,106
	c0,1.5-0.9,2.6-2.1,2.6H175z"/>
<circle class="st4" cx="217.2" cy="173.4" r="46.2"/>
<path class="st5" d="M202.6,288.9c-0.4,0-0.7-1.1-0.7-2.5l7.6-100.1c0-0.7,0.2-1.2,0.4-1.2h14.5c0.2,0,0.4,0.6,0.4,1.2l7.6,100.1
	c0,1.4-0.3,2.5-0.7,2.5H202.6z"/>
<circle class="st5" cx="217.2" cy="173.4" r="15.4"/>
<path class="st4" d="M165.2,226c-1.1,5.1-2.2,10-3.2,15.1c-0.3,1.4-1,1.8-2.4,1.5c-3.7-0.9-7.5-1.8-11.1-2.6
	c-1.5-0.3-1.9-1.1-1.5-2.5c1.4-4.8,2.8-9.6,4-14.3c0.4-1.6,1.2-2,2.8-1.7c3.2,0.8,6.3,1.5,9.5,2.1
	C164.7,223.9,165.5,224.5,165.2,226z"/>
<path class="st5" d="M165.2,227.9c-0.7,3.4-1.5,6.7-2.1,10.1c-0.2,0.9-0.7,1.2-1.6,1c-2.5-0.6-5-1.2-7.5-1.8c-1-0.2-1.3-0.7-1-1.7
	c0.9-3.2,1.8-6.4,2.7-9.6c0.3-1,0.8-1.4,1.8-1.1c2.1,0.5,4.2,1,6.3,1.4C164.9,226.6,165.4,227,165.2,227.9z"/>
<path class="st4" d="M269.1,226c1.1,5.1,2.2,10,3.2,15.1c0.3,1.4,1,1.8,2.4,1.5c3.7-0.9,7.5-1.8,11.1-2.6c1.5-0.3,1.9-1.1,1.5-2.5
	c-1.4-4.8-2.8-9.6-4-14.3c-0.4-1.6-1.2-2-2.8-1.7c-3.2,0.8-6.3,1.5-9.5,2.1C269.6,223.9,268.8,224.5,269.1,226z"/>
<path class="st5" d="M269.1,227.9c0.7,3.4,1.5,6.7,2.1,10.1c0.2,0.9,0.7,1.2,1.6,1c2.5-0.6,5-1.2,7.5-1.8c1-0.2,1.3-0.7,1-1.7
	c-0.9-3.2-1.8-6.4-2.7-9.6c-0.3-1-0.8-1.4-1.8-1.1c-2.1,0.5-4.2,1-6.3,1.4C269.4,226.6,268.9,227,269.1,227.9z"/>
</svg>
