<?xml version="1.0" encoding="utf-8"?>
<!-- Generator: Adobe Illustrator 28.0.0, SVG Export Plug-In . SVG Version: 6.00 Build 0)  -->
<svg version="1.1" id="funkei" xmlns="http://www.w3.org/2000/svg" xmlns:xlink="http://www.w3.org/1999/xlink" x="0px" y="0px"
	 viewBox="0 0 450 450" style="enable-background:new 0 0 450 450;" xml:space="preserve">
<style type="text/css">
	.st0{fill:#E6E6E6;stroke:#E6E6E6;stroke-width:20;stroke-miterlimit:10;}
	.st1{fill:#6E92A1;}
	.st2{fill:#CBC6C0;}
	.st3{fill:#C9C4BE;}
	.st4{fill:#B49A64;}
</style>
<path class="st0" d="M227.1,25.1c9.9,0.3,42.4,1.7,72.9,24.3c47.1,34.8,51.2,91.2,51.7,99.8c0,91.9,0,183.8,0,275.7
	c-78.8,0-157.6,0-236.4,0c6.7-57.8,13.5-115.5,20.2-173.3c-12.4-35.2-24.8-70.4-37.2-105.5c0.3-7.8,3.5-64.9,50.7-98.8
	C181.1,24.2,215.8,24.7,227.1,25.1z"/>
<path class="st1" d="M227.1,25.1c9.9,0.3,42.4,1.7,72.9,24.3c47.1,34.8,51.2,91.2,51.7,99.8c0,91.9,0,183.8,0,275.7
	c-78.8,0-157.6,0-236.4,0c6.7-57.8,13.5-115.5,20.2-173.3c-12.4-35.2-24.8-70.4-37.2-105.5c0.3-7.8,3.5-64.9,50.7-98.8
	C181.1,24.2,215.8,24.7,227.1,25.1z"/>
<path class="st2" d="M134.6,402.2c-2.7,0-4.9-2.4-4.9-5.4l45.8-212.4c0-1.5,1.1-2.7,2.5-2.7h98.9c1.4,0,2.5,1.2,2.5,2.7L331.2,400
	c0,3-2.2,5.4-4.9,5.4L134.6,402.2z"/>
<path class="st3" d="M271.8,215.7c14.7,8.5,29.5,17.1,44.2,25.6c8.1-15.2,16.2-30.4,24.3-45.5l-30-27.2L271.8,215.7z"/>
<circle class="st3" cx="227.4" cy="148.4" r="103.8"/>
<polygon class="st4" points="284.7,212.4 311.4,230.5 333.1,194.5 304.6,176.9 "/>
<path class="st4" d="M153.1,387c-2.2,0-3.9-2.3-3.9-5.2l37.3-200.1c0-1.4,0.9-2.6,1.9-2.6h77.9c1.1,0,1.9,1.2,1.9,2.6l40.9,208.8
	c0,2.9-1.7,5.2-3.9,5.2L153.1,387z"/>
<circle class="st4" cx="227.4" cy="148.4" r="97.7"/>
<path class="st2" d="M161.3,379.7c-1.9,0-3.5-2.1-3.5-4.7l33-179.2c0-1.3,0.8-2.3,1.7-2.3h69.8c1,0,1.7,1,1.7,2.3l36.6,187.9
	c0,2.6-1.6,4.7-3.5,4.7L161.3,379.7z"/>
<circle class="st3" cx="227.4" cy="148.4" r="91.6"/>
<path class="st4" d="M181.8,365.6c-1.3,0-2.4-2-2.4-4.4l22.7-175.4c0-1.2,0.5-2.2,1.2-2.2h48.3c0.7,0,1.2,1,1.2,2.2l25.3,176.9
	c0,2.4-1.1,4.4-2.4,4.4L181.8,365.6z"/>
<circle class="st4" cx="227.4" cy="148.4" r="83.7"/>
<path class="st2" d="M189.3,358.7c-1.1,0-2-1.8-2-4L206,195.6c0-1.1,0.5-2,1-2h40.7c0.6,0,1,0.9,1,2l21.4,160.6c0,2.2-0.9,4-2,4
	L189.3,358.7z"/>
<circle class="st3" cx="227.4" cy="148.4" r="78.2"/>
<path class="st4" d="M204.1,348.1c-0.6,0-1.2-2-1.2-4.4l12.2-177.8c0-1.2,0.3-2.2,0.6-2.2H239c0.3,0,0.6,1,0.6,2.2l12.2,177.8
	c0,2.4-0.5,4.4-1.2,4.4H204.1z"/>
<circle class="st4" cx="227.4" cy="148.4" r="65.4"/>
<circle class="st3" cx="227.4" cy="148.4" r="59.9"/>
<circle class="st4" cx="227.4" cy="148.4" r="25"/>
</svg>
