<?xml version="1.0" encoding="utf-8"?>
<!-- Generator: Adobe Illustrator 28.0.0, SVG Export Plug-In . SVG Version: 6.00 Build 0)  -->
<svg version="1.1" id="funkei" xmlns="http://www.w3.org/2000/svg" xmlns:xlink="http://www.w3.org/1999/xlink" x="0px" y="0px"
	 viewBox="0 0 450 450" style="enable-background:new 0 0 450 450;" xml:space="preserve">
<style type="text/css">
	.st0{fill:#E6E6F0;stroke:#E6E6F0;stroke-width:20;stroke-miterlimit:10;}
	.st1{fill:#CAC5BF;}
	.st2{fill:#B59B64;}
</style>
<ellipse class="st0" cx="225" cy="206.7" rx="106.2" ry="109.7"/>
<rect x="196.3" y="291.3" transform="matrix(0.9848 -0.1736 0.1736 0.9848 -58.3862 44.7264)" class="st0" width="60.3" height="129.4"/>
<rect x="219.9" y="26.8" transform="matrix(0.9962 8.715545e-02 -8.715545e-02 0.9962 7.1377 -20.8324)" class="st0" width="44.5" height="89.1"/>
<ellipse class="st1" cx="225" cy="206.7" rx="106.2" ry="109.7"/>
<rect x="196.3" y="291.3" transform="matrix(0.9848 -0.1736 0.1736 0.9848 -58.3862 44.7264)" class="st1" width="60.3" height="129.4"/>
<rect x="219.9" y="26.8" transform="matrix(0.9962 8.715545e-02 -8.715545e-02 0.9962 7.1377 -20.8324)" class="st1" width="44.5" height="89.1"/>
<ellipse transform="matrix(0.1646 -0.9864 0.9864 0.1646 -16.5694 395.1703)" class="st2" cx="225" cy="207.4" rx="90.7" ry="86.6"/>
<rect x="209.8" y="284.5" transform="matrix(0.9848 -0.1736 0.1736 0.9848 -56.1857 43.954)" class="st2" width="26.7" height="117.2"/>
<rect x="231.7" y="35" transform="matrix(0.9962 8.715545e-02 -8.715545e-02 0.9962 8.0033 -20.6798)" class="st2" width="18.2" height="92.7"/>
</svg>
