<?xml version="1.0" encoding="utf-8"?>
<!-- Generator: Adobe Illustrator 28.0.0, SVG Export Plug-In . SVG Version: 6.00 Build 0)  -->
<svg version="1.1" id="funkei" xmlns="http://www.w3.org/2000/svg" xmlns:xlink="http://www.w3.org/1999/xlink" x="0px" y="0px"
	 viewBox="0 0 900 900" style="enable-background:new 0 0 900 900;" xml:space="preserve">
<style type="text/css">
	.st0{fill:#E6E6F0;stroke:#E6E6F0;stroke-width:40;stroke-miterlimit:10;}
	.st1{fill:#CBC6C0;}
	.st2{fill:#B59B64;}
	.st3{fill:none;stroke:#8A6538;stroke-width:10;stroke-miterlimit:10;}
	.st4{fill:none;stroke:#8A6538;stroke-linecap:round;stroke-linejoin:round;stroke-miterlimit:10;}
	.st5{fill:#CAC5BF;}
</style>
<circle class="st0" cx="450" cy="422.1" r="372.1"/>
<rect x="303.6" y="715.8" class="st0" width="292.8" height="134.2"/>
<circle class="st1" cx="450" cy="422.1" r="372.1"/>
<rect x="303.6" y="715.8" class="st1" width="292.8" height="134.2"/>
<circle class="st2" cx="450" cy="422.1" r="334.9"/>
<circle class="st3" cx="450" cy="422.1" r="328.9"/>
<rect x="329.2" y="715.8" class="st2" width="241.6" height="87.3"/>
<circle class="st1" cx="450" cy="422.1" r="297.7"/>
<circle class="st2" cx="450" cy="422.1" r="241.9"/>
<circle class="st3" cx="450" cy="422.1" r="214.8"/>
<circle class="st1" cx="450" cy="422.1" r="186"/>
<circle class="st2" cx="450" cy="422.1" r="93"/>
<rect x="382.9" y="667.1" class="st1" width="134.2" height="57"/>
<rect x="399.7" y="671.3" class="st2" width="100.7" height="42.8"/>
<circle class="st3" cx="450" cy="422.1" r="87.3"/>
<line class="st4" x1="332.2" y1="727.5" x2="332.2" y2="797.9"/>
<line class="st4" x1="567.8" y1="727.5" x2="567.8" y2="797.9"/>
<path class="st5" d="M356.8,783.4c0-0.9,60.1-2.8,180.5-5.6c-2.2-24.6-4.5-49.2-6.7-73.8c4.5,0,8.9,0,13.4,0
	c1.9,26.4,3.9,52.9,5.8,79.3C421.1,784.3,356.8,784.3,356.8,783.4z"/>
</svg>
