<?xml version="1.0" encoding="utf-8"?>
<!-- Generator: Adobe Illustrator 28.0.0, SVG Export Plug-In . SVG Version: 6.00 Build 0)  -->
<svg version="1.1" id="funkei" xmlns="http://www.w3.org/2000/svg" xmlns:xlink="http://www.w3.org/1999/xlink" x="0px" y="0px"
	 viewBox="0 0 450 450" style="enable-background:new 0 0 450 450;" xml:space="preserve">
<style type="text/css">
	.st0{fill:#C9C4BE;}
	.st1{fill:#FFFFFF;}
</style>
<g id="zenpokoenfun-no-direction">
	<path class="st0" d="M100,435c-3.1,0-6.1-1.5-8-3.9s-2.5-5.7-1.7-8.7l5.9-21.5c4.5-16.5,9-32.9,13.6-49.3l5.4-19.7
		c10.5-38.2,21.4-77.7,32.2-116.6c-21.9-20.4-35.2-47.6-37.4-76.8c-2.3-29.8,7.2-58.9,26.7-81.8c23.2-27.3,52.7-41.8,85.3-41.8
		c10.4,0,21.2,1.5,32.2,4.3c45.3,11.9,74.2,42.6,83.4,88.9c4.2,20.8,3.1,40.7-3.2,59c-6,17.5-16.7,33.6-31.9,48
		c16.4,59.2,33,119.4,49,177.6l7.6,27.6c0.2,0.8,0.3,1.5,0.4,2.1c0,0.2,0.1,0.4,0.1,0.7c0.5,2.9-0.3,5.9-2.2,8.2s-4.7,3.6-7.7,3.6
		L100,435L100,435z"/>
	<g>
		<path class="st1" d="M222.1,25c9.5,0,19.4,1.3,29.7,4c41.5,10.9,67.7,38.9,76.2,81.1c7.8,38.7-4.2,71.9-33.2,98.8
			c-2.6,2.4-3,4.4-2.1,7.7c19.1,68.8,38,137.7,57,206.5c0.1,0.5,0.2,1,0.3,1.9c-83.5,0-166.6,0-250,0c6.5-23.8,13-47.3,19.5-70.8
			c12.7-46.1,25.4-92.2,38.2-138.3c1-3.4-0.3-5-2.6-7.1c-42.5-38.6-47.6-102.2-10.8-145.6C165.9,38,192.2,25,222.1,25 M222.1,5v20V5
			c-35.7,0-67.8,15.7-93,45.3c-21.2,25-31.5,56.6-29.1,89c2.3,29.7,15,57.5,36.2,79c-10.3,37-20.6,74.5-30.7,110.8l-5.4,19.7
			c-4.5,16.4-9,32.8-13.6,49.3l-5.9,21.5c-1.7,6-0.4,12.5,3.4,17.4c3.8,5,9.7,7.9,15.9,7.9h250c5.9,0,11.5-2.6,15.3-7.2
			c3.8-4.5,5.4-10.5,4.3-16.4c0-0.2-0.1-0.4-0.1-0.5c-0.1-0.7-0.3-1.8-0.7-3.2l-7.5-27.1c-15.6-56.5-31.6-114.9-47.6-172.4
			c30.5-31.2,42.1-69.7,33.7-112c-5-24.8-15.3-45.7-30.7-62.1c-15.5-16.5-35.7-28.1-60-34.5C245,6.6,233.4,5,222.1,5L222.1,5z"/>
	</g>
</g>
</svg>
