<?xml version="1.0" encoding="utf-8"?>
<!-- Generator: Adobe Illustrator 28.0.0, SVG Export Plug-In . SVG Version: 6.00 Build 0)  -->
<svg version="1.1" id="funkei" xmlns="http://www.w3.org/2000/svg" xmlns:xlink="http://www.w3.org/1999/xlink" x="0px" y="0px"
	 viewBox="0 0 450 450" style="enable-background:new 0 0 450 450;" xml:space="preserve">
<style type="text/css">
	.st0{fill:#B49A64;}
	.st1{fill:#FFFFFF;}
</style>
<g id="zenpokohofun-no-direction">
	<path class="st0" d="M100,435c-3.3,0-6.3-1.6-8.2-4.3s-2.3-6.1-1.2-9.2c21.6-58.8,43.1-117.4,64.7-176.5c-3.4,0-6.8,0-10.2,0
		c-8.1,0-14.4,0-20.3,0.1h-0.5c-1.7,0-6.6,0-10.4-3.8s-3.8-8.9-3.8-10.8c0.1-65.8,0.1-133.4,0-201c0-1.9,0-7,3.8-10.8
		s8.8-3.8,10.7-3.8C157.2,15,191,15,225.2,15c32.4,0,66.1,0,100.3-0.1c9.4,0,14.7,5.3,14.7,14.5c-0.1,62.9-0.1,128.6,0,201
		c0,2.1,0,7-3.8,10.9c-3.8,3.8-8.8,3.8-10.4,3.8h-0.5c-5.9-0.1-12.1-0.2-20.2-0.2c-3.5,0-6.9,0-10.4,0
		c21.6,59,43.1,117.6,64.7,176.5c1.1,3.1,0.7,6.5-1.2,9.2s-4.9,4.3-8.2,4.3L100,435L100,435z"/>
	<path class="st1" d="M124.5,25L124.5,25c33.5,0.1,67,0.1,100.5,0.1s66.9,0,100.4-0.1c0,0,0,0,0.1,0c3.6,0,4.6,0.7,4.6,4.5
		c-0.1,67-0.1,134,0,201c0,3.5-0.6,4.7-4.2,4.7c-0.1,0-0.2,0-0.3,0c-6.8-0.1-13.5-0.2-20.4-0.2c-8.1,0-16.3,0-24.7,0
		c23.3,63.5,46.4,126.5,69.7,189.9c-83.5,0-166.5,0-250,0c23.2-63.3,46.3-126.3,69.6-189.9c-8.3,0-16.5,0-24.5,0
		c-6.9,0-13.7,0-20.5,0.1c-0.1,0-0.2,0-0.3,0c-3.4,0-4.3-0.9-4.3-4.6c0.1-67,0.1-134,0-201C120,26,120.7,25,124.5,25 M124.5,5
		c-7.3,0-13.3,2.3-17.8,6.8C99.9,18.6,100,27,100,29.7c0.1,67.5,0.1,135.1,0,200.9c0,7.3,2.2,13.4,6.7,17.9s10.4,6.8,17.5,6.8
		c0.2,0,0.4,0,0.7,0c4.8-0.1,9.9-0.1,16.1-0.1c-20,54.5-39.9,108.7-59.8,163c-2.2,6.1-1.4,13,2.4,18.3c3.7,5.4,9.9,8.5,16.4,8.5h250
		c6.5,0,12.7-3.2,16.4-8.5c3.7-5.4,4.6-12.2,2.4-18.3c-20-54.4-39.8-108.6-59.8-163c6.2,0,11.3,0.1,16.1,0.2c0.2,0,0.5,0,0.7,0
		c7.1,0,13-2.3,17.5-6.8c6.8-6.8,6.7-15.2,6.7-18c-0.1-72.1-0.1-137.8,0-200.9c0-7.6-2.4-13.8-7.2-18.3c-6.7-6.3-14.7-6.3-17.3-6.3
		h-0.2c-34.2,0.1-68,0.1-100.3,0.1c-34.1,0-67.8,0-100.4-0.1L124.5,5L124.5,5L124.5,5z"/>
</g>
</svg>
