<?xml version="1.0" encoding="utf-8"?>
<!-- Generator: Adobe Illustrator 27.0.1, SVG Export Plug-In . SVG Version: 6.00 Build 0)  -->
<svg version="1.1" id="layer" xmlns="http://www.w3.org/2000/svg" xmlns:xlink="http://www.w3.org/1999/xlink" x="0px" y="0px"
	 viewBox="0 0 1280 1177" style="enable-background:new 0 0 1280 1177;" xml:space="preserve">
<style type="text/css">
	.st0{fill:#D4E5C2;}
</style>
<path class="st0" d="M963,0.6c-0.8,0.3-2.3,1.8-3.2,3.4c-1.1,2-2.5,3-4,3c-1.3,0-3,0.5-3.8,1c-1.4,0.9-1.6,2.2-1.9,12.8
	c-0.1,1.3-1.2,4.9-2.5,8c-1.3,3.1-2.9,7.5-3.6,9.7c-0.7,2.1-2.1,4.6-3.1,5.5c-2,1.7-10.9,18.7-10.9,20.8c0,1.1,0.8,1.3,2.9,0.9
	c6.3-1.3,6,5.9-0.4,10.7c-3,2.4-3.3,3-2.8,6.4c0.3,2,1,4.1,1.4,4.7c1.5,1.6,1,3.9-1.6,7.7c-1.4,2-3.2,6.8-4.2,10.6
	c-1.6,6.8-1.6,7,0.5,10c2.5,3.5,2.8,8.7,0.8,13.5c-1.4,3.4-0.6,13.8,1.4,18.2c1.4,3,1.4,4.7,0.2,7.5c-6.3,14.5-9.8,27.3-8.7,31.7
	c0.3,1.5,0,3.4-0.9,4.7c-0.8,1.2-2,4.2-2.6,6.7c-1.6,5.4-4.8,12.7-6.1,13.5c-2.1,1.3-6.4,9.2-7.6,13.9c-2.4,9.3-3.1,10.2-9.8,13.4
	c-9.6,4.6-23.5,5.9-23.5,2.2c0-0.6-2.2-1.8-5-2.8c-2.7-1-6.6-3.2-8.5-5c-2-1.8-4.7-3.3-6-3.3c-3,0-6.5-4.8-6.5-8.9
	c0-1.9-0.6-3.4-1.5-3.7c-0.8-0.3-1.7-1.4-2-2.4c-0.3-1.1-2.4-2.3-5.3-3c-2.6-0.8-5.6-1.9-6.7-2.7c-1.1-0.7-3.3-1.3-5-1.3
	c-4.4,0-12.4-3.3-16.8-7c-2-1.7-5.5-5.6-7.7-8.6c-3.5-4.6-4.8-5.6-9.7-7c-3.1-0.9-6.6-2.7-7.8-4c-1.2-1.3-2.7-2.4-3.2-2.4
	c-0.6,0-2.7-1.1-4.7-2.5c-2.6-1.8-4.2-2.3-5.3-1.6c-2,1.1-5.4,0.3-7-1.6c-0.6-0.8-4.2-3.5-8-6.1c-4.3-3-6.9-5.5-7.1-6.9
	c-0.2-1.4-2.1-3.2-5-4.9c-2.6-1.5-6.1-3.9-7.7-5.3c-1.7-1.4-5.6-3.9-8.6-5.5c-7.9-3.9-10.1-9.1-5.4-12.2c1.4-0.9,2.3-1.9,2.1-2.2
	c-0.6-0.6,2.5-6.2,3.5-6.2c0.4,0,1.2-1.3,1.9-3c0.7-1.6,2.5-3.5,4.1-4.2c2.3-1,2.9-1.9,2.9-4.3c0-1.6,0.9-4.4,2-6c1.1-1.7,2-4,2-5.2
	c0-1.2,0.5-2.5,1-2.8c1.5-0.9,1.2-3.5-0.4-3.5c-0.8,0-1.6,0.7-2,1.5c-0.3,0.8-1,1.5-1.5,1.5c-0.6,0-0.8-0.7-0.5-1.5
	c0.4-0.8,0.1-1.5-0.5-1.5c-0.6,0-1.1-1.3-1.1-3c0-2.1,0.4-2.8,1.4-2.4c2.2,0.8,3-1.5,1.1-3.6c-1.1-1.2-1.3-2-0.6-2.5
	c0.6-0.3,1.1-0.3,1.1,0.2c0,0.4,0.5,0.1,1-0.7c0.6-1,1-1.1,1-0.3c0,0.7,0.5,1.3,1,1.3c0.6,0,1-0.7,1-1.5c0-2,1.6-1.9,2.4,0.1
	c0.5,1.2,1,1,3-1.3c2-2.2,2.7-2.6,3.7-1.6s1,1.3,0.1,1.3c-0.7,0-1.2,0.9-1.2,2c0,2.4,1.8,2.7,2.7,0.4c0.3-0.8,1.2-1.3,1.9-1
	c0.8,0.3,1.4-0.1,1.4-0.9c0-0.8,0.7-1.8,1.5-2.3c0.9-0.4,1.7-1.8,1.8-3c0.1-1.4,0.8-2.2,2-2.2c1.3,0,1.7-0.5,1.3-1.6
	c-0.3-0.9-0.6-1.8-0.6-2c0-0.2-0.5-0.4-1.1-0.4c-0.6,0-1.8-0.8-2.7-1.7c-1.6-1.5-1.5-1.6,1.1-0.9c2.6,0.6,2.7,0.5,2.1-2
	c-0.6-2.3-0.4-2.6,1-2.1c1,0.4,1.6,0.1,1.6-0.9c0-2.1,6.9-10.4,8.6-10.4c2.3,0,1.6-2.7-1.7-5.9c-2.9-3-7.9-4.3-7.9-2.1
	c0,0.5-0.4,1-1,1c-0.5,0-1-0.9-1-2c0-1.2-0.7-3.1-1.5-4.4c-1.4-2.1-1.4-2.4,0.1-3c1.1-0.4,1.4-1,0.8-1.6c-1.2-1.2-4.5,0.3-10.9,4.8
	c-5.1,3.6-5.7,6-1.6,6.8c2.9,0.6,3,0.7,1.7,3.8c-1.1,2.8-1.7,3.1-5.3,3.1c-4.3,0-4.3,0.1-2.7-5.4c0.6-2.1,0.5-2.3-1.6-1.6l-2.3,0.7
	l2.3-3.1c2.5-3.6,2-5.3-0.8-2.8c-1,1-2.6,1.7-3.5,1.7s-2.7,1-3.8,2.1c-1.7,1.7-2.3,1.9-3,0.8c-0.9-1.5,4.7-7.9,6.9-7.9
	c0.6,0,1.2-0.5,1.2-1.1c0-1.3-4-0.5-8.4,1.7c-1.6,0.8-3.7,1.2-4.7,0.9c-0.9-0.3-2-0.2-2.3,0.4c-0.3,0.5-1.4,0.7-2.4,0.4
	c-1-0.2-3,0.7-4.7,2.2c-4.4,3.7-7.5,4.3-9.3,1.7c-0.8-1.2-2.3-2.2-3.3-2.2c-1.1,0-1.9-0.7-1.9-1.5c0-0.8-0.4-1.5-1-1.5
	c-0.5,0-1-0.6-1-1.4c0-2.6-2.1-2.9-4.9-0.9c-4.3,3.2-6.4,3.5-10.6,1.3c-2.6-1.3-4.1-1.6-4.4-0.9c-0.2,0.6-0.9,0-1.5-1.3
	c-0.6-1.2-1.6-2.3-2.1-2.3c-0.6,0-1.6-0.4-2.2-0.8c-0.7-0.4-2.2-0.3-3.4,0.3c-1.5,0.8-2.4,0.9-3.2,0.1c-0.7-0.7-0.5-1.2,0.6-1.7
	c0.9-0.3,1.7-1.2,1.7-1.9c0-1.6-5.3-3.1-5.8-1.6c-0.2,0.6-1.2,1.1-2.3,1.1c-1,0-1.9,0.4-1.9,1c0,1.4-1.6,1.2-3.3-0.4
	c-0.9-0.9-1.8-1.1-2.4-0.5c-0.6,0.6-1.7,0.2-2.9-1c-1.4-1.2-3-1.7-5.2-1.3c-2.8,0.4-3.3,0.1-4.9-3.4c-1.9-4.4-6.1-9.4-7.7-9.4
	c-0.6,0-2.2,1.4-3.5,3c-2.3,3-5.1,4-5.1,1.9c0-1.5-6.1-8.9-7.4-8.9c-0.6,0-1.7-1-2.5-2.1c-1-1.7-1.5-1.9-2.1-0.9
	c-0.7,1.1-1.4,1.2-3.6,0.2c-3.3-1.5-3.9-1-2.4,1.8c0.6,1.1,0.9,2.6,0.6,3.3c-0.2,0.7-0.5,0.5-0.5-0.4C602,9.2,598,6,596,6
	c-0.5,0-1,1-1.1,2.2c0,1.3-0.3,1.7-0.6,1c-0.7-1.8-2-1.5-4.3,1c-2.6,2.8-2.5,4,0.3,3.7c2.1-0.3,7.7,4.1,7.7,6c0,1.7,3.1,2.1,5.3,0.7
	c3.8-2.4,8.3-2.9,9.9-1.1c0.7,0.9,2.3,2.8,3.6,4.2c1.8,2,2,2.8,1.1,3.9c-0.9,1.1-0.9,1.7,0.1,2.9c1.2,1.4,0.5,10.3-0.7,9.1
	c-0.3-0.3-2,0.4-3.7,1.7c-3.5,2.5-6.2,3.1-7.1,1.6c-0.4-0.6-2,0-4,1.5c-3.8,3-5.7,3.2-7.5,1.1c-1.1-1.3-1.6-1.3-4.7,0
	c-7.8,3.3-15.5,1.4-16.4-3.9c-0.6-2.8-2.7-3.1-3.1-0.4c-0.3,2.3-1.1,2.4-7.3,1.5c-0.5-0.1-1.1,0.7-1.1,1.8c-0.1,1.1-0.2,2.8-0.3,3.7
	c-0.1,1.1-0.6,1.5-1.6,1.1c-1.7-0.6-5.8,2.5-4.9,3.8c0.2,0.5-1.1,0.2-3.1-0.7c-2-0.8-3.9-1.3-4.3-1s-0.9,2.1-1,4.2
	c-0.3,4.3-0.9,5.5-2.5,5.2c-0.7-0.1-2.1,0.1-3.3,0.5c-1.6,0.6-2,1.4-1.7,3.1c0.6,3.1-1.4,6.8-3.5,6.5c-3.8-0.3-4.2,0.1-4.2,4.6
	c0,3.2,0.6,5.2,2,6.7c2.6,2.9,2.5,3.5-1.1,6.9c-3.4,3.2-6.4,3.7-7.3,1.3c-0.5-1.4-0.8-1.4-2.3,0.2c-1,0.9-1.8,2.2-1.8,2.8
	c-0.2,2.9-1.9,9.2-2.7,10.3c-0.6,0.7-0.7,2-0.4,2.9c0.8,2.1-1.1,4.5-3,3.7c-0.8-0.3-1.4,0-1.4,0.6s-0.9,1.1-2.1,1.1
	c-1.2,0-1.9,0.5-1.6,1.2c0.2,0.7-0.6,3.2-1.9,5.6c-1.3,2.3-2.4,4.8-2.4,5.5c0,1.4,3.5,4.7,5,4.7c0.6,0,1,0.4,1,1c0,0.5,1.7,1,3.8,1
	c3.3,0.1,3.5,0.2,2,1.4c-2.3,1.7-2.3,2.5,0.5,5.4c2.1,2.3,2.1,2.4,0.2,2c-1.7-0.2-2.1,0.4-2.5,4.2c-0.5,4.2-0.6,4.4-1.8,2.3
	c-1.4-2.6-6.1-5.3-9.1-5.3c-2.3,0-3.5,3-2.5,6.2c0.6,2,0.5,2.1-1,0.9c-0.9-0.7-1.6-1.9-1.6-2.7c0-2-4.1-4.4-7.5-4.4
	c-1.6,0-5.1-0.7-7.7-1.4c-3.6-1.1-5.5-1.2-8.2-0.4c-3.7,1.2-3.8,1.4-1.8,6.7c0.4,1-0.2,1.2-2.5,0.7c-3.8-0.9-5.8,1.2-4.9,5.4
	c0.6,3.2-0.7,4.1-2.2,1.4c-1-1.8,0.1-9.3,1.5-10.3c1.5-0.9,2.5-6.1,1.3-6.1c-1.8,0-8.1-5.1-13-10.4c-5.7-6.3-9.1-9.7-11.7-11.7
	c-1.1-0.9-2.2-2.2-2.4-2.8c-0.5-1.5-9.9-2.6-9.9-1.2c0,0.6-0.4,1.1-1,1.1c-0.5,0-1-0.7-1-1.6c0-2.1-4-5.3-6.7-5.4
	c-1.2,0-3.3,0.5-4.7,1.1c-2.4,1.1-2.4,1.3-1.1,4c1.4,2.6,1.3,2.8-0.5,3.4c-1.5,0.5-1.9,1.2-1.5,2.6c0.5,1.4,0.3,1.7-0.9,1.3
	c-1.1-0.4-1.6,0-1.6,1.5c0,1.3-0.5,1.9-1.4,1.5c-2.2-0.8-2.7-4.3-0.8-5.3c1.3-0.7,1.4-1.3,0.6-2.1c-0.8-0.8-1.5-0.7-2.7,0.4
	c-0.9,0.9-2,1.6-2.6,1.6c-1.7,0-5,5.1-4.4,6.7c0.4,1.1,0.2,1.4-0.5,0.9c-0.7-0.4-1.2-2.1-1.2-3.8c0-3.4-3.5-7.2-5.8-6.3
	c-0.7,0.3-1.8,0.5-2.4,0.5c-0.6,0-0.8,0.6-0.5,1.4c0.3,0.8,0.1,1.6-0.5,1.8c-0.8,0.3-0.7,1.1,0.1,2.7c0.8,1.3,1.8,2,2.7,1.7
	c2.2-0.9,3,2.5,1,4c-1.1,0.7-1.5,1.8-1,2.5c0.4,0.7,0,1.8-1.1,2.5c-1.5,1.1-1.6,1.6-0.5,2.9c1,1.2,0.9,1.6-0.6,2.2
	c-1.1,0.3-2.2,1.1-2.6,1.7c-0.5,0.6-0.8,0.2-0.8-1.1c0-2.2-3-3.9-6-3.5c-1.3,0.2-1.2,0.1,0.1-1c2.6-2.1,2.5-2.8-0.5-4.3
	c-3.9-2.1-4.9-1.1-4.1,4.1c0.6,3.9,0.4,4.4-1.4,4.4c-1,0-2.1,0.6-2.4,1.2c-0.3,1-0.7,1-1.9,0.1c-1.6-1.4-3-0.2-7.5,6.3
	c-2,3-2,3.1-0.3,5.4c1.3,1.7,1.5,2.8,0.9,3.6c-0.7,0.9-0.3,1.5,1.3,2c1.3,0.4,2.6,0.8,3.1,0.9c0.4,0,0.7,0.3,0.7,0.7
	c0,0.5,0,1.2,0,1.6c0,1.7-5.5,0.6-6.5-1.3c-1.5-2.9-5.1-2.7-4.8,0.2c0.2,1.8-0.2,2.3-2.1,2.3c-2.7,0-5.9,3.1-3.8,3.7
	c0.6,0.3,1.2,1.1,1.2,1.9c0,1.2-0.8,1.3-3.5,0.8c-3.2-0.6-3.5-0.4-3.5,1.7c0,4.9-1.1,6.8-3.7,6.6c-1.4-0.1-2.8,0.5-3.3,1.3
	c-0.4,0.8-1.2,2.5-1.8,3.6c-1.3,2.6-0.1,8.6,2.2,10.9c0.9,0.9,1.6,2.1,1.6,2.6c0,1.7,1.7,0.9,2.8-1.4c0.9-1.9,1-1.7,0.5,1.3
	c-0.6,3.8-2.3,6.5-2.3,3.7c0-0.9-0.7-1.7-1.5-1.7c-0.8,0-1.5,0.9-1.5,1.9c0,1.1-0.4,2.2-1,2.6c-0.5,0.3-0.7,1.2-0.3,2
	c0.3,0.8,0.2,2.6-0.1,4c-0.8,3-4.1,3.4-4.9,0.6c-0.3-1.2-1.7-2.1-4.1-2.5c-2.1-0.4-4.5-1-5.3-1.3c-1.2-0.5-1.5-0.2-1,0.9
	c0.3,1,0,1.9-0.9,2.2c-2.4,0.9-2.7,0.7-2.1-1.4c0.6-2.4-3-5.5-4.7-4.1c-0.6,0.5-2,1-3,1.2c-2.6,0.5-2.8,4.6-0.4,6.3
	c1.8,1.3,1.7,1.4-0.9,2.1c-2.7,0.6-2.8,0.7-0.8,2.2s2,1.5-0.2,0.9c-2.8-0.9-3.9,1.1-1.9,3.3c0.9,1,1.6,2.3,1.6,2.9
	c0,0.7,0.8,1.2,1.8,1.2c1.9,0.1,6.2,3.3,6.2,4.7c0,0.5,0.6,1.5,1.2,2.1c0.7,0.7,1.3,2.6,1.4,4.2c0.1,2.6,0,2.7-1.7,1.7
	c-1.1-0.7-1.9-1.5-1.9-1.9c0-0.5-0.9-0.8-1.9-0.8c-2.5,0-3.4,2.6-1.9,5.3c1.2,2.2,1.2,3.9,0.2,8.6c-0.5,2.2-0.6,2.3-2.5,0.6
	c-1-1-2.6-3.1-3.4-4.7c-0.8-1.5-2.2-4.2-3.1-5.9c-0.9-1.7-2.2-3.3-3-3.6c-0.8-0.3-1.4-1.3-1.4-2.3c0-1.1-0.5-2.2-1-2.5
	c-0.6-0.4-0.8-1.5-0.5-2.6c0.4-1.2,0.2-1.9-0.7-1.9c-0.7,0-2.2-0.7-3.2-1.5c-1.8-1.4-1.8-1.5-0.1-4.2c1.2-1.8,1.4-2.8,0.7-3.1
	c-0.7-0.2-1.2-1-1.2-1.7c0-2.2-5,0.7-5.6,3.3c-0.4,1.2-1.3,2.6-2.1,3.1c-0.9,0.4-1.9,2.6-2.2,4.7c-0.5,3-1.1,3.9-2.6,3.9
	c-3.3,0.1-4.7,1.5-4.1,4.1c0.5,1.7,0.3,2.2-0.7,1.8c-1.9-0.7-7.1,5.4-9.6,11.2c-2.3,5.1-2.8,13.3-0.9,15.2c0.6,0.6,1.3,4,1.4,7.4
	c0.3,5.9,1.4,8.2,2.9,5.9c1.1-1.9,3.5-1.2,3.5,1c0,2.5-13.9,16.2-15.7,15.4c-1.8-0.6-4.7,5.3-3.4,6.9c1.3,1.5,0.4,2.6-2,2.6
	c-2.3,0-3.4,1.7-2,3.4c0.6,0.7,0.7,1.7,0.2,2.2s-1.4,2.7-2.1,4.9c-2.1,6.8-8.7,17.1-13.7,21.3c-9.4,7.8-31.4,18.1-41.7,19.6
	c-1,0.1-2.9,1.3-4.2,2.5c-2.1,2-2.7,2.1-6.5,1.1c-6-1.6-12-1-14.4,1.4c-1.1,1.2-2.9,3.8-4,6c-1.7,3.3-5.6,6.2-7.7,5.8
	c-0.4-0.1-2.5,0.4-4.5,1.2c-3.8,1.4-8.9,2.8-10.9,3c-1.1,0.1-8.4,6.2-8.4,7.1c0,1.5-5.6,6.5-7.3,6.5c-1.2,0-4,0.9-6.4,2.1
	c-4.7,2.3-9.3,2-9.3-0.7c0-1.9-3.2-1.1-7.2,1.7c-2.5,1.7-5.8,2.6-5.8,1.5c0-0.3,0.4-1.6,1-3c1.5-4.1-1.2-3.3-4.1,1.1
	c-1.3,2.1-3.4,4.2-4.6,4.8C87,389,86,390,86,390.7c0,0.7-0.8,1.3-1.9,1.3c-1,0-2.4,0.6-3,1.4c-0.7,0.8-2,1.2-3,0.9
	c-1.4-0.4-2.1,0.2-2.5,2.4c-0.5,1.8-2.1,3.6-4.5,5.1c-2.3,1.5-4.2,3.7-5,5.7c-0.6,1.9-2,3.7-3,4c-1,0.3-3.3,2.7-5.2,5.3
	c-3.8,5.3-6.8,8.1-8.7,8.2c-0.7,0-2.8,1.1-4.6,2.5c-1.8,1.4-3.8,2.5-4.4,2.5c-0.5,0-3.3,1.8-6.1,4c-3.8,3-5.1,4.7-5.1,6.6
	c0,1.8-0.7,2.8-2,3.1c-1.5,0.4-1.9,1.1-1.4,2.5c0.3,1,0.1,2.4-0.4,3.1s-1.3,3.5-1.7,6.4c-0.5,3.7-1.1,5-2,4.7
	c-0.7-0.3-1.9,0.4-2.7,1.5c-1.9,2.7-3,1.6-1.7-1.7c0.8-2,0.6-2.9-1.2-4.8c-1.9-2.1-2.1-3.1-1.7-9.3c0.3-3.9,0.3-7.3,0-7.5
	c-0.8-0.9-4.1,1.3-5.8,3.9c-0.8,1.3-2.1,5.7-2.9,9.7c-0.7,4-2.2,9.6-3.3,12.5c-2.2,5.7-1.9,9.9,0.7,10.8c3.2,1,6.5,10.5,4.2,12
	c-0.6,0.3-0.6,1.7-0.1,3.3c2.1,6.6,1.9,10.1-0.4,12.9c-4.8,5.8-7.4,20.4-5.4,30.4c0.7,3.4,2,5.7,5.3,8.9c2.5,2.5,4.5,5.2,4.5,6.1
	c0,1,0.5,2.1,1,2.4c0.6,0.3,1,1.4,1,2.4s0.9,2.6,2,3.7c3.4,3.2,4,3.8,6,6.3c1.1,1.3,2,2.9,2,3.5c0,0.6,2.3,3.6,5,6.5
	c2.8,3,5,5.9,5,6.3c0,0.4,0.6,0.8,1.4,0.8c0.9,0,1.3,1.8,1.4,6.5c0.1,3.6,0.6,7.5,1.3,8.6c0.9,1.8,0.7,2.5-0.9,4.2
	c-2.9,2.9-4.6,1.2-7.4-7.4c-2.2-6.9-4.5-8.8-4-3.3c0.2,3.1-1.2,6.3-2.4,5.1c-0.4-0.4-0.6-2.9-0.5-5.6c0.1-4.6-0.1-5.1-5.5-10.5
	c-3.1-3.2-5.8-5.5-6-5.3c-0.3,0.2-0.7,2-1.1,4c-0.4,2.8,0.1,4.4,2.6,8c1.7,2.5,3.1,5,3.1,5.5c0,1.7,5.9,7.1,8.5,7.8
	c2.8,0.7,3,0.9,3.9,4.6c0.5,2,0.1,3.3-1.4,4.8c-2.6,2.6-3.8,2.5-4.6-0.5c-0.3-1.4-1-2.3-1.4-2c-0.5,0.3-1.1-0.8-1.5-2.5
	c-0.4-1.6-1-3-1.5-3s-2.3-2-4.1-4.4C9.4,590.7,7,590.5,7,595c0,2.3-0.4,2.7-2,2.3c-2.7-0.7-2.5,1.1,0.4,3.4c1.3,1,2.6,2.8,3,3.8
	c0.3,1.1,2.5,3.3,4.9,5c7.3,5.2,11.6,9.6,19.3,19.7c8.3,11.1,10.7,15.9,10.1,20.3c-0.5,3.3,3.5,13.5,5.3,13.5
	c1.6,0,10.7,8.8,13.1,12.6c1.1,1.9,1.9,4.2,1.6,5.1c-0.2,1.2,1.6,3.7,5.3,7.3c6.9,6.6,10.1,12.5,11.2,20.5c2,14.5,3.6,22.5,4.7,22.5
	c0.4,0,1.3,2.1,2,4.7c1.5,5.1,7.1,15.2,9.6,17.3c0.8,0.7,2.9,3.8,4.7,6.9c1.8,3,5.8,9,9,13.1c5,6.6,5.9,8.5,7.3,15.4
	c1.1,5,1.3,8.2,0.7,8.8c-0.6,0.6-0.5,1.9,0.4,3.6c1.6,3.1,1.8,5.4,0.5,6.7c-1.8,2-1.7,5.2,0.5,11.5c3.4,9.9,3.7,13,1.9,19.3
	c-2.4,8.2-9,12.5-12.5,8.2c-2.3-2.7-3.7-1.8-3.4,2.2c1.1,12.4,3.6,21.2,7,24.4c2.3,2.2,2.4,2.2,4.4,0.4c1.9-1.7,2.2-1.7,7.5,0.3
	c6.8,2.6,13.8,7.3,16.6,11.1c1.4,1.9,2.7,2.7,4,2.4c1-0.3,5.3,0.7,9.5,2.1c4.8,1.7,8.4,2.4,9.8,2c1.1-0.4,3.3-0.7,4.8-0.6
	c1.5,0.1,2.9-0.2,3.2-0.7c0.3-0.5,1.4-0.7,2.4-0.4c0.9,0.2,3.6,0,5.8-0.5c2.3-0.5,4.8-0.6,5.5-0.2c0.8,0.4,2.6,1,4,1.4
	c2.1,0.4,2.8,0.2,3.2-1.3c0.4-1.8,0.9-1.9,4-0.9c3.7,1.1,6.7,0.6,6.7-1.2c0-0.5-0.8-1-1.7-1c-2.8,0-0.9-1,2.8-1.4
	c2.5-0.2,3.4-0.8,3.4-2.2c0-1.3,0.8-2,2.8-2.2c2.2-0.3,2.7-0.8,2.7-3.2c0-2.2,0.8-3.3,3.8-5.1c4.3-2.6,5.4-3.9,4.7-5.6
	c-0.2-0.6,1.4-2.1,3.5-3.2c3.2-1.6,4.5-1.9,6.7-1c3,1.1,5.8,0.5,4.8-1.2c-0.4-0.6,0-0.9,1.1-0.7c1.3,0.2,1.9-0.3,1.8-1.5
	c-0.1-1.3,0.3-1.6,1.6-1.2c2.2,0.7,3.8-1.4,1.9-2.5c-2.1-1.4,0.5-8.2,4.3-11c5.3-4,6.9-4.5,13.8-4.8c3.6-0.2,7.4-0.9,8.6-1.7
	c3.1-2,21.2-5.9,26.9-5.8c10.7,0.3,12,0.2,13.6-1.3c1.5-1.3,1.8-1.3,3.3,0.1c0.9,0.9,1.6,1.9,1.6,2.3c0,0.4,0.4,1.3,0.9,2.1
	c0.7,1.1,1.3,1.1,3.2,0.1c1.3-0.7,2.8-1.9,3.3-2.7c0.6-1.1,1.8-1.3,4.1-0.9c2.2,0.5,3.6,0.2,4.5-0.9c0.7-0.8,2.7-1.5,4.4-1.6
	c1.7,0,4-0.4,5.1-0.8c2.4-1,5.5,0.4,5.5,2.4c0,2.2,2.6,1.8,5.5-0.9c1.5-1.4,3.3-2.2,4.5-1.9c1.9,0.5,9.4-5.3,8.5-6.7
	c-0.3-0.4,0.9-2.3,2.5-4.1c1.6-1.9,3.2-5,3.5-6.9c2.1-13.3,5.5-17.7,15.4-20c3.3-0.8,6.8-2.5,9-4.4c4.4-3.9,10.9-8.1,13.9-9
	c1.2-0.4,5.3-3.3,9.1-6.4c8.7-7.1,12.6-8.4,21.2-7.2c9.5,1.4,25.9-1.1,33.9-5c1.9-1,7-3,11.3-4.4c8.6-2.9,17.5-7.2,25.4-12.2
	c4.5-2.9,7-3.5,21.6-5.8c10.8-1.7,20.6-2.6,28.2-2.6c10.4,0,12.2-0.3,16.6-2.4l4.9-2.5l8.6,4c8.3,3.8,17.4,9.8,20.3,13.3
	c1.8,2.2,12.2,2.1,11.4-0.1c-0.9-2.4,6.7-1.3,11.2,1.6c2.2,1.4,4.4,2.6,4.8,2.6c0.5,0,1.4,0.7,2,1.5c1.6,2.1,11.4,2.4,14.3,0.5
	c2-1.3,2.4-1.2,4,1c1,1.4,2.4,2.5,3,2.5c0.6,0,1.8,0.7,2.5,1.7c1.1,1.3,1.1,1.7,0.2,2c-1.3,0.5-1.9,6.3-0.7,6.3
	c0.3,0,2.2-0.7,4.1-1.6c3.3-1.6,3.5-1.6,5.3,0.2c1,1,2.1,2.9,2.5,4.1c0.6,2.1,0.3,2.3-2.9,2.3c-3.7,0-4.2,0.5-2.6,3
	c0.5,0.9,0.5,1.9-0.1,2.7c-1.3,1.5-0.3,3.3,1.6,3.3c0.9,0,1.2,0.6,0.8,1.6c-0.4,1,0,2,1,2.6c1,0.5,1.7,1.5,1.7,2.2
	c0,1.7,2.2,2.6,4.7,2c2.5-0.7,10,3.2,11.5,5.9c0.6,1.1,1.1,3.8,1.1,5.9c0,3.4,0.6,4.5,5.2,8.6c5.8,5.2,7.8,8.3,7.4,11.5
	c-0.2,1.2,0.2,3.1,0.8,4.2c1.4,2.8,2.5,10.5,1.4,10.5c-0.5,0-1.4-0.7-2.1-1.5c-1.8-2.2-2.6-1.9-4,1.5c-1.4,3.4-0.8,4.9,1.3,3.1
	c1.1-0.8,1.8-0.7,3.1,0.7c0.9,1,1.3,2.1,1,2.4c-0.3,0.4,0.3,0.9,1.4,1.2c2.1,0.7,7.2,6.7,7.2,8.5c0,1.6,1.1,1.4,3.2-0.6
	c1.7-1.5,2-1.5,4.8,1.2c3.3,3.1,3.4,3,4.4-4.3c0.6-4,0.5-4.3-1.5-4c-1.2,0.2-2.4-0.3-2.6-1c-0.3-0.6,0.2-1.2,1.1-1.2
	c1,0,1.5-0.8,1.3-2.2c-0.2-1.8,0.3-2.3,2.3-2.3c1.9,0,2.6-0.6,2.8-2.5c0.2-1.4,1.5-3.6,2.9-4.9c1.4-1.3,3.1-3.8,3.9-5.6
	c0.7-1.8,2.6-4,4.1-5s3.3-2.4,3.8-3.1c0.8-1,11.2-5.8,16.6-7.7c2-0.7,6.4-8.4,8.1-14.1c1.7-5.7,6.7-10.7,9.8-9.9
	c1.7,0.5,2.2,0.3,1.8-0.8c-0.2-0.8,0.1-3.2,0.7-5.4l1.2-4l0.6,5c0.4,2.6,1.4,5.6,2.2,6.6c1.5,1.5,1.3,1.8-2.1,3.8
	c-3,1.8-3.5,2.6-2.9,4.4c2.9,9.6,3,8.9-1.9,14.3c-5,5.3-7.6,9.6-7.6,12.6c0,1-0.6,2.1-1.4,2.4c-1,0.4-1.2,1.7-0.9,4.6
	c0.4,2.7,0.2,4.3-0.7,4.8c-1.1,0.7-1.1,1.5-0.1,4.8c1.8,5.3-0.2,14.7-2.8,13.7c-0.9-0.4-3.5-0.8-5.9-0.9c-3.8-0.2-4.5,0.1-5.8,2.6
	c-0.8,1.6-1.2,3.2-1,3.7c0.3,0.5-0.3,1.6-1.4,2.6c-3.8,3.4-1.2,8.6,2.7,5.4c0.9-0.8,2.5-1.3,3.5-1.1c1.1,0.2,2.8-0.4,3.9-1.4
	c1-0.9,1.9-1.4,1.9-1c0,0.3,1,0,2.3-0.8c1.9-1.3,2.6-1.3,5.4,0.1c4.2,2,5.6,0.9,7.4-5.5c0.7-2.6,1.9-5.8,2.6-7.2s1.3-4.4,1.3-6.6
	c0-2.5,0.7-5.1,1.9-6.5c1-1.4,2.1-3.5,2.3-4.7c0.1-1.3,0.8-2.1,1.3-2c0.6,0.2,0.9,0.7,0.7,1.1c-0.1,0.4,0.5,1,1.3,1.3
	c0.8,0.4,1.5,1.8,1.5,3.2c0,1.4,0.6,3.3,1.4,4.1c4.8,5.5,6,12.8,4,24.6c-0.6,3.9-5.6,10.5-8,10.5c-0.6,0-1.7,1.2-2.4,2.6
	c-1.9,3.4-0.6,4.1,7,3.9c4.6-0.1,6.5-0.7,8.3-2.3l2.3-2.2l4.2,2.1c5.8,2.9,16,14.3,19.9,22.2c3.7,7.2,6.6,18.6,5.7,21.4
	c-0.4,1-1.8,2.8-3.1,3.9c-2.2,1.9-2.4,2.4-1.3,4.4c0.6,1.2,0.9,3.1,0.7,4.2c-0.6,2.2,5.9,13.8,7.7,13.8c0.6,0,1.7,1.2,2.4,2.8
	c6.8,14.5,10.6,18.2,18.4,18.2c4.4,0,5.4,0.4,9.9,4.7c3.6,3.3,4.8,5.1,4.4,6.5c-0.5,1.3-0.1,1.8,1.4,1.8c1.1,0,2.2,0.4,2.5,0.9
	c1,1.6,4.5,0,4.8-2.3c0.4-3,5.8-2.6,10.4,0.9c2.6,2,4.1,2.5,6.4,2c3.2-0.7,8.6,2.2,12.9,6.9c1.4,1.4,3.3,2.6,4.2,2.6
	c1,0,3.4,1.4,5.2,3c1.9,1.7,4.4,3,5.5,3c1.2,0,2.6,0.9,3.2,2c1.4,2.6,2.9,2.5,6.4-0.5c1.6-1.4,3.3-2.5,3.7-2.5c0.4,0,3.1-2,6-4.5
	c2.9-2.5,5.8-4.5,6.3-4.5c0.6,0,2.2-0.9,3.6-2c4.8-3.7,9.1-2.3,13.5,4.4c1.9,2.9,5.9,3.5,6.9,1.1c0.3-0.8,1.6-1.5,2.9-1.5
	c1.9,0,2.6-0.7,3.1-3.1c0.5-2.6,1-3,3.3-2.7c2.2,0.2,2.9,0.9,3.1,3c0.3,2.2,0,2.7-1.2,2.2c-1.1-0.4-1.6,0-1.6,1.4
	c0,1.1-0.5,2.2-1.2,2.4c-0.8,0.3,0.2,1.9,2.4,4.2c2.4,2.4,4.3,3.6,5.3,3.3c1.5-0.7,4.5,3.7,4.5,6.7c0,2.3,2.2,3.1,3.6,1.2
	c1-1.5,1.5-1.5,3.3-0.4c1.2,0.7,2.1,2,2.1,2.9c0,2.3,3,7.9,4.1,7.9c1.6,0,3.5-2.3,3.7-4.5c0-1.1,0.4-3.5,0.8-5.2
	c0.5-2.6,0.3-3.3-0.9-3.3c-0.8,0-1.7,0.7-2.1,1.5c-0.8,2.2-1.9,1.8-3.2-0.9c-1-2.1-0.9-2.5,0.7-2.9c1-0.3,2-0.2,2.4,0.1
	c0.8,0.9,12,0.2,12.3-0.8c0.2-0.5,0.9-0.7,1.5-0.4c0.7,0.2,6.7-3.8,13.3-8.9c6.7-5.1,13.7-10.1,15.7-11c5.3-2.6,14.3-3.9,20.6-3.2
	c3.1,0.3,8.8,0.8,12.6,1c3.9,0.3,8.9,0.7,11.2,1c4.6,0.5,9.8-1.2,12.7-4.4c1.1-1.2,3.1-2.1,4.8-2.1c1.9,0,2.8-0.5,3-1.8
	c0-0.9,0.2-2.2,0.3-2.7c0.2-0.6,0.3-2,0.4-3.2c0.1-1.6,0.5-2.1,1.7-1.6c1.3,0.5,1.5,0.2,0.8-1.8c-2.1-6.5-0.7-14.6,3.8-21.1
	c1-1.4,1.8-3.6,1.8-4.7c0-1.2,0.6-3.2,1.4-4.4s2.2-5.4,3.1-9.2c1-3.9,2.4-7.4,3.1-7.8c0.8-0.4,1.4-1.3,1.4-1.9c0-0.5,1.4-2.7,3-4.8
	c1.7-2.1,3-4.2,3-4.7c0-0.6,0.9-1.8,2-2.8s2-2.3,2-3c0-2,3.6-4.6,5.5-3.9c1.1,0.5,2.4-0.2,4.1-2.1c1.3-1.6,2.4-2.9,2.4-3
	s-0.5-1.7-1.2-3.5c-0.9-2.8-0.8-3.5,0.5-4.5c1.5-1.1,3.6-5.3,3.3-6.6c0-0.3,0.4-1.2,1-2c0.7-0.8,1.5-2.9,1.9-4.7c0.4-2,2-4.3,4.2-6
	c7.6-6,9-7.7,11.3-14.9c1.5-4.8,2.9-7.5,4.2-7.9c1-0.3,1.8-1.1,1.8-1.7c0-0.7,1.2-2.6,2.6-4.2c1.5-1.7,3.7-4.6,4.9-6.5
	c3.9-6.1,7.6-8.8,12.5-9.4c2.7-0.3,4.9-1.2,5.7-2.3c2.4-3.6,5.7-6.2,8.5-6.9c3.2-0.7,4.7-3.3,5.3-9.8c0.4-4.4,3-8.6,6.2-10
	c1.9-0.9,2.7-2,5.7-8.3c0.9-1.7,2-3.4,2.6-3.8c1.3-0.8,4-7.2,4-9.5c0-0.9,0.9-2.5,2-3.5s2-2.4,2-3.2c0-0.7,0.6-2.2,1.3-3.3
	c1-1.7,0.9-2.2-0.2-2.9c-2.1-1.4,0.1-11.1,3.6-15.7c1.2-1.7,2.3-3.6,2.3-4.1c0-0.6,0.7-1.6,1.5-2.3c0.8-0.7,1.5-2.2,1.5-3.4
	c0-1.1,0.9-3.2,2-4.6c1.1-1.4,2-3,2-3.7c0-1.1,0.6-2.7,4.1-10.8c0.5-1.1,1-3.4,1.1-5c0.1-1.7,1.1-4.3,2.2-6c1.1-1.6,2.1-3.6,2.3-4.3
	c0.1-0.8,1.5-2.9,3.1-4.6c3.3-3.6,5.8-10.6,4-11.7c-0.8-0.5-0.7-2.4,0.4-6.8c1.4-5.3,1.4-6.3,0.1-8.8c-0.8-1.5-1.6-5.8-1.8-9.5
	c-0.2-3.8-0.7-7.3-1.1-8c-0.5-0.7-0.7-2.4-0.6-3.8c0.1-1.5-0.7-3.6-1.8-4.8c-1.1-1.1-2-2.8-2-3.6s-0.4-1.8-1-2.1
	c-0.6-0.4-0.5-1.3,0.3-2.6c1-1.6,0.9-2.1-0.2-2.8c-1-0.6-1-1-0.1-1.6c0.6-0.4,1.4-0.4,1.7-0.1c1.4,1.4,3.1-1.6,2.4-4.2
	c-0.8-2.5-0.7-6.2,0.3-20.8c0.3-3.9,1.4-8,3-11.2c3-6,3.1-6.2,1.1-6.2c-0.8,0-1.5-0.8-1.5-1.9c0-1-1.1-2.6-2.5-3.5
	c-2.8-1.8-3.4-6.2-1.3-9.9c1.6-2.9,1-8-1-9.2c-1.8-1-2.4-1.2-4.7-1.4c-0.8,0-1.5-0.9-1.5-1.9s-0.7-2.8-1.7-4.1
	c-0.9-1.3-1.6-3.9-1.5-5.9c0.2-4.4-1.1-6.8-4.6-8.4c-3.8-1.8-9.2-10.2-9.2-14.4c0-4.1-1.9-8.4-3.7-8.4c-0.7,0-1.6-1.3-1.9-2.9
	c-0.7-3.4-4.6-5-7.1-2.9c-1.3,1-1.9,0.8-3.9-1.7c-1.3-1.7-2.4-3.5-2.4-4.1s-1.1-1.6-2.4-2.3c-1.3-0.8-2.7-2.5-3-4
	c-0.3-1.4-1.4-3.7-2.5-5.1c-1.6-2-2.1-2.2-3.5-1.1c-1.4,1.2-1.6,1-1.6-1.2c0-1.4-0.5-3.7-1.1-5.1c-0.9-1.9-0.9-2.9,0-3.9
	c0.8-1,0.8-2.2,0-4.5c-0.9-2.6-0.7-4.4,1-9.6c1.8-5.6,1.9-7.1,0.9-12c-0.6-3.1-1.5-5.6-1.9-5.6c-0.5,0-0.9-0.7-0.9-1.5
	c0-0.8-1-1.9-2.1-2.6c-2.7-1.4-4.1,0.3-3.6,4.3c0.2,1.6,0.1,2.8-0.1,2.8c-0.3,0-2.2-1.6-4.3-3.5c-2.2-1.9-4.4-3.5-4.9-3.5
	c-0.6,0-1-0.8-1-1.8c0-2.8-2.9-8.2-4.4-8.2c-2.8,0-5.1,4.1-5,8.7c0.1,4.5,0.1,4.5-1.3,1.9c-1.3-2.6-3.3-3.5-3.3-1.6
	c0,0.5-0.5,1-1.2,1c-0.6,0-0.8-0.3-0.5-0.7c0.4-0.3-0.1-1.8-1-3.2c-3-4.6-6.2-21.1-4.1-21.1c0.5,0,0.4-0.9-0.2-1.9
	c-0.7-1.3-0.7-2.2,0-2.6c1.6-1,1.2-3.5-0.6-3.5c-0.8,0-1.2-0.5-0.9-1c0.3-0.6,0.2-1-0.3-1s-1.2-1.7-1.6-3.9c-0.3-2.1-1.2-4.4-2-5
	c-1.1-0.9-1.2-1.9-0.6-3.6c0.8-2.1,0.3-3-3.4-6.8c-2.4-2.5-5.3-4.8-6.5-5.2c-1.2-0.4-2-0.9-1.7-1.3c0.4-0.3-0.4-1.6-1.6-2.9
	c-1.2-1.2-1.8-2.6-1.5-3c0.4-0.3,0.2-1.2-0.5-2c-1.8-2.2,0.6-4.1,3.2-2.5c1.1,0.6,2.7,1.2,3.6,1.2c1.5,0,1.5-0.2,0.1-2.3
	c-0.8-1.2-1.8-3.7-2.2-5.6c-0.4-2-1.4-3.5-2.6-3.8c-1-0.3-1.9-1.2-1.9-1.9c0-0.8-0.7-1.4-1.5-1.4c-0.8,0-1.5-0.8-1.5-1.9
	c0-2.7-4.9-3.5-5.9-0.9c-0.7,1.8-0.7,1.8-2.3,0.1c-0.9-1-1.8-2.7-1.9-3.7c-0.2-1-1.3-2.4-2.4-3c-1.1-0.6-2.3-1.6-2.7-2.2
	s-1.8-0.9-3.1-0.7c-2.7,0.5-4.4-1.1-4.9-4.7c-0.4-3.3-4.8-4.2-4.8-1.1c0,3.4-1.8,2.4-2.9-1.7c-0.6-2-1.1-4.1-1.1-4.6
	c0-1.9-5.1-11.6-6.1-11.6c-0.6,0-0.6,0.7,0.1,2c1,1.8,0.8,2-1.7,2c-5.6,0-7.2-1.1-8.3-5.1c-1.1-4.1-2.4-5-3.4-2.4
	c-0.8,2.1-3.4,1.9-4.8-0.5c-0.7-1.1-1.9-2-2.7-2c-2.4,0-7.9-4-11.2-8.1l-3.1-4l1.7-6c0.9-3.4,1.5-6.2,1.3-6.4
	c-0.2-0.1-1.3-0.8-2.6-1.4c-1.3-0.7-2.7-2.2-3.2-3.4c-0.6-1.2-2-3.5-3.2-5l-2.3-2.8l2.3-4.2c1.2-2.3,2.4-5.6,2.6-7.2
	c0.2-1.7,0.7-4.6,1.1-6.6c0.4-2.3,0.3-3.9-0.4-4.3c-0.6-0.4-1.1-2.2-1.1-4.1s-0.4-3.6-0.9-3.9c-0.5-0.3-1.2-2.3-1.6-4.3
	c-0.4-2.1-1.2-4.4-1.7-5.1c-0.8-0.9-0.8-2,0.1-3.8c1.7-3.7,1.4-4.4-1.8-4.4c-2.3,0-3.4-0.8-5.1-3.5c-1.2-1.9-2.5-3.5-2.9-3.5
	c-1,0-6.1-9.7-6.1-11.6c0-0.8,0.6-1.7,1.3-2c0.8-0.3,1.2-2.1,1.1-5.2c-0.3-7-0.3-6.9-1.6-8.4c-1.1-1.1-1.4-3.1-1.8-12.1
	c-0.1-0.9-0.5-1.7-1.1-1.7c-1.4,0-1.1-5.4,0.6-7.6c1.9-2.5,1.9-4.8,0-4c-2.2,0.8-1.9-3.6,0.5-6.7l2-2.5l-2.5-1.6
	c-1.4-0.9-2.4-2.1-2.2-2.7c0.1-0.6-1.4-1.6-3.3-2.2c-2.2-0.8-4.4-2.6-5.9-5c-1.3-2-3-3.7-3.8-3.7c-0.7,0-1.3-0.5-1.3-1
	c0-0.6-0.8-1-1.9-1c-2.9,0-4.5-2.5-3.1-4.9c0.7-1.4,0.7-2.1,0-2.1c-0.5,0-1-0.8-1-1.8c-0.1-1.8-2.2-5.2-3.4-5.2c-0.4,0-2,1-3.7,2.2
	c-2.5,1.9-3.3,2-5,1c-2-1.3-4.4-0.7-3.4,0.8c1.1,1.8-3.9,5.1-7.4,4.8c-4.4-0.4-6.9-3.7-7.7-10.3c-0.3-2.8-1.7-7.4-3.1-10.3
	c-2.4-5.2-2.4-5.3-0.7-11.2c1.2-4.3,1.4-6.3,0.6-7.3c-1.6-1.9-2.7-16.3-1.3-17.1c2.4-1.5,1-2.9-2.4-2.3c-3.9,0.6-4.1,0.3-2-3.3
	c2.1-3.7,1.8-5.5-1-6.8c-1.6-0.8-2.5-2-2.5-3.5c0-2.7-2.8-5.7-5.3-5.7c-0.9,0-1.5-0.6-1.3-1.3c0.3-0.6,0.7-2.4,1-4
	c0.4-1.5,1.6-3.7,2.7-4.8l2-2l-2.3-1.9c-1.4-1.2-3.1-1.7-4.6-1.3c-1.4,0.3-3-0.1-4.2-1.2c-1.7-1.5-2-3.1-1.9-10.4
	c0-7.9-0.3-11.3-1.7-17.9c-0.3-1.3-2.1-3.9-4.2-5.8c-2.9-2.6-3.4-3.6-2.4-4.6c0.9-0.9,0.8-1.6-0.5-3c-0.9-1-1.9-1.7-2.2-1.7
	C964.8,0.2,963.8,0.4,963,0.6z M360,168.1c0,1.8-0.2,1.9-1.5,0.9c-1.5-1.2-1.2-3,0.6-3C359.6,166,360,167,360,168.1z M346,204
	c0,0.5-1,1-2.2,0.9c-2.2,0-2.2-0.1-0.3-0.9c1.1-0.5,2.1-0.9,2.3-0.9C345.9,203,346,203.4,346,204z M781.5,769.9
	c0.3,0.5,0.1,1.2-0.5,1.6c-0.5,0.3-1-0.1-1-0.9C780,768.8,780.6,768.5,781.5,769.9z M1154.4,889.5c-0.4,0.8-0.8,1.5-1,1.5
	s-0.4-0.7-0.4-1.5s0.4-1.5,1-1.5C1154.5,888,1154.7,888.7,1154.4,889.5z M975,969.4c0,0.7,0.6,2.6,1.4,4.1c1.3,2.4,1.2,3-0.8,6
	c-2.3,3.8-4.6,5-7.7,4c-1.4-0.5-1.8-1.2-1.3-2.3c0.4-1,0.7-2.6,0.8-3.7c0.1-1.7-0.5-2-3.9-1.8l-4,0.2l4-2.4c2.2-1.4,4.5-2.5,5.1-2.5
	c0.6,0,1.7-0.7,2.4-1.5C972.6,967.6,975,967.5,975,969.4z"/>
<path class="st0" d="M764.7,873c-3.7,0.4-7.3,1.2-7.9,1.8c-0.7,0.7-2.9,1.2-4.9,1.2c-6.1,0-10.6,2.5-11.4,6.2
	c-0.6,2.6-0.4,3.5,1.4,4.6c1.1,0.8,2.1,2,2.1,2.7c0,1.2,8.7,1.1,14-0.2c3.3-0.8,5.1-0.5,7.2,1.4c1.6,1.4,2,1.4,4.3-0.1
	c1.4-0.9,2.5-2.3,2.5-3.1c0-2.5,3.6-3.7,7.9-2.5c6.6,1.8,9.5-1.2,4.9-5.1c-2.4-2.2-5.4-2.5-6.1-0.7c-0.4,1-0.7,1-1.5,0
	c-0.5-0.8-1.8-1.2-2.8-1c-1.6,0.2-1.8-0.2-1.6-3c0.2-1.7,0-3.1-0.5-3.1C771.9,872.2,768.4,872.6,764.7,873z"/>
<path class="st0" d="M939,1025.9c0,0.5-0.7,1.6-1.5,2.4c-1.8,1.8-2.8,15.6-1.3,17.4c0.7,0.9,1.7,0.7,4.1-1c1.8-1.2,3.4-2.3,3.5-2.4
	c0.2-0.1,0.6-3.3,0.8-7.1c0.4-6.5,0.3-7.1-2.1-8.6C939.7,1024.8,939,1024.6,939,1025.9z"/>
<path class="st0" d="M1046.8,1041.7c-1,0.3-1.8,0.9-1.8,1.5c0,0.6-0.8,1.7-1.7,2.4c-1.7,1.3-1.7,1.5,0,2.8c1,0.8,1.5,2,1.1,3
	c-0.3,0.9-0.2,1.6,0.4,1.6c0.9,0,2.4,3.9,2.6,7c0.1,1.1,1.3,1.5,4.6,1.5h4.5l0.5-5.4c0.5-4.7,0.3-5.5-1.3-5.9
	c-1-0.2-2.7-2.2-3.7-4.3C1049.8,1041.6,1049.2,1041.2,1046.8,1041.7z"/>
<path class="st0" d="M955.5,1065.1c-0.5,0.7-0.8,2.8-0.7,4.6c0.2,1.8-0.2,3.3-0.8,3.3c-1.6,0-3.2,5-2.1,6.4c0.6,0.6,1,2.7,1,4.6
	c0,5,0.7,9.4,1.9,11.7c0.6,1.1,1.2,3,1.4,4.4c0.2,1.3,1.6,4.4,3,6.9c1.5,2.5,3.1,5.7,3.7,7.2c1.1,2.9,0.6,5.8-1,5.8
	c-1.3,0-0.5,15.8,0.9,17.2c0.7,0.7,1.2,2.3,1.2,3.6c0,3.6,2.2,10.2,3.1,9.6c0.9-0.5,5.9,9.1,5.9,11.3c0,0.7,0.7,1.3,1.6,1.3
	c0.8,0,1.3,0.4,0.9,0.9c-0.3,0.5-0.1,1.2,0.5,1.6c0.5,0.3,1,1.8,1,3.3c0,2.7,0.1,2.7,6.6,2.8c5.4,0.1,7,0.5,8.3,2.1
	c2.7,3.3,9.1,3.9,9.1,0.8c0-0.6,0.8-2,1.9-2.9c1.7-1.6,1.9-1.6,2.5,0c0.4,0.9,0.9,1.4,1.3,1.1c0.3-0.4,1.4-0.2,2.4,0.4
	c1.5,0.8,2.1,0.4,3.4-2c0.8-1.6,1.2-3.7,0.9-4.5c-0.4-1.1,0-1.6,1.1-1.6c1.4,0,1.7-0.6,1.2-3.4c-0.5-3.1-0.3-3.6,2.4-4.5
	c2.6-0.9,2.9-1.3,2.3-3.8c-0.7-2.5-0.6-2.7,0.9-1.4c1.3,1,1.4,1.8,0.6,3.2c-1.2,2.3-0.6,7.4,1.2,9.5c0.9,1.1,1.5,1.2,2.6,0.3
	c1-0.9,1.7-0.9,2.5-0.1c2.1,2.1,3,1.3,2.7-2.8c-0.2-2.1,0-4.2,0.4-4.6c1.1-1.1,0.8-4.9-0.4-6.1c-1.5-1.5-0.1-3.6,1.8-2.8
	c1.8,0.6,5.3-2.1,5.3-4.2c0-2-3-2.9-4.1-1.2c-0.7,1.1-0.9,1.1-0.9,0.1c0-0.7,0.7-2,1.5-2.9c0.8-0.8,1.3-1.9,0.9-2.4
	c-0.3-0.6,0-1.7,0.7-2.5c0.6-0.8,0.9-1.7,0.6-2.1c-1.1-1,2.6-6.3,4.4-6.3c1.4,0,1.6,0.6,1.2,2.7c-1,5-0.8,5.7,1.1,6.1
	c1.4,0.3,1.7,0,1.3-1.2c-0.3-0.8-0.2-1.8,0.4-2.2c0.5-0.3,0.9-2.7,0.9-5.2c-0.2-6.6,0.8-14.9,1.9-17.1c0.6-1,0.7-2.7,0.4-3.9
	c-0.3-1.3,0.2-3.3,1.2-4.8c1.3-2,1.5-3.2,0.7-4.9c-0.8-1.7-0.6-2.9,0.9-5.4c2.2-3.7,1.3-6.9-3.5-11.4c-3.3-3-5.6-3.5-5.6-1.2
	s-2.8,3-5.6,1.5c-2.2-1.2-2.7-1.1-5.3,1.4c-2.5,2.4-3.1,2.6-4.9,1.5c-1.6-1-2.4-1-3.5-0.1c-0.8,0.7-2.2,1-3,0.6
	c-1.7-0.6-12.6,1.3-14.2,2.6c-1.9,1.4-11.2,0.4-14.1-1.6c-1.6-1.1-4.1-2.5-5.6-3.2c-1.6-0.6-2.8-1.8-2.8-2.7c0-0.8-0.6-1.5-1.4-1.5
	c-0.8,0-2.1-0.6-2.9-1.4c-0.7-0.8-2.5-1.6-3.8-1.8c-1.3-0.1-2.5-1-2.5-1.8c-0.1-0.8-0.2-2.1-0.3-2.8c-0.1-1.7-2.1-1.5-2.1,0.3
	c0,0.8-0.9,1.5-2,1.5c-2.4,0-9-3.6-10.6-5.8C956.5,1064,956.2,1063.9,955.5,1065.1z M967,1125l1.3,2.5l-2-2
	c-1.1-1.1-1.8-2.4-1.6-2.8C965.3,1121.7,965.4,1121.8,967,1125z M1026.4,1155.5c0.3,0.8,0.1,1.5-0.4,1.5c-0.6,0-1-0.7-1-1.5
	s0.2-1.5,0.4-1.5S1026,1154.7,1026.4,1155.5z M1008,1166.5c-0.7,0.8-1.7,1.5-2.2,1.5c-0.6,0-0.5-0.7,0.2-1.5s1.7-1.5,2.2-1.5
	C1008.8,1165,1008.7,1165.7,1008,1166.5z"/>
</svg>
