<?xml version="1.0" encoding="utf-8"?>
<!-- Generator: Adobe Illustrator 27.0.1, SVG Export Plug-In . SVG Version: 6.00 Build 0)  -->
<svg version="1.1" id="レイヤー_1" xmlns="http://www.w3.org/2000/svg" xmlns:xlink="http://www.w3.org/1999/xlink" x="0px"
	 y="0px" viewBox="0 0 1155 1280" style="enable-background:new 0 0 1155 1280;" xml:space="preserve">
<style type="text/css">
	.st0{fill:#D4E5C2;}
</style>
<path class="st0" d="M539.3,0.7C538.6,1,538,2,538,3.1c0,1.8,0.8,1.9,11.8,1.8l11.7-0.1L553,2.9C540.5,0.1,540.6,0.2,539.3,0.7z"/>
<path class="st0" d="M615.4,27.4c-0.3,0.8,1.4,4.9,3.7,9.2l4.2,7.7l-5.6-4.6c-7.3-6-11.2-7.9-15.8-8.1c-4.1-0.1-8.9,3.4-8.9,6.4
	c0,0.9,4.6,5.7,10.3,10.7c16.2,14.2,26.2,27.6,29.1,38.7c1.8,7,1,11.9-2.9,16.3l-2.4,2.8l4.7,8.9c6.8,12.9,21.2,27.6,27.1,27.6
	c0.9,0,4.2-2.6,7.4-5.8c3.3-3.1,5.8-5.2,5.6-4.6c-0.2,0.5-3.5,5.6-7.4,11.3l-6.9,10.2l3.4,2.6c11.4,8.5,28.6,28.7,47.4,55.8
	c10.4,14.9,15.4,20.5,18.5,20.5c4.8,0,5.9-7.2,2.2-15.6l-2.2-4.9l3.3,3.1c1.8,1.8,4.7,3.9,6.3,4.7c3.9,1.9,10.5,3.7,10.5,2.9
	c0-0.4-2.5-4.9-5.5-10.1c-3-5.1-5.5-9.7-5.5-10.1s0.6-1.3,1.4-1.9c1.1-0.9,2.7-0.6,7.1,1.4c3.2,1.4,6,2.5,6.2,2.5
	c0.3,0,0.2-1.5-0.2-3.3c-0.5-2.9-0.4-3,0.8-1.5c0.9,1.2,2.8,1.8,5.6,1.8c5.4,0,5.2,1.3-0.4,2.8c-3.3,0.9-5,2-6.5,4.5
	c-3.2,5.2-2.7,6.4,3.5,7.7l5.5,1.1l-5.6,7.2c-5.9,7.6-6,8.2-2.9,15.1l1.7,3.9l-3.3-2.7c-4.4-3.7-9.6-6.2-14.6-7.1
	c-3.3-0.5-4.3-0.4-4.3,0.7c0,2.8,5.1,12,13.2,23.9c6.4,9.5,9.6,15.6,13.7,25.9c10.7,26.8,17,36.1,26.9,39.6l5,1.8l-2.9,3.3
	c-3.5,4.1-3.5,4.5-0.5,15.8c4.2,15.4,7.8,21.4,14.4,24.2l3.4,1.4l-6,2.9c-6.7,3.2-9.6,6.6-9.6,11.6c0,4.1,2.7,7.2,7,8
	c3.6,0.7,4.2,1.7,4.7,8.4l0.2,3.5l-7.8,1c-8.6,1.1-9.7,1.9-9.7,7.7c0,2-0.7,9.2-1.6,16c-4,31.1-12.4,49.3-25.5,55.5
	c-2.4,1.1-12,4.2-21.4,6.7c-19.4,5.3-27.4,8.7-33.5,14.2c-8.3,7.4-10.8,19.9-6.1,29.7c4.2,8.6,10.9,12.5,31.1,18
	c6.9,1.8,13.9,4.1,15.7,5c1.8,1,7.4,5.4,12.5,9.8c11.3,9.9,15.7,12.1,31.8,15.4c14.9,3.2,21.8,6.5,29.9,14.5
	c12.8,12.6,17,29.5,12.1,48.6c-4.2,16.4-11.3,26.9-35.3,52.2c-17,17.9-20.7,23.4-19.2,27.8c1.3,3.7,7,6.4,16,7.7
	c6.8,1,7.5,1.3,8.4,3.8c0.5,1.5,2.1,3.5,3.6,4.5c2.4,1.6,3,1.6,10.1-0.1c5.8-1.4,8.1-1.5,10-0.7c3.4,1.6,6.1,6.6,6.9,12.6
	c1.2,9.3,0.8,8.9,8.6,8.2c10-1,17.2-3.1,26.8-7.7c21.7-10.3,40.3-28.8,67.3-66.8c16-22.5,18.6-25.7,36.2-45.1
	c21.6-23.8,24.6-28.3,29.7-43.9c4.6-14.2,6.1-17.1,13.4-25.6s10.9-13.5,10.2-14.1c-0.3-0.3-5.3-1-11.1-1.6l-10.6-1.1v-6.6
	c0-21.5,15.4-38.5,39.5-43.6c12.2-2.6,38.9-1.3,40.1,1.9c0.2,0.6,1,5.3,1.7,10.5l1.2,9.5l9.8-11.7c5.3-6.4,9.7-12.2,9.7-13
	c0-0.8-0.8-2.2-1.9-3.1c-3.6-3.3-4.5-9.4-3.1-22l1.2-11.4l17.3-9.2l17.2-9.1l-0.5-11.2c-0.2-6.2,0.1-14.5,0.7-18.7
	c2.5-16.4,10-34.9,19.6-48.6c2.5-3.6,4.5-7.3,4.5-8.4c0-2.6-11.6-10.1-21.4-13.7c-8.2-3-15.3-4.2-24.6-4.3c-21.4,0-36.5,8-51.1,27.1
	c-3.2,4.3-7.4,9-9.3,10.4c-5.8,4.4-14,6.6-24.6,6.7c-15.5,0-23.6-2.5-56.5-17.7c-18.3-8.4-27.6-11.8-35.3-13
	c-3.6-0.6-4.5-1.2-6.1-4.3c-1.1-2.1-4.8-7.4-8.4-11.9c-11.5-14.6-12.5-17.2-15.1-40.4c-1.8-15.6-3.5-21.8-7.7-27.2
	c-2.5-3.1-2.7-3.8-1.5-4.3c2.6-1,1.8-2.9-2.8-7.2c-4.3-4-5.4-4.3-15.6-5.4c-1.8-0.2-2.6-1.1-3-3.3c-2.2-10.6-12-17.5-24.9-17.5
	c-5.8,0-5.8,0-5.3,2.6c0.3,1.5,2.5,5.4,4.9,8.8c7.3,10.3,7.7,11.7,6.4,21.9c-1.3,9.8-0.7,12,5.7,22.1c2.3,3.5,3.2,6.2,3.2,9
	c0,4.7-0.6,5.8-3.8,7.5c-1.9,1-2.8,1-4.7-0.3c-3.1-2.1-4-3.8-5.5-11.1c-0.9-4.3-2.1-6.8-4.4-9.1c-3-3-8.7-5.4-12.8-5.4
	c-2.4,0-2.3-0.7,1.8-11c2-5,3.5-9.3,3.3-9.5c-0.4-0.4-18.1,1.3-21.6,2.1c-1.3,0.2-2.3,1-2.3,1.7c-0.1,0.6,3.7,4.7,8.2,9
	c7.2,6.7,7.9,7.7,5.3,7.1c-11.7-2.6-28.4-16.5-33.6-27.9c-3.8-8.2-1.9-18.6,4.8-25.6l2.5-2.7l-3.5-7.5
	c-6.4-13.9-14.4-23.7-22.3-27.5c-3.1-1.4-3.4-1.9-3.4-6.1c-0.1-6.5-3.2-13-7-14.4c-3.5-1.3-3.9-2.7-0.7-2.7c1.2,0,3.2-0.3,4.4-0.6
	c2-0.5,2.2-0.2,2.5,3.7l0.3,4.4l8,0.3l8,0.3l-5-4.5c-2.7-2.5-6.3-5.1-7.8-5.8c-2.2-1-5.7-6.1-5.7-8.3c0-0.2,2.2-0.8,5-1.5
	c5.7-1.4,5.7-1.5,1.4-12.4c-8-20-24.1-31.7-38.1-27.7c-2.8,0.8-3.4,0.5-6.7-2.8c-2-2-3.6-4-3.6-4.3c0-0.4,2-0.8,4.5-1l4.6-0.3
	l-3.3-5.4c-5.8-9.6-16.7-15.3-41.2-21.7c-7.2-1.8-13.2-3.4-13.3-3.4c-0.2,0-0.3,1.6-0.3,3.5c0,3.4-0.1,3.5-3.7,3.5h-3.8l2.9-2.4
	c2.9-2.3,3-2.4,1.5-6.2c-0.8-2.2-2.7-4.5-4.2-5.4c-2.4-1.3-3-1.3-5.4,0c-2.5,1.4-6.4,5.9-10.4,12l-1.6,2.5l-2.7-5.2
	c-3.7-7.4-12.9-20.7-19.3-28.1l-5.5-6.2h3.1c2.4,0,3.2-0.5,3.7-2.6c0.9-3.6-0.2-9.3-2.3-11.7C624.7,26.7,616.5,24.6,615.4,27.4z
	 M918,355.5c1.4,0.8,2.1,1.4,1.5,1.4c-0.5,0-2.1-0.6-3.5-1.4c-1.4-0.8-2-1.4-1.5-1.4C915.1,354.1,916.6,354.7,918,355.5z"/>
<path class="st0" d="M845.9,196.3c-7.1,4.8-6.5,11.8,1.9,20.8c6.3,6.8,14.7,13,16.7,12.3c2-0.8,2.4-3.6,1.5-11.2
	C863.8,198.1,855.9,189.5,845.9,196.3z"/>
<path class="st0" d="M816.6,207.7c-0.9,2.2,3,7.1,6.2,7.7c3.1,0.7,14.6-2.8,12.2-3.7c-0.8-0.3-5.2-1.7-9.7-3
	C818.3,206.6,817.1,206.4,816.6,207.7z"/>
<path class="st0" d="M799.6,228.1c-1.4,1.7-2.6,3.6-2.6,4.3c0,4.1,6.9,6.9,10.5,4.3c1.9-1.5,1.9-1.5-0.5-6.6
	c-1.3-2.8-2.9-5.1-3.6-5.1S801,226.4,799.6,228.1z"/>
<path class="st0" d="M885.4,245.1c-4.6,1.3-4.8,3.3-1,7.4c2.9,3,4,3.5,8,3.5c2.5,0,4.6-0.5,4.6-1c0-0.6-1.1-3.3-2.5-6
	C891.8,243.8,891.1,243.4,885.4,245.1z"/>
<path class="st0" d="M946.2,350.6c-4.7,3.2-1.7,10.4,4.4,10.4c3.8,0,5.4-1.6,5.4-5.5C956,349.9,950.9,347.3,946.2,350.6z"/>
<path class="st0" d="M996,378.3c0,1.7,1.2,2.2,7.3,3.3c2.9,0.5,3.7,0.3,3.7-0.9c0-0.9-1.4-1.7-3.9-2.1c-2.2-0.3-4.6-0.9-5.5-1.2
	C996.6,377,996,377.3,996,378.3z"/>
<path class="st0" d="M580.5,648c-0.4,1.1-0.4,3.4,0,5c0.6,2.8,0.5,3-2.5,3c-8.2,0-25.7,9.8-34.9,19.4c-8,8.6-9.6,13-9.1,25.1
	c0.9,24,0.7,28.6-2.2,34.1c-5.3,10.1-19.8,25.9-28.3,31c-2.3,1.3-7.9,3.5-12.4,4.8c-17,5-21.7,11.4-29.2,40.1
	c-6.6,25.4-17.2,43.7-36.9,63.6c-12.7,12.8-17.9,16.3-34.6,23c-21.6,8.5-27.2,12.2-53.2,35.1c-14.3,12.6-26.8,22.1-34,25.7
	c-3.1,1.6-12.7,5.2-21.2,8c-17.8,6-22.1,8.2-37.7,19.7c-17.9,13-19.6,13.7-39.3,14.4c-19.8,0.7-20,0.8-32.5,13.3
	c-4.9,4.9-10.4,10-12.2,11.4c-2.8,2.1-3.1,2.8-2.2,4.9c0.5,1.4,0.9,2.7,0.9,2.9s-1.9,0.9-4.2,1.5c-7.1,1.9-12.7,5.8-24.3,17
	c-6,5.8-15.1,13.4-20.2,16.8c-9.2,6.2-12.2,9.3-14.8,15.6c-1.1,2.6-2.2,3.6-4.7,4.1c-15.2,3.4-31,19.5-31,31.6
	c0,7.4,3.2,11.5,11.7,15.1l4,1.7h-6.2c-3.5,0.1-6.3,0.3-6.3,0.6c0,0.4,0.7,2,1.6,3.6c0.8,1.7,1.4,3.3,1.2,3.5c-0.3,0.2-7.7-2-16.5-5
	l-16-5.4l-5.9,16.6l-5.9,16.5l-3.3,0.3c-7.1,0.8-12.2,5.7-13.5,13.1c-0.6,3.3-0.6,3.3,3.6,3.4c3.6,0.1,3.8,0.2,1.7,0.9
	c-1.4,0.4-4.2,0.8-6.4,0.9l-3.9,0.1l0.6,5.7c0.4,3.2,1,9.3,1.3,13.5c0.4,4.3,0.7,7.8,0.8,7.8c0,0,3-0.9,6.5-2s6.6-1.9,6.8-1.7
	c0.2,0.2-0.4,2.3-1.2,4.7c-2,5.6-1.9,5.8,1,5.2c1.4-0.2,4-0.1,5.9,0.2c3.3,0.6,3.4,0.8,2.6,3.7c-1.4,5,0.9,9.2,6.1,11.4
	c3.6,1.4,8.9,2,27.9,2.6c25.5,0.9,26.2,0.9,36.4-4.5c7-3.7,14.5-4.2,18.9-1.4c1.4,1,5.1,5.2,8.1,9.3c8.3,11.1,12.2,12.6,25.8,9.4
	c6.1-1.4,10.8-2,14.2-1.6c6.3,0.7,21.8,5.8,22.3,7.4c0.2,0.6-2.4,2-6.1,3.3c-6.1,2-6.6,2.4-6.6,5.1c0,1.6,0,3.2-0.1,3.6
	c0,0.5,2.8,1.6,6.3,2.5c8.3,2.2,27,2.3,40.1,0.2c5.6-0.9,10.3-1.2,10.4-0.8c1.1,3.2,4.7,7.6,7.5,9c5.8,3,13.9,2.9,30.3-0.5
	c27-5.5,41.7-10.7,58.3-20.6c18.4-10.8,38.3-28,44.7-38.5c6.6-10.9,9.5-12.5,28-15.6c5.5-0.9,11.1-2.2,12.5-2.9
	c5.3-2.8,9-8.7,9-14.5v-2.9l-5.7,2c-3.1,1-6.2,1.9-6.9,1.9c-0.8,0,0.3-3.5,3.1-10c13.8-31.1,25.6-50.1,40-64.3l6.8-6.8l0.8-16.4
	c1.2-22.5,3.8-34.7,10.2-46.8c5.2-9.9,10.9-13.8,33.3-23c6.1-2.5,16.9-7.4,24-11c16.3-8.1,29.1-13.3,37.8-15.1
	c3.7-0.7,6.8-1.5,7-1.7c0.1-0.2,0.8-2.3,1.5-4.6c2.4-8.6,8.1-8.3,28.6,1.7c8,3.9,15.8,7.3,17.4,7.6l3,0.6l0.3-5.8l0.3-5.9l1.9,5.7
	c2.5,7.4,4.8,7.7,10.1,1.5c12.7-14.6,6.4-24.6-19.9-31.2l-9.1-2.3l-0.7-4.3c-2-13.3,0.1-23.2,6.5-30.5c4.4-5,8.5-7.3,23.7-13.3
	c17.9-7,23.3-12.5,35.1-35.6c4-7.7,9.7-17.2,12.8-21c3.1-3.9,15.5-17.1,27.6-29.5c12.2-12.4,25-26.1,28.5-30.5
	c6.3-8,15.4-21.5,14.8-22c-0.2-0.2-3.3-1.9-7-3.9l-6.7-3.7l-4-12.1c-2.2-6.7-4-12.2-3.8-12.3c0.1-0.1,7.5-7,16.5-15.5
	c16.2-15.2,16.3-15.3,14.4-17.3c-1.9-1.9-2.1-1.9-7.3-0.2c-3,1-6.1,2-6.9,2.3c-0.8,0.2,0.9-1.7,3.8-4.2c2.8-2.6,5.2-5.1,5.2-5.5
	c0-2.1-8.8-4.6-16-4.5c-8.5,0.1-15.7,2.4-26,8.5c-9,5.2-10.1,6.1-10.3,8.6c-0.1,2-0.3,2.1-2.2,0.9c-1.1-0.7-4.6-2.8-7.8-4.6
	c-6.4-3.6-6.9-4.5-1.6-3c5.2,1.6,10.5,0.3,14.4-3.5c1.9-1.8,3.5-3.7,3.5-4.2c0-0.6-2.6-2.2-5.7-3.5l-5.8-2.6l4.1-1.1
	c6.9-1.9,12.2-6.5,15.5-13.4c4.3-9.2,4.2-9.5-3.7-8.5c-7.7,0.9-12,3.1-15.2,7.8c-3,4.4-5.5,13.1-4.2,14.4c0.7,0.7-0.8,1.8-4.3,3.5
	c-4.5,2.3-5.2,3-5.5,5.8c-0.3,3.2-0.4,3.2-2.8,1.7c-2.3-1.6-2.7-1.4-12.4,5.2c-20.9,14.3-23.8,15.8-29.3,15.9
	c-4.7,0-5.2-0.2-7.1-3.5c-1.9-3.2-2.1-5.4-2.4-23.5c-0.3-13.8-0.7-20.2-1.5-20.7c-0.7-0.5-6-0.5-11.8-0.2l-10.7,0.7l-4.2-3.9
	c-3.2-3-4.3-4.8-4.7-8.1c-0.5-3.8-0.2-4.5,2.6-7.4l3.2-3.2l11.5,0.6l11.5,0.6l-0.3-3.7l-0.3-3.7l-22.2-0.3
	C581.8,646,581.1,646,580.5,648z M708.7,721.7c-3.9,1.7-3.7,1.8-3.7-2.2v-3.4l3.3,2.2l3.4,2.2L708.7,721.7z M43.3,1166
	c-5.2,3-8.5,7.3-7.6,9.8c0.3,0.8,1.9,2.2,3.7,3.3l3.1,1.9h-3.7c-2.1,0-4.1,0.1-4.5,0.2c-0.4,0.2-1.1-1.3-1.6-3.2
	c-1.1-4.4-4.2-8.7-6.8-9.5c-3.2-1.1-1.6-1.7,8.9-3.6C48.5,1162.5,49.2,1162.6,43.3,1166z"/>
<path class="st0" d="M42.4,1118.3c-1.1,1.3-3.5,11.8-2.8,12.8c0.3,0.6,14.5,5.9,15.7,5.9c0.2,0-0.2-4.2-0.9-9.3
	c-0.7-5-1.3-9.5-1.4-10C53,1116.5,43.6,1117,42.4,1118.3z"/>
</svg>
