<?xml version="1.0" encoding="utf-8"?>
<!-- Generator: Adobe Illustrator 28.0.0, SVG Export Plug-In . SVG Version: 6.00 Build 0)  -->
<svg version="1.1" id="funkei" xmlns="http://www.w3.org/2000/svg" xmlns:xlink="http://www.w3.org/1999/xlink" x="0px" y="0px"
	 viewBox="0 0 450 450" style="enable-background:new 0 0 450 450;" xml:space="preserve">
<style type="text/css">
	.st0{fill:#B69C64;stroke:#555555;stroke-width:50;stroke-miterlimit:10;}
	.st1{fill:#6E92A1;}
	.st2{fill:#A57C52;}
	.st3{fill:#B69C64;}
</style>
<path class="st0" d="M60,204.2c-0.3-14.7,0-69.7,37.7-117.9C145.7,25,215,24.8,227.2,25c16.4,0.3,71.8,3.9,116.2,52.8
	c47.6,52.3,46.9,117.4,46.6,129c-11.8,55.5-23.7,111-35.6,166.5c-1.3,8.1-7.6,40.6-29.6,49.7c-1.8,0.7-3.8,1.4-6,1.8
	c-32.9,0-65.7,0.1-98.6,0.1c-32.5,0-64.9-0.1-97.4-0.1c-1.2-0.4-3.2-1.1-5.5-2.3c-19.2-10.4-23.4-39.9-25.3-52
	C87,337.8,75.2,280.5,60,204.2z"/>
<path class="st1" d="M60,204.2c-0.3-14.7,0-69.7,37.7-117.9C145.7,25,215,24.8,227.2,25c16.4,0.3,71.8,3.9,116.2,52.8
	c47.6,52.3,46.9,117.4,46.6,129c-11.8,55.5-23.7,111-35.6,166.5c-1.3,8.1-7.6,40.6-29.6,49.7c-1.8,0.7-3.8,1.4-6,1.8
	c-32.9,0-65.7,0.1-98.6,0.1c-32.5,0-64.9-0.1-97.4-0.1c-1.2-0.4-3.2-1.1-5.5-2.3c-19.2-10.4-23.4-39.9-25.3-52
	C87,337.8,75.2,280.5,60,204.2z"/>
<path class="st2" d="M125.2,399.3c28.3,4.2,62.2,7.3,100.6,7.3c34.2,0,64.8-2.5,90.9-5.9c-34.6-84.8-42.6-124.1-40.8-142.6
	c0.1-1,0.6-5.8-2.3-10.8C259.7,224,184.8,223.4,172,245c-3,5.1-1.9,10.2-1.7,11.3C173.9,274.8,166.1,314,125.2,399.3z"/>
<circle class="st2" cx="225" cy="183.5" r="110.1"/>
<polygon class="st3" points="165,364.3 220.7,147.3 229.2,147.3 285,364.3 "/>
<circle class="st3" cx="225" cy="183.5" r="61.2"/>
</svg>
