<?xml version="1.0" encoding="utf-8"?>
<!-- Generator: Adobe Illustrator 27.0.1, SVG Export Plug-In . SVG Version: 6.00 Build 0)  -->
<svg version="1.1" id="レイヤー_1" xmlns="http://www.w3.org/2000/svg" xmlns:xlink="http://www.w3.org/1999/xlink" x="0px"
	 y="0px" viewBox="0 0 700 180" style="enable-background:new 0 0 700 180;" xml:space="preserve">
<style type="text/css">
	.st0{fill:#B50000;}
	.st1{fill:#FFFFFF;}
	.st2{fill:#00740C;stroke:#FFFFFF;stroke-width:0.8;stroke-miterlimit:1.6;}
	.st3{fill:#FFFFFF;stroke:#B50000;stroke-width:0.8;stroke-miterlimit:1.6;}
	.st4{fill:#FDFDFD;}
	.st5{fill:#FEFEFE;}
	.st6{fill:#B91212;}
	.st7{fill:#C33434;}
	.st8{fill:#FEFDFD;}
	.st9{fill:#FDF9F9;}
	.st10{fill:#FDFBFB;}
	.st11{fill:#FDFCFC;}
	.st12{fill:#FCF8F8;}
	.st13{fill:#B91111;}
	.st14{fill:#FCF6F6;}
	.st15{fill:#BB1717;}
	.st16{fill:#F9ECEC;}
	.st17{fill:#B80F0F;}
	.st18{fill:#FDFAFA;}
	.st19{fill:#FAF1F1;}
	.st20{fill:#FAF2F2;}
	.st21{fill:#BC1B1B;}
	.st22{fill:#C02929;}
	.st23{fill:#F4DDDD;}
	.st24{fill:#FBF4F4;}
	.st25{fill:#F6E2E2;}
	.st26{fill:#F9EEEE;}
	.st27{fill:#F6E5E5;}
	.st28{fill:#F7E5E5;}
	.st29{fill:#EDC5C5;}
	.st30{fill:#F2D6D6;}
	.st31{fill:#FAF0F0;}
	.st32{fill:#BC1E1E;}
	.st33{fill:#F6E4E4;}
	.st34{fill:#F6E3E3;}
	.st35{fill:#E3A2A2;}
	.st36{fill:#F8EAEA;}
	.st37{fill:#F8EBEB;}
	.st38{fill:#F2D5D5;}
	.st39{fill:#ECC1C1;}
	.st40{fill:#FCF7F7;}
	.st41{fill:#BE2525;}
	.st42{fill:#EBBFBF;}
	.st43{fill:#F9EDED;}
	.st44{fill:#F5E0E0;}
	.st45{fill:#EABCBC;}
	.st46{fill:#EDC7C7;}
	.st47{fill:#CB5050;}
	.st48{fill:#F3D9D9;}
	.st49{fill:#C12D2D;}
	.st50{fill:#FAF3F3;}
	.st51{fill:#BA1515;}
	.st52{fill:#BD1E1E;}
	.st53{fill:#C64040;}
	.st54{fill:#C43939;}
	.st55{fill:#C53D3D;}
	.st56{fill:#C12F2F;}
	.st57{fill:#BC1D1D;}
	.st58{fill:#BF2424;}
	.st59{fill:#BF2828;}
	.st60{fill:#CC5555;}
	.st61{fill:#BF2727;}
	.st62{fill:#E9B6B6;}
	.st63{fill:#EEC6C6;}
	.st64{fill:#CA4C4C;}
	.st65{fill:#BA1616;}
	.st66{fill:#F3DADA;}
	.st67{fill:#F0D1D1;}
	.st68{fill:#BF2525;}
	.st69{fill:#E8B3B3;}
	.st70{fill:#C22F2F;}
	.st71{fill:#BE2222;}
	.st72{fill:#C12E2E;}
	.st73{fill:#F7E6E6;}
	.st74{fill:#D36C6C;}
	.st75{fill:#C84747;}
	.st76{fill:#CB5151;}
	.st77{fill:#BF2626;}
	.st78{fill:#B60505;}
	.st79{fill:#B60808;}
	.st80{fill:#D16666;}
	.st81{fill:#F5E1E1;}
	.st82{fill:#BB1919;}
	.st83{fill:#BD2020;}
	.st84{fill:#E09999;}
	.st85{fill:#E4A6A6;}
	.st86{fill:#C43737;}
	.st87{fill:#BB1616;}
	.st88{fill:#BD2121;}
	.st89{fill:#DA8383;}
	.st90{fill:#D16363;}
</style>
<g id="layer">
	<g id="background">
		<rect x="0" y="0" class="st0" width="700" height="180"/>
	</g>
	<g id="skeleton">
		<path class="st1" d="M123.4,98.9c-0.2-0.1-3.9-2.1-7.5-0.1c-2.7,1.5-3.5,4.2-3.6,4.7c1.7,1.8,2.3,3.2,2,4.4
			c-0.9,3-8.7,4.1-23.2,3.1c-2.4-2.4,0.8-5.2-0.4-7.1c-1-1.7,2.6-0.9,3.3-2.1c1.2-2.6-2-5.3-2.6-7.5c-6-2.5-1.9-4.6,0.6-8
			c2-4.1-1.1-6.5,1.5-10.2c3.3-6,4.8-14,10.7-18.8c13-9.7,34.3-14.3,48-3.8c14.2,9.2,19,33.6,9.7,45.8c-5.1,5.2-12.1,4.8-18,8.1
			c-3,1.1-4.6,5.1-7,2.2c-0.5-1.4-1.3-3.3-2.8-5.1C130.2,100.1,125,99.2,123.4,98.9z"/>
		<path class="st1" d="M128.8,108.7c1.3,11-1.9,14.3-12.1,17.6c-7.1,2.3-16.9,8.6-24.4,5.2c-5.6-4.2,1.5-9,0.8-12.5
			c1.4,0.1,2.9,0,4.5-0.1c7.4-0.6,13.3-3.3,17.2-5.7c-0.2-9.4,0.2-14.1,1.3-14.3c0.6-0.1,1.5,1.2,2.5,4c5.3,7.4,9.6-7.9,11.3-2.8
			C129.6,100.6,128.8,106.1,128.8,108.7z"/>
		<path class="st0" d="M127,100.3c-7.7,13.1-10-5.2-11.4-0.5c0,5.8,2.9,15-2.8,18.6c0.3-1.7,3.6-3.6,2.2-5.5
			c-0.6-1.2-1.2-2.4-1.8-3.7c1.6-2-0.9-5-2.2-6.5c-0.7,0.4-1.5,0.7-2.2,1.1c-1.5,0.1-2.8,0.9-4.5,0.8c-2.8-0.1-2.1-3.6-4.2-4.7
			c-0.6-0.8-4.2-2.7-2.7-3.4c1.2,1.7,3.5,2.8,4.8,4.6c0.1,1.3,0.9,2.4,1.9,2.7c0.6,0.2,1.2,0.1,1.5,0
			C114.8,102.5,115.5,92.5,127,100.3z"/>
		<path class="st0" d="M103.5,86.8c0.5,1.8,0.4,3.2,0.3,3.5c-0.4,3.2-2.9,6.3-4.5,6C97.9,96,97,92.6,97.2,88
			c-0.4-1.8-1.9-4.5-1.4-6.4C96.7,76.8,103,84.9,103.5,86.8z"/>
		<path class="st0" d="M113.5,94.8c8-1.1,15.7,1.5,17.2,1.2c0.1,0,0.5-0.1,0.6,0.1c0.1,0.1,0.1,0.3-0.1,0.6
			c-7.5,1.7-15-2.7-22.2-0.2c-4.6,0.1-0.9-7.6-2.8-10.6c-2.6-5.9-4.6-9.8,1.3-14.5c0.2-0.2,0.7-0.3,0.8-0.2c0.3,0.4-2.4,2.3-3.5,4.9
			c-1.7,4.5,3.2,6.9,2.7,14.4c-0.1,1.8-0.5,3.3,0.5,4.3C109.1,95.9,110.7,95.2,113.5,94.8z"/>
		<path class="st2" d="M123.9,53.3c1.3,4.5-0.2,6.2,1.1,10.5c1.3,4.2,4.2,7,6.5,8.8c-1-6.4-0.5-13.5,2.6-19.4
			c0.4-1.1,1.6-0.9,1.1,0.3c1.2,4.3,3.9,8.4,4.6,13.1c2.5,7-0.9,14.4,3.7,20.6c0.1,2,2.6,10.9,2.7,6.7c-2-7.5-0.9-15.8,4.3-21.6
			c3.3-2.7,1,4.3,1.5,6.1c2.3,8.2,4.8,16.9,2.1,25.4c-0.3,1.9,0.6,5,2.9,4.8c-0.2-5-1.6-10.8,0.5-15.9c0.7-1.8,5.6-8.9,5.1-3.7
			c-0.3,3.9,2.3,7.1,3.8,10.5c0.9,12-5.3,23-3,35c1,8.4-1.8,1-2.8-2.1c-1.5-2.6-4.5-3.6-5.9-6.4c-1.7-4.2-5.8-3-9.4-2.9
			c-1.9-1.3-12.1-1.2-6.8-4c11.7-10.4,22.3-4.1,12.8-12.1c-4.2-1.1-8.7,1-13,0.3c-3.9-1.6-8.2-3.9-11.9-0.2
			c-4.6,3.2,0.7-9.1,3.1-9.4c5.4-3.4,11.3-1.1,16.1,1.7c-0.5-0.9-3.3-2-1.8-3.1c1.7-1.8-7.2-4.7-8.5-6.9c-10,0.3-16.8-7.5-22.1-15.2
			c-1.8-4.4,11.2,1.9,10.8-0.4c-1.6-2.6,2.3-0.6,3.1-1.5c-0.3-0.7-0.9-1.8-2-2.8c-3.3-3.1-6.9-1.9-12.2-3.2c-7.3-1.8-8-5.6-13.7-6.1
			c-2-0.2-4.4,0.4-7.6,2.4c-3.4,1.6-10.1,2.3-12.8-0.4c1.7-1,10.8-8,7.3-9.8c-3.4-2.5-6.1-6.1-8.1-9.7c0.9-1,3.2,1,4.7,0.3
			c5.1,0.5,10.6-0.6,15.1,2.3c1.2,0.2,5.7,4.3,5.3,1.4c-2.1-9.6,4.1-0.9,9.1,0c1.9,0.4,4.5,4.4,3.2-3.9
			C116.8,42.1,122.1,47.1,123.9,53.3z"/>
		<g id="tooth">
			<path class="st3" d="M113,114.9c-1.7,1.6-4.1-0.7-2.7-2.5C112.8,111.9,117.1,111.8,113,114.9z"/>
			<path class="st3" d="M109.8,116.4c-2,2-4.2-2.4-1.5-2.8C110,112.5,111.4,115.5,109.8,116.4z"/>
			<path class="st3" d="M105.3,114.1c4.3-2,1.2,6.5-1.2,2.6C103.6,115.2,103.8,114.4,105.3,114.1z"/>
			<path class="st3" d="M103,114.8c0.1,0,0.2,0.1,0.3,0.1c0.6,0.4,0.6,1.3,0.6,1.4c0,1.1-0.7,2.1-1.9,2
				C99.2,114.3,101.5,116,103,114.8z"/>
			<path class="st3" d="M99.5,118.5c-0.8-0.9-1.4-2.2-0.8-3.4c0.4,0.2,0.8,0.4,1.2,0C100.9,114.6,101.6,120.1,99.5,118.5z"/>
			<path class="st3" d="M97,115.3c0.7,0.2,0.9-0.4,1.2-0.8c0.3,1.3,1.3,3.9-0.1,4.7C96.5,119.8,96,115.9,97,115.3z"/>
			<path class="st3" d="M95.5,119.3c-1.4,0.1-0.9-2-1.6-2.9c-0.2-0.9,0.7-0.8,1.2-1.2c0.2-0.3,0.4-0.6,0.8-0.5
				C96.8,116,97.1,118.7,95.5,119.3z"/>
			<path class="st3" d="M93.1,114.8c0.8,0.8,1.6,3.1,0.8,3.9C92.3,119.8,90.8,114.4,93.1,114.8z"/>
			<path class="st3" d="M113.2,109.2c2.2,2.7-2.8,5-3.3,1.8C109.3,109.3,112.6,107.9,113.2,109.2z"/>
			<path class="st3" d="M108.9,110.2c2.5,0.2,1.2,4.1-1.4,3.5c-0.7-0.6-0.7-2.7-0.3-3.2C107.8,110.6,108.4,110.5,108.9,110.2z"/>
			<path class="st3" d="M106.6,110.4c1.2,1.6,0.8,3.8-1.6,3.9C101.4,115.1,102.2,109.4,106.6,110.4z"/>
			<path class="st3" d="M102.7,112.1c0.6,1.3,0.6,3.8-1.4,3.1C99.2,114,101.2,108.9,102.7,112.1z"/>
			<path class="st3" d="M99.6,111.2c1.6,0.4,1.2,5.4-0.7,3.8C98.4,114.1,97.9,110.8,99.6,111.2z"/>
			<path class="st3" d="M96.1,115c-0.9-1.4-0.6-5.9,1.7-3.7C99,112,98.2,116.1,96.1,115z"/>
			<path class="st3" d="M94.1,110.4c2.5,0.6,2.1,7.1-0.9,4.7C92.3,113.7,92.6,111.1,94.1,110.4z"/>
			<path class="st3" d="M93.2,111.3c-0.6,0.8,0.1,2.9-0.7,3.3C89.4,117.4,90.8,106.5,93.2,111.3z"/>
		</g>
	</g>
	<g>
		<path class="st1" d="M217.4,57.6c0,1.2-0.2,2.3-0.7,3.2c-0.5,0.9-1.1,1.7-2,2.3c-0.8,0.6-1.7,1.1-2.7,1.3c-1,0.3-2.1,0.4-3.2,0.4
			h-2.6V72c0,0.4,0.1,0.7,0.2,1c0.1,0.3,0.4,0.5,0.8,0.7c0.2,0.1,0.5,0.1,1,0.2c0.5,0.1,1,0.1,1.4,0.1v1.2h-10V74
			c0.3,0,0.6-0.1,1.1-0.1c0.5-0.1,0.8-0.1,1-0.2c0.3-0.1,0.6-0.3,0.7-0.6c0.1-0.3,0.2-0.6,0.2-1.1V55.2c0-0.4-0.1-0.7-0.2-1
			c-0.1-0.3-0.4-0.5-0.8-0.7c-0.4-0.1-0.8-0.2-1.2-0.3c-0.4-0.1-0.8-0.1-1.1-0.1v-1.2h10.6c2.2,0,3.9,0.5,5.3,1.6
			C216.7,54.5,217.4,55.8,217.4,57.6z M212.4,61.6c0.4-0.5,0.6-1.1,0.7-1.6c0.1-0.6,0.2-1.1,0.2-1.5c0-0.6-0.1-1.3-0.2-1.9
			c-0.1-0.6-0.4-1.2-0.8-1.7c-0.4-0.5-0.9-0.9-1.5-1.2s-1.4-0.4-2.3-0.4h-2.3v10.3h1.7c1.2,0,2.1-0.2,2.9-0.6S212.1,62.1,212.4,61.6
			z"/>
		<path class="st1" d="M241.8,75.1h-9.7V74c0.9-0.1,1.6-0.2,2.1-0.3c0.6-0.2,0.8-0.4,0.8-0.6c0-0.1,0-0.2,0-0.4
			c0-0.1-0.1-0.3-0.1-0.4l-1.9-5.2h-8.2c-0.3,0.8-0.6,1.4-0.7,2c-0.2,0.6-0.4,1.1-0.5,1.6c-0.1,0.5-0.2,0.9-0.3,1.2
			c-0.1,0.3-0.1,0.5-0.1,0.7c0,0.4,0.3,0.8,1,1c0.7,0.2,1.5,0.4,2.3,0.4v1.2h-8.8V74c0.3,0,0.6-0.1,1.1-0.2c0.4-0.1,0.8-0.2,1.1-0.4
			c0.4-0.3,0.8-0.6,1-0.9c0.2-0.3,0.5-0.8,0.7-1.3c1.2-2.9,2.5-6.2,3.9-9.8c1.4-3.6,2.7-6.9,3.8-9.7h1.3l7.8,20.1
			c0.2,0.4,0.3,0.8,0.6,1s0.5,0.5,0.9,0.8c0.3,0.2,0.6,0.3,1,0.4c0.4,0.1,0.7,0.2,1,0.2L241.8,75.1L241.8,75.1z M232.4,65.6l-3.5-9
			l-3.5,9H232.4z"/>
		<path class="st1" d="M264.9,75.1H254V74c0.9,0,1.6-0.1,2.2-0.3c0.6-0.1,0.8-0.4,0.8-0.7c0-0.2-0.1-0.5-0.4-1s-0.6-1.1-1-1.7
			c-0.4-0.7-1-1.5-1.6-2.5c-0.6-0.9-1.2-1.8-1.8-2.7c-1,1.3-2.1,2.8-3.3,4.6c-1.2,1.8-1.8,2.8-1.8,3.2c0,0.4,0.2,0.6,0.5,0.8
			c0.3,0.2,1.1,0.3,2.2,0.3v1.2h-8.7v-1.2c0.3,0,0.6-0.1,1.1-0.1c0.4-0.1,0.8-0.2,1.1-0.3c0.6-0.3,1-0.6,1.4-1
			c0.3-0.4,0.7-0.8,1-1.3c0.7-1,1.6-2.2,2.7-3.6c1.1-1.4,2.1-2.7,2.9-3.9c-0.6-0.9-1.4-2.1-2.4-3.5c-1-1.4-2-3-3.2-4.6
			c-0.5-0.7-0.8-1.2-1.1-1.5c-0.3-0.3-0.6-0.5-1.1-0.7c-0.3-0.1-0.6-0.2-1.1-0.3s-0.8-0.1-1.1-0.1v-1.1h10.8V53
			c-0.6,0-1.3,0.1-2,0.2c-0.7,0.1-1,0.3-1,0.6c0,0.2,0.1,0.6,0.4,1.1c0.3,0.5,0.6,1.1,1,1.7c0.4,0.6,0.8,1.3,1.3,2
			c0.5,0.7,1,1.6,1.7,2.6c1.2-1.7,2.3-3.2,3.2-4.5c0.9-1.3,1.3-2.2,1.3-2.6c0-0.3-0.2-0.6-0.6-0.8c-0.4-0.2-1.1-0.3-2.1-0.3v-1.2
			h8.7V53c-0.3,0-0.6,0-1.1,0.1c-0.4,0.1-0.8,0.2-1.1,0.3c-0.6,0.3-1,0.6-1.3,0.9c-0.3,0.3-0.6,0.8-1.1,1.4
			c-0.9,1.1-1.7,2.2-2.4,3.2c-0.7,1-1.6,2.2-2.7,3.6c0.9,1.2,1.8,2.7,2.9,4.2c1.1,1.6,2.1,3.1,3.1,4.5c0.3,0.5,0.7,1,1.2,1.4
			s0.8,0.7,1.1,0.9c0.3,0.2,0.6,0.3,1.1,0.3c0.4,0,0.8,0.1,1.1,0.1V75.1z"/>
		<path class="st1" d="M289.1,64.4c0.5,0.6,0.9,1.1,1.1,1.8c0.2,0.6,0.3,1.4,0.3,2.3c0,2.1-0.8,3.8-2.3,5.1c-1.5,1.3-3.4,2-5.7,2
			c-1,0-2.1-0.2-3.1-0.5c-1-0.3-1.9-0.7-2.7-1.2l-0.7,1.2h-1.3l-0.2-8h1.3c0.3,1,0.6,1.9,1,2.7c0.4,0.8,0.9,1.5,1.5,2.2
			c0.6,0.6,1.2,1.2,2,1.5c0.8,0.4,1.6,0.6,2.7,0.6c0.8,0,1.4-0.1,2-0.3c0.6-0.2,1-0.5,1.4-0.8c0.3-0.4,0.6-0.8,0.8-1.3
			c0.2-0.5,0.3-1,0.3-1.7c0-0.9-0.3-1.8-0.8-2.6c-0.5-0.8-1.3-1.4-2.4-1.8c-0.7-0.3-1.5-0.6-2.4-0.9s-1.7-0.7-2.4-1
			c-1.3-0.6-2.3-1.4-3.1-2.3c-0.7-1-1.1-2.2-1.1-3.7c0-0.9,0.2-1.7,0.5-2.5c0.4-0.8,0.9-1.5,1.5-2.1c0.6-0.6,1.4-1,2.2-1.3
			c0.9-0.3,1.8-0.5,2.7-0.5c1.1,0,2,0.2,2.9,0.5s1.6,0.7,2.3,1.2l0.7-1.1h1.3l0.1,7.7h-1.3c-0.2-0.9-0.5-1.7-0.8-2.5
			c-0.3-0.8-0.7-1.5-1.2-2.2c-0.5-0.6-1-1.1-1.7-1.5c-0.7-0.4-1.5-0.6-2.5-0.6c-1,0-1.9,0.3-2.7,1c-0.7,0.7-1.1,1.5-1.1,2.4
			c0,1,0.2,1.8,0.7,2.5c0.5,0.7,1.2,1.2,2.1,1.6c0.8,0.4,1.6,0.7,2.4,1c0.8,0.3,1.5,0.6,2.2,0.9c0.7,0.3,1.3,0.6,1.9,1
			C288.1,63.6,288.7,64,289.1,64.4z"/>
		<path class="st1" d="M315.2,75.1h-9.7V74c0.9-0.1,1.6-0.2,2.1-0.3c0.6-0.2,0.8-0.4,0.8-0.6c0-0.1,0-0.2,0-0.4
			c0-0.1-0.1-0.3-0.1-0.4l-1.9-5.2h-8.2c-0.3,0.8-0.6,1.4-0.7,2c-0.2,0.6-0.4,1.1-0.5,1.6c-0.1,0.5-0.2,0.9-0.3,1.2
			c-0.1,0.3-0.1,0.5-0.1,0.7c0,0.4,0.3,0.8,1,1s1.5,0.4,2.3,0.4v1.2h-8.8V74c0.3,0,0.6-0.1,1.1-0.2c0.4-0.1,0.8-0.2,1.1-0.4
			c0.4-0.3,0.8-0.6,1-0.9c0.2-0.3,0.5-0.8,0.7-1.3c1.2-2.9,2.5-6.2,3.9-9.8c1.4-3.6,2.7-6.9,3.8-9.7h1.3l7.8,20.1
			c0.2,0.4,0.3,0.8,0.6,1c0.2,0.3,0.5,0.5,0.9,0.8c0.3,0.2,0.6,0.3,1,0.4s0.7,0.2,1,0.2L315.2,75.1L315.2,75.1z M305.8,65.6l-3.5-9
			l-3.5,9H305.8z"/>
		<path class="st1" d="M333.8,57.6c0,1.2-0.2,2.3-0.7,3.2c-0.5,0.9-1.1,1.7-2,2.3c-0.8,0.6-1.7,1.1-2.7,1.3c-1,0.3-2.1,0.4-3.2,0.4
			h-2.6V72c0,0.4,0.1,0.7,0.2,1c0.1,0.3,0.4,0.5,0.8,0.7c0.2,0.1,0.5,0.1,1,0.2c0.5,0.1,1,0.1,1.4,0.1v1.2h-10V74
			c0.3,0,0.6-0.1,1.1-0.1c0.5-0.1,0.8-0.1,1-0.2c0.3-0.1,0.6-0.3,0.7-0.6c0.1-0.3,0.2-0.6,0.2-1.1V55.2c0-0.4-0.1-0.7-0.2-1
			c-0.1-0.3-0.4-0.5-0.8-0.7c-0.4-0.1-0.8-0.2-1.2-0.3c-0.4-0.1-0.8-0.1-1.1-0.1v-1.2h10.6c2.2,0,3.9,0.5,5.3,1.6
			C333.2,54.5,333.8,55.8,333.8,57.6z M328.8,61.6c0.4-0.5,0.6-1.1,0.7-1.6c0.1-0.6,0.2-1.1,0.2-1.5c0-0.6-0.1-1.3-0.2-1.9
			c-0.1-0.6-0.4-1.2-0.8-1.7c-0.4-0.5-0.9-0.9-1.5-1.2c-0.6-0.3-1.4-0.4-2.3-0.4h-2.3v10.3h1.7c1.2,0,2.1-0.2,2.9-0.6
			S328.5,62.1,328.8,61.6z"/>
		<path class="st1" d="M346.7,75.1h-10.5V74c0.3,0,0.7-0.1,1.3-0.1c0.6,0,0.9-0.1,1.2-0.2c0.4-0.1,0.6-0.3,0.8-0.6
			c0.2-0.3,0.3-0.6,0.3-1V55.2c0-0.4-0.1-0.7-0.2-1c-0.1-0.3-0.4-0.5-0.9-0.6c-0.3-0.1-0.7-0.3-1.2-0.4c-0.5-0.1-0.9-0.2-1.2-0.2
			v-1.2h10.5V53c-0.3,0-0.7,0-1.2,0.1c-0.5,0.1-0.9,0.2-1.2,0.3c-0.4,0.1-0.7,0.3-0.8,0.6c-0.1,0.3-0.2,0.6-0.2,1v16.9
			c0,0.4,0.1,0.7,0.2,1c0.2,0.3,0.4,0.5,0.8,0.7c0.2,0.1,0.6,0.2,1.1,0.3c0.5,0.1,1,0.2,1.3,0.2L346.7,75.1L346.7,75.1z"/>
		<path class="st1" d="M369.2,68.3l-0.4,6.9h-19.3V74c0.3,0,0.8-0.1,1.3-0.1c0.6-0.1,0.9-0.1,1.1-0.2c0.3-0.2,0.6-0.4,0.7-0.6
			c0.1-0.3,0.2-0.6,0.2-1V55.2c0-0.4-0.1-0.7-0.2-1c-0.1-0.3-0.4-0.5-0.8-0.7c-0.3-0.1-0.7-0.3-1.2-0.4c-0.5-0.1-0.9-0.2-1.2-0.2
			v-1.2h18v5.6h-1.2c-0.2-0.8-0.7-1.7-1.4-2.7c-0.7-0.9-1.4-1.5-2.1-1.5c-0.3,0-0.7-0.1-1.2-0.1c-0.5,0-1,0-1.6,0h-3.7v9.3h2.6
			c0.8,0,1.5-0.1,1.8-0.2c0.4-0.2,0.7-0.4,1-0.8c0.2-0.3,0.4-0.7,0.6-1.3s0.3-1,0.3-1.5h1.2v9.1h-1.2c0-0.5-0.2-1.1-0.3-1.7
			c-0.2-0.6-0.4-1-0.6-1.3c-0.3-0.4-0.7-0.7-1.2-0.8c-0.4-0.1-1-0.2-1.7-0.2h-2.6v7c0,0.7,0,1.2,0.1,1.7s0.3,0.7,0.6,0.9
			c0.3,0.2,0.7,0.3,1.2,0.4c0.5,0.1,1.2,0.1,2.1,0.1c0.4,0,0.8,0,1.4,0c0.6,0,1.1,0,1.5-0.1c0.4,0,0.8-0.1,1.3-0.2
			c0.4-0.1,0.8-0.3,0.9-0.5c0.5-0.5,1-1.3,1.6-2.4s0.9-1.8,1.1-2.4C368,68.3,369.2,68.3,369.2,68.3z"/>
		<path class="st1" d="M395.4,53c-0.3,0-0.8,0.1-1.4,0.3c-0.6,0.2-1.1,0.3-1.4,0.5c-0.4,0.3-0.7,0.8-0.8,1.6c-0.1,0.8-0.2,1.8-0.2,3
			v17.1h-1.4l-14.1-19v12c0,1.3,0.1,2.4,0.3,3.1c0.2,0.7,0.4,1.2,0.8,1.5c0.3,0.2,0.8,0.5,1.6,0.7s1.3,0.3,1.6,0.3v1.2h-9.6V74
			c0.3,0,0.8-0.1,1.5-0.3c0.7-0.2,1.1-0.4,1.3-0.5c0.4-0.3,0.6-0.8,0.8-1.4c0.1-0.6,0.2-1.7,0.2-3.2V57c0-0.5-0.1-1-0.3-1.5
			c-0.2-0.5-0.4-0.9-0.7-1.2c-0.4-0.4-0.9-0.7-1.6-0.9c-0.7-0.3-1.2-0.4-1.6-0.4v-1.2h6.6l13.1,17.7V58.5c0-1.4-0.1-2.4-0.3-3.1
			c-0.2-0.7-0.4-1.2-0.8-1.5c-0.3-0.2-0.8-0.4-1.5-0.6c-0.7-0.2-1.2-0.3-1.6-0.3v-1.2h9.5L395.4,53L395.4,53z"/>
		<path class="st1" d="M416.3,58.2h-1.1c-0.1-0.4-0.3-0.9-0.5-1.4c-0.3-0.5-0.5-1.1-0.9-1.5c-0.3-0.5-0.7-0.9-1.1-1.3
			c-0.4-0.4-0.8-0.6-1.1-0.6c-0.3,0-0.8-0.1-1.3-0.1c-0.5,0-1,0-1.4,0h-0.9v18.6c0,0.4,0.1,0.7,0.2,1c0.2,0.3,0.4,0.5,0.8,0.7
			c0.2,0.1,0.6,0.2,1.2,0.3c0.6,0.1,1.1,0.2,1.5,0.2v1.2h-11V74c0.3,0,0.8-0.1,1.4-0.1c0.6-0.1,1.1-0.1,1.3-0.3
			c0.4-0.1,0.6-0.3,0.8-0.6c0.2-0.3,0.3-0.6,0.3-1.1V53.1h-0.9c-0.3,0-0.8,0-1.3,0s-1,0-1.4,0.1c-0.4,0-0.7,0.3-1.1,0.6
			c-0.4,0.4-0.7,0.8-1.1,1.3s-0.6,1-0.9,1.6c-0.3,0.6-0.4,1-0.5,1.4H396v-6.3h20.3L416.3,58.2L416.3,58.2z"/>
		<path class="st1" d="M428.3,75.1h-10.5V74c0.3,0,0.7-0.1,1.3-0.1c0.6,0,0.9-0.1,1.2-0.2c0.4-0.1,0.6-0.3,0.8-0.6
			c0.2-0.3,0.3-0.6,0.3-1V55.2c0-0.4-0.1-0.7-0.2-1c-0.1-0.3-0.4-0.5-0.9-0.6c-0.3-0.1-0.7-0.3-1.2-0.4c-0.5-0.1-0.9-0.2-1.2-0.2
			v-1.2h10.5V53c-0.3,0-0.7,0-1.2,0.1c-0.5,0.1-0.9,0.2-1.2,0.3c-0.4,0.1-0.7,0.3-0.8,0.6c-0.1,0.3-0.2,0.6-0.2,1v16.9
			c0,0.4,0.1,0.7,0.2,1c0.2,0.3,0.4,0.5,0.8,0.7c0.2,0.1,0.6,0.2,1.1,0.3c0.5,0.1,1,0.2,1.3,0.2L428.3,75.1L428.3,75.1z"/>
		<path class="st1" d="M441.4,75.7c-1.4,0-2.7-0.3-4-0.8c-1.3-0.6-2.4-1.3-3.4-2.4c-1-1-1.8-2.3-2.3-3.8s-0.9-3.2-0.9-5
			s0.3-3.6,0.9-5.1c0.6-1.5,1.4-2.8,2.4-3.9c1-1.1,2.2-1.9,3.5-2.5c1.4-0.6,2.8-0.9,4.3-0.9c1.2,0,2.2,0.1,3.1,0.4
			c0.9,0.3,1.8,0.7,2.7,1.2l0.7-1.1h1.3l0.1,8.3h-1.3c-0.2-0.8-0.4-1.7-0.8-2.6c-0.3-0.9-0.8-1.8-1.2-2.4c-0.5-0.7-1.2-1.3-1.9-1.8
			c-0.7-0.4-1.5-0.6-2.5-0.6c-1.1,0-2,0.2-3,0.7c-0.9,0.5-1.7,1.2-2.4,2.1c-0.6,0.9-1.1,2-1.5,3.4c-0.4,1.4-0.5,2.9-0.5,4.6
			c0,1.5,0.2,2.9,0.6,4.1c0.4,1.2,0.9,2.3,1.6,3.3c0.7,0.9,1.5,1.7,2.5,2.2c1,0.5,2,0.8,3.2,0.8c0.9,0,1.7-0.1,2.4-0.4
			c0.7-0.3,1.4-0.6,1.9-1.1c0.5-0.5,1-1,1.4-1.6c0.4-0.6,0.8-1.3,1-2l1.2,0.6c-0.9,2.3-2.2,4-3.7,4.9
			C445.5,75.2,443.6,75.7,441.4,75.7z"/>
		<path class="st1" d="M474.5,75.1h-9.7V74c0.9-0.1,1.6-0.2,2.1-0.3c0.6-0.2,0.8-0.4,0.8-0.6c0-0.1,0-0.2,0-0.4
			c0-0.1-0.1-0.3-0.1-0.4l-1.9-5.2h-8.2c-0.3,0.8-0.6,1.4-0.7,2c-0.2,0.6-0.4,1.1-0.5,1.6c-0.1,0.5-0.2,0.9-0.3,1.2
			c-0.1,0.3-0.1,0.5-0.1,0.7c0,0.4,0.3,0.8,1,1s1.5,0.4,2.3,0.4v1.2h-8.8V74c0.3,0,0.6-0.1,1.1-0.2c0.4-0.1,0.8-0.2,1.1-0.4
			c0.4-0.3,0.8-0.6,1-0.9c0.2-0.3,0.5-0.8,0.7-1.3c1.2-2.9,2.5-6.2,3.9-9.8c1.4-3.6,2.7-6.9,3.8-9.7h1.3l7.8,20.1
			c0.2,0.4,0.3,0.8,0.6,1c0.2,0.3,0.5,0.5,0.9,0.8c0.3,0.2,0.6,0.3,1,0.4s0.7,0.2,1,0.2L474.5,75.1L474.5,75.1z M465.1,65.6l-3.5-9
			l-3.5,9H465.1z"/>
	</g>
	<g>
		<path class="st1" d="M209.8,102.6c-0.1,0-0.3,0-0.5,0.1c-0.2,0-0.4,0.1-0.5,0.1c-0.2,0.1-0.3,0.2-0.3,0.3
			c-0.1,0.1-0.1,0.3-0.1,0.5v0.8c0,0.6,0,1,0,1.2c0,0.2,0,0.4,0,0.5c-0.7,0.3-1.3,0.5-2,0.7c-0.7,0.2-1.3,0.2-2,0.2
			c-0.7,0-1.4-0.1-2-0.4c-0.6-0.3-1.2-0.6-1.7-1.1c-0.5-0.5-0.9-1.1-1.2-1.8c-0.3-0.7-0.4-1.5-0.4-2.3c0-0.8,0.1-1.6,0.4-2.3
			c0.3-0.7,0.7-1.3,1.2-1.8c0.5-0.5,1.1-0.9,1.7-1.2s1.4-0.4,2.1-0.4c0.6,0,1.1,0.1,1.6,0.2c0.5,0.1,0.9,0.3,1.2,0.5l0.3-0.5h0.6
			l0.1,3.8h-0.6c-0.1-0.4-0.2-0.8-0.4-1.2c-0.2-0.4-0.4-0.8-0.6-1.1s-0.6-0.6-0.9-0.8c-0.4-0.2-0.8-0.3-1.3-0.3
			c-0.5,0-1,0.1-1.5,0.3c-0.4,0.2-0.8,0.6-1.1,1c-0.3,0.4-0.6,0.9-0.7,1.6c-0.2,0.6-0.3,1.3-0.3,2.1c0,0.7,0.1,1.3,0.3,1.9
			c0.2,0.6,0.4,1.1,0.7,1.6c0.3,0.5,0.7,0.8,1.2,1.1c0.5,0.3,1,0.4,1.6,0.4c0.4,0,0.9-0.1,1.2-0.2c0.4-0.1,0.6-0.3,0.8-0.4
			c0-0.3,0.1-0.5,0.1-0.8c0-0.3,0-0.5,0-0.7v-0.6c0-0.2,0-0.4-0.1-0.6s-0.2-0.3-0.4-0.4c-0.2-0.1-0.4-0.1-0.7-0.2
			c-0.3,0-0.5-0.1-0.7-0.1V102h4.7L209.8,102.6L209.8,102.6z"/>
		<path class="st1" d="M215.4,106.9h-4.9v-0.5c0.1,0,0.3,0,0.6,0s0.4,0,0.6-0.1c0.2-0.1,0.3-0.2,0.4-0.3c0.1-0.1,0.1-0.3,0.1-0.5
			v-7.8c0-0.2,0-0.3-0.1-0.4c-0.1-0.1-0.2-0.2-0.4-0.3c-0.2-0.1-0.3-0.1-0.6-0.2c-0.2,0-0.4-0.1-0.6-0.1v-0.5h4.9v0.5
			c-0.2,0-0.3,0-0.6,0.1c-0.2,0-0.4,0.1-0.6,0.1c-0.2,0.1-0.3,0.2-0.4,0.3c-0.1,0.1-0.1,0.3-0.1,0.5v7.8c0,0.2,0,0.3,0.1,0.4
			c0.1,0.1,0.2,0.2,0.4,0.3c0.1,0,0.3,0.1,0.5,0.1c0.2,0,0.4,0.1,0.6,0.1V106.9z"/>
		<path class="st1" d="M223.5,101.9c0.2,0.3,0.4,0.5,0.5,0.8c0.1,0.3,0.2,0.6,0.2,1.1c0,1-0.3,1.7-1.1,2.4c-0.7,0.6-1.6,0.9-2.6,0.9
			c-0.5,0-1-0.1-1.5-0.2c-0.5-0.1-0.9-0.3-1.2-0.5l-0.3,0.6h-0.6l-0.1-3.7h0.6c0.1,0.5,0.3,0.9,0.4,1.2c0.2,0.4,0.4,0.7,0.7,1
			c0.3,0.3,0.6,0.5,0.9,0.7c0.3,0.2,0.8,0.3,1.2,0.3c0.3,0,0.7,0,0.9-0.1c0.3-0.1,0.5-0.2,0.6-0.4c0.2-0.2,0.3-0.4,0.4-0.6
			c0.1-0.2,0.1-0.5,0.1-0.8c0-0.4-0.1-0.8-0.4-1.2c-0.2-0.4-0.6-0.7-1.1-0.9c-0.3-0.1-0.7-0.3-1.1-0.4s-0.8-0.3-1.1-0.5
			c-0.6-0.3-1.1-0.6-1.4-1.1c-0.3-0.4-0.5-1-0.5-1.7c0-0.4,0.1-0.8,0.3-1.2c0.2-0.4,0.4-0.7,0.7-0.9c0.3-0.3,0.6-0.5,1-0.6
			c0.4-0.1,0.8-0.2,1.3-0.2c0.5,0,0.9,0.1,1.3,0.2c0.4,0.2,0.8,0.3,1.1,0.5l0.3-0.5h0.6l0.1,3.6h-0.6c-0.1-0.4-0.2-0.8-0.4-1.2
			c-0.1-0.4-0.3-0.7-0.5-1c-0.2-0.3-0.5-0.5-0.8-0.7c-0.3-0.2-0.7-0.3-1.2-0.3c-0.5,0-0.9,0.2-1.2,0.5c-0.3,0.3-0.5,0.7-0.5,1.1
			c0,0.5,0.1,0.9,0.3,1.2c0.2,0.3,0.5,0.6,0.9,0.8c0.4,0.2,0.7,0.3,1.1,0.5c0.4,0.1,0.7,0.3,1,0.4c0.3,0.1,0.6,0.3,0.9,0.4
			C223,101.5,223.3,101.7,223.5,101.9z"/>
		<path class="st1" d="M239.6,100.6c-0.3,0-0.6,0.1-0.9,0.2s-0.5,0.2-0.7,0.4c-0.1,0.1-0.2,0.3-0.3,0.5s-0.2,0.5-0.4,0.8
			c-0.2,0.3-0.3,0.6-0.5,1s-0.4,0.6-0.6,0.9c0.2,0.2,0.5,0.5,0.7,0.8c0.3,0.3,0.5,0.5,0.8,0.6c0.2,0.1,0.5,0.2,0.9,0.3
			c0.4,0.1,0.7,0.1,0.9,0.1v0.5h-3.1l-1.1-1.3c-0.2,0.2-0.4,0.4-0.6,0.6s-0.4,0.4-0.7,0.5c-0.3,0.2-0.5,0.3-0.8,0.4
			c-0.3,0.1-0.6,0.1-0.9,0.1c-0.4,0-0.7-0.1-1.1-0.2c-0.4-0.1-0.7-0.3-1-0.5c-0.3-0.2-0.5-0.5-0.7-0.9c-0.2-0.4-0.3-0.8-0.3-1.3
			c0-0.6,0.2-1.2,0.5-1.7c0.3-0.5,0.9-1.1,1.9-1.6c-0.4-0.5-0.7-1-1-1.4c-0.2-0.4-0.3-0.8-0.3-1.3c0-0.3,0.1-0.7,0.2-1
			c0.1-0.3,0.3-0.6,0.6-0.8c0.2-0.2,0.5-0.3,0.9-0.5c0.3-0.1,0.7-0.2,1-0.2c0.4,0,0.8,0.1,1.1,0.2c0.3,0.1,0.6,0.3,0.8,0.5
			c0.2,0.2,0.3,0.4,0.4,0.7c0.1,0.3,0.1,0.5,0.1,0.8c0,0.6-0.2,1.1-0.6,1.6c-0.4,0.4-0.9,0.8-1.6,1.2c0.5,0.6,0.9,1.2,1.4,1.8
			c0.5,0.5,0.9,1.1,1.3,1.6c0.3-0.5,0.6-1.1,0.8-1.5c0.2-0.5,0.3-0.9,0.3-1.3c0-0.2-0.1-0.3-0.4-0.4c-0.2-0.1-0.6-0.2-1-0.3V100h4.1
			L239.6,100.6L239.6,100.6z M234.8,105.2c-0.5-0.6-1-1.3-1.6-2c-0.6-0.7-1.1-1.3-1.4-1.8c-0.4,0.3-0.7,0.6-0.9,1
			c-0.2,0.4-0.3,0.8-0.3,1.3c0,0.7,0.2,1.3,0.6,1.7c0.4,0.5,0.9,0.7,1.6,0.7c0.4,0,0.7-0.1,1.1-0.2
			C234.3,105.7,234.6,105.5,234.8,105.2z M234.2,98.1c0-0.5-0.1-0.9-0.3-1.2c-0.2-0.3-0.6-0.4-1-0.4c-0.2,0-0.4,0-0.6,0.1
			s-0.3,0.2-0.4,0.4c-0.1,0.1-0.2,0.3-0.2,0.5s-0.1,0.3-0.1,0.4c0,0.3,0.1,0.7,0.3,1.1c0.2,0.4,0.5,0.8,0.9,1.3
			c0.5-0.3,0.9-0.6,1.1-1C234.1,99,234.2,98.6,234.2,98.1z"/>
		<path class="st1" d="M254.2,106.9h-4.5v-0.5c0.4,0,0.7-0.1,1-0.2c0.3-0.1,0.4-0.2,0.4-0.3c0,0,0-0.1,0-0.2c0-0.1,0-0.1,0-0.2
			l-0.9-2.4h-3.8c-0.1,0.4-0.3,0.7-0.3,0.9c-0.1,0.3-0.2,0.5-0.2,0.7c-0.1,0.2-0.1,0.4-0.1,0.5c0,0.1,0,0.3,0,0.3
			c0,0.2,0.2,0.4,0.5,0.5c0.3,0.1,0.7,0.2,1.1,0.2v0.5H243v-0.5c0.1,0,0.3,0,0.5-0.1c0.2,0,0.4-0.1,0.5-0.2c0.2-0.1,0.4-0.3,0.5-0.4
			c0.1-0.1,0.2-0.4,0.3-0.6c0.5-1.4,1.1-2.9,1.8-4.6c0.7-1.7,1.2-3.2,1.8-4.5h0.6l3.6,9.3c0.1,0.2,0.2,0.4,0.3,0.5
			c0.1,0.1,0.2,0.2,0.4,0.4c0.1,0.1,0.3,0.1,0.5,0.2c0.2,0,0.3,0.1,0.5,0.1L254.2,106.9L254.2,106.9z M249.8,102.5l-1.6-4.2
			l-1.6,4.2H249.8z"/>
		<path class="st1" d="M260.1,100.3c0,0.3-0.1,0.5-0.2,0.7c-0.1,0.2-0.3,0.3-0.6,0.3c-0.3,0-0.5-0.1-0.6-0.2
			c-0.1-0.1-0.2-0.3-0.2-0.5c0-0.1,0-0.2,0-0.3c0-0.1,0-0.2,0-0.3c-0.2,0-0.5,0.1-0.8,0.3s-0.6,0.5-0.8,0.8v4.4c0,0.2,0,0.3,0.1,0.4
			c0.1,0.1,0.2,0.2,0.3,0.3c0.1,0,0.3,0.1,0.5,0.1c0.2,0,0.4,0,0.5,0v0.5h-4v-0.5c0.1,0,0.2,0,0.4,0c0.1,0,0.2,0,0.3-0.1
			c0.1,0,0.3-0.1,0.3-0.2c0.1-0.1,0.1-0.3,0.1-0.4V101c0-0.2,0-0.3-0.1-0.5c-0.1-0.2-0.2-0.3-0.3-0.4c-0.1-0.1-0.2-0.1-0.3-0.1
			c-0.1,0-0.3,0-0.4-0.1v-0.5l2.5-0.2l0.1,0.1v1.1h0c0.3-0.4,0.7-0.7,1.1-0.9c0.4-0.2,0.7-0.3,1.1-0.3s0.6,0.1,0.8,0.3
			C260,99.7,260.1,100,260.1,100.3z"/>
		<path class="st1" d="M264.2,107.1c-1.1,0-1.9-0.4-2.6-1.1c-0.6-0.7-0.9-1.7-0.9-2.9c0-0.5,0.1-1,0.3-1.5c0.2-0.5,0.4-0.9,0.7-1.2
			c0.3-0.4,0.7-0.6,1.1-0.9c0.5-0.2,0.9-0.3,1.5-0.3c0.7,0,1.3,0.2,1.8,0.5c0.5,0.3,0.7,0.8,0.7,1.4c0,0.3-0.1,0.5-0.2,0.7
			c-0.1,0.2-0.3,0.3-0.6,0.3c-0.3,0-0.5-0.1-0.7-0.2c-0.2-0.2-0.3-0.3-0.3-0.5c0-0.2,0-0.5,0.1-0.7c0.1-0.2,0.1-0.4,0.1-0.5
			c-0.1-0.2-0.2-0.3-0.4-0.3c-0.2,0-0.4-0.1-0.6-0.1c-0.2,0-0.5,0-0.7,0.2c-0.2,0.1-0.4,0.3-0.6,0.6c-0.2,0.3-0.3,0.6-0.5,1
			c-0.1,0.4-0.2,0.9-0.2,1.5c0,0.9,0.2,1.7,0.6,2.3s1,0.9,1.6,0.9c0.5,0,0.9-0.1,1.2-0.4c0.3-0.2,0.6-0.6,0.9-1.1l0.5,0.3
			c-0.3,0.6-0.8,1.1-1.3,1.4C265.4,106.9,264.8,107.1,264.2,107.1z"/>
		<path class="st1" d="M276,106.9h-3.7v-0.5c0.1,0,0.3,0,0.4,0c0.1,0,0.3,0,0.3-0.1c0.1,0,0.3-0.1,0.3-0.2c0.1-0.1,0.1-0.3,0.1-0.4
			v-3.9c0-0.5-0.1-0.9-0.4-1.2c-0.3-0.3-0.6-0.4-0.9-0.4c-0.3,0-0.5,0-0.7,0.1c-0.2,0.1-0.4,0.2-0.6,0.3c-0.2,0.1-0.3,0.3-0.4,0.4
			c-0.1,0.1-0.2,0.2-0.2,0.3v4.3c0,0.2,0,0.3,0.1,0.4c0.1,0.1,0.2,0.2,0.3,0.3c0.1,0,0.2,0.1,0.3,0.1c0.1,0,0.3,0,0.4,0v0.5h-3.7
			v-0.5c0.1,0,0.2,0,0.4,0c0.1,0,0.2,0,0.3-0.1c0.1,0,0.3-0.1,0.3-0.2c0.1-0.1,0.1-0.3,0.1-0.4v-8.7c0-0.2,0-0.3-0.1-0.5
			s-0.2-0.3-0.3-0.4c-0.1-0.1-0.3-0.1-0.5-0.1c-0.2,0-0.4,0-0.6-0.1v-0.5l2.8-0.2l0.1,0.1v5.2h0c0.2-0.2,0.3-0.3,0.5-0.4
			c0.1-0.1,0.3-0.3,0.5-0.4c0.2-0.1,0.4-0.2,0.7-0.3c0.3-0.1,0.6-0.1,0.9-0.1c0.7,0,1.2,0.2,1.5,0.6c0.4,0.4,0.5,1,0.5,1.8v3.9
			c0,0.2,0,0.3,0.1,0.4c0.1,0.1,0.2,0.2,0.3,0.3c0.1,0,0.2,0.1,0.3,0.1s0.2,0,0.4,0L276,106.9L276,106.9z"/>
		<path class="st1" d="M284,106.8c-0.2,0.1-0.4,0.2-0.6,0.2c-0.2,0-0.4,0.1-0.6,0.1c-0.4,0-0.7-0.1-0.9-0.3
			c-0.2-0.2-0.4-0.5-0.5-0.8h0c-0.3,0.4-0.7,0.6-1.1,0.8c-0.4,0.2-0.8,0.3-1.4,0.3c-0.6,0-1-0.2-1.4-0.5c-0.4-0.3-0.5-0.8-0.5-1.4
			c0-0.3,0-0.6,0.1-0.8c0.1-0.2,0.2-0.4,0.4-0.6c0.1-0.2,0.3-0.3,0.5-0.4c0.2-0.1,0.4-0.2,0.6-0.3c0.2-0.1,0.7-0.3,1.4-0.5
			c0.7-0.2,1.2-0.4,1.4-0.6v-0.8c0-0.1,0-0.2,0-0.4c0-0.2-0.1-0.4-0.2-0.5c-0.1-0.2-0.2-0.3-0.4-0.5c-0.2-0.1-0.4-0.2-0.8-0.2
			c-0.2,0-0.5,0-0.6,0.1c-0.2,0.1-0.3,0.2-0.4,0.3c0,0.1,0,0.3,0.1,0.4c0,0.2,0.1,0.4,0.1,0.6c0,0.2-0.1,0.3-0.2,0.5
			c-0.2,0.1-0.4,0.2-0.7,0.2c-0.3,0-0.4-0.1-0.6-0.3s-0.2-0.4-0.2-0.6c0-0.2,0.1-0.5,0.3-0.7s0.4-0.4,0.6-0.6
			c0.2-0.1,0.5-0.3,0.8-0.4s0.6-0.1,0.9-0.1c0.4,0,0.8,0,1.1,0.1c0.3,0.1,0.6,0.2,0.9,0.4c0.3,0.2,0.5,0.4,0.6,0.8
			c0.1,0.3,0.2,0.7,0.2,1.2c0,0.7,0,1.4,0,1.9s0,1.2,0,1.8c0,0.2,0,0.4,0.1,0.5c0.1,0.1,0.2,0.2,0.3,0.3c0.1,0,0.2,0.1,0.4,0.1
			s0.3,0,0.5,0L284,106.8L284,106.8z M281.4,102.7c-0.4,0.1-0.8,0.3-1.1,0.4c-0.3,0.1-0.6,0.3-0.9,0.5c-0.3,0.2-0.5,0.4-0.6,0.6
			c-0.1,0.2-0.2,0.5-0.2,0.8c0,0.4,0.1,0.7,0.3,0.9c0.2,0.2,0.5,0.3,0.8,0.3c0.4,0,0.7-0.1,0.9-0.3s0.5-0.4,0.7-0.6L281.4,102.7z"/>
		<path class="st1" d="M291.5,105.1c-0.3,0.6-0.7,1.1-1.3,1.4c-0.5,0.4-1.1,0.5-1.8,0.5c-0.6,0-1.1-0.1-1.6-0.3
			c-0.5-0.2-0.8-0.5-1.1-0.9c-0.3-0.4-0.5-0.8-0.7-1.3c-0.1-0.5-0.2-1-0.2-1.5c0-0.5,0.1-1,0.2-1.4s0.4-0.9,0.7-1.3
			c0.3-0.4,0.6-0.6,1.1-0.9c0.4-0.2,0.9-0.3,1.4-0.3c0.6,0,1,0.1,1.4,0.3c0.4,0.2,0.7,0.4,0.9,0.7c0.2,0.3,0.4,0.6,0.5,1
			c0.1,0.4,0.2,0.8,0.2,1.3v0.5h-5c0,0.5,0,0.9,0.1,1.3c0.1,0.4,0.2,0.8,0.4,1.1c0.2,0.3,0.5,0.5,0.8,0.7c0.3,0.2,0.7,0.3,1.1,0.3
			c0.5,0,0.8-0.1,1.2-0.3c0.3-0.2,0.6-0.6,0.9-1.1L291.5,105.1z M289.8,102.3c0-0.3,0-0.6-0.1-0.9s-0.1-0.6-0.2-0.8
			c-0.1-0.2-0.3-0.4-0.5-0.6c-0.2-0.1-0.5-0.2-0.8-0.2c-0.5,0-1,0.2-1.3,0.7c-0.4,0.4-0.5,1.1-0.6,1.8
			C286.3,102.3,289.8,102.3,289.8,102.3z"/>
		<path class="st1" d="M299.7,103.1c0,0.5-0.1,1-0.3,1.6s-0.4,0.9-0.7,1.3c-0.3,0.4-0.8,0.7-1.2,0.9c-0.5,0.2-1,0.3-1.6,0.3
			c-0.5,0-0.9-0.1-1.4-0.3c-0.4-0.2-0.8-0.4-1.2-0.8c-0.3-0.3-0.6-0.8-0.8-1.2c-0.2-0.5-0.3-1-0.3-1.6c0-1.2,0.3-2.1,1-2.9
			c0.7-0.7,1.6-1.1,2.7-1.1c1.1,0,1.9,0.4,2.6,1.1C299.3,100.9,299.7,101.9,299.7,103.1z M298.1,103.1c0-0.4,0-0.8-0.1-1.2
			c-0.1-0.4-0.2-0.8-0.3-1.1c-0.2-0.3-0.4-0.6-0.6-0.8c-0.3-0.2-0.6-0.3-1-0.3c-0.4,0-0.7,0.1-1,0.3c-0.3,0.2-0.5,0.5-0.7,0.8
			c-0.2,0.3-0.3,0.7-0.3,1.1c-0.1,0.4-0.1,0.8-0.1,1.2c0,0.5,0,0.9,0.1,1.4c0.1,0.4,0.2,0.8,0.4,1.1c0.2,0.3,0.4,0.6,0.6,0.8
			c0.3,0.2,0.6,0.3,1,0.3c0.6,0,1.1-0.3,1.5-0.9C297.9,105,298.1,104.2,298.1,103.1z"/>
		<path class="st1" d="M304.2,106.9h-3.7v-0.5c0.1,0,0.2,0,0.4,0c0.1,0,0.2,0,0.3-0.1c0.1,0,0.3-0.1,0.3-0.2
			c0.1-0.1,0.1-0.3,0.1-0.4v-8.7c0-0.2,0-0.4-0.1-0.5c-0.1-0.2-0.2-0.3-0.3-0.4c-0.1-0.1-0.3-0.1-0.5-0.2s-0.4-0.1-0.6-0.1v-0.5
			l2.8-0.2l0.1,0.1v10.3c0,0.2,0,0.3,0.1,0.4c0.1,0.1,0.2,0.2,0.3,0.3c0.1,0,0.2,0.1,0.3,0.1c0.1,0,0.2,0,0.4,0V106.9z"/>
		<path class="st1" d="M312.5,103.1c0,0.5-0.1,1-0.3,1.6c-0.2,0.5-0.4,0.9-0.7,1.3c-0.3,0.4-0.8,0.7-1.2,0.9c-0.5,0.2-1,0.3-1.6,0.3
			c-0.5,0-0.9-0.1-1.4-0.3c-0.4-0.2-0.8-0.4-1.2-0.8c-0.3-0.3-0.6-0.8-0.8-1.2c-0.2-0.5-0.3-1-0.3-1.6c0-1.2,0.3-2.1,1-2.9
			c0.7-0.7,1.6-1.1,2.7-1.1c1.1,0,1.9,0.4,2.6,1.1C312.2,100.9,312.5,101.9,312.5,103.1z M310.9,103.1c0-0.4,0-0.8-0.1-1.2
			c-0.1-0.4-0.2-0.8-0.3-1.1c-0.2-0.3-0.4-0.6-0.6-0.8c-0.3-0.2-0.6-0.3-1-0.3c-0.4,0-0.7,0.1-1,0.3s-0.5,0.5-0.7,0.8
			c-0.2,0.3-0.3,0.7-0.3,1.1c-0.1,0.4-0.1,0.8-0.1,1.2c0,0.5,0,0.9,0.1,1.4c0.1,0.4,0.2,0.8,0.4,1.1c0.2,0.3,0.4,0.6,0.6,0.8
			c0.3,0.2,0.6,0.3,1,0.3c0.6,0,1.1-0.3,1.5-0.9S310.9,104.2,310.9,103.1z"/>
		<path class="st1" d="M320,106.1c0.2,0.2,0.4,0.4,0.5,0.7c0.1,0.2,0.2,0.5,0.2,0.9c0,0.4-0.1,0.7-0.2,1c-0.2,0.3-0.4,0.6-0.7,0.8
			c-0.3,0.2-0.7,0.4-1.2,0.6c-0.5,0.1-1.1,0.2-1.8,0.2c-1.1,0-2-0.2-2.6-0.5s-0.8-0.8-0.8-1.5c0-0.5,0.2-0.9,0.6-1.2
			c0.4-0.3,0.9-0.5,1.5-0.5v-0.1c-0.2,0-0.3-0.1-0.5-0.2c-0.2-0.1-0.3-0.1-0.4-0.2c-0.1-0.1-0.2-0.2-0.3-0.4
			c-0.1-0.1-0.1-0.3-0.1-0.5c0-0.3,0.1-0.5,0.3-0.7c0.2-0.2,0.5-0.4,0.9-0.6v-0.1c-0.5-0.2-0.9-0.5-1.1-0.9
			c-0.3-0.4-0.4-0.8-0.4-1.2c0-0.7,0.3-1.3,0.8-1.8c0.5-0.5,1.2-0.7,2-0.7c0.2,0,0.5,0,0.7,0.1c0.2,0,0.5,0.1,0.7,0.2h2.6v0.7h-1.8
			v0c0.2,0.2,0.3,0.5,0.4,0.7s0.1,0.5,0.1,0.8c0,0.7-0.3,1.2-0.8,1.7c-0.5,0.5-1.2,0.7-1.9,0.7h-0.9c-0.1,0-0.2,0.1-0.4,0.2
			c-0.1,0.1-0.2,0.3-0.2,0.4c0,0.2,0,0.3,0.2,0.4c0.1,0.1,0.2,0.2,0.4,0.2c0.1,0,0.3,0.1,0.5,0.1c0.2,0,0.4,0,0.6,0
			c0.2,0,0.5,0,0.9,0c0.4,0,0.7,0,0.8,0c0.2,0,0.5,0.1,0.7,0.2C319.6,105.8,319.8,105.9,320,106.1z M319.5,108
			c0-0.3-0.1-0.5-0.2-0.7c-0.1-0.2-0.3-0.3-0.6-0.4c-0.1,0-0.4,0-0.9-0.1c-0.4,0-1,0-1.5,0c-0.6,0.1-0.9,0.3-1.2,0.5
			c-0.2,0.3-0.3,0.6-0.3,1c0,0.2,0,0.3,0.1,0.5c0.1,0.2,0.2,0.3,0.4,0.4c0.2,0.1,0.4,0.2,0.7,0.3c0.3,0.1,0.7,0.1,1.1,0.1
			c0.7,0,1.3-0.1,1.8-0.4C319.2,109,319.5,108.5,319.5,108z M318,101.7c0-0.6-0.1-1.1-0.4-1.4c-0.2-0.3-0.6-0.5-1-0.5
			c-0.2,0-0.4,0-0.6,0.1c-0.2,0.1-0.3,0.2-0.4,0.4c-0.1,0.2-0.2,0.4-0.2,0.6c0,0.2-0.1,0.5-0.1,0.7c0,0.6,0.1,1,0.4,1.4
			c0.3,0.4,0.6,0.5,1,0.5c0.4,0,0.8-0.2,1-0.5C317.9,102.6,318,102.2,318,101.7z"/>
		<path class="st1" d="M325.2,106.9h-3.6v-0.5c0.1,0,0.2,0,0.4,0c0.1,0,0.2,0,0.3-0.1c0.1,0,0.3-0.1,0.3-0.2
			c0.1-0.1,0.1-0.3,0.1-0.4V101c0-0.2,0-0.3-0.1-0.4c-0.1-0.1-0.2-0.3-0.3-0.3c-0.1-0.1-0.2-0.1-0.4-0.2c-0.2,0-0.3-0.1-0.5-0.1
			v-0.5l2.7-0.2l0.1,0.1v6.1c0,0.2,0,0.3,0.1,0.4c0.1,0.1,0.2,0.2,0.3,0.3c0.1,0,0.2,0.1,0.3,0.1c0.1,0,0.2,0,0.4,0.1L325.2,106.9
			L325.2,106.9z M324.2,96.3c0,0.3-0.1,0.5-0.3,0.8c-0.2,0.2-0.4,0.3-0.7,0.3c-0.3,0-0.5-0.1-0.7-0.3c-0.2-0.2-0.3-0.4-0.3-0.7
			c0-0.3,0.1-0.5,0.3-0.7c0.2-0.2,0.4-0.3,0.7-0.3c0.3,0,0.5,0.1,0.7,0.3C324.1,95.8,324.2,96.1,324.2,96.3z"/>
		<path class="st1" d="M329.6,107.1c-1.1,0-1.9-0.4-2.6-1.1c-0.6-0.7-0.9-1.7-0.9-2.9c0-0.5,0.1-1,0.3-1.5c0.2-0.5,0.4-0.9,0.7-1.2
			c0.3-0.4,0.7-0.6,1.1-0.9c0.5-0.2,0.9-0.3,1.5-0.3c0.7,0,1.3,0.2,1.8,0.5c0.5,0.3,0.7,0.8,0.7,1.4c0,0.3-0.1,0.5-0.2,0.7
			c-0.1,0.2-0.3,0.3-0.6,0.3c-0.3,0-0.5-0.1-0.7-0.2c-0.2-0.2-0.3-0.3-0.3-0.5c0-0.2,0-0.5,0.1-0.7c0.1-0.2,0.1-0.4,0.1-0.5
			c-0.1-0.2-0.2-0.3-0.4-0.3c-0.2,0-0.4-0.1-0.6-0.1c-0.2,0-0.5,0-0.7,0.2c-0.2,0.1-0.4,0.3-0.6,0.6c-0.2,0.3-0.3,0.6-0.5,1
			c-0.1,0.4-0.2,0.9-0.2,1.5c0,0.9,0.2,1.7,0.6,2.3c0.4,0.6,1,0.9,1.6,0.9c0.5,0,0.9-0.1,1.2-0.4c0.3-0.2,0.6-0.6,0.9-1.1l0.5,0.3
			c-0.3,0.6-0.8,1.1-1.3,1.4C330.8,106.9,330.2,107.1,329.6,107.1z"/>
		<path class="st1" d="M340.3,106.8c-0.2,0.1-0.4,0.2-0.6,0.2c-0.2,0-0.4,0.1-0.6,0.1c-0.4,0-0.7-0.1-0.9-0.3
			c-0.2-0.2-0.4-0.5-0.5-0.8h0c-0.3,0.4-0.7,0.6-1.1,0.8c-0.4,0.2-0.8,0.3-1.4,0.3c-0.6,0-1-0.2-1.4-0.5c-0.4-0.3-0.5-0.8-0.5-1.4
			c0-0.3,0-0.6,0.1-0.8c0.1-0.2,0.2-0.4,0.4-0.6c0.1-0.2,0.3-0.3,0.5-0.4c0.2-0.1,0.4-0.2,0.6-0.3c0.2-0.1,0.7-0.3,1.4-0.5
			c0.7-0.2,1.2-0.4,1.4-0.6v-0.8c0-0.1,0-0.2,0-0.4c0-0.2-0.1-0.4-0.2-0.5c-0.1-0.2-0.2-0.3-0.4-0.5c-0.2-0.1-0.4-0.2-0.8-0.2
			c-0.2,0-0.5,0-0.6,0.1c-0.2,0.1-0.3,0.2-0.4,0.3c0,0.1,0,0.3,0.1,0.4c0,0.2,0.1,0.4,0.1,0.6c0,0.2-0.1,0.3-0.2,0.5
			c-0.2,0.1-0.4,0.2-0.7,0.2c-0.3,0-0.4-0.1-0.6-0.3s-0.2-0.4-0.2-0.6c0-0.2,0.1-0.5,0.3-0.7c0.2-0.2,0.4-0.4,0.6-0.6
			c0.2-0.1,0.5-0.3,0.8-0.4c0.3-0.1,0.6-0.1,0.9-0.1c0.4,0,0.8,0,1.1,0.1c0.3,0.1,0.6,0.2,0.9,0.4c0.3,0.2,0.5,0.4,0.6,0.8
			c0.1,0.3,0.2,0.7,0.2,1.2c0,0.7,0,1.4,0,1.9s0,1.2,0,1.8c0,0.2,0,0.4,0.1,0.5c0.1,0.1,0.2,0.2,0.3,0.3c0.1,0,0.2,0.1,0.4,0.1
			c0.2,0,0.3,0,0.5,0L340.3,106.8L340.3,106.8z M337.7,102.7c-0.4,0.1-0.8,0.3-1.1,0.4c-0.3,0.1-0.6,0.3-0.9,0.5
			c-0.3,0.2-0.5,0.4-0.6,0.6c-0.1,0.2-0.2,0.5-0.2,0.8c0,0.4,0.1,0.7,0.3,0.9c0.2,0.2,0.5,0.3,0.8,0.3c0.4,0,0.7-0.1,0.9-0.3
			c0.3-0.2,0.5-0.4,0.7-0.6L337.7,102.7z"/>
		<path class="st1" d="M344.6,106.9h-3.7v-0.5c0.1,0,0.2,0,0.4,0c0.1,0,0.2,0,0.3-0.1c0.1,0,0.3-0.1,0.3-0.2
			c0.1-0.1,0.1-0.3,0.1-0.4v-8.7c0-0.2,0-0.4-0.1-0.5c-0.1-0.2-0.2-0.3-0.3-0.4c-0.1-0.1-0.3-0.1-0.5-0.2c-0.2,0-0.4-0.1-0.6-0.1
			v-0.5l2.8-0.2l0.1,0.1v10.3c0,0.2,0,0.3,0.1,0.4c0.1,0.1,0.2,0.2,0.3,0.3c0.1,0,0.2,0.1,0.3,0.1c0.1,0,0.2,0,0.4,0V106.9z"/>
		<path class="st1" d="M356.2,101.9c0.2,0.3,0.4,0.5,0.5,0.8c0.1,0.3,0.2,0.6,0.2,1.1c0,1-0.3,1.7-1.1,2.4c-0.7,0.6-1.6,0.9-2.6,0.9
			c-0.5,0-1-0.1-1.5-0.2c-0.5-0.1-0.9-0.3-1.2-0.5l-0.3,0.6h-0.6l-0.1-3.7h0.6c0.1,0.5,0.3,0.9,0.4,1.2c0.2,0.4,0.4,0.7,0.7,1
			c0.3,0.3,0.6,0.5,0.9,0.7s0.8,0.3,1.2,0.3c0.3,0,0.7,0,0.9-0.1c0.3-0.1,0.5-0.2,0.6-0.4c0.2-0.2,0.3-0.4,0.4-0.6
			c0.1-0.2,0.1-0.5,0.1-0.8c0-0.4-0.1-0.8-0.4-1.2c-0.2-0.4-0.6-0.7-1.1-0.9c-0.3-0.1-0.7-0.3-1.1-0.4s-0.8-0.3-1.1-0.5
			c-0.6-0.3-1.1-0.6-1.4-1.1c-0.3-0.4-0.5-1-0.5-1.7c0-0.4,0.1-0.8,0.3-1.2s0.4-0.7,0.7-0.9c0.3-0.3,0.6-0.5,1-0.6
			c0.4-0.1,0.8-0.2,1.3-0.2c0.5,0,0.9,0.1,1.3,0.2s0.8,0.3,1.1,0.5l0.3-0.5h0.6l0.1,3.6h-0.6c-0.1-0.4-0.2-0.8-0.4-1.2
			c-0.1-0.4-0.3-0.7-0.5-1c-0.2-0.3-0.5-0.5-0.8-0.7c-0.3-0.2-0.7-0.3-1.2-0.3c-0.5,0-0.9,0.2-1.2,0.5c-0.3,0.3-0.5,0.7-0.5,1.1
			c0,0.5,0.1,0.9,0.3,1.2c0.2,0.3,0.5,0.6,0.9,0.8c0.4,0.2,0.7,0.3,1.1,0.5c0.4,0.1,0.7,0.3,1,0.4c0.3,0.1,0.6,0.3,0.9,0.4
			C355.8,101.5,356,101.7,356.2,101.9z"/>
		<path class="st1" d="M361.7,106.9h-3.6v-0.5c0.1,0,0.2,0,0.4,0c0.1,0,0.2,0,0.3-0.1c0.1,0,0.3-0.1,0.3-0.2
			c0.1-0.1,0.1-0.3,0.1-0.4V101c0-0.2,0-0.3-0.1-0.4c-0.1-0.1-0.2-0.3-0.3-0.3c-0.1-0.1-0.2-0.1-0.4-0.2c-0.2,0-0.3-0.1-0.5-0.1
			v-0.5l2.7-0.2l0.1,0.1v6.1c0,0.2,0,0.3,0.1,0.4c0.1,0.1,0.2,0.2,0.3,0.3c0.1,0,0.2,0.1,0.3,0.1c0.1,0,0.2,0,0.4,0.1L361.7,106.9
			L361.7,106.9z M360.7,96.3c0,0.3-0.1,0.5-0.3,0.8c-0.2,0.2-0.4,0.3-0.7,0.3c-0.3,0-0.5-0.1-0.7-0.3c-0.2-0.2-0.3-0.4-0.3-0.7
			c0-0.3,0.1-0.5,0.3-0.7c0.2-0.2,0.4-0.3,0.7-0.3c0.3,0,0.5,0.1,0.7,0.3C360.6,95.8,360.7,96.1,360.7,96.3z"/>
		<path class="st1" d="M375.5,106.9h-3.7v-0.5c0.1,0,0.2,0,0.4,0c0.1,0,0.2,0,0.3-0.1c0.1,0,0.3-0.1,0.3-0.2
			c0.1-0.1,0.1-0.3,0.1-0.4v-3.9c0-0.5-0.1-0.9-0.4-1.2c-0.2-0.3-0.5-0.4-0.9-0.4c-0.3,0-0.5,0-0.7,0.1c-0.2,0.1-0.4,0.2-0.6,0.3
			c-0.1,0.1-0.3,0.2-0.4,0.4s-0.2,0.2-0.2,0.3v4.3c0,0.2,0,0.3,0.1,0.4c0.1,0.1,0.2,0.2,0.3,0.3c0.1,0,0.2,0.1,0.3,0.1
			c0.1,0,0.2,0,0.4,0v0.5h-3.6v-0.5c0.1,0,0.2,0,0.3,0c0.1,0,0.2,0,0.3-0.1c0.1,0,0.3-0.1,0.3-0.2c0.1-0.1,0.1-0.3,0.1-0.4v-3.9
			c0-0.5-0.1-0.9-0.4-1.2c-0.2-0.3-0.5-0.4-0.9-0.4c-0.3,0-0.5,0-0.7,0.1c-0.2,0.1-0.4,0.2-0.6,0.3c-0.1,0.1-0.3,0.2-0.4,0.4
			c-0.1,0.1-0.2,0.2-0.2,0.3v4.3c0,0.2,0,0.3,0.1,0.4c0.1,0.1,0.2,0.2,0.3,0.3c0.1,0,0.2,0.1,0.3,0.1c0.1,0,0.2,0,0.4,0v0.5h-3.6
			v-0.5c0.1,0,0.2,0,0.4,0c0.1,0,0.2,0,0.3-0.1c0.1,0,0.3-0.1,0.3-0.2c0.1-0.1,0.1-0.3,0.1-0.4v-4.7c0-0.2,0-0.3-0.1-0.4
			c-0.1-0.1-0.2-0.2-0.3-0.3c-0.1-0.1-0.2-0.1-0.4-0.1c-0.1,0-0.3-0.1-0.4-0.1v-0.5l2.5-0.2l0.1,0.1v1.1h0c0.1-0.1,0.3-0.3,0.5-0.4
			c0.2-0.2,0.3-0.3,0.5-0.4c0.2-0.1,0.4-0.2,0.7-0.3c0.3-0.1,0.6-0.1,0.9-0.1c0.5,0,0.9,0.1,1.3,0.4c0.3,0.3,0.6,0.6,0.8,0.9
			c0.2-0.2,0.3-0.3,0.5-0.5c0.1-0.1,0.3-0.3,0.6-0.4c0.2-0.1,0.4-0.2,0.7-0.3c0.3-0.1,0.6-0.1,0.9-0.1c0.6,0,1.1,0.2,1.5,0.6
			c0.4,0.4,0.6,1.1,0.6,1.9v3.8c0,0.2,0,0.3,0.1,0.4c0.1,0.1,0.2,0.2,0.3,0.3c0.1,0,0.2,0.1,0.3,0.1c0.1,0,0.2,0,0.4,0L375.5,106.9
			L375.5,106.9z"/>
		<path class="st1" d="M384.4,106.8l-2.4,0.2l-0.1-0.1v-0.9h0c-0.1,0.1-0.3,0.3-0.4,0.4c-0.2,0.1-0.3,0.3-0.5,0.4
			c-0.2,0.1-0.4,0.2-0.7,0.3c-0.2,0.1-0.5,0.1-0.9,0.1c-0.7,0-1.2-0.2-1.5-0.6c-0.3-0.4-0.5-1.1-0.5-1.9V101c0-0.2,0-0.3-0.1-0.5
			c-0.1-0.1-0.2-0.2-0.3-0.3c-0.1-0.1-0.2-0.1-0.3-0.1c-0.1,0-0.3,0-0.4-0.1v-0.5l2.5-0.2l0.1,0.1v5.2c0,0.5,0.1,0.9,0.4,1.2
			c0.2,0.3,0.5,0.4,0.9,0.4c0.3,0,0.5,0,0.7-0.1s0.4-0.2,0.6-0.3c0.1-0.1,0.3-0.2,0.4-0.3c0.1-0.1,0.2-0.2,0.2-0.3v-4.2
			c0-0.2,0-0.3-0.1-0.4c-0.1-0.1-0.2-0.2-0.3-0.3c-0.1-0.1-0.2-0.1-0.4-0.1c-0.2,0-0.4,0-0.6,0v-0.5l2.7-0.2l0.1,0.1v6
			c0,0.2,0,0.3,0.1,0.4c0.1,0.1,0.2,0.2,0.3,0.3c0.1,0.1,0.2,0.1,0.3,0.1c0.1,0,0.3,0,0.4,0L384.4,106.8L384.4,106.8z"/>
		<path class="st1" d="M388.8,106.9h-3.7v-0.5c0.1,0,0.2,0,0.4,0c0.1,0,0.2,0,0.3-0.1c0.1,0,0.3-0.1,0.3-0.2
			c0.1-0.1,0.1-0.3,0.1-0.4v-8.7c0-0.2,0-0.4-0.1-0.5c-0.1-0.2-0.2-0.3-0.3-0.4c-0.1-0.1-0.3-0.1-0.5-0.2c-0.2,0-0.4-0.1-0.6-0.1
			v-0.5l2.8-0.2l0.1,0.1v10.3c0,0.2,0,0.3,0.1,0.4c0.1,0.1,0.2,0.2,0.3,0.3c0.1,0,0.2,0.1,0.3,0.1c0.1,0,0.2,0,0.4,0V106.9z"/>
		<path class="st1" d="M396.9,106.8c-0.2,0.1-0.4,0.2-0.6,0.2c-0.2,0-0.4,0.1-0.6,0.1c-0.4,0-0.7-0.1-0.9-0.3s-0.4-0.5-0.5-0.8h0
			c-0.3,0.4-0.7,0.6-1.1,0.8c-0.4,0.2-0.8,0.3-1.4,0.3c-0.6,0-1-0.2-1.4-0.5c-0.4-0.3-0.5-0.8-0.5-1.4c0-0.3,0-0.6,0.1-0.8
			c0.1-0.2,0.2-0.4,0.4-0.6c0.1-0.2,0.3-0.3,0.5-0.4c0.2-0.1,0.4-0.2,0.6-0.3c0.2-0.1,0.7-0.3,1.4-0.5c0.7-0.2,1.2-0.4,1.4-0.6v-0.8
			c0-0.1,0-0.2,0-0.4s-0.1-0.4-0.2-0.5c-0.1-0.2-0.2-0.3-0.4-0.5c-0.2-0.1-0.4-0.2-0.8-0.2c-0.2,0-0.5,0-0.6,0.1
			c-0.2,0.1-0.3,0.2-0.4,0.3c0,0.1,0,0.3,0.1,0.4c0,0.2,0.1,0.4,0.1,0.6c0,0.2-0.1,0.3-0.2,0.5c-0.2,0.1-0.4,0.2-0.7,0.2
			c-0.3,0-0.4-0.1-0.6-0.3c-0.1-0.2-0.2-0.4-0.2-0.6c0-0.2,0.1-0.5,0.3-0.7c0.2-0.2,0.4-0.4,0.6-0.6c0.2-0.1,0.5-0.3,0.8-0.4
			s0.6-0.1,0.9-0.1c0.4,0,0.8,0,1.1,0.1c0.3,0.1,0.6,0.2,0.9,0.4c0.3,0.2,0.5,0.4,0.6,0.8c0.1,0.3,0.2,0.7,0.2,1.2
			c0,0.7,0,1.4,0,1.9c0,0.6,0,1.2,0,1.8c0,0.2,0,0.4,0.1,0.5c0.1,0.1,0.2,0.2,0.3,0.3c0.1,0,0.2,0.1,0.4,0.1c0.2,0,0.3,0,0.5,0
			L396.9,106.8L396.9,106.8z M394.2,102.7c-0.4,0.1-0.8,0.3-1.1,0.4c-0.3,0.1-0.6,0.3-0.9,0.5c-0.3,0.2-0.5,0.4-0.6,0.6
			c-0.1,0.2-0.2,0.5-0.2,0.8c0,0.4,0.1,0.7,0.3,0.9c0.2,0.2,0.5,0.3,0.8,0.3c0.4,0,0.7-0.1,0.9-0.3c0.3-0.2,0.5-0.4,0.7-0.6
			L394.2,102.7z"/>
		<path class="st1" d="M402.3,106.6c-0.3,0.1-0.6,0.3-0.9,0.3c-0.3,0.1-0.7,0.1-1.1,0.1c-0.6,0-1.1-0.2-1.3-0.5
			c-0.3-0.3-0.4-0.8-0.4-1.3v-5.1h-1.4v-0.7h1.4v-2.3h1.4v2.3h2.2v0.7H400v4.2c0,0.3,0,0.6,0,0.8c0,0.2,0.1,0.4,0.2,0.6
			c0.1,0.1,0.2,0.3,0.4,0.3c0.2,0.1,0.4,0.1,0.7,0.1c0.1,0,0.3,0,0.6,0c0.3,0,0.4,0,0.5-0.1L402.3,106.6L402.3,106.6z"/>
		<path class="st1" d="M410.4,103.1c0,0.5-0.1,1-0.3,1.6c-0.2,0.5-0.4,0.9-0.7,1.3c-0.3,0.4-0.8,0.7-1.2,0.9c-0.5,0.2-1,0.3-1.6,0.3
			c-0.5,0-0.9-0.1-1.4-0.3c-0.4-0.2-0.8-0.4-1.2-0.8c-0.3-0.3-0.6-0.8-0.8-1.2c-0.2-0.5-0.3-1-0.3-1.6c0-1.2,0.3-2.1,1-2.9
			c0.7-0.7,1.6-1.1,2.7-1.1c1.1,0,1.9,0.4,2.6,1.1C410,100.9,410.4,101.9,410.4,103.1z M408.8,103.1c0-0.4,0-0.8-0.1-1.2
			c-0.1-0.4-0.2-0.8-0.3-1.1c-0.2-0.3-0.4-0.6-0.6-0.8c-0.3-0.2-0.6-0.3-1-0.3c-0.4,0-0.7,0.1-1,0.3c-0.3,0.2-0.5,0.5-0.7,0.8
			c-0.2,0.3-0.3,0.7-0.3,1.1c-0.1,0.4-0.1,0.8-0.1,1.2c0,0.5,0,0.9,0.1,1.4c0.1,0.4,0.2,0.8,0.4,1.1c0.2,0.3,0.4,0.6,0.6,0.8
			c0.3,0.2,0.6,0.3,1,0.3c0.6,0,1.1-0.3,1.5-0.9S408.8,104.2,408.8,103.1z"/>
		<path class="st1" d="M417.2,100.3c0,0.3-0.1,0.5-0.2,0.7c-0.1,0.2-0.3,0.3-0.6,0.3c-0.3,0-0.5-0.1-0.6-0.2
			c-0.1-0.1-0.2-0.3-0.2-0.5c0-0.1,0-0.2,0-0.3c0-0.1,0-0.2,0-0.3c-0.2,0-0.5,0.1-0.8,0.3s-0.6,0.5-0.8,0.8v4.4c0,0.2,0,0.3,0.1,0.4
			c0.1,0.1,0.2,0.2,0.3,0.3c0.1,0,0.3,0.1,0.5,0.1c0.2,0,0.4,0,0.5,0v0.5h-4v-0.5c0.1,0,0.2,0,0.4,0c0.1,0,0.2,0,0.3-0.1
			c0.1,0,0.3-0.1,0.3-0.2c0.1-0.1,0.1-0.3,0.1-0.4V101c0-0.2,0-0.3-0.1-0.5s-0.2-0.3-0.3-0.4c-0.1-0.1-0.2-0.1-0.3-0.1
			c-0.1,0-0.3,0-0.4-0.1v-0.5l2.5-0.2l0.1,0.1v1.1h0c0.3-0.4,0.7-0.7,1.1-0.9c0.4-0.2,0.7-0.3,1.1-0.3s0.6,0.1,0.8,0.3
			C417.1,99.7,417.2,100,417.2,100.3z"/>
		<path class="st1" d="M210.4,120.6c-0.1,0-0.4,0-0.7,0.1c-0.3,0.1-0.5,0.2-0.6,0.2c-0.2,0.1-0.3,0.4-0.4,0.7s-0.1,0.8-0.1,1.4v7.9
			H208l-6.6-8.8v5.6c0,0.6,0,1.1,0.1,1.4s0.2,0.6,0.4,0.7c0.1,0.1,0.4,0.2,0.7,0.3c0.4,0.1,0.6,0.1,0.7,0.2v0.5H199v-0.5
			c0.1,0,0.4-0.1,0.7-0.1c0.3-0.1,0.5-0.2,0.6-0.2c0.2-0.1,0.3-0.4,0.4-0.6c0.1-0.3,0.1-0.8,0.1-1.5v-5.3c0-0.2,0-0.5-0.1-0.7
			c-0.1-0.2-0.2-0.4-0.3-0.5c-0.2-0.2-0.4-0.3-0.7-0.4c-0.3-0.1-0.6-0.2-0.8-0.2v-0.5h3.1l6.1,8.2v-5.1c0-0.6,0-1.1-0.1-1.5
			c-0.1-0.3-0.2-0.6-0.3-0.7c-0.1-0.1-0.4-0.2-0.7-0.3c-0.3-0.1-0.6-0.1-0.7-0.2v-0.5h4.4V120.6z"/>
		<path class="st1" d="M217.8,129.1c-0.3,0.6-0.7,1.1-1.3,1.4c-0.5,0.4-1.1,0.5-1.8,0.5c-0.6,0-1.1-0.1-1.6-0.3
			c-0.5-0.2-0.8-0.5-1.1-0.9c-0.3-0.4-0.5-0.8-0.7-1.3c-0.1-0.5-0.2-1-0.2-1.5c0-0.5,0.1-1,0.2-1.4s0.4-0.9,0.7-1.3
			c0.3-0.4,0.6-0.6,1.1-0.9c0.4-0.2,0.9-0.3,1.4-0.3c0.6,0,1,0.1,1.4,0.3c0.4,0.2,0.7,0.4,0.9,0.7c0.2,0.3,0.4,0.6,0.5,1
			c0.1,0.4,0.2,0.8,0.2,1.3v0.5h-5c0,0.5,0,0.9,0.1,1.3c0.1,0.4,0.2,0.8,0.4,1.1c0.2,0.3,0.5,0.5,0.8,0.7c0.3,0.2,0.7,0.3,1.1,0.3
			c0.5,0,0.8-0.1,1.2-0.3c0.3-0.2,0.6-0.6,0.9-1.1L217.8,129.1z M216.1,126.3c0-0.3,0-0.6-0.1-0.9c0-0.3-0.1-0.6-0.2-0.8
			c-0.1-0.2-0.3-0.4-0.5-0.6c-0.2-0.1-0.5-0.2-0.8-0.2c-0.5,0-1,0.2-1.3,0.7s-0.5,1.1-0.6,1.8C212.6,126.3,216.1,126.3,216.1,126.3z
			"/>
		<path class="st1" d="M229.8,123.9c-0.2,0-0.4,0.1-0.7,0.3c-0.2,0.2-0.4,0.4-0.5,0.7c-0.3,0.7-0.5,1.5-0.7,2.1
			c-0.2,0.7-0.5,1.4-0.8,2.3c-0.1,0.3-0.2,0.6-0.3,0.9c-0.1,0.3-0.2,0.6-0.3,0.9H226l-2-5.5l-2,5.5h-0.6c-0.4-1.1-0.8-2.2-1.1-3.4
			c-0.4-1.1-0.7-2.1-1-2.9c-0.1-0.2-0.2-0.4-0.5-0.6s-0.4-0.2-0.7-0.2v-0.5h3.3v0.5c-0.2,0-0.3,0-0.5,0.1c-0.2,0-0.3,0.1-0.3,0.3
			c0,0,0,0.1,0,0.1c0,0.1,0,0.1,0.1,0.2c0.2,0.5,0.3,1.1,0.6,1.8c0.2,0.7,0.5,1.5,0.8,2.6l1.9-5.4h0.7l2,5.3c0.2-0.7,0.4-1.3,0.6-2
			c0.2-0.6,0.4-1.2,0.6-1.8c0-0.1,0.1-0.3,0.1-0.4c0-0.1,0-0.2,0-0.3c0-0.1,0-0.2-0.1-0.2s-0.2-0.1-0.3-0.2c-0.1,0-0.2-0.1-0.3-0.1
			c-0.1,0-0.2,0-0.3,0v-0.5h2.9L229.8,123.9L229.8,123.9z"/>
		<path class="st1" d="M239.7,124.3c0,0.3-0.1,0.5-0.2,0.7c-0.1,0.2-0.3,0.3-0.6,0.3c-0.3,0-0.5-0.1-0.6-0.2
			c-0.1-0.1-0.2-0.3-0.2-0.5c0-0.1,0-0.2,0-0.3c0-0.1,0-0.2,0-0.3c-0.2,0-0.5,0.1-0.8,0.3c-0.3,0.2-0.6,0.5-0.8,0.8v4.4
			c0,0.2,0,0.3,0.1,0.4c0.1,0.1,0.2,0.2,0.3,0.3c0.1,0,0.3,0.1,0.5,0.1c0.2,0,0.4,0,0.5,0v0.5h-4v-0.5c0.1,0,0.2,0,0.4,0
			c0.1,0,0.2,0,0.3-0.1c0.1,0,0.3-0.1,0.3-0.2c0.1-0.1,0.1-0.3,0.1-0.4V125c0-0.2,0-0.3-0.1-0.5c-0.1-0.2-0.2-0.3-0.3-0.4
			c-0.1-0.1-0.2-0.1-0.3-0.1c-0.1,0-0.3,0-0.4-0.1v-0.5l2.5-0.2l0.1,0.1v1.1h0c0.3-0.4,0.7-0.7,1.1-0.9c0.4-0.2,0.7-0.3,1.1-0.3
			s0.6,0.1,0.8,0.3C239.6,123.7,239.7,124,239.7,124.3z"/>
		<path class="st1" d="M247,129.1c-0.3,0.6-0.7,1.1-1.3,1.4c-0.5,0.4-1.1,0.5-1.8,0.5c-0.6,0-1.1-0.1-1.6-0.3
			c-0.5-0.2-0.8-0.5-1.1-0.9s-0.5-0.8-0.7-1.3s-0.2-1-0.2-1.5c0-0.5,0.1-1,0.2-1.4s0.4-0.9,0.7-1.3c0.3-0.4,0.6-0.6,1.1-0.9
			c0.4-0.2,0.9-0.3,1.4-0.3c0.6,0,1,0.1,1.4,0.3c0.4,0.2,0.7,0.4,0.9,0.7c0.2,0.3,0.4,0.6,0.5,1c0.1,0.4,0.2,0.8,0.2,1.3v0.5h-5
			c0,0.5,0,0.9,0.1,1.3c0.1,0.4,0.2,0.8,0.4,1.1c0.2,0.3,0.5,0.5,0.8,0.7s0.7,0.3,1.1,0.3c0.5,0,0.8-0.1,1.2-0.3
			c0.3-0.2,0.6-0.6,0.9-1.1L247,129.1z M245.3,126.3c0-0.3,0-0.6-0.1-0.9s-0.1-0.6-0.2-0.8c-0.1-0.2-0.3-0.4-0.5-0.6
			c-0.2-0.1-0.5-0.2-0.8-0.2c-0.5,0-1,0.2-1.3,0.7c-0.4,0.4-0.5,1.1-0.6,1.8C241.8,126.3,245.3,126.3,245.3,126.3z"/>
		<path class="st1" d="M251.4,130.9h-3.7v-0.5c0.1,0,0.2,0,0.4,0c0.1,0,0.2,0,0.3-0.1c0.1,0,0.3-0.1,0.3-0.2
			c0.1-0.1,0.1-0.3,0.1-0.4v-8.7c0-0.2,0-0.4-0.1-0.5c-0.1-0.2-0.2-0.3-0.3-0.4c-0.1-0.1-0.3-0.1-0.5-0.2c-0.2,0-0.4-0.1-0.6-0.1
			v-0.5l2.8-0.2l0.1,0.1v10.3c0,0.2,0,0.3,0.1,0.4s0.2,0.2,0.3,0.3c0.1,0,0.2,0.1,0.3,0.1c0.1,0,0.2,0,0.4,0V130.9z"/>
		<path class="st1" d="M259,129.1c-0.3,0.6-0.7,1.1-1.3,1.4c-0.5,0.4-1.1,0.5-1.8,0.5c-0.6,0-1.1-0.1-1.6-0.3
			c-0.5-0.2-0.8-0.5-1.1-0.9s-0.5-0.8-0.7-1.3s-0.2-1-0.2-1.5c0-0.5,0.1-1,0.2-1.4s0.4-0.9,0.7-1.3c0.3-0.4,0.6-0.6,1.1-0.9
			c0.4-0.2,0.9-0.3,1.4-0.3c0.6,0,1,0.1,1.4,0.3c0.4,0.2,0.7,0.4,0.9,0.7c0.2,0.3,0.4,0.6,0.5,1c0.1,0.4,0.2,0.8,0.2,1.3v0.5h-5
			c0,0.5,0,0.9,0.1,1.3c0.1,0.4,0.2,0.8,0.4,1.1c0.2,0.3,0.5,0.5,0.8,0.7s0.7,0.3,1.1,0.3c0.5,0,0.8-0.1,1.2-0.3
			c0.3-0.2,0.6-0.6,0.9-1.1L259,129.1z M257.3,126.3c0-0.3,0-0.6-0.1-0.9s-0.1-0.6-0.2-0.8c-0.1-0.2-0.3-0.4-0.5-0.6
			c-0.2-0.1-0.5-0.2-0.8-0.2c-0.5,0-1,0.2-1.3,0.7c-0.4,0.4-0.5,1.1-0.6,1.8C253.8,126.3,257.3,126.3,257.3,126.3z"/>
		<path class="st1" d="M267,130.8c-0.2,0.1-0.4,0.2-0.6,0.2c-0.2,0-0.4,0.1-0.6,0.1c-0.4,0-0.7-0.1-0.9-0.3
			c-0.2-0.2-0.4-0.5-0.5-0.8h0c-0.3,0.4-0.7,0.6-1.1,0.8c-0.4,0.2-0.8,0.3-1.4,0.3c-0.6,0-1-0.2-1.4-0.5c-0.4-0.3-0.5-0.8-0.5-1.4
			c0-0.3,0-0.6,0.1-0.8c0.1-0.2,0.2-0.4,0.4-0.6c0.1-0.2,0.3-0.3,0.5-0.4s0.4-0.2,0.6-0.3c0.2-0.1,0.7-0.3,1.4-0.5
			c0.7-0.2,1.2-0.4,1.4-0.6v-0.8c0-0.1,0-0.2,0-0.4c0-0.2-0.1-0.4-0.2-0.5c-0.1-0.2-0.2-0.3-0.4-0.5c-0.2-0.1-0.4-0.2-0.8-0.2
			c-0.2,0-0.5,0-0.6,0.1c-0.2,0.1-0.3,0.2-0.4,0.3c0,0.1,0,0.3,0.1,0.4c0,0.2,0.1,0.4,0.1,0.6c0,0.2-0.1,0.3-0.2,0.5
			c-0.2,0.1-0.4,0.2-0.7,0.2c-0.3,0-0.4-0.1-0.6-0.3s-0.2-0.4-0.2-0.6c0-0.2,0.1-0.5,0.3-0.7c0.2-0.2,0.4-0.4,0.6-0.6
			c0.2-0.1,0.5-0.3,0.8-0.4s0.6-0.1,0.9-0.1c0.4,0,0.8,0,1.1,0.1c0.3,0.1,0.6,0.2,0.9,0.4c0.3,0.2,0.5,0.4,0.6,0.8
			c0.1,0.3,0.2,0.7,0.2,1.2c0,0.7,0,1.4,0,1.9s0,1.2,0,1.8c0,0.2,0,0.4,0.1,0.5c0.1,0.1,0.2,0.2,0.3,0.3c0.1,0,0.2,0.1,0.4,0.1
			s0.3,0,0.5,0L267,130.8L267,130.8z M264.3,126.7c-0.4,0.1-0.8,0.3-1.1,0.4c-0.3,0.1-0.6,0.3-0.9,0.5c-0.3,0.2-0.5,0.4-0.6,0.6
			c-0.1,0.2-0.2,0.5-0.2,0.8c0,0.4,0.1,0.7,0.3,0.9c0.2,0.2,0.5,0.3,0.8,0.3c0.4,0,0.7-0.1,0.9-0.3c0.3-0.2,0.5-0.4,0.7-0.6
			L264.3,126.7z"/>
		<path class="st1" d="M272.7,127.2c0.2,0.2,0.4,0.4,0.5,0.6c0.1,0.2,0.2,0.5,0.2,0.9c0,0.7-0.3,1.3-0.8,1.7s-1.2,0.7-2,0.7
			c-0.4,0-0.8-0.1-1.2-0.2c-0.4-0.2-0.6-0.3-0.8-0.4l-0.2,0.5h-0.6l-0.1-2.6h0.5c0,0.2,0.1,0.4,0.3,0.7c0.1,0.3,0.3,0.5,0.5,0.7
			c0.2,0.2,0.4,0.4,0.7,0.6c0.3,0.2,0.6,0.2,0.9,0.2c0.5,0,0.9-0.1,1.1-0.3c0.3-0.2,0.4-0.5,0.4-0.9c0-0.2,0-0.4-0.1-0.6
			c-0.1-0.2-0.2-0.3-0.4-0.4c-0.2-0.1-0.4-0.2-0.6-0.3c-0.2-0.1-0.5-0.2-0.8-0.3c-0.2-0.1-0.5-0.2-0.8-0.3c-0.3-0.1-0.5-0.3-0.8-0.4
			c-0.2-0.2-0.4-0.4-0.6-0.7c-0.1-0.3-0.2-0.6-0.2-0.9c0-0.6,0.2-1.1,0.7-1.6c0.5-0.4,1.1-0.6,1.8-0.6c0.3,0,0.6,0,0.9,0.1
			c0.3,0.1,0.6,0.2,0.8,0.3l0.2-0.4h0.6l0.1,2.4h-0.5c-0.1-0.5-0.3-1-0.7-1.3c-0.3-0.3-0.8-0.5-1.3-0.5c-0.4,0-0.7,0.1-1,0.3
			c-0.2,0.2-0.4,0.5-0.4,0.8c0,0.2,0,0.4,0.1,0.6c0.1,0.2,0.2,0.3,0.4,0.4c0.2,0.1,0.3,0.2,0.6,0.3c0.2,0.1,0.5,0.2,0.9,0.3
			c0.3,0.1,0.6,0.2,0.9,0.4C272.2,126.9,272.5,127,272.7,127.2z"/>
		<path class="st1" d="M281.1,129.1c-0.3,0.6-0.7,1.1-1.3,1.4c-0.5,0.4-1.1,0.5-1.8,0.5c-0.6,0-1.1-0.1-1.6-0.3
			c-0.5-0.2-0.8-0.5-1.1-0.9c-0.3-0.4-0.5-0.8-0.7-1.3c-0.1-0.5-0.2-1-0.2-1.5c0-0.5,0.1-1,0.2-1.4s0.4-0.9,0.7-1.3
			c0.3-0.4,0.6-0.6,1.1-0.9c0.4-0.2,0.9-0.3,1.4-0.3c0.6,0,1,0.1,1.4,0.3c0.4,0.2,0.7,0.4,0.9,0.7c0.2,0.3,0.4,0.6,0.5,1
			c0.1,0.4,0.2,0.8,0.2,1.3v0.5h-5c0,0.5,0,0.9,0.1,1.3s0.2,0.8,0.4,1.1c0.2,0.3,0.5,0.5,0.8,0.7c0.3,0.2,0.7,0.3,1.1,0.3
			c0.5,0,0.8-0.1,1.2-0.3c0.3-0.2,0.6-0.6,0.9-1.1L281.1,129.1z M279.4,126.3c0-0.3,0-0.6-0.1-0.9c0-0.3-0.1-0.6-0.2-0.8
			c-0.1-0.2-0.3-0.4-0.5-0.6c-0.2-0.1-0.5-0.2-0.8-0.2c-0.5,0-1,0.2-1.3,0.7c-0.4,0.4-0.5,1.1-0.6,1.8
			C276,126.3,279.4,126.3,279.4,126.3z"/>
		<path class="st1" d="M289.4,130.9h-3.6v-0.5c0.1,0,0.2,0,0.4,0c0.1,0,0.2,0,0.3-0.1c0.1,0,0.3-0.1,0.3-0.2
			c0.1-0.1,0.1-0.3,0.1-0.4V125c0-0.2,0-0.3-0.1-0.4c-0.1-0.1-0.2-0.3-0.3-0.3c-0.1-0.1-0.2-0.1-0.4-0.2c-0.2,0-0.3-0.1-0.5-0.1
			v-0.5l2.7-0.2l0.1,0.1v6.1c0,0.2,0,0.3,0.1,0.4c0.1,0.1,0.2,0.2,0.3,0.3c0.1,0,0.2,0.1,0.3,0.1s0.2,0,0.4,0.1L289.4,130.9
			L289.4,130.9z M288.5,120.3c0,0.3-0.1,0.5-0.3,0.8c-0.2,0.2-0.4,0.3-0.7,0.3c-0.3,0-0.5-0.1-0.7-0.3c-0.2-0.2-0.3-0.4-0.3-0.7
			c0-0.3,0.1-0.5,0.3-0.7c0.2-0.2,0.4-0.3,0.7-0.3c0.3,0,0.5,0.1,0.7,0.3C288.3,119.8,288.5,120.1,288.5,120.3z"/>
		<path class="st1" d="M298.6,130.9H295v-0.5c0.1,0,0.2,0,0.4,0c0.1,0,0.3,0,0.3-0.1c0.1,0,0.3-0.1,0.3-0.2c0.1-0.1,0.1-0.3,0.1-0.4
			v-3.9c0-0.5-0.1-0.9-0.4-1.2c-0.3-0.3-0.6-0.4-0.9-0.4c-0.3,0-0.5,0-0.7,0.1c-0.2,0.1-0.4,0.2-0.6,0.3c-0.2,0.1-0.3,0.2-0.4,0.4
			s-0.2,0.2-0.2,0.3v4.3c0,0.2,0,0.3,0.1,0.4c0.1,0.1,0.2,0.2,0.3,0.3c0.1,0,0.2,0.1,0.3,0.1c0.1,0,0.3,0,0.4,0v0.5h-3.7v-0.5
			c0.1,0,0.2,0,0.4,0c0.1,0,0.2,0,0.3-0.1c0.1,0,0.3-0.1,0.3-0.2c0.1-0.1,0.1-0.3,0.1-0.4V125c0-0.2,0-0.3-0.1-0.5
			c-0.1-0.1-0.2-0.3-0.3-0.3c-0.1-0.1-0.2-0.1-0.3-0.1c-0.1,0-0.3,0-0.4-0.1v-0.5l2.5-0.2l0.1,0.1v1.1h0c0.1-0.1,0.3-0.3,0.5-0.4
			c0.2-0.2,0.4-0.3,0.5-0.4c0.2-0.1,0.4-0.2,0.7-0.3c0.3-0.1,0.6-0.1,0.9-0.1c0.7,0,1.3,0.2,1.6,0.7c0.3,0.4,0.5,1,0.5,1.8v3.9
			c0,0.2,0,0.3,0.1,0.4s0.2,0.2,0.3,0.3c0.1,0,0.2,0.1,0.3,0.1c0.1,0,0.2,0,0.4,0L298.6,130.9L298.6,130.9z"/>
		<path class="st1" d="M310.7,130.9h-7.1v-1c0.1-0.2,0.3-0.3,0.6-0.5c0.2-0.2,0.5-0.4,0.9-0.6c0.2-0.1,0.4-0.3,0.7-0.4
			c0.3-0.2,0.6-0.3,1-0.5c0.4-0.2,0.7-0.4,0.9-0.6c0.2-0.2,0.4-0.4,0.6-0.6c0.1-0.2,0.2-0.3,0.3-0.6c0.1-0.2,0.1-0.6,0.1-1
			c0-0.6-0.2-1.1-0.5-1.4c-0.3-0.3-0.8-0.4-1.3-0.4c-0.3,0-0.6,0.1-0.9,0.2c-0.3,0.1-0.5,0.3-0.7,0.5c0,0.2,0.1,0.4,0.1,0.6
			c0,0.2,0.1,0.4,0.1,0.7c0,0.2-0.1,0.4-0.2,0.5c-0.2,0.1-0.4,0.2-0.7,0.2c-0.3,0-0.4-0.1-0.6-0.3c-0.1-0.2-0.2-0.4-0.2-0.7
			c0-0.3,0.1-0.6,0.2-0.8c0.2-0.3,0.4-0.5,0.7-0.8c0.3-0.2,0.6-0.4,1-0.6c0.4-0.1,0.9-0.2,1.3-0.2c1,0,1.9,0.2,2.5,0.7
			c0.6,0.5,0.9,1.1,0.9,1.9c0,0.4-0.1,0.7-0.2,1c-0.1,0.3-0.3,0.6-0.5,0.8c-0.3,0.3-0.6,0.5-0.9,0.7c-0.4,0.2-0.9,0.4-1.7,0.8
			c-0.4,0.2-0.9,0.4-1.2,0.6c-0.4,0.2-0.7,0.4-0.9,0.6h5.9L310.7,130.9L310.7,130.9z"/>
		<path class="st1" d="M319.3,123.8c0.3,0.4,0.6,0.9,0.7,1.4c0.2,0.5,0.2,1.1,0.2,1.6c0,0.7-0.1,1.3-0.3,1.9c-0.2,0.6-0.5,1-0.8,1.4
			c-0.4,0.4-0.8,0.6-1.3,0.8c-0.5,0.2-1,0.3-1.6,0.3c-0.7,0-1.2-0.1-1.8-0.3c-0.5-0.2-0.9-0.5-1.2-0.9c-0.3-0.4-0.6-0.9-0.8-1.4
			c-0.2-0.5-0.3-1.1-0.3-1.7c0-0.6,0.1-1.2,0.2-1.7c0.2-0.5,0.4-1,0.8-1.4c0.3-0.4,0.7-0.7,1.3-0.9c0.5-0.2,1.1-0.3,1.8-0.3
			c0.7,0,1.3,0.1,1.8,0.3C318.6,123.1,319,123.4,319.3,123.8z M318.6,126.8c0-1.2-0.2-2.1-0.6-2.8c-0.4-0.7-1-1-1.7-1
			s-1.3,0.3-1.7,1c-0.4,0.7-0.6,1.6-0.6,2.8c0,1.2,0.2,2.1,0.6,2.8c0.4,0.7,1,1,1.7,1c0.7,0,1.3-0.3,1.7-1
			C318.4,128.9,318.6,127.9,318.6,126.8z"/>
		<path class="st1" d="M329,130.9h-7.1v-1c0.1-0.2,0.3-0.3,0.6-0.5c0.2-0.2,0.5-0.4,0.9-0.6c0.2-0.1,0.4-0.3,0.7-0.4
			c0.3-0.2,0.6-0.3,1-0.5c0.4-0.2,0.7-0.4,0.9-0.6c0.2-0.2,0.4-0.4,0.6-0.6c0.1-0.2,0.2-0.3,0.3-0.6c0.1-0.2,0.1-0.6,0.1-1
			c0-0.6-0.2-1.1-0.5-1.4c-0.3-0.3-0.8-0.4-1.3-0.4c-0.3,0-0.6,0.1-0.9,0.2c-0.3,0.1-0.5,0.3-0.7,0.5c0,0.2,0.1,0.4,0.1,0.6
			c0,0.2,0.1,0.4,0.1,0.7c0,0.2-0.1,0.4-0.2,0.5c-0.2,0.1-0.4,0.2-0.7,0.2c-0.3,0-0.4-0.1-0.6-0.3c-0.1-0.2-0.2-0.4-0.2-0.7
			c0-0.3,0.1-0.6,0.2-0.8c0.2-0.3,0.4-0.5,0.7-0.8c0.3-0.2,0.6-0.4,1-0.6c0.4-0.1,0.9-0.2,1.3-0.2c1,0,1.9,0.2,2.5,0.7
			c0.6,0.5,0.9,1.1,0.9,1.9c0,0.4-0.1,0.7-0.2,1c-0.1,0.3-0.3,0.6-0.5,0.8c-0.3,0.3-0.6,0.5-0.9,0.7c-0.4,0.2-0.9,0.4-1.7,0.8
			c-0.4,0.2-0.9,0.4-1.2,0.6c-0.4,0.2-0.7,0.4-0.9,0.6h5.9L329,130.9L329,130.9z"/>
		<path class="st1" d="M333.5,133.7c-0.5,0-0.9-0.1-1.3-0.2c-0.4-0.1-0.7-0.3-1-0.5c-0.3-0.2-0.5-0.4-0.7-0.7
			c-0.2-0.3-0.2-0.5-0.2-0.8c0-0.3,0.1-0.5,0.2-0.7s0.3-0.3,0.6-0.3c0.3,0,0.5,0.1,0.7,0.2c0.2,0.1,0.2,0.3,0.2,0.5
			c0,0.2,0,0.4-0.1,0.6c0,0.3-0.1,0.4-0.1,0.5c0,0,0.1,0.1,0.2,0.2c0.1,0.1,0.2,0.1,0.3,0.2c0.2,0.1,0.3,0.1,0.5,0.2
			c0.2,0,0.4,0.1,0.8,0.1c0.3,0,0.6,0,0.9-0.2c0.3-0.1,0.5-0.3,0.7-0.5c0.2-0.2,0.4-0.5,0.5-0.8c0.1-0.3,0.2-0.7,0.2-1.2
			c0-0.3,0-0.5-0.1-0.8c-0.1-0.3-0.2-0.5-0.3-0.7s-0.4-0.3-0.6-0.5c-0.3-0.1-0.6-0.2-1-0.2h-1v-0.9h0.7c0.7,0,1.2-0.2,1.5-0.6
			c0.3-0.4,0.5-1,0.5-1.7c0-0.6-0.2-1.1-0.5-1.4c-0.3-0.3-0.7-0.5-1.3-0.5c-0.3,0-0.5,0-0.6,0.1c-0.2,0.1-0.3,0.1-0.4,0.2
			c-0.1,0.1-0.2,0.1-0.3,0.2s-0.1,0.1-0.2,0.2c0,0.2,0.1,0.4,0.1,0.6c0,0.2,0.1,0.5,0.1,0.7c0,0.2-0.1,0.4-0.2,0.5
			c-0.2,0.1-0.4,0.2-0.7,0.2c-0.3,0-0.5-0.1-0.6-0.3c-0.1-0.2-0.2-0.4-0.2-0.7c0-0.3,0.1-0.5,0.2-0.8c0.1-0.3,0.4-0.5,0.7-0.8
			c0.3-0.2,0.6-0.4,1.1-0.6c0.4-0.1,0.9-0.2,1.4-0.2c0.6,0,1.1,0.1,1.5,0.3s0.7,0.4,1,0.7c0.2,0.3,0.4,0.5,0.5,0.8
			c0.1,0.3,0.1,0.5,0.1,0.7c0,0.3,0,0.5-0.1,0.8c-0.1,0.3-0.2,0.5-0.3,0.7c-0.2,0.2-0.4,0.5-0.7,0.6c-0.3,0.2-0.7,0.4-1.1,0.5v0.1
			c0.3,0,0.6,0.1,0.9,0.2c0.3,0.1,0.6,0.3,0.9,0.4c0.3,0.2,0.5,0.5,0.7,0.8c0.2,0.3,0.3,0.7,0.3,1.2c0,1-0.4,1.8-1.2,2.4
			C335.6,133.4,334.7,133.7,333.5,133.7z"/>
	</g>
</g>
<g id="layer2">
	<path class="st4" d="M700.8,24.8c18.2,5.6,36.3,11.3,54.5,16.9c0.4,0.5,0.2,1.1,0.2,1.7c0,0.9,0.4,1.8,0.3,2.7
		c-0.2,0.3-0.1,0.7-0.3,0.8c0.1-0.1,0.1-0.5,0.2-0.8c0.3-0.5,0.6-0.3,0.9,0c0.1,0.1,0.1,0.2,0.2,0.3c0.5,0.6,0.5,1.4,0.7,2
		c0.2,0.6-0.1,1-0.6,1.3c-0.4,0.2-1.2,0.5-0.1,0.9c0.3,0.1,0.2,0.5,0.2,0.8c0,0.3,0,0.5,0.2,0.8c0.2,0.2,0.4,0.2,0.6,0.1
		c0.3-0.1,0.6,0,0.8,0.1c0.1,0.1,0.2,0.3,0.2,0.4c0,0.4,0.3,0.6,0.5,0.9c0.9,2.4,1.8,4.8,2.1,7.3c0.1,0.5,0.1,1.1-0.1,1.5
		c-0.7,1.3-0.2,2.8-0.4,4.1c0,0.2,0.1,0.4,0.2,0.6c0.1,0.2,0.1,0.6,0.5,0.3c0.3-0.3,0.6-0.5,1.1-0.4c0.3,0,0.4,0.2,0.6,0.4
		c-0.1-0.3-0.4-0.5-0.4-0.8c0-1.3,0.6-1.8,1.8-1.3c0.4,0.2,0.6-0.1,0.9-0.1c0.1-0.1,0.2-0.2,0.4-0.3c1-0.4,2-0.1,2.8,0.4
		c0.5,0.3,1,0.4,1.5,0.4c0.3,0,0.5,0.1,0.7,0.2c1.2-0.1,2.3,0,3.4,0.1c0.2,0.1,0.5,0.2,0.7,0.3c0.1,0.1,0.2,0.2,0.2,0.2
		c0.7-0.5,1.1,0.1,1.7,0.3c0.2,0.1,0.4,0.1,0.6,0.2c0.5,0.2,0.9,0.5,0.6,1.2c-0.1,0.1-0.2,0.2-0.2,0.3c0.2,0,0.2-0.1,0.3-0.2
		c1.2-0.8,2.5-0.4,3.8-0.5c1.6-0.2,2.1-0.6,1.9-2.1c-0.1-0.9,0.3-1.3,0.9-1.8c1-0.8,2-1.6,3.2-2.2c0.4-0.2,0.9-0.4,1.4-0.4
		c3.2,0.2,6.2-0.6,8.7-2.8c0.8-0.7,1.7-1.1,2.6-1.7c0.8-0.5,1.6-0.2,2.4-0.2c10.6,3.3,21.1,6.6,31.7,9.8c0.6,0.2,0.8,0.4,0.5,1
		c-24.4,78.5-48.8,157.1-73.2,235.7c-0.3,1-0.8,0.6-1.3,0.5C666.1,274.1,571,244.5,475.8,215c-0.2-0.4,0-0.8,0.3-0.8
		c1.2,0,1.8-1.4,3.1-1.2c0.1,0,0.1,0,0.1,0c1.3-0.7,2.6-1.5,3.8-2.3c0.3-0.3,0.8-0.2,1-0.6c0.3-0.4,0.7-0.4,1-0.7
		c0.4-0.3,0.7-0.5,0.7-1c0-0.4,0.2-0.6,0.5-0.8c2.6-1.5,5.2-2.8,7.8-4c1.3-0.6,2.7-1,3.8-2c0.8-0.7,1.9-1,3-1.1
		c0.7-0.1,1.3-0.5,1.9-0.8c0.7-0.4,0.7-0.8,0.2-1.3c-0.5-0.5-1-0.9-1.4-1.5c-0.3-0.5-1.1-0.3-1.6-0.5c-0.6-0.1-1.1-0.5-1.7-0.4
		c-0.6,0-1.3,0-1.6-0.7c-0.3-0.9,0.4-1.5,1-2.1c0.1-0.2,0.2-0.4,0.3-0.6c0.1-0.3,0.1-0.7,0-1c0-0.6,0.6-0.8,0.8-1.3
		c0.1-0.2,0.4-0.6,0.2-0.7c-0.4-0.3-0.9-0.2-1.4-0.2c-0.3,0-0.4,0.3-0.4,0.6c0.2,0.6,0.4,1.3-0.4,1.6c-0.8,0.4-1.6,0.7-2.5,0.3
		c-0.8-0.4-0.8-0.6-0.2-1.2c0.2-0.1,0.3-0.3,0.5-0.4c0.5-0.4,0.7-0.7,0-1.1c-0.8-0.5-0.7-0.9,0.1-1.4c0.7-0.4,1.1-1.3,2.1-1.3
		c-1.6-0.4-3.2-0.8-4.5,0.9c-0.7,0.9-1.4,0.9-2,0.3c-0.2,0.2,0,0.5,0,0.8c0,0.2,0,0.3-0.1,0.4c-0.4,1.5-0.9,1.7-2.1,0.6
		c-0.8-0.7-1.5-1-2.5-0.7c-0.8,0.3-1.3,0-1.5-0.9c-0.1-0.4-0.3-0.8-0.7-1.1c-0.4-0.4-0.6-0.8-0.5-1.4c0-0.2,0.1-0.4,0.1-0.7
		c-0.2-1.1-0.8-2-1.4-2.9c-0.3-0.5-0.7-1-1-1.5c-0.2-0.6-0.6-1-1.2-1.2c-0.5-0.8-0.2-1.6,0.4-2c0.9-0.7,1.2-1.6,1.4-2.6
		c0.1-0.5,0.2-1,0.5-1.3c0.8-0.8,0.6-1.5,0.1-2.2c-0.2-0.4-0.8-0.9,0-1.3c0.1-0.1,0,0,0.1,0c0.6-1.7,2.2-2.1,3.3-3.2
		c0.8-0.8,1.5-1.7,2-2.7c0.3-0.6,0.6-1.1,1.1-1.6c1-0.9,1.5-1.9,1.6-3.4c0.1-1.2-0.2-2.7,1.1-3.5c0.3-0.2,0.3-0.5,0.3-0.8
		c-0.1-1.2,0.3-2.2,1.1-3c0.4-0.4,0.7-0.8,0.9-1.4c0.3-1,0.5-1.9,1.4-2.5c0.1-0.1,0.3-0.3,0.3-0.5c0.3-1.4,1.3-2.1,2.5-2.8
		c2.1-1.1,4.3-2.2,5.6-4.4c0.2-0.3,0.5-0.5,0.9-0.7c1.7-0.7,2.8-2.1,3.9-3.5c0.9-1.1,1.9-2.3,3.1-3.3c2-1.5,4.1-2.7,6.2-3.9
		c0.9-0.5,1.6-1.1,2.4-1.7c1-0.7,1.9-1.6,3.1-2c1.4-0.5,2.4-1.6,3.2-2.6c0.9-1,2-1.6,3.1-2.2c0.8-0.5,1.9-0.9,2.9-1
		c0.9-0.1,1.8-0.4,2.6-0.8c0.4-0.2,0.8-0.3,1.2-0.3c0.8,0.1,1.6,0.1,2.4,0c0.8-0.1,1.6,0.1,2.2,0.8c0.5,0.5,1.1,1,1.9,1.2
		c0.6,0.1,0.7,0.6,0.6,1.2c-0.1,0.3-0.3,0.7-0.1,1c0.9,0.2,1.2-1.1,2.2-0.6c0.2,0.3,0.1,0.5,0,0.8c0,0.1-0.1,0.2-0.2,0.3
		c-0.2,0.2-0.5,0.4-0.7,0.7c0.1,0.1,0.1,0,0.1-0.1c0.2-0.3,0.4-0.4,0.6-0.6c1-0.6,2-1.2,2.8-2.2c0.3-0.3,0.6-0.5,1.1-0.4
		c0.2,0.1,0.5,0.2,0.6,0.1c1.3-1.4,3.4-0.9,5-1.9c0.9-0.6,1.6-1.5,2.4-2.2c0.2-0.2,0.2-0.5,0.2-0.7c-0.1-0.5,0.1-0.9,0.2-1.4
		c0.4-1.7,1.4-2.5,3.2-3c1.2-0.4,2.5-1.1,3.7-1.6c1.1-0.5,2.1-0.9,3.4-0.6c1,0.2,2.4-0.9,3-1.7c0.7-1.1,0.9-1.9-0.2-2.9
		c-0.7-0.7-1.1-1.7-1.7-2.5c-0.5-0.6-0.4-1.6-0.5-2.4c-0.1-1.5-0.5-2.8-0.9-4.2c-0.9-2.8-1.2-5.7,0.2-8.5c0.4-0.7,0.7-1.4,0.3-2.3
		c-0.2-0.3,0-0.7,0.2-0.9c0.7-1.2,1.5-2.5,2.6-3.4c0.4-0.3,0.9-0.6,1.4-0.6c0.8,0,1.3-0.3,1.8-0.9c0.3-0.4,0.7-0.6,1.1-0.1
		c0,0.5,0.4,0.5,0.7,0.7c0.2,0.1,0.3,0.2,0.5,0.3c0.9,0,1.6-0.3,2.4-0.7c0.4-0.2,0.6,0.8,1.1,0.3c0.4-0.8,0.9-0.6,1.6-0.4
		c0.2,0.1,0.4,0.3,0.6,0.4c0.1,0.2,0.3,0.5,0.5,0.1c0.1-0.2,0.3-0.4,0.5-0.5c0.1,0,0.2-0.1,0.3-0.1c0.3,0,0.6,0,0.9,0
		c0.2,0,0.3,0,0.4,0.1c0.3,0.2,0.5,0.3,0.7,0.5c0.3,0.5,0.8,0.5,1.2,0.7c0.1,0.1,0.3,0.2,0.4,0.3c0.1,0.3,0,0.5-0.1,0.8
		c-0.2,0.4-0.6,0.3-0.9,0.5c-0.2,0.1-0.3,0.3-0.5,0.5c-0.2,0.2-0.2,0.4-0.1,0.7c-0.1,0.5,0.5,0.6,0.7,1c0.2,0.4,0.1,0.7-0.4,0.8
		c-1.1,0.3-1.7,1.1-2.1,2.1c-0.3,0.6-1.1,0.7-1.2,1.4c0,0.2-0.1,0.4-0.2,0.6c-0.2,0.3-0.3,0.6-0.3,1c-0.1,0.3-0.1,0.7,0.2,0.9
		c0.8,0.9,0.4,2,0.8,3c0.2,0.4-0.2,0.7-0.5,0.9c-0.7,0.4-1.4,0.7-2.2,0.6c-0.2,0-0.2-0.2-0.4-0.2c0,0,0,0.1,0.1,0.2
		c0,0.2,0,0.5,0,0.7c0,0.1,0,0.2,0,0.3c0.4,1.4,0.8,2.9,2,3.9c0.4,0.3,0.6,0.2,1,0.1c1.5-0.5,2.8,0.3,2.9,1.8c0,0.4,0.1,0.8,0.5,1
		c0.6,0.3,0.6,0.7,0.1,1.2c-0.9,0.9-1.7,1.8-2.7,2.5c-0.1,0.2-0.2,0.5-0.3,0.7c-0.2,0.6-0.6,1.1-1.1,1.5c-0.9,0.7-0.9,1.6,0,2.3
		c0.2,0.2,0.4,0.4,0.6,0.5c0.9,0.3,1.5,0.9,2.1,1.6c0.5,0.6,1.5,0.2,2,0.7c0.3,0.6,0.9,0.4,1.4,0.4c1.1,0.3,2.1-0.4,3.2-0.1
		c0.1,0,0.2,0,0.3,0c0.8,0,1.5-0.3,2.2-0.6c1,0,1.7-0.6,2.5-1.1c0.7-0.3,1.4-0.6,2.1-0.5c0.3,0,0.6-0.1,0.9-0.3
		c0.4-0.1,0.7-0.1,1.1,0c0.4,0.1,0.9,0.1,0.9,0.7c0,0.6-0.2,1-0.8,1.1c-0.4,0.1-0.8,0.1-1.2,0.2c-0.7,0.3-0.8,0.7-0.2,1.2
		c1.2,1,1.1,1.7-0.4,2.3c-0.3,0.1-0.5,0.2-0.6,0.5c-0.3,0.5-0.7,0.8-1.2,0.9c-1.4,0.3-2.2,1.3-3.2,2.2c-0.3,0.3-0.3,0.6-0.1,0.9
		c0.8,2,3.4,3,5,1.8c0.2-0.1,0.4-0.2,0.6-0.3c0.1-0.1,0.3-0.1,0.4-0.2c1.3-1.6,3.2-1.8,5-2c1.5-0.2,2.8-0.8,3.5-2.3
		c0.4-0.8,1.3-1,2-1.2c0.5,0,1,0.1,1.5,0.2c0,0,0-0.1,0-0.1c0,0,0-0.1,0-0.1c0.4-0.8,1-1,1.6-0.3c0.4,0.4,0.7,0.8,1,1.3
		c0.3,0.6,0.7,0.7,1,0c0.2-0.6,0.7-0.9,1.1-1.4c0.8-0.8,0.8-1.2,0-2c-0.1-0.1-0.3-0.2-0.2-0.4c0-1.5-1.2-1.8-2.2-2.2
		c-0.2-0.1-0.5-0.2-0.8-0.2c-0.8-0.2-1.4-0.6-1.4-1.5c0-0.2,0,0,0-0.1c-0.1-0.6-0.8-1-0.5-1.8c0.3-0.7,1-0.4,1.5-0.9
		c0.1-0.1,0.1-0.2,0.2-0.3c0.2-0.3,0.6-0.5,0.2-0.9c-0.6-0.5-1-1.3-1.9-1.4c-0.4,0-0.8-0.2-1,0.1c-0.5,0.8-1.3,0.9-2.1,1.1
		c-0.3,0-0.5,0.3-0.7,0.5c-0.8,0.6-1.7,0.6-2.5,0.6c-0.6,0-1.2-0.3-1.5-1c-0.2-0.5-0.5-1-0.8-1.4c-0.2-0.1-0.5-0.2-0.7-0.4
		c-0.5-0.6-1-0.9-1.8-0.8c-0.7,0.1-1.3,0-1.7-0.7c-0.3-0.5-0.8-0.6-1.3-0.8c-0.6-0.2-0.7-0.5-0.2-1c0.4-0.4,0.6-0.9,0.9-1.4
		c0.9-1.4,1.3-1.5,2.7-0.6c0.3,0.3,0.6,0.6,1.1,0.3c0.9-0.4,1.7-0.6,2.7-0.3c0.3,0.1,0.7,0.1,0.9-0.1c0.8-0.7,2.2-0.7,2.8-1.8
		c0.1-0.2,0.3-0.3,0.4-0.3c1.9-0.1,3.2-1.6,5-2.1c1.1-0.3,1.8-1.5,2.7-2.2c0.3-0.2,0.1-0.5,0-0.8c-0.8-1.1-1.3-2.4-2.6-3.1
		c-0.5-0.3-0.7-0.8-0.8-1.3c-0.3-3.1-1.1-6.2-0.6-9.4c0.1-0.4-0.1-0.8-0.4-1.1c-0.2-0.1-0.4-0.2-0.5-0.4c-0.4-1.6-1.6-3-1.7-4.7
		c0-0.4,0.5-0.7,0.2-1.1c-0.4-1,0.4-1.1,1-1.3c0.3-0.1,0.4-0.3,0.2-0.6c-0.1-0.3-0.1-0.7-0.2-1c-0.2-1.2,0.1-1.6,1.3-1.3
		c1.6,0.3,3.1-0.2,4.6-1.2c-1.7,0.2-2.2-0.1-2.8-1.5c-0.1-0.4-0.2-0.9-0.7-1c-0.3-0.1-0.3-0.4-0.5-0.6c-0.2-0.1-0.3-0.3-0.4-0.4
		c0-0.2,0-0.4,0.1-0.6c0.1-0.1,0.2-0.2,0.4-0.3c0.4-0.1,0.2-0.4,0.2-0.7c0-0.7,0.3-1.4,0.5-2.1c0.2-0.6,0.5-1.2,1.3-0.9
		c0.2,0,0.4,0.1,0.5-0.1c0.3-0.8,1.2-1.4,1-2.5c-0.1-0.6,0.3-1,0.9-1c0.7,0,1.2-0.4,1.9-0.5c0.4,0,0.7,0.4,1-0.1
		c0.1-0.1,0.3-0.2,0.5-0.3c0.8-0.6,1.7-1.2,2-2.2c0.2-0.4,0.5-0.7,0.9-0.9c1-0.5,2.2-0.9,2.6-2.1c0.1-0.3,0.4-0.3,0.8-0.3
		c0.3,0,0.5-0.1,0.6-0.5c0.1-0.7,0.6-0.7,1.2-0.7c0.5-0.1,0.3-0.4,0.3-0.8c0-0.7,0.6-0.9,0.8-1.4c0.3-0.4,0.2-0.9,0.4-1.3
		c0.1-0.1,0.1-0.2,0.2-0.2c0.2-0.1,0.3,0,0.5,0c0.4,0.1,0.7,0.2,1.1,0.4c-0.3-0.5-0.4-0.9,0.2-1.3c1.4-0.3,2.6-0.8,3.6-1.9
		c0.3-0.3,0.6-0.7,1-0.2c0.2,0.3,0.1,0,0.2-0.1c0.4-0.7,0.9-0.7,1.5,0c0.8-1.1,1.9-1.8,3.3-2c0.2,0,0.4,0,0.5-0.1
		c0.8-1.4,1.9-0.8,3-0.7c0.4,0.1,0.5-0.2,0.7-0.4c0.7-0.7,1.6-1.6,2.5-1.8c1.2-0.3,2.5-0.5,3.7,0c0.4,0.2,0.7,0.3,1.2,0
		c0.4-0.2,0.8-0.1,1.1,0.3c0.4,0.6,0.8,0.5,1.4,0.3c0.9-0.4,1.4-0.1,1.6,0.9c0.3-0.5,0-1.5,1.1-1.1c0.1,0.1,0.2,0.2,0.2,0.4
		c0.1-0.1,0-0.2,0-0.4c0.1-0.2,0.2-0.4,0.4-0.5c0.4-0.2,0.7-0.6,1.3-0.3c0.2,0.3,0.5,0.3,0.9,0.2c0.6,0.1,0.9,0.3,0.6,0.9
		c-0.2,0.4-0.2,0.7,0.1,1.1c0.4-0.3,0.4-0.8,0.7-1.2c0.7-1.2,1.5-1.3,2.9-1.1c1.1,0.2,2.3,0.5,3.4,0.1c0.2-0.1,0.4-0.2,0.5-0.1
		c1.1,1,2.3-0.1,3.4,0.1c1.2,0.2,2.4,0.4,3.6,0.4c0.6,0,1.1-0.1,1.4-0.7c0.3-0.5,0.8-0.8,1.4-0.7c0-0.4-0.1-0.7-0.1-1
		c0-0.7-0.5-1.3,0.4-1.9c0.9-0.5,1.7-0.5,2.6,0.1c0.2,0.3,0.4,0.5,0.6,0.8c0.4,1.8,0.4,3.6-0.8,5.1c-0.3,0.4-0.2,0.6,0.3,0.7
		c0.5,0.1,0.9,0.1,1.4,0c0.8-0.1,1.2,0.2,1.3,1.1c0,0.3,0.1,0.5,0.5,0.6c1.2,0.6,2.6,0.1,3.9,0.4c0.5,0,1.1,0.5,1.6,0
		c0.1,0,0.2-0.1,0.3-0.1c0.7-0.1,0.5-0.8,0.8-1.2c0.1-0.1,0.1-0.2,0.2-0.2c0.4-0.1,0.8,0.2,1.2,0.2c0.2,0,0.4,0,0.6,0.1
		c0.2,0.1,0.5,0.1,0.7,0.2c0.4,0.2,0.6-0.1,0.8-0.4c0.7-0.6,1.6-1.1,1.8-2.1c0-0.3,0.3-0.4,0.6-0.4c0.7,0,1.3-0.5,2-0.7
		c1.2-0.4,2.1-1,2.4-2.3c0-0.1,0.2-0.3,0.2-0.4c0.3-0.6,1-0.8,0.9-1.7c-0.2-1.4-0.4-2.7-1.5-3.7C700.9,25.5,700.3,25.3,700.8,24.8z"
		/>
	<path class="st5" d="M413.1,158.3c-0.4,1.4-0.9,2.8-0.8,4.2c0,1.9-0.6,3.7-0.5,5.6c0,1.7-0.7,3.5-1.1,5.2c0.1,0.6-0.1,1.1-0.5,1.5
		c-0.6,1.6-1.2,3.2-1.7,4.8c-0.3,0.8-1.2,1.2-1.5,2.1c-0.3,1.2-1.3,2.1-1.9,3.1c-0.5,1-1.6,1-2.4,1.5c-0.2,0.1-0.4,0-0.6,0.2
		c-0.3,0.6-0.7,1.1-1.5,1c-0.2,0-0.4,0.1-0.4,0.2c-0.6,1.1-1.9,1.7-2,3.1c-9.3-2.9-18.7-5.8-28-8.7c0-0.9,0.9-0.9,1.3-0.9
		c1-0.2,1.2-0.9,1.2-1.6c0-1.2,0.4-2.2,0.9-3.2c0.4-0.7,0.2-1-0.6-1.1c-1.2-0.1-1.4-0.4-1-1.5c0.4-1,0.2-2.1,0.6-3.1
		c0.4-0.9,1.4-0.9,2.1-1.1c0.5-0.2,1,0.3,1.1,1c0,0.2,0.1,1.3,0.7,1.1c0.9-0.3,1.9,0.2,2.6-1c0.5-0.8,1-1.8,1.9-2.5
		c0.6-0.4,0.8-1.3,1-2c0.4-1.3,0.5-2.5-0.2-3.8c-0.6-1.1,0.2-2,1.6-2.8c1-0.6,1.9-0.3,2.8-0.2c0.3,0,0.6,0.2,0.6,0.5
		c-0.2,0.9,0.7,0.8,1,0.8c1.1-0.3,2.2-0.3,3.1-1c0.3-0.3,0.6-0.3,0.9-0.4c1.5-0.6,2.3-1.9,2.9-3.3c0.2-0.5-0.3-1,0-1.3
		c0.7-1,0.6-2.1,0.6-3.3c0-0.5,0.4-0.6,0.8-0.3c0.3,0.2,0.6,0.5,0.7,0.8c0.1,0.4,0.6,0.5,0.8,0.5c1.1-0.6,2.5,0,3.5-0.9
		c0.5-0.4,1.2-0.3,1.7-0.8c0.5-0.5,0-1.2,0.7-1.5c0.2-0.2,0.2-0.4,0.2-0.7c0.1-1.4,1.3-2,2.1-3c0.9-1.1,2-1.9,3.1-2.7
		c0.3-0.3,0.5-0.3,0.9-0.4c0.2,0,0.5,0.2,0.8-0.2c1.1-1.3,2.6-1.7,4-2.4c0.4-0.2,0.7-0.9,1.1-0.5c0.4,0.3-0.1,0.9-0.2,1.3
		c-0.1,0.5-0.1,0.9,0.2,1.4c0.4,0.7,0,1.5-0.2,2.4c-0.1,0.7-0.3,1.3-0.6,1.9c-0.9,2-1,4.1-0.8,6.1c0.1,1.9-0.4,3.5-0.8,5.2
		C413.1,157.8,413,158,413.1,158.3z"/>
	<path class="st6" d="M581.3,78.8c0.2-0.1,0.5-0.1,0.7,0c-0.2,0.3,0,0.8-0.5,0.8C581.1,79.5,581.3,79,581.3,78.8z"/>
	<path class="st7" d="M582.4,78.2c0-0.1,0.1-0.3,0.2-0.4c0.3-0.1,0.4,0,0.6,0.2c0.1,0.1,0.1,0.2,0.2,0.4
		C583,78.6,582.7,78.2,582.4,78.2z"/>
	<path class="st5" d="M532.8,64.8c0.6,0.4,1.2,0.5,2,0.4c0.4-0.1,1.5-0.4,1.1,0.8c0,0.2,0,0.4,0.2,0.3c1.2-0.2,0.2,0.6,0.4,0.9
		c0.3,0.2-0.3,0.8,0.4,0.8c0-0.1,0.1-0.2,0.1-0.3c1.3-1.1,1.3-1.1,0.1-2.2c-0.4-0.3-0.3-0.7-0.1-1c0.2-0.4,0.4-0.6,0.9-0.4
		c0.8,0.3,1.6,0.4,2.3-0.3c0.2-0.2,0.3-0.5,0.6-0.5c1-0.3,1.3-1.5,2.1-1.8c0.4-0.1,0.7-0.7,1-0.4c0.4,0.6,1.3,0.8,1.4,1.4
		c0.1,0.8,0.3,1.3,0.8,1.9c0.2,0.2,0,0.4-0.1,0.6c-0.2,0.2-0.3,0.5-0.3,0.8c0,0.9-0.4,1.5-1.2,1.8c-0.2,0.1-0.4,0.2-0.3,0.4
		c0.1,0.2,0.4,0.1,0.6,0.2c0.3,0,0.5,0.2,0.7,0.4c0.4,0.4,0.9,0.7,1.4,0.9c0.3,0.1,0.6,0.2,1,0.2c0.3,0,0.6-0.2,0.8-0.4
		c0.2-0.1,0.4-0.2,0.6-0.2c0.4,0.1,0.8-0.1,1.1-0.3c0.4,0,0.7,0.1,1,0.2c0.5,0.2,1,0.3,1.5,0.3c0.2,0,0.4,0.1,0.6,0.1
		c0.6,0.2,1.2,0.1,1.7,0c0.2-0.1,0.2-0.4,0.5-0.5c0.8,0.2,1.7-0.1,2.3,0.8c0.6-0.4-0.5-1.5,0.7-1.6l0,0c0.5-0.2,0.9,0.2,1.3,0.4
		c0.3,1.3,1.3,1.5,2.3,1.6c0.6,0.1,1.2,0.2,1.7,0.5c0.7-0.9,0.3-1.6-0.3-2.4c-0.2-0.2-0.4-0.4-0.6-0.1c-0.4,0.4-0.8,0.4-1.3,0.1
		c-0.4-0.3-0.3-0.7-0.3-1.1c0.1-0.7,0.6-0.5,1-0.6c0.1,0,0.3-0.1,0.7-0.2c-1.5-0.4-1.6-1.4-1.7-2.5c0-0.5,0.2-0.8,0.6-1.1
		c1.1-0.7,1.9-1.7,2.7-2.9c0.8-1.1,1.1-2.3,1.8-3.4c0.4-0.6,0.6-0.7,0.9,0c0.2,0.3,0.6,0.6,0.6,0.1c0.1-1.4,1.3-1.1,2.1-1.4
		c0.4,0.1,0.4,0.4,0.2,0.6c-0.6,0.5-0.4,1.2-0.4,1.8c0.1,0.1-0.1,0.5,0.3,0.3c0.1-0.2,0-0.4-0.1-0.6c-0.1-0.3-0.4-0.7,0-1
		c0.4-0.4,0.8-0.3,1.1,0.1c0.1,0.4,0.7,0.3,0.8,0.6c0.3,0.5,1.3,1.1-0.2,1.4c-0.7,0.1-0.5,0.9-0.2,1.4c0.2,0.3,0.3,0.5,0.1,0.8
		c-0.2,0.7-0.5,1.3,0.1,2c0.3,0.4,0,1-0.4,1.4c-0.5,0.5-1.1,0-1.6,0c-0.4,0.2-0.6,0.5-1,0.7c-0.3,0.1-0.2,0.3-0.1,0.5
		c0.2,0.4,0.2,0.9,0.3,1.3c0,0.1,0.1,0.3,0.2,0c0-0.1,0-0.2,0-0.2c0.2-0.3-0.1-0.4-0.2-0.5c-0.4-0.7-0.3-1.3,0.6-1.4
		c0.3,0.2,0.9,0,0.7,0.8c-0.2,0.5,0.2,0.6,0.6,0.3c0.2-0.2,0.4-0.4,0.7-0.4c0.1,0,0.8-0.1,0.3,0.4c0,0-0.1,0.1,0,0.1
		c0.6,1,0.5,1.9,0.1,2.9c0,0.1,0.2,0.3,0.3,0.4c0.1,0.2,0.7,0,0.3,0.6c-0.2,0.3-0.5,0.4-0.7,0.2c-0.6-0.3-1-0.4-1.3,0.3
		c0,0.1-0.2,0.1-0.1,0.1c-0.8-0.8-1.5,0.2-2.3,0c-0.4-0.1-0.7-0.1-1,0.3c-0.4,0.7-1.1,0.8-1.6,0.6c-0.7-0.2-0.9-0.1-1,0.7
		c0,0.3-0.2,0.6-0.3,0.9c-0.1,0.6-0.6,0.8-1.1,0.5c-0.8-0.4-1.4-0.2-2.2,0.2c-1.2,0.6-2.6,0.8-3.8,1.5c-0.9,0.6-2,0.8-2.8,1.6
		c-0.8,0.7-2.7,0.3-3.3-0.6c0-0.1-0.1-0.3-0.2-0.2c-0.8,0.6-1.5-0.2-2.2-0.3c-2.1-0.2-4.1-0.4-6.2-0.6c-0.3,0-0.6,0-0.7-0.4
		c-0.1-0.3,0.5-0.7,0-0.9c-0.7-0.3-1.3-0.9-2.1-0.5c-0.2,0.2-0.5,0.1-0.7,0.3c-0.1,0.2-0.6,0.2-0.5,0.7c0.3,1.5-0.9,2-1.9,2.5
		c-1,0.4-1.9,1.1-2.6,1.8c-0.6,0.5-0.7,1.3-0.7,2c-0.1,1.2-0.5,1.6-1.6,1.4c-0.6,0-1.2,0.6-1.9,0.1c-0.2-0.1-0.5-0.1-0.4-0.4
		c0-0.2,0.2-0.3,0.4-0.3c1.2-0.4,1.9-1.3,2.3-2.5c0.1-0.3,0-0.5-0.3-0.6c-0.4-0.1-0.9-0.5-1.2-0.1c-0.3,0.5-0.7,0.4-1.1,0.4
		c-0.9-0.2-1.8,0.5-2.8,0.3c-0.2,0.1-0.5,0-0.8,0.2c-1.4,0.4-2.5,1.1-3.4,2.4c-0.4,0.5-1.1,0.6-1.7,0.7c-0.8,0.1-1.4,0.4-1.9,1.2
		c-0.5,0.8-1,1.6-1.9,2.2c-0.6,0.5-1.5,1.1-1.8,2.1c-0.2,0.5-0.5,0.9-1,1.3c-0.6,0.4-0.7,1.2-0.9,2c-0.1,0.5-0.2,1.1,0.6,1.1
		c0.5,0,0.5,0.4,0.6,0.7c0,0.5-0.4,0.3-0.7,0.3c-0.8,0.1-1.6,1.2-1.3,2.1c0.3,1-0.4,2.3-1.3,2.2c-1.1-0.2-1.1,0.5-1.3,1.1
		c-0.5,1.4-0.8,1.5-2.1,0.5c-0.1-0.6-0.2-1.1,0-1.7c-0.3,0.4-0.7,0.6-1.2,0.3c-0.3-0.2-0.6-0.3-0.9,0c-0.1,0.1-0.2,0.3-0.1,0.4
		c0.2,0.4,0.6,0.2,0.9,0.2c1.1,0,1.2,0.1,0.8,0.9c-0.1,0.1-0.1,0.1-0.2,0.1c-1,1.7-1,1.5-2.4,0.3c-1-0.9-0.5-1.5-0.3-2.4
		c0.1-0.4,0.2-0.9,0.4-1.3c0.6-1.1,0-2-0.5-2.9c-0.1-0.2-0.2-0.4-0.2-0.6c0.3-1.4-0.3-2.9,0.3-4.4c0.1-0.1,0-0.4-0.1-0.5
		c-0.1-0.3,0-0.5,0.2-0.6c0.9-1.7,2.6-2.7,3.9-4c0.4-0.4,0.7-1.1,0.4-1.7c-0.1-0.2-0.2-0.4,0.1-0.5c0.2-0.1,0.3,0,0.5,0.2
		c0.8,1.1,1.9,1,2.5-0.2c0.3-0.7,0.5-1.4,0.4-2.3c-0.2-1,0.4-2,0.8-3c0.2-0.1,0.4-0.4,0.6-0.5c0.2-0.6,0.5-1,1.1-1.2
		c1.3-0.6,2.4-3.2,2.1-4.7c-0.1-0.6-0.1-1.3-0.2-1.9c1.4,0.3,2.2-0.1,2.6-1.6c0.2-0.7,0.6-1,1.3-0.8c0.4,0.2,0.6,0,0.9-0.3
		c0.3-0.3,0.7-0.8,1.2-0.5c0.1,0.1,0.3,0.4,0.1,0.5c-0.6,0.7-0.6,1.6-1,2.3c-0.1,0.1-0.1,0.1-0.1,0.2c-0.2,0.3-0.5,0.4-0.7,0.7
		c0.3,0,0.6-0.4,0.9-0.3c0.8,0.1,0.5-0.6,0.7-1c0.1-0.2,0-0.6,0.4-0.5c0.3,0,0.4,0.2,0.4,0.5c0,0.5,0.3,0.7,0.8,0.7
		c0.5,0,1.1,0,1.2-0.7c0.2-0.8,0.5-1.6,1.3-2.1c0.3-0.2,0.4-0.6,0.9-0.5c0.6,0.2,0.2,0.7,0.4,1c-0.1,0.3-0.1,0.6-0.4,0.8
		c0,0.5-0.8,0.8-0.4,1.2c0.5,0.5,1.1-0.1,1.5-0.3c0.6-0.3,1-0.7,1.3-1.2c0.5-0.8,0.9-0.7,1.3,0c0.1,0.1,0.3,0.1,0.4,0.2
		C532.3,64.5,532.6,64.5,532.8,64.8z"/>
	<path class="st5" d="M481,169.6c-0.2,0.6-0.4,1.3-0.6,1.9c-0.7,0-0.9,0.6-1.2,1.1c-0.7,2-1.6,3.9-1.6,6.1c0,0.5-0.3,0.5-0.6,0.4
		c-0.7-0.1-1.3,0.2-1.9,0.3c-0.4-0.2-0.6-0.6-0.6-1.1c-0.6,0.2-0.5,0.7-0.7,1c-0.3,0.4-0.5,0.9-1.2,1.2c-0.5,0.2-0.7,0.9-0.4,1.6
		c0.3,0.7,0.7,1.5,0.6,2.3c0,0.3,0,0.6-0.6,0.5c-0.4-0.2-0.9-0.2-1.3,0.3c-0.4,0.4-0.7-0.3-0.7-0.4c-0.1-0.6,0-1.3-0.4-1.9
		c-0.1-0.2,0-0.9,0.6-1c0.8-0.3,0.9-1,0.7-1.5c-0.5-1.3,0.2-2.6,0-3.8l0,0c-0.1-0.5-0.2-0.9,0-1.4c0.4-0.1,0.8-0.3,0.6-0.9
		c-0.1-0.4-0.3-0.7-0.4-1c0.3-1.1,0.4-2.3,1-3.1c0.6-0.7,1.1-1.5,1.5-2.3c0.3-0.1,0.3-0.4,0.2-0.7c0.5-1.1,0-2.1,0-3.2
		c0.2-0.2,0.3-0.4-0.1-0.5c0.4-1.7,0.4-3.4,0.4-5.1c0-1.3,0.4-2.5,0.5-3.7c0.2-0.9-0.1-1.9-0.1-2.8c-0.1-2,0.1-4.1,0.2-6.1
		c0-0.4,0.2-0.8-0.1-1.2c-0.1-0.1-0.2-0.6,0.2-0.7c0.3-0.1,0.5,0.2,0.5,0.4c0.5,2.2,2.2,2.6,4,2.7c0.6,0,1.6-0.2,1.6-1
		c0.1-1.4,1.4-1.8,2-2.9c0.3-0.5,0.7-1,1-1.5c0.4-0.8,1.1-1.5,1.4-2.4c0.7-1.6,0.5-3.1-0.4-4.5c-0.4-0.7-0.3-1.3-0.2-2
		c0.4-1.5,0.2-1.7-1.1-2.3c-0.2-0.1-0.4-0.2-0.3-0.4c0.6-1.3,0.2-2.9,1.4-4c0.6-0.1,0.5,0.3,0.5,0.7c-0.4,1.6,0,2.7,1.6,3.1
		c0.2,0,0.4,0.1,0.5,0.2c0.2,0.2-0.3,1,0.5,0.8c0.6-0.2,1.1-0.5,1.4-1.2c0.6-1.3,1.5-2.4,2.5-3.5c0.5,1,0.5,2,0.4,2.9
		c-0.2,1.4-0.3,2.8-1.7,3.9c-0.6,0.5-0.9,1.5-1,2.4c-0.1,1.4-0.6,2.7-1.3,3.8c-0.4,0.6-1,1-1.2,1.8c-0.4,1.4-0.2,2.7,0.2,4
		c0.2,0.5,0,1.2-0.4,1.4c-1,0.4-1.2,1.2-1.3,2c-0.3,1.1-1.2,1.9-1.5,2.8c-0.6,1.7-1,3.5-1.7,5.2c-0.2,0.7,0.3,1.1,0.1,1.7
		c-0.3,0.9-0.6,1.8-1.3,2.4c-1,1-1.2,2.2-0.9,3.6c0.2,0.9,0.3,1.7,0.7,2.5c0.1,0.3,0,0.5-0.2,0.6c0,0.1-0.2,0.3-0.1,0.4
		C482,167.8,481.2,168.7,481,169.6z"/>
	<path class="st5" d="M495.9,122.4c-0.3,1-1.3,0.8-1.9,1.1c-0.5,0.2-0.6-0.9-0.9-1.5c-1.2-1.9-1.2-4.2-2.3-6.1c-1-1.8-2.2-3.4-4-4.3
		c-0.3-0.1-0.6-0.2-0.6-0.5c0.1-0.9-0.6-0.9-1.1-1.2c-0.2-0.3-0.5-0.4-0.8-0.3c-1.2,0.3-2.2,1.1-3.4,1.6c0-0.9,0.5-1.5,1.1-1.9
		c0.8-0.6,1.2-1.8,0.8-2.7c0,0-0.2-0.1-0.2-0.1c0.7-1.9-0.7-1.8-1.9-1.9c0,0-0.1-0.1-0.2-0.3c0.7-0.1,1.2-0.3,1.7-0.7
		c0.3-0.2,0.7,0,1-0.1c0.3,0,0.6,0.2,0.7,0.1c1.2-1,2.6-0.5,3.6,0.1c1.3,0.8,2.3,0.2,3.2-0.2c1.5-0.7,2.9-1.6,3.3-3.4
		c0.1-0.7,0.8-0.7,1.3-0.2c0.9,1,1.9,1.9,2.8,2.8c0.5,0.6,1.1,1.2,1.4,2c0.3,0.6,2.1,1.2,2.6,0.8c0.5-0.4,1.1-0.3,1.6-0.8
		c0.4-0.4,0.9,0,0.8,0.4c0,0.5,0.3,0.8,0.4,1.2c0.2,0.6,1.1,0.7,1.5,0.2c1.2-1.4,1.2-1.4-0.5-2.2c-0.5-0.2-0.4-0.8-0.6-1.1
		c-0.3-0.6-1-1-1.1-1.7c-0.1-0.3,0-0.5,0.2-0.6c0.5-0.1,1,0,1.4,0.3c0.9,0.6,1.6,0.4,2.1-0.5c0.4-0.6,1.1-0.4,1.6-0.6
		c0.4-0.2,0.4,0.6,0.6,1c0.1,0.4,0,0.6-0.3,0.8c-0.1,0.1-0.1,0.2-0.2,0.3c-1.2,1.6-1.3,2-0.1,3.5c0.3,0.4,0.3,0.8,0,0.8
		c-0.8,0.2-0.8,0.9-1,1.4c-0.3,1-1.4,0.7-2,0.9c-1.3,0.5-1.7,0.7-1.4,2c0.1,0.7-0.2,0.9-0.6,1.1c-0.5,0.3-0.7-0.2-0.8-0.6
		c-0.5-1.1-2.6-1.8-3.3-1.1c-0.3,0.3-0.5,0.5-0.3,0.9c0.3,1.3-0.1,2.1-1.4,2.4c-0.7,0.1-0.8,0.7-0.9,1.2c-0.3,0.8-0.5,1.6-1.3,2.3
		c-0.5,0.4-0.9,1.5-0.6,2.5c0.2,0.6,0,1.2,0,1.8C496.3,121.9,496.2,122.2,495.9,122.4z"/>
	<path class="st5" d="M631.6,30c-0.4,0.7-0.8,1.4-1,2.2c-0.2,0.9-1.2,1.4-1.8,1.9c-1.2,1.2-2.6,2-3.7,3.2c-1,1.1-2.2,0.9-3.2,1.4
		c-0.4,0.2-0.9,0.1-0.9-0.3c0-0.6-0.5-0.7-0.8-1c-0.4-0.4-0.8-0.8,0.1-1.1c0.4-0.1,0.6-0.5,0.6-0.9c0-0.6,0.2-1.1,0.6-1.5
		c1.4-1.5,2.3-3.5,3.4-5.2c0.7-1,1.6-2,2.8-2.5c0.8-0.3,1.1-1.3,1.3-2.1c0.1-0.4,0.2-0.8,0.8-0.9c0.7-0.1,0.9,0.1,0.7,0.7
		c-0.3,0.7-0.2,1.3,0.3,1.8c0.8,0.9,0.6,2,0.8,3.1c0,0.2,0.1,0.4,0.2,0.6C631.8,29.6,631.8,29.8,631.6,30z"/>
	<path class="st5" d="M689.6,26.4c-0.1,1.8-1.9,1.5-3,2.1c0,0-0.1,0-0.1,0c-0.8,0.7-1.7,0.7-2.6,0.9c-0.3,0-0.6,0.2-0.9,0
		c-0.7-0.5-1.6-0.5-2.4-0.6c-0.4,0-0.7,0.2-1-0.3c0-0.1-0.4-0.2-0.5-0.2c-1.5,1.3-0.9-1.2-1.8-0.9c0-0.8,0.2-1.5,0.7-2
		c0.3-0.3,0.8-0.3,1.1-0.5c0.8-0.5,1.2-1.1,1.4-1.8c0.2-0.8,0.7-1.2,1.5-1.1c0.4,0.1,0.9-0.3,1-0.4c0.6-1.1,2,0.1,2.7-0.9
		c0,0,0.3,0,0.4,0c1.2,0.8,2.4,1.4,3.4,2.3c0.8,0.8,0.3,1.6,0.3,2.4C689.8,25.8,689.7,26.1,689.6,26.4z"/>
	<path class="st5" d="M555.7,69.6c-0.7,0.2-1.4,0.4-2.1,0.1c-0.1-0.2,0-0.3,0-0.5c0.1-0.2,0.2-0.3,0.4-0.4c0.2-0.3,0.9-0.4,0.4-0.8
		c-0.4-0.3-1.1-0.6-1.5,0.1c-0.3,0.5-0.7,0.9-1.4,0.9c-0.8-0.2-1.8,0.1-2.5-0.5c-1-1.2-1.2-1.2-2.4-0.1c-0.4,0.3-0.8,0.4-1.2,0.5
		c-0.2-0.1-0.5-0.3-0.7-0.4c0.7-0.4,0.9-1.4,1.6-1.8c0.3,0.3,0.8-0.5,1,0.3c0.5-0.2,0.7-0.8,0.5-1.1c-0.8-1.3,0.6-1.4,1-1.5
		c1-0.3,1.7-0.7,2.1-1.6c0.2-0.4,0.6-0.4,0.6-0.1c0.4,2.1,1.8,2,3.3,1.6c0.3-0.1,0.4-0.4,0.6-0.5c0.2-0.4,0.4-0.8,0.9-0.9
		c0.4,0,0.6-0.4,0.8-0.7c0.2-0.4,0.3-0.8,0.8-0.5c0.4,0.2,1.2-0.2,0.9,0.8c1.4,0.9,0,2.4,0.6,3.4c0.1,0.2,0.5,0.1,0.3,0.5
		c-0.8,0-1.4,0.5-2.2,0.6c-0.6,0.1-0.5,1-0.8,1.5c-0.3,0.2-0.7,0.3-1,0.5C555.2,69,555.4,69.3,555.7,69.6z"/>
	<path class="st8" d="M466.6,114.2c-0.1-0.3,0.4-0.7,0-0.9c-0.4-0.2-0.8-0.5-1.3-0.1c-0.6,0.4-1.1,0.9-1.9,1c-0.3,0-0.6,0.3-0.8,0.1
		c-0.3-0.3-0.2-0.7,0-1.1c0.1-0.3,0.1-0.6,0.5-0.5c1.4,0.1,2.8-0.2,4-0.9c0,0,0.1-0.1,0.2,0c1.2,0.4,2.1-0.5,3.1-0.9
		c1-0.4,1.9-1.2,3.1-1.4c0.2,0.1,0,0.4,0,0.4c-1,0.6-1.4,2.1-2.9,2.1c-0.2,0-0.4,0-0.4,0.2c-0.4,0.9-1.3,1-1.9,1.2
		c-0.7,0.2-0.6,0.7-0.9,1C467.1,114.6,466.8,114.5,466.6,114.2z"/>
	<path class="st8" d="M424,135.4c0,0.4-0.3,0.8-0.2,1.3c0,0.2-0.2,0.5-0.3,0.4c-0.8-0.4-1.3,0.5-2.1,0.3c-0.6-0.2-0.7,0.5-1,0.9
		c-0.5,0.8-1.1,1.3-2.1,0.9c-0.2-0.1-0.5-0.1-0.7,0.1c-0.3,0.4-0.7,0.2-0.9,0c-0.2-0.3,0-0.6,0.2-0.9c0.2-0.3,0.4-0.8,0.9-0.5
		c0.6,0.3,0.7,0,1.1-0.3c1-0.7,1.4-2.4,3.1-2c0.7,0.2,1-0.7,1.6-0.8C423.6,135,423.9,135.2,424,135.4z"/>
	<path class="st9" d="M481.7,107.4c0.1,1-0.9,1-1.4,1.3c-1,0.6-2,1.2-2.8,2.1c-0.5,0.5-0.8,0.7-1.3,0.1c-0.1-0.1-0.1-0.1-0.1-0.2
		c-0.2-0.4-1.2-0.1-1-0.8c0.2-0.5,0.9-0.5,1.4-0.5c1.1,0,2-0.3,2.6-1.2c0.3-0.5,0.9-0.2,1.2-0.6C480.7,107,481.1,106.8,481.7,107.4z
		"/>
	<path class="st10" d="M459.8,113.6c-1.5,1.4-3.3,2-5.1,2.8c-0.3,0.2-0.8,0.1-0.9-0.3s0.3-0.5,0.5-0.7c1.2-0.8,2.4-1.3,3.7-1.8
		C458.9,113.3,458.9,113.2,459.8,113.6z"/>
	<path class="st11" d="M586.4,72.9c0.4,0.2,0.8,0.2,1,0.4c0.3,0.3,0.9,0.5,0,1c-0.9,0.5-1.7,0.3-2.6,0.2c-0.4,0-1.1-0.1-1-0.8
		c0.1-0.7,0.6-1,1.3-1C585.6,72.8,586.1,72.7,586.4,72.9z"/>
	<path class="st12" d="M588.5,37.2c-0.4-0.3-0.2-0.9,0-0.9c0.5-0.1,0.7-0.6,1.1-0.6c0.9,0,1.5-0.6,1.9-1.3c0.2-0.4,0.4-0.4,0.8-0.3
		c0.5,0.2,0.1,0.5,0,0.8c-0.3,0.9-1.6,0.9-1.6,2c0,0-0.2,0.1-0.3,0.1c-0.6-0.4-1.2-0.4-1.7,0.2C588.7,37.2,588.5,37.2,588.5,37.2z"
		/>
	<path class="st13" d="M507.5,98.4c0.1-0.5,0.2-1.1-0.7-0.7c-0.5,0.2-1.1,0.1-1.5-0.1c-0.3-0.2,0-0.8,0.3-1.1
		c0.3-0.3,0.8-0.6,1.1-0.2c0.7,1,1,0.2,1.5-0.2c-0.3,0.8,0.2,1.5-0.1,2.2C507.9,98.3,507.7,98.4,507.5,98.4z"/>
	<path class="st14" d="M524.5,83.4c-0.2,0.7-0.9,0.8-1.5,1.1c-0.1-0.6,0.8-1.3-0.1-1.8c0.4-0.3,0.7-0.7,1.1-0.9
		c0.2-0.1,0.7-0.1,0.8,0c0.3,0.3-0.2,0.6-0.2,0.9C524.8,83.1,524.7,83.3,524.5,83.4z"/>
	<path class="st15" d="M555.8,68.7c0.3-0.3,0.5-0.7,1-0.4c0.8,0.4,1.2-0.9,2-0.3c-0.1,0.2-0.6,0.2-0.4,0.4c0.6,0.7,0,1.1-0.3,1.8
		c-0.2-0.7-0.5-1-1.2-0.9c-0.4,0.1-0.8,0-1.1-0.3c-0.1-0.1,0-0.1,0-0.2C555.7,68.8,555.8,68.7,555.8,68.7z"/>
	<path class="st16" d="M582.3,42.9c-0.3,0.3-0.5,0.6-1,0.6c-0.5,0-0.9,0-1.4,0.2c-0.2,0-0.4,0.2-0.5,0c-0.1-0.2,0-0.5,0.2-0.6
		c0.7-0.2,1.2-0.5,1.8-1c0.2-0.2,0.6-0.2,0.8,0C582.6,42.2,582,42.6,582.3,42.9z"/>
	<path class="st17" d="M546.3,66.5c-0.4,0.8-0.5,1.7-1.6,1.8c-0.3,0.1-0.8,0.3-1,0c-0.2-0.4,0.3-1,0.5-1c1.3-0.1,1.2-1.1,1.5-1.9
		c0-0.2,0.2-0.3,0.3-0.4C546.1,65.5,545.2,66.1,546.3,66.5z"/>
	<path class="st18" d="M428.2,130.6c0.6,0.1,0.5,0.5,0.2,0.8c-0.4,0.4-0.9,0.9-1.2,1.4c-0.1,0.2-0.4,0.2-0.6,0
		c-0.2-0.1-0.2-0.4-0.1-0.6c0.4-0.4,0.5-1,0.7-1.5C427.3,130.4,427.8,130.5,428.2,130.6z"/>
	<path class="st19" d="M572.4,74.6c-0.6,0.4-0.6,1.1-0.9,1.7c-0.3,0.6-0.7,0.7-1.2,0.4c-0.1-0.3,0-0.5,0.1-0.7
		c0.5-0.7,0.8-1.6,1.6-2.1c0.2-0.1,0.3-0.1,0.5,0C572.7,74.2,572.6,74.4,572.4,74.6z"/>
	<path class="st20" d="M447,118.2c-0.2,0.6-0.9,0.6-1.3,0.7c-0.6,0.2-1,0.4-1.4,0.9c-0.2,0.3-0.5,0.3-0.7,0c-0.2-0.3,0-0.5,0.3-0.6
		c0.8-0.5,1.4-1.3,2.5-1.2C446.6,117.9,446.8,117.9,447,118.2z"/>
	<path class="st21" d="M568.9,64.4c0.4-0.2,0.6-0.7,1.1-0.5c0,0.1-0.1,0.2-0.1,0.4c-0.6,0.4-0.7,0.9-0.5,1.5
		c0.1,0.1,0.1,0.2,0.1,0.3c0.1,0.3,0.5,0.5,0.2,1c-0.1,0.1-0.3,0.2-0.4,0.1c-0.3-0.2-0.6-0.4-0.6-0.8c0-0.4-0.1-0.8-0.1-1.2
		C568.8,64.9,568.9,64.7,568.9,64.4z"/>
	<path class="st22" d="M571.5,56.2c-0.4-0.2-0.9-0.2-1.1,0c-0.3,0.3,0.3,0.5,0.3,0.8c0,0.3,0.4,0.6,0,1c-0.3,0.1-0.7,0.1-0.8-0.3
		c-0.1-0.7,0-1.3,0.4-1.8c0.2-0.2,0.4-0.5,0.1-0.8C571.5,54.9,571,56.1,571.5,56.2z"/>
	<path class="st19" d="M571.8,51.7c0.2-0.6,0.6-0.5,1-0.4c0.5,0.1,0.9,0.4,0.8,1c-0.1,0.4-0.6,0.5-1,0.3
		C572.2,52.4,571.7,52.2,571.8,51.7z"/>
	<path class="st23" d="M569.5,52.9c0-0.6,0.7-0.8,1.1-1.2c0.1-0.2,0.3-0.1,0.4,0c0,0.1,0.1,0.3,0,0.4c-0.4,0.5-0.7,1-1,1.6
		c-0.1,0.3-0.4,0.2-0.6,0.1C569.1,53.5,569.4,53.2,569.5,52.9z"/>
	<path class="st24" d="M474.7,105.7c0.3-0.4,0.8-0.3,1.2-0.2c0.3,0,0.5,0.3,0.3,0.6c-0.3,0.7-0.9,0.3-1.3,0.3
		C474.6,106.4,474.6,106,474.7,105.7z"/>
	<path class="st25" d="M584.4,41.2c-0.2,0.1,0,0.7-0.5,0.4c-0.4-0.2-0.4-0.6-0.3-1c0.1-0.3,0.2-0.6,0.6-0.4
		C584.6,40.4,584.5,40.8,584.4,41.2z"/>
	<path class="st26" d="M420.3,140.4c0.1-0.4,0.3-0.5,0.6-0.4c0.5,0.1,0.4,0.5,0.3,0.8c0,0.3-0.3,0.6-0.5,0.5
		C420.4,141.1,420.2,140.8,420.3,140.4z"/>
	<path class="st27" d="M574.5,67.6c0.5,0.2,0.5-0.5,0.8-0.5c0.3-0.1,0.5-0.1,0.8,0c0,0,0.1,0.1,0.1,0.1c-0.2,0.7-1.1,0.8-1.5,1.4
		C574.6,68.2,574.3,68,574.5,67.6z"/>
	<path class="st28" d="M549.7,80c0.1-0.5,0.3-0.6,0.7-0.6c0.4,0.1,0.4,0.3,0.4,0.7c-0.1,0.4-0.4,0.5-0.7,0.4
		C549.7,80.4,549.7,80.1,549.7,80z"/>
	<path class="st16" d="M497.1,122.2c0.2-0.3,0.3-0.5,0.6-0.4c0.4,0.1,0.5,0.4,0.4,0.7c-0.1,0.3-0.2,0.5-0.5,0.4
		C497.3,122.8,497.2,122.5,497.1,122.2z"/>
	<path class="st29" d="M604.9,31.2c0-0.3-0.6-0.8,0.1-0.9c0.7-0.1,0.6,0.6,0.8,0.9C605.5,31.4,605.2,31.6,604.9,31.2z"/>
	<path class="st30" d="M610.2,30.8c0-0.5,0.3-0.7,0.8-0.6c0.3,0,0.4,0.3,0.3,0.4c-0.2,0.5-0.5,0.5-1,0.4
		C610.2,31,610.1,30.9,610.2,30.8z"/>
	<path class="st31" d="M613.3,30.9c-0.5,0-0.8,0.8-1.3,0.1c-0.2-0.2-0.2-0.6,0.1-0.7C612.7,30,612.9,30.6,613.3,30.9z"/>
	<path class="st32" d="M522.1,65.9c0.3-0.9,0.6-1.8,0.9-2.8c0.3,0.1,0.7,0.3,0.4,0.6C522.5,64.3,522.7,65.4,522.1,65.9z"/>
	<path class="st32" d="M522.1,66.5c-0.3,0.4-0.7,0.6-1.1,0.9c-0.2-0.9-0.2-1,0.9-1.2C522,66.2,522.1,66.3,522.1,66.5z"/>
	<path class="st33" d="M511.1,105.9c0.1-0.3,0.4-0.6,0.8-0.5c0.4,0.1,0.1,0.4,0.1,0.7c0,0.4-0.3,0.4-0.6,0.3
		C511.1,106.2,510.9,106.1,511.1,105.9z"/>
	<path class="st5" d="M577.1,67.4c-0.3,0-0.6,0-0.9-0.2l0,0c-0.1-0.4,0-0.6,0.2-0.9c0.3,0.1,0.6,0,0.9,0.3
		C577.5,67,577.5,67.2,577.1,67.4z"/>
	<path class="st34" d="M570.7,71.9c-0.2-0.1-0.4-0.3-0.4-0.6c0.1-0.4,0.3-0.4,0.6-0.3c0.2,0.1,0.4,0.2,0.3,0.5
		C571.2,71.8,571,72,570.7,71.9z"/>
	<path class="st35" d="M559.3,90c0.2,0.1,0.3,0.3,0.2,0.5c-0.1,0.3-0.4,0.3-0.6,0.2c-0.2-0.1-0.2-0.3-0.2-0.4
		C558.8,90,559,90,559.3,90z"/>
	<path class="st36" d="M429,129.8c0.1-0.2,0.1-0.4,0.4-0.2c0.2,0.1,0.5,0.1,0.4,0.4c-0.1,0.3-0.3,0.3-0.6,0.3
		C428.9,130.2,428.9,130,429,129.8z"/>
	<path class="st37" d="M431.9,128.6c-0.1,0.3-0.1,0.6-0.6,0.4c-0.2-0.1-0.3-0.2-0.2-0.4c0.1-0.5,0.5-0.5,0.8-0.4
		C432.1,128.4,432.1,128.6,431.9,128.6z"/>
	<path class="st30" d="M436.9,124.4c0.1-0.3,0.3-0.3,0.5-0.2c0.2,0.1,0.4,0.3,0.3,0.5c-0.1,0.2-0.3,0.2-0.4,0.2
		C437.1,124.8,436.9,124.7,436.9,124.4z"/>
	<path class="st38" d="M438.9,122.2c0.5,0.2,0.4,0.3,0.4,0.5c-0.1,0.3-0.3,0.3-0.5,0.3c-0.2,0-0.3-0.2-0.2-0.4
		C438.7,122.3,438.9,122.2,438.9,122.2z"/>
	<path class="st39" d="M551.6,79.8c-0.3-0.1-0.7-0.2-0.6-0.6c0.2-0.4,0.5-0.3,0.9,0C552,79.4,551.9,79.6,551.6,79.8z"/>
	<path class="st40" d="M498.4,123.2c0.1,0.5,0.2,0.9-0.3,1.3c0,0-0.2-0.1-0.2-0.1C497.8,123.9,498.1,123.6,498.4,123.2z"/>
	<path class="st41" d="M560.1,68.4c-0.4-0.1-0.8-0.3-1.3-0.4C559.2,67.5,559.2,67.5,560.1,68.4z"/>
	<path class="st42" d="M427.9,135c-0.3-0.1-0.2-0.4-0.1-0.5c0.1-0.2,0.3-0.3,0.5-0.2c0.2,0.1,0.2,0.3,0.1,0.5
		C428.3,134.9,428.2,135.1,427.9,135z"/>
	<path class="st21" d="M481.7,107.4c-0.6-0.5-1,0-1.4,0.3C480.8,106.6,480.9,106.5,481.7,107.4z"/>
	<path class="st43" d="M442.1,121.1c-0.2-0.1-0.4-0.3-0.3-0.5c0.1-0.2,0.3-0.2,0.4-0.2c0.3,0,0.2,0.3,0.2,0.5
		C442.5,121,442.4,121.1,442.1,121.1z"/>
	<path class="st44" d="M666.9,32.8c0.3,0.2,0.6,0,0.8,0.4c-0.3,0.5-0.6,0.1-0.9,0.1c-0.2-0.1-0.4-0.2-0.4-0.5
		C666.5,32.6,666.7,32.6,666.9,32.8z"/>
	<path class="st22" d="M576.5,66.4c-0.1,0.3-0.2,0.6-0.2,0.9c-0.3,0.1-0.6,0.1-0.9-0.1C575.7,66.9,576.1,66.6,576.5,66.4z"/>
	<path class="st43" d="M666.4,32.9c0.2,0.1,0.4,0.2,0.4,0.4c0,0.3-0.2,0.4-0.5,0.3c-0.4-0.2-0.1-0.4-0.1-0.7
		C666.3,32.8,666.4,32.8,666.4,32.9z"/>
	<path class="st45" d="M574,60.1c0.1-0.2,0.2-0.3,0.4-0.2s0.3,0.2,0.2,0.4c0,0.2-0.2,0.3-0.4,0.2C574,60.4,574,60.3,574,60.1z"/>
	<path class="st46" d="M524.8,62.8c0.1-0.2,0.3-0.1,0.4-0.1c0.2,0.1,0.3,0.3,0.2,0.5c-0.1,0.2-0.2,0.2-0.4,0.1
		C524.8,63.3,524.8,63.1,524.8,62.8z"/>
	<path class="st47" d="M536.9,68c-0.6,0.1-0.6,0.1-0.4-0.8C537,67.3,536.8,67.7,536.9,68z"/>
	<path class="st48" d="M585.8,39.3c0.1-0.3,0.3-0.2,0.5-0.2c0.2,0,0.2,0.2,0.2,0.3c-0.1,0.2-0.2,0.4-0.5,0.3
		C585.8,39.7,585.8,39.5,585.8,39.3z"/>
	<path class="st38" d="M573,60.7c0.1-0.2,0.2-0.2,0.4-0.2c0.1,0,0.3,0.1,0.2,0.3c0,0.2-0.1,0.3-0.4,0.3C573.1,61,573,60.9,573,60.7z
		"/>
	<path class="st7" d="M584.4,77.6c-0.2,0.2-0.4,0.3-0.6,0.5c-0.1-0.2-0.4-0.3-0.2-0.6C583.9,77.3,584.2,77.6,584.4,77.6z"/>
	<path class="st49" d="M495.9,122.4c0.1-0.3,0.2-0.6,0.3-0.8C496.7,122,496.6,122.3,495.9,122.4z"/>
	<path class="st50" d="M478.5,104.9c0.1-0.2,0.1-0.4,0.4-0.3c0.2,0.1,0.2,0.2,0.2,0.4c-0.1,0.2-0.1,0.5-0.4,0.3
		C478.4,105.3,478.5,105.1,478.5,104.9z"/>
	<path class="st21" d="M604.9,31.2c0.3,0.2,0.6,0.1,0.8,0c-0.2,0.3-0.3,0.6-0.7,0.5C604.8,31.7,604.8,31.4,604.9,31.2z"/>
	<path class="st51" d="M593.4,35.3c0.2-0.2,0.4-0.4,0.7-0.3c0,0,0,0.2,0,0.3C593.8,35.5,593.6,35.4,593.4,35.3z"/>
	<path class="st52" d="M574.5,67.6c0.1,0.3,0.4,0.6,0.2,1C574.5,68.3,573.9,68.1,574.5,67.6z"/>
	<path class="st53" d="M527.8,64.7c0.1-0.3,0-0.7,0.4-0.8C528.5,64.4,528.4,64.7,527.8,64.7z"/>
	<path class="st54" d="M510.2,102c0.1-0.3,0.2-0.6,0.3-0.8C511.1,101.6,510.6,101.8,510.2,102z"/>
	<path class="st55" d="M532.8,64.8c-0.3-0.1-0.6-0.2-0.9-0.2C532.4,64.4,532.8,64,532.8,64.8z"/>
	<path class="st56" d="M626,22.4c0-0.1,0.2-0.3,0.3-0.2c0.1,0.1,0.2,0.2,0.2,0.4c0,0.2-0.1,0.2-0.3,0.1C626,22.6,626,22.5,626,22.4z
		"/>
	<path class="st57" d="M519,84c0.1,0,0.2-0.1,0.3-0.1c0.1,0,0.3,0.2,0.1,0.3c0,0.1-0.2,0.1-0.3,0C519.1,84.3,519.1,84.1,519,84z"/>
	<path class="st47" d="M524.5,83.4c0.1-0.2,0.1-0.4,0.2-0.6c0.2,0.1,0.3,0.1,0.4,0.4C525,83.5,524.8,83.5,524.5,83.4z"/>
	<path class="st58" d="M555.5,63.5c-0.1,0.3,0,0.7-0.6,0.5C555,63.7,555.1,63.5,555.5,63.5z"/>
	<path class="st59" d="M570.5,76.1c0,0.2-0.1,0.4-0.1,0.7c-0.2-0.1-0.4-0.2-0.3-0.5C570.1,76,570.3,76.1,570.5,76.1z"/>
	<path class="st60" d="M540.8,63.2c-0.1,0.2-0.1,0.7-0.6,0.5C540.3,63.4,540.3,63,540.8,63.2z"/>
	<path class="st61" d="M590.9,79.3c0.1-0.1,0.2-0.2,0.3-0.2c0.2,0,0.2,0.2,0.1,0.3c0,0.1-0.2,0.1-0.2,0.1
		C591,79.6,590.9,79.4,590.9,79.3z"/>
	<path class="st62" d="M578.1,42.3c0.1-0.2,0.3-0.2,0.4-0.2c0.1,0,0.2,0.1,0.2,0.2c0,0.1,0,0.3-0.3,0.2
		C578.3,42.4,578.2,42.3,578.1,42.3z"/>
	<path class="st63" d="M525.5,59.1c0.1-0.2,0.1-0.3,0.3-0.2c0.1,0.1,0.1,0.2,0.1,0.3c0,0.1-0.2,0.3-0.3,0.2
		C525.5,59.4,525.6,59.2,525.5,59.1z"/>
	<path class="st24" d="M583.1,77.9c-0.2-0.1-0.4-0.1-0.6-0.2c0.1-0.2,0.2-0.4,0.5-0.2C583.3,77.6,583.2,77.7,583.1,77.9z"/>
	<path class="st64" d="M539.1,73.1c0.1-0.6,0.4-0.3,0.7-0.3C539.7,73.2,539.5,73.2,539.1,73.1z"/>
	<path class="st65" d="M631.6,30c0.1-0.2,0.1-0.4,0.2-0.6c0.2,0.1,0.4,0.2,0.3,0.5C631.9,30,631.7,30,631.6,30z"/>
	<path class="st66" d="M431.9,128.6c0-0.1,0-0.2,0.1-0.3c0.1-0.2,0.2-0.3,0.3-0.5c0.1,0.1,0.2,0.1,0.2,0.2
		C432.5,128.4,432.2,128.5,431.9,128.6z"/>
	<path class="st67" d="M451.4,117.3c0.2,0,0.2,0.1,0.2,0.3c0,0.2-0.1,0.3-0.3,0.3c-0.2,0-0.3-0.1-0.2-0.3
		C451.2,117.4,451.3,117.3,451.4,117.3z"/>
	<path class="st68" d="M495.7,129.1c0,0.1,0.1,0.2,0.1,0.3c0,0.1-0.1,0.3-0.3,0.2c-0.1,0,0-0.2,0-0.3
		C495.5,129.3,495.6,129.2,495.7,129.1z"/>
	<path class="st69" d="M513.9,74c-0.1,0.3-0.1,0.7-0.6,0.5C513.4,74.3,513.4,73.9,513.9,74z"/>
	<path class="st70" d="M526,78.5c0.1-0.5,0.4-0.3,0.8-0.2C526.6,78.7,526.3,78.7,526,78.5z"/>
	<path class="st71" d="M504.7,101c-0.1,0.2-0.2,0.4-0.2,0.6c-0.2-0.1-0.3-0.2-0.3-0.4C504.2,100.9,504.5,100.9,504.7,101z"/>
	<path class="st47" d="M504.8,86.1c-0.1,0.2-0.1,0.4-0.2,0.6c-0.2-0.1-0.3-0.2-0.3-0.4C504.4,86.1,504.6,86.1,504.8,86.1z"/>
	<path class="st72" d="M577.7,49.3c0.1,0.1,0.1,0.2,0.2,0.2c-0.1,0-0.2,0.1-0.2,0.2c-0.1,0-0.1-0.1-0.2-0.2
		C577.5,49.4,577.6,49.3,577.7,49.3z"/>
	<path class="st73" d="M526.2,53.8c-0.2-0.1-0.3-0.1-0.3-0.3c0-0.2,0.2-0.2,0.3-0.1c0.1,0.1,0.2,0.2,0.2,0.3
		C526.5,53.8,526.2,53.7,526.2,53.8z"/>
	<path class="st74" d="M559.8,66.2c-0.1-0.1-0.2-0.3-0.3-0.5c0.2,0.1,0.5-0.1,0.6,0.2C560.2,66.1,560,66.3,559.8,66.2z"/>
	<path class="st75" d="M551.6,79.8c0.1-0.2,0.2-0.4,0.3-0.6c0.2,0.1,0.3,0.2,0.2,0.4C552.1,79.7,551.8,79.7,551.6,79.8z"/>
	<path class="st76" d="M610.2,30.8c0,0.1,0.1,0.2,0.1,0.2c-0.1,0.1-0.2,0.5-0.4,0.3C609.7,31,610.1,30.9,610.2,30.8z"/>
	<path class="st77" d="M402.3,152.4c-0.3-0.1-0.3-0.3-0.2-0.5c0.1-0.2,0.2-0.4,0.4-0.3c0.2,0.1,0.4,0.3,0.3,0.5
		C402.7,152.4,402.6,152.4,402.3,152.4z"/>
	<path class="st78" d="M545.4,68.7c0.5-0.5,1.2-0.8,1.7-1.4c0.5-0.5,1.6,0,1.9,0.9c0,0.1,0,0.2,0,0.3c-0.4,0.3-0.3,0.6-0.1,0.9
		c-0.1,0.4-0.3,0.7-0.8,0.4c-0.4,0.1-0.7-0.6-1.2-0.2C546.3,69.6,545.9,69.1,545.4,68.7z"/>
	<path class="st79" d="M551.6,68.8c0.5-0.1,0.9-0.4,1-1c0.1-0.5,0.4-0.8,0.9-0.5c0.5,0.4,1.4-0.3,1.6,0.5c0.2,0.8-0.9,0.9-1.3,1.3
		c-0.2,0.2-0.5,0.1-0.7,0.2c-0.6,0.2-1,0-1.6-0.2C551.4,69.1,551.4,68.9,551.6,68.8z"/>
	<path class="st80" d="M551.6,68.8c0,0.1-0.1,0.3-0.1,0.4c-0.4-0.1-0.7-0.2-1.1-0.3c-0.3,0.3-0.6,0.3-1,0.2
		c-0.3-0.1-0.5-0.3-0.5-0.7c0-0.1,0.1-0.1,0.1-0.2C549.8,68.8,550.7,68.6,551.6,68.8z"/>
	<path class="st81" d="M548.9,68.4c0.2,0.1,0.4,0.3,0.6,0.4c0.1,0.2,0.1,0.3-0.1,0.4c-0.2,0-0.3,0-0.5,0.1c-0.3-0.2-0.8,0-0.7-0.6
		C548.2,68.3,548.6,68.4,548.9,68.4z"/>
	<path class="st82" d="M546.9,69.7c0.6-1.3,0.8-0.1,1.2,0.2C547.7,70,547.3,69.8,546.9,69.7z"/>
	<path class="st83" d="M570.7,62.7c-0.3,0.3-0.8,0.1-0.8-0.1c0-0.6,0.6-0.4,0.9-0.6C571,62.3,570.9,62.6,570.7,62.7z"/>
	<path class="st84" d="M555.8,68.7c0,0.1,0,0.1-0.1,0.2c0,0.2,0,0.4,0,0.6c-0.3,0-0.7-0.1-0.6-0.5C555.2,68.7,555.5,68.7,555.8,68.7
		z"/>
	<path class="st85" d="M549.3,69.3c0-0.1,0.1-0.3,0.1-0.4c0.3,0,0.6,0,0.9,0C550.3,69.6,549.8,69.5,549.3,69.3z"/>
	<path class="st86" d="M571.6,66.2c0.1,0.5,0.2,0.8-0.2,1.1c0,0-0.2,0-0.2,0C571.1,66.9,571.3,66.6,571.6,66.2z"/>
	<path class="st87" d="M568.9,64.4c0.2,0.3,0.1,0.5-0.2,0.6c-0.2-0.1-0.4-0.1-0.3-0.4C568.5,64.4,568.7,64.4,568.9,64.4z"/>
	<path class="st37" d="M570,57.7c0.3,0.1,0.5,0.2,0.8,0.3C570.3,58.5,570,58.4,570,57.7z"/>
	<path class="st88" d="M553,69.5c0.2-0.4,0.4-0.3,0.7-0.2c0,0.1-0.1,0.3-0.1,0.4C553.4,69.6,553.2,69.5,553,69.5z"/>
	<path class="st89" d="M570.7,62.7c0.1-0.2,0.1-0.5,0.2-0.7c0.2,0,0.4,0.1,0.3,0.4C571.2,62.7,571,62.8,570.7,62.7z"/>
	<path class="st60" d="M570,58.9c-0.3,0-0.6,0-0.6-0.4c0-0.1,0.1-0.2,0.2-0.3C569.7,58.5,569.9,58.7,570,58.9z"/>
	<path class="st90" d="M569.6,66.1c-0.1-0.1-0.1-0.2-0.1-0.3c0.2,0.1,0.5-0.2,0.6,0.1C570.1,66.2,569.8,66,569.6,66.1z"/>
</g>
</svg>
