<?xml version="1.0" encoding="utf-8"?>
<!-- Generator: Adobe Illustrator 27.0.1, SVG Export Plug-In . SVG Version: 6.00 Build 0)  -->
<svg version="1.1" id="layer" xmlns="http://www.w3.org/2000/svg" xmlns:xlink="http://www.w3.org/1999/xlink" x="0px" y="0px"
	 viewBox="0 0 480 80" style="enable-background:new 0 0 480 80;" xml:space="preserve">
<style type="text/css">
	.st0{fill:none;stroke:#231815;stroke-width:10;stroke-linecap:round;stroke-linejoin:round;}
	.st1{fill:#FFFFFF;}
</style>
<g>
	<g>
		<path class="st0" d="M40.7,30.1c0,2-0.4,3.8-1.2,5.4c-0.8,1.6-1.9,2.8-3.3,3.9c-1.4,1-2.9,1.8-4.6,2.2c-1.7,0.5-3.4,0.7-5.3,0.7
			h-4.3v11.8c0,0.6,0.1,1.2,0.3,1.7c0.2,0.5,0.6,0.9,1.3,1.1c0.3,0.1,0.9,0.2,1.7,0.4c0.8,0.1,1.6,0.2,2.3,0.2v1.9H11v-1.9
			c0.4,0,1.1-0.1,1.9-0.2c0.8-0.1,1.4-0.2,1.7-0.4c0.5-0.2,0.9-0.6,1.2-1c0.2-0.5,0.4-1,0.4-1.8v-28c0-0.6-0.1-1.2-0.3-1.7
			c-0.2-0.5-0.6-0.9-1.3-1.1c-0.7-0.2-1.4-0.4-2.1-0.5c-0.7-0.1-1.3-0.2-1.8-0.2v-2h17.7c3.6,0,6.5,0.9,8.8,2.6
			C39.6,24.9,40.7,27.2,40.7,30.1z M32.4,36.7c0.6-0.9,1-1.8,1.2-2.7c0.2-0.9,0.3-1.8,0.3-2.5c0-1-0.1-2.1-0.4-3.2
			c-0.2-1.1-0.7-2-1.3-2.8c-0.6-0.9-1.5-1.5-2.5-2c-1-0.5-2.3-0.7-3.9-0.7H22v17.2h2.8c2,0,3.6-0.3,4.8-0.9
			C30.9,38.4,31.8,37.6,32.4,36.7z"/>
		<path class="st0" d="M81.4,59.3H65.2v-1.9c1.4-0.1,2.6-0.3,3.5-0.5c0.9-0.3,1.4-0.6,1.4-1c0-0.2,0-0.4-0.1-0.6
			c0-0.2-0.1-0.4-0.2-0.6l-3.2-8.7H53.1c-0.5,1.3-0.9,2.4-1.2,3.3c-0.3,0.9-0.6,1.8-0.9,2.6c-0.2,0.8-0.4,1.4-0.5,1.9
			c-0.1,0.5-0.1,0.9-0.1,1.2c0,0.7,0.6,1.3,1.7,1.7c1.1,0.4,2.4,0.6,3.9,0.7v1.9H41.4v-1.9c0.5,0,1.1-0.1,1.8-0.3
			c0.7-0.2,1.3-0.4,1.8-0.7c0.7-0.5,1.3-1,1.7-1.5c0.4-0.5,0.8-1.3,1.2-2.2c2-4.9,4.1-10.3,6.5-16.4c2.4-6.1,4.4-11.5,6.3-16.2h2.2
			l12.9,33.5c0.3,0.7,0.6,1.3,0.9,1.7c0.3,0.4,0.8,0.9,1.4,1.3c0.4,0.3,1,0.5,1.6,0.6c0.7,0.2,1.2,0.3,1.7,0.3L81.4,59.3L81.4,59.3z
			 M65.8,43.5l-5.9-15.1l-5.8,15.1H65.8z"/>
		<path class="st0" d="M119.9,59.3h-18.2v-1.9c1.5,0,2.7-0.2,3.6-0.4c0.9-0.2,1.4-0.6,1.4-1.1c0-0.3-0.2-0.8-0.6-1.7s-1-1.8-1.6-2.9
			c-0.7-1.2-1.6-2.5-2.6-4.1s-2-3.1-3-4.5c-1.6,2.1-3.4,4.7-5.5,7.6c-2,3-3.1,4.7-3.1,5.3c0,0.6,0.3,1,0.8,1.3
			c0.6,0.3,1.8,0.5,3.7,0.5v1.9H80.4v-1.9c0.5,0,1.1-0.1,1.8-0.2c0.7-0.1,1.3-0.3,1.8-0.5c0.9-0.5,1.7-1.1,2.3-1.7
			c0.6-0.6,1.2-1.3,1.7-2.1c1.2-1.6,2.7-3.6,4.5-6c1.8-2.4,3.4-4.6,4.8-6.6c-1.1-1.5-2.4-3.5-4.1-5.9c-1.6-2.4-3.4-4.9-5.3-7.6
			c-0.8-1.1-1.4-2-1.8-2.4c-0.4-0.5-1-0.9-1.8-1.2c-0.4-0.2-1-0.4-1.8-0.5c-0.8-0.1-1.4-0.2-1.8-0.2v-1.9h18v1.9
			c-1.1,0-2.2,0.2-3.3,0.4c-1.1,0.2-1.7,0.6-1.7,1.1c0,0.3,0.2,1,0.7,1.8c0.5,0.9,1,1.8,1.6,2.8c0.6,1,1.3,2.2,2.1,3.4
			c0.8,1.2,1.7,2.7,2.9,4.3c2.1-2.8,3.8-5.3,5.3-7.5c1.5-2.2,2.2-3.7,2.2-4.4c0-0.6-0.3-1-1-1.3c-0.7-0.3-1.8-0.4-3.5-0.5v-2h14.5
			v1.9c-0.5,0-1.1,0.1-1.8,0.2s-1.4,0.3-1.8,0.5c-0.9,0.5-1.7,0.9-2.1,1.5c-0.5,0.5-1.1,1.3-1.9,2.3c-1.5,1.9-2.8,3.6-4,5.3
			c-1.2,1.7-2.7,3.7-4.4,6c1.5,2.1,3.1,4.4,4.9,7.1c1.8,2.6,3.5,5.2,5.2,7.6c0.6,0.8,1.2,1.6,1.9,2.3s1.3,1.2,1.8,1.5
			c0.4,0.3,1,0.4,1.8,0.5c0.7,0.1,1.4,0.1,1.9,0.1V59.3z"/>
		<path class="st0" d="M160.2,41.5c0.8,0.9,1.4,1.9,1.8,3c0.4,1.1,0.6,2.3,0.6,3.8c0,3.4-1.3,6.3-3.8,8.5c-2.5,2.2-5.7,3.3-9.4,3.3
			c-1.7,0-3.5-0.3-5.2-0.8c-1.7-0.5-3.2-1.2-4.5-2l-1.2,2h-2.2l-0.4-13.3h2.2c0.5,1.6,1,3.1,1.6,4.4c0.6,1.3,1.4,2.6,2.4,3.7
			c0.9,1.1,2.1,1.9,3.3,2.6c1.3,0.6,2.7,1,4.4,1c1.3,0,2.4-0.2,3.3-0.5c0.9-0.3,1.7-0.8,2.3-1.4c0.6-0.6,1-1.3,1.3-2.1
			c0.3-0.8,0.4-1.7,0.4-2.8c0-1.6-0.4-3-1.3-4.3c-0.9-1.3-2.2-2.4-3.9-3.1c-1.2-0.5-2.5-1-4.1-1.6c-1.5-0.6-2.9-1.1-4-1.6
			c-2.2-1-3.9-2.3-5.1-3.9c-1.2-1.6-1.8-3.7-1.8-6.2c0-1.5,0.3-2.9,0.9-4.1c0.6-1.3,1.5-2.4,2.6-3.4c1.1-0.9,2.3-1.7,3.7-2.2
			c1.4-0.5,2.9-0.8,4.5-0.8c1.8,0,3.4,0.3,4.8,0.8c1.4,0.5,2.7,1.2,3.9,1.9l1.1-1.9h2.2l0.2,12.9h-2.2c-0.4-1.5-0.9-2.9-1.4-4.2
			c-0.5-1.3-1.2-2.6-2-3.7c-0.8-1.1-1.7-1.9-2.9-2.5c-1.1-0.6-2.5-0.9-4.2-0.9c-1.7,0-3.2,0.6-4.4,1.7c-1.2,1.1-1.8,2.5-1.8,4.1
			c0,1.7,0.4,3.1,1.2,4.2c0.8,1.1,1.9,2,3.4,2.7c1.3,0.6,2.6,1.2,3.9,1.7c1.3,0.5,2.5,1,3.7,1.5c1.1,0.5,2.1,1,3.2,1.6
			C158.6,40.1,159.5,40.7,160.2,41.5z"/>
		<path class="st0" d="M203.6,59.3h-16.1v-1.9c1.4-0.1,2.6-0.3,3.5-0.5c0.9-0.3,1.4-0.6,1.4-1c0-0.2,0-0.4-0.1-0.6
			c0-0.2-0.1-0.4-0.2-0.6l-3.2-8.7h-13.6c-0.5,1.3-0.9,2.4-1.2,3.3c-0.3,0.9-0.6,1.8-0.9,2.6c-0.2,0.8-0.4,1.4-0.5,1.9
			c-0.1,0.5-0.1,0.9-0.1,1.2c0,0.7,0.6,1.3,1.7,1.7c1.1,0.4,2.4,0.6,3.9,0.7v1.9h-14.6v-1.9c0.5,0,1.1-0.1,1.8-0.3
			c0.7-0.2,1.3-0.4,1.8-0.7c0.7-0.5,1.3-1,1.7-1.5c0.4-0.5,0.8-1.3,1.2-2.2c2-4.9,4.1-10.3,6.5-16.4c2.4-6.1,4.4-11.5,6.3-16.2h2.2
			l12.9,33.5c0.3,0.7,0.6,1.3,0.9,1.7c0.3,0.4,0.8,0.9,1.4,1.3c0.4,0.3,1,0.5,1.6,0.6c0.7,0.2,1.2,0.3,1.7,0.3L203.6,59.3
			L203.6,59.3z M188,43.5l-5.9-15.1l-5.8,15.1H188z"/>
		<path class="st0" d="M234.7,30.1c0,2-0.4,3.8-1.2,5.4c-0.8,1.6-1.9,2.8-3.3,3.9c-1.4,1-2.9,1.8-4.6,2.2c-1.7,0.5-3.4,0.7-5.3,0.7
			h-4.3v11.8c0,0.6,0.1,1.2,0.3,1.7c0.2,0.5,0.6,0.9,1.3,1.1c0.3,0.1,0.9,0.2,1.7,0.4c0.8,0.1,1.6,0.2,2.3,0.2v1.9h-16.7v-1.9
			c0.4,0,1.1-0.1,1.9-0.2c0.8-0.1,1.4-0.2,1.7-0.4c0.5-0.2,0.9-0.6,1.2-1c0.2-0.5,0.4-1,0.4-1.8v-28c0-0.6-0.1-1.2-0.3-1.7
			c-0.2-0.5-0.6-0.9-1.3-1.1c-0.7-0.2-1.4-0.4-2.1-0.5c-0.7-0.1-1.3-0.2-1.8-0.2v-2h17.7c3.6,0,6.5,0.9,8.8,2.6
			C233.6,24.9,234.7,27.2,234.7,30.1z M226.4,36.7c0.6-0.9,1-1.8,1.2-2.7c0.2-0.9,0.3-1.8,0.3-2.5c0-1-0.1-2.1-0.4-3.2
			c-0.2-1.1-0.7-2-1.3-2.8c-0.6-0.9-1.5-1.5-2.5-2c-1-0.5-2.3-0.7-3.9-0.7h-3.9v17.2h2.8c2,0,3.6-0.3,4.8-0.9
			C224.9,38.4,225.8,37.6,226.4,36.7z"/>
		<path class="st0" d="M256.1,59.3h-17.5v-1.9c0.5,0,1.2-0.1,2.1-0.2c0.9-0.1,1.6-0.2,2-0.3c0.6-0.2,1-0.6,1.3-1s0.4-1,0.4-1.7V26.1
			c0-0.6-0.1-1.2-0.3-1.6c-0.2-0.4-0.7-0.8-1.4-1.1c-0.5-0.2-1.2-0.4-2.1-0.6c-0.8-0.2-1.5-0.3-2-0.3v-1.9h17.5v1.9
			c-0.6,0-1.2,0.1-2,0.2c-0.8,0.1-1.5,0.3-2.1,0.5c-0.7,0.2-1.2,0.6-1.4,1.1c-0.2,0.5-0.4,1-0.4,1.6v28.1c0,0.6,0.1,1.1,0.4,1.6
			c0.3,0.5,0.7,0.8,1.4,1.1c0.4,0.1,1,0.3,1.9,0.5c0.9,0.2,1.6,0.3,2.2,0.3L256.1,59.3L256.1,59.3z"/>
		<path class="st0" d="M293.6,47.9l-0.7,11.4h-32.2v-1.9c0.5,0,1.3-0.1,2.2-0.2c0.9-0.1,1.5-0.2,1.8-0.4c0.6-0.3,1-0.6,1.2-1.1
			c0.2-0.4,0.3-1,0.3-1.7V26.2c0-0.6-0.1-1.1-0.3-1.6c-0.2-0.5-0.6-0.8-1.3-1.1c-0.5-0.2-1.2-0.4-2-0.6c-0.8-0.2-1.5-0.3-2-0.3v-2
			h30v9.4h-2.1c-0.4-1.4-1.2-2.9-2.4-4.4c-1.2-1.6-2.4-2.4-3.5-2.6c-0.6-0.1-1.2-0.1-2-0.2c-0.8,0-1.7-0.1-2.7-0.1H272v15.4h4.4
			c1.4,0,2.4-0.1,3.1-0.4c0.6-0.3,1.2-0.7,1.7-1.3c0.4-0.5,0.7-1.2,1-2.1c0.3-0.9,0.5-1.7,0.6-2.5h2.1V47h-2.1
			c-0.1-0.9-0.3-1.8-0.6-2.8c-0.3-1-0.7-1.7-1-2.1c-0.6-0.7-1.2-1.2-1.9-1.4c-0.7-0.2-1.7-0.3-2.9-0.3H272V52c0,1.2,0.1,2.1,0.2,2.8
			c0.2,0.7,0.5,1.2,1,1.5c0.5,0.3,1.1,0.6,1.9,0.7c0.8,0.1,2,0.2,3.5,0.2c0.6,0,1.4,0,2.4,0s1.8,0,2.5-0.1c0.7-0.1,1.4-0.2,2.1-0.4
			c0.7-0.2,1.3-0.5,1.6-0.8c0.8-0.9,1.7-2.2,2.6-4c0.9-1.8,1.5-3.1,1.8-3.9C291.6,47.9,293.6,47.9,293.6,47.9z"/>
		<path class="st0" d="M337.4,22.5c-0.5,0-1.3,0.2-2.4,0.4c-1.1,0.3-1.8,0.6-2.3,0.8c-0.7,0.5-1.1,1.3-1.3,2.6
			c-0.2,1.3-0.3,2.9-0.3,4.9v28.4h-2.4L305.2,28v20c0,2.2,0.1,4,0.4,5.2c0.3,1.2,0.7,2.1,1.3,2.6c0.4,0.4,1.3,0.8,2.6,1.1
			c1.3,0.3,2.2,0.5,2.6,0.5v1.9h-15.9v-1.9c0.5,0,1.3-0.2,2.5-0.5c1.2-0.3,1.9-0.6,2.2-0.9c0.6-0.5,1.1-1.3,1.3-2.3
			c0.2-1,0.4-2.8,0.4-5.4V29.2c0-0.8-0.1-1.7-0.4-2.5c-0.3-0.8-0.7-1.5-1.2-1.9c-0.7-0.6-1.5-1.1-2.7-1.5c-1.1-0.4-2-0.7-2.7-0.7
			v-1.9h11.1l21.8,29.6V31.7c0-2.3-0.1-4-0.4-5.2c-0.3-1.2-0.7-2-1.3-2.4c-0.5-0.3-1.3-0.7-2.5-1c-1.2-0.3-2-0.5-2.6-0.5v-1.9h15.8
			L337.4,22.5L337.4,22.5z"/>
		<path class="st0" d="M372.1,31.1h-1.9c-0.2-0.7-0.5-1.4-0.9-2.3c-0.4-0.9-0.9-1.8-1.4-2.6c-0.5-0.8-1.1-1.6-1.8-2.2
			c-0.6-0.6-1.3-1-1.9-1.1c-0.6-0.1-1.3-0.1-2.1-0.2s-1.7-0.1-2.4-0.1h-1.6v31c0,0.6,0.1,1.2,0.4,1.7c0.3,0.5,0.7,0.9,1.3,1.2
			c0.3,0.1,1,0.3,2.1,0.5c1,0.2,1.9,0.3,2.4,0.4v1.9H346v-1.9c0.5,0,1.3-0.1,2.3-0.2c1-0.1,1.8-0.2,2.2-0.4c0.6-0.2,1-0.6,1.3-1
			c0.3-0.4,0.4-1,0.4-1.8V22.7h-1.6c-0.6,0-1.3,0-2.1,0c-0.8,0-1.6,0.1-2.4,0.2c-0.6,0.1-1.2,0.4-1.9,1.1c-0.6,0.6-1.2,1.4-1.8,2.2
			c-0.6,0.8-1,1.7-1.4,2.6c-0.4,0.9-0.7,1.7-0.9,2.3h-1.9V20.5h33.8L372.1,31.1L372.1,31.1z"/>
		<path class="st0" d="M392.2,59.3h-17.5v-1.9c0.5,0,1.2-0.1,2.1-0.2c0.9-0.1,1.6-0.2,2-0.3c0.6-0.2,1-0.6,1.3-1s0.4-1,0.4-1.7V26.1
			c0-0.6-0.1-1.2-0.3-1.6c-0.2-0.4-0.7-0.8-1.4-1.1c-0.5-0.2-1.2-0.4-2.1-0.6c-0.8-0.2-1.5-0.3-2-0.3v-1.9h17.5v1.9
			c-0.6,0-1.2,0.1-2,0.2c-0.8,0.1-1.5,0.3-2.1,0.5c-0.7,0.2-1.2,0.6-1.4,1.1c-0.2,0.5-0.4,1-0.4,1.6v28.1c0,0.6,0.1,1.1,0.4,1.6
			c0.3,0.5,0.7,0.8,1.4,1.1c0.4,0.1,1,0.3,1.9,0.5c0.9,0.2,1.6,0.3,2.2,0.3L392.2,59.3L392.2,59.3z"/>
		<path class="st0" d="M414.1,60.3c-2.3,0-4.5-0.5-6.7-1.4c-2.1-0.9-4-2.2-5.6-3.9c-1.6-1.7-2.9-3.8-3.9-6.3c-1-2.5-1.4-5.3-1.4-8.4
			s0.5-5.9,1.4-8.4c0.9-2.5,2.3-4.7,3.9-6.5c1.7-1.8,3.6-3.2,5.9-4.2c2.3-1,4.7-1.5,7.2-1.5c1.9,0,3.6,0.2,5.2,0.7
			c1.5,0.5,3,1.1,4.4,2l1.1-1.9h2.2l0.2,13.8h-2.2c-0.3-1.3-0.7-2.8-1.3-4.4c-0.6-1.6-1.3-2.9-2-4c-0.9-1.2-1.9-2.2-3.1-2.9
			s-2.6-1.1-4.1-1.1c-1.8,0-3.4,0.4-4.9,1.2c-1.5,0.8-2.8,1.9-3.9,3.5c-1.1,1.5-1.9,3.4-2.5,5.6S403,37.2,403,40
			c0,2.5,0.3,4.8,0.9,6.8c0.6,2.1,1.5,3.9,2.7,5.5c1.2,1.6,2.5,2.8,4.1,3.6s3.4,1.3,5.3,1.3c1.5,0,2.8-0.2,4.1-0.7
			c1.2-0.5,2.3-1.1,3.2-1.8c0.9-0.8,1.7-1.7,2.4-2.7c0.7-1,1.3-2.1,1.7-3.3l2.1,1c-1.6,3.8-3.6,6.6-6.2,8.2
			C420.8,59.5,417.7,60.3,414.1,60.3z"/>
		<path class="st0" d="M469.2,59.3H453v-1.9c1.4-0.1,2.6-0.3,3.5-0.5c0.9-0.3,1.4-0.6,1.4-1c0-0.2,0-0.4-0.1-0.6
			c0-0.2-0.1-0.4-0.2-0.6l-3.2-8.7h-13.6c-0.5,1.3-0.9,2.4-1.2,3.3c-0.3,0.9-0.6,1.8-0.9,2.6c-0.2,0.8-0.4,1.4-0.5,1.9
			s-0.1,0.9-0.1,1.2c0,0.7,0.6,1.3,1.7,1.7c1.1,0.4,2.4,0.6,3.9,0.7v1.9h-14.6v-1.9c0.5,0,1.1-0.1,1.8-0.3c0.7-0.2,1.3-0.4,1.8-0.7
			c0.7-0.5,1.3-1,1.7-1.5s0.8-1.3,1.2-2.2c2-4.9,4.1-10.3,6.5-16.4s4.4-11.5,6.3-16.2h2.2l12.9,33.5c0.3,0.7,0.6,1.3,0.9,1.7
			c0.3,0.4,0.8,0.9,1.4,1.3c0.4,0.3,1,0.5,1.6,0.6c0.7,0.2,1.2,0.3,1.7,0.3L469.2,59.3L469.2,59.3z M453.5,43.5l-5.9-15.1l-5.8,15.1
			H453.5z"/>
	</g>
	<g>
		<path class="st1" d="M40.7,30.1c0,2-0.4,3.8-1.2,5.4c-0.8,1.6-1.9,2.8-3.3,3.9c-1.4,1-2.9,1.8-4.6,2.2c-1.7,0.5-3.4,0.7-5.3,0.7
			h-4.3v11.8c0,0.6,0.1,1.2,0.3,1.7c0.2,0.5,0.6,0.9,1.3,1.1c0.3,0.1,0.9,0.2,1.7,0.4c0.8,0.1,1.6,0.2,2.3,0.2v1.9H11v-1.9
			c0.4,0,1.1-0.1,1.9-0.2c0.8-0.1,1.4-0.2,1.7-0.4c0.5-0.2,0.9-0.6,1.2-1c0.2-0.5,0.4-1,0.4-1.8v-28c0-0.6-0.1-1.2-0.3-1.7
			c-0.2-0.5-0.6-0.9-1.3-1.1c-0.7-0.2-1.4-0.4-2.1-0.5c-0.7-0.1-1.3-0.2-1.8-0.2v-2h17.7c3.6,0,6.5,0.9,8.8,2.6
			C39.6,24.9,40.7,27.2,40.7,30.1z M32.4,36.7c0.6-0.9,1-1.8,1.2-2.7c0.2-0.9,0.3-1.8,0.3-2.5c0-1-0.1-2.1-0.4-3.2
			c-0.2-1.1-0.7-2-1.3-2.8c-0.6-0.9-1.5-1.5-2.5-2c-1-0.5-2.3-0.7-3.9-0.7H22v17.2h2.8c2,0,3.6-0.3,4.8-0.9
			C30.9,38.4,31.8,37.6,32.4,36.7z"/>
		<path class="st1" d="M81.4,59.3H65.2v-1.9c1.4-0.1,2.6-0.3,3.5-0.5c0.9-0.3,1.4-0.6,1.4-1c0-0.2,0-0.4-0.1-0.6
			c0-0.2-0.1-0.4-0.2-0.6l-3.2-8.7H53.1c-0.5,1.3-0.9,2.4-1.2,3.3c-0.3,0.9-0.6,1.8-0.9,2.6c-0.2,0.8-0.4,1.4-0.5,1.9
			c-0.1,0.5-0.1,0.9-0.1,1.2c0,0.7,0.6,1.3,1.7,1.7c1.1,0.4,2.4,0.6,3.9,0.7v1.9H41.4v-1.9c0.5,0,1.1-0.1,1.8-0.3
			c0.7-0.2,1.3-0.4,1.8-0.7c0.7-0.5,1.3-1,1.7-1.5c0.4-0.5,0.8-1.3,1.2-2.2c2-4.9,4.1-10.3,6.5-16.4c2.4-6.1,4.4-11.5,6.3-16.2h2.2
			l12.9,33.5c0.3,0.7,0.6,1.3,0.9,1.7c0.3,0.4,0.8,0.9,1.4,1.3c0.4,0.3,1,0.5,1.6,0.6c0.7,0.2,1.2,0.3,1.7,0.3L81.4,59.3L81.4,59.3z
			 M65.8,43.5l-5.9-15.1l-5.8,15.1H65.8z"/>
		<path class="st1" d="M119.9,59.3h-18.2v-1.9c1.5,0,2.7-0.2,3.6-0.4c0.9-0.2,1.4-0.6,1.4-1.1c0-0.3-0.2-0.8-0.6-1.7s-1-1.8-1.6-2.9
			c-0.7-1.2-1.6-2.5-2.6-4.1s-2-3.1-3-4.5c-1.6,2.1-3.4,4.7-5.5,7.6c-2,3-3.1,4.7-3.1,5.3c0,0.6,0.3,1,0.8,1.3
			c0.6,0.3,1.8,0.5,3.7,0.5v1.9H80.4v-1.9c0.5,0,1.1-0.1,1.8-0.2c0.7-0.1,1.3-0.3,1.8-0.5c0.9-0.5,1.7-1.1,2.3-1.7
			c0.6-0.6,1.2-1.3,1.7-2.1c1.2-1.6,2.7-3.6,4.5-6c1.8-2.4,3.4-4.6,4.8-6.6c-1.1-1.5-2.4-3.5-4.1-5.9c-1.6-2.4-3.4-4.9-5.3-7.6
			c-0.8-1.1-1.4-2-1.8-2.4c-0.4-0.5-1-0.9-1.8-1.2c-0.4-0.2-1-0.4-1.8-0.5c-0.8-0.1-1.4-0.2-1.8-0.2v-1.9h18v1.9
			c-1.1,0-2.2,0.2-3.3,0.4c-1.1,0.2-1.7,0.6-1.7,1.1c0,0.3,0.2,1,0.7,1.8c0.5,0.9,1,1.8,1.6,2.8c0.6,1,1.3,2.2,2.1,3.4
			c0.8,1.2,1.7,2.7,2.9,4.3c2.1-2.8,3.8-5.3,5.3-7.5c1.5-2.2,2.2-3.7,2.2-4.4c0-0.6-0.3-1-1-1.3c-0.7-0.3-1.8-0.4-3.5-0.5v-2h14.5
			v1.9c-0.5,0-1.1,0.1-1.8,0.2s-1.4,0.3-1.8,0.5c-0.9,0.5-1.7,0.9-2.1,1.5c-0.5,0.5-1.1,1.3-1.9,2.3c-1.5,1.9-2.8,3.6-4,5.3
			c-1.2,1.7-2.7,3.7-4.4,6c1.5,2.1,3.1,4.4,4.9,7.1c1.8,2.6,3.5,5.2,5.2,7.6c0.6,0.8,1.2,1.6,1.9,2.3s1.3,1.2,1.8,1.5
			c0.4,0.3,1,0.4,1.8,0.5c0.7,0.1,1.4,0.1,1.9,0.1V59.3z"/>
		<path class="st1" d="M160.2,41.5c0.8,0.9,1.4,1.9,1.8,3c0.4,1.1,0.6,2.3,0.6,3.8c0,3.4-1.3,6.3-3.8,8.5c-2.5,2.2-5.7,3.3-9.4,3.3
			c-1.7,0-3.5-0.3-5.2-0.8c-1.7-0.5-3.2-1.2-4.5-2l-1.2,2h-2.2l-0.4-13.3h2.2c0.5,1.6,1,3.1,1.6,4.4c0.6,1.3,1.4,2.6,2.4,3.7
			c0.9,1.1,2.1,1.9,3.3,2.6c1.3,0.6,2.7,1,4.4,1c1.3,0,2.4-0.2,3.3-0.5c0.9-0.3,1.7-0.8,2.3-1.4c0.6-0.6,1-1.3,1.3-2.1
			c0.3-0.8,0.4-1.7,0.4-2.8c0-1.6-0.4-3-1.3-4.3c-0.9-1.3-2.2-2.4-3.9-3.1c-1.2-0.5-2.5-1-4.1-1.6c-1.5-0.6-2.9-1.1-4-1.6
			c-2.2-1-3.9-2.3-5.1-3.9c-1.2-1.6-1.8-3.7-1.8-6.2c0-1.5,0.3-2.9,0.9-4.1c0.6-1.3,1.5-2.4,2.6-3.4c1.1-0.9,2.3-1.7,3.7-2.2
			c1.4-0.5,2.9-0.8,4.5-0.8c1.8,0,3.4,0.3,4.8,0.8c1.4,0.5,2.7,1.2,3.9,1.9l1.1-1.9h2.2l0.2,12.9h-2.2c-0.4-1.5-0.9-2.9-1.4-4.2
			c-0.5-1.3-1.2-2.6-2-3.7c-0.8-1.1-1.7-1.9-2.9-2.5c-1.1-0.6-2.5-0.9-4.2-0.9c-1.7,0-3.2,0.6-4.4,1.7c-1.2,1.1-1.8,2.5-1.8,4.1
			c0,1.7,0.4,3.1,1.2,4.2c0.8,1.1,1.9,2,3.4,2.7c1.3,0.6,2.6,1.2,3.9,1.7c1.3,0.5,2.5,1,3.7,1.5c1.1,0.5,2.1,1,3.2,1.6
			C158.6,40.1,159.5,40.7,160.2,41.5z"/>
		<path class="st1" d="M203.6,59.3h-16.1v-1.9c1.4-0.1,2.6-0.3,3.5-0.5c0.9-0.3,1.4-0.6,1.4-1c0-0.2,0-0.4-0.1-0.6
			c0-0.2-0.1-0.4-0.2-0.6l-3.2-8.7h-13.6c-0.5,1.3-0.9,2.4-1.2,3.3c-0.3,0.9-0.6,1.8-0.9,2.6c-0.2,0.8-0.4,1.4-0.5,1.9
			c-0.1,0.5-0.1,0.9-0.1,1.2c0,0.7,0.6,1.3,1.7,1.7c1.1,0.4,2.4,0.6,3.9,0.7v1.9h-14.6v-1.9c0.5,0,1.1-0.1,1.8-0.3
			c0.7-0.2,1.3-0.4,1.8-0.7c0.7-0.5,1.3-1,1.7-1.5c0.4-0.5,0.8-1.3,1.2-2.2c2-4.9,4.1-10.3,6.5-16.4c2.4-6.1,4.4-11.5,6.3-16.2h2.2
			l12.9,33.5c0.3,0.7,0.6,1.3,0.9,1.7c0.3,0.4,0.8,0.9,1.4,1.3c0.4,0.3,1,0.5,1.6,0.6c0.7,0.2,1.2,0.3,1.7,0.3L203.6,59.3
			L203.6,59.3z M188,43.5l-5.9-15.1l-5.8,15.1H188z"/>
		<path class="st1" d="M234.7,30.1c0,2-0.4,3.8-1.2,5.4c-0.8,1.6-1.9,2.8-3.3,3.9c-1.4,1-2.9,1.8-4.6,2.2c-1.7,0.5-3.4,0.7-5.3,0.7
			h-4.3v11.8c0,0.6,0.1,1.2,0.3,1.7c0.2,0.5,0.6,0.9,1.3,1.1c0.3,0.1,0.9,0.2,1.7,0.4c0.8,0.1,1.6,0.2,2.3,0.2v1.9h-16.7v-1.9
			c0.4,0,1.1-0.1,1.9-0.2c0.8-0.1,1.4-0.2,1.7-0.4c0.5-0.2,0.9-0.6,1.2-1c0.2-0.5,0.4-1,0.4-1.8v-28c0-0.6-0.1-1.2-0.3-1.7
			c-0.2-0.5-0.6-0.9-1.3-1.1c-0.7-0.2-1.4-0.4-2.1-0.5c-0.7-0.1-1.3-0.2-1.8-0.2v-2h17.7c3.6,0,6.5,0.9,8.8,2.6
			C233.6,24.9,234.7,27.2,234.7,30.1z M226.4,36.7c0.6-0.9,1-1.8,1.2-2.7c0.2-0.9,0.3-1.8,0.3-2.5c0-1-0.1-2.1-0.4-3.2
			c-0.2-1.1-0.7-2-1.3-2.8c-0.6-0.9-1.5-1.5-2.5-2c-1-0.5-2.3-0.7-3.9-0.7h-3.9v17.2h2.8c2,0,3.6-0.3,4.8-0.9
			C224.9,38.4,225.8,37.6,226.4,36.7z"/>
		<path class="st1" d="M256.1,59.3h-17.5v-1.9c0.5,0,1.2-0.1,2.1-0.2c0.9-0.1,1.6-0.2,2-0.3c0.6-0.2,1-0.6,1.3-1s0.4-1,0.4-1.7V26.1
			c0-0.6-0.1-1.2-0.3-1.6c-0.2-0.4-0.7-0.8-1.4-1.1c-0.5-0.2-1.2-0.4-2.1-0.6c-0.8-0.2-1.5-0.3-2-0.3v-1.9h17.5v1.9
			c-0.6,0-1.2,0.1-2,0.2c-0.8,0.1-1.5,0.3-2.1,0.5c-0.7,0.2-1.2,0.6-1.4,1.1c-0.2,0.5-0.4,1-0.4,1.6v28.1c0,0.6,0.1,1.1,0.4,1.6
			c0.3,0.5,0.7,0.8,1.4,1.1c0.4,0.1,1,0.3,1.9,0.5c0.9,0.2,1.6,0.3,2.2,0.3L256.1,59.3L256.1,59.3z"/>
		<path class="st1" d="M293.6,47.9l-0.7,11.4h-32.2v-1.9c0.5,0,1.3-0.1,2.2-0.2c0.9-0.1,1.5-0.2,1.8-0.4c0.6-0.3,1-0.6,1.2-1.1
			c0.2-0.4,0.3-1,0.3-1.7V26.2c0-0.6-0.1-1.1-0.3-1.6c-0.2-0.5-0.6-0.8-1.3-1.1c-0.5-0.2-1.2-0.4-2-0.6c-0.8-0.2-1.5-0.3-2-0.3v-2
			h30v9.4h-2.1c-0.4-1.4-1.2-2.9-2.4-4.4c-1.2-1.6-2.4-2.4-3.5-2.6c-0.6-0.1-1.2-0.1-2-0.2c-0.8,0-1.7-0.1-2.7-0.1H272v15.4h4.4
			c1.4,0,2.4-0.1,3.1-0.4c0.6-0.3,1.2-0.7,1.7-1.3c0.4-0.5,0.7-1.2,1-2.1c0.3-0.9,0.5-1.7,0.6-2.5h2.1V47h-2.1
			c-0.1-0.9-0.3-1.8-0.6-2.8c-0.3-1-0.7-1.7-1-2.1c-0.6-0.7-1.2-1.2-1.9-1.4c-0.7-0.2-1.7-0.3-2.9-0.3H272V52c0,1.2,0.1,2.1,0.2,2.8
			c0.2,0.7,0.5,1.2,1,1.5c0.5,0.3,1.1,0.6,1.9,0.7c0.8,0.1,2,0.2,3.5,0.2c0.6,0,1.4,0,2.4,0s1.8,0,2.5-0.1c0.7-0.1,1.4-0.2,2.1-0.4
			c0.7-0.2,1.3-0.5,1.6-0.8c0.8-0.9,1.7-2.2,2.6-4c0.9-1.8,1.5-3.1,1.8-3.9C291.6,47.9,293.6,47.9,293.6,47.9z"/>
		<path class="st1" d="M337.4,22.5c-0.5,0-1.3,0.2-2.4,0.4c-1.1,0.3-1.8,0.6-2.3,0.8c-0.7,0.5-1.1,1.3-1.3,2.6
			c-0.2,1.3-0.3,2.9-0.3,4.9v28.4h-2.4L305.2,28v20c0,2.2,0.1,4,0.4,5.2c0.3,1.2,0.7,2.1,1.3,2.6c0.4,0.4,1.3,0.8,2.6,1.1
			c1.3,0.3,2.2,0.5,2.6,0.5v1.9h-15.9v-1.9c0.5,0,1.3-0.2,2.5-0.5c1.2-0.3,1.9-0.6,2.2-0.9c0.6-0.5,1.1-1.3,1.3-2.3
			c0.2-1,0.4-2.8,0.4-5.4V29.2c0-0.8-0.1-1.7-0.4-2.5c-0.3-0.8-0.7-1.5-1.2-1.9c-0.7-0.6-1.5-1.1-2.7-1.5c-1.1-0.4-2-0.7-2.7-0.7
			v-1.9h11.1l21.8,29.6V31.7c0-2.3-0.1-4-0.4-5.2c-0.3-1.2-0.7-2-1.3-2.4c-0.5-0.3-1.3-0.7-2.5-1c-1.2-0.3-2-0.5-2.6-0.5v-1.9h15.8
			L337.4,22.5L337.4,22.5z"/>
		<path class="st1" d="M372.1,31.1h-1.9c-0.2-0.7-0.5-1.4-0.9-2.3c-0.4-0.9-0.9-1.8-1.4-2.6c-0.5-0.8-1.1-1.6-1.8-2.2
			c-0.6-0.6-1.3-1-1.9-1.1c-0.6-0.1-1.3-0.1-2.1-0.2s-1.7-0.1-2.4-0.1h-1.6v31c0,0.6,0.1,1.2,0.4,1.7c0.3,0.5,0.7,0.9,1.3,1.2
			c0.3,0.1,1,0.3,2.1,0.5c1,0.2,1.9,0.3,2.4,0.4v1.9H346v-1.9c0.5,0,1.3-0.1,2.3-0.2c1-0.1,1.8-0.2,2.2-0.4c0.6-0.2,1-0.6,1.3-1
			c0.3-0.4,0.4-1,0.4-1.8V22.7h-1.6c-0.6,0-1.3,0-2.1,0c-0.8,0-1.6,0.1-2.4,0.2c-0.6,0.1-1.2,0.4-1.9,1.1c-0.6,0.6-1.2,1.4-1.8,2.2
			c-0.6,0.8-1,1.7-1.4,2.6c-0.4,0.9-0.7,1.7-0.9,2.3h-1.9V20.5h33.8L372.1,31.1L372.1,31.1z"/>
		<path class="st1" d="M392.2,59.3h-17.5v-1.9c0.5,0,1.2-0.1,2.1-0.2c0.9-0.1,1.6-0.2,2-0.3c0.6-0.2,1-0.6,1.3-1s0.4-1,0.4-1.7V26.1
			c0-0.6-0.1-1.2-0.3-1.6c-0.2-0.4-0.7-0.8-1.4-1.1c-0.5-0.2-1.2-0.4-2.1-0.6c-0.8-0.2-1.5-0.3-2-0.3v-1.9h17.5v1.9
			c-0.6,0-1.2,0.1-2,0.2c-0.8,0.1-1.5,0.3-2.1,0.5c-0.7,0.2-1.2,0.6-1.4,1.1c-0.2,0.5-0.4,1-0.4,1.6v28.1c0,0.6,0.1,1.1,0.4,1.6
			c0.3,0.5,0.7,0.8,1.4,1.1c0.4,0.1,1,0.3,1.9,0.5c0.9,0.2,1.6,0.3,2.2,0.3L392.2,59.3L392.2,59.3z"/>
		<path class="st1" d="M414.1,60.3c-2.3,0-4.5-0.5-6.7-1.4c-2.1-0.9-4-2.2-5.6-3.9c-1.6-1.7-2.9-3.8-3.9-6.3c-1-2.5-1.4-5.3-1.4-8.4
			s0.5-5.9,1.4-8.4c0.9-2.5,2.3-4.7,3.9-6.5c1.7-1.8,3.6-3.2,5.9-4.2c2.3-1,4.7-1.5,7.2-1.5c1.9,0,3.6,0.2,5.2,0.7
			c1.5,0.5,3,1.1,4.4,2l1.1-1.9h2.2l0.2,13.8h-2.2c-0.3-1.3-0.7-2.8-1.3-4.4c-0.6-1.6-1.3-2.9-2-4c-0.9-1.2-1.9-2.2-3.1-2.9
			s-2.6-1.1-4.1-1.1c-1.8,0-3.4,0.4-4.9,1.2c-1.5,0.8-2.8,1.9-3.9,3.5c-1.1,1.5-1.9,3.4-2.5,5.6S403,37.2,403,40
			c0,2.5,0.3,4.8,0.9,6.8c0.6,2.1,1.5,3.9,2.7,5.5c1.2,1.6,2.5,2.8,4.1,3.6s3.4,1.3,5.3,1.3c1.5,0,2.8-0.2,4.1-0.7
			c1.2-0.5,2.3-1.1,3.2-1.8c0.9-0.8,1.7-1.7,2.4-2.7c0.7-1,1.3-2.1,1.7-3.3l2.1,1c-1.6,3.8-3.6,6.6-6.2,8.2
			C420.8,59.5,417.7,60.3,414.1,60.3z"/>
		<path class="st1" d="M469.2,59.3H453v-1.9c1.4-0.1,2.6-0.3,3.5-0.5c0.9-0.3,1.4-0.6,1.4-1c0-0.2,0-0.4-0.1-0.6
			c0-0.2-0.1-0.4-0.2-0.6l-3.2-8.7h-13.6c-0.5,1.3-0.9,2.4-1.2,3.3c-0.3,0.9-0.6,1.8-0.9,2.6c-0.2,0.8-0.4,1.4-0.5,1.9
			s-0.1,0.9-0.1,1.2c0,0.7,0.6,1.3,1.7,1.7c1.1,0.4,2.4,0.6,3.9,0.7v1.9h-14.6v-1.9c0.5,0,1.1-0.1,1.8-0.3c0.7-0.2,1.3-0.4,1.8-0.7
			c0.7-0.5,1.3-1,1.7-1.5s0.8-1.3,1.2-2.2c2-4.9,4.1-10.3,6.5-16.4s4.4-11.5,6.3-16.2h2.2l12.9,33.5c0.3,0.7,0.6,1.3,0.9,1.7
			c0.3,0.4,0.8,0.9,1.4,1.3c0.4,0.3,1,0.5,1.6,0.6c0.7,0.2,1.2,0.3,1.7,0.3L469.2,59.3L469.2,59.3z M453.5,43.5l-5.9-15.1l-5.8,15.1
			H453.5z"/>
	</g>
</g>
</svg>
