<?xml version="1.0" encoding="utf-8"?>
<!-- Generator: Adobe Illustrator 27.0.1, SVG Export Plug-In . SVG Version: 6.00 Build 0)  -->
<svg version="1.1" id="layer" xmlns="http://www.w3.org/2000/svg" xmlns:xlink="http://www.w3.org/1999/xlink" x="0px" y="0px"
	 viewBox="0 0 1000 1000" style="enable-background:new 0 0 1000 1000;" xml:space="preserve">
<style type="text/css">
	.st0{fill:#FFFFFF;}
	.st1{fill:#B50000;}
	.st2{fill:#00740C;stroke:#FFFFFF;stroke-width:5;stroke-miterlimit:10;}
	.st3{fill:#FFFFFF;stroke:#B50000;stroke-width:5;stroke-miterlimit:10;}
</style>
<g id="skeleton">
	<path class="st0" d="M479.2,574.4c-1.9-1-32.7-17.6-62.7-0.9c-22.5,12.5-28.9,34.9-30.1,39.3c13.8,14.7,19.3,26.9,16.4,36.7
		c-7.6,25.4-72.1,33.9-193.7,25.5c-19.6-19.6,6.4-43.3-3-59.2c-8.1-14,21.7-7.4,27.3-17.2c9.9-21.6-16.9-43.9-21.5-62.6
		c-49.6-21-15.7-38.3,4.7-66.3c16.8-33.9-8.8-54.1,12.2-84.9c27.3-49.9,40.2-116.6,89.4-156.9c108.6-80.9,285.9-119,400.3-31.5
		c118.3,76.3,158.6,279.6,80.9,382c-42.1,43.2-101.1,39.6-150.2,67.1c-24.6,8.9-38.6,42.9-58.6,18.4c-3.8-11.6-10.6-27.1-23.1-42.2
		C536.2,584.1,492.5,576.3,479.2,574.4z"/>
	<path class="st0" d="M524.1,655.7c11.1,91.3-16,118.9-101.1,146.7c-59,19-140.8,71.3-203.5,43c-46.7-35.4,12.8-75.3,6.7-104.5
		c11.7,0.5,24.1,0.3,37.1-0.7c61.7-5,110.6-27.7,143.6-47.7c-2-78.1,1.6-117.9,11-119.3c5.2-0.8,12.2,10.2,20.9,33
		c44.4,61.4,79.8-66.1,94.1-23.6C531.3,588.6,524.5,634.1,524.1,655.7z"/>
	<path class="st1" d="M509.4,585.9c-64.4,109.3-83.1-43.3-95.1-4.2c0.1,48.5,23.8,125-23.3,155c2.9-14.4,30-29.7,18.4-45.6
		c-4.9-10.2-9.9-20.4-14.8-30.6c13.2-16.4-7.1-41.3-18.1-54.5c-6.2,3-12.4,5.9-18.5,8.9c-12.9,0.9-23.7,7.4-37.9,6.3
		c-23.5-0.9-17.1-30.4-35.4-39c-5-6.4-34.9-22.2-22.9-28.2c10.1,14.4,29.5,23.3,40,38.7c1.1,10.9,7.5,19.8,16.2,22.4
		c5.2,1.6,10,0.5,12.6-0.4C407.6,603.9,413.6,520.8,509.4,585.9z"/>
	<path class="st1" d="M313.8,473c4.3,15.3,3.3,27,2.9,29.5c-3.6,26.6-24.4,52.8-37.4,50.2c-12.2-2.5-19.8-31.1-18.3-69.5
		c-3.4-15.1-15.6-37.8-11.8-53.2C256.4,390.4,309.4,457.4,313.8,473z"/>
	<path class="st1" d="M396.8,540.4c66.9-9,131.2,12.8,143.6,10.3c0.7-0.1,4-0.9,5.1,0.5c0.6,0.9,0.5,2.3-0.8,4.7
		c-62.2,14.3-124.8-22.7-185.2-1.7c-38,0.5-7.7-63.3-23.4-88c-21.3-49.2-38.7-82,11-120.6c1.7-1.3,5.5-2.6,6.5-1.5
		c2.8,3.1-20.3,18.9-28.9,41.1c-14.5,37.5,26.3,57.6,22.9,119.8c-0.9,15.4-4.1,27.9,3.9,35.7C360.1,549.1,373.3,543.5,396.8,540.4z"
		/>
	<path class="st2" d="M483.8,194.1c11,37.9-1.8,52,9.5,87.8c11,34.7,34.8,58.5,54,73.5c-8-53.3-4.5-112.2,21.3-161.3
		c3.5-8.8,13-7.8,9.3,2.6c10.1,35.8,32.3,70.3,38.3,109c21.1,58-7.8,120.2,30.5,171.4c0.7,16.8,21.8,91,22.9,55.8
		c-16.8-62.3-7.8-131.3,35.9-180.4c27.6-22.8,8.2,35.8,12.9,50.5c19.4,68.5,40.2,140.8,17.9,211.9c-2.2,15.9,4.6,41.8,24.2,39.9
		c-1.8-41.8-13.5-89.7,4.2-132.4c6.1-15.4,46.8-74.1,42.2-31.1c-2.1,32.6,19.4,59.5,31.5,87.1c7.6,99.9-44.4,191.8-25.1,291.3
		c8.5,69.7-15.3,8.3-23.4-17.3c-12.1-21.5-37.5-30.4-48.8-53.1c-14.4-34.6-48.2-25.4-78.6-24.1C646.6,764,561.4,765,605.6,742
		c97.4-86.8,185.5-34,106.9-100.5c-35-9.4-72.3,8.1-108.6,2.8c-32.3-13.4-68.3-32.3-99-1.8c-38,26.4,5.7-76,25.5-78.7
		c45.1-28.6,94.3-9.5,134.3,14.4c-4-7.1-27.4-16.6-14.8-26c14-14.6-60-38.8-71.1-57.9C495.3,497,439.1,431.8,395,367.6
		c-14.8-36.3,93.2,15.5,89.6-3.4c-13.7-21.9,19.5-4.7,25.5-12.1c-2.9-6-7.9-14.7-16.4-23c-27.2-26.2-57.1-15.5-101.9-26.7
		c-61.2-15.3-66.6-46.3-114.1-51.2c-16.8-1.7-36.6,3-63.2,19.6c-28.6,13.1-83.8,19.4-106.5-3c13.9-8.7,89.9-66.8,60.8-81.5
		c-28.4-20.9-50.8-50.8-67.9-80.8c7.8-8.5,26.4,8.4,38.8,2.7c42.3,4,88.2-4.6,125.8,19.5c10,1.5,47.5,35.8,43.9,11.4
		c-17.3-79.9,34.2-7.8,75.8,0.3c16.2,3.7,37.8,36.9,26.4-32.5C424.6,100.8,468.6,142.1,483.8,194.1z"/>
	<g id="tooth">
		<path class="st3" d="M392.3,707.9c-14.3,13.2-34.1-5.5-22.8-20.8C391.2,682.5,426.9,681.3,392.3,707.9z"/>
		<path class="st3" d="M366.1,720.4c-17,17-35.1-19.9-12.9-23.5C367.7,687.8,379.1,712.6,366.1,720.4z"/>
		<path class="st3" d="M328,700.9c36-16.9,9.9,54-9.6,21.4C314.3,709.9,315.6,703.6,328,700.9z"/>
		<path class="st3" d="M308.9,706.8c1.1,0.3,1.9,0.7,2.6,1.1c5,3.2,4.8,10.5,4.8,11.5c-0.1,9.3-5.8,17.6-15.9,16.6
			C277.5,702.8,296.8,716.9,308.9,706.8z"/>
		<path class="st3" d="M280,737.7c-6.9-7.4-11.9-18.3-6.3-28.7c3.2,2,6.4,3.3,10.3,0.4C291.4,705,297.8,750.7,280,737.7z"/>
		<path class="st3" d="M259.5,711c5.9,1.4,7.8-3.2,10.2-7c2.3,10.8,11.2,32.2-0.8,39.5C255.1,748.7,250.8,716.1,259.5,711z"/>
		<path class="st3" d="M246.6,744.5c-12,0.7-7.9-16.8-13.5-24.2c-1.5-7.6,5.6-6.6,10.3-9.6c1.8-2.8,3.2-5,7-3.8
			C257.5,717,260.4,739.2,246.6,744.5z"/>
		<path class="st3" d="M227,706.6c6.7,6.4,13.1,26.2,6.3,32.8C219.7,748.6,207.7,703.3,227,706.6z"/>
		<path class="st3" d="M394.6,660.1c18.4,22.9-23.4,41.8-27.3,14.6C362,660.9,389,648.9,394.6,660.1z"/>
		<path class="st3" d="M358.1,668.3c20.8,1.7,10.2,33.8-11.5,29.2c-6.1-5.1-6.2-22.2-2.3-26.5C349.3,671.7,353.9,670.9,358.1,668.3z
			"/>
		<path class="st3" d="M338.9,669.6c10.3,13.6,6.4,31.6-13.5,32.7C296.2,709.4,302.7,661.6,338.9,669.6z"/>
		<path class="st3" d="M307.1,684c4.8,10.6,5.3,31.3-11.7,25.6C277.6,700.4,293.9,657.2,307.1,684z"/>
		<path class="st3" d="M280.6,676.6c13.4,3.3,9.7,45.4-5.9,32C271.3,700.7,266.9,673.1,280.6,676.6z"/>
		<path class="st3" d="M251.9,708.3c-7.2-11.6-5-49,14.1-30.6C276.1,683.3,269.5,717.9,251.9,708.3z"/>
		<path class="st3" d="M234.8,669.6c20.7,4.9,17.3,59-7.3,39.5C220.3,697.2,222.6,676,234.8,669.6z"/>
		<path class="st3" d="M227.6,677.1c-5.4,7,0.9,24.4-5.6,27.5C195.5,728.2,207.9,637.3,227.6,677.1z"/>
	</g>
</g>
</svg>
