<?xml version="1.0" encoding="utf-8"?>
<!-- Generator: Adobe Illustrator 27.0.1, SVG Export Plug-In . SVG Version: 6.00 Build 0)  -->
<svg version="1.1" xmlns="http://www.w3.org/2000/svg" xmlns:xlink="http://www.w3.org/1999/xlink" x="0px" y="0px"
	 width="800px" height="160px" viewBox="0 0 5000 1000" style="enable-background:new 0 0 5000 1000;" xml:space="preserve">
<style type="text/css">
	.st0{fill:#B50000;}
	.st1{fill:#FFFFFF;}
	.st2{fill:#00740C;stroke:#FFFFFF;stroke-width:5;stroke-miterlimit:10;}
	.st3{fill:#FFFFFF;stroke:#B50000;stroke-width:5;stroke-miterlimit:10;}
	.st4{fill:#FDFDFD;}
	.st5{fill:#FEFEFE;}
	.st6{fill:#B91212;}
	.st7{fill:#C33434;}
	.st8{fill:#FEFDFD;}
	.st9{fill:#FDF9F9;}
	.st10{fill:#FDFBFB;}
	.st11{fill:#FDFCFC;}
	.st12{fill:#FCF8F8;}
	.st13{fill:#B91111;}
	.st14{fill:#FCF6F6;}
	.st15{fill:#BB1717;}
	.st16{fill:#F9ECEC;}
	.st17{fill:#B80F0F;}
	.st18{fill:#FDFAFA;}
	.st19{fill:#FAF1F1;}
	.st20{fill:#FAF2F2;}
	.st21{fill:#BC1B1B;}
	.st22{fill:#C02929;}
	.st23{fill:#F4DDDD;}
	.st24{fill:#FBF4F4;}
	.st25{fill:#F6E2E2;}
	.st26{fill:#F9EEEE;}
	.st27{fill:#F6E5E5;}
	.st28{fill:#F7E5E5;}
	.st29{fill:#EDC5C5;}
	.st30{fill:#F2D6D6;}
	.st31{fill:#FAF0F0;}
	.st32{fill:#BC1E1E;}
	.st33{fill:#F6E4E4;}
	.st34{fill:#F6E3E3;}
	.st35{fill:#E3A2A2;}
	.st36{fill:#F8EAEA;}
	.st37{fill:#F8EBEB;}
	.st38{fill:#F2D5D5;}
	.st39{fill:#ECC1C1;}
	.st40{fill:#FCF7F7;}
	.st41{fill:#BE2525;}
	.st42{fill:#EBBFBF;}
	.st43{fill:#F9EDED;}
	.st44{fill:#F5E0E0;}
	.st45{fill:#EABCBC;}
	.st46{fill:#EDC7C7;}
	.st47{fill:#CB5050;}
	.st48{fill:#F3D9D9;}
	.st49{fill:#C12D2D;}
	.st50{fill:#FAF3F3;}
	.st51{fill:#BA1515;}
	.st52{fill:#BD1E1E;}
	.st53{fill:#C64040;}
	.st54{fill:#C43939;}
	.st55{fill:#C53D3D;}
	.st56{fill:#C12F2F;}
	.st57{fill:#BC1D1D;}
	.st58{fill:#BF2424;}
	.st59{fill:#BF2828;}
	.st60{fill:#CC5555;}
	.st61{fill:#BF2727;}
	.st62{fill:#E9B6B6;}
	.st63{fill:#EEC6C6;}
	.st64{fill:#CA4C4C;}
	.st65{fill:#BA1616;}
	.st66{fill:#F3DADA;}
	.st67{fill:#F0D1D1;}
	.st68{fill:#BF2525;}
	.st69{fill:#E8B3B3;}
	.st70{fill:#C22F2F;}
	.st71{fill:#BE2222;}
	.st72{fill:#C12E2E;}
	.st73{fill:#F7E6E6;}
	.st74{fill:#D36C6C;}
	.st75{fill:#C84747;}
	.st76{fill:#CB5151;}
	.st77{fill:#BF2626;}
	.st78{fill:#B60505;}
	.st79{fill:#B60808;}
	.st80{fill:#D16666;}
	.st81{fill:#F5E1E1;}
	.st82{fill:#BB1919;}
	.st83{fill:#BD2020;}
	.st84{fill:#E09999;}
	.st85{fill:#E4A6A6;}
	.st86{fill:#C43737;}
	.st87{fill:#BB1616;}
	.st88{fill:#BD2121;}
	.st89{fill:#DA8383;}
	.st90{fill:#D16363;}
</style>
<g id="layer">
	<g id="background">
		<rect class="st0" width="5000" height="1000"/>
	</g>
	<g id="skeleton">
		<path class="st1" d="M528.3,574.4c-1.9-1-32.7-17.6-62.7-0.9c-22.5,12.5-28.9,34.9-30.1,39.3c13.8,14.7,19.3,26.9,16.4,36.7
			c-7.6,25.4-72.1,33.9-193.7,25.5c-19.6-19.6,6.4-43.3-3-59.2c-8.1-14,21.7-7.4,27.3-17.2c9.9-21.6-16.9-43.9-21.5-62.6
			c-49.6-21-15.7-38.3,4.7-66.3c16.8-33.9-8.8-54.1,12.2-84.9c27.3-49.9,40.2-116.6,89.4-156.9c108.6-80.9,285.9-119,400.3-31.5
			c118.3,76.3,158.6,279.6,80.9,382c-42.1,43.2-101.1,39.6-150.2,67.1c-24.6,8.9-38.6,42.9-58.6,18.4c-3.8-11.6-10.6-27.1-23.1-42.2
			C585.3,584.1,541.6,576.3,528.3,574.4z"/>
		<path class="st1" d="M573.2,655.7c11.1,91.3-16,118.9-101.1,146.7c-59,19-140.8,71.3-203.5,43c-46.7-35.4,12.8-75.3,6.7-104.5
			c11.7,0.5,24.1,0.3,37.1-0.7c61.7-5,110.6-27.7,143.6-47.7c-2-78.1,1.6-117.9,11-119.3c5.2-0.8,12.2,10.2,20.9,33
			c44.4,61.4,79.8-66.1,94.1-23.6C580.4,588.6,573.6,634.1,573.2,655.7z"/>
		<path class="st0" d="M558.5,585.9c-64.4,109.3-83.1-43.3-95.1-4.2c0.1,48.5,23.8,125-23.3,155c2.9-14.4,30-29.7,18.4-45.6
			c-4.9-10.2-9.9-20.4-14.8-30.6c13.2-16.4-7.1-41.3-18.1-54.5c-6.2,3-12.4,5.9-18.5,8.9c-12.9,0.9-23.7,7.4-37.9,6.3
			c-23.5-0.9-17.1-30.4-35.4-39c-5-6.4-34.9-22.2-22.9-28.2c10.1,14.4,29.5,23.3,40,38.7c1.1,10.9,7.5,19.8,16.2,22.4
			c5.2,1.6,10,0.5,12.6-0.4C456.7,603.9,462.7,520.8,558.5,585.9z"/>
		<path class="st0" d="M362.9,473c4.3,15.3,3.3,27,2.9,29.5c-3.6,26.6-24.4,52.8-37.4,50.2c-12.2-2.5-19.8-31.1-18.3-69.5
			c-3.4-15.1-15.6-37.8-11.8-53.2C305.5,390.4,358.5,457.4,362.9,473z"/>
		<path class="st0" d="M445.9,540.4c66.9-9,131.2,12.8,143.6,10.3c0.7-0.1,4-0.9,5.1,0.5c0.6,0.9,0.5,2.3-0.8,4.7
			c-62.2,14.3-124.8-22.7-185.2-1.7c-38,0.5-7.7-63.3-23.4-88c-21.3-49.2-38.7-82,11-120.6c1.7-1.3,5.5-2.6,6.5-1.5
			c2.8,3.1-20.3,18.9-28.9,41.1c-14.5,37.5,26.3,57.6,22.9,119.8c-0.9,15.4-4.1,27.9,3.9,35.7C409.2,549.1,422.4,543.5,445.9,540.4z
			"/>
		<path class="st2" d="M532.9,194.1c11,37.9-1.8,52,9.5,87.8c11,34.7,34.8,58.5,54,73.5c-8-53.3-4.5-112.2,21.3-161.3
			c3.5-8.8,13-7.8,9.3,2.6c10.1,35.8,32.3,70.3,38.3,109c21.1,58-7.8,120.2,30.5,171.4c0.7,16.8,21.8,91,22.9,55.8
			c-16.8-62.3-7.8-131.3,35.9-180.4c27.6-22.8,8.2,35.8,12.9,50.5c19.4,68.5,40.2,140.8,17.9,211.9c-2.2,15.9,4.6,41.8,24.2,39.9
			c-1.8-41.8-13.5-89.7,4.2-132.4c6.1-15.4,46.8-74.1,42.2-31.1c-2.1,32.6,19.4,59.5,31.5,87.1c7.6,99.9-44.4,191.8-25.1,291.3
			c8.5,69.7-15.3,8.3-23.4-17.3c-12.1-21.5-37.5-30.4-48.8-53.1c-14.4-34.6-48.2-25.4-78.6-24.1C695.7,764,610.5,765,654.7,742
			c97.4-86.8,185.5-34,106.9-100.5c-35-9.4-72.3,8.1-108.6,2.8c-32.3-13.4-68.3-32.3-99-1.8c-38,26.4,5.7-76,25.5-78.7
			c45.1-28.6,94.3-9.5,134.3,14.4c-4-7.1-27.4-16.6-14.8-26c14-14.6-60-38.8-71.1-57.9c-83.5,2.7-139.7-62.5-183.8-126.7
			c-14.8-36.3,93.2,15.5,89.6-3.4c-13.7-21.9,19.5-4.7,25.5-12.1c-2.9-6-7.9-14.7-16.4-23c-27.2-26.2-57.1-15.5-101.9-26.7
			c-61.2-15.3-66.6-46.3-114.1-51.2c-16.8-1.7-36.6,3-63.2,19.6c-28.6,13.1-83.8,19.4-106.5-3c13.9-8.7,89.9-66.8,60.8-81.5
			c-28.4-20.9-50.8-50.8-67.9-80.8c7.8-8.5,26.4,8.4,38.8,2.7c42.3,4,88.2-4.6,125.8,19.5c10,1.5,47.5,35.8,43.9,11.4
			c-17.3-79.9,34.2-7.8,75.8,0.3c16.2,3.7,37.8,36.9,26.4-32.5C473.7,100.8,517.7,142.1,532.9,194.1z"/>
		<g id="tooth">
			<path class="st3" d="M441.4,707.9c-14.3,13.2-34.1-5.5-22.8-20.8C440.3,682.5,476,681.3,441.4,707.9z"/>
			<path class="st3" d="M415.2,720.4c-17,17-35.1-19.9-12.9-23.5C416.8,687.8,428.2,712.6,415.2,720.4z"/>
			<path class="st3" d="M377.1,700.9c36-16.9,9.9,54-9.6,21.4C363.4,709.9,364.7,703.6,377.1,700.9z"/>
			<path class="st3" d="M358,706.8c1.1,0.3,1.9,0.7,2.6,1.1c5,3.2,4.8,10.5,4.8,11.5c-0.1,9.3-5.8,17.6-15.9,16.6
				C326.6,702.8,345.9,716.9,358,706.8z"/>
			<path class="st3" d="M329.1,737.7c-6.9-7.4-11.9-18.3-6.3-28.7c3.2,2,6.4,3.3,10.3,0.4C340.5,705,346.9,750.7,329.1,737.7z"/>
			<path class="st3" d="M308.6,711c5.9,1.4,7.8-3.2,10.2-7c2.3,10.8,11.2,32.2-0.8,39.5C304.2,748.7,299.9,716.1,308.6,711z"/>
			<path class="st3" d="M295.7,744.5c-12,0.7-7.9-16.8-13.5-24.2c-1.5-7.6,5.6-6.6,10.3-9.6c1.8-2.8,3.2-5,7-3.8
				C306.6,717,309.5,739.2,295.7,744.5z"/>
			<path class="st3" d="M276.1,706.6c6.7,6.4,13.1,26.2,6.3,32.8C268.8,748.6,256.8,703.3,276.1,706.6z"/>
			<path class="st3" d="M443.7,660.1c18.4,22.9-23.4,41.8-27.3,14.6C411.1,660.9,438.1,648.9,443.7,660.1z"/>
			<path class="st3" d="M407.2,668.3c20.8,1.7,10.2,33.8-11.5,29.2c-6.1-5.1-6.2-22.2-2.3-26.5C398.4,671.7,403,670.9,407.2,668.3z"
				/>
			<path class="st3" d="M388,669.6c10.3,13.6,6.4,31.6-13.5,32.7C345.3,709.4,351.8,661.6,388,669.6z"/>
			<path class="st3" d="M356.2,684c4.8,10.6,5.3,31.3-11.7,25.6C326.7,700.4,343,657.2,356.2,684z"/>
			<path class="st3" d="M329.7,676.6c13.4,3.3,9.7,45.4-5.9,32C320.4,700.7,316,673.1,329.7,676.6z"/>
			<path class="st3" d="M301,708.3c-7.2-11.6-5-49,14.1-30.6C325.2,683.3,318.6,717.9,301,708.3z"/>
			<path class="st3" d="M283.9,669.6c20.7,4.9,17.3,59-7.3,39.5C269.4,697.2,271.7,676,283.9,669.6z"/>
			<path class="st3" d="M276.7,677.1c-5.4,7,0.9,24.4-5.6,27.5C244.6,728.2,257,637.3,276.7,677.1z"/>
		</g>
	</g>
	<g>
		<path class="st1" d="M1311.9,229.9c0,10.1-2,19.1-5.9,26.9s-9.5,14.2-16.5,19.3c-6.9,5.1-14.5,8.8-22.8,11.2
			c-8.3,2.4-17.1,3.6-26.4,3.6h-21.7v58.8c0,3.2,0.5,6,1.6,8.4c1,2.4,3.2,4.3,6.5,5.5c1.6,0.6,4.5,1.2,8.7,1.8c4.1,0.5,8,0.9,11.4,1
			v9.7h-83.3v-9.7c2.2-0.2,5.4-0.5,9.5-1c4.1-0.5,7-1,8.7-1.8c2.7-1.2,4.7-2.9,5.9-5.2c1.2-2.3,1.8-5.2,1.8-8.8v-140
			c0-3.2-0.5-6.1-1.4-8.6c-0.9-2.6-3.1-4.5-6.4-5.7c-3.5-1.2-6.9-2-10.3-2.5c-3.4-0.5-6.4-0.8-8.8-1V182h88.6c18,0,32.7,4.4,44,13.1
			C1306.2,203.8,1311.9,215.4,1311.9,229.9z M1270.3,263c3.1-4.4,5.1-8.9,6.2-13.6c1-4.7,1.5-8.9,1.5-12.6c0-5.2-0.6-10.5-1.8-15.9
			c-1.2-5.4-3.3-10.1-6.4-14.1c-3.2-4.3-7.4-7.6-12.6-10c-5.2-2.4-11.7-3.6-19.4-3.6h-19.3V279h13.9c9.8,0,17.8-1.5,24-4.6
			C1262.6,271.3,1267.2,267.5,1270.3,263z"/>
		<path class="st1" d="M1515,376h-80.6v-9.7c7.1-0.5,13-1.4,17.7-2.7s7-3.1,7-5.1c0-0.8-0.1-1.8-0.3-3c-0.2-1.2-0.5-2.2-0.8-3.1
			l-16.1-43.5h-68.1c-2.6,6.4-4.6,11.9-6.2,16.7c-1.6,4.7-3,9.1-4.3,13.1c-1.2,3.9-2,7.1-2.5,9.6s-0.7,4.5-0.7,6
			c0,3.6,2.9,6.5,8.6,8.5c5.7,2,12.2,3.2,19.4,3.6v9.7h-73.1v-9.7c2.4-0.2,5.3-0.7,8.9-1.6c3.6-0.9,6.5-2,8.8-3.5
			c3.6-2.5,6.5-5,8.5-7.7c2-2.7,4-6.4,5.9-11.1c9.8-24.3,20.5-51.7,32.3-82s22.2-57.4,31.4-81.1h10.9l64.7,167.3
			c1.4,3.6,2.9,6.4,4.6,8.6c1.7,2.2,4.1,4.3,7.2,6.4c2.1,1.3,4.8,2.3,8.2,3.2c3.4,0.9,6.2,1.3,8.5,1.4V376z M1437,296.8l-29.4-75.3
			l-29,75.3H1437z"/>
		<path class="st1" d="M1707.8,376H1617v-9.7c7.5-0.2,13.5-0.9,18.1-2.1c4.6-1.2,6.9-3.1,6.9-5.7c0-1.4-1-4.2-3.1-8.5
			c-2.1-4.3-4.8-9.1-8.1-14.4c-3.6-5.8-8-12.7-13-20.6c-5-7.9-10-15.4-14.9-22.6c-8,10.6-17.1,23.3-27.4,38.2
			c-10.2,14.9-15.3,23.7-15.3,26.3c0,3,1.4,5.2,4.2,6.6c2.8,1.4,8.9,2.3,18.4,2.7v9.7h-72.5v-9.7c2.4-0.2,5.4-0.5,9.1-1
			c3.7-0.5,6.7-1.3,9.1-2.5c4.7-2.6,8.5-5.3,11.4-8.3c2.9-3,5.8-6.4,8.7-10.5c5.8-8,13.3-18,22.4-30c9.1-12,17.2-22.9,24.2-32.8
			c-5.3-7.7-12-17.6-20.3-29.5c-8.2-11.9-17-24.6-26.3-38.2c-3.9-5.7-7-9.8-9.2-12.2c-2.2-2.4-5.2-4.4-8.9-6.2
			c-2.2-1-5.2-1.8-9.1-2.4c-3.9-0.6-6.9-1-9.2-1.2V182h89.8v9.7c-5.3,0.2-10.8,0.8-16.4,2c-5.7,1.1-8.5,2.9-8.5,5.3
			c0,1.7,1.1,4.8,3.4,9.1c2.3,4.3,5,9,8.1,13.9c3.2,5.1,6.7,10.8,10.7,17c3.9,6.2,8.7,13.4,14.4,21.5c10.3-13.9,19.2-26.5,26.6-37.7
			c7.5-11.2,11.2-18.5,11.2-21.9c0-2.9-1.7-5.1-5.1-6.4c-3.4-1.4-9.2-2.2-17.3-2.6V182h72.3v9.7c-2.3,0.1-5.3,0.4-9,1
			c-3.7,0.6-6.8,1.4-9.2,2.5c-4.7,2.3-8.3,4.7-10.6,7.4c-2.3,2.6-5.4,6.5-9.4,11.5c-7.3,9.4-14,18.2-20.2,26.5
			c-6.2,8.3-13.6,18.3-22.2,30.2c7.3,10.4,15.4,22.2,24.4,35.4c9,13.2,17.6,25.8,25.8,37.8c2.8,4.1,6.1,8,9.7,11.7
			c3.6,3.7,6.6,6.2,8.9,7.6c2.2,1.3,5.1,2.1,8.8,2.4c3.7,0.3,6.8,0.5,9.4,0.6V376z"/>
		<path class="st1" d="M1909.2,287c4.1,4.6,7.1,9.5,9.1,15c2,5.4,2.9,11.7,2.9,18.9c0,17.1-6.3,31.3-19,42.4
			c-12.7,11.1-28.4,16.7-47.2,16.7c-8.7,0-17.3-1.3-26-4c-8.7-2.7-16.1-5.9-22.4-9.8l-5.9,10h-10.9l-1.9-66.4h11.1
			c2.3,8.2,4.9,15.6,8,22.2c3.1,6.6,7.1,12.8,12.1,18.5c4.7,5.4,10.3,9.7,16.6,12.9c6.3,3.2,13.7,4.8,22.1,4.8
			c6.3,0,11.8-0.8,16.5-2.5c4.7-1.6,8.5-4,11.4-7c2.9-3,5.1-6.5,6.5-10.6c1.4-4.1,2.1-8.7,2.1-14c0-7.8-2.2-15-6.6-21.7
			c-4.4-6.7-10.9-11.8-19.6-15.3c-5.9-2.4-12.7-5-20.4-7.8s-14.3-5.6-19.8-8.1c-10.9-4.9-19.4-11.4-25.5-19.3
			c-6.1-8-9.1-18.4-9.1-31.2c0-7.4,1.5-14.3,4.5-20.6c3-6.4,7.3-12.1,12.9-17.1c5.3-4.7,11.5-8.5,18.7-11.1c7.2-2.7,14.7-4,22.6-4
			c8.9,0,16.9,1.4,24,4.1c7.1,2.7,13.5,5.9,19.3,9.6l5.6-9.3h10.9l1.1,64.4H1902c-2-7.4-4.3-14.4-6.8-21.2
			c-2.5-6.7-5.8-12.9-9.8-18.3c-3.9-5.3-8.7-9.5-14.4-12.6c-5.7-3.1-12.6-4.7-20.8-4.7c-8.7,0-16,2.8-22.1,8.3
			c-6.1,5.6-9.2,12.4-9.2,20.4c0,8.4,2,15.3,5.9,20.8c3.9,5.5,9.6,10,17.1,13.6c6.7,3.2,13.2,5.9,19.6,8.3s12.6,4.8,18.7,7.5
			c5.5,2.4,10.7,5.1,15.8,8.1S1905.5,283,1909.2,287z"/>
		<path class="st1" d="M2126.4,376h-80.6v-9.7c7.1-0.5,13-1.4,17.7-2.7s7-3.1,7-5.1c0-0.8-0.1-1.8-0.3-3c-0.2-1.2-0.5-2.2-0.8-3.1
			l-16.1-43.5h-68.1c-2.6,6.4-4.6,11.9-6.2,16.7c-1.6,4.7-3,9.1-4.3,13.1c-1.2,3.9-2,7.1-2.5,9.6s-0.7,4.5-0.7,6
			c0,3.6,2.9,6.5,8.6,8.5c5.7,2,12.2,3.2,19.4,3.6v9.7h-73.1v-9.7c2.4-0.2,5.3-0.7,8.9-1.6c3.6-0.9,6.5-2,8.8-3.5
			c3.6-2.5,6.5-5,8.5-7.7c2-2.7,4-6.4,5.9-11.1c9.8-24.3,20.5-51.7,32.3-82s22.2-57.4,31.4-81.1h10.9l64.7,167.3
			c1.4,3.6,2.9,6.4,4.6,8.6c1.7,2.2,4.1,4.3,7.2,6.4c2.1,1.3,4.8,2.3,8.2,3.2c3.4,0.9,6.2,1.3,8.5,1.4V376z M2048.4,296.8
			l-29.4-75.3l-29,75.3H2048.4z"/>
		<path class="st1" d="M2281.9,229.9c0,10.1-2,19.1-5.9,26.9s-9.5,14.2-16.5,19.3c-6.9,5.1-14.5,8.8-22.8,11.2
			c-8.3,2.4-17.1,3.6-26.4,3.6h-21.7v58.8c0,3.2,0.5,6,1.6,8.4c1,2.4,3.2,4.3,6.5,5.5c1.6,0.6,4.5,1.2,8.7,1.8c4.1,0.5,8,0.9,11.4,1
			v9.7h-83.3v-9.7c2.2-0.2,5.4-0.5,9.5-1c4.1-0.5,7-1,8.7-1.8c2.7-1.2,4.7-2.9,5.9-5.2c1.2-2.3,1.8-5.2,1.8-8.8v-140
			c0-3.2-0.5-6.1-1.4-8.6c-0.9-2.6-3.1-4.5-6.4-5.7c-3.5-1.2-6.9-2-10.3-2.5c-3.4-0.5-6.4-0.8-8.8-1V182h88.6c18,0,32.7,4.4,44,13.1
			C2276.3,203.8,2281.9,215.4,2281.9,229.9z M2240.3,263c3.1-4.4,5.1-8.9,6.2-13.6c1-4.7,1.5-8.9,1.5-12.6c0-5.2-0.6-10.5-1.8-15.9
			c-1.2-5.4-3.3-10.1-6.4-14.1c-3.2-4.3-7.4-7.6-12.6-10c-5.2-2.4-11.7-3.6-19.4-3.6h-19.3V279h13.9c9.8,0,17.8-1.5,24-4.6
			C2232.6,271.3,2237.2,267.5,2240.3,263z"/>
		<path class="st1" d="M2388.9,376h-87.4v-9.7c2.5-0.2,6-0.5,10.7-0.8c4.6-0.4,7.9-0.9,9.8-1.6c3-1.2,5.2-2.8,6.6-4.9
			s2.1-4.9,2.1-8.5V209.9c0-3.2-0.5-5.9-1.5-8c-1-2.1-3.4-3.9-7.1-5.4c-2.7-1.1-6.2-2.1-10.3-3.1c-4.1-1-7.5-1.5-10.2-1.7V182h87.4
			v9.7c-2.8,0.1-6.2,0.4-10.1,1c-3.9,0.6-7.3,1.3-10.3,2.3c-3.5,1.1-5.8,2.9-7,5.3c-1.2,2.5-1.8,5.2-1.8,8.2V349c0,3,0.7,5.7,2,8
			c1.3,2.3,3.6,4.2,6.8,5.5c1.9,0.7,5,1.5,9.4,2.4c4.3,0.9,8,1.3,11,1.4V376z"/>
		<path class="st1" d="M2576.4,318.9l-3.7,57.1h-161.1v-9.7c2.7-0.2,6.4-0.6,10.9-1.2c4.6-0.6,7.5-1.2,8.9-1.8
			c2.9-1.4,4.9-3.1,6.1-5.3c1.1-2.2,1.7-5,1.7-8.3V210.2c0-3-0.5-5.7-1.5-8c-1-2.3-3.1-4.2-6.3-5.7c-2.5-1.2-5.8-2.2-9.9-3.1
			c-4.1-0.9-7.5-1.5-9.9-1.6V182h150.1v46.8h-10.3c-1.8-6.9-5.8-14.3-11.8-22.1c-6.1-7.8-11.8-12.1-17.3-12.8
			c-2.8-0.4-6.2-0.6-10.1-0.8c-3.9-0.2-8.4-0.3-13.4-0.3h-30.5V270h21.9c7,0,12.1-0.7,15.4-2c3.2-1.3,6.1-3.5,8.5-6.6
			c2-2.6,3.7-6.2,5.1-10.6c1.4-4.4,2.3-8.6,2.8-12.5h10.3v76h-10.3c-0.4-4.4-1.3-9-2.9-13.9c-1.6-4.9-3.3-8.4-5-10.6
			c-2.8-3.6-6-5.9-9.6-7c-3.6-1.1-8.4-1.6-14.3-1.6h-21.9v58.1c0,5.8,0.4,10.4,1.2,13.8s2.4,5.9,4.8,7.6c2.4,1.7,5.6,2.8,9.7,3.3
			c4.1,0.5,9.9,0.8,17.5,0.8c3,0,7,0,11.9,0s9.1-0.2,12.4-0.5c3.5-0.4,7-1,10.7-2s6.3-2.3,7.9-3.9c4.2-4.4,8.6-11,13.2-19.9
			c4.6-8.9,7.5-15.4,8.8-19.6H2576.4z"/>
		<path class="st1" d="M2795.3,191.8c-2.6,0.1-6.5,0.8-11.8,2.2c-5.3,1.4-9.1,2.8-11.3,4.2c-3.3,2.3-5.5,6.7-6.6,13.1
			c-1.1,6.5-1.7,14.7-1.7,24.6V378h-11.9l-117.6-158.7v100.1c0,11.2,0.7,19.8,2.1,25.8c1.4,6,3.6,10.3,6.5,12.9
			c2.1,2,6.4,3.9,13,5.6c6.6,1.7,10.9,2.6,13,2.7v9.7h-79.6v-9.7c2.5-0.2,6.6-1.1,12.4-2.7c5.8-1.6,9.5-3,10.9-4.3
			c3.2-2.6,5.4-6.4,6.6-11.7c1.2-5.2,1.8-14.2,1.8-26.9v-95.6c0-4.2-0.7-8.4-2.2-12.6c-1.5-4.2-3.4-7.4-5.9-9.7
			c-3.3-3-7.7-5.6-13.3-7.7c-5.6-2.1-10.1-3.3-13.6-3.5V182h55.4l109,147.9v-92.3c0-11.3-0.7-20-2.2-26c-1.5-6.1-3.6-10.1-6.3-12.1
			c-2.6-1.7-6.7-3.4-12.5-5.1c-5.8-1.6-10.2-2.6-13.2-2.7V182h78.9V191.8z"/>
		<path class="st1" d="M2968.8,234.7h-9.4c-0.8-3.3-2.3-7.2-4.5-11.7c-2.1-4.5-4.5-8.8-7.2-12.8c-2.7-4.2-5.7-7.9-9-11
			c-3.2-3.1-6.4-4.9-9.4-5.4c-2.8-0.4-6.4-0.6-10.7-0.8c-4.3-0.2-8.3-0.3-11.9-0.3h-7.9v155.2c0,3,0.6,5.8,1.9,8.3
			c1.3,2.5,3.5,4.4,6.7,5.8c1.6,0.6,5.1,1.5,10.3,2.6c5.2,1.1,9.3,1.7,12.2,1.8v9.7h-91.6v-9.7c2.6-0.2,6.4-0.5,11.7-1.1
			c5.2-0.5,8.9-1.2,10.9-2.1c3-1.2,5.2-2.9,6.6-5.1c1.4-2.2,2.1-5.2,2.1-9V192.7h-7.9c-2.8,0-6.3,0.1-10.5,0.2
			c-4.2,0.1-8.2,0.4-12,0.9c-3,0.4-6.1,2.2-9.4,5.4c-3.2,3.2-6.2,6.9-9,11s-5.2,8.5-7.2,13.1c-2.1,4.6-3.6,8.4-4.4,11.4h-9.6V182
			h169.1V234.7z"/>
		<path class="st1" d="M3069,376h-87.4v-9.7c2.5-0.2,6-0.5,10.7-0.8c4.6-0.4,7.9-0.9,9.8-1.6c3-1.2,5.2-2.8,6.6-4.9s2.1-4.9,2.1-8.5
			V209.9c0-3.2-0.5-5.9-1.5-8c-1-2.1-3.4-3.9-7.1-5.4c-2.7-1.1-6.2-2.1-10.3-3.1c-4.1-1-7.5-1.5-10.2-1.7V182h87.4v9.7
			c-2.8,0.1-6.2,0.4-10.1,1c-3.9,0.6-7.3,1.3-10.3,2.3c-3.5,1.1-5.8,2.9-7,5.3c-1.2,2.5-1.8,5.2-1.8,8.2V349c0,3,0.7,5.7,2,8
			c1.3,2.3,3.6,4.2,6.8,5.5c1.9,0.7,5,1.5,9.4,2.4c4.3,0.9,8,1.3,11,1.4V376z"/>
		<path class="st1" d="M3178.7,380.7c-11.6,0-22.7-2.3-33.3-6.8c-10.6-4.6-20-11.1-28.2-19.7c-8.1-8.6-14.6-19-19.4-31.4
			c-4.8-12.4-7.2-26.3-7.2-41.8c0-15.5,2.4-29.6,7.1-42.2c4.7-12.6,11.3-23.5,19.7-32.6c8.3-9,18.1-16,29.4-20.9s23.4-7.4,36.2-7.4
			c9.6,0,18.2,1.2,26,3.6c7.7,2.4,15.1,5.7,22.1,10l5.6-9.3h10.9l1.2,69.2h-11.2c-1.5-6.7-3.6-14.1-6.6-21.9
			c-2.9-7.9-6.3-14.6-10.2-20c-4.4-6.2-9.6-11.1-15.6-14.6c-6-3.5-12.9-5.3-20.6-5.3c-8.8,0-17,2-24.7,5.9
			c-7.6,3.9-14.2,9.7-19.7,17.4c-5.3,7.4-9.4,16.8-12.4,28.2c-3,11.4-4.5,24.1-4.5,38.2c0,12.4,1.6,23.8,4.7,34.1
			c3.1,10.4,7.6,19.5,13.5,27.3c5.8,7.8,12.7,13.8,20.7,18.2s16.9,6.6,26.7,6.6c7.4,0,14.2-1.2,20.3-3.5c6.2-2.3,11.6-5.4,16.1-9.2
			c4.5-4,8.6-8.6,12-13.7c3.5-5.1,6.3-10.7,8.5-16.7l10.3,4.9c-7.8,19.2-18.2,33-31.1,41.2S3196.5,380.7,3178.7,380.7z"/>
		<path class="st1" d="M3454,376h-80.6v-9.7c7.1-0.5,13-1.4,17.7-2.7s7-3.1,7-5.1c0-0.8-0.1-1.8-0.3-3c-0.2-1.2-0.5-2.2-0.8-3.1
			l-16.1-43.5h-68.1c-2.6,6.4-4.6,11.9-6.2,16.7c-1.6,4.7-3,9.1-4.3,13.1c-1.2,3.9-2,7.1-2.5,9.6s-0.7,4.5-0.7,6
			c0,3.6,2.9,6.5,8.6,8.5c5.7,2,12.2,3.2,19.4,3.6v9.7h-73.1v-9.7c2.4-0.2,5.3-0.7,8.9-1.6c3.6-0.9,6.5-2,8.8-3.5
			c3.6-2.5,6.5-5,8.5-7.7c2-2.7,4-6.4,5.9-11.1c9.8-24.3,20.5-51.7,32.3-82s22.2-57.4,31.4-81.1h10.9l64.7,167.3
			c1.4,3.6,2.9,6.4,4.6,8.6c1.7,2.2,4.1,4.3,7.2,6.4c2.1,1.3,4.8,2.3,8.2,3.2c3.4,0.9,6.2,1.3,8.5,1.4V376z M3375.9,296.8
			l-29.4-75.3l-29,75.3H3375.9z"/>
	</g>
	<g>
		<path class="st1" d="M1263.8,542c-1.4,0-3.5,0.4-6.3,1.2c-2.8,0.7-4.9,1.5-6.1,2.3c-1.8,1.2-2.9,3.6-3.6,7
			c-0.6,3.5-0.9,7.9-0.9,13.2v76.1h-6.4l-63-85v53.6c0,6,0.4,10.6,1.1,13.8c0.8,3.2,1.9,5.5,3.5,6.9c1.1,1.1,3.4,2.1,7,3
			s5.8,1.4,7,1.5v5.2h-42.6v-5.2c1.3-0.1,3.5-0.6,6.7-1.4c3.1-0.9,5.1-1.6,5.9-2.3c1.7-1.4,2.9-3.5,3.5-6.3c0.6-2.8,1-7.6,1-14.4
			V560c0-2.2-0.4-4.5-1.2-6.7c-0.8-2.2-1.8-4-3.1-5.2c-1.8-1.6-4.1-3-7.1-4.1c-3-1.1-5.4-1.8-7.3-1.9v-5.2h29.7l58.4,79.2v-49.4
			c0-6.1-0.4-10.7-1.2-14c-0.8-3.2-1.9-5.4-3.4-6.5c-1.4-0.9-3.6-1.8-6.7-2.7s-5.5-1.4-7.1-1.5v-5.2h42.3V542z"/>
		<path class="st1" d="M1334.5,623.7c-3,5.8-7.1,10.4-12.2,13.8c-5.1,3.4-10.9,5.1-17.5,5.1c-5.8,0-10.9-1-15.3-3.1
			c-4.4-2.1-8-4.8-10.8-8.3c-2.8-3.5-4.9-7.6-6.3-12.3c-1.4-4.7-2.1-9.6-2.1-14.9c0-4.7,0.7-9.3,2.2-13.8c1.5-4.5,3.7-8.6,6.6-12.2
			c2.8-3.5,6.2-6.3,10.4-8.4c4.1-2.1,8.8-3.2,13.9-3.2c5.3,0,9.8,0.8,13.5,2.5c3.8,1.7,6.8,3.9,9.2,6.8c2.2,2.7,3.9,6,5,9.7
			c1.1,3.7,1.6,7.7,1.6,12.1v4.8h-47.8c0,4.7,0.5,9.1,1.4,12.9c0.9,3.9,2.3,7.3,4.3,10.2c1.9,2.8,4.4,5.1,7.5,6.7s6.7,2.5,11,2.5
			c4.3,0,8.1-1,11.2-3.1c3.2-2,6.2-5.7,9.1-11L1334.5,623.7z M1318.3,596.2c0-2.7-0.2-5.6-0.7-8.8s-1.2-5.7-2.2-7.8
			c-1.1-2.2-2.7-4.1-4.6-5.5c-2-1.4-4.5-2.1-7.5-2.1c-5.1,0-9.4,2.1-12.8,6.4c-3.4,4.3-5.2,10.2-5.5,17.8H1318.3z"/>
		<path class="st1" d="M1450.4,573.2c-2.1,0.2-4.3,1.1-6.6,2.6c-2.4,1.5-4.1,3.8-5.2,6.8c-2.4,7.2-4.7,14-6.9,20.4
			c-2.2,6.4-4.6,13.6-7.3,21.6c-0.9,2.5-1.8,5.3-2.7,8.2s-1.7,5.7-2.5,8.4h-6.2l-19.5-53.2l-19.5,53.2h-6
			c-3.7-10.8-7.2-21.6-10.7-32.3c-3.5-10.7-6.6-20-9.3-27.9c-0.8-2.3-2.3-4.1-4.5-5.4s-4.3-2.1-6.4-2.3v-4.8h32.2v5.1
			c-1.6,0-3.4,0.3-5.2,0.8c-1.9,0.5-2.8,1.3-2.8,2.4c0,0.2,0.1,0.6,0.3,1.2c0.2,0.6,0.4,1.3,0.6,2.1c1.6,5.1,3.3,10.8,5.3,17.1
			c2,6.3,4.5,14.5,7.6,24.6l18.4-51.9h7.1l18.8,51.2c2.1-6.5,4.2-12.9,6.3-19c2.1-6.1,3.9-11.9,5.5-17.2c0.3-1.3,0.7-2.4,1-3.5
			c0.3-1,0.5-2.1,0.5-3.1c0-0.9-0.4-1.7-1.2-2.3c-0.8-0.7-1.7-1.2-2.9-1.7c-1-0.4-2-0.7-3.2-0.9c-1.1-0.2-2-0.3-2.5-0.3v-4.7h27.5
			V573.2z"/>
		<path class="st1" d="M1544.9,577.8c0,2.5-0.6,4.7-1.8,6.6c-1.2,1.9-3.1,2.9-5.6,2.9c-2.7,0-4.8-0.7-6.3-2.1
			c-1.4-1.4-2.2-3-2.2-4.7c0-1.1,0.1-2.1,0.3-2.9s0.3-1.8,0.5-2.6c-2.3,0-5,0.9-8.1,2.8c-3.1,1.9-5.7,4.5-7.8,7.9v42
			c0,1.7,0.3,3.1,1,4.2c0.7,1.1,1.7,1.9,3.1,2.4c1.2,0.5,2.8,0.9,4.7,1.1s3.6,0.4,5,0.5v4.8h-38.1v-4.8c1.1-0.1,2.3-0.2,3.5-0.3
			c1.2-0.1,2.2-0.3,3.1-0.6c1.4-0.4,2.4-1.2,3-2.3c0.7-1.1,1-2.5,1-4.3v-44.6c0-1.5-0.4-3-1.1-4.5c-0.7-1.5-1.7-2.6-3-3.5
			c-0.9-0.6-2-1-3.3-1.3c-1.3-0.3-2.6-0.4-4.1-0.5v-4.8l24-1.6l1,1v10.2h0.4c3-4,6.4-7,10.1-9c3.7-2.1,7.1-3.1,10.2-3.1s5.6,1,7.5,3
			S1544.9,574.5,1544.9,577.8z"/>
		<path class="st1" d="M1615.2,623.7c-3,5.8-7.1,10.4-12.2,13.8c-5.1,3.4-10.9,5.1-17.5,5.1c-5.8,0-10.9-1-15.3-3.1
			c-4.4-2.1-8-4.8-10.8-8.3c-2.8-3.5-4.9-7.6-6.3-12.3c-1.4-4.7-2.1-9.6-2.1-14.9c0-4.7,0.7-9.3,2.2-13.8c1.5-4.5,3.7-8.6,6.6-12.2
			c2.8-3.5,6.2-6.3,10.4-8.4c4.1-2.1,8.8-3.2,13.9-3.2c5.3,0,9.8,0.8,13.5,2.5c3.8,1.7,6.8,3.9,9.2,6.8c2.2,2.7,3.9,6,5,9.7
			c1.1,3.7,1.6,7.7,1.6,12.1v4.8h-47.8c0,4.7,0.5,9.1,1.4,12.9c0.9,3.9,2.3,7.3,4.3,10.2c1.9,2.8,4.4,5.1,7.5,6.7s6.7,2.5,11,2.5
			c4.3,0,8.1-1,11.2-3.1c3.2-2,6.2-5.7,9.1-11L1615.2,623.7z M1599,596.2c0-2.7-0.2-5.6-0.7-8.8s-1.2-5.7-2.2-7.8
			c-1.1-2.2-2.7-4.1-4.6-5.5c-2-1.4-4.5-2.1-7.5-2.1c-5.1,0-9.4,2.1-12.8,6.4c-3.4,4.3-5.2,10.2-5.5,17.8H1599z"/>
		<path class="st1" d="M1657.4,640.7h-35.2v-4.8c1.1-0.1,2.3-0.2,3.6-0.3c1.3-0.1,2.3-0.3,3.1-0.5c1.4-0.4,2.4-1.2,3.1-2.3
			c0.7-1.1,1-2.5,1-4.3v-83.7c0-1.8-0.4-3.4-1.1-4.9s-1.7-2.8-3-3.6c-0.9-0.6-2.5-1.1-4.8-1.6s-4.2-0.8-5.6-0.9V529l27.2-1.6l1,1.1
			v99.1c0,1.7,0.3,3.1,1,4.2c0.6,1.1,1.7,1.9,3.1,2.5c1.1,0.5,2.1,0.9,3.2,1.1s2.2,0.4,3.6,0.5V640.7z"/>
		<path class="st1" d="M1730.7,623.7c-3,5.8-7.1,10.4-12.2,13.8c-5.1,3.4-10.9,5.1-17.5,5.1c-5.8,0-10.9-1-15.3-3.1
			c-4.4-2.1-8-4.8-10.8-8.3c-2.8-3.5-4.9-7.6-6.3-12.3c-1.4-4.7-2.1-9.6-2.1-14.9c0-4.7,0.7-9.3,2.2-13.8c1.5-4.5,3.7-8.6,6.6-12.2
			c2.8-3.5,6.2-6.3,10.4-8.4c4.1-2.1,8.8-3.2,13.9-3.2c5.3,0,9.8,0.8,13.5,2.5c3.8,1.7,6.8,3.9,9.2,6.8c2.2,2.7,3.9,6,5,9.7
			c1.1,3.7,1.6,7.7,1.6,12.1v4.8h-47.8c0,4.7,0.5,9.1,1.4,12.9c0.9,3.9,2.3,7.3,4.3,10.2c1.9,2.8,4.4,5.1,7.5,6.7s6.7,2.5,11,2.5
			c4.3,0,8.1-1,11.2-3.1c3.2-2,6.2-5.7,9.1-11L1730.7,623.7z M1714.5,596.2c0-2.7-0.2-5.6-0.7-8.8s-1.2-5.7-2.2-7.8
			c-1.1-2.2-2.7-4.1-4.6-5.5c-2-1.4-4.5-2.1-7.5-2.1c-5.1,0-9.4,2.1-12.8,6.4c-3.4,4.3-5.2,10.2-5.5,17.8H1714.5z"/>
		<path class="st1" d="M1807.4,639.4c-2.3,0.8-4.3,1.5-6,2c-1.7,0.5-3.7,0.8-5.9,0.8c-3.8,0-6.8-0.9-9.1-2.7
			c-2.3-1.8-3.7-4.4-4.4-7.8h-0.4c-3.2,3.5-6.6,6.2-10.2,8.1s-8,2.8-13.1,2.8c-5.4,0-9.9-1.7-13.4-5s-5.2-7.7-5.2-13
			c0-2.8,0.4-5.3,1.2-7.5c0.8-2.2,2-4.2,3.5-5.9c1.2-1.5,2.8-2.8,4.8-3.9c2-1.1,3.9-2.1,5.6-2.7c2.2-0.8,6.7-2.4,13.4-4.6
			c6.7-2.2,11.2-4,13.6-5.3v-7.2c0-0.6-0.1-1.9-0.4-3.7s-0.8-3.5-1.7-5.1c-1-1.8-2.4-3.4-4.1-4.7c-1.8-1.3-4.3-2-7.6-2
			c-2.2,0-4.3,0.4-6.3,1.1c-1.9,0.8-3.3,1.6-4.1,2.4c0,1,0.2,2.4,0.7,4.3c0.5,1.9,0.7,3.7,0.7,5.3c0,1.7-0.8,3.3-2.3,4.7
			c-1.5,1.4-3.7,2.1-6.4,2.1c-2.4,0-4.2-0.9-5.4-2.6c-1.1-1.7-1.7-3.7-1.7-5.8c0-2.2,0.8-4.4,2.4-6.4c1.6-2.1,3.6-3.9,6.2-5.5
			c2.2-1.4,4.9-2.5,8-3.5c3.1-1,6.2-1.4,9.2-1.4c4.1,0,7.7,0.3,10.7,0.8c3.1,0.6,5.8,1.8,8.3,3.6c2.5,1.8,4.4,4.3,5.7,7.4
			c1.3,3.1,1.9,7.1,1.9,12c0,7-0.1,13.2-0.2,18.6c-0.1,5.4-0.2,11.3-0.2,17.7c0,1.9,0.3,3.4,1,4.5c0.7,1.1,1.7,2.1,3,2.9
			c0.7,0.4,1.9,0.7,3.5,0.7s3.2,0.1,4.9,0.1V639.4z M1781.9,600.8c-4.2,1.2-7.8,2.4-10.9,3.6c-3.1,1.2-6,2.6-8.7,4.4
			c-2.4,1.7-4.4,3.6-5.8,5.9c-1.4,2.3-2.1,5-2.1,8.1c0,4.1,1.1,7,3.2,9c2.1,1.9,4.8,2.9,8.1,2.9c3.5,0,6.5-0.8,9.2-2.5
			c2.6-1.7,4.9-3.7,6.7-6L1781.9,600.8z"/>
		<path class="st1" d="M1862.3,605.4c2,1.8,3.5,3.8,4.6,6.1c1.1,2.3,1.6,5.1,1.6,8.4c0,6.7-2.5,12.2-7.5,16.4s-11.5,6.4-19.4,6.4
			c-4.2,0-8.1-0.8-11.6-2.3c-3.5-1.5-6.1-2.9-7.6-4.2l-1.5,4.8h-5.5l-0.7-25.1h5.1c0.4,1.9,1.2,4.1,2.5,6.7c1.3,2.5,2.8,4.8,4.6,6.9
			c1.9,2.2,4.2,4,6.8,5.4c2.7,1.5,5.7,2.2,9,2.2c4.7,0,8.3-1.1,10.8-3.2c2.5-2.1,3.8-5.2,3.8-9.2c0-2.1-0.4-3.8-1.2-5.3
			c-0.8-1.5-2-2.8-3.6-3.9c-1.6-1.1-3.6-2.1-5.9-3c-2.3-0.9-5-1.8-7.8-2.7c-2.3-0.7-4.8-1.6-7.7-2.8c-2.8-1.2-5.2-2.6-7.2-4.2
			c-2.1-1.7-3.9-3.8-5.3-6.3c-1.4-2.5-2.1-5.4-2.1-8.8c0-5.9,2.2-10.9,6.6-15s10.3-6.2,17.7-6.2c2.8,0,5.7,0.4,8.7,1.1
			c3,0.7,5.4,1.6,7.2,2.6l1.7-3.8h5.3l1.1,23.2h-5.1c-1-5.2-3.2-9.4-6.6-12.7c-3.4-3.3-7.5-4.9-12.4-4.9c-4,0-7.2,1-9.4,3
			c-2.3,2-3.4,4.5-3.4,7.3c0,2.2,0.4,4,1.1,5.5s1.9,2.7,3.4,3.7c1.5,1,3.3,1.9,5.5,2.7c2.2,0.9,5,1.8,8.2,2.9c3.2,1,6.3,2.2,9.1,3.6
			C1858.1,602.2,1860.4,603.7,1862.3,605.4z"/>
		<path class="st1" d="M1943.6,623.7c-3,5.8-7.1,10.4-12.2,13.8c-5.1,3.4-10.9,5.1-17.5,5.1c-5.8,0-10.9-1-15.3-3.1
			c-4.4-2.1-8-4.8-10.8-8.3c-2.8-3.5-4.9-7.6-6.3-12.3c-1.4-4.7-2.1-9.6-2.1-14.9c0-4.7,0.7-9.3,2.2-13.8c1.5-4.5,3.7-8.6,6.6-12.2
			c2.8-3.5,6.2-6.3,10.4-8.4c4.1-2.1,8.8-3.2,13.9-3.2c5.3,0,9.8,0.8,13.5,2.5c3.8,1.7,6.8,3.9,9.2,6.8c2.2,2.7,3.9,6,5,9.7
			c1.1,3.7,1.6,7.7,1.6,12.1v4.8H1894c0,4.7,0.5,9.1,1.4,12.9c0.9,3.9,2.3,7.3,4.3,10.2c1.9,2.8,4.4,5.1,7.5,6.7s6.7,2.5,11,2.5
			c4.3,0,8.1-1,11.2-3.1c3.2-2,6.2-5.7,9.1-11L1943.6,623.7z M1927.4,596.2c0-2.7-0.2-5.6-0.7-8.8s-1.2-5.7-2.2-7.8
			c-1.1-2.2-2.7-4.1-4.6-5.5c-2-1.4-4.5-2.1-7.5-2.1c-5.1,0-9.4,2.1-12.8,6.4c-3.4,4.3-5.2,10.2-5.5,17.8H1927.4z"/>
		<path class="st1" d="M2023.1,640.7h-34.9v-4.8c1.1-0.1,2.3-0.2,3.5-0.3c1.2-0.1,2.2-0.3,3.1-0.6c1.4-0.4,2.4-1.2,3-2.3
			c0.7-1.1,1-2.5,1-4.3v-44.6c0-1.6-0.4-3-1.1-4.3c-0.7-1.3-1.7-2.4-3-3.3c-0.9-0.6-2.3-1.1-4-1.5s-3.4-0.7-4.8-0.8v-4.8l25.5-1.6
			l1,1v58.9c0,1.7,0.3,3.1,1,4.2c0.7,1.1,1.7,2,3.1,2.5c1.1,0.4,2.1,0.8,3.1,1.1c1,0.3,2.2,0.5,3.4,0.5V640.7z M2014,539.2
			c0,2.8-0.9,5.2-2.7,7.3c-1.8,2.1-4.1,3.1-6.8,3.1c-2.5,0-4.7-1-6.5-3c-1.8-2-2.7-4.2-2.7-6.8c0-2.7,0.9-5,2.7-7c1.8-2,4-3,6.5-3
			c2.8,0,5.1,0.9,6.8,2.8C2013.1,534.5,2014,536.7,2014,539.2z"/>
		<path class="st1" d="M2111.8,640.7h-35.3v-4.8c1.1-0.1,2.4-0.2,3.7-0.3c1.3-0.1,2.5-0.3,3.3-0.6c1.4-0.4,2.4-1.2,3-2.3
			c0.7-1.1,1-2.5,1-4.3v-37.1c0-5.1-1.2-9.1-3.6-11.9s-5.4-4.2-8.8-4.2c-2.6,0-5,0.4-7.1,1.2c-2.2,0.8-4.1,1.8-5.7,3
			c-1.6,1.1-2.9,2.3-3.9,3.6c-1,1.3-1.7,2.3-2.1,3.1v41.5c0,1.7,0.3,3,1,4.1c0.7,1.1,1.7,1.9,3.1,2.5c1,0.5,2.1,0.9,3.3,1.1
			c1.2,0.2,2.4,0.4,3.7,0.5v4.8h-35.4v-4.8c1.1-0.1,2.3-0.2,3.5-0.3c1.2-0.1,2.2-0.3,3.1-0.6c1.4-0.4,2.4-1.2,3-2.3
			c0.7-1.1,1-2.5,1-4.3v-44.6c0-1.7-0.4-3.2-1.1-4.6c-0.7-1.4-1.7-2.5-3-3.4c-0.9-0.6-2-1-3.3-1.3c-1.3-0.3-2.6-0.4-4.1-0.5v-4.8
			l24-1.6l1,1v10.2h0.4c1.2-1.2,2.6-2.6,4.4-4.2c1.8-1.6,3.4-3,5-4c1.8-1.2,4-2.1,6.4-2.9s5.3-1.2,8.4-1.2c6.9,0,12.1,2.2,15.4,6.5
			c3.3,4.3,5,10.1,5,17.2v37.6c0,1.7,0.3,3.1,0.9,4.1c0.6,1.1,1.6,1.9,3,2.5c1.2,0.5,2.2,0.8,3,1c0.9,0.2,2,0.3,3.6,0.4V640.7z"/>
		<path class="st1" d="M2228.3,640.7h-68.6v-10c1.3-1.5,3.1-3.2,5.5-5.1s5.1-3.9,8.3-6.1c2-1.3,4.3-2.8,7-4.3
			c2.7-1.6,5.8-3.3,9.3-5.1c3.9-2,6.8-3.9,8.9-5.4s4-3.5,5.7-5.8c1.1-1.5,2-3.4,2.7-5.7c0.7-2.3,1-5.5,1-9.7
			c0-6.1-1.6-10.6-4.9-13.4c-3.3-2.9-7.5-4.3-12.6-4.3c-3.2,0-6.2,0.6-9,1.9c-2.8,1.2-5,3-6.4,5.2c0.3,1.6,0.8,3.4,1.3,5.6
			c0.5,2.1,0.8,4.2,0.8,6.3c0,1.9-0.8,3.5-2.3,4.9c-1.5,1.4-3.8,2.2-6.8,2.2c-2.4,0-4.3-0.8-5.6-2.5c-1.3-1.7-2-3.9-2-6.8
			c0-2.6,0.7-5.3,2.2-7.9c1.5-2.7,3.6-5.1,6.3-7.4c2.7-2.2,6-4,10-5.3s8.2-2.1,12.8-2.1c10,0,18,2.2,23.8,6.7
			c5.9,4.5,8.8,10.4,8.8,17.9c0,3.6-0.5,6.8-1.6,9.7c-1,2.9-2.7,5.5-5.1,7.8c-2.6,2.5-5.6,4.6-9.1,6.4c-3.5,1.8-8.8,4.3-15.9,7.4
			c-4.2,1.9-8.2,3.9-11.9,6c-3.7,2.1-6.7,4.1-9,6h56.3V640.7z"/>
		<path class="st1" d="M2310.6,572.3c3.1,3.8,5.5,8.2,7,13.2c1.5,5.1,2.3,10.3,2.3,15.9c0,6.6-1,12.6-2.9,17.8
			c-1.9,5.2-4.5,9.6-7.8,13.1c-3.4,3.6-7.5,6.2-12.2,8.1c-4.7,1.8-9.9,2.7-15.7,2.7c-6.3,0-11.9-1.1-16.8-3.1c-4.9-2.1-8.9-5-12-8.6
			c-3.2-3.8-5.6-8.3-7.2-13.4c-1.6-5.1-2.4-10.6-2.4-16.5c0-5.8,0.8-11.2,2.3-16c1.5-4.9,3.9-9.3,7.2-13.3c3.1-3.8,7.2-6.8,12.1-9
			c4.9-2.2,10.6-3.3,16.9-3.3c6.7,0,12.4,1.1,17.2,3.4C2303.4,565.4,2307.4,568.5,2310.6,572.3z M2303.7,601.4c0-11.6-2-20.6-6-27
			c-4-6.4-9.4-9.6-16.2-9.6c-6.9,0-12.4,3.2-16.4,9.6c-4,6.4-6,15.4-6,27c0,11,1.9,19.9,5.8,26.6c3.8,6.7,9.3,10.1,16.5,10.1
			s12.7-3.4,16.6-10.1C2301.8,621.3,2303.7,612.4,2303.7,601.4z"/>
		<path class="st1" d="M2404.1,640.7h-68.6v-10c1.3-1.5,3.1-3.2,5.5-5.1s5.1-3.9,8.3-6.1c2-1.3,4.3-2.8,7-4.3
			c2.7-1.6,5.8-3.3,9.3-5.1c3.9-2,6.8-3.9,8.9-5.4s4-3.5,5.7-5.8c1.1-1.5,2-3.4,2.7-5.7c0.7-2.3,1-5.5,1-9.7
			c0-6.1-1.6-10.6-4.9-13.4c-3.3-2.9-7.5-4.3-12.6-4.3c-3.2,0-6.2,0.6-9,1.9c-2.8,1.2-5,3-6.4,5.2c0.3,1.6,0.8,3.4,1.3,5.6
			c0.5,2.1,0.8,4.2,0.8,6.3c0,1.9-0.8,3.5-2.3,4.9c-1.5,1.4-3.8,2.2-6.8,2.2c-2.4,0-4.3-0.8-5.6-2.5c-1.3-1.7-2-3.9-2-6.8
			c0-2.6,0.7-5.3,2.2-7.9c1.5-2.7,3.6-5.1,6.3-7.4c2.7-2.2,6-4,10-5.3s8.2-2.1,12.8-2.1c10,0,18,2.2,23.8,6.7
			c5.9,4.5,8.8,10.4,8.8,17.9c0,3.6-0.5,6.8-1.6,9.7c-1,2.9-2.7,5.5-5.1,7.8c-2.6,2.5-5.6,4.6-9.1,6.4c-3.5,1.8-8.8,4.3-15.9,7.4
			c-4.2,1.9-8.2,3.9-11.9,6c-3.7,2.1-6.7,4.1-9,6h56.3V640.7z"/>
		<path class="st1" d="M2446.9,667.5c-4.6,0-8.8-0.6-12.6-1.7c-3.8-1.1-7.1-2.7-9.8-4.7c-2.7-2-4.8-4.2-6.3-6.7
			c-1.5-2.5-2.2-5.2-2.2-7.8c0-2.4,0.6-4.6,1.8-6.5s3.1-2.9,5.6-2.9c2.9,0,5.2,0.7,6.7,2.2c1.5,1.4,2.3,3.1,2.3,4.9
			c0,1.6-0.3,3.5-0.8,5.9c-0.5,2.4-0.9,4.1-1.2,5.1c0.3,0.4,1,1,1.9,1.8c0.9,0.7,2,1.4,3.3,2c1.6,0.7,3.2,1.3,4.9,1.8
			s4.1,0.7,7.3,0.7c2.9,0,5.8-0.5,8.5-1.5c2.7-1,5.1-2.5,7.2-4.7c2.2-2.2,3.8-4.9,5-7.9c1.2-3,1.8-6.9,1.8-11.8
			c0-2.6-0.3-5.2-0.8-7.8c-0.6-2.6-1.6-4.8-3.1-6.7c-1.5-1.9-3.6-3.4-6.2-4.4c-2.6-1-5.9-1.6-9.9-1.6h-9.6v-8.4h6.4
			c6.8,0,11.6-1.9,14.6-5.6c3-3.7,4.5-9.3,4.5-16.8c0-6.1-1.4-10.7-4.3-13.8c-2.9-3.1-7-4.7-12.3-4.7c-2.5,0-4.6,0.3-6.3,0.9
			c-1.6,0.6-3,1.2-4,1.8c-1.2,0.7-2.2,1.4-3,2.3c-0.8,0.8-1.4,1.4-1.8,1.8c0.3,1.6,0.8,3.5,1.2,5.8c0.5,2.3,0.7,4.4,0.7,6.5
			c0,1.8-0.8,3.4-2.3,4.9c-1.5,1.4-3.8,2.2-6.8,2.2c-2.6,0-4.5-0.9-5.7-2.8c-1.2-1.9-1.8-4-1.8-6.4c0-2.5,0.7-5.1,2.1-7.8
			c1.4-2.6,3.5-5.1,6.3-7.4c2.8-2.3,6.2-4.1,10.2-5.6c4-1.4,8.6-2.1,13.8-2.1c6,0,11,0.9,14.9,2.7c3.9,1.8,7,3.9,9.3,6.5
			c2.2,2.5,3.7,5.1,4.5,7.8c0.8,2.7,1.2,5.1,1.2,7c0,2.4-0.3,4.9-1,7.4c-0.7,2.5-1.8,4.8-3.4,6.8c-1.7,2.3-4,4.4-6.8,6.3
			c-2.8,1.9-6.3,3.4-10.6,4.6v1.2c2.7,0.2,5.7,0.9,8.8,1.8c3.1,1,5.9,2.4,8.4,4.3c2.6,2,4.7,4.6,6.4,7.7c1.7,3.1,2.5,7.1,2.5,12
			c0,9.4-3.8,17-11.3,22.8C2467.6,664.6,2458.2,667.5,2446.9,667.5z"/>
		<path class="st1" d="M1257.7,799.3c-1.2,0.1-2.7,0.4-4.7,0.7c-2,0.3-3.6,0.8-4.8,1.4c-1.5,0.7-2.5,1.8-3.1,3.1
			c-0.6,1.3-0.9,2.9-0.9,4.7v8.1c0,5.9,0,9.8,0.1,11.9c0.1,2.1,0.2,3.7,0.3,5.1c-6.5,2.9-13,5.2-19.4,6.7s-12.8,2.3-19,2.3
			c-6.6,0-13-1.2-19.2-3.7c-6.2-2.5-11.5-6-16.1-10.6c-4.6-4.6-8.3-10.3-11.1-16.9c-2.7-6.6-4.1-14.1-4.1-22.3
			c0-7.9,1.3-15.3,3.9-22c2.6-6.8,6.3-12.6,11.1-17.6c4.6-4.9,10.2-8.7,16.6-11.4c6.4-2.7,13.3-4.1,20.6-4.1c5.9,0,11,0.7,15.3,2.1
			c4.3,1.4,8.2,3.1,11.5,5.1l3-5h5.9l0.7,36.3h-6c-1-4-2.3-7.9-3.8-11.8c-1.5-3.9-3.5-7.4-5.9-10.4c-2.4-3.1-5.3-5.5-8.8-7.4
			c-3.4-1.8-7.6-2.7-12.4-2.7c-5.2,0-9.9,1.1-14,3.2c-4.1,2.1-7.7,5.3-10.7,9.5c-3,4.1-5.3,9.1-6.9,15.2c-1.6,6.1-2.4,12.8-2.4,20.3
			c0,6.6,0.8,12.8,2.4,18.7c1.6,5.8,3.9,10.9,6.9,15.1c3,4.3,6.8,7.8,11.4,10.3s9.7,3.7,15.5,3.7c4.3,0,8.2-0.7,11.8-2
			c3.5-1.3,6-2.7,7.5-4.2c0.4-2.5,0.6-5.1,0.6-7.7c0-2.6,0-4.8,0-6.6v-5.7c0-2.1-0.3-3.9-0.8-5.5c-0.6-1.6-1.7-2.7-3.5-3.5
			c-1.6-0.7-3.8-1.3-6.6-1.6c-2.8-0.4-4.9-0.6-6.5-0.7v-5.3h45.6V799.3z"/>
		<path class="st1" d="M1311.4,840.7h-46.8v-5.2c1.3-0.1,3.2-0.2,5.7-0.4s4.2-0.5,5.3-0.9c1.6-0.6,2.8-1.5,3.5-2.6
			c0.7-1.1,1.1-2.6,1.1-4.6v-75.3c0-1.7-0.3-3.1-0.8-4.3c-0.5-1.1-1.8-2.1-3.8-2.9c-1.5-0.6-3.3-1.1-5.5-1.6c-2.2-0.5-4-0.8-5.5-0.9
			v-5.2h46.8v5.2c-1.5,0-3.3,0.2-5.4,0.5c-2.1,0.3-3.9,0.7-5.5,1.2c-1.9,0.6-3.1,1.5-3.7,2.9c-0.6,1.3-1,2.8-1,4.4v75.2
			c0,1.6,0.4,3,1.1,4.3c0.7,1.2,1.9,2.2,3.6,3c1,0.4,2.7,0.8,5,1.3c2.3,0.5,4.3,0.7,5.9,0.8V840.7z"/>
		<path class="st1" d="M1389.1,793.1c2.2,2.4,3.8,5.1,4.9,8c1,2.9,1.6,6.3,1.6,10.1c0,9.2-3.4,16.7-10.2,22.7
			c-6.8,6-15.2,8.9-25.3,8.9c-4.6,0-9.3-0.7-13.9-2.2c-4.6-1.4-8.6-3.2-12-5.2l-3.1,5.3h-5.9l-1-35.6h5.9c1.2,4.4,2.6,8.4,4.3,11.9
			c1.6,3.5,3.8,6.8,6.5,9.9c2.5,2.9,5.5,5.2,8.9,6.9s7.3,2.6,11.8,2.6c3.4,0,6.3-0.4,8.8-1.3c2.5-0.9,4.6-2.1,6.1-3.7
			c1.6-1.6,2.7-3.5,3.5-5.7c0.8-2.2,1.1-4.7,1.1-7.5c0-4.2-1.2-8-3.5-11.6c-2.3-3.6-5.8-6.3-10.5-8.2c-3.2-1.3-6.8-2.7-10.9-4.2
			c-4.1-1.5-7.6-3-10.6-4.3c-5.9-2.6-10.4-6.1-13.7-10.4c-3.2-4.3-4.9-9.8-4.9-16.7c0-4,0.8-7.6,2.4-11.1c1.6-3.4,3.9-6.5,6.9-9.2
			c2.8-2.5,6.2-4.5,10-6c3.9-1.4,7.9-2.2,12.1-2.2c4.8,0,9.1,0.7,12.9,2.2c3.8,1.5,7.2,3.2,10.4,5.1l3-5h5.9l0.6,34.5h-5.9
			c-1.1-4-2.3-7.7-3.6-11.4c-1.3-3.6-3.1-6.9-5.2-9.8c-2.1-2.8-4.7-5.1-7.7-6.8c-3-1.7-6.7-2.5-11.1-2.5c-4.6,0-8.6,1.5-11.9,4.5
			c-3.3,3-4.9,6.6-4.9,10.9c0,4.5,1,8.2,3.1,11.2c2.1,3,5.2,5.4,9.2,7.3c3.6,1.7,7.1,3.2,10.5,4.4c3.4,1.2,6.8,2.6,10,4
			c2.9,1.3,5.7,2.7,8.5,4.3C1384.7,789,1387.1,790.9,1389.1,793.1z"/>
		<path class="st1" d="M1544,780.1c-2.9,0.2-5.8,0.8-8.7,1.7c-2.9,0.9-5.2,2.3-6.7,4.3c-1,1.2-2.1,2.9-3.1,5.2c-1,2.3-2.3,5-3.8,8.1
			c-1.5,3.1-2.9,6.2-4.5,9.2c-1.5,3-3.5,6.1-5.8,9.1c2,2.3,4.3,4.9,7.2,7.7c2.8,2.8,5.2,4.8,7.2,6c1.9,1.1,4.7,2.1,8.3,2.9
			c3.6,0.8,6.5,1.2,8.8,1.3v5.2h-30.2l-10.9-12.5c-1.6,1.8-3.5,3.6-5.5,5.5c-2.1,1.9-4.3,3.5-6.6,4.9c-2.5,1.5-5.1,2.6-7.7,3.4
			c-2.6,0.8-5.6,1.2-9,1.2c-3.6,0-7.2-0.5-10.8-1.6c-3.6-1-6.8-2.7-9.7-5c-2.8-2.2-5.1-5.1-6.9-8.6s-2.6-7.7-2.6-12.6
			c0-6.1,1.6-11.5,4.8-16.4c3.2-4.9,9.2-10.1,17.9-15.6c-4-5.2-7-9.7-9.2-13.6s-3.3-8.1-3.3-12.8c0-3.4,0.7-6.5,2-9.3
			c1.3-2.8,3.2-5.3,5.7-7.4c2.2-1.9,5-3.4,8.2-4.5s6.5-1.6,9.8-1.6c3.9,0,7.3,0.6,10.3,1.9c3,1.2,5.4,2.9,7.2,4.9
			c1.7,1.9,3,4,3.9,6.4s1.4,4.9,1.4,7.3c0,5.9-1.8,10.9-5.4,15.1c-3.6,4.2-8.6,8-15,11.4c4.6,6.2,9.1,11.9,13.5,17
			c4.4,5.1,8.6,10.1,12.7,15.1c3.3-5.2,5.8-10.1,7.6-14.8c1.8-4.6,2.7-8.7,2.7-12.2c0-1.6-1.1-2.8-3.4-3.7c-2.3-0.9-5.4-1.8-9.4-2.6
			v-5.2h39.2V780.1z M1498,824c-4.5-5.8-9.7-12.1-15.3-18.9c-5.7-6.9-10.2-12.7-13.7-17.4c-4,2.7-6.8,5.9-8.4,9.6
			c-1.6,3.7-2.5,7.9-2.5,12.6c0,6.6,1.9,12.1,5.7,16.5c3.8,4.4,8.8,6.6,15.2,6.6c3.6,0,7.1-0.8,10.5-2.3
			C1493,829.2,1495.8,827,1498,824z M1492.3,756.3c0-5-1.1-8.8-3.3-11.5c-2.2-2.7-5.3-4-9.3-4c-2.3,0-4.2,0.5-5.7,1.4
			c-1.5,0.9-2.8,2.1-3.9,3.5c-1,1.4-1.7,2.8-2.1,4.4c-0.4,1.6-0.7,3-0.7,4.2c0,3.4,0.9,6.8,2.6,10.2c1.8,3.4,4.5,7.6,8.2,12.5
			c5-2.8,8.6-5.9,10.8-9.2C1491.2,764.5,1492.3,760.7,1492.3,756.3z"/>
		<path class="st1" d="M1652.1,793.1c2.2,2.4,3.8,5.1,4.9,8c1,2.9,1.6,6.3,1.6,10.1c0,9.2-3.4,16.7-10.2,22.7
			c-6.8,6-15.2,8.9-25.3,8.9c-4.6,0-9.3-0.7-13.9-2.2c-4.6-1.4-8.6-3.2-12-5.2l-3.1,5.3h-5.9l-1-35.6h5.9c1.2,4.4,2.6,8.4,4.3,11.9
			c1.6,3.5,3.8,6.8,6.5,9.9c2.5,2.9,5.5,5.2,8.9,6.9s7.3,2.6,11.8,2.6c3.4,0,6.3-0.4,8.8-1.3c2.5-0.9,4.6-2.1,6.1-3.7
			c1.6-1.6,2.7-3.5,3.5-5.7c0.8-2.2,1.1-4.7,1.1-7.5c0-4.2-1.2-8-3.5-11.6c-2.3-3.6-5.8-6.3-10.5-8.2c-3.2-1.3-6.8-2.7-10.9-4.2
			c-4.1-1.5-7.6-3-10.6-4.3c-5.9-2.6-10.4-6.1-13.7-10.4c-3.2-4.3-4.9-9.8-4.9-16.7c0-4,0.8-7.6,2.4-11.1c1.6-3.4,3.9-6.5,6.9-9.2
			c2.8-2.5,6.2-4.5,10-6c3.9-1.4,7.9-2.2,12.1-2.2c4.8,0,9.1,0.7,12.9,2.2c3.8,1.5,7.2,3.2,10.4,5.1l3-5h5.9l0.6,34.5h-5.9
			c-1.1-4-2.3-7.7-3.6-11.4c-1.3-3.6-3.1-6.9-5.2-9.8c-2.1-2.8-4.7-5.1-7.7-6.8c-3-1.7-6.7-2.5-11.1-2.5c-4.6,0-8.6,1.5-11.9,4.5
			c-3.3,3-4.9,6.6-4.9,10.9c0,4.5,1,8.2,3.1,11.2c2.1,3,5.2,5.4,9.2,7.3c3.6,1.7,7.1,3.2,10.5,4.4c3.4,1.2,6.8,2.6,10,4
			c2.9,1.3,5.7,2.7,8.5,4.3C1647.8,789,1650.1,790.9,1652.1,793.1z"/>
		<path class="st1" d="M1704.7,840.7h-34.9v-4.8c1.1-0.1,2.3-0.2,3.5-0.3c1.2-0.1,2.2-0.3,3.1-0.6c1.4-0.4,2.4-1.2,3-2.3
			c0.7-1.1,1-2.5,1-4.3v-44.6c0-1.6-0.4-3-1.1-4.3c-0.7-1.3-1.7-2.4-3-3.3c-0.9-0.6-2.3-1.1-4-1.5s-3.4-0.7-4.8-0.8v-4.8l25.5-1.6
			l1,1v58.9c0,1.7,0.3,3.1,1,4.2c0.7,1.1,1.7,2,3.1,2.5c1.1,0.4,2.1,0.8,3.1,1.1c1,0.3,2.2,0.5,3.4,0.5V840.7z M1695.6,739.2
			c0,2.8-0.9,5.2-2.7,7.3c-1.8,2.1-4.1,3.1-6.8,3.1c-2.5,0-4.7-1-6.5-3c-1.8-2-2.7-4.2-2.7-6.8c0-2.7,0.9-5,2.7-7c1.8-2,4-3,6.5-3
			c2.8,0,5.1,0.9,6.8,2.8C1694.7,734.5,1695.6,736.7,1695.6,739.2z"/>
		<path class="st1" d="M1837.2,840.7h-35.2v-4.8c1.1-0.1,2.3-0.2,3.4-0.3c1.1-0.1,2.2-0.3,3-0.6c1.4-0.4,2.4-1.2,3-2.3
			c0.7-1.1,1-2.5,1-4.3v-37.3c0-5.1-1.2-9-3.5-11.8c-2.3-2.8-5.2-4.1-8.7-4.1c-2.4,0-4.6,0.4-6.7,1.1c-2.1,0.7-4,1.8-5.8,3.1
			c-1.4,1.1-2.6,2.2-3.6,3.5c-1,1.2-1.7,2.3-2.2,3.1v41.7c0,1.7,0.3,3.1,0.9,4.2c0.6,1.1,1.6,1.9,3,2.5c1.1,0.4,2.1,0.8,3,1
			c0.9,0.2,2.1,0.4,3.6,0.5v4.8h-34.4v-4.8c1.1-0.1,2.2-0.2,3.3-0.3c1-0.1,2-0.3,2.9-0.6c1.4-0.4,2.4-1.2,3-2.3c0.7-1.1,1-2.5,1-4.3
			v-37.3c0-5.1-1.2-9-3.5-11.8c-2.3-2.8-5.2-4.1-8.7-4.1c-2.4,0-4.7,0.4-6.8,1.1c-2.1,0.8-4,1.8-5.8,3.1c-1.4,1.1-2.6,2.3-3.6,3.6
			c-1,1.3-1.7,2.4-2.2,3v41.4c0,1.7,0.3,3.1,1,4.2c0.7,1.1,1.7,2,3.1,2.6c1,0.5,2.1,0.9,3.1,1.1c1.1,0.2,2.3,0.4,3.6,0.5v4.8h-35.1
			v-4.8c1.1-0.1,2.3-0.2,3.5-0.3c1.2-0.1,2.2-0.3,3.1-0.6c1.4-0.4,2.4-1.2,3-2.3c0.7-1.1,1-2.5,1-4.3v-44.8c0-1.6-0.4-3-1.1-4.2
			s-1.7-2.3-3-3.2c-0.9-0.6-2.1-1.1-3.4-1.4c-1.4-0.4-2.8-0.6-4.2-0.7v-4.8l24.2-1.6l1,1V779h0.5c1.2-1.2,2.7-2.7,4.5-4.3
			c1.8-1.7,3.4-3,4.9-4c1.7-1.2,3.8-2.1,6.4-2.9c2.6-0.8,5.3-1.2,8.3-1.2c4.7,0,8.7,1.3,12.1,3.8c3.4,2.5,5.8,5.6,7.3,9.1
			c1.8-1.7,3.3-3.2,4.6-4.5c1.3-1.3,3.1-2.7,5.3-4.1c1.9-1.3,4-2.3,6.5-3.1s5.3-1.2,8.4-1.2c6.1,0,10.9,2,14.5,6
			c3.6,4,5.3,10.2,5.3,18.5v36.7c0,1.7,0.3,3.1,0.9,4.2c0.6,1.1,1.6,1.9,3,2.5c1.1,0.4,2.2,0.8,3.3,1c1.1,0.2,2.3,0.4,3.7,0.5V840.7
			z"/>
		<path class="st1" d="M1923.2,839.4l-23.6,1.6l-1.1-1v-9.2h-0.4c-1.2,1.2-2.5,2.5-3.9,3.9c-1.5,1.4-3.1,2.6-5,3.8
			c-2.2,1.3-4.3,2.3-6.4,3c-2,0.7-4.9,1-8.7,1c-6.4,0-11.2-2.1-14.6-6.3c-3.3-4.2-5-10.2-5-18.2v-34.5c0-1.8-0.3-3.2-1-4.4
			c-0.7-1.2-1.6-2.2-2.9-3.1c-0.9-0.6-2-1-3.3-1.3c-1.3-0.3-2.7-0.4-4.2-0.5v-4.8l24.1-1.8l1.1,1v50.2c0,5.2,1.2,9.2,3.5,11.8
			s5.2,4,8.4,4c2.7,0,5.1-0.4,7.2-1.2c2.1-0.8,3.9-1.8,5.3-2.9c1.3-1,2.5-2.1,3.5-3.3c1-1.1,1.8-2.2,2.3-3.2v-40.9
			c0-1.6-0.3-3-1-4.3c-0.7-1.2-1.6-2.3-2.9-3.2c-0.9-0.6-2.2-0.9-3.9-1.1s-3.7-0.2-5.8-0.3v-4.8l26.3-1.8l1.1,1V826
			c0,1.7,0.3,3.1,1,4.2c0.7,1.2,1.6,2.2,2.9,3c0.9,0.5,1.9,0.9,3.1,1.1c1.2,0.2,2.6,0.3,4,0.3V839.4z"/>
		<path class="st1" d="M1965.9,840.7h-35.2v-4.8c1.1-0.1,2.3-0.2,3.6-0.3c1.3-0.1,2.3-0.3,3.1-0.5c1.4-0.4,2.4-1.2,3.1-2.3
			c0.7-1.1,1-2.5,1-4.3v-83.7c0-1.8-0.4-3.4-1.1-4.9s-1.7-2.8-3-3.6c-0.9-0.6-2.5-1.1-4.8-1.6s-4.2-0.8-5.6-0.9V729l27.2-1.6l1,1.1
			v99.1c0,1.7,0.3,3.1,1,4.2c0.6,1.1,1.7,1.9,3.1,2.5c1.1,0.5,2.1,0.9,3.2,1.1s2.2,0.4,3.6,0.5V840.7z"/>
		<path class="st1" d="M2043.4,839.4c-2.3,0.8-4.3,1.5-6,2c-1.7,0.5-3.7,0.8-5.9,0.8c-3.8,0-6.8-0.9-9.1-2.7
			c-2.3-1.8-3.7-4.4-4.4-7.8h-0.4c-3.2,3.5-6.6,6.2-10.2,8.1s-8,2.8-13.1,2.8c-5.4,0-9.9-1.7-13.4-5s-5.2-7.7-5.2-13
			c0-2.8,0.4-5.3,1.2-7.5c0.8-2.2,2-4.2,3.5-5.9c1.2-1.5,2.8-2.8,4.8-3.9c2-1.1,3.9-2.1,5.6-2.7c2.2-0.8,6.7-2.4,13.4-4.6
			c6.7-2.2,11.2-4,13.6-5.3v-7.2c0-0.6-0.1-1.9-0.4-3.7s-0.8-3.5-1.7-5.1c-1-1.8-2.4-3.4-4.1-4.7c-1.8-1.3-4.3-2-7.6-2
			c-2.2,0-4.3,0.4-6.3,1.1c-1.9,0.8-3.3,1.6-4.1,2.4c0,1,0.2,2.4,0.7,4.3c0.5,1.9,0.7,3.7,0.7,5.3c0,1.7-0.8,3.3-2.3,4.7
			c-1.5,1.4-3.7,2.1-6.4,2.1c-2.4,0-4.2-0.9-5.4-2.6c-1.1-1.7-1.7-3.7-1.7-5.8c0-2.2,0.8-4.4,2.4-6.4c1.6-2.1,3.6-3.9,6.2-5.5
			c2.2-1.4,4.9-2.5,8-3.5c3.1-1,6.2-1.4,9.2-1.4c4.1,0,7.7,0.3,10.7,0.8c3.1,0.6,5.8,1.8,8.3,3.6c2.5,1.8,4.4,4.3,5.7,7.4
			c1.3,3.1,1.9,7.1,1.9,12c0,7-0.1,13.2-0.2,18.6c-0.1,5.4-0.2,11.3-0.2,17.7c0,1.9,0.3,3.4,1,4.5c0.7,1.1,1.7,2.1,3,2.9
			c0.7,0.4,1.9,0.7,3.5,0.7s3.2,0.1,4.9,0.1V839.4z M2017.8,800.8c-4.2,1.2-7.8,2.4-10.9,3.6c-3.1,1.2-6,2.6-8.7,4.4
			c-2.4,1.7-4.4,3.6-5.8,5.9c-1.4,2.3-2.1,5-2.1,8.1c0,4.1,1.1,7,3.2,9c2.1,1.9,4.8,2.9,8.1,2.9c3.5,0,6.5-0.8,9.2-2.5
			c2.6-1.7,4.9-3.7,6.7-6L2017.8,800.8z"/>
		<path class="st1" d="M2095.2,837.6c-3.2,1.3-6.2,2.4-9,3.3c-2.8,0.9-6.3,1.4-10.4,1.4c-6.1,0-10.3-1.5-12.8-4.6s-3.7-7.4-3.7-12.9
			v-48.9h-13v-7h13.3v-22.5h13.3v22.5h20.7v7h-20.6v40.4c0,3,0.1,5.6,0.3,7.6c0.2,2,0.7,3.8,1.6,5.3c0.8,1.4,2,2.5,3.5,3.2
			c1.6,0.7,3.7,1.1,6.3,1.1c1.2,0,3-0.1,5.4-0.3c2.4-0.2,4-0.5,5-0.8V837.6z"/>
		<path class="st1" d="M2172.8,803.9c0,5.1-0.8,10.1-2.4,15c-1.6,4.9-3.9,9.1-6.9,12.5c-3.4,3.9-7.3,6.8-11.7,8.7
			c-4.4,1.9-9.4,2.9-15,2.9c-4.6,0-9-0.9-13.1-2.6s-7.8-4.3-11.1-7.6c-3.2-3.3-5.7-7.3-7.6-12c-1.9-4.7-2.8-10-2.8-15.9
			c0-11.3,3.3-20.5,9.9-27.7c6.6-7.2,15.2-10.8,25.8-10.8c10.1,0,18.5,3.4,25,10.2C2169.5,783.5,2172.8,792.6,2172.8,803.9z
			 M2157.7,804c0-3.7-0.4-7.5-1.1-11.6c-0.7-4.1-1.8-7.5-3.3-10.4c-1.6-3-3.6-5.5-6.2-7.3c-2.5-1.8-5.6-2.7-9.3-2.7
			c-3.8,0-7,0.9-9.6,2.8c-2.7,1.9-4.8,4.4-6.5,7.6c-1.6,3-2.7,6.4-3.3,10.2c-0.6,3.8-1,7.5-1,11.1c0,4.7,0.4,9,1.1,13
			c0.8,4,2,7.5,3.6,10.7c1.7,3.1,3.8,5.6,6.3,7.4c2.5,1.8,5.6,2.7,9.4,2.7c6.1,0,11-3,14.5-8.9
			C2155.9,822.6,2157.7,814.4,2157.7,804z"/>
		<path class="st1" d="M2238.5,777.8c0,2.5-0.6,4.7-1.8,6.6c-1.2,1.9-3.1,2.9-5.6,2.9c-2.7,0-4.8-0.7-6.3-2.1
			c-1.4-1.4-2.2-3-2.2-4.7c0-1.1,0.1-2.1,0.3-2.9s0.3-1.8,0.5-2.6c-2.3,0-5,0.9-8.1,2.8c-3.1,1.9-5.7,4.5-7.8,7.9v42
			c0,1.7,0.3,3.1,1,4.2c0.7,1.1,1.7,1.9,3.1,2.4c1.2,0.5,2.8,0.9,4.7,1.1s3.6,0.4,5,0.5v4.8h-38.1v-4.8c1.1-0.1,2.3-0.2,3.5-0.3
			c1.2-0.1,2.2-0.3,3.1-0.6c1.4-0.4,2.4-1.2,3-2.3c0.7-1.1,1-2.5,1-4.3v-44.6c0-1.5-0.4-3-1.1-4.5c-0.7-1.5-1.7-2.6-3-3.5
			c-0.9-0.6-2-1-3.3-1.3c-1.3-0.3-2.6-0.4-4.1-0.5v-4.8l24-1.6l1,1v10.2h0.4c3-4,6.4-7,10.1-9c3.7-2.1,7.1-3.1,10.2-3.1s5.6,1,7.5,3
			S2238.5,774.5,2238.5,777.8z"/>
	</g>
</g>
<g id="layer2">
	<path class="st4" d="M4997.5,29.9c113.5,35.3,227,70.5,340.5,105.8c2.8,3.3,1.5,7,1.5,10.6c0.2,5.6,2.4,11.1,2,16.9
		c-1.1,1.9-0.6,4.4-1.6,5.1c0.5-0.8,0.7-2.9,1.5-4.9c1.8-3.3,3.9-1.7,5.8-0.1c0.6,0.4,0.9,1,1.2,1.6c3.2,3.7,3.2,8.5,4.5,12.8
		c1.1,3.5-0.9,6-3.9,8c-2.4,1.4-7.3,3.3-0.4,5.9c1.8,0.5,1.5,3.1,1.3,5c0,1.7-0.3,3.3,1,4.7c1.1,1.1,2.4,1,3.7,0.7
		c1.8-0.4,3.7-0.3,5.3,0.9c0.7,0.7,1.2,1.6,1.4,2.4c0.3,2.3,1.9,4,3.1,5.6c5.6,14.8,11.4,29.7,13.2,45.5c0.4,3.3,0.6,6.7-0.8,9.5
		c-4.1,8.4-1.3,17.3-2.2,25.7c-0.2,1.4,0.9,2.7,1.5,3.8c0.9,1,0.8,3.6,3.3,1.8c1.8-1.9,3.9-3.2,6.9-2.7c1.6,0.3,2.8,1.1,3.8,2.6
		c-0.6-2.1-2.2-3.1-2.4-4.9c-0.3-8.3,3.7-11.2,11.5-8.3c2.4,1,3.9-0.7,5.6-0.9c0.9-0.5,1.5-1,2.5-1.7c6.2-2.2,12.5-0.5,17.6,2.6
		c3.3,1.8,6,2.6,9.4,2.4c1.7,0,3.2,0.5,4.6,1.4c7.2-0.4,14.2,0.3,21.4,0.4c1.5,0.5,3.1,1,4.2,2c0.6,0.4,1.3,1.4,1.3,1.4
		c4.1-3.1,7.1,0.5,10.6,1.6c1.3,0.4,2.7,0.8,4,1.2c3.2,1.2,5.8,3,4,7.3c-0.4,0.6-1.1,1.1-1.5,1.7c1,0.1,1-0.9,1.8-1.1
		c7.4-5,15.7-2.2,23.5-3.1c9.8-1.3,12.9-3.5,12.1-13.2c-0.5-5.5,1.6-8.2,5.7-11.3c6.3-4.8,12.2-10.3,19.7-13.5
		c2.8-1.1,5.4-2.5,8.7-2.2c20.3,1,38.8-3.9,54.2-17.8c4.7-4.3,10.7-7.1,16.3-10.4c4.8-3.1,9.8-1.1,14.7-1.3
		c66,20.5,132.1,41,198.1,61.5c3.8,1.2,4.7,2.2,3.4,6.1c-152.7,490.9-305.3,981.8-457.6,1473c-2,6.4-4.8,3.8-7.9,2.9
		C4780.9,1588.3,4186,1403.4,3591,1218.6c-1-2.2-0.3-5.2,1.6-5.1c7.5,0.1,11.4-8.6,19.1-7.6c0.4,0.1,0.5-0.1,0.7,0
		c8.3-4.2,16.2-9.3,23.9-14.6c1.9-1.6,5.2-1.1,6.5-3.8c1.6-2.2,4.3-2.8,6.1-4.1c2.2-1.7,4.6-3.2,4.2-6.4c-0.2-2.5,1.1-3.5,3.2-4.8
		c16-9.3,32.3-17.6,49-25.2c8.2-3.8,16.8-6.4,24-12.6c5-4.3,11.9-6.2,18.6-6.8c4.5-0.5,8-3.1,12-5c4.6-2.2,4.1-5.3,1.1-8.1
		c-3.2-2.9-6.5-5.4-9-9.3c-2.1-3.3-7-1.7-10.2-2.9c-3.6-0.9-7.1-2.9-10.9-2.2c-3.8-0.2-8.4-0.2-9.7-4.5c-1.8-5.9,2.7-9.3,6-12.9
		c0.8-1,1.2-2.3,1.6-3.6c0.9-2.1,0.4-4.2,0-6.3c0.1-3.6,3.6-5.2,5-8.1c0.7-1.5,2.3-3.6,1.1-4.3c-2.4-1.7-5.7-1.3-8.7-1
		c-1.8,0.2-2.7,1.8-2.3,3.6c1,3.9,2.6,8.1-2.2,10.2c-4.9,2.6-10.1,4.6-15.8,1.9c-4.7-2.2-5.1-4-1.1-7.4c1-0.9,2-1.8,3.2-2.6
		c3.4-2.3,4.2-4.3,0-7c-5-3.3-4.6-5.5,0.5-8.6c4.5-2.7,7.1-8,13-8.3c-10.3-2.7-20.1-4.8-27.9,5.6c-4.1,5.5-9,5.7-12.8,2.1
		c-1.4,1.5,0,3.1-0.3,4.8c-0.1,1-0.1,1.9-0.4,2.8c-2.4,9.4-5.9,10.5-13,3.7c-4.7-4.4-9.4-6.3-15.6-4.4c-5.1,1.6-8.4-0.2-9.6-5.7
		c-0.6-2.8-2-5.2-4.1-7.1c-2.7-2.3-3.7-5.3-3.3-8.8c0.2-1.4,0.4-2.8,0.8-4.1c-1-6.9-5.1-12.5-8.5-17.9c-2-3-4.4-6.2-6.3-9.5
		c-1.2-4-3.6-6.2-7.4-7.4c-3.3-4.9-1.5-9.9,2.3-12.8c5.9-4.2,7.5-10,8.5-16.5c0.5-3,1-6.2,3-8.3c5.1-4.7,3.8-9.2,0.4-13.7
		c-1.3-2.8-5.2-5.7,0.2-8.4c0.7-0.7,0.2,0.3,0.6-0.3c3.5-10.5,14-13.1,20.9-19.7c4.9-4.8,9.3-10.4,12.2-16.8c1.9-3.8,3.9-7,7-9.9
		c6.1-5.6,9.6-12,10-21.1c0.4-7.4-1.1-16.6,7.1-22c1.6-1.2,1.7-3.1,1.6-5.1c-0.4-7.4,2.1-13.6,6.9-18.9c2.3-2.7,4.5-5.1,5.6-8.7
		c1.9-6,3.3-12.1,8.8-15.9c0.9-0.7,1.6-1.9,1.6-2.9c1.6-9,8-13.3,15.5-17.2c13.2-6.8,26.6-14,34.9-27.4c1.3-2,3.2-3.4,5.4-4.1
		c10.6-4.5,17.2-13.3,24.5-21.9c5.9-7.1,12-14.4,19.4-20.4c12.2-9.5,25.4-17.1,39-24.2c5.5-2.9,10.2-7,15.2-10.8
		c6.3-4.6,12-9.8,19.4-12.6c8.7-3.1,14.9-9.7,20.3-16.2c5.4-6.5,12.7-9.8,19.5-13.8c5.3-3.2,11.6-5.4,18.2-6.4
		c5.6-0.9,11.4-2.3,16.4-5.3c2.3-1.2,4.7-1.9,7.3-1.6c5.1,0.6,10,0.5,15.2,0.1s9.8,0.4,13.6,4.7c3.1,3.4,7,6.3,11.9,7.6
		c3.8,0.9,4.6,3.9,3.7,7.7c-0.4,2.1-2,4.2-0.8,6.5c5.4,1.4,7.8-7,13.7-3.7c1.2,1.6,0.9,3.2,0.2,4.9c-0.2,0.7-0.6,1.3-1,1.6
		c-1.4,1.5-3.4,2.3-4.4,4.2c0.5,0.6,0.6-0.3,0.9-0.5c1-1.6,2.3-2.7,3.8-3.7c6.3-3.9,12.6-7.7,17.3-13.5c1.9-2.1,3.9-3.2,6.8-2.3
		c1.3,0.4,3.2,1.5,4,0.5c8.4-9,21.4-5.7,31.1-11.9c5.8-3.8,9.8-9.6,15.2-13.9c1.3-1.1,1.4-3,1.2-4.5c-0.7-3.1,0.8-5.8,1.5-8.7
		c2.6-10.6,8.5-15.8,19.7-18.8c7.7-2.2,15.4-6.8,23.3-10.2c6.7-3,13.3-5.5,21.3-3.8c6.1,1.4,15.2-5.4,18.6-10.7
		c4.3-6.9,5.6-11.8-1.2-18c-4.5-4.3-6.6-10.8-10.8-15.9c-3.2-3.9-2.6-10.3-3-15.2c-0.6-9.1-3.1-17.4-5.9-26.1
		c-5.6-17.7-7.5-35.8,1.5-53.1c2.4-4.6,4.5-9,1.8-14.4c-1.1-2,0.1-4.1,1.1-5.9c4.6-7.8,9.2-15.5,16.3-21.3c2.6-2.1,5.7-3.6,8.9-3.8
		c4.7-0.2,8.3-1.8,11-5.8c1.7-2.4,4.3-3.7,7-0.7c-0.2,3.1,2.7,3,4.3,4.2c1,0.8,2,1.3,3,1.9c5.5,0.3,10.3-2.1,15.3-4.2
		c2.8-1.3,3.7,5.3,6.8,1.6c2.2-4.9,5.8-4,9.7-2.5c1.5,0.7,2.7,1.6,3.7,2.8c0.9,1,1.7,3.2,3,0.5c0.9-1.2,1.7-2.4,2.9-3.2
		c0.6-0.3,1.2-0.6,1.7-0.7c1.8-0.2,3.6,0.1,5.5,0.3c1,0.1,1.8,0.3,2.7,0.8c1.6,1,3.3,1.8,4.6,3.1c1.6,3.4,5,3.3,7.8,4.6
		c0.8,0.5,1.6,1,2.2,2.1c0.5,1.6,0.2,3.2-0.6,4.9c-1,2.4-3.8,2-5.5,2.9c-1.2,0.8-2.1,2-3.1,2.9c-1.5,1-1.3,2.5-0.8,4.1
		c-0.6,3.4,2.9,4,4.1,6.1c1.1,2.5,0.5,4.5-2.4,5.3c-6.7,2-10.9,7-13.2,12.9c-1.7,3.8-6.9,4.2-7.3,8.6c-0.1,1.2-0.5,2.5-1.1,3.5
		c-1.1,1.9-1.7,3.8-1.6,6c-0.4,2.1-0.4,4.2,1.1,5.9c4.9,5.4,2.3,12.8,5.1,18.8c1,2.2-1.3,4.2-3.4,5.5c-4.2,2.6-8.5,4.6-13.5,3.6
		c-1-0.1-1-1.5-2.3-1.2c0.2,0.3,0.2,0.8,0.4,1.1c0.3,1.5,0.3,3,0.1,4.4c0,0.7-0.1,1.2-0.3,1.8c2.5,9,5.1,18,12.7,24.5
		c2.5,2,4,1,6.2,0.5c9.4-2.9,17.2,1.7,18,11.4c0.3,2.8,0.5,4.7,3.2,6.1c4,2,3.7,4.3,0.8,7.5c-5.4,5.6-10.6,11.5-17,15.8
		c-0.7,1.5-1.2,3-1.7,4.6c-1.2,4-3.6,6.9-6.8,9.5c-5.5,4.6-5.4,9.7,0.1,14.3c1.1,1.1,2.4,2.4,3.9,2.9c5.5,1.9,9.1,5.7,12.9,9.8
		c3.2,3.7,9.1,1.1,12.6,4.6c2,3.5,5.5,2.7,8.7,2.5c6.8,1.6,13.3-2.4,20-0.6c0.7,0,1.2-0.1,1.9,0.1c4.8,0,9.1-2,13.5-3.8
		c6.4,0.3,10.9-3.9,15.9-6.7c4.3-2.1,8.6-3.6,13.4-3.3c2-0.1,3.6-0.8,5.4-1.7c2.2-0.8,4.6-0.8,6.9-0.3c2.8,0.4,5.8,0.8,5.9,4.5
		c0.1,3.7-1.5,6.3-5.3,7.1c-2.6,0.4-5,0.6-7.5,1.5c-4.4,1.8-4.9,4.1-1.1,7.4c7.2,6.4,6.7,10.5-2.2,14.1c-1.7,0.7-2.9,1.5-3.6,3
		c-1.7,3.1-4.4,4.7-7.7,5.4c-8.5,1.7-13.9,8-19.7,13.5c-1.7,1.6-1.6,3.6-0.8,5.8c5.1,12.5,21.5,18.8,31.3,11.4c1-0.9,2.4-1.4,3.5-2
		c0.9-0.5,1.7-0.9,2.6-1.4c8.1-10.3,19.7-11.1,31.3-12.8c9.3-1.2,17.3-5,21.9-14.5c2.2-4.7,7.9-6,12.7-7.4c3.2-0.2,6.2,0.5,9.3,1.2
		c0,0,0.1-0.4,0.2-0.7c0.1-0.2-0.1-0.5,0-0.7c2.4-5.3,6.5-6.2,10.3-2.1c2.3,2.7,4.4,5.2,6.2,8.2c2,3.8,4.4,4.5,6.1-0.1
		c1.4-3.7,4.3-5.9,6.8-8.6c4.9-5,4.7-7.5,0-12.4c-0.7-0.7-1.6-1.2-1.5-2.2c0.3-9.6-7.2-11.2-13.7-13.5c-1.5-0.5-3.1-1-4.7-1.2
		c-5-1.1-8.6-3.6-9-9.1c-0.2-1,0.2,0.3,0-0.7c-0.8-3.6-4.8-6.3-3.4-11c1.6-4.3,6.5-2.8,9.2-5.4c0.4-0.6,0.9-1.2,1.2-1.6
		c1-1.6,3.6-3,1.4-5.4c-3.9-2.9-6.5-8.1-12-8.8c-2.3-0.2-4.9-1.3-6.3,0.9c-3.2,4.8-8.2,5.4-13,6.9c-2,0.3-3,1.7-4.2,3.3
		c-4.8,3.6-10.4,3.8-15.9,3.5c-3.9,0-7.5-1.6-9.3-6c-1.2-3-2.9-6.2-5.2-8.9c-1.4-0.9-3-1.4-4.2-2.8c-2.9-4-6.5-5.4-11.4-4.7
		c-4.3,0.6-8.1-0.3-10.8-4.3c-1.7-3-5.1-3.8-8.1-5.2c-3.5-1.3-4.4-3.1-1.4-6.5c2.2-2.5,3.5-5.7,5.4-8.7c5.6-8.7,7.9-9.2,16.6-3.6
		c1.8,2,3.6,4,6.8,2.1c5.5-2.2,10.8-3.7,16.8-1.8c1.8,0.5,4.2,0.6,5.5-0.5c5.3-4.6,13.9-4.2,17.8-11.2c0.6-1,1.6-1.9,2.7-1.8
		c12.1-0.6,20.3-10.1,31.5-13.4c6.6-1.8,11.1-9.4,17.1-13.6c1.9-1.4,0.8-3.4-0.2-4.9c-5.2-6.7-8.4-15-16.3-19.3
		c-2.9-1.6-4.6-4.8-4.8-8c-1.6-19.6-7-39-3.7-59c0.4-2.8-0.4-5-2.8-6.7c-1.2-0.9-2.7-1.3-3.1-2.6c-2.7-10-9.7-18.5-10.5-29.2
		c0.2-2.3,3-4.2,1.4-6.8c-2.6-6.4,2.8-6.6,6.4-8.2c1.7-0.7,2.2-1.7,1.3-3.5c-0.8-2-0.9-4.2-1.4-6.3c-1.5-7.7,0.6-9.7,8.2-8.4
		c10.3,2,19.2-1.1,28.7-7.3c-10.9,1.5-13.9-0.4-17.7-9.4c-0.9-2.5-1.1-5.7-4.5-6.5c-2-0.6-2-2.8-3.4-4c-1-0.8-1.9-1.6-2.5-2.7
		c-0.3-1.3,0.1-2.6,0.7-3.7c0.5-0.8,1.4-1.3,2.2-1.7c2.7-0.9,1.3-2.7,1.1-4.3c0-4.6,2-8.8,3.4-13.2c1.2-4,3.1-7.5,8.2-5.4
		c1.1,0.3,2.5,0.5,2.9-0.8c1.6-5.3,7.4-8.9,6.5-15.4c-0.4-3.5,1.8-6.5,5.4-6.5c4.4-0.1,7.8-2.4,11.9-3.3c2.2,0,4.4,2.3,6.4-0.4
		c0.9-0.7,2.1-1.3,3.3-1.9c5.1-4,10.4-7.7,12.8-13.9c1-2.6,3.3-4.3,5.7-5.7c6.4-3.3,13.8-5.4,16.5-13.3c0.5-1.8,2.8-2,4.8-2.1
		c2-0.1,3.4-0.9,3.9-3.2c0.4-4.5,3.9-4.6,7.2-4.5c3.4-0.7,1.8-2.8,1.7-4.8c-0.2-4.2,3.8-5.9,5.2-9c1.9-2.3,1.3-5.7,2.5-8.2
		c0.4-0.6,0.8-1,1.4-1.5c1.1-0.4,2-0.3,2.9-0.1c2.2,0.7,4.1,1.5,6.6,2.3c-2-3-2.6-5.7,1-7.9c8.7-1.6,16.4-5.3,22.6-12.1
		c1.8-1.9,3.7-4.2,6.1-1c1.4,1.9,0.7,0,1.1-0.4c2.8-4.4,5.8-4.5,9.1-0.3c5.1-7.1,12-11.3,20.7-12.7c1-0.2,2.6,0.1,3.2-0.9
		c4.7-8.9,11.8-5.3,18.7-4.1c2.3,0.5,3-1.2,4.2-2.6c4.6-4.6,9.8-9.8,15.6-11.1c7.3-1.6,15.4-3,23,0.1c2.4,1,4.6,1.7,7.2,0.3
		c2.4-1.4,5.3-0.5,6.8,1.6c2.4,3.9,5,3.3,8.7,1.7c5.7-2.6,8.9-0.6,9.9,5.5c1.7-3.1,0.2-9.1,6.7-6.9c0.8,0.5,1.1,1.3,1.5,2.2
		c0.4-0.6-0.3-1.3,0-2.2c0.4-1.3,1.4-2.2,2.6-3.1c2.4-1.4,4.6-3.9,7.9-1.9c1.4,1.9,3.3,2,5.4,1.4c3.7,0.7,5.7,2,3.5,5.9
		c-1.4,2.2-1.4,4.4,0.5,6.9c2.5-1.9,2.8-5.2,4.3-7.6c4.5-7.3,9.6-8.2,18.1-7c7,1,14.3,3.2,21.4,0.6c1.1-0.4,2.5-1.1,3.3-0.4
		c6.9,6,14.2-0.4,21.3,0.8c7.3,1.3,14.9,2.7,22.6,2.2c3.7-0.3,6.8-0.8,8.8-4.3c2-3.3,4.9-4.8,8.8-4.1c0-2.4-0.8-4.6-0.6-6.5
		c0.1-4.1-3-8.4,2.7-11.8c5.6-3.3,10.8-3.4,16.1,0.4c1.2,1.6,2.7,3,3.6,4.8c2.8,11.3,2.5,22.3-4.8,31.9c-2,2.5-1.2,3.8,1.6,4.1
		c3,0.5,5.8,0.8,8.9,0.3c5.3-0.5,7.8,1.4,8,6.9c-0.2,2.1,0.9,3.2,3,3.6c7.8,3.6,16.5,0.5,24.6,2.8c3.4,0.1,6.8,3.1,10-0.3
		c0.6-0.3,1.1-0.4,1.7-0.7c4.5-0.5,3.1-5.3,5.3-7.6c0.4-0.6,0.8-1,1.4-1.3c2.7-0.9,4.9,1.5,7.6,1.4c1.2,0.1,2.6,0.3,3.9,0.7
		c1.5,0.5,2.9,0.9,4.4,1.4c2.4,1,3.8-0.5,4.9-2.4c4.4-4,9.9-6.9,11.1-13.2c0.3-1.6,2.1-2.7,3.7-2.7c4.6,0,8.2-3,12.2-4.2
		c7.5-2.3,13.1-6.3,15.1-14.4c0.3-0.9,1-1.6,1.3-2.5c1.8-3.5,6.5-5.3,5.6-10.4c-1.2-8.6-2.5-16.8-9.3-23.2
		C4997.8,34.4,4994.6,32.9,4997.5,29.9z"/>
	<path class="st5" d="M3199.3,864.4c-2.7,8.6-5.4,17.4-5.2,26.2c0.2,11.7-3.5,22.9-3.3,34.8c0,10.9-4.6,21.8-7,32.7
		c0.6,3.6-0.4,6.7-2.9,9.3c-3.6,10-7.3,19.8-10.9,29.8c-1.9,5.2-7.7,7.5-9.2,13.4c-1.9,7.6-8.1,13-11.9,19.6c-3.3,6-10,6.3-15.2,9.1
		c-1.2,0.6-2.6-0.3-3.6,1.3c-1.9,3.8-4.3,6.9-9.2,6.1c-1-0.1-2.6,0.4-2.8,1.3c-3.6,6.9-11.6,10.9-12.4,19.6
		c-58.3-18.1-116.6-36.2-174.9-54.3c0-5.6,5.4-5.6,8.1-5.9c6.1-1,7.7-5.4,7.8-9.7c0.3-7.2,2.3-13.6,5.7-19.8c2.4-4.6,1-6.2-4-6.6
		c-7.5-0.6-8.8-2.2-6.3-9.5c2.2-6.3,1.5-13.3,3.9-19.6c2.2-5.6,8.5-5.6,12.9-7.1c3-1.2,6,1.6,6.7,6.4c0.3,1.5,0.7,8,4.4,6.9
		c5.4-1.7,11.9,1.3,16.4-6c3.3-5.3,6.2-11.4,11.8-15.5c3.5-2.6,4.7-8.2,6.1-12.6c2.2-8,3-15.8-1.4-23.7c-3.7-6.7,1.2-12.5,9.8-17.5
		c6.2-3.6,11.9-1.6,17.8-1c1.9,0.1,4,1.2,3.8,3.4c-1.1,5.7,4.4,5.2,6,5c6.6-1.6,13.6-1.8,19.1-6.2c1.9-1.6,3.8-2,5.7-2.8
		c9.4-3.9,14.1-11.8,18.1-20.8c1.5-3.2-2-6.2-0.3-8.3c4.6-6.3,3.9-13.3,4-20.6c0.1-3.4,2.8-3.5,4.9-1.9c1.8,1.3,3.6,3.3,4.2,5.2
		c0.9,2.7,3.8,3.4,4.7,2.9c6.6-4,15.4-0.3,21.7-5.9c2.9-2.5,7.3-1.8,10.5-5c2.9-3,0-7.8,4.4-9.5c1.5-1,1.5-2.4,1.3-4.2
		c0.8-8.7,8.1-12.7,13.1-18.7c5.6-7,12.6-11.6,19.1-17.1c1.9-1.6,3.3-2.1,5.6-2.4c1.5-0.3,3.3,1,5.2-1.1
		c6.6-7.9,16.5-10.9,25.1-15.2c2.2-1,4.1-5.5,6.6-3.3c2.2,2.1-0.7,5.4-1.3,8.1c-0.7,3.2-0.7,5.4,1.2,8.6c2.6,4.2-0.3,9.6-1.2,14.7
		c-0.8,4.1-2,8.1-3.7,11.9c-5.7,12.3-6,25.5-5.1,38.1c0.8,11.6-2.4,21.8-4.7,32.4C3199.2,861,3198.9,862.8,3199.3,864.4z"/>
	<path class="st6" d="M4250.5,367.2c1.4-0.5,2.9-0.8,4.4-0.1c-1.2,1.6,0,5.3-3.4,4.8C4249.4,371.7,4250.7,368.9,4250.5,367.2z"/>
	<path class="st7" d="M4257.5,363.5c0.3-0.9,0.8-1.9,1.1-2.8c1.6-0.5,2.7-0.1,3.8,1.2c0.5,0.9,0.8,1.4,1.2,2.3
		C4261,366.1,4259.3,363.9,4257.5,363.5z"/>
	<path class="st5" d="M3947.7,280.1c3.9,2.2,7.7,3.4,12.4,2.2c2.3-0.5,9.2-2.2,7.1,5.3c-0.3,1.1,0,2.2,1.1,2
		c7.4-1.3,1.5,3.6,2.5,5.4c1.6,1.2-1.8,5,2.5,5.1c0.2-0.7,0.5-1.5,0.8-1.9c8.4-6.8,8.4-6.8,0.4-13.7c-2.5-2-1.8-4.2-0.9-6.3
		c1-2.6,2.6-3.8,5.7-2.6c5,1.8,10.1,2.6,14.2-2.1c1.3-1.1,2.1-3,3.7-3.4c6.3-1.7,7.9-9.2,13.4-11.3c2.2-0.8,4.6-4.6,6.2-2.2
		c2.5,3.7,8.4,4.8,8.9,8.8c0.5,4.7,2,8.4,4.7,12.1c1.1,1.3-0.3,2.6-0.7,3.9c-1.4,1.3-2,3.3-2,4.9c0,5.6-2.2,9.5-7.6,11.2
		c-1.1,0.4-2.2,1.5-1.6,2.7c0.8,1.4,2.4,0.8,3.8,1.2c1.6,0.3,3,1.4,4.4,2.3c2.7,2.3,5.6,4.4,9,5.4c2,0.6,3.9,1.5,6.1,1.4
		c2.1,0.2,3.9-1,5.3-2.2c1.2-0.6,2.2-1,3.5-1.1c2.7,0.6,4.9-0.9,7.1-1.9c2.3-0.3,4.2,0.4,6.2,1c3.1,1,6,1.6,9.3,1.9
		c1.4,0.2,2.7,0.6,3.9,0.7c3.7,1.4,7.3,0.8,10.7-0.1c1-0.9,1.3-2.7,2.9-3.2c4.9,1.3,10.8-0.5,14.3,4.7c3.8-2.2-3.2-9.2,4.3-9.8l0,0
		c3.3-1.2,5.5,1,8,2.5c1.6,8,8.3,9.1,14.4,9.8c4,0.5,7.6,1.2,10.6,3.3c4.6-5.6,1.7-10.1-1.7-14.8c-1.1-1.3-2.4-2.4-3.9-0.7
		c-2.6,2.8-5.1,2.3-7.9,0.5c-2.8-1.8-2.1-4.1-1.8-6.6c0.6-4.2,4-2.9,6.2-3.6c0.8-0.2,1.8-0.4,4.4-1c-9.6-2.5-10.3-8.8-10.9-15.5
		c-0.2-3.2,1.1-5,3.5-6.7c7-4.6,12.1-10.8,17-18c4.8-6.8,6.7-14.6,11.4-21.2c2.6-3.6,3.7-4.2,5.9-0.3c1.1,2,3.7,3.6,4,0.5
		c0.8-8.9,8-7,13.1-8.5c2.3,0.5,2.3,2.7,1.3,3.6c-3.7,3.2-2.5,7.2-2.7,11c0.5,0.9-0.5,3.2,1.9,1.6c0.4-1.3-0.1-2.7-0.7-3.9
		c-0.8-2-2.3-4.3-0.3-6.1c2.4-2.2,4.9-1.6,7,0.7c0.6,2.8,4.1,1.7,5.1,4c1.6,3.4,8.3,6.7-1.4,9c-4.4,0.8-3,5.8-1.4,8.5
		c1.3,2.1,1.6,3.4,0.8,5.3c-1.3,4.2-3,8,0.4,12.7c1.9,2.5-0.1,6.5-2.5,8.7c-3.2,3.4-6.7-0.2-10.1-0.2c-2.3,1.2-4,3.4-6.4,4.3
		c-1.7,0.9-1.1,2.1-0.5,3.2c1.1,2.5,1,5.4,1.9,7.9c0.3,0.6,0.8,2,1.4,0.2c0.1-0.4,0.1-1,0.2-1.4c1.3-1.8-0.8-2.2-1.2-3.3
		c-2.2-4.6-1.9-7.9,3.9-8.7c2.1,1.1,5.9-0.3,4.6,4.8c-1,3.1,1.2,3.8,3.8,1.7c1.3-1.1,2.3-2.7,4.1-2.4c0.9,0.3,5-0.6,1.8,2.7
		c-0.1,0.2-0.4,0.4-0.2,0.7c3.7,6,3.3,11.9,0.4,18.1c-0.1,0.4,1.4,1.7,2.1,2.6c0.6,1.2,4.5,0.2,2,3.5c-1.3,2-2.9,2.5-4.6,1.5
		c-3.5-2-6.3-2.2-8.4,2c-0.1,0.4-1,0.9-0.9,0.7c-4.9-4.7-9.6,1.1-14.3,0.1c-2.3-0.5-4.5-0.4-6,2c-2.5,4.1-6.6,4.7-10.3,3.6
		c-4.2-1.3-5.9-0.4-6.4,4.1c-0.1,1.9-1.4,3.7-2,5.7c-0.9,3.8-3.7,4.9-6.8,3.2c-5-2.5-8.8-1.3-13.7,1.1c-7.7,3.7-16.3,4.9-23.8,9.6
		c-5.7,3.6-12.6,4.8-17.6,10c-4.8,4.6-16.9,2-20.4-3.7c-0.3-0.6-0.5-1.6-1.1-1.1c-5.3,3.9-9.2-1.4-13.9-1.9
		c-12.9-1.3-25.6-2.6-38.6-3.7c-1.9-0.1-3.6-0.1-4.4-2.3c-0.6-1.9,3.1-4.4-0.1-5.8c-4.3-1.8-7.9-5.6-13.3-3.2
		c-1.3,1.1-3.3,0.4-4.6,1.7c-0.9,1.4-3.6,1.5-3.2,4.1c1.9,9.5-5.4,12.8-11.9,15.7c-6.4,2.6-11.6,6.8-16.5,11.1
		c-3.6,3-4.2,7.9-4.6,12.6c-0.6,7.3-3,9.7-10.3,8.9c-4-0.3-7.5,4-11.6,0.8c-1-0.8-2.9-0.9-2.5-2.7c0.2-1.4,1.2-1.6,2.3-1.9
		c7.4-2.8,12.1-7.9,14.3-15.7c0.6-2,0.3-3.3-1.8-3.7c-2.5-0.5-5.5-3.4-7.4-0.4c-2,3.3-4.5,2.7-7,2.2c-5.9-1.3-11.2,3.3-17.2,1.7
		c-1.4,0.8-3.4,0.1-4.7,1.2c-8.6,2.7-15.7,7-21.1,14.8c-2.2,3.2-6.8,3.9-10.8,4.4c-5.3,0.5-8.7,2.4-11.8,7.5
		c-3,4.9-6.3,10.2-11.6,13.8c-4,2.9-9.1,6.8-11.1,13c-1,3.1-3,5.8-6.2,8.2c-3.5,2.6-4.4,7.8-5.5,12.3c-0.8,3.4-1.1,6.7,4,6.6
		c2.9-0.1,3.4,2.3,3.5,4.2c0.1,2.9-2.5,1.7-4.2,1.8c-5.3,0.5-9.9,7.8-8.4,13.1c1.7,6.1-2.8,14.6-8.4,13.6c-6.7-1.1-6.8,3.2-8.1,6.7
		c-3.2,8.7-5.3,9.3-12.9,3.3c-0.8-3.6-1.2-7.1-0.3-10.7c-2,2.5-4.2,3.5-7.3,1.6c-1.8-1.3-3.7-2.1-5.6,0c-0.7,0.7-1.2,1.6-0.8,2.4
		c1.2,2.3,3.7,1.4,5.6,1.5c7,0,7.4,0.4,5.2,5.7c-0.4,0.4-0.9,0.5-1,0.9c-6,10.7-6.1,9.5-15.1,1.8c-6.5-5.6-3.3-9.5-2-14.7
		c0.6-2.7,1.2-5.4,2.5-8c3.9-7-0.2-12.7-3.2-18.4c-0.6-1.2-1.4-2.4-1.2-3.8c2.1-9-2.1-18.3,2.1-27.2c0.5-0.8-0.3-2.3-0.4-3.3
		c-0.5-1.6-0.1-2.9,1.2-4c5.6-10.9,16.3-16.7,24.5-25.1c2.4-2.4,4.3-6.7,2.3-10.7c-0.5-1.4-1.4-2.6,0.5-3.2c1.1-0.4,2.1,0.2,3,1.2
		c5.1,6.9,12.1,6.2,15.5-1.5c1.9-4.5,3.2-8.7,2.2-14.1c-1-6.1,2.4-12.6,5-18.5c1.4-0.8,2.3-2.7,3.7-3.4c1.1-3.5,2.9-6.1,6.8-7.8
		c8.2-3.8,15-20.3,13.2-29.1c-0.7-3.9-0.7-8-1.1-12c8.8,2,13.5-0.6,16.3-9.7c1.3-4.2,3.5-6.4,8-4.8c2.6,1,3.9-0.2,5.7-1.9
		c2-1.8,4.1-4.8,7.7-2.9c0.7,0.9,1.7,2.2,0.9,3.2c-3.7,4.2-3.5,9.8-6.4,14.2c-0.4,0.4-0.4,0.6-0.6,1c-1.1,1.9-3.2,2.6-4.5,4.4
		c2-0.3,3.6-2.3,5.7-2.1c4.9,0.6,3.4-3.8,4.6-6.1c0.6-1.3,0.1-3.6,2.5-3.3c2.1,0.2,2.2,1.4,2.4,3.2c0,3.1,2.1,4.3,5,4.2
		c3.4,0.1,6.6-0.1,7.4-4.2c1.1-5.2,3.2-10.2,8.1-13c1.8-1.1,2.8-3.7,5.8-3c3.5,1.1,1,4.4,2.4,6.3c-0.5,1.8-0.9,3.8-2.8,5
		c0.3,3-5.2,4.9-2.8,7.4c3.3,3.4,6.6-0.4,9.6-2.1c3.5-1.8,6.4-4.1,8.3-7.3c3-5.1,5.5-4.4,8.3-0.1c0.5,0.6,1.7,0.8,2.5,1.3
		C3944.5,278.2,3946.4,278.3,3947.7,280.1z"/>
	<path class="st5" d="M3623.9,935.1c-1.2,4-2.7,7.9-3.9,11.9c-4.4,0.1-5.9,3.5-7.2,6.7c-4.5,12.2-10.2,24.2-9.8,37.9
		c0.1,2.9-1.9,3-3.5,2.8c-4.3-0.9-8.1,1.1-11.8,2.1c-2.7-1.3-3.7-3.8-3.7-6.9c-3.9,1-3.1,4.4-4.6,6.1c-2.1,2.7-3.2,5.8-7.4,7.4
		c-3,1-4.5,5.9-2.6,9.9c2,4.5,4.4,9.1,4,14.3c-0.1,1.9-0.3,4-3.6,3c-2.6-1-5.4-1.4-8,1.6c-2.6,2.8-4.1-1.7-4.1-2.5
		c-0.4-4,0.1-8.2-2.3-12.1c-0.8-1.4,0-5.6,3.5-6.4c4.9-1.6,5.6-6.5,4.6-9.5c-3-8.2,1.4-16-0.3-23.8l0.2,0.1
		c-0.8-2.9-1.4-5.8-0.2-8.8c2.7-0.9,4.9-1.9,3.5-5.9c-0.8-2.2-1.6-4.1-2.5-6.1c2.1-6.6,2.3-14.5,6.5-19.3c3.9-4.6,6.8-9.3,9.5-14.2
		c2-0.8,2.1-2.2,1.5-4.1c3-6.6,0-13.3,0.2-20c1.4-1.3,2-2.5-0.4-3.3c2.5-10.4,2.5-21.3,2.8-31.6c0.3-8.1,2.2-15.6,3.4-23.4
		c1.1-5.9-0.7-11.8-0.8-17.7c-0.6-12.8,0.6-25.5,1.5-38.3c0.1-2.6,1.1-5-0.7-7.7c-0.7-0.9-1.2-3.8,1.4-4.6c2.1-0.6,3,1.4,3.3,2.7
		c3,13.8,13.9,16,25.1,16.7c4,0.3,9.8-1.1,10.3-6.5c0.8-8.7,8.9-11.5,12.6-18.1c1.7-3.1,4.6-6.3,6.1-9.5c2.4-5.3,6.8-9.3,8.9-14.7
		c4.1-10.1,3.2-19.6-2.3-28.3c-2.8-4.3-1.8-8.1-1.1-12.2c2.2-9.3,1.5-10.9-7.1-14.6c-1.5-0.7-2.7-1.3-2-2.8c3.5-8.1,1.5-18,8.6-24.7
		c3.8-0.5,3,2.1,3.1,4.1c-2.4,10.1-0.1,16.7,10,19.1c1.1,0.3,2.5,0.5,3.2,1.2c1.5,1.4-1.8,6.5,3.3,4.9c3.5-1.1,7-3.1,8.8-7.2
		c3.5-8.1,9.2-14.8,15.8-22c3,6,3.2,12.4,2.2,17.9c-1.5,8.7-1.9,17.8-10.6,24.1c-4,2.9-5.8,9.3-6.3,14.8c-0.6,8.8-3.5,16.6-8.1,23.9
		c-2.4,3.9-6.2,6.1-7.6,11.2c-2.5,8.7-1.3,16.6,1.5,24.7c1.2,3.3,0,7.8-2.5,8.7c-6,2.2-7.5,7.6-8.4,12.4c-1.7,7-7.2,11.6-9.4,17.7
		c-3.8,10.7-6.5,21.7-10.5,32.3c-1.5,4.1,2,6.9,0.9,10.4c-1.7,5.5-3.7,11-7.9,15.2c-6.1,6.3-7.3,13.5-5.8,22.4
		c1,5.4,1.7,10.9,4.3,15.9c0.7,1.7,0.3,3-1,4c-0.3,0.9-1.1,2.1-0.8,2.4C3629.8,924,3624.9,929.6,3623.9,935.1z"/>
	<path class="st5" d="M3717,640.2c-1.6,6-8.1,5-12.1,6.9c-3.1,1.5-4-5.8-5.9-9.1c-7.3-11.7-7.6-26.1-14.5-38.2
		c-6.5-11-13.5-21.2-25.3-27c-1.7-0.8-4-1.2-3.8-3.4c0.5-5.4-4-5.8-7-7.8c-1.3-2.1-3.1-2.6-5.3-1.6c-7.4,2.1-13.5,6.9-21.1,10.2
		c0.3-5.7,3.3-9.1,7.1-11.8c5-3.8,7.6-11.2,5.1-16.6c-0.2-0.3-1-0.8-1-0.8c4.1-11.6-4.2-11.5-11.7-12.1c-0.2-0.1-0.5-0.6-1.2-1.6
		c4.1-0.7,7.6-2,10.7-4.2c2.1-1.3,4.2-0.2,6.3-0.7c1.6,0.3,3.7,1.4,4.6,0.7c7.7-6.1,16-3.3,22.3,0.6c8.1,5.2,14.6,1.4,20.3-1.4
		c9.1-4.4,18.1-9.9,20.5-21.5c0.9-4.6,5.3-4.6,8.4-1.3c5.6,6.1,11.9,11.7,17.5,17.8c3.4,3.7,6.9,7.5,9,12.5
		c1.7,3.9,13.3,7.8,16.4,4.9c3-2.7,7.1-1.9,10-4.9c2.2-2.5,5.6-0.2,5.2,2.6c-0.3,3.3,2.1,4.8,2.8,7.4c1,3.7,7,4.1,9.6,1
		c7.7-8.5,7.8-8.7-3.3-13.6c-3.4-1.5-2.7-4.7-3.7-6.7c-2-3.8-6-6.5-6.6-10.8c-0.5-1.6-0.3-3,1.5-3.9c3.4-0.9,6,0.2,8.8,2
		c5.6,3.9,9.9,2.6,13.2-3.4c2.4-3.9,6.8-2.5,9.9-3.9c2.2-1,2.7,3.7,3.9,6.1c0.8,2.2-0.2,3.8-1.6,5.3c-0.4,0.6-0.6,1.3-1.1,1.9
		c-7.7,10-8,12.5-0.6,22.1c1.7,2.2,1.9,4.7,0.2,4.9c-5,1.3-5.1,5.4-6.2,9c-2,6.4-8.5,4.1-12.6,5.5c-7.9,2.9-10.6,4.5-9,12.5
		c0.7,4.1-1.4,5.4-4,6.7c-3.4,1.6-4.2-1.3-5.3-3.8c-3.2-6.8-16-11-20.7-6.7c-1.9,1.6-2.9,3.2-2.1,5.9c2,8.4-0.8,13.3-8.8,15
		c-4.4,0.8-5,4.3-5.9,7.4c-1.9,5.2-3.4,10.1-8.1,14.4c-3.3,2.8-5.8,9.3-3.6,15.6c1.1,3.5,0.3,7.6,0.3,11.5
		C3719.4,637.1,3718.8,638.9,3717,640.2z"/>
	<path class="st5" d="M4564.8,62.6c-2.5,4.3-4.9,8.9-6.2,13.8c-1.3,5.9-7.3,8.6-11,12.1c-7.3,7.2-16.3,12.8-23.4,20.1
		c-6.4,6.7-13.8,5.4-20.3,8.5c-2.2,1-5.6,0.9-5.7-1.8c-0.2-3.9-3.2-4.4-5-6.4c-2.3-2.7-4.8-4.9,0.9-6.7c2.4-0.7,3.9-3.2,4-5.8
		c-0.1-3.7,1.1-6.7,3.6-9.3c8.8-9.6,14.3-21.7,21.1-32.7c4.2-6.4,9.9-12.4,17.5-15.9c4.8-2.1,6.6-7.9,8.1-13c0.8-2.4,1.1-5,4.7-5.8
		c4.2-0.9,5.9,0.4,4.5,4.3c-1.6,4.3-1.5,8,1.8,11.4c5.3,5.5,3.8,12.6,5.2,19.3c0.3,1.3,0.9,2.5,1.5,3.8
		C4566.5,60,4566.1,61.3,4564.8,62.6z"/>
	<path class="st5" d="M4927.3,40.1c-0.9,11.4-11.9,9.4-18.6,13.1c-0.3,0.2-0.4-0.1-0.7,0c-4.7,4.1-10.4,4.5-16,5.4
		c-2,0.3-3.7,1-5.7-0.3c-4.6-3.1-9.9-3.3-15.1-3.5c-2.2,0-4.5,1.3-6-1.9c-0.3-0.6-2.5-1.3-3.1-1c-9.1,8.1-5.7-7.3-11.2-5.9
		c0.3-4.8,1.2-9.3,4.6-12.6c1.7-1.6,4.7-1.9,7.1-3.4c4.8-2.9,7.4-6.7,8.9-11.5c1.5-4.9,4.4-7.8,9.4-7c2.8,0.4,5.6-1.7,6-2.2
		c4-6.7,12.8,0.8,16.8-5.9c0.1-0.2,2-0.1,2.6,0.3c7.2,4.9,15.2,8.6,21.4,14.6c4.9,4.7,1.7,10.2,1.6,15.3
		C4929,36,4927.9,37.9,4927.3,40.1z"/>
	<path class="st5" d="M4090.8,309.8c-4.4,1-8.8,2.6-13.2,0.5c-0.4-1.1-0.3-2,0.2-2.9c0.6-1,1.5-1.7,2.2-2.5c1.2-1.6,5.7-2.8,2.6-5.2
		c-2.5-2-6.9-3.6-9.6,0.6c-2,3.3-4.3,5.9-8.5,5.6c-5.2-1.1-11,0.4-15.6-3.4c-6.2-7.3-7.2-7.3-14.7-0.9c-2.2,1.7-4.7,2.7-7.5,3
		c-1.4-0.9-3-1.9-4.4-2.8c4.5-2.7,5.5-8.5,10-11.2c1.9,1.6,5.3-3,6.5,1.8c3.3-1.4,4.5-5.1,3.4-6.9c-4.8-8,3.5-8.8,6.3-9.4
		c6.1-1.7,10.4-4.5,13-10c1.3-2.7,3.6-2.3,3.8-0.5c2.5,13.1,11.1,12.6,20.9,9.9c1.6-0.5,2.4-2.2,3.6-3c1-2.6,2.3-5.1,5.4-5.6
		c2.8-0.3,3.9-2.4,4.7-4.3c1-2.4,2-4.7,4.8-2.9c2.2,1.4,7.8-1,5.7,5.2c8.6,5.8-0.1,15,4,21.3c0.4,1.1,3.4,0.6,2,3
		c-5-0.3-8.6,3.4-13.6,4c-3.8,0.5-3.1,6.1-5,9.1c-2.1,1.3-4.1,2.1-6.2,2.9C4087.3,306.3,4088.7,308.2,4090.8,309.8z"/>
	<path class="st8" d="M3533.9,588.9c-0.4-1.8,2.5-4.3-0.3-5.4c-2.4-1-4.7-2.9-8.3-0.6c-3.7,2.5-7.1,5.6-11.9,6.5
		c-1.8,0.2-3.5,1.8-4.7,0.5c-1.8-2-1.3-4.5-0.1-6.8c0.8-1.7,0.9-3.6,3.4-3.3c8.8,0.6,17.3-1.2,25.2-5.5c0.3-0.2,0.9-0.5,1.3-0.3
		c7.7,2.4,13.3-3.1,19.5-5.8c6.4-2.6,11.8-7.5,19.4-8.5c1,0.6,0.3,2.3-0.3,2.6c-6.5,3.8-8.5,13.3-17.9,13.1c-1.2,0.1-2.2,0-2.6,1.4
		c-2.2,5.4-7.9,6-12,7.4s-3.9,4.1-5.4,6.5C3536.7,591.5,3534.9,590.9,3533.9,588.9z"/>
	<path class="st8" d="M3267.3,721.3c0.3,2.8-2.1,5.2-1.3,8.1c0.3,1.5-1,3.3-2.1,2.7c-4.9-2.2-8.2,3-12.9,1.8c-3.8-1.2-4.6,3.2-6,5.4
		c-3.3,5-6.6,8.1-13.2,5.8c-1.5-0.5-3.4-0.8-4.5,0.5c-2,2.5-4.6,1.5-5.8,0.1c-1.4-1.7,0-3.9,1.3-5.7c1.3-2,2.4-5.3,5.6-3.3
		c3.5,2,4.1,0.1,6.7-2c6-4.4,8.5-14.8,19.3-12.2c4.3,1.1,6.1-4.1,9.8-5.2C3264.9,718.9,3266.6,719.7,3267.3,721.3z"/>
	<path class="st9" d="M3628.3,546.1c0.6,6.5-5.6,6.3-8.7,8.4c-6.1,3.9-12.7,7.4-17.4,13c-3,3.4-4.7,4.3-8,0.9
		c-0.4-0.4-0.8-0.5-0.9-1c-1.4-2.4-7.4-0.4-6-4.8c1-3.3,5.9-3.3,8.5-3.2c6.8-0.1,12.5-1.9,16.2-7.6c2-3.3,5.7-1.1,7.3-4
		C3621.7,543.8,3624.6,542.3,3628.3,546.1z"/>
	<path class="st10" d="M3491.4,585.2c-9.2,8.5-20.8,12.4-31.8,17.3c-2,1.1-4.9,0.9-5.7-1.8s1.7-3.1,3.3-4.3
		c7.3-4.8,14.9-8.2,23.1-11.2C3485.5,583.1,3485.3,582.3,3491.4,585.2z"/>
	<path class="st11" d="M4282.7,330.7c2.6,1,4.7,1.2,6,2.4c2.1,1.9,5.6,3.2-0.3,6.4c-5.9,3.3-10.7,1.8-16.1,1.1
		c-2.6-0.3-6.6-0.6-6.2-5.1c0.6-4.4,4-6,7.9-6C4277.2,329.7,4280.7,329.3,4282.7,330.7z"/>
	<path class="st12" d="M4295.4,107.3c-2.2-2.1-1-5.4,0.3-5.7c2.9-0.8,4.3-3.7,6.9-3.7c5.8-0.1,9.6-3.6,11.8-8.2
		c1.3-2.7,2.8-2.8,4.7-1.9c3.2,1.5,0.9,3.4,0.2,4.9c-1.9,5.5-9.8,5.9-10.2,12.6c-0.1,0.2-1.2,0.8-1.7,0.7c-3.9-2.2-7.7-2.6-10.8,1.2
		C4296.6,107.4,4295.9,107.4,4295.4,107.3z"/>
	<path class="st13" d="M3789.6,489.9c0.6-3.4,1.3-6.6-4.3-4.2c-3,1.2-7.1,0.9-9.5-0.8c-1.6-1,0.3-5,1.8-6.7c1.7-1.6,5-3.5,6.6-1.1
		c4.3,6.4,6.3,1.5,9.2-1.5c-2,4.7,1.4,9.4-0.9,13.8C3791.6,489.5,3790.6,489.7,3789.6,489.9z"/>
	<path class="st14" d="M3895.8,396.5c-1.4,4.6-5.8,4.7-9.4,6.8c-0.7-3.9,4.7-8-0.5-11.5c2.3-1.9,4.4-4.2,7.1-5.8
		c1.2-0.8,4.3-0.6,5,0.3c1.6,1.9-1.5,3.9-1.1,5.9C3897.6,394.1,3897.1,395.4,3895.8,396.5z"/>
	<path class="st15" d="M4091.2,304.6c1.9-1.6,3.3-4.5,6.5-2.3c4.7,2.2,7.5-5.4,12.2-2c-0.8,1-3.8,1.2-2.7,2.5c4,4.4-0.2,7-1.7,11.1
		c-1.3-4.3-3.3-6.4-7.7-5.8c-2.3,0.5-5-0.1-7.1-2c-0.4-0.4-0.2-0.8-0.2-1C4090.9,304.8,4091,304.5,4091.2,304.6z"/>
	<path class="st16" d="M4256.7,143.2c-1.9,1.6-3.1,3.9-6.4,3.6c-2.9-0.2-5.8,0.1-8.5,1c-1.3,0.3-2.4,1.4-3.3-0.3
		c-0.5-1.4-0.3-3,1.1-3.5c4.2-1.1,7.8-3.4,11.1-6.2c1.4-1.3,3.6-1.3,5.2-0.3C4258.5,138.9,4254.9,141.1,4256.7,143.2z"/>
	<path class="st17" d="M4031.7,290.5c-2.2,4.7-3.1,10.7-10,11.2c-2.1,0.6-5,2.1-6.2-0.2c-1.4-2.6,1.6-6,3.1-6.1
		c7.9-0.5,7.7-6.8,9.5-11.8c0.3-1.1,1.3-1.8,2-2.5C4030.5,284.1,4025.1,288.4,4031.7,290.5z"/>
	<path class="st18" d="M3293.7,691.5c3.5,0.4,3.1,3.4,1.3,5.2c-2.6,2.8-5.6,5.5-7.8,8.7c-0.9,1.4-2.3,1.2-3.7,0.3
		c-1.4-0.9-1.4-2.6-0.6-3.6c2.3-2.7,3.3-6,4.3-9.3C3288.4,689.9,3291,690.9,3293.7,691.5z"/>
	<path class="st19" d="M4194.8,341.4c-3.5,2.6-3.9,7-5.7,10.6c-1.8,3.5-4.1,4.5-7.3,2.6c-0.7-1.7-0.3-3,0.8-4.1
		c3.3-4.3,5.2-9.8,10.1-13.1c1.2-0.8,1.9-0.6,3-0.3C4196.6,338.8,4196.2,340.1,4194.8,341.4z"/>
	<path class="st20" d="M3411.4,613.6c-1,4-5.7,3.6-8.2,4.5c-3.7,1-6.5,2.3-8.7,5.5c-1.3,2-3.3,2.1-4.5,0.3c-1.4-1.7,0.2-2.9,1.7-3.8
		c5.1-3,9-7.9,15.7-7.7C3408.9,611.6,3410.2,612,3411.4,613.6z"/>
	<path class="st21" d="M4173.4,277.8c2.3-1.2,3.7-4.2,7.1-3.4c-0.3,0.9-0.5,1.5-0.8,2.4c-3.6,2.3-4.1,5.5-2.9,9.3
		c0.6,0.4,0.6,1.2,0.7,1.7c0.6,1.9,3.1,3.4,1.3,6c-0.7,0.7-1.6,1.2-2.4,0.7c-1.9-1.1-3.6-2.3-3.5-5.2c0-2.4-0.4-5-0.7-7.2
		C4172.4,280.4,4172.8,279.1,4173.4,277.8z"/>
	<path class="st22" d="M4189.6,226.5c-2.3-1.2-5.4-1.4-6.9,0.3c-1.8,1.9,1.7,3.2,2.1,5c0.3,2,2.6,4-0.2,6c-2.1,0.6-4.2,0.9-4.9-2
		c-0.7-4.1-0.2-8,2.8-11.2c1.4-1.5,2.4-2.9,0.5-4.7C4189.1,218.1,4186,225.6,4189.6,226.5z"/>
	<path class="st19" d="M4191.2,197.9c1.1-3.5,4-2.9,6.3-2.4c3.2,0.5,5.9,2.8,5.2,6c-0.5,2.3-4,2.9-6.4,1.9
		C4194,202.2,4190.9,201.4,4191.2,197.9z"/>
	<path class="st23" d="M4176.8,205.5c0-3.9,4.4-4.9,6.8-7.8c0.8-1,1.7-0.9,2.2,0c0.3,0.6,0.4,1.8,0,2.4c-2.2,3.2-4.4,6.4-6,10
		c-0.8,1.9-2.3,1.2-3.5,0.4C4174.4,209.1,4176.1,207.7,4176.8,205.5z"/>
	<path class="st24" d="M3584.6,535.6c1.9-2.3,4.9-1.9,7.7-1.5c1.9,0.1,2.9,1.6,2,3.5c-1.7,4.6-5.6,1.7-8.4,2
		C3583.9,540,3583.9,537.8,3584.6,535.6z"/>
	<path class="st25" d="M4269.7,132.2c-1,0.9-0.1,4.3-3.2,2.6c-2.3-1.2-2.5-3.7-1.7-6.1c0.5-1.8,1.2-4,3.7-2.7
		C4271.5,127.4,4270.7,129.8,4269.7,132.2z"/>
	<path class="st26" d="M3244.5,752.5c0.5-2.3,1.6-2.9,3.8-2.2c3.2,0.7,2.2,3.1,2.1,5c0,1.7-1.9,3.8-3.4,3.1
		C3245,757.1,3244,755,3244.5,752.5z"/>
	<path class="st27" d="M4208.3,297.4c3.2,1.5,3.1-2.9,5.3-3c1.6-0.5,3.3-0.4,5.1-0.1c0.2,0.3,0.4,0.4,0.5,0.6
		c-1.4,4.6-7.1,4.8-9.4,8.5C4208.9,301.5,4207,299.9,4208.3,297.4z"/>
	<path class="st28" d="M4053.2,374.7c0.9-2.9,2-4,4.2-3.5c2.3,0.5,2.5,2,2.4,4.1c-0.4,2.8-2.3,3.4-4.3,2.8
		C4053.3,377.6,4053.2,375.6,4053.2,374.7z"/>
	<path class="st16" d="M3724.6,639c1-1.6,1.9-3,3.9-2.4c2.4,0.8,3.2,2.2,2.4,4.6c-0.5,1.8-1.4,3-3.4,2.3
		C3725.4,642.8,3725,640.8,3724.6,639z"/>
	<path class="st29" d="M4398.1,69.9c-0.1-2-3.5-5,0.6-5.9c4.2-0.9,3.5,3.5,4.7,5.8C4401.8,71.1,4400.1,72.7,4398.1,69.9z"/>
	<path class="st30" d="M4431.1,67.3c0.1-3.4,1.8-4.3,5-3.8c1.8,0.3,2.4,1.7,2,2.8c-1,3.1-3.4,3.1-6,2.2
		C4431.2,68.5,4430.9,68,4431.1,67.3z"/>
	<path class="st31" d="M4450.9,68.1c-2.9,0.1-4.9,5-8,0.9c-1.1-1.3-1-3.7,0.4-4.5C4447,62.8,4448.3,66.4,4450.9,68.1z"/>
	<path class="st32" d="M3880.4,287.1c1.8-5.7,3.6-11.5,5.4-17.2c1.8,0.5,4.4,2.1,2.6,3.5C3883.4,276.8,3884.5,283.5,3880.4,287.1z"
		/>
	<path class="st32" d="M3880.9,290.4c-1.6,2.7-4.5,3.7-6.8,5.6c-1.4-5.8-1.2-6.2,5.8-7.7C3880.1,288.9,3880.6,289.6,3880.9,290.4z"
		/>
	<path class="st33" d="M3811.6,536.7c0.9-2.1,2.6-3.8,4.8-3.1c2.2,0.7,0.9,2.7,0.7,4.1c-0.3,2.6-2,2.5-4,1.9
		C3811.7,538.9,3810.6,538.3,3811.6,536.7z"/>
	<path class="st5" d="M4224.3,296.3c-1.8-0.3-3.9,0.2-5.4-1.4l0.2,0.1c-0.8-2.2,0.2-3.8,1.4-5.4c1.8,0.5,3.8,0.2,5.5,1.7
		C4226.9,293.5,4226.6,295.3,4224.3,296.3z"/>
	<path class="st34" d="M4184.2,324.1c-1.5-0.7-2.6-1.8-2.2-3.8c0.7-2.2,2.1-2.2,3.7-1.8c1.5,0.5,2.2,1.4,1.7,3.2
		C4187.3,323.6,4186.2,324.7,4184.2,324.1z"/>
	<path class="st35" d="M4112.8,437.7c1.5,0.7,2.1,1.9,1.4,3.3c-0.8,1.7-2.5,1.9-4,1.2c-1.3-0.6-1.4-1.7-1.1-2.8
		C4109.8,437.5,4111.3,437.3,4112.8,437.7z"/>
	<path class="st36" d="M3298.5,686.3c0.4-1.3,0.8-2.7,2.8-1.3c1,0.8,2.9,0.7,2.5,2.7c-0.4,2.1-2.1,2-3.9,1.7
		C3298.1,689,3297.8,687.7,3298.5,686.3z"/>
	<path class="st37" d="M3317,678.9c-0.8,1.7-0.7,3.9-3.5,2.8c-1.3-0.4-1.8-1.3-1.4-2.6c0.7-3.2,2.9-3,5.3-2.2
		C3317.9,677.7,3317.9,678.5,3317,678.9z"/>
	<path class="st30" d="M3348.1,652.8c0.5-1.8,1.8-1.9,3.1-1.5c1.5,0.5,2.2,1.6,1.7,3s-1.7,1.4-2.8,1.1
		C3349.1,655.2,3347.8,654.6,3348.1,652.8z"/>
	<path class="st38" d="M3360.8,638.5c3.1,1,2.7,2.1,2.4,3.2c-0.5,1.8-1.8,1.9-3.2,1.7s-1.8-1.3-1.4-2.4
		C3359.4,639.1,3360.6,638.5,3360.8,638.5z"/>
	<path class="st39" d="M4065.2,373.5c-2-0.6-4.5-1.2-3.7-3.6c1.1-2.8,3.4-1.6,5.4-0.3C4067.4,371.3,4067,372.6,4065.2,373.5z"/>
	<path class="st40" d="M3732.6,645.3c0.7,3.1,1.1,5.9-1.7,7.9c-0.3,0.2-1.5-0.5-1.5-0.7C3728.6,649.4,3730.3,647.3,3732.6,645.3z"/>
	<path class="st41" d="M4118,302.8c-2.7-0.8-5.3-1.6-8-2.5C4112.6,296.7,4112.6,296.7,4118,302.8z"/>
	<path class="st42" d="M3292,718.9c-1.7-0.8-1.5-2.2-0.9-3.4c0.7-1.5,1.9-2.1,3.3-1.2c1.3,0.6,1.1,1.8,0.5,3.1
		C3294.6,718.4,3293.7,719.6,3292,718.9z"/>
	<path class="st21" d="M3628.3,546.1c-3.6-3.1-6.2-0.2-9,1.8C3622.3,541.1,3623.4,540.9,3628.3,546.1z"/>
	<path class="st43" d="M3380.8,631.7c-1.5-0.7-2.2-1.6-1.7-3.2c0.5-1.5,1.6-1.2,2.5-1.1c2.1,0.2,1.4,1.7,1.2,3
		C3382.9,631.3,3382.2,632.1,3380.8,631.7z"/>
	<path class="st44" d="M4785.4,80.3c1.6,1,4,0.3,5.3,2.4c-1.7,3.1-3.8,0.5-5.8,0.6c-1.5-0.5-2.5-1.3-2.7-3
		C4783.4,78.9,4784.5,78.6,4785.4,80.3z"/>
	<path class="st22" d="M4220.8,289.7c-0.5,1.8-1.1,3.5-1.4,5.4c-2,0.8-4,0.4-5.6-0.5C4215.9,293,4218.4,291.3,4220.8,289.7z"/>
	<path class="st43" d="M4782.5,80.6c1.3,0.6,2.3,1.2,2.5,2.7c-0.2,2.1-1.5,2.4-3.2,1.7c-2.7-1.3-0.6-2.8-0.4-4.2
		C4781.7,79.9,4782.2,80,4782.5,80.6z"/>
	<path class="st45" d="M4205.1,250.6c0.6-1,1.5-1.7,2.6-1.4c1.1,0.3,1.7,1.5,1.4,2.6c-0.3,1.1-1.5,1.7-2.6,1.4
		C4205.2,252.8,4204.8,251.7,4205.1,250.6z"/>
	<path class="st46" d="M3897.7,267.5c0.4-1.3,1.7-0.7,2.6-0.4c1.5,0.5,1.9,1.8,1.5,3.1c-0.4,1.3-1.4,1.5-2.7,0.9
		C3897.2,270.5,3897.4,269.1,3897.7,267.5z"/>
	<path class="st47" d="M3973.3,299.9c-3.9,0.7-3.9,0.7-2.5-5.1C3973.7,295.5,3972.4,298.2,3973.3,299.9z"/>
	<path class="st48" d="M4278.9,120.8c0.5-1.8,2.1-1.3,3.3-1.4c1.4,0.2,1.1,1.1,1.1,2c-0.5,1.5-1.4,2.2-3,2
		C4278.6,123.1,4278.5,122.1,4278.9,120.8z"/>
	<path class="st38" d="M4198.7,254.2c0.5-1.5,1.4-1.5,2.6-1.4c0.9,0.3,1.7,0.8,1.4,1.9c-0.3,1.1-0.9,2.1-2.3,1.9
		C4199.2,256.3,4198.5,255.4,4198.7,254.2z"/>
	<path class="st7" d="M4270.1,360.2c-1.3,1.1-2.6,2.1-3.9,3.2c-0.9-1-2.2-2.1-1.1-3.5C4266.6,358.1,4268.5,359.9,4270.1,360.2z"/>
	<path class="st49" d="M3717,640.2c0.5-1.8,1.1-3.5,1.6-5.3C3721.6,637.8,3721.1,639.5,3717,640.2z"/>
	<path class="st50" d="M3608.4,530.7c0.4-1.3,0.8-2.4,2.3-1.9s1.5,1.4,1.1,2.5c-0.6,1-0.9,2.9-2.6,2.1
		C3607.6,533.1,3608.3,531.6,3608.4,530.7z"/>
	<path class="st21" d="M4398.1,69.9c1.8,1.3,3.7,0.4,5.3,0c-1,1.6-1.9,3.8-4.4,3.2C4397.6,72.9,4397.7,71.2,4398.1,69.9z"/>
	<path class="st51" d="M4326,95.4c1.4-1.3,2.3-2.7,4.2-1.8c0.2,0.1,0.3,1.3,0,1.7C4328.9,97.1,4327.6,96.4,4326,95.4z"/>
	<path class="st52" d="M4208.3,297.4c0.6,2.1,2.3,3.6,1.5,6C4207.8,301.9,4204.1,300.7,4208.3,297.4z"/>
	<path class="st53" d="M3916.3,279.3c0.8-1.7-0.1-4.4,2.8-5C3920.3,277.2,3920.1,279.3,3916.3,279.3z"/>
	<path class="st54" d="M3806.1,512.4c0.5-1.8,1.1-3.5,1.6-5.3C3811.6,510.3,3809,511.4,3806.1,512.4z"/>
	<path class="st55" d="M3947.7,280.1c-1.8-0.5-3.5-1.1-5.6-1.5C3944.7,277.3,3947.4,274.9,3947.7,280.1z"/>
	<path class="st56" d="M4530,14.7c0.3-0.9,1-1.6,2-1.1c0.6,0.4,1,1.5,1,2.2c0.1,1.2-0.9,1.2-2,0.8
		C4530.2,16.5,4529.9,15.9,4530,14.7z"/>
	<path class="st57" d="M3861.3,400.3c0.8-0.2,1.4-0.8,1.9-0.6c0.9,0.3,1.6,1,0.9,1.7c-0.1,0.4-1.1,0.4-1.8,0.2
		C3862,401.7,3861.8,400.9,3861.3,400.3z"/>
	<path class="st47" d="M3895.8,396.5c0.4-1.3,0.6-2.7,1-4c1,0.6,2.1,0.9,2.2,2.4C3898.7,396.6,3897.2,396.7,3895.8,396.5z"/>
	<path class="st58" d="M4089.5,272.1c-0.4,2.1-0.2,4.5-3.6,3C4086.4,273.3,4087,271.6,4089.5,272.1z"/>
	<path class="st59" d="M4182.8,350.5c-0.2,1.4-0.6,2.7-0.8,4.1c-1.3-0.4-2.5-1.3-1.7-3C4180.5,350.3,4181.6,350.4,4182.8,350.5z"/>
	<path class="st60" d="M3997.5,269.7c-0.9,1.4-0.6,4.4-3.7,3.4C3994.1,271.3,3994.3,268.9,3997.5,269.7z"/>
	<path class="st61" d="M4310.4,370.8c0.6-0.5,1.1-1.1,1.6-1.2c1.2,0.1,1.3,1.1,0.8,2c-0.1,0.4-1,0.9-1.4,0.8
		C4311,372.2,4310.7,371.4,4310.4,370.8z"/>
	<path class="st62" d="M4230.5,139.2c0.5-1.5,1.6-1.2,2.2-1c0.4,0.1,1.3,0.6,1.1,1.1c0,0.7-0.3,1.8-1.6,1.2
		C4231.7,140.2,4231.1,139.6,4230.5,139.2z"/>
	<path class="st63" d="M3902.1,244.6c0.8-1,0.9-2.1,2.1-1.3c0.4,0.4,0.4,1.1,0.4,1.8c-0.3,0.9-1,1.6-1.9,1.4
		C3902.1,246.1,3902.2,244.9,3902.1,244.6z"/>
	<path class="st24" d="M4262.1,361.8c-1.3-0.4-2.4-0.8-3.8-1.2c0.5-1.5,1.2-2.3,2.9-1.5C4263,359.7,4262.4,360.7,4262.1,361.8z"/>
	<path class="st64" d="M3987.1,331.8c0.4-3.5,2.8-2,4.6-1.7C3990.9,332.8,3989.1,332.5,3987.1,331.8z"/>
	<path class="st65" d="M4564.8,62.6c0.4-1.3,0.6-2.7,1-4c1.3,0.6,2.5,1.3,1.7,3C4566.9,62.8,4565.9,62.7,4564.8,62.6z"/>
	<path class="st66" d="M3317,678.9c0.2-0.7,0.2-1.4,0.4-2.1c0.6-1,1.1-1.9,1.6-2.9c0.4,0.4,1.3,0.6,1.3,1.1
		C3320.6,677.6,3318.5,678.2,3317,678.9z"/>
	<path class="st67" d="M3438.8,608c1.1,0.3,1.4,0.9,1.3,2.1c-0.1,1-0.5,1.8-1.7,1.6c-1-0.1-1.7-0.8-1.4-1.9
		C3437.4,608.8,3437.8,608.2,3438.8,608z"/>
	<path class="st68" d="M3715.4,681.9c0.2,0.8,0.8,1.4,0.6,2.1c-0.3,0.9-0.8,1.7-1.8,1.1c-0.4-0.1-0.3-1.3-0.2-1.8
		C3714.1,682.9,3714.7,682.6,3715.4,681.9z"/>
	<path class="st69" d="M3829.3,337.8c-0.4,2.1-0.8,4.1-3.7,3.4C3826,339.2,3826.4,337.1,3829.3,337.8z"/>
	<path class="st70" d="M3905.1,365.9c0.8-3.4,2.8-2,4.7-1.2C3908.9,367.1,3907,366.8,3905.1,365.9z"/>
	<path class="st71" d="M3771.7,506.1c-0.4,1.3-1,2.6-1.5,3.9c-1-0.6-2.1-1.1-1.9-2.5C3768.9,505.7,3770.3,505.9,3771.7,506.1z"/>
	<path class="st47" d="M3772.7,413.4c-0.4,1.3-0.8,2.7-1.2,4c-1-0.6-2.1-1.1-1.7-2.5C3770,413.3,3771.1,412.9,3772.7,413.4z"/>
	<path class="st72" d="M4227.9,182.9c0.5,0.6,0.9,1,1.5,1.4c-0.6,0.3-1,0.9-1.5,1s-0.7-0.7-1.3-1.1
		C4226.9,183.6,4227.5,183.3,4227.9,182.9z"/>
	<path class="st73" d="M3906,211c-1-0.6-1.9-0.8-1.6-1.9c0.3-1.1,1.1-1.3,2-0.8c0.6,0.4,1.3,1.4,1.3,2.1
		C3907.8,211.5,3906.4,210.6,3906,211z"/>
	<path class="st74" d="M4116.2,288.9c-0.7-0.9-1.3-2.1-2-3c1.3,0.4,3.4-0.9,4,1.2C4118.5,288.4,4117.5,289.3,4116.2,288.9z"/>
	<path class="st75" d="M4065.2,373.5c0.6-1.3,1-2.6,1.7-3.8c1,0.6,2.1,1.1,1.4,2.4C4068,373.2,4066.5,373.4,4065.2,373.5z"/>
	<path class="st76" d="M4431.1,67.3c0.3,0.6,0.4,1.1,0.8,1.4c-0.7,0.7-1,3.3-2.7,1.6C4427.9,69,4430.3,68.3,4431.1,67.3z"/>
	<path class="st77" d="M3132.1,827.3c-1.8-0.5-1.9-1.6-1.5-3.1c0.4-1.3,1-2.6,2.7-1.8c1.5,0.7,2.2,1.6,1.7,3.2
		C3134.6,827.4,3133.7,827.8,3132.1,827.3z"/>
	<path class="st78" d="M4026.4,304.6c3-3.4,7.6-5.1,10.9-8.7c3-3.4,10.1,0.2,11.6,5.5c0.3,0.6,0.1,1.2-0.3,1.6
		c-2.7,1.6-1.8,3.5-0.7,5.4c-0.6,2.7-2.1,4.4-5,2.8c-2.5,0.9-4.4-3.8-7.2-1C4031.7,310.1,4029.3,306.9,4026.4,304.6z"/>
	<path class="st79" d="M4064.9,305.2c3.4-0.7,5.6-2.4,6.2-6.1c0.5-3,2.7-4.7,5.5-2.9c3.2,2.2,9-1.8,10.1,3.4
		c1.1,5.2-5.6,5.5-8.2,8.4c-1.3,1.1-3.1,0.5-4.5,1.3c-3.6,1.3-6.5-0.1-9.8-1.3C4063.7,306.7,4063.8,305.8,4064.9,305.2z"/>
	<path class="st80" d="M4064.9,305.2c-0.3,0.9-0.5,1.8-0.6,2.7c-2.2-0.7-4.4-1.4-6.6-2.1c-1.8,1.9-4,1.9-6.1,1
		c-2-0.6-3.3-1.8-3.1-4.1c0.1-0.4,0.5-0.8,0.6-1.3C4053.6,305,4059.5,303.7,4064.9,305.2z"/>
	<path class="st81" d="M4048.3,302.6c1.2,0.9,2.3,1.9,3.5,2.8c0.6,1.2,0.4,1.8-0.5,2.5c-1,0.2-2,0.3-3.1,0.5c-1.6-1.2-5-0.3-4.6-3.9
		C4043.6,301.9,4046.1,302.7,4048.3,302.6z"/>
	<path class="st82" d="M4035.7,310.4c3.7-8,5-0.4,7.2,1C4040.3,312.5,4038,311.3,4035.7,310.4z"/>
	<path class="st83" d="M4184.5,267c-2.1,2-4.8,0.7-4.8-0.8c-0.2-3.9,3.5-2.8,5.9-3.5C4186.3,264.4,4185.8,266,4184.5,267z"/>
	<path class="st84" d="M4091.2,304.6c-0.1,0.4-0.3,0.9-0.4,1.3c0.1,1.2-0.1,2.6,0,3.9c-2.1-0.2-4.5-0.4-3.8-3.4
		C4087.3,304.1,4089.4,304.3,4091.2,304.6z"/>
	<path class="st85" d="M4050.9,308.1c0.3-0.9,0.5-1.8,0.5-2.5c1.9,0.1,3.9,0,5.8,0.1C4056.6,310.1,4053.7,309.2,4050.9,308.1z"/>
	<path class="st86" d="M4190.1,288.8c0.9,3.2,1.3,5.2-1,7c-0.3,0.2-1.2-0.1-1.2-0.1C4187.1,293,4187.9,291.1,4190.1,288.8z"/>
	<path class="st87" d="M4173.4,277.8c1.4,1.9,0.9,3.2-1.2,4c-1.3-0.4-2.7-0.8-2-2.8C4170.9,277.3,4172.1,277.4,4173.4,277.8z"/>
	<path class="st37" d="M4179.7,235.7c1.7,0.8,3.2,1.2,4.9,2C4181.6,240.7,4179.8,240.1,4179.7,235.7z"/>
	<path class="st88" d="M4073.8,309.1c1-2.4,2.6-2.1,4.5-1.3c-0.3,0.9-0.5,1.8-0.8,2.7C4076.2,310.1,4074.9,309.5,4073.8,309.1z"/>
	<path class="st89" d="M4184.5,267c0.4-1.3,0.7-2.9,1.1-4.3c1.4,0.2,2.6,0.8,2.1,2.6C4187.2,266.9,4186.1,267.5,4184.5,267z"/>
	<path class="st60" d="M4180.1,243.1c-2.1-0.2-3.9,0.2-3.6-2.3c0.1-0.4,0.6-1,1-1.6C4178.3,240.4,4179.1,241.6,4180.1,243.1z"/>
	<path class="st90" d="M4177.6,287.9c-0.8-0.5-0.9-1-0.7-1.7c1,0.6,3.1-1.5,3.5,0.4C4180.9,288.7,4178.7,287.5,4177.6,287.9z"/>
</g>
</svg>
