<?xml version="1.0" encoding="utf-8"?>
<!-- Generator: Adobe Illustrator 27.0.1, SVG Export Plug-In . SVG Version: 6.00 Build 0)  -->
<svg version="1.1" id="layer" xmlns="http://www.w3.org/2000/svg" xmlns:xlink="http://www.w3.org/1999/xlink" x="0px" y="0px"
	 width="600px" height="200px" viewBox="0 0 3000 1000" style="enable-background:new 0 0 3000 1000;" xml:space="preserve">
<style type="text/css">
	.st0{fill:#B50000;}
	.st1{fill:#FFFFFF;}
	.st2{fill:#00740C;stroke:#FFFFFF;stroke-width:5;stroke-miterlimit:10;}
	.st3{fill:#FFFFFF;stroke:#B50000;stroke-width:5;stroke-miterlimit:10;}
</style>
<g id="background">
	<rect class="st0" width="3000" height="1000"/>
</g>
<g id="skeleton">
	<path class="st1" d="M528.3,574.4c-1.9-1-32.7-17.6-62.7-0.9c-22.5,12.5-28.9,34.9-30.1,39.3c13.8,14.7,19.3,26.9,16.4,36.7
		c-7.6,25.4-72.1,33.9-193.7,25.5c-19.6-19.6,6.4-43.3-3-59.2c-8.1-14,21.7-7.4,27.3-17.2c9.9-21.6-16.9-43.9-21.5-62.6
		c-49.6-21-15.7-38.3,4.7-66.3c16.8-33.9-8.8-54.1,12.2-84.9c27.3-49.9,40.2-116.6,89.4-156.9c108.6-80.9,285.9-119,400.3-31.5
		c118.3,76.3,158.6,279.6,80.9,382c-42.1,43.2-101.1,39.6-150.2,67.1c-24.6,8.9-38.6,42.9-58.6,18.4c-3.8-11.6-10.6-27.1-23.1-42.2
		C585.3,584.1,541.6,576.3,528.3,574.4z"/>
	<path class="st1" d="M573.2,655.7c11.1,91.3-16,118.9-101.1,146.7c-59,19-140.8,71.3-203.5,43c-46.7-35.4,12.8-75.3,6.7-104.5
		c11.7,0.5,24.1,0.3,37.1-0.7c61.7-5,110.6-27.7,143.6-47.7c-2-78.1,1.6-117.9,11-119.3c5.2-0.8,12.2,10.2,20.9,33
		c44.4,61.4,79.8-66.1,94.1-23.6C580.4,588.6,573.6,634.1,573.2,655.7z"/>
	<path class="st0" d="M558.5,585.9c-64.4,109.3-83.1-43.3-95.1-4.2c0.1,48.5,23.8,125-23.3,155c2.9-14.4,30-29.7,18.4-45.6
		c-4.9-10.2-9.9-20.4-14.8-30.6c13.2-16.4-7.1-41.3-18.1-54.5c-6.2,3-12.4,5.9-18.5,8.9c-12.9,0.9-23.7,7.4-37.9,6.3
		c-23.5-0.9-17.1-30.4-35.4-39c-5-6.4-34.9-22.2-22.9-28.2c10.1,14.4,29.5,23.3,40,38.7c1.1,10.9,7.5,19.8,16.2,22.4
		c5.2,1.6,10,0.5,12.6-0.4C456.7,603.9,462.7,520.8,558.5,585.9z"/>
	<path class="st0" d="M362.9,473c4.3,15.3,3.3,27,2.9,29.5c-3.6,26.6-24.4,52.8-37.4,50.2c-12.2-2.5-19.8-31.1-18.3-69.5
		c-3.4-15.1-15.6-37.8-11.8-53.2C305.5,390.4,358.5,457.4,362.9,473z"/>
	<path class="st0" d="M445.9,540.4c66.9-9,131.2,12.8,143.6,10.3c0.7-0.1,4-0.9,5.1,0.5c0.6,0.9,0.5,2.3-0.8,4.7
		c-62.2,14.3-124.8-22.7-185.2-1.7c-38,0.5-7.7-63.3-23.4-88c-21.3-49.2-38.7-82,11-120.6c1.7-1.3,5.5-2.6,6.5-1.5
		c2.8,3.1-20.3,18.9-28.9,41.1c-14.5,37.5,26.3,57.6,22.9,119.8c-0.9,15.4-4.1,27.9,3.9,35.7C409.2,549.1,422.4,543.5,445.9,540.4z"
		/>
	<path class="st2" d="M532.9,194.1c11,37.9-1.8,52,9.5,87.8c11,34.7,34.8,58.5,54,73.5c-8-53.3-4.5-112.2,21.3-161.3
		c3.5-8.8,13-7.8,9.3,2.6c10.1,35.8,32.3,70.3,38.3,109c21.1,58-7.8,120.2,30.5,171.4c0.7,16.8,21.8,91,22.9,55.8
		c-16.8-62.3-7.8-131.3,35.9-180.4c27.6-22.8,8.2,35.8,12.9,50.5c19.4,68.5,40.2,140.8,17.9,211.9c-2.2,15.9,4.6,41.8,24.2,39.9
		c-1.8-41.8-13.5-89.7,4.2-132.4c6.1-15.4,46.8-74.1,42.2-31.1c-2.1,32.6,19.4,59.5,31.5,87.1c7.6,99.9-44.4,191.8-25.1,291.3
		c8.5,69.7-15.3,8.3-23.4-17.3c-12.1-21.5-37.5-30.4-48.8-53.1c-14.4-34.6-48.2-25.4-78.6-24.1C695.7,764,610.5,765,654.7,742
		c97.4-86.8,185.5-34,106.9-100.5c-35-9.4-72.3,8.1-108.6,2.8c-32.3-13.4-68.3-32.3-99-1.8c-38,26.4,5.7-76,25.5-78.7
		c45.1-28.6,94.3-9.5,134.3,14.4c-4-7.1-27.4-16.6-14.8-26c14-14.6-60-38.8-71.1-57.9c-83.5,2.7-139.7-62.5-183.8-126.7
		c-14.8-36.3,93.2,15.5,89.6-3.4c-13.7-21.9,19.5-4.7,25.5-12.1c-2.9-6-7.9-14.7-16.4-23c-27.2-26.2-57.1-15.5-101.9-26.7
		c-61.2-15.3-66.6-46.3-114.1-51.2c-16.8-1.7-36.6,3-63.2,19.6c-28.6,13.1-83.8,19.4-106.5-3c13.9-8.7,89.9-66.8,60.8-81.5
		c-28.4-20.9-50.8-50.8-67.9-80.8c7.8-8.5,26.4,8.4,38.8,2.7c42.3,4,88.2-4.6,125.8,19.5c10,1.5,47.5,35.8,43.9,11.4
		c-17.3-79.9,34.2-7.8,75.8,0.3c16.2,3.7,37.8,36.9,26.4-32.5C473.7,100.8,517.7,142.1,532.9,194.1z"/>
	<g id="tooth">
		<path class="st3" d="M441.4,707.9c-14.3,13.2-34.1-5.5-22.8-20.8C440.3,682.5,476,681.3,441.4,707.9z"/>
		<path class="st3" d="M415.2,720.4c-17,17-35.1-19.9-12.9-23.5C416.8,687.8,428.2,712.6,415.2,720.4z"/>
		<path class="st3" d="M377.1,700.9c36-16.9,9.9,54-9.6,21.4C363.4,709.9,364.7,703.6,377.1,700.9z"/>
		<path class="st3" d="M358,706.8c1.1,0.3,1.9,0.7,2.6,1.1c5,3.2,4.8,10.5,4.8,11.5c-0.1,9.3-5.8,17.6-15.9,16.6
			C326.6,702.8,345.9,716.9,358,706.8z"/>
		<path class="st3" d="M329.1,737.7c-6.9-7.4-11.9-18.3-6.3-28.7c3.2,2,6.4,3.3,10.3,0.4C340.5,705,346.9,750.7,329.1,737.7z"/>
		<path class="st3" d="M308.6,711c5.9,1.4,7.8-3.2,10.2-7c2.3,10.8,11.2,32.2-0.8,39.5C304.2,748.7,299.9,716.1,308.6,711z"/>
		<path class="st3" d="M295.7,744.5c-12,0.7-7.9-16.8-13.5-24.2c-1.5-7.6,5.6-6.6,10.3-9.6c1.8-2.8,3.2-5,7-3.8
			C306.6,717,309.5,739.2,295.7,744.5z"/>
		<path class="st3" d="M276.1,706.6c6.7,6.4,13.1,26.2,6.3,32.8C268.8,748.6,256.8,703.3,276.1,706.6z"/>
		<path class="st3" d="M443.7,660.1c18.4,22.9-23.4,41.8-27.3,14.6C411.1,660.9,438.1,648.9,443.7,660.1z"/>
		<path class="st3" d="M407.2,668.3c20.8,1.7,10.2,33.8-11.5,29.2c-6.1-5.1-6.2-22.2-2.3-26.5C398.4,671.7,403,670.9,407.2,668.3z"
			/>
		<path class="st3" d="M388,669.6c10.3,13.6,6.4,31.6-13.5,32.7C345.3,709.4,351.8,661.6,388,669.6z"/>
		<path class="st3" d="M356.2,684c4.8,10.6,5.3,31.3-11.7,25.6C326.7,700.4,343,657.2,356.2,684z"/>
		<path class="st3" d="M329.7,676.6c13.4,3.3,9.7,45.4-5.9,32C320.4,700.7,316,673.1,329.7,676.6z"/>
		<path class="st3" d="M301,708.3c-7.2-11.6-5-49,14.1-30.6C325.2,683.3,318.6,717.9,301,708.3z"/>
		<path class="st3" d="M283.9,669.6c20.7,4.9,17.3,59-7.3,39.5C269.4,697.2,271.7,676,283.9,669.6z"/>
		<path class="st3" d="M276.7,677.1c-5.4,7,0.9,24.4-5.6,27.5C244.6,728.2,257,637.3,276.7,677.1z"/>
	</g>
</g>
<g>
	<path class="st1" d="M1311.9,261.9c0,10.1-2,19.1-5.9,26.9s-9.5,14.2-16.5,19.3c-6.9,5.1-14.5,8.8-22.8,11.2
		c-8.3,2.4-17.1,3.6-26.4,3.6h-21.7v58.8c0,3.2,0.5,6,1.6,8.4c1,2.4,3.2,4.3,6.5,5.5c1.6,0.6,4.5,1.2,8.7,1.8c4.1,0.5,8,0.9,11.4,1
		v9.7h-83.3v-9.7c2.2-0.2,5.4-0.5,9.5-1c4.1-0.5,7-1,8.7-1.8c2.7-1.2,4.7-2.9,5.9-5.2c1.2-2.3,1.8-5.2,1.8-8.8v-140
		c0-3.2-0.5-6.1-1.4-8.6c-0.9-2.6-3.1-4.5-6.4-5.7c-3.5-1.2-6.9-2-10.3-2.5c-3.4-0.5-6.4-0.8-8.8-1V214h88.6c18,0,32.7,4.4,44,13.1
		C1306.2,235.8,1311.9,247.4,1311.9,261.9z M1270.3,295c3.1-4.4,5.1-8.9,6.2-13.6c1-4.7,1.5-8.9,1.5-12.6c0-5.2-0.6-10.5-1.8-15.9
		c-1.2-5.4-3.3-10.1-6.4-14.1c-3.2-4.3-7.4-7.6-12.6-10c-5.2-2.4-11.7-3.6-19.4-3.6h-19.3V311h13.9c9.8,0,17.8-1.5,24-4.6
		C1262.6,303.3,1267.2,299.5,1270.3,295z"/>
	<path class="st1" d="M1515,408h-80.6v-9.7c7.1-0.5,13-1.4,17.7-2.7s7-3.1,7-5.1c0-0.8-0.1-1.8-0.3-3c-0.2-1.2-0.5-2.2-0.8-3.1
		l-16.1-43.5h-68.1c-2.6,6.4-4.6,11.9-6.2,16.7c-1.6,4.7-3,9.1-4.3,13.1c-1.2,3.9-2,7.1-2.5,9.6s-0.7,4.5-0.7,6
		c0,3.6,2.9,6.5,8.6,8.5c5.7,2,12.2,3.2,19.4,3.6v9.7h-73.1v-9.7c2.4-0.2,5.3-0.7,8.9-1.6c3.6-0.9,6.5-2,8.8-3.5
		c3.6-2.5,6.5-5,8.5-7.7c2-2.7,4-6.4,5.9-11.1c9.8-24.3,20.5-51.7,32.3-82s22.2-57.4,31.4-81.1h10.9l64.7,167.3
		c1.4,3.6,2.9,6.4,4.6,8.6c1.7,2.2,4.1,4.3,7.2,6.4c2.1,1.3,4.8,2.3,8.2,3.2c3.4,0.9,6.2,1.3,8.5,1.4V408z M1437,328.8l-29.4-75.3
		l-29,75.3H1437z"/>
	<path class="st1" d="M1707.8,408H1617v-9.7c7.5-0.2,13.5-0.9,18.1-2.1c4.6-1.2,6.9-3.1,6.9-5.7c0-1.4-1-4.2-3.1-8.5
		c-2.1-4.3-4.8-9.1-8.1-14.4c-3.6-5.8-8-12.7-13-20.6s-10-15.4-14.9-22.6c-8,10.6-17.1,23.3-27.4,38.2
		c-10.2,14.9-15.3,23.7-15.3,26.3c0,3,1.4,5.2,4.2,6.6c2.8,1.4,8.9,2.3,18.4,2.7v9.7h-72.5v-9.7c2.4-0.2,5.4-0.5,9.1-1
		c3.7-0.5,6.7-1.3,9.1-2.5c4.7-2.6,8.5-5.3,11.4-8.3c2.9-3,5.8-6.4,8.7-10.5c5.8-8,13.3-18,22.4-30c9.1-12,17.2-22.9,24.2-32.8
		c-5.3-7.7-12-17.6-20.3-29.5c-8.2-11.9-17-24.6-26.3-38.2c-3.9-5.7-7-9.8-9.2-12.2c-2.2-2.4-5.2-4.4-8.9-6.2
		c-2.2-1-5.2-1.8-9.1-2.4c-3.9-0.6-6.9-1-9.2-1.2V214h89.8v9.7c-5.3,0.2-10.8,0.8-16.4,2c-5.7,1.1-8.5,2.9-8.5,5.3
		c0,1.7,1.1,4.8,3.4,9.1c2.3,4.3,5,9,8.1,13.9c3.2,5.1,6.7,10.8,10.7,17c3.9,6.2,8.7,13.4,14.4,21.5c10.3-14,19.2-26.5,26.6-37.7
		c7.5-11.2,11.2-18.5,11.2-21.9c0-2.9-1.7-5.1-5.1-6.4c-3.4-1.4-9.2-2.2-17.3-2.6V214h72.3v9.7c-2.3,0.1-5.3,0.4-9,1
		c-3.7,0.6-6.8,1.4-9.2,2.5c-4.7,2.3-8.3,4.7-10.6,7.4c-2.3,2.6-5.4,6.5-9.4,11.5c-7.3,9.4-14,18.2-20.2,26.5
		c-6.2,8.3-13.6,18.3-22.2,30.2c7.3,10.4,15.4,22.2,24.4,35.4c9,13.2,17.6,25.8,25.8,37.8c2.8,4.1,6.1,8,9.7,11.7
		c3.6,3.7,6.6,6.2,8.9,7.6c2.2,1.3,5.1,2.1,8.8,2.4c3.7,0.3,6.8,0.5,9.4,0.6V408z"/>
	<path class="st1" d="M1284.1,655c4.1,4.6,7.1,9.5,9.1,15c2,5.4,2.9,11.7,2.9,18.9c0,17.1-6.3,31.3-19,42.4
		c-12.7,11.1-28.4,16.7-47.2,16.7c-8.7,0-17.3-1.3-26-4c-8.7-2.7-16.1-5.9-22.4-9.8l-5.9,10h-10.9l-1.9-66.4h11.1
		c2.3,8.2,4.9,15.6,8,22.2c3.1,6.6,7.1,12.8,12.1,18.5c4.7,5.4,10.3,9.7,16.6,12.9c6.3,3.2,13.7,4.8,22.1,4.8
		c6.3,0,11.8-0.8,16.5-2.5c4.7-1.6,8.5-4,11.4-7c2.9-3,5.1-6.5,6.5-10.6c1.4-4.1,2.1-8.7,2.1-14c0-7.8-2.2-15-6.6-21.7
		c-4.4-6.7-10.9-11.8-19.6-15.3c-5.9-2.4-12.7-5-20.4-7.8c-7.7-2.9-14.3-5.6-19.8-8.1c-10.9-4.9-19.4-11.4-25.5-19.3
		c-6.1-8-9.1-18.4-9.1-31.2c0-7.4,1.5-14.3,4.5-20.6c3-6.4,7.3-12.1,12.9-17.1c5.3-4.7,11.5-8.5,18.7-11.1c7.2-2.7,14.7-4,22.6-4
		c8.9,0,16.9,1.4,24,4.1c7.1,2.7,13.5,5.9,19.3,9.6l5.6-9.3h10.9l1.1,64.4h-11.1c-2-7.4-4.3-14.4-6.8-21.2
		c-2.5-6.7-5.8-12.9-9.8-18.3c-3.9-5.3-8.7-9.5-14.4-12.6c-5.7-3.1-12.6-4.7-20.8-4.7c-8.7,0-16,2.8-22.1,8.3
		c-6.1,5.6-9.2,12.4-9.2,20.4c0,8.4,2,15.3,5.9,20.8c3.9,5.5,9.6,10,17.1,13.6c6.7,3.2,13.2,5.9,19.6,8.3s12.6,4.8,18.7,7.5
		c5.5,2.4,10.7,5.1,15.8,8.1S1280.4,651,1284.1,655z"/>
	<path class="st1" d="M1501.4,744h-80.6v-9.7c7.1-0.5,13-1.4,17.7-2.7s7-3.1,7-5.1c0-0.8-0.1-1.8-0.3-3c-0.2-1.2-0.5-2.2-0.8-3.1
		l-16.1-43.5h-68.1c-2.6,6.4-4.6,11.9-6.2,16.7c-1.6,4.7-3,9.1-4.3,13.1c-1.2,3.9-2,7.1-2.5,9.6s-0.7,4.5-0.7,6
		c0,3.6,2.9,6.5,8.6,8.5c5.7,2,12.2,3.2,19.4,3.6v9.7h-73.1v-9.7c2.4-0.2,5.3-0.7,8.9-1.6c3.6-0.9,6.5-2,8.8-3.5
		c3.6-2.5,6.5-5,8.5-7.7c2-2.7,4-6.4,5.9-11.1c9.8-24.3,20.5-51.7,32.3-82s22.2-57.4,31.4-81.1h10.9l64.7,167.3
		c1.4,3.6,2.9,6.4,4.6,8.6c1.7,2.2,4.1,4.3,7.2,6.4c2.1,1.3,4.8,2.3,8.2,3.2c3.4,0.9,6.2,1.3,8.5,1.4V744z M1423.3,664.8l-29.4-75.3
		l-29,75.3H1423.3z"/>
	<path class="st1" d="M1656.8,597.9c0,10.1-2,19.1-5.9,26.9s-9.5,14.2-16.5,19.3c-6.9,5.1-14.5,8.8-22.8,11.2
		c-8.3,2.4-17.1,3.6-26.4,3.6h-21.7v58.8c0,3.2,0.5,6,1.6,8.4c1,2.4,3.2,4.3,6.5,5.5c1.6,0.6,4.5,1.2,8.7,1.8c4.1,0.5,8,0.9,11.4,1
		v9.7h-83.3v-9.7c2.2-0.2,5.4-0.5,9.5-1c4.1-0.5,7-1,8.7-1.8c2.7-1.2,4.7-2.9,5.9-5.2c1.2-2.3,1.8-5.2,1.8-8.8v-140
		c0-3.2-0.5-6.1-1.4-8.6c-0.9-2.6-3.1-4.5-6.4-5.7c-3.5-1.2-6.9-2-10.3-2.5c-3.4-0.5-6.4-0.8-8.8-1V550h88.6c18,0,32.7,4.4,44,13.1
		C1651.2,571.8,1656.8,583.4,1656.8,597.9z M1615.3,631c3.1-4.4,5.1-8.9,6.2-13.6c1-4.7,1.5-8.9,1.5-12.6c0-5.2-0.6-10.5-1.8-15.9
		c-1.2-5.4-3.3-10.1-6.4-14.1c-3.2-4.3-7.4-7.6-12.6-10c-5.2-2.4-11.7-3.6-19.4-3.6h-19.3V647h13.9c9.8,0,17.8-1.5,24-4.6
		C1607.5,639.3,1612.2,635.5,1615.3,631z"/>
	<path class="st1" d="M1763.9,744h-87.4v-9.7c2.5-0.2,6-0.5,10.7-0.8c4.6-0.4,7.9-0.9,9.8-1.6c3-1.2,5.2-2.8,6.6-4.9
		s2.1-4.9,2.1-8.5V577.9c0-3.2-0.5-5.9-1.5-8c-1-2.1-3.4-3.9-7.1-5.4c-2.7-1.1-6.2-2.1-10.3-3.1c-4.1-1-7.5-1.5-10.2-1.7V550h87.4
		v9.7c-2.8,0.1-6.2,0.4-10.1,1c-3.9,0.6-7.3,1.3-10.3,2.3c-3.5,1.1-5.8,2.9-7,5.3c-1.2,2.5-1.8,5.2-1.8,8.2V717c0,3,0.7,5.7,2,8
		c1.3,2.3,3.6,4.2,6.8,5.5c1.9,0.7,5,1.5,9.4,2.4c4.3,0.9,8,1.3,11,1.4V744z"/>
	<path class="st1" d="M1951.3,686.9l-3.7,57.1h-161.1v-9.7c2.7-0.2,6.4-0.6,10.9-1.2c4.6-0.6,7.5-1.2,8.9-1.8
		c2.9-1.4,4.9-3.1,6.1-5.3c1.1-2.2,1.7-5,1.7-8.3V578.2c0-3-0.5-5.7-1.5-8c-1-2.3-3.1-4.2-6.3-5.7c-2.5-1.2-5.8-2.2-9.9-3.1
		c-4.1-0.9-7.5-1.5-9.9-1.6V550h150.1v46.8h-10.3c-1.8-6.9-5.8-14.3-11.8-22.1c-6.1-7.8-11.8-12.1-17.3-12.8
		c-2.8-0.4-6.2-0.6-10.1-0.8c-3.9-0.2-8.4-0.3-13.4-0.3h-30.5V638h21.9c7,0,12.1-0.7,15.4-2c3.2-1.3,6.1-3.5,8.5-6.6
		c2-2.6,3.7-6.2,5.1-10.6c1.4-4.4,2.3-8.6,2.8-12.5h10.3v76H1897c-0.4-4.4-1.3-9-2.9-13.9c-1.6-4.9-3.3-8.4-5-10.6
		c-2.8-3.6-6-5.9-9.6-7c-3.6-1.1-8.4-1.6-14.3-1.6h-21.9v58.1c0,5.8,0.4,10.4,1.2,13.8c0.8,3.4,2.4,5.9,4.8,7.6
		c2.4,1.7,5.6,2.8,9.7,3.3s9.9,0.8,17.5,0.8c3,0,7,0,11.9,0s9.1-0.2,12.4-0.5c3.5-0.4,7-1,10.7-2s6.3-2.3,7.9-3.9
		c4.2-4.4,8.6-11,13.2-19.9c4.6-8.9,7.5-15.4,8.8-19.6H1951.3z"/>
	<path class="st1" d="M2170.2,559.8c-2.6,0.1-6.5,0.8-11.8,2.2c-5.3,1.4-9.1,2.8-11.3,4.2c-3.3,2.3-5.5,6.7-6.6,13.1
		c-1.1,6.5-1.7,14.7-1.7,24.6V746h-11.9l-117.6-158.7v100.1c0,11.2,0.7,19.8,2.1,25.8c1.4,6,3.6,10.3,6.5,12.9c2.1,2,6.4,3.9,13,5.6
		c6.6,1.7,10.9,2.6,13,2.7v9.7h-79.6v-9.7c2.5-0.2,6.6-1.1,12.4-2.7c5.8-1.6,9.5-3,10.9-4.3c3.2-2.6,5.4-6.4,6.6-11.7
		c1.2-5.2,1.8-14.2,1.8-26.9v-95.6c0-4.2-0.7-8.4-2.2-12.6c-1.5-4.2-3.4-7.4-5.9-9.7c-3.3-3-7.7-5.6-13.3-7.7
		c-5.6-2.1-10.1-3.3-13.6-3.5V550h55.4l109,147.9v-92.3c0-11.3-0.7-20-2.2-26c-1.5-6.1-3.6-10.1-6.3-12.1c-2.6-1.7-6.7-3.4-12.5-5.1
		c-5.8-1.6-10.2-2.6-13.2-2.7V550h78.9V559.8z"/>
	<path class="st1" d="M2343.7,602.7h-9.4c-0.8-3.3-2.3-7.2-4.5-11.7c-2.1-4.5-4.5-8.8-7.2-12.8c-2.7-4.2-5.7-7.9-9-11
		c-3.2-3.1-6.4-4.9-9.4-5.4c-2.8-0.4-6.4-0.6-10.7-0.8c-4.3-0.2-8.3-0.3-11.9-0.3h-7.9v155.2c0,3,0.6,5.8,1.9,8.3
		c1.3,2.5,3.5,4.4,6.7,5.8c1.6,0.6,5.1,1.5,10.3,2.6c5.2,1.1,9.3,1.7,12.2,1.8v9.7h-91.6v-9.7c2.6-0.2,6.4-0.5,11.7-1.1
		c5.2-0.5,8.9-1.2,10.9-2.1c3-1.2,5.2-2.9,6.6-5.1c1.4-2.2,2.1-5.2,2.1-9V560.7h-7.9c-2.8,0-6.3,0.1-10.5,0.2
		c-4.2,0.1-8.2,0.4-12,0.9c-3,0.4-6.1,2.2-9.4,5.4c-3.2,3.2-6.2,6.9-9,11s-5.2,8.5-7.2,13.1c-2.1,4.6-3.6,8.4-4.4,11.4h-9.6V550
		h169.1V602.7z"/>
	<path class="st1" d="M2443.9,744h-87.4v-9.7c2.5-0.2,6-0.5,10.7-0.8c4.6-0.4,7.9-0.9,9.8-1.6c3-1.2,5.2-2.8,6.6-4.9
		s2.1-4.9,2.1-8.5V577.9c0-3.2-0.5-5.9-1.5-8c-1-2.1-3.4-3.9-7.1-5.4c-2.7-1.1-6.2-2.1-10.3-3.1c-4.1-1-7.5-1.5-10.2-1.7V550h87.4
		v9.7c-2.8,0.1-6.2,0.4-10.1,1c-3.9,0.6-7.3,1.3-10.3,2.3c-3.5,1.1-5.8,2.9-7,5.3c-1.2,2.5-1.8,5.2-1.8,8.2V717c0,3,0.7,5.7,2,8
		c1.3,2.3,3.6,4.2,6.8,5.5c1.9,0.7,5,1.5,9.4,2.4c4.3,0.9,8,1.3,11,1.4V744z"/>
	<path class="st1" d="M2553.6,748.7c-11.6,0-22.7-2.3-33.3-6.8c-10.6-4.6-20-11.1-28.2-19.7c-8.1-8.6-14.6-19-19.4-31.4
		c-4.8-12.4-7.2-26.3-7.2-41.8s2.4-29.6,7.1-42.2c4.7-12.6,11.3-23.5,19.7-32.6c8.3-9,18.1-16,29.4-20.9c11.3-4.9,23.4-7.4,36.2-7.4
		c9.6,0,18.2,1.2,26,3.6c7.7,2.4,15.1,5.7,22.1,10l5.6-9.3h10.9l1.2,69.2h-11.2c-1.5-6.7-3.6-14.1-6.6-21.9
		c-2.9-7.9-6.3-14.6-10.2-20c-4.4-6.2-9.6-11.1-15.6-14.6c-6-3.5-12.9-5.3-20.6-5.3c-8.8,0-17,2-24.7,5.9
		c-7.6,3.9-14.2,9.7-19.7,17.4c-5.3,7.4-9.4,16.8-12.4,28.2c-3,11.4-4.5,24.1-4.5,38.2c0,12.4,1.6,23.8,4.7,34.1
		c3.1,10.4,7.6,19.5,13.5,27.3c5.8,7.8,12.7,13.8,20.7,18.2c8,4.4,16.9,6.6,26.7,6.6c7.4,0,14.2-1.2,20.3-3.5
		c6.2-2.3,11.6-5.4,16.1-9.2c4.5-4,8.6-8.6,12-13.7c3.5-5.1,6.3-10.7,8.5-16.7l10.3,4.9c-7.8,19.2-18.2,33-31.1,41.2
		S2571.5,748.7,2553.6,748.7z"/>
	<path class="st1" d="M2828.9,744h-80.6v-9.7c7.1-0.5,13-1.4,17.7-2.7s7-3.1,7-5.1c0-0.8-0.1-1.8-0.3-3c-0.2-1.2-0.5-2.2-0.8-3.1
		l-16.1-43.5h-68.1c-2.6,6.4-4.6,11.9-6.2,16.7c-1.6,4.7-3,9.1-4.3,13.1c-1.2,3.9-2,7.1-2.5,9.6s-0.7,4.5-0.7,6
		c0,3.6,2.9,6.5,8.6,8.5c5.7,2,12.2,3.2,19.4,3.6v9.7H2629v-9.7c2.4-0.2,5.3-0.7,8.9-1.6c3.6-0.9,6.5-2,8.8-3.5
		c3.6-2.5,6.5-5,8.5-7.7c2-2.7,4-6.4,5.9-11.1c9.8-24.3,20.5-51.7,32.3-82s22.2-57.4,31.4-81.1h10.9l64.7,167.3
		c1.4,3.6,2.9,6.4,4.6,8.6c1.7,2.2,4.1,4.3,7.2,6.4c2.1,1.3,4.8,2.3,8.2,3.2c3.4,0.9,6.2,1.3,8.5,1.4V744z M2750.9,664.8l-29.4-75.3
		l-29,75.3H2750.9z"/>
</g>
</svg>
